G04 #@! TF.GenerationSoftware,KiCad,Pcbnew,7.0.2*
G04 #@! TF.CreationDate,2023-06-06T21:42:25-07:00*
G04 #@! TF.ProjectId,procon_gcc_button_board,70726f63-6f6e-45f6-9763-635f62757474,rev?*
G04 #@! TF.SameCoordinates,Original*
G04 #@! TF.FileFunction,Soldermask,Top*
G04 #@! TF.FilePolarity,Negative*
%FSLAX46Y46*%
G04 Gerber Fmt 4.6, Leading zero omitted, Abs format (unit mm)*
G04 Created by KiCad (PCBNEW 7.0.2) date 2023-06-06 21:42:25*
%MOMM*%
%LPD*%
G01*
G04 APERTURE LIST*
G04 Aperture macros list*
%AMFreePoly0*
4,1,21,-0.146464,0.553536,-0.145000,0.550000,-0.145000,0.355000,0.350000,0.355000,0.353536,0.353536,0.355000,0.350000,0.355000,-0.350000,0.353536,-0.353536,0.350000,-0.355000,-0.145000,-0.355000,-0.145000,-0.550000,-0.146464,-0.553536,-0.150000,-0.555000,-0.350000,-0.555000,-0.353536,-0.553536,-0.355000,-0.550000,-0.355000,0.550000,-0.353536,0.553536,-0.350000,0.555000,-0.150000,0.555000,
-0.146464,0.553536,-0.146464,0.553536,$1*%
G04 Aperture macros list end*
%ADD10C,0.025000*%
%ADD11C,3.050000*%
%ADD12C,3.800000*%
%ADD13FreePoly0,0.000000*%
%ADD14FreePoly0,180.000000*%
%ADD15R,0.550000X0.550000*%
G04 APERTURE END LIST*
D10*
X144475200Y-118133298D02*
X145429155Y-118133298D01*
X145429155Y-118802667D01*
X143842541Y-118802667D01*
X143842541Y-116249495D01*
X144475200Y-116249495D01*
X144475200Y-118133298D01*
G36*
X144475200Y-118133298D02*
G01*
X145429155Y-118133298D01*
X145429155Y-118802667D01*
X143842541Y-118802667D01*
X143842541Y-116249495D01*
X144475200Y-116249495D01*
X144475200Y-118133298D01*
G37*
X141709066Y-118802667D02*
X141028205Y-118802667D01*
X141028205Y-117834545D01*
X140788549Y-117834545D01*
X140788549Y-118802667D01*
X140103249Y-118802667D01*
X140103249Y-116250015D01*
X140786263Y-116249495D01*
X140786263Y-117172297D01*
X141028205Y-117172297D01*
X141028205Y-116249495D01*
X141709066Y-116249495D01*
X141709066Y-118802667D01*
G36*
X141709066Y-118802667D02*
G01*
X141028205Y-118802667D01*
X141028205Y-117834545D01*
X140788549Y-117834545D01*
X140788549Y-118802667D01*
X140103249Y-118802667D01*
X140103249Y-116250015D01*
X140786263Y-116249495D01*
X140786263Y-117172297D01*
X141028205Y-117172297D01*
X141028205Y-116249495D01*
X141709066Y-116249495D01*
X141709066Y-118802667D01*
G37*
X143559066Y-118802667D02*
X142878205Y-118802667D01*
X142878205Y-117834545D01*
X142638549Y-117834545D01*
X142638549Y-118802667D01*
X141953249Y-118802667D01*
X141953249Y-116250015D01*
X142636263Y-116249495D01*
X142636263Y-117172297D01*
X142878205Y-117172297D01*
X142878205Y-116249495D01*
X143559066Y-116249495D01*
X143559066Y-118802667D01*
G36*
X143559066Y-118802667D02*
G01*
X142878205Y-118802667D01*
X142878205Y-117834545D01*
X142638549Y-117834545D01*
X142638549Y-118802667D01*
X141953249Y-118802667D01*
X141953249Y-116250015D01*
X142636263Y-116249495D01*
X142636263Y-117172297D01*
X142878205Y-117172297D01*
X142878205Y-116249495D01*
X143559066Y-116249495D01*
X143559066Y-118802667D01*
G37*
D11*
X121003000Y-159421000D02*
G75*
G03*
X121003000Y-159421000I-1525000J0D01*
G01*
D12*
X173178000Y-129346000D02*
G75*
G03*
X173178000Y-129346000I-1900000J0D01*
G01*
X196978000Y-129346000D02*
G75*
G03*
X196978000Y-129346000I-1900000J0D01*
G01*
X185078000Y-139546000D02*
G75*
G03*
X185078000Y-139546000I-1900000J0D01*
G01*
D11*
X112003000Y-150421000D02*
G75*
G03*
X112003000Y-150421000I-1525000J0D01*
G01*
D12*
X185078000Y-119146000D02*
G75*
G03*
X185078000Y-119146000I-1900000J0D01*
G01*
D11*
X130003000Y-150421000D02*
G75*
G03*
X130003000Y-150421000I-1525000J0D01*
G01*
X121003000Y-141421000D02*
G75*
G03*
X121003000Y-141421000I-1525000J0D01*
G01*
D13*
X159523000Y-116236000D03*
D14*
X163973000Y-116236000D03*
D13*
X159523000Y-119736000D03*
D14*
X163973000Y-119736000D03*
D13*
X129823000Y-127736000D03*
D14*
X134273000Y-127736000D03*
D13*
X129823000Y-131236000D03*
D14*
X134273000Y-131236000D03*
D15*
X131573000Y-134461000D03*
X132523000Y-134461000D03*
X132523000Y-133511000D03*
X131573000Y-133511000D03*
D13*
X121923000Y-116236000D03*
D14*
X126373000Y-116236000D03*
D13*
X121923000Y-119736000D03*
D14*
X126373000Y-119736000D03*
D15*
X119003000Y-146246000D03*
X119953000Y-146246000D03*
X119953000Y-145296000D03*
X119003000Y-145296000D03*
X119003000Y-155546000D03*
X119953000Y-155546000D03*
X119953000Y-154596000D03*
X119003000Y-154596000D03*
X182703000Y-145271000D03*
X183653000Y-145271000D03*
X183653000Y-144321000D03*
X182703000Y-144321000D03*
X123673000Y-122961000D03*
X124623000Y-122961000D03*
X124623000Y-122011000D03*
X123673000Y-122011000D03*
X170803000Y-135071000D03*
X171753000Y-135071000D03*
X171753000Y-134121000D03*
X170803000Y-134121000D03*
X114353000Y-150896000D03*
X115303000Y-150896000D03*
X115303000Y-149946000D03*
X114353000Y-149946000D03*
X123653000Y-150896000D03*
X124603000Y-150896000D03*
X124603000Y-149946000D03*
X123653000Y-149946000D03*
X194603000Y-135071000D03*
X195553000Y-135071000D03*
X195553000Y-134121000D03*
X194603000Y-134121000D03*
X153223000Y-134461000D03*
X154173000Y-134461000D03*
X154173000Y-133511000D03*
X153223000Y-133511000D03*
X182703000Y-124871000D03*
X183653000Y-124871000D03*
X183653000Y-123921000D03*
X182703000Y-123921000D03*
D13*
X151473000Y-127736000D03*
D14*
X155923000Y-127736000D03*
D13*
X151473000Y-131236000D03*
D14*
X155923000Y-131236000D03*
D15*
X161273000Y-122961000D03*
X162223000Y-122961000D03*
X162223000Y-122011000D03*
X161273000Y-122011000D03*
M02*
