G04 #@! TF.GenerationSoftware,KiCad,Pcbnew,7.0.2*
G04 #@! TF.CreationDate,2023-06-06T21:42:25-07:00*
G04 #@! TF.ProjectId,procon_gcc_button_board,70726f63-6f6e-45f6-9763-635f62757474,rev?*
G04 #@! TF.SameCoordinates,Original*
G04 #@! TF.FileFunction,AssemblyDrawing,Bot*
%FSLAX46Y46*%
G04 Gerber Fmt 4.6, Leading zero omitted, Abs format (unit mm)*
G04 Created by KiCad (PCBNEW 7.0.2) date 2023-06-06 21:42:25*
%MOMM*%
%LPD*%
G01*
G04 APERTURE LIST*
%ADD10C,0.075000*%
%ADD11C,0.150000*%
%ADD12C,0.100000*%
G04 APERTURE END LIST*
D10*
X146743767Y-164490921D02*
X146743767Y-163990921D01*
X146743767Y-163990921D02*
X146624719Y-163990921D01*
X146624719Y-163990921D02*
X146553291Y-164014731D01*
X146553291Y-164014731D02*
X146505672Y-164062350D01*
X146505672Y-164062350D02*
X146481862Y-164109969D01*
X146481862Y-164109969D02*
X146458053Y-164205207D01*
X146458053Y-164205207D02*
X146458053Y-164276635D01*
X146458053Y-164276635D02*
X146481862Y-164371873D01*
X146481862Y-164371873D02*
X146505672Y-164419492D01*
X146505672Y-164419492D02*
X146553291Y-164467112D01*
X146553291Y-164467112D02*
X146624719Y-164490921D01*
X146624719Y-164490921D02*
X146743767Y-164490921D01*
X146267576Y-164038540D02*
X146243767Y-164014731D01*
X146243767Y-164014731D02*
X146196148Y-163990921D01*
X146196148Y-163990921D02*
X146077100Y-163990921D01*
X146077100Y-163990921D02*
X146029481Y-164014731D01*
X146029481Y-164014731D02*
X146005672Y-164038540D01*
X146005672Y-164038540D02*
X145981862Y-164086159D01*
X145981862Y-164086159D02*
X145981862Y-164133778D01*
X145981862Y-164133778D02*
X146005672Y-164205207D01*
X146005672Y-164205207D02*
X146291386Y-164490921D01*
X146291386Y-164490921D02*
X145981862Y-164490921D01*
X137599767Y-164490921D02*
X137599767Y-163990921D01*
X137599767Y-163990921D02*
X137480719Y-163990921D01*
X137480719Y-163990921D02*
X137409291Y-164014731D01*
X137409291Y-164014731D02*
X137361672Y-164062350D01*
X137361672Y-164062350D02*
X137337862Y-164109969D01*
X137337862Y-164109969D02*
X137314053Y-164205207D01*
X137314053Y-164205207D02*
X137314053Y-164276635D01*
X137314053Y-164276635D02*
X137337862Y-164371873D01*
X137337862Y-164371873D02*
X137361672Y-164419492D01*
X137361672Y-164419492D02*
X137409291Y-164467112D01*
X137409291Y-164467112D02*
X137480719Y-164490921D01*
X137480719Y-164490921D02*
X137599767Y-164490921D01*
X136861672Y-163990921D02*
X137099767Y-163990921D01*
X137099767Y-163990921D02*
X137123576Y-164229016D01*
X137123576Y-164229016D02*
X137099767Y-164205207D01*
X137099767Y-164205207D02*
X137052148Y-164181397D01*
X137052148Y-164181397D02*
X136933100Y-164181397D01*
X136933100Y-164181397D02*
X136885481Y-164205207D01*
X136885481Y-164205207D02*
X136861672Y-164229016D01*
X136861672Y-164229016D02*
X136837862Y-164276635D01*
X136837862Y-164276635D02*
X136837862Y-164395683D01*
X136837862Y-164395683D02*
X136861672Y-164443302D01*
X136861672Y-164443302D02*
X136885481Y-164467112D01*
X136885481Y-164467112D02*
X136933100Y-164490921D01*
X136933100Y-164490921D02*
X137052148Y-164490921D01*
X137052148Y-164490921D02*
X137099767Y-164467112D01*
X137099767Y-164467112D02*
X137123576Y-164443302D01*
X140647767Y-164490921D02*
X140647767Y-163990921D01*
X140647767Y-163990921D02*
X140528719Y-163990921D01*
X140528719Y-163990921D02*
X140457291Y-164014731D01*
X140457291Y-164014731D02*
X140409672Y-164062350D01*
X140409672Y-164062350D02*
X140385862Y-164109969D01*
X140385862Y-164109969D02*
X140362053Y-164205207D01*
X140362053Y-164205207D02*
X140362053Y-164276635D01*
X140362053Y-164276635D02*
X140385862Y-164371873D01*
X140385862Y-164371873D02*
X140409672Y-164419492D01*
X140409672Y-164419492D02*
X140457291Y-164467112D01*
X140457291Y-164467112D02*
X140528719Y-164490921D01*
X140528719Y-164490921D02*
X140647767Y-164490921D01*
X139933481Y-164157588D02*
X139933481Y-164490921D01*
X140052529Y-163967112D02*
X140171576Y-164324254D01*
X140171576Y-164324254D02*
X139862053Y-164324254D01*
X134551767Y-164490921D02*
X134551767Y-163990921D01*
X134551767Y-163990921D02*
X134432719Y-163990921D01*
X134432719Y-163990921D02*
X134361291Y-164014731D01*
X134361291Y-164014731D02*
X134313672Y-164062350D01*
X134313672Y-164062350D02*
X134289862Y-164109969D01*
X134289862Y-164109969D02*
X134266053Y-164205207D01*
X134266053Y-164205207D02*
X134266053Y-164276635D01*
X134266053Y-164276635D02*
X134289862Y-164371873D01*
X134289862Y-164371873D02*
X134313672Y-164419492D01*
X134313672Y-164419492D02*
X134361291Y-164467112D01*
X134361291Y-164467112D02*
X134432719Y-164490921D01*
X134432719Y-164490921D02*
X134551767Y-164490921D01*
X133837481Y-163990921D02*
X133932719Y-163990921D01*
X133932719Y-163990921D02*
X133980338Y-164014731D01*
X133980338Y-164014731D02*
X134004148Y-164038540D01*
X134004148Y-164038540D02*
X134051767Y-164109969D01*
X134051767Y-164109969D02*
X134075576Y-164205207D01*
X134075576Y-164205207D02*
X134075576Y-164395683D01*
X134075576Y-164395683D02*
X134051767Y-164443302D01*
X134051767Y-164443302D02*
X134027957Y-164467112D01*
X134027957Y-164467112D02*
X133980338Y-164490921D01*
X133980338Y-164490921D02*
X133885100Y-164490921D01*
X133885100Y-164490921D02*
X133837481Y-164467112D01*
X133837481Y-164467112D02*
X133813672Y-164443302D01*
X133813672Y-164443302D02*
X133789862Y-164395683D01*
X133789862Y-164395683D02*
X133789862Y-164276635D01*
X133789862Y-164276635D02*
X133813672Y-164229016D01*
X133813672Y-164229016D02*
X133837481Y-164205207D01*
X133837481Y-164205207D02*
X133885100Y-164181397D01*
X133885100Y-164181397D02*
X133980338Y-164181397D01*
X133980338Y-164181397D02*
X134027957Y-164205207D01*
X134027957Y-164205207D02*
X134051767Y-164229016D01*
X134051767Y-164229016D02*
X134075576Y-164276635D01*
X143695767Y-164490921D02*
X143695767Y-163990921D01*
X143695767Y-163990921D02*
X143576719Y-163990921D01*
X143576719Y-163990921D02*
X143505291Y-164014731D01*
X143505291Y-164014731D02*
X143457672Y-164062350D01*
X143457672Y-164062350D02*
X143433862Y-164109969D01*
X143433862Y-164109969D02*
X143410053Y-164205207D01*
X143410053Y-164205207D02*
X143410053Y-164276635D01*
X143410053Y-164276635D02*
X143433862Y-164371873D01*
X143433862Y-164371873D02*
X143457672Y-164419492D01*
X143457672Y-164419492D02*
X143505291Y-164467112D01*
X143505291Y-164467112D02*
X143576719Y-164490921D01*
X143576719Y-164490921D02*
X143695767Y-164490921D01*
X143243386Y-163990921D02*
X142933862Y-163990921D01*
X142933862Y-163990921D02*
X143100529Y-164181397D01*
X143100529Y-164181397D02*
X143029100Y-164181397D01*
X143029100Y-164181397D02*
X142981481Y-164205207D01*
X142981481Y-164205207D02*
X142957672Y-164229016D01*
X142957672Y-164229016D02*
X142933862Y-164276635D01*
X142933862Y-164276635D02*
X142933862Y-164395683D01*
X142933862Y-164395683D02*
X142957672Y-164443302D01*
X142957672Y-164443302D02*
X142981481Y-164467112D01*
X142981481Y-164467112D02*
X143029100Y-164490921D01*
X143029100Y-164490921D02*
X143171957Y-164490921D01*
X143171957Y-164490921D02*
X143219576Y-164467112D01*
X143219576Y-164467112D02*
X143243386Y-164443302D01*
X149791767Y-164490921D02*
X149791767Y-163990921D01*
X149791767Y-163990921D02*
X149672719Y-163990921D01*
X149672719Y-163990921D02*
X149601291Y-164014731D01*
X149601291Y-164014731D02*
X149553672Y-164062350D01*
X149553672Y-164062350D02*
X149529862Y-164109969D01*
X149529862Y-164109969D02*
X149506053Y-164205207D01*
X149506053Y-164205207D02*
X149506053Y-164276635D01*
X149506053Y-164276635D02*
X149529862Y-164371873D01*
X149529862Y-164371873D02*
X149553672Y-164419492D01*
X149553672Y-164419492D02*
X149601291Y-164467112D01*
X149601291Y-164467112D02*
X149672719Y-164490921D01*
X149672719Y-164490921D02*
X149791767Y-164490921D01*
X149029862Y-164490921D02*
X149315576Y-164490921D01*
X149172719Y-164490921D02*
X149172719Y-163990921D01*
X149172719Y-163990921D02*
X149220338Y-164062350D01*
X149220338Y-164062350D02*
X149267957Y-164109969D01*
X149267957Y-164109969D02*
X149315576Y-164133778D01*
D11*
X110559958Y-156263863D02*
X109988530Y-156263863D01*
X110274244Y-157263863D02*
X110274244Y-156263863D01*
X109512339Y-157263863D02*
X109607577Y-157216244D01*
X109607577Y-157216244D02*
X109655196Y-157168624D01*
X109655196Y-157168624D02*
X109702815Y-157073386D01*
X109702815Y-157073386D02*
X109702815Y-156787672D01*
X109702815Y-156787672D02*
X109655196Y-156692434D01*
X109655196Y-156692434D02*
X109607577Y-156644815D01*
X109607577Y-156644815D02*
X109512339Y-156597196D01*
X109512339Y-156597196D02*
X109369482Y-156597196D01*
X109369482Y-156597196D02*
X109274244Y-156644815D01*
X109274244Y-156644815D02*
X109226625Y-156692434D01*
X109226625Y-156692434D02*
X109179006Y-156787672D01*
X109179006Y-156787672D02*
X109179006Y-157073386D01*
X109179006Y-157073386D02*
X109226625Y-157168624D01*
X109226625Y-157168624D02*
X109274244Y-157216244D01*
X109274244Y-157216244D02*
X109369482Y-157263863D01*
X109369482Y-157263863D02*
X109512339Y-157263863D01*
X107655196Y-156740053D02*
X107512339Y-156787672D01*
X107512339Y-156787672D02*
X107464720Y-156835291D01*
X107464720Y-156835291D02*
X107417101Y-156930529D01*
X107417101Y-156930529D02*
X107417101Y-157073386D01*
X107417101Y-157073386D02*
X107464720Y-157168624D01*
X107464720Y-157168624D02*
X107512339Y-157216244D01*
X107512339Y-157216244D02*
X107607577Y-157263863D01*
X107607577Y-157263863D02*
X107988529Y-157263863D01*
X107988529Y-157263863D02*
X107988529Y-156263863D01*
X107988529Y-156263863D02*
X107655196Y-156263863D01*
X107655196Y-156263863D02*
X107559958Y-156311482D01*
X107559958Y-156311482D02*
X107512339Y-156359101D01*
X107512339Y-156359101D02*
X107464720Y-156454339D01*
X107464720Y-156454339D02*
X107464720Y-156549577D01*
X107464720Y-156549577D02*
X107512339Y-156644815D01*
X107512339Y-156644815D02*
X107559958Y-156692434D01*
X107559958Y-156692434D02*
X107655196Y-156740053D01*
X107655196Y-156740053D02*
X107988529Y-156740053D01*
X106559958Y-156597196D02*
X106559958Y-157263863D01*
X106988529Y-156597196D02*
X106988529Y-157121005D01*
X106988529Y-157121005D02*
X106940910Y-157216244D01*
X106940910Y-157216244D02*
X106845672Y-157263863D01*
X106845672Y-157263863D02*
X106702815Y-157263863D01*
X106702815Y-157263863D02*
X106607577Y-157216244D01*
X106607577Y-157216244D02*
X106559958Y-157168624D01*
X106226624Y-156597196D02*
X105845672Y-156597196D01*
X106083767Y-156263863D02*
X106083767Y-157121005D01*
X106083767Y-157121005D02*
X106036148Y-157216244D01*
X106036148Y-157216244D02*
X105940910Y-157263863D01*
X105940910Y-157263863D02*
X105845672Y-157263863D01*
X105655195Y-156597196D02*
X105274243Y-156597196D01*
X105512338Y-156263863D02*
X105512338Y-157121005D01*
X105512338Y-157121005D02*
X105464719Y-157216244D01*
X105464719Y-157216244D02*
X105369481Y-157263863D01*
X105369481Y-157263863D02*
X105274243Y-157263863D01*
X104798052Y-157263863D02*
X104893290Y-157216244D01*
X104893290Y-157216244D02*
X104940909Y-157168624D01*
X104940909Y-157168624D02*
X104988528Y-157073386D01*
X104988528Y-157073386D02*
X104988528Y-156787672D01*
X104988528Y-156787672D02*
X104940909Y-156692434D01*
X104940909Y-156692434D02*
X104893290Y-156644815D01*
X104893290Y-156644815D02*
X104798052Y-156597196D01*
X104798052Y-156597196D02*
X104655195Y-156597196D01*
X104655195Y-156597196D02*
X104559957Y-156644815D01*
X104559957Y-156644815D02*
X104512338Y-156692434D01*
X104512338Y-156692434D02*
X104464719Y-156787672D01*
X104464719Y-156787672D02*
X104464719Y-157073386D01*
X104464719Y-157073386D02*
X104512338Y-157168624D01*
X104512338Y-157168624D02*
X104559957Y-157216244D01*
X104559957Y-157216244D02*
X104655195Y-157263863D01*
X104655195Y-157263863D02*
X104798052Y-157263863D01*
X104036147Y-156597196D02*
X104036147Y-157263863D01*
X104036147Y-156692434D02*
X103988528Y-156644815D01*
X103988528Y-156644815D02*
X103893290Y-156597196D01*
X103893290Y-156597196D02*
X103750433Y-156597196D01*
X103750433Y-156597196D02*
X103655195Y-156644815D01*
X103655195Y-156644815D02*
X103607576Y-156740053D01*
X103607576Y-156740053D02*
X103607576Y-157263863D01*
X102036147Y-156740053D02*
X101893290Y-156787672D01*
X101893290Y-156787672D02*
X101845671Y-156835291D01*
X101845671Y-156835291D02*
X101798052Y-156930529D01*
X101798052Y-156930529D02*
X101798052Y-157073386D01*
X101798052Y-157073386D02*
X101845671Y-157168624D01*
X101845671Y-157168624D02*
X101893290Y-157216244D01*
X101893290Y-157216244D02*
X101988528Y-157263863D01*
X101988528Y-157263863D02*
X102369480Y-157263863D01*
X102369480Y-157263863D02*
X102369480Y-156263863D01*
X102369480Y-156263863D02*
X102036147Y-156263863D01*
X102036147Y-156263863D02*
X101940909Y-156311482D01*
X101940909Y-156311482D02*
X101893290Y-156359101D01*
X101893290Y-156359101D02*
X101845671Y-156454339D01*
X101845671Y-156454339D02*
X101845671Y-156549577D01*
X101845671Y-156549577D02*
X101893290Y-156644815D01*
X101893290Y-156644815D02*
X101940909Y-156692434D01*
X101940909Y-156692434D02*
X102036147Y-156740053D01*
X102036147Y-156740053D02*
X102369480Y-156740053D01*
X101226623Y-157263863D02*
X101321861Y-157216244D01*
X101321861Y-157216244D02*
X101369480Y-157168624D01*
X101369480Y-157168624D02*
X101417099Y-157073386D01*
X101417099Y-157073386D02*
X101417099Y-156787672D01*
X101417099Y-156787672D02*
X101369480Y-156692434D01*
X101369480Y-156692434D02*
X101321861Y-156644815D01*
X101321861Y-156644815D02*
X101226623Y-156597196D01*
X101226623Y-156597196D02*
X101083766Y-156597196D01*
X101083766Y-156597196D02*
X100988528Y-156644815D01*
X100988528Y-156644815D02*
X100940909Y-156692434D01*
X100940909Y-156692434D02*
X100893290Y-156787672D01*
X100893290Y-156787672D02*
X100893290Y-157073386D01*
X100893290Y-157073386D02*
X100940909Y-157168624D01*
X100940909Y-157168624D02*
X100988528Y-157216244D01*
X100988528Y-157216244D02*
X101083766Y-157263863D01*
X101083766Y-157263863D02*
X101226623Y-157263863D01*
X100036147Y-157263863D02*
X100036147Y-156740053D01*
X100036147Y-156740053D02*
X100083766Y-156644815D01*
X100083766Y-156644815D02*
X100179004Y-156597196D01*
X100179004Y-156597196D02*
X100369480Y-156597196D01*
X100369480Y-156597196D02*
X100464718Y-156644815D01*
X100036147Y-157216244D02*
X100131385Y-157263863D01*
X100131385Y-157263863D02*
X100369480Y-157263863D01*
X100369480Y-157263863D02*
X100464718Y-157216244D01*
X100464718Y-157216244D02*
X100512337Y-157121005D01*
X100512337Y-157121005D02*
X100512337Y-157025767D01*
X100512337Y-157025767D02*
X100464718Y-156930529D01*
X100464718Y-156930529D02*
X100369480Y-156882910D01*
X100369480Y-156882910D02*
X100131385Y-156882910D01*
X100131385Y-156882910D02*
X100036147Y-156835291D01*
X99559956Y-157263863D02*
X99559956Y-156597196D01*
X99559956Y-156787672D02*
X99512337Y-156692434D01*
X99512337Y-156692434D02*
X99464718Y-156644815D01*
X99464718Y-156644815D02*
X99369480Y-156597196D01*
X99369480Y-156597196D02*
X99274242Y-156597196D01*
X98512337Y-157263863D02*
X98512337Y-156263863D01*
X98512337Y-157216244D02*
X98607575Y-157263863D01*
X98607575Y-157263863D02*
X98798051Y-157263863D01*
X98798051Y-157263863D02*
X98893289Y-157216244D01*
X98893289Y-157216244D02*
X98940908Y-157168624D01*
X98940908Y-157168624D02*
X98988527Y-157073386D01*
X98988527Y-157073386D02*
X98988527Y-156787672D01*
X98988527Y-156787672D02*
X98940908Y-156692434D01*
X98940908Y-156692434D02*
X98893289Y-156644815D01*
X98893289Y-156644815D02*
X98798051Y-156597196D01*
X98798051Y-156597196D02*
X98607575Y-156597196D01*
X98607575Y-156597196D02*
X98512337Y-156644815D01*
D12*
X146974720Y-164934612D02*
X145274720Y-164934612D01*
X147474720Y-164434612D02*
X146974720Y-164934612D01*
X145274720Y-163584612D02*
X145274720Y-164934612D01*
X147474720Y-163584612D02*
X147474720Y-164434612D01*
X147474720Y-163584612D02*
X145274720Y-163584612D01*
X137830720Y-164934612D02*
X136130720Y-164934612D01*
X138330720Y-164434612D02*
X137830720Y-164934612D01*
X136130720Y-163584612D02*
X136130720Y-164934612D01*
X138330720Y-163584612D02*
X138330720Y-164434612D01*
X138330720Y-163584612D02*
X136130720Y-163584612D01*
X140878720Y-164934612D02*
X139178720Y-164934612D01*
X141378720Y-164434612D02*
X140878720Y-164934612D01*
X139178720Y-163584612D02*
X139178720Y-164934612D01*
X141378720Y-163584612D02*
X141378720Y-164434612D01*
X141378720Y-163584612D02*
X139178720Y-163584612D01*
X134782720Y-164934612D02*
X133082720Y-164934612D01*
X135282720Y-164434612D02*
X134782720Y-164934612D01*
X133082720Y-163584612D02*
X133082720Y-164934612D01*
X135282720Y-163584612D02*
X135282720Y-164434612D01*
X135282720Y-163584612D02*
X133082720Y-163584612D01*
X143926720Y-164934612D02*
X142226720Y-164934612D01*
X144426720Y-164434612D02*
X143926720Y-164934612D01*
X142226720Y-163584612D02*
X142226720Y-164934612D01*
X144426720Y-163584612D02*
X144426720Y-164434612D01*
X144426720Y-163584612D02*
X142226720Y-163584612D01*
X150022720Y-164934612D02*
X148322720Y-164934612D01*
X150522720Y-164434612D02*
X150022720Y-164934612D01*
X148322720Y-163584612D02*
X148322720Y-164934612D01*
X150522720Y-163584612D02*
X150522720Y-164434612D01*
X150522720Y-163584612D02*
X148322720Y-163584612D01*
M02*
