G04 #@! TF.GenerationSoftware,KiCad,Pcbnew,7.0.2*
G04 #@! TF.CreationDate,2023-06-06T21:42:25-07:00*
G04 #@! TF.ProjectId,procon_gcc_button_board,70726f63-6f6e-45f6-9763-635f62757474,rev?*
G04 #@! TF.SameCoordinates,Original*
G04 #@! TF.FileFunction,Paste,Top*
G04 #@! TF.FilePolarity,Positive*
%FSLAX46Y46*%
G04 Gerber Fmt 4.6, Leading zero omitted, Abs format (unit mm)*
G04 Created by KiCad (PCBNEW 7.0.2) date 2023-06-06 21:42:25*
%MOMM*%
%LPD*%
G01*
G04 APERTURE LIST*
G04 Aperture macros list*
%AMFreePoly0*
4,1,21,-0.146464,0.553536,-0.145000,0.550000,-0.145000,0.355000,0.350000,0.355000,0.353536,0.353536,0.355000,0.350000,0.355000,-0.350000,0.353536,-0.353536,0.350000,-0.355000,-0.145000,-0.355000,-0.145000,-0.550000,-0.146464,-0.553536,-0.150000,-0.555000,-0.350000,-0.555000,-0.353536,-0.553536,-0.355000,-0.550000,-0.355000,0.550000,-0.353536,0.553536,-0.350000,0.555000,-0.150000,0.555000,
-0.146464,0.553536,-0.146464,0.553536,$1*%
G04 Aperture macros list end*
%ADD10FreePoly0,0.000000*%
%ADD11FreePoly0,180.000000*%
%ADD12R,0.550000X0.550000*%
G04 APERTURE END LIST*
D10*
X159523000Y-116236000D03*
D11*
X163973000Y-116236000D03*
D10*
X159523000Y-119736000D03*
D11*
X163973000Y-119736000D03*
D10*
X129823000Y-127736000D03*
D11*
X134273000Y-127736000D03*
D10*
X129823000Y-131236000D03*
D11*
X134273000Y-131236000D03*
D12*
X131573000Y-134461000D03*
X132523000Y-134461000D03*
X132523000Y-133511000D03*
X131573000Y-133511000D03*
D10*
X121923000Y-116236000D03*
D11*
X126373000Y-116236000D03*
D10*
X121923000Y-119736000D03*
D11*
X126373000Y-119736000D03*
D12*
X119003000Y-146246000D03*
X119953000Y-146246000D03*
X119953000Y-145296000D03*
X119003000Y-145296000D03*
X119003000Y-155546000D03*
X119953000Y-155546000D03*
X119953000Y-154596000D03*
X119003000Y-154596000D03*
X182703000Y-145271000D03*
X183653000Y-145271000D03*
X183653000Y-144321000D03*
X182703000Y-144321000D03*
X123673000Y-122961000D03*
X124623000Y-122961000D03*
X124623000Y-122011000D03*
X123673000Y-122011000D03*
X170803000Y-135071000D03*
X171753000Y-135071000D03*
X171753000Y-134121000D03*
X170803000Y-134121000D03*
X114353000Y-150896000D03*
X115303000Y-150896000D03*
X115303000Y-149946000D03*
X114353000Y-149946000D03*
X123653000Y-150896000D03*
X124603000Y-150896000D03*
X124603000Y-149946000D03*
X123653000Y-149946000D03*
X194603000Y-135071000D03*
X195553000Y-135071000D03*
X195553000Y-134121000D03*
X194603000Y-134121000D03*
X153223000Y-134461000D03*
X154173000Y-134461000D03*
X154173000Y-133511000D03*
X153223000Y-133511000D03*
X182703000Y-124871000D03*
X183653000Y-124871000D03*
X183653000Y-123921000D03*
X182703000Y-123921000D03*
D10*
X151473000Y-127736000D03*
D11*
X155923000Y-127736000D03*
D10*
X151473000Y-131236000D03*
D11*
X155923000Y-131236000D03*
D12*
X161273000Y-122961000D03*
X162223000Y-122961000D03*
X162223000Y-122011000D03*
X161273000Y-122011000D03*
M02*
