G04 #@! TF.GenerationSoftware,KiCad,Pcbnew,7.0.2*
G04 #@! TF.CreationDate,2023-06-06T21:42:25-07:00*
G04 #@! TF.ProjectId,procon_gcc_button_board,70726f63-6f6e-45f6-9763-635f62757474,rev?*
G04 #@! TF.SameCoordinates,Original*
G04 #@! TF.FileFunction,Soldermask,Bot*
G04 #@! TF.FilePolarity,Negative*
%FSLAX46Y46*%
G04 Gerber Fmt 4.6, Leading zero omitted, Abs format (unit mm)*
G04 Created by KiCad (PCBNEW 7.0.2) date 2023-06-06 21:42:25*
%MOMM*%
%LPD*%
G01*
G04 APERTURE LIST*
%ADD10C,0.700000*%
%ADD11C,0.605553*%
%ADD12C,0.624110*%
%ADD13C,0.619523*%
%ADD14C,0.622015*%
%ADD15C,0.604760*%
%ADD16R,0.400000X0.650000*%
%ADD17R,0.600000X1.000000*%
%ADD18R,0.300000X1.000000*%
%ADD19R,0.300000X1.300000*%
%ADD20R,1.800000X2.200000*%
G04 APERTURE END LIST*
D10*
X106776000Y-150368000D02*
G75*
G03*
X106776000Y-150368000I-350000J0D01*
G01*
X171275472Y-124363857D02*
G75*
G03*
X171275472Y-124363857I-350000J0D01*
G01*
X162122602Y-119345941D02*
G75*
G03*
X162122602Y-119345941I-350000J0D01*
G01*
D11*
X136445997Y-161827128D02*
G75*
G03*
X136445997Y-161827128I-302776J0D01*
G01*
D12*
X104539318Y-165543989D02*
G75*
G03*
X104539318Y-165543989I-312055J0D01*
G01*
D10*
X186659000Y-144145000D02*
G75*
G03*
X186659000Y-144145000I-350000J0D01*
G01*
X180944000Y-114554000D02*
G75*
G03*
X180944000Y-114554000I-350000J0D01*
G01*
X132766626Y-149752890D02*
G75*
G03*
X132766626Y-149752890I-350000J0D01*
G01*
X117312153Y-162558516D02*
G75*
G03*
X117312153Y-162558516I-350000J0D01*
G01*
X180817000Y-135255000D02*
G75*
G03*
X180817000Y-135255000I-350000J0D01*
G01*
X132938000Y-131826000D02*
G75*
G03*
X132938000Y-131826000I-350000J0D01*
G01*
X151861000Y-129540000D02*
G75*
G03*
X151861000Y-129540000I-350000J0D01*
G01*
D13*
X144804207Y-161939791D02*
G75*
G03*
X144804207Y-161939791I-309761J0D01*
G01*
D14*
X148295839Y-161597812D02*
G75*
G03*
X148295839Y-161597812I-311007J0D01*
G01*
D10*
X115539000Y-143129000D02*
G75*
G03*
X115539000Y-143129000I-350000J0D01*
G01*
X121735967Y-137278859D02*
G75*
G03*
X121735967Y-137278859I-350000J0D01*
G01*
X194787000Y-122555000D02*
G75*
G03*
X194787000Y-122555000I-350000J0D01*
G01*
X124494738Y-119634000D02*
G75*
G03*
X124494738Y-119634000I-350000J0D01*
G01*
D15*
X140181971Y-160364528D02*
G75*
G03*
X140181971Y-160364528I-302380J0D01*
G01*
D10*
X132430000Y-127254000D02*
G75*
G03*
X132430000Y-127254000I-350000J0D01*
G01*
D16*
X147024720Y-165209612D03*
X146374720Y-165209612D03*
X145724720Y-165209612D03*
X145724720Y-163309612D03*
X146374720Y-163309612D03*
X147024720Y-163309612D03*
X137880720Y-165209612D03*
X137230720Y-165209612D03*
X136580720Y-165209612D03*
X136580720Y-163309612D03*
X137230720Y-163309612D03*
X137880720Y-163309612D03*
X140928720Y-165209612D03*
X140278720Y-165209612D03*
X139628720Y-165209612D03*
X139628720Y-163309612D03*
X140278720Y-163309612D03*
X140928720Y-163309612D03*
D17*
X141033000Y-132246000D03*
X145213000Y-132246000D03*
D18*
X142123000Y-134896000D03*
X142623000Y-134896000D03*
X143123000Y-134896000D03*
X143623000Y-134896000D03*
X144123000Y-134896000D03*
D16*
X134832720Y-165209612D03*
X134182720Y-165209612D03*
X133532720Y-165209612D03*
X133532720Y-163309612D03*
X134182720Y-163309612D03*
X134832720Y-163309612D03*
X143976720Y-165209612D03*
X143326720Y-165209612D03*
X142676720Y-165209612D03*
X142676720Y-163309612D03*
X143326720Y-163309612D03*
X143976720Y-163309612D03*
X150072720Y-165209612D03*
X149422720Y-165209612D03*
X148772720Y-165209612D03*
X148772720Y-163309612D03*
X149422720Y-163309612D03*
X150072720Y-163309612D03*
D19*
X101214720Y-163251644D03*
X101714720Y-163251644D03*
X102214720Y-163251644D03*
X102714720Y-163251644D03*
X103214720Y-163251644D03*
X103714720Y-163251644D03*
X104214720Y-163251644D03*
X104714720Y-163251644D03*
X105214720Y-163251644D03*
X105714720Y-163251644D03*
X106214720Y-163251644D03*
X106714720Y-163251644D03*
X107214720Y-163251644D03*
X107714720Y-163251644D03*
D20*
X99314720Y-160001644D03*
X109614720Y-160001644D03*
M02*
