M48
; DRILL file {KiCad 7.0.2} date Tue Jun  6 21:42:47 2023
; FORMAT={-:-/ absolute / inch / decimal}
; #@! TF.CreationDate,2023-06-06T21:42:47-07:00
; #@! TF.GenerationSoftware,Kicad,Pcbnew,7.0.2
; #@! TF.FileFunction,Plated,1,4,PTH
FMAT,2
INCH
; #@! TA.AperFunction,Plated,PTH,ViaDrill
T1C0.0138
; #@! TA.AperFunction,Plated,PTH,ViaDrill
T2C0.0157
; #@! TA.AperFunction,Plated,PTH,ViaDrill
T3C0.0197
%
G90
G05
T1
X3.9128Y-6.4069
X3.9743Y-6.3533
X3.9828Y-6.0069
X4.0058Y-6.2081
X4.0128Y-6.3369
X4.0228Y-6.0869
X4.0583Y-6.2342
X4.0828Y-6.0369
X4.1417Y-6.069
X4.1479Y-6.2589
X4.1794Y-6.2748
X4.19Y-5.92
X4.2028Y-6.3569
X4.2128Y-6.0369
X4.3328Y-6.1069
X4.3585Y-6.0656
X4.3594Y-5.7715
X4.485Y-6.155
X4.5128Y-5.9869
X4.5328Y-5.8469
X4.535Y-5.635
X4.54Y-5.575
X4.5528Y-6.0469
X4.5567Y-6.303
X4.6045Y-6.3999
X4.6428Y-5.7269
X4.6828Y-6.0369
X4.7789Y-5.4047
X4.7828Y-5.7569
X4.8028Y-6.1469
X4.8228Y-4.7969
X4.8328Y-6.3869
X4.8628Y-5.8469
X4.8673Y-4.9273
X4.8677Y-5.5602
X4.8877Y-4.7101
X4.8928Y-5.6969
X4.9499Y-4.8581
X4.9528Y-6.0269
X4.9764Y-4.7999
X4.9775Y-5.2738
X5.0055Y-4.7658
X5.0328Y-4.5769
X5.0328Y-5.5269
X5.0356Y-5.1682
X5.0628Y-5.0269
X5.0675Y-5.5617
X5.0684Y-5.7687
X5.0955Y-6.1625
X5.1228Y-5.4469
X5.1328Y-5.2469
X5.1996Y-5.0107
X5.2128Y-5.9669
X5.2133Y-5.8958
X5.22Y-5.19
X5.2228Y-6.2869
X5.2547Y-6.0802
X5.285Y-5.3
X5.2868Y-6.0459
X5.3161Y-6.1104
X5.3346Y-6.333
X5.3428Y-6.5043
X5.3542Y-6.1267
X5.4128Y-6.1669
X5.445Y-5.295
X5.4634Y-6.1679
X5.4927Y-6.3571
X5.5728Y-6.1769
X5.5808Y-5.4864
X5.5828Y-6.5043
X5.6303Y-5.54
X5.6428Y-6.3269
X5.6467Y-5.5743
X5.6493Y-6.1691
X5.65Y-5.655
X5.68Y-5.695
X5.7028Y-6.5043
X5.7328Y-6.2169
X5.7628Y-6.1955
X5.7903Y-6.3267
X5.795Y-5.625
X5.8164Y-6.1924
X5.8228Y-6.5043
X5.8358Y-5.3302
X5.863Y-6.3234
X5.8765Y-5.334
X5.9Y-5.215
X5.9067Y-5.3596
X5.9228Y-5.1669
X5.9354Y-5.3823
X5.962Y-5.406
X5.965Y-5.1
X6.1297Y-5.295
X6.165Y-4.715
X6.2028Y-5.0069
X6.2228Y-4.5769
X6.3028Y-4.7969
X6.369Y-4.6987
X6.4328Y-4.845
X6.45Y-5.115
X6.5628Y-4.8669
X6.5928Y-4.7969
X6.6228Y-4.8269
X6.6528Y-4.9169
X6.67Y-5.265
X6.6828Y-4.5269
X6.7293Y-4.8965
X6.8338Y-5.3268
X6.9935Y-4.7681
X7.0028Y-5.2969
X7.0228Y-4.9269
X7.0628Y-4.7969
X7.0628Y-5.2969
X7.105Y-5.325
X7.11Y-4.51
X7.1338Y-5.6791
X7.1391Y-4.8777
X7.2928Y-4.9169
X7.2928Y-5.7369
X7.335Y-5.675
X7.4128Y-5.6769
X7.4228Y-4.8369
X7.4428Y-5.2669
X7.4528Y-4.7969
X7.4728Y-4.8869
X7.4928Y-5.2969
X7.6155Y-5.2911
X7.655Y-4.825
X7.7628Y-5.3369
T2
X4.2228Y-6.1569
X4.5028Y-6.2698
X4.5328Y-6.3769
X4.8329Y-5.4529
X4.8828Y-6.2698
X4.8868Y-6.3312
X4.9228Y-6.1769
X4.9428Y-5.5269
X4.9828Y-5.4569
X5.068Y-6.0769
X5.0928Y-6.2869
X5.1728Y-6.1069
X5.5792Y-6.3342
X5.66Y-6.05
X5.9387Y-6.3569
X7.3187Y-5.317
X7.4828Y-5.4369
X7.4853Y-5.5071
T3
X4.1034Y-6.5178
X5.36Y-6.3714
X5.5073Y-6.3138
X5.689Y-6.3758
X5.8263Y-6.3621
T0
M30
