%TF.GenerationSoftware,KiCad,Pcbnew,7.0.2*%
%TF.CreationDate,2023-06-19T11:15:11-07:00*%
%TF.ProjectId,procon_gcc_main_pcb,70726f63-6f6e-45f6-9763-635f6d61696e,1*%
%TF.SameCoordinates,Original*%
%TF.FileFunction,Drillmap*%
%TF.FilePolarity,Positive*%
%FSLAX45Y45*%
G04 Gerber Fmt 4.5, Leading zero omitted, Abs format (unit mm)*
G04 Created by KiCad (PCBNEW 7.0.2) date 2023-06-19 11:15:11*
%MOMM*%
%LPD*%
G01*
G04 APERTURE LIST*
%ADD10C,0.200000*%
%ADD11C,0.040000*%
%ADD12C,0.070000*%
%ADD13C,0.160000*%
G04 APERTURE END LIST*
D10*
X16360622Y-10811436D02*
X16630622Y-10811436D01*
X17155623Y-14761436D02*
X16765622Y-15161436D01*
X12765623Y-15161436D02*
X12765623Y-14671436D01*
X13378123Y-10771436D02*
G75*
G03*
X13378123Y-10771436I-137500J0D01*
G01*
X19155623Y-13761436D02*
X19155623Y-14761436D01*
X13355623Y-14270000D02*
G75*
G03*
X13075623Y-14270000I-140000J-105000D01*
G01*
X16630622Y-12561436D02*
X17500623Y-12561436D01*
X16360622Y-10411436D02*
X16360622Y-10811436D01*
X13240623Y-9871436D02*
X13240623Y-9186436D01*
X11765623Y-14421436D02*
X11365623Y-14421436D01*
X9295623Y-14141436D02*
X8205623Y-14141436D01*
X17500623Y-12561436D02*
X17500623Y-13761436D01*
X12765623Y-14671436D02*
X11765623Y-14671436D01*
X8705623Y-10791436D02*
X11240623Y-10791436D01*
X18900000Y-14311000D02*
G75*
G03*
X18900000Y-14311000I-125000J0D01*
G01*
X14470622Y-9186436D02*
X14470622Y-10111436D01*
X9295623Y-14671436D02*
X9295623Y-14141436D01*
X11940623Y-9871436D02*
X13240623Y-9871436D01*
X15740622Y-10111436D02*
X15740622Y-10411436D01*
X11365623Y-14671436D02*
X9295623Y-14671436D01*
X16765622Y-15161436D02*
X12765623Y-15161436D01*
X8101675Y-11525814D02*
X8249271Y-11525814D01*
X8205623Y-14141436D02*
X8205623Y-12541436D01*
X15740622Y-10411436D02*
X16360622Y-10411436D01*
X8862500Y-13491436D02*
G75*
G03*
X8862500Y-13491436I-115000J0D01*
G01*
X11240623Y-10411436D02*
X11940623Y-10411436D01*
X11765623Y-14671436D02*
X11765623Y-14421436D01*
X11230000Y-13677500D02*
G75*
G03*
X11230000Y-13677500I-230000J0D01*
G01*
X11240623Y-10791436D02*
X11240623Y-10411436D01*
X13240623Y-9186436D02*
X14470622Y-9186436D01*
X11365623Y-14421436D02*
X11365623Y-14671436D01*
X17500623Y-13761436D02*
X19155623Y-13761436D01*
X19155623Y-14761436D02*
X17155623Y-14761436D01*
X11940623Y-10411436D02*
X11940623Y-9871436D01*
X8101678Y-11525815D02*
G75*
G03*
X8205623Y-12541436I1538942J-355625D01*
G01*
X8705623Y-10791436D02*
G75*
G03*
X8249271Y-11525814I935000J-1089999D01*
G01*
X17315000Y-12825000D02*
G75*
G03*
X17315000Y-12825000I-115000J0D01*
G01*
X16630622Y-10811436D02*
X16630622Y-12561436D01*
X13075623Y-14480000D02*
G75*
G03*
X13355623Y-14480000I140000J105000D01*
G01*
X14470622Y-10111436D02*
X15740622Y-10111436D01*
X13075623Y-14480000D02*
X13075623Y-14270000D01*
X13355623Y-14270000D02*
X13355623Y-14480000D01*
D11*
X12613352Y-10176500D02*
X12653352Y-10216500D01*
X12653352Y-10176500D02*
X12613352Y-10216500D01*
D10*
X12653352Y-10221500D02*
X12653352Y-10171500D01*
X12653352Y-10171500D02*
G75*
G03*
X12613352Y-10171500I-20000J0D01*
G01*
X12613352Y-10171500D02*
X12613352Y-10221500D01*
X12613352Y-10221500D02*
G75*
G03*
X12653352Y-10221500I20000J0D01*
G01*
D11*
X13043352Y-10176500D02*
X13083352Y-10216500D01*
X13083352Y-10176500D02*
X13043352Y-10216500D01*
D10*
X13083352Y-10221500D02*
X13083352Y-10171500D01*
X13083352Y-10171500D02*
G75*
G03*
X13043352Y-10171500I-20000J0D01*
G01*
X13043352Y-10171500D02*
X13043352Y-10221500D01*
X13043352Y-10221500D02*
G75*
G03*
X13083352Y-10221500I20000J0D01*
G01*
D12*
X13506000Y-9827500D02*
G75*
G03*
X13506000Y-9827500I-35000J0D01*
G01*
X14241000Y-9827500D02*
G75*
G03*
X14241000Y-9827500I-35000J0D01*
G01*
D13*
X9637700Y-11333260D02*
X9637700Y-11493260D01*
X9557700Y-11413260D02*
X9717700Y-11413260D01*
X9637700Y-12193260D02*
X9637700Y-12353260D01*
X9557700Y-12273260D02*
X9717700Y-12273260D01*
X15832020Y-13492200D02*
X15832020Y-13652200D01*
X15752020Y-13572200D02*
X15912020Y-13572200D01*
X15832020Y-14352200D02*
X15832020Y-14512200D01*
X15752020Y-14432200D02*
X15912020Y-14432200D01*
D10*
X8298742Y-15483959D02*
X8298742Y-15283959D01*
X8298742Y-15283959D02*
X8346361Y-15283959D01*
X8346361Y-15283959D02*
X8374932Y-15293483D01*
X8374932Y-15293483D02*
X8393980Y-15312531D01*
X8393980Y-15312531D02*
X8403504Y-15331578D01*
X8403504Y-15331578D02*
X8413027Y-15369674D01*
X8413027Y-15369674D02*
X8413027Y-15398245D01*
X8413027Y-15398245D02*
X8403504Y-15436340D01*
X8403504Y-15436340D02*
X8393980Y-15455388D01*
X8393980Y-15455388D02*
X8374932Y-15474436D01*
X8374932Y-15474436D02*
X8346361Y-15483959D01*
X8346361Y-15483959D02*
X8298742Y-15483959D01*
X8498742Y-15483959D02*
X8498742Y-15350626D01*
X8498742Y-15388721D02*
X8508265Y-15369674D01*
X8508265Y-15369674D02*
X8517789Y-15360150D01*
X8517789Y-15360150D02*
X8536837Y-15350626D01*
X8536837Y-15350626D02*
X8555885Y-15350626D01*
X8622551Y-15483959D02*
X8622551Y-15350626D01*
X8622551Y-15283959D02*
X8613027Y-15293483D01*
X8613027Y-15293483D02*
X8622551Y-15303007D01*
X8622551Y-15303007D02*
X8632075Y-15293483D01*
X8632075Y-15293483D02*
X8622551Y-15283959D01*
X8622551Y-15283959D02*
X8622551Y-15303007D01*
X8746361Y-15483959D02*
X8727313Y-15474436D01*
X8727313Y-15474436D02*
X8717789Y-15455388D01*
X8717789Y-15455388D02*
X8717789Y-15283959D01*
X8851123Y-15483959D02*
X8832075Y-15474436D01*
X8832075Y-15474436D02*
X8822551Y-15455388D01*
X8822551Y-15455388D02*
X8822551Y-15283959D01*
X9079694Y-15483959D02*
X9079694Y-15283959D01*
X9079694Y-15283959D02*
X9146361Y-15426817D01*
X9146361Y-15426817D02*
X9213027Y-15283959D01*
X9213027Y-15283959D02*
X9213027Y-15483959D01*
X9393980Y-15483959D02*
X9393980Y-15379198D01*
X9393980Y-15379198D02*
X9384456Y-15360150D01*
X9384456Y-15360150D02*
X9365408Y-15350626D01*
X9365408Y-15350626D02*
X9327313Y-15350626D01*
X9327313Y-15350626D02*
X9308265Y-15360150D01*
X9393980Y-15474436D02*
X9374932Y-15483959D01*
X9374932Y-15483959D02*
X9327313Y-15483959D01*
X9327313Y-15483959D02*
X9308265Y-15474436D01*
X9308265Y-15474436D02*
X9298742Y-15455388D01*
X9298742Y-15455388D02*
X9298742Y-15436340D01*
X9298742Y-15436340D02*
X9308265Y-15417293D01*
X9308265Y-15417293D02*
X9327313Y-15407769D01*
X9327313Y-15407769D02*
X9374932Y-15407769D01*
X9374932Y-15407769D02*
X9393980Y-15398245D01*
X9489218Y-15350626D02*
X9489218Y-15550626D01*
X9489218Y-15360150D02*
X9508265Y-15350626D01*
X9508265Y-15350626D02*
X9546361Y-15350626D01*
X9546361Y-15350626D02*
X9565408Y-15360150D01*
X9565408Y-15360150D02*
X9574932Y-15369674D01*
X9574932Y-15369674D02*
X9584456Y-15388721D01*
X9584456Y-15388721D02*
X9584456Y-15445864D01*
X9584456Y-15445864D02*
X9574932Y-15464912D01*
X9574932Y-15464912D02*
X9565408Y-15474436D01*
X9565408Y-15474436D02*
X9546361Y-15483959D01*
X9546361Y-15483959D02*
X9508265Y-15483959D01*
X9508265Y-15483959D02*
X9489218Y-15474436D01*
X9670170Y-15464912D02*
X9679694Y-15474436D01*
X9679694Y-15474436D02*
X9670170Y-15483959D01*
X9670170Y-15483959D02*
X9660646Y-15474436D01*
X9660646Y-15474436D02*
X9670170Y-15464912D01*
X9670170Y-15464912D02*
X9670170Y-15483959D01*
X9670170Y-15360150D02*
X9679694Y-15369674D01*
X9679694Y-15369674D02*
X9670170Y-15379198D01*
X9670170Y-15379198D02*
X9660646Y-15369674D01*
X9660646Y-15369674D02*
X9670170Y-15360150D01*
X9670170Y-15360150D02*
X9670170Y-15379198D01*
D11*
X8011123Y-15791436D02*
X8051123Y-15831436D01*
X8051123Y-15791436D02*
X8011123Y-15831436D01*
D10*
X8336837Y-15703959D02*
X8355884Y-15703959D01*
X8355884Y-15703959D02*
X8374932Y-15713483D01*
X8374932Y-15713483D02*
X8384456Y-15723007D01*
X8384456Y-15723007D02*
X8393980Y-15742055D01*
X8393980Y-15742055D02*
X8403504Y-15780150D01*
X8403504Y-15780150D02*
X8403504Y-15827769D01*
X8403504Y-15827769D02*
X8393980Y-15865864D01*
X8393980Y-15865864D02*
X8384456Y-15884912D01*
X8384456Y-15884912D02*
X8374932Y-15894436D01*
X8374932Y-15894436D02*
X8355884Y-15903959D01*
X8355884Y-15903959D02*
X8336837Y-15903959D01*
X8336837Y-15903959D02*
X8317789Y-15894436D01*
X8317789Y-15894436D02*
X8308265Y-15884912D01*
X8308265Y-15884912D02*
X8298742Y-15865864D01*
X8298742Y-15865864D02*
X8289218Y-15827769D01*
X8289218Y-15827769D02*
X8289218Y-15780150D01*
X8289218Y-15780150D02*
X8298742Y-15742055D01*
X8298742Y-15742055D02*
X8308265Y-15723007D01*
X8308265Y-15723007D02*
X8317789Y-15713483D01*
X8317789Y-15713483D02*
X8336837Y-15703959D01*
X8489218Y-15884912D02*
X8498742Y-15894436D01*
X8498742Y-15894436D02*
X8489218Y-15903959D01*
X8489218Y-15903959D02*
X8479694Y-15894436D01*
X8479694Y-15894436D02*
X8489218Y-15884912D01*
X8489218Y-15884912D02*
X8489218Y-15903959D01*
X8670170Y-15770626D02*
X8670170Y-15903959D01*
X8622551Y-15694436D02*
X8574932Y-15837293D01*
X8574932Y-15837293D02*
X8698742Y-15837293D01*
X8813027Y-15703959D02*
X8832075Y-15703959D01*
X8832075Y-15703959D02*
X8851123Y-15713483D01*
X8851123Y-15713483D02*
X8860646Y-15723007D01*
X8860646Y-15723007D02*
X8870170Y-15742055D01*
X8870170Y-15742055D02*
X8879694Y-15780150D01*
X8879694Y-15780150D02*
X8879694Y-15827769D01*
X8879694Y-15827769D02*
X8870170Y-15865864D01*
X8870170Y-15865864D02*
X8860646Y-15884912D01*
X8860646Y-15884912D02*
X8851123Y-15894436D01*
X8851123Y-15894436D02*
X8832075Y-15903959D01*
X8832075Y-15903959D02*
X8813027Y-15903959D01*
X8813027Y-15903959D02*
X8793980Y-15894436D01*
X8793980Y-15894436D02*
X8784456Y-15884912D01*
X8784456Y-15884912D02*
X8774932Y-15865864D01*
X8774932Y-15865864D02*
X8765408Y-15827769D01*
X8765408Y-15827769D02*
X8765408Y-15780150D01*
X8765408Y-15780150D02*
X8774932Y-15742055D01*
X8774932Y-15742055D02*
X8784456Y-15723007D01*
X8784456Y-15723007D02*
X8793980Y-15713483D01*
X8793980Y-15713483D02*
X8813027Y-15703959D01*
X9003504Y-15703959D02*
X9022551Y-15703959D01*
X9022551Y-15703959D02*
X9041599Y-15713483D01*
X9041599Y-15713483D02*
X9051123Y-15723007D01*
X9051123Y-15723007D02*
X9060646Y-15742055D01*
X9060646Y-15742055D02*
X9070170Y-15780150D01*
X9070170Y-15780150D02*
X9070170Y-15827769D01*
X9070170Y-15827769D02*
X9060646Y-15865864D01*
X9060646Y-15865864D02*
X9051123Y-15884912D01*
X9051123Y-15884912D02*
X9041599Y-15894436D01*
X9041599Y-15894436D02*
X9022551Y-15903959D01*
X9022551Y-15903959D02*
X9003504Y-15903959D01*
X9003504Y-15903959D02*
X8984456Y-15894436D01*
X8984456Y-15894436D02*
X8974932Y-15884912D01*
X8974932Y-15884912D02*
X8965408Y-15865864D01*
X8965408Y-15865864D02*
X8955885Y-15827769D01*
X8955885Y-15827769D02*
X8955885Y-15780150D01*
X8955885Y-15780150D02*
X8965408Y-15742055D01*
X8965408Y-15742055D02*
X8974932Y-15723007D01*
X8974932Y-15723007D02*
X8984456Y-15713483D01*
X8984456Y-15713483D02*
X9003504Y-15703959D01*
X9155885Y-15903959D02*
X9155885Y-15770626D01*
X9155885Y-15789674D02*
X9165408Y-15780150D01*
X9165408Y-15780150D02*
X9184456Y-15770626D01*
X9184456Y-15770626D02*
X9213027Y-15770626D01*
X9213027Y-15770626D02*
X9232075Y-15780150D01*
X9232075Y-15780150D02*
X9241599Y-15799198D01*
X9241599Y-15799198D02*
X9241599Y-15903959D01*
X9241599Y-15799198D02*
X9251123Y-15780150D01*
X9251123Y-15780150D02*
X9270170Y-15770626D01*
X9270170Y-15770626D02*
X9298742Y-15770626D01*
X9298742Y-15770626D02*
X9317789Y-15780150D01*
X9317789Y-15780150D02*
X9327313Y-15799198D01*
X9327313Y-15799198D02*
X9327313Y-15903959D01*
X9422551Y-15903959D02*
X9422551Y-15770626D01*
X9422551Y-15789674D02*
X9432075Y-15780150D01*
X9432075Y-15780150D02*
X9451123Y-15770626D01*
X9451123Y-15770626D02*
X9479694Y-15770626D01*
X9479694Y-15770626D02*
X9498742Y-15780150D01*
X9498742Y-15780150D02*
X9508266Y-15799198D01*
X9508266Y-15799198D02*
X9508266Y-15903959D01*
X9508266Y-15799198D02*
X9517789Y-15780150D01*
X9517789Y-15780150D02*
X9536837Y-15770626D01*
X9536837Y-15770626D02*
X9565408Y-15770626D01*
X9565408Y-15770626D02*
X9584456Y-15780150D01*
X9584456Y-15780150D02*
X9593980Y-15799198D01*
X9593980Y-15799198D02*
X9593980Y-15903959D01*
X9984456Y-15694436D02*
X9813028Y-15951578D01*
X10241599Y-15703959D02*
X10260647Y-15703959D01*
X10260647Y-15703959D02*
X10279694Y-15713483D01*
X10279694Y-15713483D02*
X10289218Y-15723007D01*
X10289218Y-15723007D02*
X10298742Y-15742055D01*
X10298742Y-15742055D02*
X10308266Y-15780150D01*
X10308266Y-15780150D02*
X10308266Y-15827769D01*
X10308266Y-15827769D02*
X10298742Y-15865864D01*
X10298742Y-15865864D02*
X10289218Y-15884912D01*
X10289218Y-15884912D02*
X10279694Y-15894436D01*
X10279694Y-15894436D02*
X10260647Y-15903959D01*
X10260647Y-15903959D02*
X10241599Y-15903959D01*
X10241599Y-15903959D02*
X10222551Y-15894436D01*
X10222551Y-15894436D02*
X10213028Y-15884912D01*
X10213028Y-15884912D02*
X10203504Y-15865864D01*
X10203504Y-15865864D02*
X10193980Y-15827769D01*
X10193980Y-15827769D02*
X10193980Y-15780150D01*
X10193980Y-15780150D02*
X10203504Y-15742055D01*
X10203504Y-15742055D02*
X10213028Y-15723007D01*
X10213028Y-15723007D02*
X10222551Y-15713483D01*
X10222551Y-15713483D02*
X10241599Y-15703959D01*
X10393980Y-15884912D02*
X10403504Y-15894436D01*
X10403504Y-15894436D02*
X10393980Y-15903959D01*
X10393980Y-15903959D02*
X10384456Y-15894436D01*
X10384456Y-15894436D02*
X10393980Y-15884912D01*
X10393980Y-15884912D02*
X10393980Y-15903959D01*
X10527313Y-15703959D02*
X10546361Y-15703959D01*
X10546361Y-15703959D02*
X10565409Y-15713483D01*
X10565409Y-15713483D02*
X10574932Y-15723007D01*
X10574932Y-15723007D02*
X10584456Y-15742055D01*
X10584456Y-15742055D02*
X10593980Y-15780150D01*
X10593980Y-15780150D02*
X10593980Y-15827769D01*
X10593980Y-15827769D02*
X10584456Y-15865864D01*
X10584456Y-15865864D02*
X10574932Y-15884912D01*
X10574932Y-15884912D02*
X10565409Y-15894436D01*
X10565409Y-15894436D02*
X10546361Y-15903959D01*
X10546361Y-15903959D02*
X10527313Y-15903959D01*
X10527313Y-15903959D02*
X10508266Y-15894436D01*
X10508266Y-15894436D02*
X10498742Y-15884912D01*
X10498742Y-15884912D02*
X10489218Y-15865864D01*
X10489218Y-15865864D02*
X10479694Y-15827769D01*
X10479694Y-15827769D02*
X10479694Y-15780150D01*
X10479694Y-15780150D02*
X10489218Y-15742055D01*
X10489218Y-15742055D02*
X10498742Y-15723007D01*
X10498742Y-15723007D02*
X10508266Y-15713483D01*
X10508266Y-15713483D02*
X10527313Y-15703959D01*
X10784456Y-15903959D02*
X10670170Y-15903959D01*
X10727313Y-15903959D02*
X10727313Y-15703959D01*
X10727313Y-15703959D02*
X10708266Y-15732531D01*
X10708266Y-15732531D02*
X10689218Y-15751578D01*
X10689218Y-15751578D02*
X10670170Y-15761102D01*
X10965409Y-15703959D02*
X10870170Y-15703959D01*
X10870170Y-15703959D02*
X10860647Y-15799198D01*
X10860647Y-15799198D02*
X10870170Y-15789674D01*
X10870170Y-15789674D02*
X10889218Y-15780150D01*
X10889218Y-15780150D02*
X10936837Y-15780150D01*
X10936837Y-15780150D02*
X10955885Y-15789674D01*
X10955885Y-15789674D02*
X10965409Y-15799198D01*
X10965409Y-15799198D02*
X10974932Y-15818245D01*
X10974932Y-15818245D02*
X10974932Y-15865864D01*
X10974932Y-15865864D02*
X10965409Y-15884912D01*
X10965409Y-15884912D02*
X10955885Y-15894436D01*
X10955885Y-15894436D02*
X10936837Y-15903959D01*
X10936837Y-15903959D02*
X10889218Y-15903959D01*
X10889218Y-15903959D02*
X10870170Y-15894436D01*
X10870170Y-15894436D02*
X10860647Y-15884912D01*
X11041599Y-15703959D02*
X11174932Y-15703959D01*
X11174932Y-15703959D02*
X11089218Y-15903959D01*
X11241599Y-15703959D02*
X11241599Y-15742055D01*
X11317789Y-15703959D02*
X11317789Y-15742055D01*
X11613028Y-15980150D02*
X11603504Y-15970626D01*
X11603504Y-15970626D02*
X11584456Y-15942055D01*
X11584456Y-15942055D02*
X11574932Y-15923007D01*
X11574932Y-15923007D02*
X11565409Y-15894436D01*
X11565409Y-15894436D02*
X11555885Y-15846817D01*
X11555885Y-15846817D02*
X11555885Y-15808721D01*
X11555885Y-15808721D02*
X11565409Y-15761102D01*
X11565409Y-15761102D02*
X11574932Y-15732531D01*
X11574932Y-15732531D02*
X11584456Y-15713483D01*
X11584456Y-15713483D02*
X11603504Y-15684912D01*
X11603504Y-15684912D02*
X11613028Y-15675388D01*
X11727313Y-15703959D02*
X11746361Y-15703959D01*
X11746361Y-15703959D02*
X11765409Y-15713483D01*
X11765409Y-15713483D02*
X11774932Y-15723007D01*
X11774932Y-15723007D02*
X11784456Y-15742055D01*
X11784456Y-15742055D02*
X11793980Y-15780150D01*
X11793980Y-15780150D02*
X11793980Y-15827769D01*
X11793980Y-15827769D02*
X11784456Y-15865864D01*
X11784456Y-15865864D02*
X11774932Y-15884912D01*
X11774932Y-15884912D02*
X11765409Y-15894436D01*
X11765409Y-15894436D02*
X11746361Y-15903959D01*
X11746361Y-15903959D02*
X11727313Y-15903959D01*
X11727313Y-15903959D02*
X11708266Y-15894436D01*
X11708266Y-15894436D02*
X11698742Y-15884912D01*
X11698742Y-15884912D02*
X11689218Y-15865864D01*
X11689218Y-15865864D02*
X11679694Y-15827769D01*
X11679694Y-15827769D02*
X11679694Y-15780150D01*
X11679694Y-15780150D02*
X11689218Y-15742055D01*
X11689218Y-15742055D02*
X11698742Y-15723007D01*
X11698742Y-15723007D02*
X11708266Y-15713483D01*
X11708266Y-15713483D02*
X11727313Y-15703959D01*
X12032075Y-15903959D02*
X12032075Y-15703959D01*
X12117790Y-15903959D02*
X12117790Y-15799198D01*
X12117790Y-15799198D02*
X12108266Y-15780150D01*
X12108266Y-15780150D02*
X12089218Y-15770626D01*
X12089218Y-15770626D02*
X12060647Y-15770626D01*
X12060647Y-15770626D02*
X12041599Y-15780150D01*
X12041599Y-15780150D02*
X12032075Y-15789674D01*
X12241599Y-15903959D02*
X12222551Y-15894436D01*
X12222551Y-15894436D02*
X12213028Y-15884912D01*
X12213028Y-15884912D02*
X12203504Y-15865864D01*
X12203504Y-15865864D02*
X12203504Y-15808721D01*
X12203504Y-15808721D02*
X12213028Y-15789674D01*
X12213028Y-15789674D02*
X12222551Y-15780150D01*
X12222551Y-15780150D02*
X12241599Y-15770626D01*
X12241599Y-15770626D02*
X12270171Y-15770626D01*
X12270171Y-15770626D02*
X12289218Y-15780150D01*
X12289218Y-15780150D02*
X12298742Y-15789674D01*
X12298742Y-15789674D02*
X12308266Y-15808721D01*
X12308266Y-15808721D02*
X12308266Y-15865864D01*
X12308266Y-15865864D02*
X12298742Y-15884912D01*
X12298742Y-15884912D02*
X12289218Y-15894436D01*
X12289218Y-15894436D02*
X12270171Y-15903959D01*
X12270171Y-15903959D02*
X12241599Y-15903959D01*
X12422551Y-15903959D02*
X12403504Y-15894436D01*
X12403504Y-15894436D02*
X12393980Y-15875388D01*
X12393980Y-15875388D02*
X12393980Y-15703959D01*
X12574932Y-15894436D02*
X12555885Y-15903959D01*
X12555885Y-15903959D02*
X12517790Y-15903959D01*
X12517790Y-15903959D02*
X12498742Y-15894436D01*
X12498742Y-15894436D02*
X12489218Y-15875388D01*
X12489218Y-15875388D02*
X12489218Y-15799198D01*
X12489218Y-15799198D02*
X12498742Y-15780150D01*
X12498742Y-15780150D02*
X12517790Y-15770626D01*
X12517790Y-15770626D02*
X12555885Y-15770626D01*
X12555885Y-15770626D02*
X12574932Y-15780150D01*
X12574932Y-15780150D02*
X12584456Y-15799198D01*
X12584456Y-15799198D02*
X12584456Y-15818245D01*
X12584456Y-15818245D02*
X12489218Y-15837293D01*
X12660647Y-15894436D02*
X12679694Y-15903959D01*
X12679694Y-15903959D02*
X12717790Y-15903959D01*
X12717790Y-15903959D02*
X12736837Y-15894436D01*
X12736837Y-15894436D02*
X12746361Y-15875388D01*
X12746361Y-15875388D02*
X12746361Y-15865864D01*
X12746361Y-15865864D02*
X12736837Y-15846817D01*
X12736837Y-15846817D02*
X12717790Y-15837293D01*
X12717790Y-15837293D02*
X12689218Y-15837293D01*
X12689218Y-15837293D02*
X12670171Y-15827769D01*
X12670171Y-15827769D02*
X12660647Y-15808721D01*
X12660647Y-15808721D02*
X12660647Y-15799198D01*
X12660647Y-15799198D02*
X12670171Y-15780150D01*
X12670171Y-15780150D02*
X12689218Y-15770626D01*
X12689218Y-15770626D02*
X12717790Y-15770626D01*
X12717790Y-15770626D02*
X12736837Y-15780150D01*
X12984456Y-15827769D02*
X13136837Y-15827769D01*
X13060647Y-15903959D02*
X13060647Y-15751578D01*
X13374933Y-15723007D02*
X13384456Y-15713483D01*
X13384456Y-15713483D02*
X13403504Y-15703959D01*
X13403504Y-15703959D02*
X13451123Y-15703959D01*
X13451123Y-15703959D02*
X13470171Y-15713483D01*
X13470171Y-15713483D02*
X13479694Y-15723007D01*
X13479694Y-15723007D02*
X13489218Y-15742055D01*
X13489218Y-15742055D02*
X13489218Y-15761102D01*
X13489218Y-15761102D02*
X13479694Y-15789674D01*
X13479694Y-15789674D02*
X13365409Y-15903959D01*
X13365409Y-15903959D02*
X13489218Y-15903959D01*
X13717790Y-15894436D02*
X13736837Y-15903959D01*
X13736837Y-15903959D02*
X13774933Y-15903959D01*
X13774933Y-15903959D02*
X13793980Y-15894436D01*
X13793980Y-15894436D02*
X13803504Y-15875388D01*
X13803504Y-15875388D02*
X13803504Y-15865864D01*
X13803504Y-15865864D02*
X13793980Y-15846817D01*
X13793980Y-15846817D02*
X13774933Y-15837293D01*
X13774933Y-15837293D02*
X13746361Y-15837293D01*
X13746361Y-15837293D02*
X13727314Y-15827769D01*
X13727314Y-15827769D02*
X13717790Y-15808721D01*
X13717790Y-15808721D02*
X13717790Y-15799198D01*
X13717790Y-15799198D02*
X13727314Y-15780150D01*
X13727314Y-15780150D02*
X13746361Y-15770626D01*
X13746361Y-15770626D02*
X13774933Y-15770626D01*
X13774933Y-15770626D02*
X13793980Y-15780150D01*
X13917790Y-15903959D02*
X13898742Y-15894436D01*
X13898742Y-15894436D02*
X13889218Y-15875388D01*
X13889218Y-15875388D02*
X13889218Y-15703959D01*
X14022552Y-15903959D02*
X14003504Y-15894436D01*
X14003504Y-15894436D02*
X13993980Y-15884912D01*
X13993980Y-15884912D02*
X13984456Y-15865864D01*
X13984456Y-15865864D02*
X13984456Y-15808721D01*
X13984456Y-15808721D02*
X13993980Y-15789674D01*
X13993980Y-15789674D02*
X14003504Y-15780150D01*
X14003504Y-15780150D02*
X14022552Y-15770626D01*
X14022552Y-15770626D02*
X14051123Y-15770626D01*
X14051123Y-15770626D02*
X14070171Y-15780150D01*
X14070171Y-15780150D02*
X14079695Y-15789674D01*
X14079695Y-15789674D02*
X14089218Y-15808721D01*
X14089218Y-15808721D02*
X14089218Y-15865864D01*
X14089218Y-15865864D02*
X14079695Y-15884912D01*
X14079695Y-15884912D02*
X14070171Y-15894436D01*
X14070171Y-15894436D02*
X14051123Y-15903959D01*
X14051123Y-15903959D02*
X14022552Y-15903959D01*
X14146361Y-15770626D02*
X14222552Y-15770626D01*
X14174933Y-15703959D02*
X14174933Y-15875388D01*
X14174933Y-15875388D02*
X14184456Y-15894436D01*
X14184456Y-15894436D02*
X14203504Y-15903959D01*
X14203504Y-15903959D02*
X14222552Y-15903959D01*
X14279695Y-15894436D02*
X14298742Y-15903959D01*
X14298742Y-15903959D02*
X14336837Y-15903959D01*
X14336837Y-15903959D02*
X14355885Y-15894436D01*
X14355885Y-15894436D02*
X14365409Y-15875388D01*
X14365409Y-15875388D02*
X14365409Y-15865864D01*
X14365409Y-15865864D02*
X14355885Y-15846817D01*
X14355885Y-15846817D02*
X14336837Y-15837293D01*
X14336837Y-15837293D02*
X14308266Y-15837293D01*
X14308266Y-15837293D02*
X14289218Y-15827769D01*
X14289218Y-15827769D02*
X14279695Y-15808721D01*
X14279695Y-15808721D02*
X14279695Y-15799198D01*
X14279695Y-15799198D02*
X14289218Y-15780150D01*
X14289218Y-15780150D02*
X14308266Y-15770626D01*
X14308266Y-15770626D02*
X14336837Y-15770626D01*
X14336837Y-15770626D02*
X14355885Y-15780150D01*
X14432076Y-15980150D02*
X14441599Y-15970626D01*
X14441599Y-15970626D02*
X14460647Y-15942055D01*
X14460647Y-15942055D02*
X14470171Y-15923007D01*
X14470171Y-15923007D02*
X14479695Y-15894436D01*
X14479695Y-15894436D02*
X14489218Y-15846817D01*
X14489218Y-15846817D02*
X14489218Y-15808721D01*
X14489218Y-15808721D02*
X14479695Y-15761102D01*
X14479695Y-15761102D02*
X14470171Y-15732531D01*
X14470171Y-15732531D02*
X14460647Y-15713483D01*
X14460647Y-15713483D02*
X14441599Y-15684912D01*
X14441599Y-15684912D02*
X14432076Y-15675388D01*
X14793980Y-15980150D02*
X14784456Y-15970626D01*
X14784456Y-15970626D02*
X14765409Y-15942055D01*
X14765409Y-15942055D02*
X14755885Y-15923007D01*
X14755885Y-15923007D02*
X14746361Y-15894436D01*
X14746361Y-15894436D02*
X14736837Y-15846817D01*
X14736837Y-15846817D02*
X14736837Y-15808721D01*
X14736837Y-15808721D02*
X14746361Y-15761102D01*
X14746361Y-15761102D02*
X14755885Y-15732531D01*
X14755885Y-15732531D02*
X14765409Y-15713483D01*
X14765409Y-15713483D02*
X14784456Y-15684912D01*
X14784456Y-15684912D02*
X14793980Y-15675388D01*
X14870171Y-15770626D02*
X14870171Y-15903959D01*
X14870171Y-15789674D02*
X14879695Y-15780150D01*
X14879695Y-15780150D02*
X14898742Y-15770626D01*
X14898742Y-15770626D02*
X14927314Y-15770626D01*
X14927314Y-15770626D02*
X14946361Y-15780150D01*
X14946361Y-15780150D02*
X14955885Y-15799198D01*
X14955885Y-15799198D02*
X14955885Y-15903959D01*
X15079695Y-15903959D02*
X15060647Y-15894436D01*
X15060647Y-15894436D02*
X15051123Y-15884912D01*
X15051123Y-15884912D02*
X15041599Y-15865864D01*
X15041599Y-15865864D02*
X15041599Y-15808721D01*
X15041599Y-15808721D02*
X15051123Y-15789674D01*
X15051123Y-15789674D02*
X15060647Y-15780150D01*
X15060647Y-15780150D02*
X15079695Y-15770626D01*
X15079695Y-15770626D02*
X15108266Y-15770626D01*
X15108266Y-15770626D02*
X15127314Y-15780150D01*
X15127314Y-15780150D02*
X15136837Y-15789674D01*
X15136837Y-15789674D02*
X15146361Y-15808721D01*
X15146361Y-15808721D02*
X15146361Y-15865864D01*
X15146361Y-15865864D02*
X15136837Y-15884912D01*
X15136837Y-15884912D02*
X15127314Y-15894436D01*
X15127314Y-15894436D02*
X15108266Y-15903959D01*
X15108266Y-15903959D02*
X15079695Y-15903959D01*
X15203504Y-15770626D02*
X15279695Y-15770626D01*
X15232076Y-15703959D02*
X15232076Y-15875388D01*
X15232076Y-15875388D02*
X15241599Y-15894436D01*
X15241599Y-15894436D02*
X15260647Y-15903959D01*
X15260647Y-15903959D02*
X15279695Y-15903959D01*
X15498742Y-15770626D02*
X15498742Y-15970626D01*
X15498742Y-15780150D02*
X15517790Y-15770626D01*
X15517790Y-15770626D02*
X15555885Y-15770626D01*
X15555885Y-15770626D02*
X15574933Y-15780150D01*
X15574933Y-15780150D02*
X15584457Y-15789674D01*
X15584457Y-15789674D02*
X15593980Y-15808721D01*
X15593980Y-15808721D02*
X15593980Y-15865864D01*
X15593980Y-15865864D02*
X15584457Y-15884912D01*
X15584457Y-15884912D02*
X15574933Y-15894436D01*
X15574933Y-15894436D02*
X15555885Y-15903959D01*
X15555885Y-15903959D02*
X15517790Y-15903959D01*
X15517790Y-15903959D02*
X15498742Y-15894436D01*
X15708266Y-15903959D02*
X15689218Y-15894436D01*
X15689218Y-15894436D02*
X15679695Y-15875388D01*
X15679695Y-15875388D02*
X15679695Y-15703959D01*
X15870171Y-15903959D02*
X15870171Y-15799198D01*
X15870171Y-15799198D02*
X15860647Y-15780150D01*
X15860647Y-15780150D02*
X15841599Y-15770626D01*
X15841599Y-15770626D02*
X15803504Y-15770626D01*
X15803504Y-15770626D02*
X15784457Y-15780150D01*
X15870171Y-15894436D02*
X15851123Y-15903959D01*
X15851123Y-15903959D02*
X15803504Y-15903959D01*
X15803504Y-15903959D02*
X15784457Y-15894436D01*
X15784457Y-15894436D02*
X15774933Y-15875388D01*
X15774933Y-15875388D02*
X15774933Y-15856340D01*
X15774933Y-15856340D02*
X15784457Y-15837293D01*
X15784457Y-15837293D02*
X15803504Y-15827769D01*
X15803504Y-15827769D02*
X15851123Y-15827769D01*
X15851123Y-15827769D02*
X15870171Y-15818245D01*
X15936838Y-15770626D02*
X16013028Y-15770626D01*
X15965409Y-15703959D02*
X15965409Y-15875388D01*
X15965409Y-15875388D02*
X15974933Y-15894436D01*
X15974933Y-15894436D02*
X15993980Y-15903959D01*
X15993980Y-15903959D02*
X16013028Y-15903959D01*
X16155885Y-15894436D02*
X16136838Y-15903959D01*
X16136838Y-15903959D02*
X16098742Y-15903959D01*
X16098742Y-15903959D02*
X16079695Y-15894436D01*
X16079695Y-15894436D02*
X16070171Y-15875388D01*
X16070171Y-15875388D02*
X16070171Y-15799198D01*
X16070171Y-15799198D02*
X16079695Y-15780150D01*
X16079695Y-15780150D02*
X16098742Y-15770626D01*
X16098742Y-15770626D02*
X16136838Y-15770626D01*
X16136838Y-15770626D02*
X16155885Y-15780150D01*
X16155885Y-15780150D02*
X16165409Y-15799198D01*
X16165409Y-15799198D02*
X16165409Y-15818245D01*
X16165409Y-15818245D02*
X16070171Y-15837293D01*
X16336838Y-15903959D02*
X16336838Y-15703959D01*
X16336838Y-15894436D02*
X16317790Y-15903959D01*
X16317790Y-15903959D02*
X16279695Y-15903959D01*
X16279695Y-15903959D02*
X16260647Y-15894436D01*
X16260647Y-15894436D02*
X16251123Y-15884912D01*
X16251123Y-15884912D02*
X16241599Y-15865864D01*
X16241599Y-15865864D02*
X16241599Y-15808721D01*
X16241599Y-15808721D02*
X16251123Y-15789674D01*
X16251123Y-15789674D02*
X16260647Y-15780150D01*
X16260647Y-15780150D02*
X16279695Y-15770626D01*
X16279695Y-15770626D02*
X16317790Y-15770626D01*
X16317790Y-15770626D02*
X16336838Y-15780150D01*
X16413028Y-15980150D02*
X16422552Y-15970626D01*
X16422552Y-15970626D02*
X16441599Y-15942055D01*
X16441599Y-15942055D02*
X16451123Y-15923007D01*
X16451123Y-15923007D02*
X16460647Y-15894436D01*
X16460647Y-15894436D02*
X16470171Y-15846817D01*
X16470171Y-15846817D02*
X16470171Y-15808721D01*
X16470171Y-15808721D02*
X16460647Y-15761102D01*
X16460647Y-15761102D02*
X16451123Y-15732531D01*
X16451123Y-15732531D02*
X16441599Y-15713483D01*
X16441599Y-15713483D02*
X16422552Y-15684912D01*
X16422552Y-15684912D02*
X16413028Y-15675388D01*
D12*
X8051123Y-16075436D02*
G75*
G03*
X8051123Y-16075436I-35000J0D01*
G01*
D10*
X8336837Y-15967959D02*
X8355884Y-15967959D01*
X8355884Y-15967959D02*
X8374932Y-15977483D01*
X8374932Y-15977483D02*
X8384456Y-15987007D01*
X8384456Y-15987007D02*
X8393980Y-16006055D01*
X8393980Y-16006055D02*
X8403504Y-16044150D01*
X8403504Y-16044150D02*
X8403504Y-16091769D01*
X8403504Y-16091769D02*
X8393980Y-16129864D01*
X8393980Y-16129864D02*
X8384456Y-16148912D01*
X8384456Y-16148912D02*
X8374932Y-16158436D01*
X8374932Y-16158436D02*
X8355884Y-16167959D01*
X8355884Y-16167959D02*
X8336837Y-16167959D01*
X8336837Y-16167959D02*
X8317789Y-16158436D01*
X8317789Y-16158436D02*
X8308265Y-16148912D01*
X8308265Y-16148912D02*
X8298742Y-16129864D01*
X8298742Y-16129864D02*
X8289218Y-16091769D01*
X8289218Y-16091769D02*
X8289218Y-16044150D01*
X8289218Y-16044150D02*
X8298742Y-16006055D01*
X8298742Y-16006055D02*
X8308265Y-15987007D01*
X8308265Y-15987007D02*
X8317789Y-15977483D01*
X8317789Y-15977483D02*
X8336837Y-15967959D01*
X8489218Y-16148912D02*
X8498742Y-16158436D01*
X8498742Y-16158436D02*
X8489218Y-16167959D01*
X8489218Y-16167959D02*
X8479694Y-16158436D01*
X8479694Y-16158436D02*
X8489218Y-16148912D01*
X8489218Y-16148912D02*
X8489218Y-16167959D01*
X8565408Y-15967959D02*
X8698742Y-15967959D01*
X8698742Y-15967959D02*
X8613027Y-16167959D01*
X8813027Y-15967959D02*
X8832075Y-15967959D01*
X8832075Y-15967959D02*
X8851123Y-15977483D01*
X8851123Y-15977483D02*
X8860646Y-15987007D01*
X8860646Y-15987007D02*
X8870170Y-16006055D01*
X8870170Y-16006055D02*
X8879694Y-16044150D01*
X8879694Y-16044150D02*
X8879694Y-16091769D01*
X8879694Y-16091769D02*
X8870170Y-16129864D01*
X8870170Y-16129864D02*
X8860646Y-16148912D01*
X8860646Y-16148912D02*
X8851123Y-16158436D01*
X8851123Y-16158436D02*
X8832075Y-16167959D01*
X8832075Y-16167959D02*
X8813027Y-16167959D01*
X8813027Y-16167959D02*
X8793980Y-16158436D01*
X8793980Y-16158436D02*
X8784456Y-16148912D01*
X8784456Y-16148912D02*
X8774932Y-16129864D01*
X8774932Y-16129864D02*
X8765408Y-16091769D01*
X8765408Y-16091769D02*
X8765408Y-16044150D01*
X8765408Y-16044150D02*
X8774932Y-16006055D01*
X8774932Y-16006055D02*
X8784456Y-15987007D01*
X8784456Y-15987007D02*
X8793980Y-15977483D01*
X8793980Y-15977483D02*
X8813027Y-15967959D01*
X9003504Y-15967959D02*
X9022551Y-15967959D01*
X9022551Y-15967959D02*
X9041599Y-15977483D01*
X9041599Y-15977483D02*
X9051123Y-15987007D01*
X9051123Y-15987007D02*
X9060646Y-16006055D01*
X9060646Y-16006055D02*
X9070170Y-16044150D01*
X9070170Y-16044150D02*
X9070170Y-16091769D01*
X9070170Y-16091769D02*
X9060646Y-16129864D01*
X9060646Y-16129864D02*
X9051123Y-16148912D01*
X9051123Y-16148912D02*
X9041599Y-16158436D01*
X9041599Y-16158436D02*
X9022551Y-16167959D01*
X9022551Y-16167959D02*
X9003504Y-16167959D01*
X9003504Y-16167959D02*
X8984456Y-16158436D01*
X8984456Y-16158436D02*
X8974932Y-16148912D01*
X8974932Y-16148912D02*
X8965408Y-16129864D01*
X8965408Y-16129864D02*
X8955885Y-16091769D01*
X8955885Y-16091769D02*
X8955885Y-16044150D01*
X8955885Y-16044150D02*
X8965408Y-16006055D01*
X8965408Y-16006055D02*
X8974932Y-15987007D01*
X8974932Y-15987007D02*
X8984456Y-15977483D01*
X8984456Y-15977483D02*
X9003504Y-15967959D01*
X9155885Y-16167959D02*
X9155885Y-16034626D01*
X9155885Y-16053674D02*
X9165408Y-16044150D01*
X9165408Y-16044150D02*
X9184456Y-16034626D01*
X9184456Y-16034626D02*
X9213027Y-16034626D01*
X9213027Y-16034626D02*
X9232075Y-16044150D01*
X9232075Y-16044150D02*
X9241599Y-16063198D01*
X9241599Y-16063198D02*
X9241599Y-16167959D01*
X9241599Y-16063198D02*
X9251123Y-16044150D01*
X9251123Y-16044150D02*
X9270170Y-16034626D01*
X9270170Y-16034626D02*
X9298742Y-16034626D01*
X9298742Y-16034626D02*
X9317789Y-16044150D01*
X9317789Y-16044150D02*
X9327313Y-16063198D01*
X9327313Y-16063198D02*
X9327313Y-16167959D01*
X9422551Y-16167959D02*
X9422551Y-16034626D01*
X9422551Y-16053674D02*
X9432075Y-16044150D01*
X9432075Y-16044150D02*
X9451123Y-16034626D01*
X9451123Y-16034626D02*
X9479694Y-16034626D01*
X9479694Y-16034626D02*
X9498742Y-16044150D01*
X9498742Y-16044150D02*
X9508266Y-16063198D01*
X9508266Y-16063198D02*
X9508266Y-16167959D01*
X9508266Y-16063198D02*
X9517789Y-16044150D01*
X9517789Y-16044150D02*
X9536837Y-16034626D01*
X9536837Y-16034626D02*
X9565408Y-16034626D01*
X9565408Y-16034626D02*
X9584456Y-16044150D01*
X9584456Y-16044150D02*
X9593980Y-16063198D01*
X9593980Y-16063198D02*
X9593980Y-16167959D01*
X9984456Y-15958436D02*
X9813028Y-16215578D01*
X10241599Y-15967959D02*
X10260647Y-15967959D01*
X10260647Y-15967959D02*
X10279694Y-15977483D01*
X10279694Y-15977483D02*
X10289218Y-15987007D01*
X10289218Y-15987007D02*
X10298742Y-16006055D01*
X10298742Y-16006055D02*
X10308266Y-16044150D01*
X10308266Y-16044150D02*
X10308266Y-16091769D01*
X10308266Y-16091769D02*
X10298742Y-16129864D01*
X10298742Y-16129864D02*
X10289218Y-16148912D01*
X10289218Y-16148912D02*
X10279694Y-16158436D01*
X10279694Y-16158436D02*
X10260647Y-16167959D01*
X10260647Y-16167959D02*
X10241599Y-16167959D01*
X10241599Y-16167959D02*
X10222551Y-16158436D01*
X10222551Y-16158436D02*
X10213028Y-16148912D01*
X10213028Y-16148912D02*
X10203504Y-16129864D01*
X10203504Y-16129864D02*
X10193980Y-16091769D01*
X10193980Y-16091769D02*
X10193980Y-16044150D01*
X10193980Y-16044150D02*
X10203504Y-16006055D01*
X10203504Y-16006055D02*
X10213028Y-15987007D01*
X10213028Y-15987007D02*
X10222551Y-15977483D01*
X10222551Y-15977483D02*
X10241599Y-15967959D01*
X10393980Y-16148912D02*
X10403504Y-16158436D01*
X10403504Y-16158436D02*
X10393980Y-16167959D01*
X10393980Y-16167959D02*
X10384456Y-16158436D01*
X10384456Y-16158436D02*
X10393980Y-16148912D01*
X10393980Y-16148912D02*
X10393980Y-16167959D01*
X10527313Y-15967959D02*
X10546361Y-15967959D01*
X10546361Y-15967959D02*
X10565409Y-15977483D01*
X10565409Y-15977483D02*
X10574932Y-15987007D01*
X10574932Y-15987007D02*
X10584456Y-16006055D01*
X10584456Y-16006055D02*
X10593980Y-16044150D01*
X10593980Y-16044150D02*
X10593980Y-16091769D01*
X10593980Y-16091769D02*
X10584456Y-16129864D01*
X10584456Y-16129864D02*
X10574932Y-16148912D01*
X10574932Y-16148912D02*
X10565409Y-16158436D01*
X10565409Y-16158436D02*
X10546361Y-16167959D01*
X10546361Y-16167959D02*
X10527313Y-16167959D01*
X10527313Y-16167959D02*
X10508266Y-16158436D01*
X10508266Y-16158436D02*
X10498742Y-16148912D01*
X10498742Y-16148912D02*
X10489218Y-16129864D01*
X10489218Y-16129864D02*
X10479694Y-16091769D01*
X10479694Y-16091769D02*
X10479694Y-16044150D01*
X10479694Y-16044150D02*
X10489218Y-16006055D01*
X10489218Y-16006055D02*
X10498742Y-15987007D01*
X10498742Y-15987007D02*
X10508266Y-15977483D01*
X10508266Y-15977483D02*
X10527313Y-15967959D01*
X10670170Y-15987007D02*
X10679694Y-15977483D01*
X10679694Y-15977483D02*
X10698742Y-15967959D01*
X10698742Y-15967959D02*
X10746361Y-15967959D01*
X10746361Y-15967959D02*
X10765409Y-15977483D01*
X10765409Y-15977483D02*
X10774932Y-15987007D01*
X10774932Y-15987007D02*
X10784456Y-16006055D01*
X10784456Y-16006055D02*
X10784456Y-16025102D01*
X10784456Y-16025102D02*
X10774932Y-16053674D01*
X10774932Y-16053674D02*
X10660647Y-16167959D01*
X10660647Y-16167959D02*
X10784456Y-16167959D01*
X10851123Y-15967959D02*
X10984456Y-15967959D01*
X10984456Y-15967959D02*
X10898742Y-16167959D01*
X11146361Y-15967959D02*
X11108266Y-15967959D01*
X11108266Y-15967959D02*
X11089218Y-15977483D01*
X11089218Y-15977483D02*
X11079694Y-15987007D01*
X11079694Y-15987007D02*
X11060647Y-16015578D01*
X11060647Y-16015578D02*
X11051123Y-16053674D01*
X11051123Y-16053674D02*
X11051123Y-16129864D01*
X11051123Y-16129864D02*
X11060647Y-16148912D01*
X11060647Y-16148912D02*
X11070170Y-16158436D01*
X11070170Y-16158436D02*
X11089218Y-16167959D01*
X11089218Y-16167959D02*
X11127313Y-16167959D01*
X11127313Y-16167959D02*
X11146361Y-16158436D01*
X11146361Y-16158436D02*
X11155885Y-16148912D01*
X11155885Y-16148912D02*
X11165409Y-16129864D01*
X11165409Y-16129864D02*
X11165409Y-16082245D01*
X11165409Y-16082245D02*
X11155885Y-16063198D01*
X11155885Y-16063198D02*
X11146361Y-16053674D01*
X11146361Y-16053674D02*
X11127313Y-16044150D01*
X11127313Y-16044150D02*
X11089218Y-16044150D01*
X11089218Y-16044150D02*
X11070170Y-16053674D01*
X11070170Y-16053674D02*
X11060647Y-16063198D01*
X11060647Y-16063198D02*
X11051123Y-16082245D01*
X11241599Y-15967959D02*
X11241599Y-16006055D01*
X11317789Y-15967959D02*
X11317789Y-16006055D01*
X11613028Y-16244150D02*
X11603504Y-16234626D01*
X11603504Y-16234626D02*
X11584456Y-16206055D01*
X11584456Y-16206055D02*
X11574932Y-16187007D01*
X11574932Y-16187007D02*
X11565409Y-16158436D01*
X11565409Y-16158436D02*
X11555885Y-16110817D01*
X11555885Y-16110817D02*
X11555885Y-16072721D01*
X11555885Y-16072721D02*
X11565409Y-16025102D01*
X11565409Y-16025102D02*
X11574932Y-15996531D01*
X11574932Y-15996531D02*
X11584456Y-15977483D01*
X11584456Y-15977483D02*
X11603504Y-15948912D01*
X11603504Y-15948912D02*
X11613028Y-15939388D01*
X11679694Y-15987007D02*
X11689218Y-15977483D01*
X11689218Y-15977483D02*
X11708266Y-15967959D01*
X11708266Y-15967959D02*
X11755885Y-15967959D01*
X11755885Y-15967959D02*
X11774932Y-15977483D01*
X11774932Y-15977483D02*
X11784456Y-15987007D01*
X11784456Y-15987007D02*
X11793980Y-16006055D01*
X11793980Y-16006055D02*
X11793980Y-16025102D01*
X11793980Y-16025102D02*
X11784456Y-16053674D01*
X11784456Y-16053674D02*
X11670170Y-16167959D01*
X11670170Y-16167959D02*
X11793980Y-16167959D01*
X12032075Y-16167959D02*
X12032075Y-15967959D01*
X12117790Y-16167959D02*
X12117790Y-16063198D01*
X12117790Y-16063198D02*
X12108266Y-16044150D01*
X12108266Y-16044150D02*
X12089218Y-16034626D01*
X12089218Y-16034626D02*
X12060647Y-16034626D01*
X12060647Y-16034626D02*
X12041599Y-16044150D01*
X12041599Y-16044150D02*
X12032075Y-16053674D01*
X12241599Y-16167959D02*
X12222551Y-16158436D01*
X12222551Y-16158436D02*
X12213028Y-16148912D01*
X12213028Y-16148912D02*
X12203504Y-16129864D01*
X12203504Y-16129864D02*
X12203504Y-16072721D01*
X12203504Y-16072721D02*
X12213028Y-16053674D01*
X12213028Y-16053674D02*
X12222551Y-16044150D01*
X12222551Y-16044150D02*
X12241599Y-16034626D01*
X12241599Y-16034626D02*
X12270171Y-16034626D01*
X12270171Y-16034626D02*
X12289218Y-16044150D01*
X12289218Y-16044150D02*
X12298742Y-16053674D01*
X12298742Y-16053674D02*
X12308266Y-16072721D01*
X12308266Y-16072721D02*
X12308266Y-16129864D01*
X12308266Y-16129864D02*
X12298742Y-16148912D01*
X12298742Y-16148912D02*
X12289218Y-16158436D01*
X12289218Y-16158436D02*
X12270171Y-16167959D01*
X12270171Y-16167959D02*
X12241599Y-16167959D01*
X12422551Y-16167959D02*
X12403504Y-16158436D01*
X12403504Y-16158436D02*
X12393980Y-16139388D01*
X12393980Y-16139388D02*
X12393980Y-15967959D01*
X12574932Y-16158436D02*
X12555885Y-16167959D01*
X12555885Y-16167959D02*
X12517790Y-16167959D01*
X12517790Y-16167959D02*
X12498742Y-16158436D01*
X12498742Y-16158436D02*
X12489218Y-16139388D01*
X12489218Y-16139388D02*
X12489218Y-16063198D01*
X12489218Y-16063198D02*
X12498742Y-16044150D01*
X12498742Y-16044150D02*
X12517790Y-16034626D01*
X12517790Y-16034626D02*
X12555885Y-16034626D01*
X12555885Y-16034626D02*
X12574932Y-16044150D01*
X12574932Y-16044150D02*
X12584456Y-16063198D01*
X12584456Y-16063198D02*
X12584456Y-16082245D01*
X12584456Y-16082245D02*
X12489218Y-16101293D01*
X12660647Y-16158436D02*
X12679694Y-16167959D01*
X12679694Y-16167959D02*
X12717790Y-16167959D01*
X12717790Y-16167959D02*
X12736837Y-16158436D01*
X12736837Y-16158436D02*
X12746361Y-16139388D01*
X12746361Y-16139388D02*
X12746361Y-16129864D01*
X12746361Y-16129864D02*
X12736837Y-16110817D01*
X12736837Y-16110817D02*
X12717790Y-16101293D01*
X12717790Y-16101293D02*
X12689218Y-16101293D01*
X12689218Y-16101293D02*
X12670171Y-16091769D01*
X12670171Y-16091769D02*
X12660647Y-16072721D01*
X12660647Y-16072721D02*
X12660647Y-16063198D01*
X12660647Y-16063198D02*
X12670171Y-16044150D01*
X12670171Y-16044150D02*
X12689218Y-16034626D01*
X12689218Y-16034626D02*
X12717790Y-16034626D01*
X12717790Y-16034626D02*
X12736837Y-16044150D01*
X12813028Y-16244150D02*
X12822552Y-16234626D01*
X12822552Y-16234626D02*
X12841599Y-16206055D01*
X12841599Y-16206055D02*
X12851123Y-16187007D01*
X12851123Y-16187007D02*
X12860647Y-16158436D01*
X12860647Y-16158436D02*
X12870171Y-16110817D01*
X12870171Y-16110817D02*
X12870171Y-16072721D01*
X12870171Y-16072721D02*
X12860647Y-16025102D01*
X12860647Y-16025102D02*
X12851123Y-15996531D01*
X12851123Y-15996531D02*
X12841599Y-15977483D01*
X12841599Y-15977483D02*
X12822552Y-15948912D01*
X12822552Y-15948912D02*
X12813028Y-15939388D01*
X13174933Y-16244150D02*
X13165409Y-16234626D01*
X13165409Y-16234626D02*
X13146361Y-16206055D01*
X13146361Y-16206055D02*
X13136837Y-16187007D01*
X13136837Y-16187007D02*
X13127313Y-16158436D01*
X13127313Y-16158436D02*
X13117790Y-16110817D01*
X13117790Y-16110817D02*
X13117790Y-16072721D01*
X13117790Y-16072721D02*
X13127313Y-16025102D01*
X13127313Y-16025102D02*
X13136837Y-15996531D01*
X13136837Y-15996531D02*
X13146361Y-15977483D01*
X13146361Y-15977483D02*
X13165409Y-15948912D01*
X13165409Y-15948912D02*
X13174933Y-15939388D01*
X13251123Y-16034626D02*
X13251123Y-16167959D01*
X13251123Y-16053674D02*
X13260647Y-16044150D01*
X13260647Y-16044150D02*
X13279694Y-16034626D01*
X13279694Y-16034626D02*
X13308266Y-16034626D01*
X13308266Y-16034626D02*
X13327313Y-16044150D01*
X13327313Y-16044150D02*
X13336837Y-16063198D01*
X13336837Y-16063198D02*
X13336837Y-16167959D01*
X13460647Y-16167959D02*
X13441599Y-16158436D01*
X13441599Y-16158436D02*
X13432075Y-16148912D01*
X13432075Y-16148912D02*
X13422552Y-16129864D01*
X13422552Y-16129864D02*
X13422552Y-16072721D01*
X13422552Y-16072721D02*
X13432075Y-16053674D01*
X13432075Y-16053674D02*
X13441599Y-16044150D01*
X13441599Y-16044150D02*
X13460647Y-16034626D01*
X13460647Y-16034626D02*
X13489218Y-16034626D01*
X13489218Y-16034626D02*
X13508266Y-16044150D01*
X13508266Y-16044150D02*
X13517790Y-16053674D01*
X13517790Y-16053674D02*
X13527313Y-16072721D01*
X13527313Y-16072721D02*
X13527313Y-16129864D01*
X13527313Y-16129864D02*
X13517790Y-16148912D01*
X13517790Y-16148912D02*
X13508266Y-16158436D01*
X13508266Y-16158436D02*
X13489218Y-16167959D01*
X13489218Y-16167959D02*
X13460647Y-16167959D01*
X13584456Y-16034626D02*
X13660647Y-16034626D01*
X13613028Y-15967959D02*
X13613028Y-16139388D01*
X13613028Y-16139388D02*
X13622552Y-16158436D01*
X13622552Y-16158436D02*
X13641599Y-16167959D01*
X13641599Y-16167959D02*
X13660647Y-16167959D01*
X13879694Y-16034626D02*
X13879694Y-16234626D01*
X13879694Y-16044150D02*
X13898742Y-16034626D01*
X13898742Y-16034626D02*
X13936837Y-16034626D01*
X13936837Y-16034626D02*
X13955885Y-16044150D01*
X13955885Y-16044150D02*
X13965409Y-16053674D01*
X13965409Y-16053674D02*
X13974933Y-16072721D01*
X13974933Y-16072721D02*
X13974933Y-16129864D01*
X13974933Y-16129864D02*
X13965409Y-16148912D01*
X13965409Y-16148912D02*
X13955885Y-16158436D01*
X13955885Y-16158436D02*
X13936837Y-16167959D01*
X13936837Y-16167959D02*
X13898742Y-16167959D01*
X13898742Y-16167959D02*
X13879694Y-16158436D01*
X14089218Y-16167959D02*
X14070171Y-16158436D01*
X14070171Y-16158436D02*
X14060647Y-16139388D01*
X14060647Y-16139388D02*
X14060647Y-15967959D01*
X14251123Y-16167959D02*
X14251123Y-16063198D01*
X14251123Y-16063198D02*
X14241599Y-16044150D01*
X14241599Y-16044150D02*
X14222552Y-16034626D01*
X14222552Y-16034626D02*
X14184456Y-16034626D01*
X14184456Y-16034626D02*
X14165409Y-16044150D01*
X14251123Y-16158436D02*
X14232075Y-16167959D01*
X14232075Y-16167959D02*
X14184456Y-16167959D01*
X14184456Y-16167959D02*
X14165409Y-16158436D01*
X14165409Y-16158436D02*
X14155885Y-16139388D01*
X14155885Y-16139388D02*
X14155885Y-16120340D01*
X14155885Y-16120340D02*
X14165409Y-16101293D01*
X14165409Y-16101293D02*
X14184456Y-16091769D01*
X14184456Y-16091769D02*
X14232075Y-16091769D01*
X14232075Y-16091769D02*
X14251123Y-16082245D01*
X14317790Y-16034626D02*
X14393980Y-16034626D01*
X14346361Y-15967959D02*
X14346361Y-16139388D01*
X14346361Y-16139388D02*
X14355885Y-16158436D01*
X14355885Y-16158436D02*
X14374933Y-16167959D01*
X14374933Y-16167959D02*
X14393980Y-16167959D01*
X14536837Y-16158436D02*
X14517790Y-16167959D01*
X14517790Y-16167959D02*
X14479694Y-16167959D01*
X14479694Y-16167959D02*
X14460647Y-16158436D01*
X14460647Y-16158436D02*
X14451123Y-16139388D01*
X14451123Y-16139388D02*
X14451123Y-16063198D01*
X14451123Y-16063198D02*
X14460647Y-16044150D01*
X14460647Y-16044150D02*
X14479694Y-16034626D01*
X14479694Y-16034626D02*
X14517790Y-16034626D01*
X14517790Y-16034626D02*
X14536837Y-16044150D01*
X14536837Y-16044150D02*
X14546361Y-16063198D01*
X14546361Y-16063198D02*
X14546361Y-16082245D01*
X14546361Y-16082245D02*
X14451123Y-16101293D01*
X14717790Y-16167959D02*
X14717790Y-15967959D01*
X14717790Y-16158436D02*
X14698742Y-16167959D01*
X14698742Y-16167959D02*
X14660647Y-16167959D01*
X14660647Y-16167959D02*
X14641599Y-16158436D01*
X14641599Y-16158436D02*
X14632075Y-16148912D01*
X14632075Y-16148912D02*
X14622552Y-16129864D01*
X14622552Y-16129864D02*
X14622552Y-16072721D01*
X14622552Y-16072721D02*
X14632075Y-16053674D01*
X14632075Y-16053674D02*
X14641599Y-16044150D01*
X14641599Y-16044150D02*
X14660647Y-16034626D01*
X14660647Y-16034626D02*
X14698742Y-16034626D01*
X14698742Y-16034626D02*
X14717790Y-16044150D01*
X14793980Y-16244150D02*
X14803504Y-16234626D01*
X14803504Y-16234626D02*
X14822552Y-16206055D01*
X14822552Y-16206055D02*
X14832075Y-16187007D01*
X14832075Y-16187007D02*
X14841599Y-16158436D01*
X14841599Y-16158436D02*
X14851123Y-16110817D01*
X14851123Y-16110817D02*
X14851123Y-16072721D01*
X14851123Y-16072721D02*
X14841599Y-16025102D01*
X14841599Y-16025102D02*
X14832075Y-15996531D01*
X14832075Y-15996531D02*
X14822552Y-15977483D01*
X14822552Y-15977483D02*
X14803504Y-15948912D01*
X14803504Y-15948912D02*
X14793980Y-15939388D01*
D13*
X7971123Y-16259436D02*
X7971123Y-16419436D01*
X7891123Y-16339436D02*
X8051123Y-16339436D01*
D10*
X8403504Y-16431959D02*
X8289218Y-16431959D01*
X8346361Y-16431959D02*
X8346361Y-16231959D01*
X8346361Y-16231959D02*
X8327313Y-16260531D01*
X8327313Y-16260531D02*
X8308265Y-16279578D01*
X8308265Y-16279578D02*
X8289218Y-16289102D01*
X8489218Y-16412912D02*
X8498742Y-16422436D01*
X8498742Y-16422436D02*
X8489218Y-16431959D01*
X8489218Y-16431959D02*
X8479694Y-16422436D01*
X8479694Y-16422436D02*
X8489218Y-16412912D01*
X8489218Y-16412912D02*
X8489218Y-16431959D01*
X8670170Y-16231959D02*
X8632075Y-16231959D01*
X8632075Y-16231959D02*
X8613027Y-16241483D01*
X8613027Y-16241483D02*
X8603504Y-16251007D01*
X8603504Y-16251007D02*
X8584456Y-16279578D01*
X8584456Y-16279578D02*
X8574932Y-16317674D01*
X8574932Y-16317674D02*
X8574932Y-16393864D01*
X8574932Y-16393864D02*
X8584456Y-16412912D01*
X8584456Y-16412912D02*
X8593980Y-16422436D01*
X8593980Y-16422436D02*
X8613027Y-16431959D01*
X8613027Y-16431959D02*
X8651123Y-16431959D01*
X8651123Y-16431959D02*
X8670170Y-16422436D01*
X8670170Y-16422436D02*
X8679694Y-16412912D01*
X8679694Y-16412912D02*
X8689218Y-16393864D01*
X8689218Y-16393864D02*
X8689218Y-16346245D01*
X8689218Y-16346245D02*
X8679694Y-16327198D01*
X8679694Y-16327198D02*
X8670170Y-16317674D01*
X8670170Y-16317674D02*
X8651123Y-16308150D01*
X8651123Y-16308150D02*
X8613027Y-16308150D01*
X8613027Y-16308150D02*
X8593980Y-16317674D01*
X8593980Y-16317674D02*
X8584456Y-16327198D01*
X8584456Y-16327198D02*
X8574932Y-16346245D01*
X8813027Y-16231959D02*
X8832075Y-16231959D01*
X8832075Y-16231959D02*
X8851123Y-16241483D01*
X8851123Y-16241483D02*
X8860646Y-16251007D01*
X8860646Y-16251007D02*
X8870170Y-16270055D01*
X8870170Y-16270055D02*
X8879694Y-16308150D01*
X8879694Y-16308150D02*
X8879694Y-16355769D01*
X8879694Y-16355769D02*
X8870170Y-16393864D01*
X8870170Y-16393864D02*
X8860646Y-16412912D01*
X8860646Y-16412912D02*
X8851123Y-16422436D01*
X8851123Y-16422436D02*
X8832075Y-16431959D01*
X8832075Y-16431959D02*
X8813027Y-16431959D01*
X8813027Y-16431959D02*
X8793980Y-16422436D01*
X8793980Y-16422436D02*
X8784456Y-16412912D01*
X8784456Y-16412912D02*
X8774932Y-16393864D01*
X8774932Y-16393864D02*
X8765408Y-16355769D01*
X8765408Y-16355769D02*
X8765408Y-16308150D01*
X8765408Y-16308150D02*
X8774932Y-16270055D01*
X8774932Y-16270055D02*
X8784456Y-16251007D01*
X8784456Y-16251007D02*
X8793980Y-16241483D01*
X8793980Y-16241483D02*
X8813027Y-16231959D01*
X9003504Y-16231959D02*
X9022551Y-16231959D01*
X9022551Y-16231959D02*
X9041599Y-16241483D01*
X9041599Y-16241483D02*
X9051123Y-16251007D01*
X9051123Y-16251007D02*
X9060646Y-16270055D01*
X9060646Y-16270055D02*
X9070170Y-16308150D01*
X9070170Y-16308150D02*
X9070170Y-16355769D01*
X9070170Y-16355769D02*
X9060646Y-16393864D01*
X9060646Y-16393864D02*
X9051123Y-16412912D01*
X9051123Y-16412912D02*
X9041599Y-16422436D01*
X9041599Y-16422436D02*
X9022551Y-16431959D01*
X9022551Y-16431959D02*
X9003504Y-16431959D01*
X9003504Y-16431959D02*
X8984456Y-16422436D01*
X8984456Y-16422436D02*
X8974932Y-16412912D01*
X8974932Y-16412912D02*
X8965408Y-16393864D01*
X8965408Y-16393864D02*
X8955885Y-16355769D01*
X8955885Y-16355769D02*
X8955885Y-16308150D01*
X8955885Y-16308150D02*
X8965408Y-16270055D01*
X8965408Y-16270055D02*
X8974932Y-16251007D01*
X8974932Y-16251007D02*
X8984456Y-16241483D01*
X8984456Y-16241483D02*
X9003504Y-16231959D01*
X9155885Y-16431959D02*
X9155885Y-16298626D01*
X9155885Y-16317674D02*
X9165408Y-16308150D01*
X9165408Y-16308150D02*
X9184456Y-16298626D01*
X9184456Y-16298626D02*
X9213027Y-16298626D01*
X9213027Y-16298626D02*
X9232075Y-16308150D01*
X9232075Y-16308150D02*
X9241599Y-16327198D01*
X9241599Y-16327198D02*
X9241599Y-16431959D01*
X9241599Y-16327198D02*
X9251123Y-16308150D01*
X9251123Y-16308150D02*
X9270170Y-16298626D01*
X9270170Y-16298626D02*
X9298742Y-16298626D01*
X9298742Y-16298626D02*
X9317789Y-16308150D01*
X9317789Y-16308150D02*
X9327313Y-16327198D01*
X9327313Y-16327198D02*
X9327313Y-16431959D01*
X9422551Y-16431959D02*
X9422551Y-16298626D01*
X9422551Y-16317674D02*
X9432075Y-16308150D01*
X9432075Y-16308150D02*
X9451123Y-16298626D01*
X9451123Y-16298626D02*
X9479694Y-16298626D01*
X9479694Y-16298626D02*
X9498742Y-16308150D01*
X9498742Y-16308150D02*
X9508266Y-16327198D01*
X9508266Y-16327198D02*
X9508266Y-16431959D01*
X9508266Y-16327198D02*
X9517789Y-16308150D01*
X9517789Y-16308150D02*
X9536837Y-16298626D01*
X9536837Y-16298626D02*
X9565408Y-16298626D01*
X9565408Y-16298626D02*
X9584456Y-16308150D01*
X9584456Y-16308150D02*
X9593980Y-16327198D01*
X9593980Y-16327198D02*
X9593980Y-16431959D01*
X9984456Y-16222436D02*
X9813028Y-16479578D01*
X10241599Y-16231959D02*
X10260647Y-16231959D01*
X10260647Y-16231959D02*
X10279694Y-16241483D01*
X10279694Y-16241483D02*
X10289218Y-16251007D01*
X10289218Y-16251007D02*
X10298742Y-16270055D01*
X10298742Y-16270055D02*
X10308266Y-16308150D01*
X10308266Y-16308150D02*
X10308266Y-16355769D01*
X10308266Y-16355769D02*
X10298742Y-16393864D01*
X10298742Y-16393864D02*
X10289218Y-16412912D01*
X10289218Y-16412912D02*
X10279694Y-16422436D01*
X10279694Y-16422436D02*
X10260647Y-16431959D01*
X10260647Y-16431959D02*
X10241599Y-16431959D01*
X10241599Y-16431959D02*
X10222551Y-16422436D01*
X10222551Y-16422436D02*
X10213028Y-16412912D01*
X10213028Y-16412912D02*
X10203504Y-16393864D01*
X10203504Y-16393864D02*
X10193980Y-16355769D01*
X10193980Y-16355769D02*
X10193980Y-16308150D01*
X10193980Y-16308150D02*
X10203504Y-16270055D01*
X10203504Y-16270055D02*
X10213028Y-16251007D01*
X10213028Y-16251007D02*
X10222551Y-16241483D01*
X10222551Y-16241483D02*
X10241599Y-16231959D01*
X10393980Y-16412912D02*
X10403504Y-16422436D01*
X10403504Y-16422436D02*
X10393980Y-16431959D01*
X10393980Y-16431959D02*
X10384456Y-16422436D01*
X10384456Y-16422436D02*
X10393980Y-16412912D01*
X10393980Y-16412912D02*
X10393980Y-16431959D01*
X10527313Y-16231959D02*
X10546361Y-16231959D01*
X10546361Y-16231959D02*
X10565409Y-16241483D01*
X10565409Y-16241483D02*
X10574932Y-16251007D01*
X10574932Y-16251007D02*
X10584456Y-16270055D01*
X10584456Y-16270055D02*
X10593980Y-16308150D01*
X10593980Y-16308150D02*
X10593980Y-16355769D01*
X10593980Y-16355769D02*
X10584456Y-16393864D01*
X10584456Y-16393864D02*
X10574932Y-16412912D01*
X10574932Y-16412912D02*
X10565409Y-16422436D01*
X10565409Y-16422436D02*
X10546361Y-16431959D01*
X10546361Y-16431959D02*
X10527313Y-16431959D01*
X10527313Y-16431959D02*
X10508266Y-16422436D01*
X10508266Y-16422436D02*
X10498742Y-16412912D01*
X10498742Y-16412912D02*
X10489218Y-16393864D01*
X10489218Y-16393864D02*
X10479694Y-16355769D01*
X10479694Y-16355769D02*
X10479694Y-16308150D01*
X10479694Y-16308150D02*
X10489218Y-16270055D01*
X10489218Y-16270055D02*
X10498742Y-16251007D01*
X10498742Y-16251007D02*
X10508266Y-16241483D01*
X10508266Y-16241483D02*
X10527313Y-16231959D01*
X10765409Y-16231959D02*
X10727313Y-16231959D01*
X10727313Y-16231959D02*
X10708266Y-16241483D01*
X10708266Y-16241483D02*
X10698742Y-16251007D01*
X10698742Y-16251007D02*
X10679694Y-16279578D01*
X10679694Y-16279578D02*
X10670170Y-16317674D01*
X10670170Y-16317674D02*
X10670170Y-16393864D01*
X10670170Y-16393864D02*
X10679694Y-16412912D01*
X10679694Y-16412912D02*
X10689218Y-16422436D01*
X10689218Y-16422436D02*
X10708266Y-16431959D01*
X10708266Y-16431959D02*
X10746361Y-16431959D01*
X10746361Y-16431959D02*
X10765409Y-16422436D01*
X10765409Y-16422436D02*
X10774932Y-16412912D01*
X10774932Y-16412912D02*
X10784456Y-16393864D01*
X10784456Y-16393864D02*
X10784456Y-16346245D01*
X10784456Y-16346245D02*
X10774932Y-16327198D01*
X10774932Y-16327198D02*
X10765409Y-16317674D01*
X10765409Y-16317674D02*
X10746361Y-16308150D01*
X10746361Y-16308150D02*
X10708266Y-16308150D01*
X10708266Y-16308150D02*
X10689218Y-16317674D01*
X10689218Y-16317674D02*
X10679694Y-16327198D01*
X10679694Y-16327198D02*
X10670170Y-16346245D01*
X10851123Y-16231959D02*
X10974932Y-16231959D01*
X10974932Y-16231959D02*
X10908266Y-16308150D01*
X10908266Y-16308150D02*
X10936837Y-16308150D01*
X10936837Y-16308150D02*
X10955885Y-16317674D01*
X10955885Y-16317674D02*
X10965409Y-16327198D01*
X10965409Y-16327198D02*
X10974932Y-16346245D01*
X10974932Y-16346245D02*
X10974932Y-16393864D01*
X10974932Y-16393864D02*
X10965409Y-16412912D01*
X10965409Y-16412912D02*
X10955885Y-16422436D01*
X10955885Y-16422436D02*
X10936837Y-16431959D01*
X10936837Y-16431959D02*
X10879694Y-16431959D01*
X10879694Y-16431959D02*
X10860647Y-16422436D01*
X10860647Y-16422436D02*
X10851123Y-16412912D01*
X11098742Y-16231959D02*
X11117790Y-16231959D01*
X11117790Y-16231959D02*
X11136837Y-16241483D01*
X11136837Y-16241483D02*
X11146361Y-16251007D01*
X11146361Y-16251007D02*
X11155885Y-16270055D01*
X11155885Y-16270055D02*
X11165409Y-16308150D01*
X11165409Y-16308150D02*
X11165409Y-16355769D01*
X11165409Y-16355769D02*
X11155885Y-16393864D01*
X11155885Y-16393864D02*
X11146361Y-16412912D01*
X11146361Y-16412912D02*
X11136837Y-16422436D01*
X11136837Y-16422436D02*
X11117790Y-16431959D01*
X11117790Y-16431959D02*
X11098742Y-16431959D01*
X11098742Y-16431959D02*
X11079694Y-16422436D01*
X11079694Y-16422436D02*
X11070170Y-16412912D01*
X11070170Y-16412912D02*
X11060647Y-16393864D01*
X11060647Y-16393864D02*
X11051123Y-16355769D01*
X11051123Y-16355769D02*
X11051123Y-16308150D01*
X11051123Y-16308150D02*
X11060647Y-16270055D01*
X11060647Y-16270055D02*
X11070170Y-16251007D01*
X11070170Y-16251007D02*
X11079694Y-16241483D01*
X11079694Y-16241483D02*
X11098742Y-16231959D01*
X11241599Y-16231959D02*
X11241599Y-16270055D01*
X11317789Y-16231959D02*
X11317789Y-16270055D01*
X11613028Y-16508150D02*
X11603504Y-16498626D01*
X11603504Y-16498626D02*
X11584456Y-16470055D01*
X11584456Y-16470055D02*
X11574932Y-16451007D01*
X11574932Y-16451007D02*
X11565409Y-16422436D01*
X11565409Y-16422436D02*
X11555885Y-16374817D01*
X11555885Y-16374817D02*
X11555885Y-16336721D01*
X11555885Y-16336721D02*
X11565409Y-16289102D01*
X11565409Y-16289102D02*
X11574932Y-16260531D01*
X11574932Y-16260531D02*
X11584456Y-16241483D01*
X11584456Y-16241483D02*
X11603504Y-16212912D01*
X11603504Y-16212912D02*
X11613028Y-16203388D01*
X11774932Y-16298626D02*
X11774932Y-16431959D01*
X11727313Y-16222436D02*
X11679694Y-16365293D01*
X11679694Y-16365293D02*
X11803504Y-16365293D01*
X12032075Y-16431959D02*
X12032075Y-16231959D01*
X12117790Y-16431959D02*
X12117790Y-16327198D01*
X12117790Y-16327198D02*
X12108266Y-16308150D01*
X12108266Y-16308150D02*
X12089218Y-16298626D01*
X12089218Y-16298626D02*
X12060647Y-16298626D01*
X12060647Y-16298626D02*
X12041599Y-16308150D01*
X12041599Y-16308150D02*
X12032075Y-16317674D01*
X12241599Y-16431959D02*
X12222551Y-16422436D01*
X12222551Y-16422436D02*
X12213028Y-16412912D01*
X12213028Y-16412912D02*
X12203504Y-16393864D01*
X12203504Y-16393864D02*
X12203504Y-16336721D01*
X12203504Y-16336721D02*
X12213028Y-16317674D01*
X12213028Y-16317674D02*
X12222551Y-16308150D01*
X12222551Y-16308150D02*
X12241599Y-16298626D01*
X12241599Y-16298626D02*
X12270171Y-16298626D01*
X12270171Y-16298626D02*
X12289218Y-16308150D01*
X12289218Y-16308150D02*
X12298742Y-16317674D01*
X12298742Y-16317674D02*
X12308266Y-16336721D01*
X12308266Y-16336721D02*
X12308266Y-16393864D01*
X12308266Y-16393864D02*
X12298742Y-16412912D01*
X12298742Y-16412912D02*
X12289218Y-16422436D01*
X12289218Y-16422436D02*
X12270171Y-16431959D01*
X12270171Y-16431959D02*
X12241599Y-16431959D01*
X12422551Y-16431959D02*
X12403504Y-16422436D01*
X12403504Y-16422436D02*
X12393980Y-16403388D01*
X12393980Y-16403388D02*
X12393980Y-16231959D01*
X12574932Y-16422436D02*
X12555885Y-16431959D01*
X12555885Y-16431959D02*
X12517790Y-16431959D01*
X12517790Y-16431959D02*
X12498742Y-16422436D01*
X12498742Y-16422436D02*
X12489218Y-16403388D01*
X12489218Y-16403388D02*
X12489218Y-16327198D01*
X12489218Y-16327198D02*
X12498742Y-16308150D01*
X12498742Y-16308150D02*
X12517790Y-16298626D01*
X12517790Y-16298626D02*
X12555885Y-16298626D01*
X12555885Y-16298626D02*
X12574932Y-16308150D01*
X12574932Y-16308150D02*
X12584456Y-16327198D01*
X12584456Y-16327198D02*
X12584456Y-16346245D01*
X12584456Y-16346245D02*
X12489218Y-16365293D01*
X12660647Y-16422436D02*
X12679694Y-16431959D01*
X12679694Y-16431959D02*
X12717790Y-16431959D01*
X12717790Y-16431959D02*
X12736837Y-16422436D01*
X12736837Y-16422436D02*
X12746361Y-16403388D01*
X12746361Y-16403388D02*
X12746361Y-16393864D01*
X12746361Y-16393864D02*
X12736837Y-16374817D01*
X12736837Y-16374817D02*
X12717790Y-16365293D01*
X12717790Y-16365293D02*
X12689218Y-16365293D01*
X12689218Y-16365293D02*
X12670171Y-16355769D01*
X12670171Y-16355769D02*
X12660647Y-16336721D01*
X12660647Y-16336721D02*
X12660647Y-16327198D01*
X12660647Y-16327198D02*
X12670171Y-16308150D01*
X12670171Y-16308150D02*
X12689218Y-16298626D01*
X12689218Y-16298626D02*
X12717790Y-16298626D01*
X12717790Y-16298626D02*
X12736837Y-16308150D01*
X12813028Y-16508150D02*
X12822552Y-16498626D01*
X12822552Y-16498626D02*
X12841599Y-16470055D01*
X12841599Y-16470055D02*
X12851123Y-16451007D01*
X12851123Y-16451007D02*
X12860647Y-16422436D01*
X12860647Y-16422436D02*
X12870171Y-16374817D01*
X12870171Y-16374817D02*
X12870171Y-16336721D01*
X12870171Y-16336721D02*
X12860647Y-16289102D01*
X12860647Y-16289102D02*
X12851123Y-16260531D01*
X12851123Y-16260531D02*
X12841599Y-16241483D01*
X12841599Y-16241483D02*
X12822552Y-16212912D01*
X12822552Y-16212912D02*
X12813028Y-16203388D01*
X13174933Y-16508150D02*
X13165409Y-16498626D01*
X13165409Y-16498626D02*
X13146361Y-16470055D01*
X13146361Y-16470055D02*
X13136837Y-16451007D01*
X13136837Y-16451007D02*
X13127313Y-16422436D01*
X13127313Y-16422436D02*
X13117790Y-16374817D01*
X13117790Y-16374817D02*
X13117790Y-16336721D01*
X13117790Y-16336721D02*
X13127313Y-16289102D01*
X13127313Y-16289102D02*
X13136837Y-16260531D01*
X13136837Y-16260531D02*
X13146361Y-16241483D01*
X13146361Y-16241483D02*
X13165409Y-16212912D01*
X13165409Y-16212912D02*
X13174933Y-16203388D01*
X13251123Y-16298626D02*
X13251123Y-16431959D01*
X13251123Y-16317674D02*
X13260647Y-16308150D01*
X13260647Y-16308150D02*
X13279694Y-16298626D01*
X13279694Y-16298626D02*
X13308266Y-16298626D01*
X13308266Y-16298626D02*
X13327313Y-16308150D01*
X13327313Y-16308150D02*
X13336837Y-16327198D01*
X13336837Y-16327198D02*
X13336837Y-16431959D01*
X13460647Y-16431959D02*
X13441599Y-16422436D01*
X13441599Y-16422436D02*
X13432075Y-16412912D01*
X13432075Y-16412912D02*
X13422552Y-16393864D01*
X13422552Y-16393864D02*
X13422552Y-16336721D01*
X13422552Y-16336721D02*
X13432075Y-16317674D01*
X13432075Y-16317674D02*
X13441599Y-16308150D01*
X13441599Y-16308150D02*
X13460647Y-16298626D01*
X13460647Y-16298626D02*
X13489218Y-16298626D01*
X13489218Y-16298626D02*
X13508266Y-16308150D01*
X13508266Y-16308150D02*
X13517790Y-16317674D01*
X13517790Y-16317674D02*
X13527313Y-16336721D01*
X13527313Y-16336721D02*
X13527313Y-16393864D01*
X13527313Y-16393864D02*
X13517790Y-16412912D01*
X13517790Y-16412912D02*
X13508266Y-16422436D01*
X13508266Y-16422436D02*
X13489218Y-16431959D01*
X13489218Y-16431959D02*
X13460647Y-16431959D01*
X13584456Y-16298626D02*
X13660647Y-16298626D01*
X13613028Y-16231959D02*
X13613028Y-16403388D01*
X13613028Y-16403388D02*
X13622552Y-16422436D01*
X13622552Y-16422436D02*
X13641599Y-16431959D01*
X13641599Y-16431959D02*
X13660647Y-16431959D01*
X13879694Y-16298626D02*
X13879694Y-16498626D01*
X13879694Y-16308150D02*
X13898742Y-16298626D01*
X13898742Y-16298626D02*
X13936837Y-16298626D01*
X13936837Y-16298626D02*
X13955885Y-16308150D01*
X13955885Y-16308150D02*
X13965409Y-16317674D01*
X13965409Y-16317674D02*
X13974933Y-16336721D01*
X13974933Y-16336721D02*
X13974933Y-16393864D01*
X13974933Y-16393864D02*
X13965409Y-16412912D01*
X13965409Y-16412912D02*
X13955885Y-16422436D01*
X13955885Y-16422436D02*
X13936837Y-16431959D01*
X13936837Y-16431959D02*
X13898742Y-16431959D01*
X13898742Y-16431959D02*
X13879694Y-16422436D01*
X14089218Y-16431959D02*
X14070171Y-16422436D01*
X14070171Y-16422436D02*
X14060647Y-16403388D01*
X14060647Y-16403388D02*
X14060647Y-16231959D01*
X14251123Y-16431959D02*
X14251123Y-16327198D01*
X14251123Y-16327198D02*
X14241599Y-16308150D01*
X14241599Y-16308150D02*
X14222552Y-16298626D01*
X14222552Y-16298626D02*
X14184456Y-16298626D01*
X14184456Y-16298626D02*
X14165409Y-16308150D01*
X14251123Y-16422436D02*
X14232075Y-16431959D01*
X14232075Y-16431959D02*
X14184456Y-16431959D01*
X14184456Y-16431959D02*
X14165409Y-16422436D01*
X14165409Y-16422436D02*
X14155885Y-16403388D01*
X14155885Y-16403388D02*
X14155885Y-16384340D01*
X14155885Y-16384340D02*
X14165409Y-16365293D01*
X14165409Y-16365293D02*
X14184456Y-16355769D01*
X14184456Y-16355769D02*
X14232075Y-16355769D01*
X14232075Y-16355769D02*
X14251123Y-16346245D01*
X14317790Y-16298626D02*
X14393980Y-16298626D01*
X14346361Y-16231959D02*
X14346361Y-16403388D01*
X14346361Y-16403388D02*
X14355885Y-16422436D01*
X14355885Y-16422436D02*
X14374933Y-16431959D01*
X14374933Y-16431959D02*
X14393980Y-16431959D01*
X14536837Y-16422436D02*
X14517790Y-16431959D01*
X14517790Y-16431959D02*
X14479694Y-16431959D01*
X14479694Y-16431959D02*
X14460647Y-16422436D01*
X14460647Y-16422436D02*
X14451123Y-16403388D01*
X14451123Y-16403388D02*
X14451123Y-16327198D01*
X14451123Y-16327198D02*
X14460647Y-16308150D01*
X14460647Y-16308150D02*
X14479694Y-16298626D01*
X14479694Y-16298626D02*
X14517790Y-16298626D01*
X14517790Y-16298626D02*
X14536837Y-16308150D01*
X14536837Y-16308150D02*
X14546361Y-16327198D01*
X14546361Y-16327198D02*
X14546361Y-16346245D01*
X14546361Y-16346245D02*
X14451123Y-16365293D01*
X14717790Y-16431959D02*
X14717790Y-16231959D01*
X14717790Y-16422436D02*
X14698742Y-16431959D01*
X14698742Y-16431959D02*
X14660647Y-16431959D01*
X14660647Y-16431959D02*
X14641599Y-16422436D01*
X14641599Y-16422436D02*
X14632075Y-16412912D01*
X14632075Y-16412912D02*
X14622552Y-16393864D01*
X14622552Y-16393864D02*
X14622552Y-16336721D01*
X14622552Y-16336721D02*
X14632075Y-16317674D01*
X14632075Y-16317674D02*
X14641599Y-16308150D01*
X14641599Y-16308150D02*
X14660647Y-16298626D01*
X14660647Y-16298626D02*
X14698742Y-16298626D01*
X14698742Y-16298626D02*
X14717790Y-16308150D01*
X14793980Y-16508150D02*
X14803504Y-16498626D01*
X14803504Y-16498626D02*
X14822552Y-16470055D01*
X14822552Y-16470055D02*
X14832075Y-16451007D01*
X14832075Y-16451007D02*
X14841599Y-16422436D01*
X14841599Y-16422436D02*
X14851123Y-16374817D01*
X14851123Y-16374817D02*
X14851123Y-16336721D01*
X14851123Y-16336721D02*
X14841599Y-16289102D01*
X14841599Y-16289102D02*
X14832075Y-16260531D01*
X14832075Y-16260531D02*
X14822552Y-16241483D01*
X14822552Y-16241483D02*
X14803504Y-16212912D01*
X14803504Y-16212912D02*
X14793980Y-16203388D01*
M02*
