%TF.GenerationSoftware,KiCad,Pcbnew,7.0.2*%
%TF.CreationDate,2023-06-19T11:15:11-07:00*%
%TF.ProjectId,procon_gcc_main_pcb,70726f63-6f6e-45f6-9763-635f6d61696e,1*%
%TF.SameCoordinates,Original*%
%TF.FileFunction,Drillmap*%
%TF.FilePolarity,Positive*%
%FSLAX45Y45*%
G04 Gerber Fmt 4.5, Leading zero omitted, Abs format (unit mm)*
G04 Created by KiCad (PCBNEW 7.0.2) date 2023-06-19 11:15:11*
%MOMM*%
%LPD*%
G01*
G04 APERTURE LIST*
%ADD10C,0.200000*%
%ADD11C,0.035000*%
%ADD12C,0.040000*%
%ADD13C,0.050000*%
%ADD14C,0.080000*%
%ADD15C,0.090000*%
%ADD16C,0.100000*%
%ADD17C,0.110000*%
%ADD18C,0.120000*%
G04 APERTURE END LIST*
D10*
X16360622Y-10811436D02*
X16630622Y-10811436D01*
X17155623Y-14761436D02*
X16765622Y-15161436D01*
X12765623Y-15161436D02*
X12765623Y-14671436D01*
X13378123Y-10771436D02*
G75*
G03*
X13378123Y-10771436I-137500J0D01*
G01*
X19155623Y-13761436D02*
X19155623Y-14761436D01*
X13355623Y-14270000D02*
G75*
G03*
X13075623Y-14270000I-140000J-105000D01*
G01*
X16630622Y-12561436D02*
X17500623Y-12561436D01*
X16360622Y-10411436D02*
X16360622Y-10811436D01*
X13240623Y-9871436D02*
X13240623Y-9186436D01*
X11765623Y-14421436D02*
X11365623Y-14421436D01*
X9295623Y-14141436D02*
X8205623Y-14141436D01*
X17500623Y-12561436D02*
X17500623Y-13761436D01*
X12765623Y-14671436D02*
X11765623Y-14671436D01*
X8705623Y-10791436D02*
X11240623Y-10791436D01*
X18900000Y-14311000D02*
G75*
G03*
X18900000Y-14311000I-125000J0D01*
G01*
X14470622Y-9186436D02*
X14470622Y-10111436D01*
X9295623Y-14671436D02*
X9295623Y-14141436D01*
X11940623Y-9871436D02*
X13240623Y-9871436D01*
X15740622Y-10111436D02*
X15740622Y-10411436D01*
X11365623Y-14671436D02*
X9295623Y-14671436D01*
X16765622Y-15161436D02*
X12765623Y-15161436D01*
X8101675Y-11525814D02*
X8249271Y-11525814D01*
X8205623Y-14141436D02*
X8205623Y-12541436D01*
X15740622Y-10411436D02*
X16360622Y-10411436D01*
X8862500Y-13491436D02*
G75*
G03*
X8862500Y-13491436I-115000J0D01*
G01*
X11240623Y-10411436D02*
X11940623Y-10411436D01*
X11765623Y-14671436D02*
X11765623Y-14421436D01*
X11230000Y-13677500D02*
G75*
G03*
X11230000Y-13677500I-230000J0D01*
G01*
X11240623Y-10791436D02*
X11240623Y-10411436D01*
X13240623Y-9186436D02*
X14470622Y-9186436D01*
X11365623Y-14421436D02*
X11365623Y-14671436D01*
X17500623Y-13761436D02*
X19155623Y-13761436D01*
X19155623Y-14761436D02*
X17155623Y-14761436D01*
X11940623Y-10411436D02*
X11940623Y-9871436D01*
X8101678Y-11525815D02*
G75*
G03*
X8205623Y-12541436I1538942J-355625D01*
G01*
X8705623Y-10791436D02*
G75*
G03*
X8249271Y-11525814I935000J-1089999D01*
G01*
X17315000Y-12825000D02*
G75*
G03*
X17315000Y-12825000I-115000J0D01*
G01*
X16630622Y-10811436D02*
X16630622Y-12561436D01*
X13075623Y-14480000D02*
G75*
G03*
X13355623Y-14480000I140000J105000D01*
G01*
X14470622Y-10111436D02*
X15740622Y-10111436D01*
X13075623Y-14480000D02*
X13075623Y-14270000D01*
X13355623Y-14270000D02*
X13355623Y-14480000D01*
D11*
X8520022Y-11306193D02*
X8555022Y-11341193D01*
X8555022Y-11306193D02*
X8520022Y-11341193D01*
X8540350Y-11187991D02*
X8575350Y-11222991D01*
X8575350Y-11187991D02*
X8540350Y-11222991D01*
X8540350Y-12453700D02*
X8575350Y-12488700D01*
X8575350Y-12453700D02*
X8540350Y-12488700D01*
X8785200Y-11412300D02*
X8820200Y-11447300D01*
X8820200Y-11412300D02*
X8785200Y-11447300D01*
X8836000Y-12656900D02*
X8871000Y-12691900D01*
X8871000Y-12656900D02*
X8836000Y-12691900D01*
X9177300Y-11971300D02*
X9212300Y-12006300D01*
X9212300Y-11971300D02*
X9177300Y-12006300D01*
X9248754Y-12742143D02*
X9283754Y-12777143D01*
X9283754Y-12742143D02*
X9248754Y-12777143D01*
X9355133Y-12668792D02*
X9390133Y-12703792D01*
X9390133Y-12668792D02*
X9355133Y-12703792D01*
X9366695Y-12957846D02*
X9401695Y-12992846D01*
X9401695Y-12957846D02*
X9366695Y-12992846D01*
X9448309Y-12425603D02*
X9483309Y-12460603D01*
X9483309Y-12425603D02*
X9448309Y-12460603D01*
X9607636Y-14058491D02*
X9642636Y-14093491D01*
X9642636Y-14058491D02*
X9607636Y-14093491D01*
X9631135Y-13539370D02*
X9666135Y-13574370D01*
X9666135Y-13539370D02*
X9631135Y-13574370D01*
X9634500Y-13977900D02*
X9669500Y-14012900D01*
X9669500Y-13977900D02*
X9634500Y-14012900D01*
X9688457Y-13604320D02*
X9723457Y-13639320D01*
X9723457Y-13604320D02*
X9688457Y-13639320D01*
X9835773Y-13239373D02*
X9870773Y-13274373D01*
X9870773Y-13239373D02*
X9835773Y-13274373D01*
X9939300Y-12987300D02*
X9974300Y-13022300D01*
X9974300Y-12987300D02*
X9939300Y-13022300D01*
X10161426Y-12912315D02*
X10196426Y-12947315D01*
X10196426Y-12912315D02*
X10161426Y-12947315D01*
X10242260Y-13002450D02*
X10277260Y-13037450D01*
X10277260Y-13002450D02*
X10242260Y-13037450D01*
X10242582Y-11994567D02*
X10277582Y-12029567D01*
X10277582Y-11994567D02*
X10242582Y-12029567D01*
X10244100Y-14028700D02*
X10279100Y-14063700D01*
X10279100Y-14028700D02*
X10244100Y-14063700D01*
X10246367Y-12913562D02*
X10281367Y-12948562D01*
X10281367Y-12913562D02*
X10246367Y-12948562D01*
X10309200Y-12453700D02*
X10344200Y-12488700D01*
X10344200Y-12453700D02*
X10309200Y-12488700D01*
X10309200Y-12707700D02*
X10344200Y-12742700D01*
X10344200Y-12707700D02*
X10309200Y-12742700D01*
X10322024Y-11182235D02*
X10357024Y-11217235D01*
X10357024Y-11182235D02*
X10322024Y-11217235D01*
X10341214Y-13078599D02*
X10376214Y-13113599D01*
X10376214Y-13078599D02*
X10341214Y-13113599D01*
X10343705Y-12991327D02*
X10378705Y-13026327D01*
X10378705Y-12991327D02*
X10343705Y-13026327D01*
X10428976Y-13168612D02*
X10463976Y-13203612D01*
X10463976Y-13168612D02*
X10428976Y-13203612D01*
X10429836Y-11411504D02*
X10464836Y-11446504D01*
X10464836Y-11411504D02*
X10429836Y-11446504D01*
X10430063Y-13082743D02*
X10465063Y-13117743D01*
X10465063Y-13082743D02*
X10430063Y-13117743D01*
X10484593Y-12150973D02*
X10519593Y-12185973D01*
X10519593Y-12150973D02*
X10484593Y-12185973D01*
X10514755Y-13252596D02*
X10549755Y-13287596D01*
X10549755Y-13252596D02*
X10514755Y-13287596D01*
X10518456Y-13164112D02*
X10553456Y-13199112D01*
X10553456Y-13164112D02*
X10518456Y-13199112D01*
X10624238Y-12014029D02*
X10659238Y-12049029D01*
X10659238Y-12014029D02*
X10624238Y-12049029D01*
X10669430Y-11062693D02*
X10704430Y-11097693D01*
X10704430Y-11062693D02*
X10669430Y-11097693D01*
X10686229Y-12636634D02*
X10721229Y-12671634D01*
X10721229Y-12636634D02*
X10686229Y-12671634D01*
X10703306Y-11311702D02*
X10738306Y-11346702D01*
X10738306Y-11311702D02*
X10703306Y-11346702D01*
X10778787Y-13370874D02*
X10813787Y-13405874D01*
X10813787Y-13370874D02*
X10778787Y-13405874D01*
X10914011Y-12158745D02*
X10949011Y-12193745D01*
X10949011Y-12158745D02*
X10914011Y-12193745D01*
X11114515Y-12293706D02*
X11149515Y-12328706D01*
X11149515Y-12293706D02*
X11114515Y-12328706D01*
X11133100Y-12428500D02*
X11168100Y-12463500D01*
X11168100Y-12428500D02*
X11133100Y-12463500D01*
X11158500Y-12733300D02*
X11193500Y-12768300D01*
X11193500Y-12733300D02*
X11158500Y-12768300D01*
X11793500Y-13470750D02*
X11828500Y-13505750D01*
X11828500Y-13470750D02*
X11793500Y-13505750D01*
X11793500Y-13555700D02*
X11828500Y-13590700D01*
X11828500Y-13555700D02*
X11793500Y-13590700D01*
X11996700Y-12352300D02*
X12031700Y-12387300D01*
X12031700Y-12352300D02*
X11996700Y-12387300D01*
X11996700Y-13647700D02*
X12031700Y-13682700D01*
X12031700Y-13647700D02*
X11996700Y-13682700D01*
X11996700Y-13927100D02*
X12031700Y-13962100D01*
X12031700Y-13927100D02*
X11996700Y-13962100D01*
X12022100Y-12555500D02*
X12057100Y-12590500D01*
X12057100Y-12555500D02*
X12022100Y-12590500D01*
X12072900Y-11641100D02*
X12107900Y-11676100D01*
X12107900Y-11641100D02*
X12072900Y-11676100D01*
X12082169Y-12615569D02*
X12117169Y-12650569D01*
X12117169Y-12615569D02*
X12082169Y-12650569D01*
X12199900Y-13305850D02*
X12234900Y-13340850D01*
X12234900Y-13305850D02*
X12199900Y-13340850D01*
X12292750Y-11691900D02*
X12327750Y-11726900D01*
X12327750Y-11691900D02*
X12292750Y-11726900D01*
X12377700Y-11691900D02*
X12412700Y-11726900D01*
X12412700Y-11691900D02*
X12377700Y-11726900D01*
X12530100Y-12250700D02*
X12565100Y-12285700D01*
X12565100Y-12250700D02*
X12530100Y-12285700D01*
X12599263Y-12051408D02*
X12634263Y-12086408D01*
X12634263Y-12051408D02*
X12599263Y-12086408D01*
X12606300Y-10828300D02*
X12641300Y-10863300D01*
X12641300Y-10828300D02*
X12606300Y-10863300D01*
X12606300Y-11183900D02*
X12641300Y-11218900D01*
X12641300Y-11183900D02*
X12606300Y-11218900D01*
X12606300Y-11514100D02*
X12641300Y-11549100D01*
X12641300Y-11514100D02*
X12606300Y-11549100D01*
X12639803Y-13639698D02*
X12674803Y-13674698D01*
X12674803Y-13639698D02*
X12639803Y-13674698D01*
X12673527Y-12010160D02*
X12708527Y-12045160D01*
X12708527Y-12010160D02*
X12673527Y-12045160D01*
X12687984Y-13208466D02*
X12722984Y-13243466D01*
X12722984Y-13208466D02*
X12687984Y-13243466D01*
X12725784Y-13479250D02*
X12760784Y-13514250D01*
X12760784Y-13479250D02*
X12725784Y-13514250D01*
X12737715Y-11143919D02*
X12772715Y-11178919D01*
X12772715Y-11143919D02*
X12737715Y-11178919D01*
X12741080Y-11231407D02*
X12776080Y-11266407D01*
X12776080Y-11231407D02*
X12741080Y-11266407D01*
X12781096Y-14259666D02*
X12816096Y-14294666D01*
X12816096Y-14259666D02*
X12781096Y-14294666D01*
X12781292Y-11790692D02*
X12816292Y-11825692D01*
X12816292Y-11790692D02*
X12781292Y-11825692D01*
X12834900Y-11514100D02*
X12869900Y-11549100D01*
X12869900Y-11514100D02*
X12834900Y-11549100D01*
X12841374Y-13368047D02*
X12876374Y-13403047D01*
X12876374Y-13368047D02*
X12841374Y-13403047D01*
X12873117Y-13448091D02*
X12908117Y-13483091D01*
X12908117Y-13448091D02*
X12873117Y-13483091D01*
X12983068Y-13200396D02*
X13018068Y-13235396D01*
X13018068Y-13200396D02*
X12983068Y-13235396D01*
X13028555Y-12105110D02*
X13063555Y-12140110D01*
X13063555Y-12105110D02*
X13028555Y-12140110D01*
X13038737Y-12770191D02*
X13073737Y-12805191D01*
X13073737Y-12770191D02*
X13038737Y-12805191D01*
X13071218Y-13408195D02*
X13106218Y-13443195D01*
X13106218Y-13408195D02*
X13071218Y-13443195D01*
X13182517Y-13411332D02*
X13217517Y-13446332D01*
X13217517Y-13411332D02*
X13182517Y-13446332D01*
X13212007Y-12489656D02*
X13247007Y-12524656D01*
X13247007Y-12489656D02*
X13212007Y-12524656D01*
X13241300Y-13952500D02*
X13276300Y-13987500D01*
X13276300Y-13952500D02*
X13241300Y-13987500D01*
X13273396Y-13432705D02*
X13308396Y-13467705D01*
X13308396Y-13432705D02*
X13273396Y-13467705D01*
X13277974Y-12775829D02*
X13312974Y-12810829D01*
X13312974Y-12775829D02*
X13277974Y-12810829D01*
X13283355Y-11489679D02*
X13318355Y-11524679D01*
X13318355Y-11489679D02*
X13283355Y-11524679D01*
X13289704Y-11996700D02*
X13324704Y-12031700D01*
X13324704Y-11996700D02*
X13289704Y-12031700D01*
X13292100Y-9990100D02*
X13327100Y-10025100D01*
X13327100Y-9990100D02*
X13292100Y-10025100D01*
X13293509Y-12439973D02*
X13328509Y-12474973D01*
X13328509Y-12439973D02*
X13293509Y-12474973D01*
X13311346Y-12853950D02*
X13346346Y-12888950D01*
X13346346Y-12853950D02*
X13311346Y-12888950D01*
X13337366Y-13152750D02*
X13372366Y-13187750D01*
X13372366Y-13152750D02*
X13337366Y-13187750D01*
X13349654Y-11929378D02*
X13384654Y-11964378D01*
X13384654Y-11929378D02*
X13349654Y-11964378D01*
X13368300Y-11488700D02*
X13403300Y-11523700D01*
X13403300Y-11488700D02*
X13368300Y-11523700D01*
X13393700Y-11133100D02*
X13428700Y-11168100D01*
X13428700Y-11133100D02*
X13393700Y-11168100D01*
X13428054Y-12911059D02*
X13463054Y-12946059D01*
X13463054Y-12911059D02*
X13428054Y-12946059D01*
X13429399Y-12824932D02*
X13464399Y-12859932D01*
X13464399Y-12824932D02*
X13429399Y-12859932D01*
X13444500Y-11387100D02*
X13479500Y-11422100D01*
X13479500Y-11387100D02*
X13444500Y-11422100D01*
X13444500Y-13876300D02*
X13479500Y-13911300D01*
X13479500Y-13876300D02*
X13444500Y-13911300D01*
X13449616Y-11671100D02*
X13484616Y-11706100D01*
X13484616Y-11671100D02*
X13449616Y-11706100D01*
X13453769Y-11193169D02*
X13488769Y-11228169D01*
X13488769Y-11193169D02*
X13453769Y-11228169D01*
X13511431Y-11731050D02*
X13546431Y-11766050D01*
X13546431Y-11731050D02*
X13511431Y-11766050D01*
X13516806Y-12991871D02*
X13551806Y-13026871D01*
X13551806Y-12991871D02*
X13516806Y-13026871D01*
X13517489Y-12906406D02*
X13552489Y-12941406D01*
X13552489Y-12906406D02*
X13517489Y-12941406D01*
X13538500Y-10183500D02*
X13573500Y-10218500D01*
X13573500Y-10183500D02*
X13538500Y-10218500D01*
X13540546Y-10268426D02*
X13575546Y-10303426D01*
X13575546Y-10268426D02*
X13540546Y-10303426D01*
X13571428Y-12374234D02*
X13606428Y-12409234D01*
X13606428Y-12374234D02*
X13571428Y-12409234D01*
X13571500Y-11793500D02*
X13606500Y-11828500D01*
X13606500Y-11793500D02*
X13571500Y-11828500D01*
X13577787Y-10345233D02*
X13612787Y-10380233D01*
X13612787Y-10345233D02*
X13577787Y-10380233D01*
X13581399Y-12231483D02*
X13616399Y-12266483D01*
X13616399Y-12231483D02*
X13581399Y-12266483D01*
X13673143Y-12935264D02*
X13708143Y-12970264D01*
X13708143Y-12935264D02*
X13673143Y-12970264D01*
X13685301Y-11728500D02*
X13720301Y-11763500D01*
X13720301Y-11728500D02*
X13685301Y-11763500D01*
X13707235Y-14079990D02*
X13742235Y-14114990D01*
X13742235Y-14079990D02*
X13707235Y-14114990D01*
X13710838Y-13260766D02*
X13745838Y-13295766D01*
X13745838Y-13260766D02*
X13710838Y-13295766D01*
X13712491Y-13028950D02*
X13747491Y-13063950D01*
X13747491Y-13028950D02*
X13712491Y-13063950D01*
X13734098Y-13999399D02*
X13769098Y-14034399D01*
X13769098Y-13999399D02*
X13734098Y-14034399D01*
X13770050Y-10352500D02*
X13805050Y-10387500D01*
X13805050Y-10352500D02*
X13770050Y-10387500D01*
X13774700Y-13088900D02*
X13809700Y-13123900D01*
X13809700Y-13088900D02*
X13774700Y-13123900D01*
X13793550Y-10015000D02*
X13828550Y-10050000D01*
X13828550Y-10015000D02*
X13793550Y-10050000D01*
X13849622Y-13585008D02*
X13884622Y-13620008D01*
X13884622Y-13585008D02*
X13849622Y-13620008D01*
X13850018Y-13252593D02*
X13885018Y-13287593D01*
X13885018Y-13252593D02*
X13850018Y-13287593D01*
X13850900Y-13469900D02*
X13885900Y-13504900D01*
X13885900Y-13469900D02*
X13850900Y-13504900D01*
X13855000Y-10352500D02*
X13890000Y-10387500D01*
X13890000Y-10352500D02*
X13855000Y-10387500D01*
X13859873Y-13085678D02*
X13894873Y-13120678D01*
X13894873Y-13085678D02*
X13859873Y-13120678D01*
X13901700Y-11336300D02*
X13936700Y-11371300D01*
X13936700Y-11336300D02*
X13901700Y-11371300D01*
X13915040Y-11682879D02*
X13950040Y-11717879D01*
X13950040Y-11682879D02*
X13915040Y-11717879D01*
X13923027Y-12539559D02*
X13958027Y-12574559D01*
X13958027Y-12539559D02*
X13923027Y-12574559D01*
X13926360Y-13025728D02*
X13961360Y-13060728D01*
X13961360Y-13025728D02*
X13926360Y-13060728D01*
X13931500Y-10416500D02*
X13966500Y-10451500D01*
X13966500Y-10416500D02*
X13931500Y-10451500D01*
X13935018Y-11780014D02*
X13970018Y-11815014D01*
X13970018Y-11780014D02*
X13935018Y-11815014D01*
X14003031Y-11666216D02*
X14038031Y-11701216D01*
X14038031Y-11666216D02*
X14003031Y-11701216D01*
X14006500Y-10342500D02*
X14041500Y-10377500D01*
X14041500Y-10342500D02*
X14006500Y-10377500D01*
X14014154Y-12961010D02*
X14049154Y-12996010D01*
X14049154Y-12961010D02*
X14014154Y-12996010D01*
X14016598Y-12844988D02*
X14051598Y-12879988D01*
X14051598Y-12844988D02*
X14016598Y-12879988D01*
X14048001Y-12492879D02*
X14083001Y-12527879D01*
X14083001Y-12492879D02*
X14048001Y-12527879D01*
X14057285Y-11786166D02*
X14092285Y-11821166D01*
X14092285Y-11786166D02*
X14057285Y-11821166D01*
X14068450Y-10278072D02*
X14103450Y-10313072D01*
X14103450Y-10278072D02*
X14068450Y-10313072D01*
X14086048Y-12898617D02*
X14121048Y-12933617D01*
X14121048Y-12898617D02*
X14086048Y-12933617D01*
X14097504Y-10193475D02*
X14132504Y-10228475D01*
X14132504Y-10193475D02*
X14097504Y-10228475D01*
X14122918Y-11732231D02*
X14157918Y-11767231D01*
X14157918Y-11732231D02*
X14122918Y-11767231D01*
X14213055Y-12963674D02*
X14248055Y-12998674D01*
X14248055Y-12963674D02*
X14213055Y-12998674D01*
X14213649Y-13335615D02*
X14248649Y-13370615D01*
X14248649Y-13335615D02*
X14213649Y-13370615D01*
X14257300Y-10066300D02*
X14292300Y-10101300D01*
X14292300Y-10066300D02*
X14257300Y-10101300D01*
X14279530Y-11942730D02*
X14314530Y-11977730D01*
X14314530Y-11942730D02*
X14279530Y-11977730D01*
X14304610Y-11476903D02*
X14339610Y-11511903D01*
X14339610Y-11476903D02*
X14304610Y-11511903D01*
X14332545Y-12367904D02*
X14367545Y-12402904D01*
X14367545Y-12367904D02*
X14332545Y-12402904D01*
X14333500Y-12809500D02*
X14368500Y-12844500D01*
X14368500Y-12809500D02*
X14333500Y-12844500D01*
X14342500Y-10237500D02*
X14377500Y-10272500D01*
X14377500Y-10237500D02*
X14342500Y-10272500D01*
X14495292Y-11336300D02*
X14530292Y-11371300D01*
X14530292Y-11336300D02*
X14495292Y-11371300D01*
X14511300Y-12758700D02*
X14546300Y-12793700D01*
X14546300Y-12758700D02*
X14511300Y-12793700D01*
X14534616Y-11419146D02*
X14569616Y-11454146D01*
X14569616Y-11419146D02*
X14534616Y-11454146D01*
X14562913Y-11276350D02*
X14597913Y-11311350D01*
X14597913Y-11276350D02*
X14562913Y-11311350D01*
X14565015Y-12108580D02*
X14600015Y-12143580D01*
X14600015Y-12108580D02*
X14565015Y-12143580D01*
X14612900Y-12530100D02*
X14647900Y-12565100D01*
X14647900Y-12530100D02*
X14612900Y-12565100D01*
X14618007Y-11476853D02*
X14653007Y-11511853D01*
X14653007Y-11476853D02*
X14618007Y-11511853D01*
X14619550Y-12428500D02*
X14654550Y-12463500D01*
X14654550Y-12428500D02*
X14619550Y-12463500D01*
X14702388Y-11703804D02*
X14737388Y-11738804D01*
X14737388Y-11703804D02*
X14702388Y-11738804D01*
X14714500Y-12123700D02*
X14749500Y-12158700D01*
X14749500Y-12123700D02*
X14714500Y-12158700D01*
X14741000Y-14575700D02*
X14776000Y-14610700D01*
X14776000Y-14575700D02*
X14741000Y-14610700D01*
X14774450Y-12784100D02*
X14809450Y-12819100D01*
X14809450Y-12784100D02*
X14774450Y-12819100D01*
X14774450Y-12869050D02*
X14809450Y-12904050D01*
X14809450Y-12869050D02*
X14774450Y-12904050D01*
X14774450Y-12956944D02*
X14809450Y-12991944D01*
X14809450Y-12956944D02*
X14774450Y-12991944D01*
X14774450Y-13177306D02*
X14809450Y-13212306D01*
X14809450Y-13177306D02*
X14774450Y-13212306D01*
X14793424Y-11710058D02*
X14828424Y-11745058D01*
X14828424Y-11710058D02*
X14793424Y-11745058D01*
X14866900Y-10701300D02*
X14901900Y-10736300D01*
X14901900Y-10701300D02*
X14866900Y-10736300D01*
X14868000Y-14829700D02*
X14903000Y-14864700D01*
X14903000Y-14829700D02*
X14868000Y-14864700D01*
X14869823Y-11747202D02*
X14904823Y-11782202D01*
X14904823Y-11747202D02*
X14869823Y-11782202D01*
X14911898Y-11671986D02*
X14946898Y-11706986D01*
X14946898Y-11671986D02*
X14911898Y-11706986D01*
X14917700Y-14188849D02*
X14952700Y-14223849D01*
X14952700Y-14188849D02*
X14917700Y-14223849D01*
X14920912Y-11587515D02*
X14955912Y-11622515D01*
X14955912Y-11587515D02*
X14920912Y-11622515D01*
X14930615Y-13148915D02*
X14965615Y-13183915D01*
X14965615Y-13148915D02*
X14930615Y-13183915D01*
X14993900Y-10396500D02*
X15028900Y-10431500D01*
X15028900Y-10396500D02*
X14993900Y-10431500D01*
X14995000Y-13559700D02*
X15030000Y-13594700D01*
X15030000Y-13559700D02*
X14995000Y-13594700D01*
X14999400Y-12428500D02*
X15034400Y-12463500D01*
X15034400Y-12428500D02*
X14999400Y-12463500D01*
X15044700Y-11107700D02*
X15079700Y-11142700D01*
X15079700Y-11107700D02*
X15044700Y-11142700D01*
X15044700Y-12504700D02*
X15079700Y-12539700D01*
X15079700Y-12504700D02*
X15044700Y-12539700D01*
X15113355Y-12997721D02*
X15148355Y-13032721D01*
X15148355Y-12997721D02*
X15113355Y-13032721D01*
X15120900Y-11260100D02*
X15155900Y-11295100D01*
X15155900Y-11260100D02*
X15120900Y-11295100D01*
X15122000Y-14880500D02*
X15157000Y-14915500D01*
X15157000Y-14880500D02*
X15122000Y-14915500D01*
X15140948Y-13221252D02*
X15175948Y-13256252D01*
X15175948Y-13221252D02*
X15140948Y-13256252D01*
X15161350Y-12105093D02*
X15196350Y-12140093D01*
X15196350Y-12105093D02*
X15161350Y-12140093D01*
X15197100Y-10421900D02*
X15232100Y-10456900D01*
X15232100Y-10421900D02*
X15197100Y-10456900D01*
X15226808Y-11472144D02*
X15261808Y-11507144D01*
X15261808Y-11472144D02*
X15226808Y-11507144D01*
X15273300Y-10777500D02*
X15308300Y-10812500D01*
X15308300Y-10777500D02*
X15273300Y-10812500D01*
X15321366Y-11341885D02*
X15356366Y-11376885D01*
X15356366Y-11341885D02*
X15321366Y-11376885D01*
X15374900Y-10421900D02*
X15409900Y-10456900D01*
X15409900Y-10421900D02*
X15374900Y-10456900D01*
X15552700Y-14917700D02*
X15587700Y-14952700D01*
X15587700Y-14917700D02*
X15552700Y-14952700D01*
X15628267Y-11461556D02*
X15663267Y-11496556D01*
X15663267Y-11461556D02*
X15628267Y-11496556D01*
X15654300Y-10980700D02*
X15689300Y-11015700D01*
X15689300Y-10980700D02*
X15654300Y-11015700D01*
X15654300Y-14638300D02*
X15689300Y-14673300D01*
X15689300Y-14638300D02*
X15654300Y-14673300D01*
X15755900Y-12936500D02*
X15790900Y-12971500D01*
X15790900Y-12936500D02*
X15755900Y-12971500D01*
X15957599Y-13173837D02*
X15992599Y-13208837D01*
X15992599Y-13173837D02*
X15957599Y-13208837D01*
X15959100Y-13088900D02*
X15994100Y-13123900D01*
X15994100Y-13088900D02*
X15959100Y-13123900D01*
X16069671Y-10783711D02*
X16104671Y-10818711D01*
X16104671Y-10783711D02*
X16069671Y-10818711D01*
X16081370Y-12928766D02*
X16116370Y-12963766D01*
X16116370Y-12928766D02*
X16081370Y-12963766D01*
X16220122Y-13023950D02*
X16255122Y-13058950D01*
X16255122Y-13023950D02*
X16220122Y-13058950D01*
X16289300Y-11717300D02*
X16324300Y-11752300D01*
X16324300Y-11717300D02*
X16289300Y-11752300D01*
X16468200Y-15058300D02*
X16503200Y-15093300D01*
X16503200Y-15058300D02*
X16468200Y-15093300D01*
X16493135Y-13401623D02*
X16528135Y-13436623D01*
X16528135Y-13401623D02*
X16493135Y-13436623D01*
X16519000Y-14169300D02*
X16554000Y-14204300D01*
X16554000Y-14169300D02*
X16519000Y-14204300D01*
X16538366Y-13173359D02*
X16573366Y-13208359D01*
X16573366Y-13173359D02*
X16538366Y-13208359D01*
X16569800Y-14499500D02*
X16604800Y-14534500D01*
X16604800Y-14499500D02*
X16569800Y-14534500D01*
X16569800Y-14905900D02*
X16604800Y-14940900D01*
X16604800Y-14905900D02*
X16569800Y-14940900D01*
X16722200Y-14474100D02*
X16757200Y-14509100D01*
X16757200Y-14474100D02*
X16722200Y-14509100D01*
X16771900Y-13571500D02*
X16806900Y-13606500D01*
X16806900Y-13571500D02*
X16771900Y-13606500D01*
X16773000Y-14245500D02*
X16808000Y-14280500D01*
X16808000Y-14245500D02*
X16773000Y-14280500D01*
X16849200Y-14905900D02*
X16884200Y-14940900D01*
X16884200Y-14905900D02*
X16849200Y-14940900D01*
X16873500Y-13317500D02*
X16908500Y-13352500D01*
X16908500Y-13317500D02*
X16873500Y-13352500D01*
X17076700Y-13317500D02*
X17111700Y-13352500D01*
X17111700Y-13317500D02*
X17076700Y-13352500D01*
X17229100Y-13165100D02*
X17264100Y-13200100D01*
X17264100Y-13165100D02*
X17229100Y-13200100D01*
X17237350Y-13080551D02*
X17272350Y-13115551D01*
X17272350Y-13080551D02*
X17237350Y-13115551D01*
D12*
X11983400Y-10596750D02*
G75*
G03*
X11983400Y-10596750I-20000J0D01*
G01*
X11983400Y-10945650D02*
G75*
G03*
X11983400Y-10945650I-20000J0D01*
G01*
X11983400Y-11287000D02*
G75*
G03*
X11983400Y-11287000I-20000J0D01*
G01*
X12262800Y-12395200D02*
G75*
G03*
X12262800Y-12395200I-20000J0D01*
G01*
X12611044Y-10348574D02*
G75*
G03*
X12611044Y-10348574I-20000J0D01*
G01*
X12696622Y-11709950D02*
G75*
G03*
X12696622Y-11709950I-20000J0D01*
G01*
X12730728Y-12366645D02*
G75*
G03*
X12730728Y-12366645I-20000J0D01*
G01*
X12818855Y-10534394D02*
G75*
G03*
X12818855Y-10534394I-20000J0D01*
G01*
X12895162Y-10448635D02*
G75*
G03*
X12895162Y-10448635I-20000J0D01*
G01*
X13545000Y-10095000D02*
G75*
G03*
X13545000Y-10095000I-20000J0D01*
G01*
X13623029Y-12105759D02*
G75*
G03*
X13623029Y-12105759I-20000J0D01*
G01*
X13715158Y-10366703D02*
G75*
G03*
X13715158Y-10366703I-20000J0D01*
G01*
X13990000Y-10591800D02*
G75*
G03*
X13990000Y-10591800I-20000J0D01*
G01*
X14066200Y-11353800D02*
G75*
G03*
X14066200Y-11353800I-20000J0D01*
G01*
X14167800Y-11404600D02*
G75*
G03*
X14167800Y-11404600I-20000J0D01*
G01*
X14180000Y-10115000D02*
G75*
G03*
X14180000Y-10115000I-20000J0D01*
G01*
X15361600Y-11658600D02*
G75*
G03*
X15361600Y-11658600I-20000J0D01*
G01*
X15768000Y-12471400D02*
G75*
G03*
X15768000Y-12471400I-20000J0D01*
G01*
X15848906Y-14054376D02*
G75*
G03*
X15848906Y-14054376I-20000J0D01*
G01*
X15945800Y-12242800D02*
G75*
G03*
X15945800Y-12242800I-20000J0D01*
G01*
X15996600Y-14147800D02*
G75*
G03*
X15996600Y-14147800I-20000J0D01*
G01*
X16024641Y-12502296D02*
G75*
G03*
X16024641Y-12502296I-20000J0D01*
G01*
X16256820Y-12502296D02*
G75*
G03*
X16256820Y-12502296I-20000J0D01*
G01*
X13566000Y-9742500D02*
X13566000Y-9782500D01*
X13546000Y-9762500D02*
X13586000Y-9762500D01*
X13606000Y-9672500D02*
X13606000Y-9712500D01*
X13586000Y-9692500D02*
X13626000Y-9692500D01*
X13686000Y-9672500D02*
X13686000Y-9712500D01*
X13666000Y-9692500D02*
X13706000Y-9692500D01*
X13726000Y-9742500D02*
X13726000Y-9782500D01*
X13706000Y-9762500D02*
X13746000Y-9762500D01*
X13766000Y-9672500D02*
X13766000Y-9712500D01*
X13746000Y-9692500D02*
X13786000Y-9692500D01*
X13806000Y-9742500D02*
X13806000Y-9782500D01*
X13786000Y-9762500D02*
X13826000Y-9762500D01*
X13886000Y-9742500D02*
X13886000Y-9782500D01*
X13866000Y-9762500D02*
X13906000Y-9762500D01*
X13926000Y-9672500D02*
X13926000Y-9712500D01*
X13906000Y-9692500D02*
X13946000Y-9692500D01*
X13966000Y-9742500D02*
X13966000Y-9782500D01*
X13946000Y-9762500D02*
X13986000Y-9762500D01*
X14006000Y-9672500D02*
X14006000Y-9712500D01*
X13986000Y-9692500D02*
X14026000Y-9692500D01*
X14086000Y-9672500D02*
X14086000Y-9712500D01*
X14066000Y-9692500D02*
X14106000Y-9692500D01*
X14126000Y-9742500D02*
X14126000Y-9782500D01*
X14106000Y-9762500D02*
X14146000Y-9762500D01*
D13*
X13414678Y-9281178D02*
X13414678Y-9245822D01*
X13379322Y-9245822D01*
X13379322Y-9281178D01*
X13414678Y-9281178D01*
D10*
X13422000Y-9293500D02*
X13422000Y-9233500D01*
X13422000Y-9233500D02*
G75*
G03*
X13372000Y-9233500I-25000J0D01*
G01*
X13372000Y-9233500D02*
X13372000Y-9293500D01*
X13372000Y-9293500D02*
G75*
G03*
X13422000Y-9293500I25000J0D01*
G01*
D13*
X13450678Y-9720178D02*
X13450678Y-9684822D01*
X13415322Y-9684822D01*
X13415322Y-9720178D01*
X13450678Y-9720178D01*
D10*
X13458000Y-9732500D02*
X13458000Y-9672500D01*
X13458000Y-9672500D02*
G75*
G03*
X13408000Y-9672500I-25000J0D01*
G01*
X13408000Y-9672500D02*
X13408000Y-9732500D01*
X13408000Y-9732500D02*
G75*
G03*
X13458000Y-9732500I25000J0D01*
G01*
D13*
X14276678Y-9720178D02*
X14276678Y-9684822D01*
X14241322Y-9684822D01*
X14241322Y-9720178D01*
X14276678Y-9720178D01*
D10*
X14284000Y-9732500D02*
X14284000Y-9672500D01*
X14284000Y-9672500D02*
G75*
G03*
X14234000Y-9672500I-25000J0D01*
G01*
X14234000Y-9672500D02*
X14234000Y-9732500D01*
X14234000Y-9732500D02*
G75*
G03*
X14284000Y-9732500I25000J0D01*
G01*
D13*
X14312678Y-9281178D02*
X14312678Y-9245822D01*
X14277322Y-9245822D01*
X14277322Y-9281178D01*
X14312678Y-9281178D01*
D10*
X14320000Y-9293500D02*
X14320000Y-9233500D01*
X14320000Y-9233500D02*
G75*
G03*
X14270000Y-9233500I-25000J0D01*
G01*
X14270000Y-9233500D02*
X14270000Y-9293500D01*
X14270000Y-9293500D02*
G75*
G03*
X14320000Y-9293500I25000J0D01*
G01*
D14*
X12092000Y-10073000D02*
X12132000Y-10033000D01*
X12092000Y-9993000D01*
X12052000Y-10033000D01*
X12092000Y-10073000D01*
X12292000Y-10073000D02*
X12332000Y-10033000D01*
X12292000Y-9993000D01*
X12252000Y-10033000D01*
X12292000Y-10073000D01*
D15*
X11494342Y-12303271D02*
X11584342Y-12393271D01*
X11584342Y-12303271D02*
X11494342Y-12393271D01*
X11584342Y-12348271D02*
G75*
G03*
X11584342Y-12348271I-45000J0D01*
G01*
X11494987Y-12557478D02*
X11584987Y-12647478D01*
X11584987Y-12557478D02*
X11494987Y-12647478D01*
X11584987Y-12602478D02*
G75*
G03*
X11584987Y-12602478I-45000J0D01*
G01*
X8577700Y-11473260D02*
X8667700Y-11563260D01*
X8667700Y-11473260D02*
X8577700Y-11563260D01*
X8622700Y-11473260D02*
X8622700Y-11563260D01*
X8577700Y-11518260D02*
X8667700Y-11518260D01*
X8577700Y-12123260D02*
X8667700Y-12213260D01*
X8667700Y-12123260D02*
X8577700Y-12213260D01*
X8622700Y-12123260D02*
X8622700Y-12213260D01*
X8577700Y-12168260D02*
X8667700Y-12168260D01*
X9027700Y-11473260D02*
X9117700Y-11563260D01*
X9117700Y-11473260D02*
X9027700Y-11563260D01*
X9072700Y-11473260D02*
X9072700Y-11563260D01*
X9027700Y-11518260D02*
X9117700Y-11518260D01*
X9027700Y-12123260D02*
X9117700Y-12213260D01*
X9117700Y-12123260D02*
X9027700Y-12213260D01*
X9072700Y-12123260D02*
X9072700Y-12213260D01*
X9027700Y-12168260D02*
X9117700Y-12168260D01*
X14772020Y-13632200D02*
X14862020Y-13722200D01*
X14862020Y-13632200D02*
X14772020Y-13722200D01*
X14817020Y-13632200D02*
X14817020Y-13722200D01*
X14772020Y-13677200D02*
X14862020Y-13677200D01*
X14772020Y-14282200D02*
X14862020Y-14372200D01*
X14862020Y-14282200D02*
X14772020Y-14372200D01*
X14817020Y-14282200D02*
X14817020Y-14372200D01*
X14772020Y-14327200D02*
X14862020Y-14327200D01*
X15222020Y-13632200D02*
X15312020Y-13722200D01*
X15312020Y-13632200D02*
X15222020Y-13722200D01*
X15267020Y-13632200D02*
X15267020Y-13722200D01*
X15222020Y-13677200D02*
X15312020Y-13677200D01*
X15222020Y-14282200D02*
X15312020Y-14372200D01*
X15312020Y-14282200D02*
X15222020Y-14372200D01*
X15267020Y-14282200D02*
X15267020Y-14372200D01*
X15222020Y-14327200D02*
X15312020Y-14327200D01*
D16*
X17248360Y-14530417D02*
X17348360Y-14630417D01*
X17348360Y-14530417D02*
X17248360Y-14630417D01*
X17333715Y-14615773D02*
X17333715Y-14545062D01*
X17263004Y-14545062D01*
X17263004Y-14615773D01*
X17333715Y-14615773D01*
D17*
X11485000Y-11040000D02*
X11595000Y-11150000D01*
X11595000Y-11040000D02*
X11485000Y-11150000D01*
X11540000Y-11150000D02*
X11595000Y-11095000D01*
X11540000Y-11040000D01*
X11485000Y-11095000D01*
X11540000Y-11150000D01*
X11485000Y-11240000D02*
X11595000Y-11350000D01*
X11595000Y-11240000D02*
X11485000Y-11350000D01*
X11540000Y-11350000D02*
X11595000Y-11295000D01*
X11540000Y-11240000D01*
X11485000Y-11295000D01*
X11540000Y-11350000D01*
X11485000Y-11440000D02*
X11595000Y-11550000D01*
X11595000Y-11440000D02*
X11485000Y-11550000D01*
X11540000Y-11550000D02*
X11595000Y-11495000D01*
X11540000Y-11440000D01*
X11485000Y-11495000D01*
X11540000Y-11550000D01*
X11485000Y-11640000D02*
X11595000Y-11750000D01*
X11595000Y-11640000D02*
X11485000Y-11750000D01*
X11540000Y-11750000D02*
X11595000Y-11695000D01*
X11540000Y-11640000D01*
X11485000Y-11695000D01*
X11540000Y-11750000D01*
X11485000Y-11840000D02*
X11595000Y-11950000D01*
X11595000Y-11840000D02*
X11485000Y-11950000D01*
X11540000Y-11950000D02*
X11595000Y-11895000D01*
X11540000Y-11840000D01*
X11485000Y-11895000D01*
X11540000Y-11950000D01*
X11485000Y-12040000D02*
X11595000Y-12150000D01*
X11595000Y-12040000D02*
X11485000Y-12150000D01*
X11540000Y-12150000D02*
X11595000Y-12095000D01*
X11540000Y-12040000D01*
X11485000Y-12095000D01*
X11540000Y-12150000D01*
D18*
X8467500Y-13952500D02*
X8467500Y-14072500D01*
X8407500Y-14012500D02*
X8527500Y-14012500D01*
X8527500Y-14012500D02*
G75*
G03*
X8527500Y-14012500I-60000J0D01*
G01*
X8917500Y-13952500D02*
X8917500Y-14072500D01*
X8857500Y-14012500D02*
X8977500Y-14012500D01*
X8977500Y-14012500D02*
G75*
G03*
X8977500Y-14012500I-60000J0D01*
G01*
X9137700Y-11150760D02*
X9137700Y-11270760D01*
X9077700Y-11210760D02*
X9197700Y-11210760D01*
X9197700Y-11210760D02*
G75*
G03*
X9197700Y-11210760I-60000J0D01*
G01*
X9137700Y-12415760D02*
X9137700Y-12535760D01*
X9077700Y-12475760D02*
X9197700Y-12475760D01*
X9197700Y-12475760D02*
G75*
G03*
X9197700Y-12475760I-60000J0D01*
G01*
X10137700Y-11150760D02*
X10137700Y-11270760D01*
X10077700Y-11210760D02*
X10197700Y-11210760D01*
X10197700Y-11210760D02*
G75*
G03*
X10197700Y-11210760I-60000J0D01*
G01*
X10137700Y-12415760D02*
X10137700Y-12535760D01*
X10077700Y-12475760D02*
X10197700Y-12475760D01*
X10197700Y-12475760D02*
G75*
G03*
X10197700Y-12475760I-60000J0D01*
G01*
X15332020Y-13309700D02*
X15332020Y-13429700D01*
X15272020Y-13369700D02*
X15392020Y-13369700D01*
X15392020Y-13369700D02*
G75*
G03*
X15392020Y-13369700I-60000J0D01*
G01*
X15332020Y-14574700D02*
X15332020Y-14694700D01*
X15272020Y-14634700D02*
X15392020Y-14634700D01*
X15392020Y-14634700D02*
G75*
G03*
X15392020Y-14634700I-60000J0D01*
G01*
X16332020Y-13309700D02*
X16332020Y-13429700D01*
X16272020Y-13369700D02*
X16392020Y-13369700D01*
X16392020Y-13369700D02*
G75*
G03*
X16392020Y-13369700I-60000J0D01*
G01*
X16332020Y-14574700D02*
X16332020Y-14694700D01*
X16272020Y-14634700D02*
X16392020Y-14634700D01*
X16392020Y-14634700D02*
G75*
G03*
X16392020Y-14634700I-60000J0D01*
G01*
X17867500Y-14430650D02*
X17867500Y-14550650D01*
X17807500Y-14490650D02*
X17927500Y-14490650D01*
X17927500Y-14490650D02*
G75*
G03*
X17927500Y-14490650I-60000J0D01*
G01*
X18317500Y-14430650D02*
X18317500Y-14550650D01*
X18257500Y-14490650D02*
X18377500Y-14490650D01*
X18377500Y-14490650D02*
G75*
G03*
X18377500Y-14490650I-60000J0D01*
G01*
D10*
X8298742Y-15483959D02*
X8298742Y-15283959D01*
X8298742Y-15283959D02*
X8346361Y-15283959D01*
X8346361Y-15283959D02*
X8374932Y-15293483D01*
X8374932Y-15293483D02*
X8393980Y-15312531D01*
X8393980Y-15312531D02*
X8403504Y-15331578D01*
X8403504Y-15331578D02*
X8413027Y-15369674D01*
X8413027Y-15369674D02*
X8413027Y-15398245D01*
X8413027Y-15398245D02*
X8403504Y-15436340D01*
X8403504Y-15436340D02*
X8393980Y-15455388D01*
X8393980Y-15455388D02*
X8374932Y-15474436D01*
X8374932Y-15474436D02*
X8346361Y-15483959D01*
X8346361Y-15483959D02*
X8298742Y-15483959D01*
X8498742Y-15483959D02*
X8498742Y-15350626D01*
X8498742Y-15388721D02*
X8508265Y-15369674D01*
X8508265Y-15369674D02*
X8517789Y-15360150D01*
X8517789Y-15360150D02*
X8536837Y-15350626D01*
X8536837Y-15350626D02*
X8555885Y-15350626D01*
X8622551Y-15483959D02*
X8622551Y-15350626D01*
X8622551Y-15283959D02*
X8613027Y-15293483D01*
X8613027Y-15293483D02*
X8622551Y-15303007D01*
X8622551Y-15303007D02*
X8632075Y-15293483D01*
X8632075Y-15293483D02*
X8622551Y-15283959D01*
X8622551Y-15283959D02*
X8622551Y-15303007D01*
X8746361Y-15483959D02*
X8727313Y-15474436D01*
X8727313Y-15474436D02*
X8717789Y-15455388D01*
X8717789Y-15455388D02*
X8717789Y-15283959D01*
X8851123Y-15483959D02*
X8832075Y-15474436D01*
X8832075Y-15474436D02*
X8822551Y-15455388D01*
X8822551Y-15455388D02*
X8822551Y-15283959D01*
X9079694Y-15483959D02*
X9079694Y-15283959D01*
X9079694Y-15283959D02*
X9146361Y-15426817D01*
X9146361Y-15426817D02*
X9213027Y-15283959D01*
X9213027Y-15283959D02*
X9213027Y-15483959D01*
X9393980Y-15483959D02*
X9393980Y-15379198D01*
X9393980Y-15379198D02*
X9384456Y-15360150D01*
X9384456Y-15360150D02*
X9365408Y-15350626D01*
X9365408Y-15350626D02*
X9327313Y-15350626D01*
X9327313Y-15350626D02*
X9308265Y-15360150D01*
X9393980Y-15474436D02*
X9374932Y-15483959D01*
X9374932Y-15483959D02*
X9327313Y-15483959D01*
X9327313Y-15483959D02*
X9308265Y-15474436D01*
X9308265Y-15474436D02*
X9298742Y-15455388D01*
X9298742Y-15455388D02*
X9298742Y-15436340D01*
X9298742Y-15436340D02*
X9308265Y-15417293D01*
X9308265Y-15417293D02*
X9327313Y-15407769D01*
X9327313Y-15407769D02*
X9374932Y-15407769D01*
X9374932Y-15407769D02*
X9393980Y-15398245D01*
X9489218Y-15350626D02*
X9489218Y-15550626D01*
X9489218Y-15360150D02*
X9508265Y-15350626D01*
X9508265Y-15350626D02*
X9546361Y-15350626D01*
X9546361Y-15350626D02*
X9565408Y-15360150D01*
X9565408Y-15360150D02*
X9574932Y-15369674D01*
X9574932Y-15369674D02*
X9584456Y-15388721D01*
X9584456Y-15388721D02*
X9584456Y-15445864D01*
X9584456Y-15445864D02*
X9574932Y-15464912D01*
X9574932Y-15464912D02*
X9565408Y-15474436D01*
X9565408Y-15474436D02*
X9546361Y-15483959D01*
X9546361Y-15483959D02*
X9508265Y-15483959D01*
X9508265Y-15483959D02*
X9489218Y-15474436D01*
X9670170Y-15464912D02*
X9679694Y-15474436D01*
X9679694Y-15474436D02*
X9670170Y-15483959D01*
X9670170Y-15483959D02*
X9660646Y-15474436D01*
X9660646Y-15474436D02*
X9670170Y-15464912D01*
X9670170Y-15464912D02*
X9670170Y-15483959D01*
X9670170Y-15360150D02*
X9679694Y-15369674D01*
X9679694Y-15369674D02*
X9670170Y-15379198D01*
X9670170Y-15379198D02*
X9660646Y-15369674D01*
X9660646Y-15369674D02*
X9670170Y-15360150D01*
X9670170Y-15360150D02*
X9670170Y-15379198D01*
D11*
X8016123Y-15793936D02*
X8051123Y-15828936D01*
X8051123Y-15793936D02*
X8016123Y-15828936D01*
D10*
X8336837Y-15703959D02*
X8355884Y-15703959D01*
X8355884Y-15703959D02*
X8374932Y-15713483D01*
X8374932Y-15713483D02*
X8384456Y-15723007D01*
X8384456Y-15723007D02*
X8393980Y-15742055D01*
X8393980Y-15742055D02*
X8403504Y-15780150D01*
X8403504Y-15780150D02*
X8403504Y-15827769D01*
X8403504Y-15827769D02*
X8393980Y-15865864D01*
X8393980Y-15865864D02*
X8384456Y-15884912D01*
X8384456Y-15884912D02*
X8374932Y-15894436D01*
X8374932Y-15894436D02*
X8355884Y-15903959D01*
X8355884Y-15903959D02*
X8336837Y-15903959D01*
X8336837Y-15903959D02*
X8317789Y-15894436D01*
X8317789Y-15894436D02*
X8308265Y-15884912D01*
X8308265Y-15884912D02*
X8298742Y-15865864D01*
X8298742Y-15865864D02*
X8289218Y-15827769D01*
X8289218Y-15827769D02*
X8289218Y-15780150D01*
X8289218Y-15780150D02*
X8298742Y-15742055D01*
X8298742Y-15742055D02*
X8308265Y-15723007D01*
X8308265Y-15723007D02*
X8317789Y-15713483D01*
X8317789Y-15713483D02*
X8336837Y-15703959D01*
X8489218Y-15884912D02*
X8498742Y-15894436D01*
X8498742Y-15894436D02*
X8489218Y-15903959D01*
X8489218Y-15903959D02*
X8479694Y-15894436D01*
X8479694Y-15894436D02*
X8489218Y-15884912D01*
X8489218Y-15884912D02*
X8489218Y-15903959D01*
X8565408Y-15703959D02*
X8689218Y-15703959D01*
X8689218Y-15703959D02*
X8622551Y-15780150D01*
X8622551Y-15780150D02*
X8651123Y-15780150D01*
X8651123Y-15780150D02*
X8670170Y-15789674D01*
X8670170Y-15789674D02*
X8679694Y-15799198D01*
X8679694Y-15799198D02*
X8689218Y-15818245D01*
X8689218Y-15818245D02*
X8689218Y-15865864D01*
X8689218Y-15865864D02*
X8679694Y-15884912D01*
X8679694Y-15884912D02*
X8670170Y-15894436D01*
X8670170Y-15894436D02*
X8651123Y-15903959D01*
X8651123Y-15903959D02*
X8593980Y-15903959D01*
X8593980Y-15903959D02*
X8574932Y-15894436D01*
X8574932Y-15894436D02*
X8565408Y-15884912D01*
X8870170Y-15703959D02*
X8774932Y-15703959D01*
X8774932Y-15703959D02*
X8765408Y-15799198D01*
X8765408Y-15799198D02*
X8774932Y-15789674D01*
X8774932Y-15789674D02*
X8793980Y-15780150D01*
X8793980Y-15780150D02*
X8841599Y-15780150D01*
X8841599Y-15780150D02*
X8860646Y-15789674D01*
X8860646Y-15789674D02*
X8870170Y-15799198D01*
X8870170Y-15799198D02*
X8879694Y-15818245D01*
X8879694Y-15818245D02*
X8879694Y-15865864D01*
X8879694Y-15865864D02*
X8870170Y-15884912D01*
X8870170Y-15884912D02*
X8860646Y-15894436D01*
X8860646Y-15894436D02*
X8841599Y-15903959D01*
X8841599Y-15903959D02*
X8793980Y-15903959D01*
X8793980Y-15903959D02*
X8774932Y-15894436D01*
X8774932Y-15894436D02*
X8765408Y-15884912D01*
X9003504Y-15703959D02*
X9022551Y-15703959D01*
X9022551Y-15703959D02*
X9041599Y-15713483D01*
X9041599Y-15713483D02*
X9051123Y-15723007D01*
X9051123Y-15723007D02*
X9060646Y-15742055D01*
X9060646Y-15742055D02*
X9070170Y-15780150D01*
X9070170Y-15780150D02*
X9070170Y-15827769D01*
X9070170Y-15827769D02*
X9060646Y-15865864D01*
X9060646Y-15865864D02*
X9051123Y-15884912D01*
X9051123Y-15884912D02*
X9041599Y-15894436D01*
X9041599Y-15894436D02*
X9022551Y-15903959D01*
X9022551Y-15903959D02*
X9003504Y-15903959D01*
X9003504Y-15903959D02*
X8984456Y-15894436D01*
X8984456Y-15894436D02*
X8974932Y-15884912D01*
X8974932Y-15884912D02*
X8965408Y-15865864D01*
X8965408Y-15865864D02*
X8955885Y-15827769D01*
X8955885Y-15827769D02*
X8955885Y-15780150D01*
X8955885Y-15780150D02*
X8965408Y-15742055D01*
X8965408Y-15742055D02*
X8974932Y-15723007D01*
X8974932Y-15723007D02*
X8984456Y-15713483D01*
X8984456Y-15713483D02*
X9003504Y-15703959D01*
X9155885Y-15903959D02*
X9155885Y-15770626D01*
X9155885Y-15789674D02*
X9165408Y-15780150D01*
X9165408Y-15780150D02*
X9184456Y-15770626D01*
X9184456Y-15770626D02*
X9213027Y-15770626D01*
X9213027Y-15770626D02*
X9232075Y-15780150D01*
X9232075Y-15780150D02*
X9241599Y-15799198D01*
X9241599Y-15799198D02*
X9241599Y-15903959D01*
X9241599Y-15799198D02*
X9251123Y-15780150D01*
X9251123Y-15780150D02*
X9270170Y-15770626D01*
X9270170Y-15770626D02*
X9298742Y-15770626D01*
X9298742Y-15770626D02*
X9317789Y-15780150D01*
X9317789Y-15780150D02*
X9327313Y-15799198D01*
X9327313Y-15799198D02*
X9327313Y-15903959D01*
X9422551Y-15903959D02*
X9422551Y-15770626D01*
X9422551Y-15789674D02*
X9432075Y-15780150D01*
X9432075Y-15780150D02*
X9451123Y-15770626D01*
X9451123Y-15770626D02*
X9479694Y-15770626D01*
X9479694Y-15770626D02*
X9498742Y-15780150D01*
X9498742Y-15780150D02*
X9508266Y-15799198D01*
X9508266Y-15799198D02*
X9508266Y-15903959D01*
X9508266Y-15799198D02*
X9517789Y-15780150D01*
X9517789Y-15780150D02*
X9536837Y-15770626D01*
X9536837Y-15770626D02*
X9565408Y-15770626D01*
X9565408Y-15770626D02*
X9584456Y-15780150D01*
X9584456Y-15780150D02*
X9593980Y-15799198D01*
X9593980Y-15799198D02*
X9593980Y-15903959D01*
X9984456Y-15694436D02*
X9813028Y-15951578D01*
X10241599Y-15703959D02*
X10260647Y-15703959D01*
X10260647Y-15703959D02*
X10279694Y-15713483D01*
X10279694Y-15713483D02*
X10289218Y-15723007D01*
X10289218Y-15723007D02*
X10298742Y-15742055D01*
X10298742Y-15742055D02*
X10308266Y-15780150D01*
X10308266Y-15780150D02*
X10308266Y-15827769D01*
X10308266Y-15827769D02*
X10298742Y-15865864D01*
X10298742Y-15865864D02*
X10289218Y-15884912D01*
X10289218Y-15884912D02*
X10279694Y-15894436D01*
X10279694Y-15894436D02*
X10260647Y-15903959D01*
X10260647Y-15903959D02*
X10241599Y-15903959D01*
X10241599Y-15903959D02*
X10222551Y-15894436D01*
X10222551Y-15894436D02*
X10213028Y-15884912D01*
X10213028Y-15884912D02*
X10203504Y-15865864D01*
X10203504Y-15865864D02*
X10193980Y-15827769D01*
X10193980Y-15827769D02*
X10193980Y-15780150D01*
X10193980Y-15780150D02*
X10203504Y-15742055D01*
X10203504Y-15742055D02*
X10213028Y-15723007D01*
X10213028Y-15723007D02*
X10222551Y-15713483D01*
X10222551Y-15713483D02*
X10241599Y-15703959D01*
X10393980Y-15884912D02*
X10403504Y-15894436D01*
X10403504Y-15894436D02*
X10393980Y-15903959D01*
X10393980Y-15903959D02*
X10384456Y-15894436D01*
X10384456Y-15894436D02*
X10393980Y-15884912D01*
X10393980Y-15884912D02*
X10393980Y-15903959D01*
X10527313Y-15703959D02*
X10546361Y-15703959D01*
X10546361Y-15703959D02*
X10565409Y-15713483D01*
X10565409Y-15713483D02*
X10574932Y-15723007D01*
X10574932Y-15723007D02*
X10584456Y-15742055D01*
X10584456Y-15742055D02*
X10593980Y-15780150D01*
X10593980Y-15780150D02*
X10593980Y-15827769D01*
X10593980Y-15827769D02*
X10584456Y-15865864D01*
X10584456Y-15865864D02*
X10574932Y-15884912D01*
X10574932Y-15884912D02*
X10565409Y-15894436D01*
X10565409Y-15894436D02*
X10546361Y-15903959D01*
X10546361Y-15903959D02*
X10527313Y-15903959D01*
X10527313Y-15903959D02*
X10508266Y-15894436D01*
X10508266Y-15894436D02*
X10498742Y-15884912D01*
X10498742Y-15884912D02*
X10489218Y-15865864D01*
X10489218Y-15865864D02*
X10479694Y-15827769D01*
X10479694Y-15827769D02*
X10479694Y-15780150D01*
X10479694Y-15780150D02*
X10489218Y-15742055D01*
X10489218Y-15742055D02*
X10498742Y-15723007D01*
X10498742Y-15723007D02*
X10508266Y-15713483D01*
X10508266Y-15713483D02*
X10527313Y-15703959D01*
X10784456Y-15903959D02*
X10670170Y-15903959D01*
X10727313Y-15903959D02*
X10727313Y-15703959D01*
X10727313Y-15703959D02*
X10708266Y-15732531D01*
X10708266Y-15732531D02*
X10689218Y-15751578D01*
X10689218Y-15751578D02*
X10670170Y-15761102D01*
X10851123Y-15703959D02*
X10974932Y-15703959D01*
X10974932Y-15703959D02*
X10908266Y-15780150D01*
X10908266Y-15780150D02*
X10936837Y-15780150D01*
X10936837Y-15780150D02*
X10955885Y-15789674D01*
X10955885Y-15789674D02*
X10965409Y-15799198D01*
X10965409Y-15799198D02*
X10974932Y-15818245D01*
X10974932Y-15818245D02*
X10974932Y-15865864D01*
X10974932Y-15865864D02*
X10965409Y-15884912D01*
X10965409Y-15884912D02*
X10955885Y-15894436D01*
X10955885Y-15894436D02*
X10936837Y-15903959D01*
X10936837Y-15903959D02*
X10879694Y-15903959D01*
X10879694Y-15903959D02*
X10860647Y-15894436D01*
X10860647Y-15894436D02*
X10851123Y-15884912D01*
X11089218Y-15789674D02*
X11070170Y-15780150D01*
X11070170Y-15780150D02*
X11060647Y-15770626D01*
X11060647Y-15770626D02*
X11051123Y-15751578D01*
X11051123Y-15751578D02*
X11051123Y-15742055D01*
X11051123Y-15742055D02*
X11060647Y-15723007D01*
X11060647Y-15723007D02*
X11070170Y-15713483D01*
X11070170Y-15713483D02*
X11089218Y-15703959D01*
X11089218Y-15703959D02*
X11127313Y-15703959D01*
X11127313Y-15703959D02*
X11146361Y-15713483D01*
X11146361Y-15713483D02*
X11155885Y-15723007D01*
X11155885Y-15723007D02*
X11165409Y-15742055D01*
X11165409Y-15742055D02*
X11165409Y-15751578D01*
X11165409Y-15751578D02*
X11155885Y-15770626D01*
X11155885Y-15770626D02*
X11146361Y-15780150D01*
X11146361Y-15780150D02*
X11127313Y-15789674D01*
X11127313Y-15789674D02*
X11089218Y-15789674D01*
X11089218Y-15789674D02*
X11070170Y-15799198D01*
X11070170Y-15799198D02*
X11060647Y-15808721D01*
X11060647Y-15808721D02*
X11051123Y-15827769D01*
X11051123Y-15827769D02*
X11051123Y-15865864D01*
X11051123Y-15865864D02*
X11060647Y-15884912D01*
X11060647Y-15884912D02*
X11070170Y-15894436D01*
X11070170Y-15894436D02*
X11089218Y-15903959D01*
X11089218Y-15903959D02*
X11127313Y-15903959D01*
X11127313Y-15903959D02*
X11146361Y-15894436D01*
X11146361Y-15894436D02*
X11155885Y-15884912D01*
X11155885Y-15884912D02*
X11165409Y-15865864D01*
X11165409Y-15865864D02*
X11165409Y-15827769D01*
X11165409Y-15827769D02*
X11155885Y-15808721D01*
X11155885Y-15808721D02*
X11146361Y-15799198D01*
X11146361Y-15799198D02*
X11127313Y-15789674D01*
X11241599Y-15703959D02*
X11241599Y-15742055D01*
X11317789Y-15703959D02*
X11317789Y-15742055D01*
X11613028Y-15980150D02*
X11603504Y-15970626D01*
X11603504Y-15970626D02*
X11584456Y-15942055D01*
X11584456Y-15942055D02*
X11574932Y-15923007D01*
X11574932Y-15923007D02*
X11565409Y-15894436D01*
X11565409Y-15894436D02*
X11555885Y-15846817D01*
X11555885Y-15846817D02*
X11555885Y-15808721D01*
X11555885Y-15808721D02*
X11565409Y-15761102D01*
X11565409Y-15761102D02*
X11574932Y-15732531D01*
X11574932Y-15732531D02*
X11584456Y-15713483D01*
X11584456Y-15713483D02*
X11603504Y-15684912D01*
X11603504Y-15684912D02*
X11613028Y-15675388D01*
X11679694Y-15723007D02*
X11689218Y-15713483D01*
X11689218Y-15713483D02*
X11708266Y-15703959D01*
X11708266Y-15703959D02*
X11755885Y-15703959D01*
X11755885Y-15703959D02*
X11774932Y-15713483D01*
X11774932Y-15713483D02*
X11784456Y-15723007D01*
X11784456Y-15723007D02*
X11793980Y-15742055D01*
X11793980Y-15742055D02*
X11793980Y-15761102D01*
X11793980Y-15761102D02*
X11784456Y-15789674D01*
X11784456Y-15789674D02*
X11670170Y-15903959D01*
X11670170Y-15903959D02*
X11793980Y-15903959D01*
X11917789Y-15703959D02*
X11936837Y-15703959D01*
X11936837Y-15703959D02*
X11955885Y-15713483D01*
X11955885Y-15713483D02*
X11965409Y-15723007D01*
X11965409Y-15723007D02*
X11974932Y-15742055D01*
X11974932Y-15742055D02*
X11984456Y-15780150D01*
X11984456Y-15780150D02*
X11984456Y-15827769D01*
X11984456Y-15827769D02*
X11974932Y-15865864D01*
X11974932Y-15865864D02*
X11965409Y-15884912D01*
X11965409Y-15884912D02*
X11955885Y-15894436D01*
X11955885Y-15894436D02*
X11936837Y-15903959D01*
X11936837Y-15903959D02*
X11917789Y-15903959D01*
X11917789Y-15903959D02*
X11898742Y-15894436D01*
X11898742Y-15894436D02*
X11889218Y-15884912D01*
X11889218Y-15884912D02*
X11879694Y-15865864D01*
X11879694Y-15865864D02*
X11870170Y-15827769D01*
X11870170Y-15827769D02*
X11870170Y-15780150D01*
X11870170Y-15780150D02*
X11879694Y-15742055D01*
X11879694Y-15742055D02*
X11889218Y-15723007D01*
X11889218Y-15723007D02*
X11898742Y-15713483D01*
X11898742Y-15713483D02*
X11917789Y-15703959D01*
X12060647Y-15723007D02*
X12070170Y-15713483D01*
X12070170Y-15713483D02*
X12089218Y-15703959D01*
X12089218Y-15703959D02*
X12136837Y-15703959D01*
X12136837Y-15703959D02*
X12155885Y-15713483D01*
X12155885Y-15713483D02*
X12165409Y-15723007D01*
X12165409Y-15723007D02*
X12174932Y-15742055D01*
X12174932Y-15742055D02*
X12174932Y-15761102D01*
X12174932Y-15761102D02*
X12165409Y-15789674D01*
X12165409Y-15789674D02*
X12051123Y-15903959D01*
X12051123Y-15903959D02*
X12174932Y-15903959D01*
X12413028Y-15903959D02*
X12413028Y-15703959D01*
X12498742Y-15903959D02*
X12498742Y-15799198D01*
X12498742Y-15799198D02*
X12489218Y-15780150D01*
X12489218Y-15780150D02*
X12470171Y-15770626D01*
X12470171Y-15770626D02*
X12441599Y-15770626D01*
X12441599Y-15770626D02*
X12422551Y-15780150D01*
X12422551Y-15780150D02*
X12413028Y-15789674D01*
X12622551Y-15903959D02*
X12603504Y-15894436D01*
X12603504Y-15894436D02*
X12593980Y-15884912D01*
X12593980Y-15884912D02*
X12584456Y-15865864D01*
X12584456Y-15865864D02*
X12584456Y-15808721D01*
X12584456Y-15808721D02*
X12593980Y-15789674D01*
X12593980Y-15789674D02*
X12603504Y-15780150D01*
X12603504Y-15780150D02*
X12622551Y-15770626D01*
X12622551Y-15770626D02*
X12651123Y-15770626D01*
X12651123Y-15770626D02*
X12670171Y-15780150D01*
X12670171Y-15780150D02*
X12679694Y-15789674D01*
X12679694Y-15789674D02*
X12689218Y-15808721D01*
X12689218Y-15808721D02*
X12689218Y-15865864D01*
X12689218Y-15865864D02*
X12679694Y-15884912D01*
X12679694Y-15884912D02*
X12670171Y-15894436D01*
X12670171Y-15894436D02*
X12651123Y-15903959D01*
X12651123Y-15903959D02*
X12622551Y-15903959D01*
X12803504Y-15903959D02*
X12784456Y-15894436D01*
X12784456Y-15894436D02*
X12774932Y-15875388D01*
X12774932Y-15875388D02*
X12774932Y-15703959D01*
X12955885Y-15894436D02*
X12936837Y-15903959D01*
X12936837Y-15903959D02*
X12898742Y-15903959D01*
X12898742Y-15903959D02*
X12879694Y-15894436D01*
X12879694Y-15894436D02*
X12870171Y-15875388D01*
X12870171Y-15875388D02*
X12870171Y-15799198D01*
X12870171Y-15799198D02*
X12879694Y-15780150D01*
X12879694Y-15780150D02*
X12898742Y-15770626D01*
X12898742Y-15770626D02*
X12936837Y-15770626D01*
X12936837Y-15770626D02*
X12955885Y-15780150D01*
X12955885Y-15780150D02*
X12965409Y-15799198D01*
X12965409Y-15799198D02*
X12965409Y-15818245D01*
X12965409Y-15818245D02*
X12870171Y-15837293D01*
X13041599Y-15894436D02*
X13060647Y-15903959D01*
X13060647Y-15903959D02*
X13098742Y-15903959D01*
X13098742Y-15903959D02*
X13117790Y-15894436D01*
X13117790Y-15894436D02*
X13127313Y-15875388D01*
X13127313Y-15875388D02*
X13127313Y-15865864D01*
X13127313Y-15865864D02*
X13117790Y-15846817D01*
X13117790Y-15846817D02*
X13098742Y-15837293D01*
X13098742Y-15837293D02*
X13070171Y-15837293D01*
X13070171Y-15837293D02*
X13051123Y-15827769D01*
X13051123Y-15827769D02*
X13041599Y-15808721D01*
X13041599Y-15808721D02*
X13041599Y-15799198D01*
X13041599Y-15799198D02*
X13051123Y-15780150D01*
X13051123Y-15780150D02*
X13070171Y-15770626D01*
X13070171Y-15770626D02*
X13098742Y-15770626D01*
X13098742Y-15770626D02*
X13117790Y-15780150D01*
X13193980Y-15980150D02*
X13203504Y-15970626D01*
X13203504Y-15970626D02*
X13222552Y-15942055D01*
X13222552Y-15942055D02*
X13232075Y-15923007D01*
X13232075Y-15923007D02*
X13241599Y-15894436D01*
X13241599Y-15894436D02*
X13251123Y-15846817D01*
X13251123Y-15846817D02*
X13251123Y-15808721D01*
X13251123Y-15808721D02*
X13241599Y-15761102D01*
X13241599Y-15761102D02*
X13232075Y-15732531D01*
X13232075Y-15732531D02*
X13222552Y-15713483D01*
X13222552Y-15713483D02*
X13203504Y-15684912D01*
X13203504Y-15684912D02*
X13193980Y-15675388D01*
D12*
X8051123Y-16075436D02*
G75*
G03*
X8051123Y-16075436I-20000J0D01*
G01*
D10*
X8336837Y-15967959D02*
X8355884Y-15967959D01*
X8355884Y-15967959D02*
X8374932Y-15977483D01*
X8374932Y-15977483D02*
X8384456Y-15987007D01*
X8384456Y-15987007D02*
X8393980Y-16006055D01*
X8393980Y-16006055D02*
X8403504Y-16044150D01*
X8403504Y-16044150D02*
X8403504Y-16091769D01*
X8403504Y-16091769D02*
X8393980Y-16129864D01*
X8393980Y-16129864D02*
X8384456Y-16148912D01*
X8384456Y-16148912D02*
X8374932Y-16158436D01*
X8374932Y-16158436D02*
X8355884Y-16167959D01*
X8355884Y-16167959D02*
X8336837Y-16167959D01*
X8336837Y-16167959D02*
X8317789Y-16158436D01*
X8317789Y-16158436D02*
X8308265Y-16148912D01*
X8308265Y-16148912D02*
X8298742Y-16129864D01*
X8298742Y-16129864D02*
X8289218Y-16091769D01*
X8289218Y-16091769D02*
X8289218Y-16044150D01*
X8289218Y-16044150D02*
X8298742Y-16006055D01*
X8298742Y-16006055D02*
X8308265Y-15987007D01*
X8308265Y-15987007D02*
X8317789Y-15977483D01*
X8317789Y-15977483D02*
X8336837Y-15967959D01*
X8489218Y-16148912D02*
X8498742Y-16158436D01*
X8498742Y-16158436D02*
X8489218Y-16167959D01*
X8489218Y-16167959D02*
X8479694Y-16158436D01*
X8479694Y-16158436D02*
X8489218Y-16148912D01*
X8489218Y-16148912D02*
X8489218Y-16167959D01*
X8670170Y-16034626D02*
X8670170Y-16167959D01*
X8622551Y-15958436D02*
X8574932Y-16101293D01*
X8574932Y-16101293D02*
X8698742Y-16101293D01*
X8813027Y-15967959D02*
X8832075Y-15967959D01*
X8832075Y-15967959D02*
X8851123Y-15977483D01*
X8851123Y-15977483D02*
X8860646Y-15987007D01*
X8860646Y-15987007D02*
X8870170Y-16006055D01*
X8870170Y-16006055D02*
X8879694Y-16044150D01*
X8879694Y-16044150D02*
X8879694Y-16091769D01*
X8879694Y-16091769D02*
X8870170Y-16129864D01*
X8870170Y-16129864D02*
X8860646Y-16148912D01*
X8860646Y-16148912D02*
X8851123Y-16158436D01*
X8851123Y-16158436D02*
X8832075Y-16167959D01*
X8832075Y-16167959D02*
X8813027Y-16167959D01*
X8813027Y-16167959D02*
X8793980Y-16158436D01*
X8793980Y-16158436D02*
X8784456Y-16148912D01*
X8784456Y-16148912D02*
X8774932Y-16129864D01*
X8774932Y-16129864D02*
X8765408Y-16091769D01*
X8765408Y-16091769D02*
X8765408Y-16044150D01*
X8765408Y-16044150D02*
X8774932Y-16006055D01*
X8774932Y-16006055D02*
X8784456Y-15987007D01*
X8784456Y-15987007D02*
X8793980Y-15977483D01*
X8793980Y-15977483D02*
X8813027Y-15967959D01*
X9003504Y-15967959D02*
X9022551Y-15967959D01*
X9022551Y-15967959D02*
X9041599Y-15977483D01*
X9041599Y-15977483D02*
X9051123Y-15987007D01*
X9051123Y-15987007D02*
X9060646Y-16006055D01*
X9060646Y-16006055D02*
X9070170Y-16044150D01*
X9070170Y-16044150D02*
X9070170Y-16091769D01*
X9070170Y-16091769D02*
X9060646Y-16129864D01*
X9060646Y-16129864D02*
X9051123Y-16148912D01*
X9051123Y-16148912D02*
X9041599Y-16158436D01*
X9041599Y-16158436D02*
X9022551Y-16167959D01*
X9022551Y-16167959D02*
X9003504Y-16167959D01*
X9003504Y-16167959D02*
X8984456Y-16158436D01*
X8984456Y-16158436D02*
X8974932Y-16148912D01*
X8974932Y-16148912D02*
X8965408Y-16129864D01*
X8965408Y-16129864D02*
X8955885Y-16091769D01*
X8955885Y-16091769D02*
X8955885Y-16044150D01*
X8955885Y-16044150D02*
X8965408Y-16006055D01*
X8965408Y-16006055D02*
X8974932Y-15987007D01*
X8974932Y-15987007D02*
X8984456Y-15977483D01*
X8984456Y-15977483D02*
X9003504Y-15967959D01*
X9155885Y-16167959D02*
X9155885Y-16034626D01*
X9155885Y-16053674D02*
X9165408Y-16044150D01*
X9165408Y-16044150D02*
X9184456Y-16034626D01*
X9184456Y-16034626D02*
X9213027Y-16034626D01*
X9213027Y-16034626D02*
X9232075Y-16044150D01*
X9232075Y-16044150D02*
X9241599Y-16063198D01*
X9241599Y-16063198D02*
X9241599Y-16167959D01*
X9241599Y-16063198D02*
X9251123Y-16044150D01*
X9251123Y-16044150D02*
X9270170Y-16034626D01*
X9270170Y-16034626D02*
X9298742Y-16034626D01*
X9298742Y-16034626D02*
X9317789Y-16044150D01*
X9317789Y-16044150D02*
X9327313Y-16063198D01*
X9327313Y-16063198D02*
X9327313Y-16167959D01*
X9422551Y-16167959D02*
X9422551Y-16034626D01*
X9422551Y-16053674D02*
X9432075Y-16044150D01*
X9432075Y-16044150D02*
X9451123Y-16034626D01*
X9451123Y-16034626D02*
X9479694Y-16034626D01*
X9479694Y-16034626D02*
X9498742Y-16044150D01*
X9498742Y-16044150D02*
X9508266Y-16063198D01*
X9508266Y-16063198D02*
X9508266Y-16167959D01*
X9508266Y-16063198D02*
X9517789Y-16044150D01*
X9517789Y-16044150D02*
X9536837Y-16034626D01*
X9536837Y-16034626D02*
X9565408Y-16034626D01*
X9565408Y-16034626D02*
X9584456Y-16044150D01*
X9584456Y-16044150D02*
X9593980Y-16063198D01*
X9593980Y-16063198D02*
X9593980Y-16167959D01*
X9984456Y-15958436D02*
X9813028Y-16215578D01*
X10241599Y-15967959D02*
X10260647Y-15967959D01*
X10260647Y-15967959D02*
X10279694Y-15977483D01*
X10279694Y-15977483D02*
X10289218Y-15987007D01*
X10289218Y-15987007D02*
X10298742Y-16006055D01*
X10298742Y-16006055D02*
X10308266Y-16044150D01*
X10308266Y-16044150D02*
X10308266Y-16091769D01*
X10308266Y-16091769D02*
X10298742Y-16129864D01*
X10298742Y-16129864D02*
X10289218Y-16148912D01*
X10289218Y-16148912D02*
X10279694Y-16158436D01*
X10279694Y-16158436D02*
X10260647Y-16167959D01*
X10260647Y-16167959D02*
X10241599Y-16167959D01*
X10241599Y-16167959D02*
X10222551Y-16158436D01*
X10222551Y-16158436D02*
X10213028Y-16148912D01*
X10213028Y-16148912D02*
X10203504Y-16129864D01*
X10203504Y-16129864D02*
X10193980Y-16091769D01*
X10193980Y-16091769D02*
X10193980Y-16044150D01*
X10193980Y-16044150D02*
X10203504Y-16006055D01*
X10203504Y-16006055D02*
X10213028Y-15987007D01*
X10213028Y-15987007D02*
X10222551Y-15977483D01*
X10222551Y-15977483D02*
X10241599Y-15967959D01*
X10393980Y-16148912D02*
X10403504Y-16158436D01*
X10403504Y-16158436D02*
X10393980Y-16167959D01*
X10393980Y-16167959D02*
X10384456Y-16158436D01*
X10384456Y-16158436D02*
X10393980Y-16148912D01*
X10393980Y-16148912D02*
X10393980Y-16167959D01*
X10527313Y-15967959D02*
X10546361Y-15967959D01*
X10546361Y-15967959D02*
X10565409Y-15977483D01*
X10565409Y-15977483D02*
X10574932Y-15987007D01*
X10574932Y-15987007D02*
X10584456Y-16006055D01*
X10584456Y-16006055D02*
X10593980Y-16044150D01*
X10593980Y-16044150D02*
X10593980Y-16091769D01*
X10593980Y-16091769D02*
X10584456Y-16129864D01*
X10584456Y-16129864D02*
X10574932Y-16148912D01*
X10574932Y-16148912D02*
X10565409Y-16158436D01*
X10565409Y-16158436D02*
X10546361Y-16167959D01*
X10546361Y-16167959D02*
X10527313Y-16167959D01*
X10527313Y-16167959D02*
X10508266Y-16158436D01*
X10508266Y-16158436D02*
X10498742Y-16148912D01*
X10498742Y-16148912D02*
X10489218Y-16129864D01*
X10489218Y-16129864D02*
X10479694Y-16091769D01*
X10479694Y-16091769D02*
X10479694Y-16044150D01*
X10479694Y-16044150D02*
X10489218Y-16006055D01*
X10489218Y-16006055D02*
X10498742Y-15987007D01*
X10498742Y-15987007D02*
X10508266Y-15977483D01*
X10508266Y-15977483D02*
X10527313Y-15967959D01*
X10784456Y-16167959D02*
X10670170Y-16167959D01*
X10727313Y-16167959D02*
X10727313Y-15967959D01*
X10727313Y-15967959D02*
X10708266Y-15996531D01*
X10708266Y-15996531D02*
X10689218Y-16015578D01*
X10689218Y-16015578D02*
X10670170Y-16025102D01*
X10965409Y-15967959D02*
X10870170Y-15967959D01*
X10870170Y-15967959D02*
X10860647Y-16063198D01*
X10860647Y-16063198D02*
X10870170Y-16053674D01*
X10870170Y-16053674D02*
X10889218Y-16044150D01*
X10889218Y-16044150D02*
X10936837Y-16044150D01*
X10936837Y-16044150D02*
X10955885Y-16053674D01*
X10955885Y-16053674D02*
X10965409Y-16063198D01*
X10965409Y-16063198D02*
X10974932Y-16082245D01*
X10974932Y-16082245D02*
X10974932Y-16129864D01*
X10974932Y-16129864D02*
X10965409Y-16148912D01*
X10965409Y-16148912D02*
X10955885Y-16158436D01*
X10955885Y-16158436D02*
X10936837Y-16167959D01*
X10936837Y-16167959D02*
X10889218Y-16167959D01*
X10889218Y-16167959D02*
X10870170Y-16158436D01*
X10870170Y-16158436D02*
X10860647Y-16148912D01*
X11041599Y-15967959D02*
X11174932Y-15967959D01*
X11174932Y-15967959D02*
X11089218Y-16167959D01*
X11241599Y-15967959D02*
X11241599Y-16006055D01*
X11317789Y-15967959D02*
X11317789Y-16006055D01*
X11613028Y-16244150D02*
X11603504Y-16234626D01*
X11603504Y-16234626D02*
X11584456Y-16206055D01*
X11584456Y-16206055D02*
X11574932Y-16187007D01*
X11574932Y-16187007D02*
X11565409Y-16158436D01*
X11565409Y-16158436D02*
X11555885Y-16110817D01*
X11555885Y-16110817D02*
X11555885Y-16072721D01*
X11555885Y-16072721D02*
X11565409Y-16025102D01*
X11565409Y-16025102D02*
X11574932Y-15996531D01*
X11574932Y-15996531D02*
X11584456Y-15977483D01*
X11584456Y-15977483D02*
X11603504Y-15948912D01*
X11603504Y-15948912D02*
X11613028Y-15939388D01*
X11679694Y-15987007D02*
X11689218Y-15977483D01*
X11689218Y-15977483D02*
X11708266Y-15967959D01*
X11708266Y-15967959D02*
X11755885Y-15967959D01*
X11755885Y-15967959D02*
X11774932Y-15977483D01*
X11774932Y-15977483D02*
X11784456Y-15987007D01*
X11784456Y-15987007D02*
X11793980Y-16006055D01*
X11793980Y-16006055D02*
X11793980Y-16025102D01*
X11793980Y-16025102D02*
X11784456Y-16053674D01*
X11784456Y-16053674D02*
X11670170Y-16167959D01*
X11670170Y-16167959D02*
X11793980Y-16167959D01*
X11860647Y-15967959D02*
X11984456Y-15967959D01*
X11984456Y-15967959D02*
X11917789Y-16044150D01*
X11917789Y-16044150D02*
X11946361Y-16044150D01*
X11946361Y-16044150D02*
X11965409Y-16053674D01*
X11965409Y-16053674D02*
X11974932Y-16063198D01*
X11974932Y-16063198D02*
X11984456Y-16082245D01*
X11984456Y-16082245D02*
X11984456Y-16129864D01*
X11984456Y-16129864D02*
X11974932Y-16148912D01*
X11974932Y-16148912D02*
X11965409Y-16158436D01*
X11965409Y-16158436D02*
X11946361Y-16167959D01*
X11946361Y-16167959D02*
X11889218Y-16167959D01*
X11889218Y-16167959D02*
X11870170Y-16158436D01*
X11870170Y-16158436D02*
X11860647Y-16148912D01*
X12222551Y-16167959D02*
X12222551Y-15967959D01*
X12308266Y-16167959D02*
X12308266Y-16063198D01*
X12308266Y-16063198D02*
X12298742Y-16044150D01*
X12298742Y-16044150D02*
X12279694Y-16034626D01*
X12279694Y-16034626D02*
X12251123Y-16034626D01*
X12251123Y-16034626D02*
X12232075Y-16044150D01*
X12232075Y-16044150D02*
X12222551Y-16053674D01*
X12432075Y-16167959D02*
X12413028Y-16158436D01*
X12413028Y-16158436D02*
X12403504Y-16148912D01*
X12403504Y-16148912D02*
X12393980Y-16129864D01*
X12393980Y-16129864D02*
X12393980Y-16072721D01*
X12393980Y-16072721D02*
X12403504Y-16053674D01*
X12403504Y-16053674D02*
X12413028Y-16044150D01*
X12413028Y-16044150D02*
X12432075Y-16034626D01*
X12432075Y-16034626D02*
X12460647Y-16034626D01*
X12460647Y-16034626D02*
X12479694Y-16044150D01*
X12479694Y-16044150D02*
X12489218Y-16053674D01*
X12489218Y-16053674D02*
X12498742Y-16072721D01*
X12498742Y-16072721D02*
X12498742Y-16129864D01*
X12498742Y-16129864D02*
X12489218Y-16148912D01*
X12489218Y-16148912D02*
X12479694Y-16158436D01*
X12479694Y-16158436D02*
X12460647Y-16167959D01*
X12460647Y-16167959D02*
X12432075Y-16167959D01*
X12613028Y-16167959D02*
X12593980Y-16158436D01*
X12593980Y-16158436D02*
X12584456Y-16139388D01*
X12584456Y-16139388D02*
X12584456Y-15967959D01*
X12765409Y-16158436D02*
X12746361Y-16167959D01*
X12746361Y-16167959D02*
X12708266Y-16167959D01*
X12708266Y-16167959D02*
X12689218Y-16158436D01*
X12689218Y-16158436D02*
X12679694Y-16139388D01*
X12679694Y-16139388D02*
X12679694Y-16063198D01*
X12679694Y-16063198D02*
X12689218Y-16044150D01*
X12689218Y-16044150D02*
X12708266Y-16034626D01*
X12708266Y-16034626D02*
X12746361Y-16034626D01*
X12746361Y-16034626D02*
X12765409Y-16044150D01*
X12765409Y-16044150D02*
X12774932Y-16063198D01*
X12774932Y-16063198D02*
X12774932Y-16082245D01*
X12774932Y-16082245D02*
X12679694Y-16101293D01*
X12851123Y-16158436D02*
X12870171Y-16167959D01*
X12870171Y-16167959D02*
X12908266Y-16167959D01*
X12908266Y-16167959D02*
X12927313Y-16158436D01*
X12927313Y-16158436D02*
X12936837Y-16139388D01*
X12936837Y-16139388D02*
X12936837Y-16129864D01*
X12936837Y-16129864D02*
X12927313Y-16110817D01*
X12927313Y-16110817D02*
X12908266Y-16101293D01*
X12908266Y-16101293D02*
X12879694Y-16101293D01*
X12879694Y-16101293D02*
X12860647Y-16091769D01*
X12860647Y-16091769D02*
X12851123Y-16072721D01*
X12851123Y-16072721D02*
X12851123Y-16063198D01*
X12851123Y-16063198D02*
X12860647Y-16044150D01*
X12860647Y-16044150D02*
X12879694Y-16034626D01*
X12879694Y-16034626D02*
X12908266Y-16034626D01*
X12908266Y-16034626D02*
X12927313Y-16044150D01*
X13003504Y-16244150D02*
X13013028Y-16234626D01*
X13013028Y-16234626D02*
X13032075Y-16206055D01*
X13032075Y-16206055D02*
X13041599Y-16187007D01*
X13041599Y-16187007D02*
X13051123Y-16158436D01*
X13051123Y-16158436D02*
X13060647Y-16110817D01*
X13060647Y-16110817D02*
X13060647Y-16072721D01*
X13060647Y-16072721D02*
X13051123Y-16025102D01*
X13051123Y-16025102D02*
X13041599Y-15996531D01*
X13041599Y-15996531D02*
X13032075Y-15977483D01*
X13032075Y-15977483D02*
X13013028Y-15948912D01*
X13013028Y-15948912D02*
X13003504Y-15939388D01*
D12*
X8031123Y-16319436D02*
X8031123Y-16359436D01*
X8011123Y-16339436D02*
X8051123Y-16339436D01*
D10*
X8336837Y-16231959D02*
X8355884Y-16231959D01*
X8355884Y-16231959D02*
X8374932Y-16241483D01*
X8374932Y-16241483D02*
X8384456Y-16251007D01*
X8384456Y-16251007D02*
X8393980Y-16270055D01*
X8393980Y-16270055D02*
X8403504Y-16308150D01*
X8403504Y-16308150D02*
X8403504Y-16355769D01*
X8403504Y-16355769D02*
X8393980Y-16393864D01*
X8393980Y-16393864D02*
X8384456Y-16412912D01*
X8384456Y-16412912D02*
X8374932Y-16422436D01*
X8374932Y-16422436D02*
X8355884Y-16431959D01*
X8355884Y-16431959D02*
X8336837Y-16431959D01*
X8336837Y-16431959D02*
X8317789Y-16422436D01*
X8317789Y-16422436D02*
X8308265Y-16412912D01*
X8308265Y-16412912D02*
X8298742Y-16393864D01*
X8298742Y-16393864D02*
X8289218Y-16355769D01*
X8289218Y-16355769D02*
X8289218Y-16308150D01*
X8289218Y-16308150D02*
X8298742Y-16270055D01*
X8298742Y-16270055D02*
X8308265Y-16251007D01*
X8308265Y-16251007D02*
X8317789Y-16241483D01*
X8317789Y-16241483D02*
X8336837Y-16231959D01*
X8489218Y-16412912D02*
X8498742Y-16422436D01*
X8498742Y-16422436D02*
X8489218Y-16431959D01*
X8489218Y-16431959D02*
X8479694Y-16422436D01*
X8479694Y-16422436D02*
X8489218Y-16412912D01*
X8489218Y-16412912D02*
X8489218Y-16431959D01*
X8670170Y-16298626D02*
X8670170Y-16431959D01*
X8622551Y-16222436D02*
X8574932Y-16365293D01*
X8574932Y-16365293D02*
X8698742Y-16365293D01*
X8813027Y-16231959D02*
X8832075Y-16231959D01*
X8832075Y-16231959D02*
X8851123Y-16241483D01*
X8851123Y-16241483D02*
X8860646Y-16251007D01*
X8860646Y-16251007D02*
X8870170Y-16270055D01*
X8870170Y-16270055D02*
X8879694Y-16308150D01*
X8879694Y-16308150D02*
X8879694Y-16355769D01*
X8879694Y-16355769D02*
X8870170Y-16393864D01*
X8870170Y-16393864D02*
X8860646Y-16412912D01*
X8860646Y-16412912D02*
X8851123Y-16422436D01*
X8851123Y-16422436D02*
X8832075Y-16431959D01*
X8832075Y-16431959D02*
X8813027Y-16431959D01*
X8813027Y-16431959D02*
X8793980Y-16422436D01*
X8793980Y-16422436D02*
X8784456Y-16412912D01*
X8784456Y-16412912D02*
X8774932Y-16393864D01*
X8774932Y-16393864D02*
X8765408Y-16355769D01*
X8765408Y-16355769D02*
X8765408Y-16308150D01*
X8765408Y-16308150D02*
X8774932Y-16270055D01*
X8774932Y-16270055D02*
X8784456Y-16251007D01*
X8784456Y-16251007D02*
X8793980Y-16241483D01*
X8793980Y-16241483D02*
X8813027Y-16231959D01*
X9003504Y-16231959D02*
X9022551Y-16231959D01*
X9022551Y-16231959D02*
X9041599Y-16241483D01*
X9041599Y-16241483D02*
X9051123Y-16251007D01*
X9051123Y-16251007D02*
X9060646Y-16270055D01*
X9060646Y-16270055D02*
X9070170Y-16308150D01*
X9070170Y-16308150D02*
X9070170Y-16355769D01*
X9070170Y-16355769D02*
X9060646Y-16393864D01*
X9060646Y-16393864D02*
X9051123Y-16412912D01*
X9051123Y-16412912D02*
X9041599Y-16422436D01*
X9041599Y-16422436D02*
X9022551Y-16431959D01*
X9022551Y-16431959D02*
X9003504Y-16431959D01*
X9003504Y-16431959D02*
X8984456Y-16422436D01*
X8984456Y-16422436D02*
X8974932Y-16412912D01*
X8974932Y-16412912D02*
X8965408Y-16393864D01*
X8965408Y-16393864D02*
X8955885Y-16355769D01*
X8955885Y-16355769D02*
X8955885Y-16308150D01*
X8955885Y-16308150D02*
X8965408Y-16270055D01*
X8965408Y-16270055D02*
X8974932Y-16251007D01*
X8974932Y-16251007D02*
X8984456Y-16241483D01*
X8984456Y-16241483D02*
X9003504Y-16231959D01*
X9155885Y-16431959D02*
X9155885Y-16298626D01*
X9155885Y-16317674D02*
X9165408Y-16308150D01*
X9165408Y-16308150D02*
X9184456Y-16298626D01*
X9184456Y-16298626D02*
X9213027Y-16298626D01*
X9213027Y-16298626D02*
X9232075Y-16308150D01*
X9232075Y-16308150D02*
X9241599Y-16327198D01*
X9241599Y-16327198D02*
X9241599Y-16431959D01*
X9241599Y-16327198D02*
X9251123Y-16308150D01*
X9251123Y-16308150D02*
X9270170Y-16298626D01*
X9270170Y-16298626D02*
X9298742Y-16298626D01*
X9298742Y-16298626D02*
X9317789Y-16308150D01*
X9317789Y-16308150D02*
X9327313Y-16327198D01*
X9327313Y-16327198D02*
X9327313Y-16431959D01*
X9422551Y-16431959D02*
X9422551Y-16298626D01*
X9422551Y-16317674D02*
X9432075Y-16308150D01*
X9432075Y-16308150D02*
X9451123Y-16298626D01*
X9451123Y-16298626D02*
X9479694Y-16298626D01*
X9479694Y-16298626D02*
X9498742Y-16308150D01*
X9498742Y-16308150D02*
X9508266Y-16327198D01*
X9508266Y-16327198D02*
X9508266Y-16431959D01*
X9508266Y-16327198D02*
X9517789Y-16308150D01*
X9517789Y-16308150D02*
X9536837Y-16298626D01*
X9536837Y-16298626D02*
X9565408Y-16298626D01*
X9565408Y-16298626D02*
X9584456Y-16308150D01*
X9584456Y-16308150D02*
X9593980Y-16327198D01*
X9593980Y-16327198D02*
X9593980Y-16431959D01*
X9984456Y-16222436D02*
X9813028Y-16479578D01*
X10241599Y-16231959D02*
X10260647Y-16231959D01*
X10260647Y-16231959D02*
X10279694Y-16241483D01*
X10279694Y-16241483D02*
X10289218Y-16251007D01*
X10289218Y-16251007D02*
X10298742Y-16270055D01*
X10298742Y-16270055D02*
X10308266Y-16308150D01*
X10308266Y-16308150D02*
X10308266Y-16355769D01*
X10308266Y-16355769D02*
X10298742Y-16393864D01*
X10298742Y-16393864D02*
X10289218Y-16412912D01*
X10289218Y-16412912D02*
X10279694Y-16422436D01*
X10279694Y-16422436D02*
X10260647Y-16431959D01*
X10260647Y-16431959D02*
X10241599Y-16431959D01*
X10241599Y-16431959D02*
X10222551Y-16422436D01*
X10222551Y-16422436D02*
X10213028Y-16412912D01*
X10213028Y-16412912D02*
X10203504Y-16393864D01*
X10203504Y-16393864D02*
X10193980Y-16355769D01*
X10193980Y-16355769D02*
X10193980Y-16308150D01*
X10193980Y-16308150D02*
X10203504Y-16270055D01*
X10203504Y-16270055D02*
X10213028Y-16251007D01*
X10213028Y-16251007D02*
X10222551Y-16241483D01*
X10222551Y-16241483D02*
X10241599Y-16231959D01*
X10393980Y-16412912D02*
X10403504Y-16422436D01*
X10403504Y-16422436D02*
X10393980Y-16431959D01*
X10393980Y-16431959D02*
X10384456Y-16422436D01*
X10384456Y-16422436D02*
X10393980Y-16412912D01*
X10393980Y-16412912D02*
X10393980Y-16431959D01*
X10527313Y-16231959D02*
X10546361Y-16231959D01*
X10546361Y-16231959D02*
X10565409Y-16241483D01*
X10565409Y-16241483D02*
X10574932Y-16251007D01*
X10574932Y-16251007D02*
X10584456Y-16270055D01*
X10584456Y-16270055D02*
X10593980Y-16308150D01*
X10593980Y-16308150D02*
X10593980Y-16355769D01*
X10593980Y-16355769D02*
X10584456Y-16393864D01*
X10584456Y-16393864D02*
X10574932Y-16412912D01*
X10574932Y-16412912D02*
X10565409Y-16422436D01*
X10565409Y-16422436D02*
X10546361Y-16431959D01*
X10546361Y-16431959D02*
X10527313Y-16431959D01*
X10527313Y-16431959D02*
X10508266Y-16422436D01*
X10508266Y-16422436D02*
X10498742Y-16412912D01*
X10498742Y-16412912D02*
X10489218Y-16393864D01*
X10489218Y-16393864D02*
X10479694Y-16355769D01*
X10479694Y-16355769D02*
X10479694Y-16308150D01*
X10479694Y-16308150D02*
X10489218Y-16270055D01*
X10489218Y-16270055D02*
X10498742Y-16251007D01*
X10498742Y-16251007D02*
X10508266Y-16241483D01*
X10508266Y-16241483D02*
X10527313Y-16231959D01*
X10784456Y-16431959D02*
X10670170Y-16431959D01*
X10727313Y-16431959D02*
X10727313Y-16231959D01*
X10727313Y-16231959D02*
X10708266Y-16260531D01*
X10708266Y-16260531D02*
X10689218Y-16279578D01*
X10689218Y-16279578D02*
X10670170Y-16289102D01*
X10965409Y-16231959D02*
X10870170Y-16231959D01*
X10870170Y-16231959D02*
X10860647Y-16327198D01*
X10860647Y-16327198D02*
X10870170Y-16317674D01*
X10870170Y-16317674D02*
X10889218Y-16308150D01*
X10889218Y-16308150D02*
X10936837Y-16308150D01*
X10936837Y-16308150D02*
X10955885Y-16317674D01*
X10955885Y-16317674D02*
X10965409Y-16327198D01*
X10965409Y-16327198D02*
X10974932Y-16346245D01*
X10974932Y-16346245D02*
X10974932Y-16393864D01*
X10974932Y-16393864D02*
X10965409Y-16412912D01*
X10965409Y-16412912D02*
X10955885Y-16422436D01*
X10955885Y-16422436D02*
X10936837Y-16431959D01*
X10936837Y-16431959D02*
X10889218Y-16431959D01*
X10889218Y-16431959D02*
X10870170Y-16422436D01*
X10870170Y-16422436D02*
X10860647Y-16412912D01*
X11041599Y-16231959D02*
X11174932Y-16231959D01*
X11174932Y-16231959D02*
X11089218Y-16431959D01*
X11241599Y-16231959D02*
X11241599Y-16270055D01*
X11317789Y-16231959D02*
X11317789Y-16270055D01*
X11613028Y-16508150D02*
X11603504Y-16498626D01*
X11603504Y-16498626D02*
X11584456Y-16470055D01*
X11584456Y-16470055D02*
X11574932Y-16451007D01*
X11574932Y-16451007D02*
X11565409Y-16422436D01*
X11565409Y-16422436D02*
X11555885Y-16374817D01*
X11555885Y-16374817D02*
X11555885Y-16336721D01*
X11555885Y-16336721D02*
X11565409Y-16289102D01*
X11565409Y-16289102D02*
X11574932Y-16260531D01*
X11574932Y-16260531D02*
X11584456Y-16241483D01*
X11584456Y-16241483D02*
X11603504Y-16212912D01*
X11603504Y-16212912D02*
X11613028Y-16203388D01*
X11793980Y-16431959D02*
X11679694Y-16431959D01*
X11736837Y-16431959D02*
X11736837Y-16231959D01*
X11736837Y-16231959D02*
X11717789Y-16260531D01*
X11717789Y-16260531D02*
X11698742Y-16279578D01*
X11698742Y-16279578D02*
X11679694Y-16289102D01*
X11870170Y-16251007D02*
X11879694Y-16241483D01*
X11879694Y-16241483D02*
X11898742Y-16231959D01*
X11898742Y-16231959D02*
X11946361Y-16231959D01*
X11946361Y-16231959D02*
X11965409Y-16241483D01*
X11965409Y-16241483D02*
X11974932Y-16251007D01*
X11974932Y-16251007D02*
X11984456Y-16270055D01*
X11984456Y-16270055D02*
X11984456Y-16289102D01*
X11984456Y-16289102D02*
X11974932Y-16317674D01*
X11974932Y-16317674D02*
X11860647Y-16431959D01*
X11860647Y-16431959D02*
X11984456Y-16431959D01*
X12222551Y-16431959D02*
X12222551Y-16231959D01*
X12308266Y-16431959D02*
X12308266Y-16327198D01*
X12308266Y-16327198D02*
X12298742Y-16308150D01*
X12298742Y-16308150D02*
X12279694Y-16298626D01*
X12279694Y-16298626D02*
X12251123Y-16298626D01*
X12251123Y-16298626D02*
X12232075Y-16308150D01*
X12232075Y-16308150D02*
X12222551Y-16317674D01*
X12432075Y-16431959D02*
X12413028Y-16422436D01*
X12413028Y-16422436D02*
X12403504Y-16412912D01*
X12403504Y-16412912D02*
X12393980Y-16393864D01*
X12393980Y-16393864D02*
X12393980Y-16336721D01*
X12393980Y-16336721D02*
X12403504Y-16317674D01*
X12403504Y-16317674D02*
X12413028Y-16308150D01*
X12413028Y-16308150D02*
X12432075Y-16298626D01*
X12432075Y-16298626D02*
X12460647Y-16298626D01*
X12460647Y-16298626D02*
X12479694Y-16308150D01*
X12479694Y-16308150D02*
X12489218Y-16317674D01*
X12489218Y-16317674D02*
X12498742Y-16336721D01*
X12498742Y-16336721D02*
X12498742Y-16393864D01*
X12498742Y-16393864D02*
X12489218Y-16412912D01*
X12489218Y-16412912D02*
X12479694Y-16422436D01*
X12479694Y-16422436D02*
X12460647Y-16431959D01*
X12460647Y-16431959D02*
X12432075Y-16431959D01*
X12613028Y-16431959D02*
X12593980Y-16422436D01*
X12593980Y-16422436D02*
X12584456Y-16403388D01*
X12584456Y-16403388D02*
X12584456Y-16231959D01*
X12765409Y-16422436D02*
X12746361Y-16431959D01*
X12746361Y-16431959D02*
X12708266Y-16431959D01*
X12708266Y-16431959D02*
X12689218Y-16422436D01*
X12689218Y-16422436D02*
X12679694Y-16403388D01*
X12679694Y-16403388D02*
X12679694Y-16327198D01*
X12679694Y-16327198D02*
X12689218Y-16308150D01*
X12689218Y-16308150D02*
X12708266Y-16298626D01*
X12708266Y-16298626D02*
X12746361Y-16298626D01*
X12746361Y-16298626D02*
X12765409Y-16308150D01*
X12765409Y-16308150D02*
X12774932Y-16327198D01*
X12774932Y-16327198D02*
X12774932Y-16346245D01*
X12774932Y-16346245D02*
X12679694Y-16365293D01*
X12851123Y-16422436D02*
X12870171Y-16431959D01*
X12870171Y-16431959D02*
X12908266Y-16431959D01*
X12908266Y-16431959D02*
X12927313Y-16422436D01*
X12927313Y-16422436D02*
X12936837Y-16403388D01*
X12936837Y-16403388D02*
X12936837Y-16393864D01*
X12936837Y-16393864D02*
X12927313Y-16374817D01*
X12927313Y-16374817D02*
X12908266Y-16365293D01*
X12908266Y-16365293D02*
X12879694Y-16365293D01*
X12879694Y-16365293D02*
X12860647Y-16355769D01*
X12860647Y-16355769D02*
X12851123Y-16336721D01*
X12851123Y-16336721D02*
X12851123Y-16327198D01*
X12851123Y-16327198D02*
X12860647Y-16308150D01*
X12860647Y-16308150D02*
X12879694Y-16298626D01*
X12879694Y-16298626D02*
X12908266Y-16298626D01*
X12908266Y-16298626D02*
X12927313Y-16308150D01*
X13003504Y-16508150D02*
X13013028Y-16498626D01*
X13013028Y-16498626D02*
X13032075Y-16470055D01*
X13032075Y-16470055D02*
X13041599Y-16451007D01*
X13041599Y-16451007D02*
X13051123Y-16422436D01*
X13051123Y-16422436D02*
X13060647Y-16374817D01*
X13060647Y-16374817D02*
X13060647Y-16336721D01*
X13060647Y-16336721D02*
X13051123Y-16289102D01*
X13051123Y-16289102D02*
X13041599Y-16260531D01*
X13041599Y-16260531D02*
X13032075Y-16241483D01*
X13032075Y-16241483D02*
X13013028Y-16212912D01*
X13013028Y-16212912D02*
X13003504Y-16203388D01*
D13*
X8043800Y-16621113D02*
X8043800Y-16585758D01*
X8008445Y-16585758D01*
X8008445Y-16621113D01*
X8043800Y-16621113D01*
D10*
X8336837Y-16495959D02*
X8355884Y-16495959D01*
X8355884Y-16495959D02*
X8374932Y-16505483D01*
X8374932Y-16505483D02*
X8384456Y-16515007D01*
X8384456Y-16515007D02*
X8393980Y-16534055D01*
X8393980Y-16534055D02*
X8403504Y-16572150D01*
X8403504Y-16572150D02*
X8403504Y-16619769D01*
X8403504Y-16619769D02*
X8393980Y-16657864D01*
X8393980Y-16657864D02*
X8384456Y-16676912D01*
X8384456Y-16676912D02*
X8374932Y-16686436D01*
X8374932Y-16686436D02*
X8355884Y-16695959D01*
X8355884Y-16695959D02*
X8336837Y-16695959D01*
X8336837Y-16695959D02*
X8317789Y-16686436D01*
X8317789Y-16686436D02*
X8308265Y-16676912D01*
X8308265Y-16676912D02*
X8298742Y-16657864D01*
X8298742Y-16657864D02*
X8289218Y-16619769D01*
X8289218Y-16619769D02*
X8289218Y-16572150D01*
X8289218Y-16572150D02*
X8298742Y-16534055D01*
X8298742Y-16534055D02*
X8308265Y-16515007D01*
X8308265Y-16515007D02*
X8317789Y-16505483D01*
X8317789Y-16505483D02*
X8336837Y-16495959D01*
X8489218Y-16676912D02*
X8498742Y-16686436D01*
X8498742Y-16686436D02*
X8489218Y-16695959D01*
X8489218Y-16695959D02*
X8479694Y-16686436D01*
X8479694Y-16686436D02*
X8489218Y-16676912D01*
X8489218Y-16676912D02*
X8489218Y-16695959D01*
X8679694Y-16495959D02*
X8584456Y-16495959D01*
X8584456Y-16495959D02*
X8574932Y-16591198D01*
X8574932Y-16591198D02*
X8584456Y-16581674D01*
X8584456Y-16581674D02*
X8603504Y-16572150D01*
X8603504Y-16572150D02*
X8651123Y-16572150D01*
X8651123Y-16572150D02*
X8670170Y-16581674D01*
X8670170Y-16581674D02*
X8679694Y-16591198D01*
X8679694Y-16591198D02*
X8689218Y-16610245D01*
X8689218Y-16610245D02*
X8689218Y-16657864D01*
X8689218Y-16657864D02*
X8679694Y-16676912D01*
X8679694Y-16676912D02*
X8670170Y-16686436D01*
X8670170Y-16686436D02*
X8651123Y-16695959D01*
X8651123Y-16695959D02*
X8603504Y-16695959D01*
X8603504Y-16695959D02*
X8584456Y-16686436D01*
X8584456Y-16686436D02*
X8574932Y-16676912D01*
X8813027Y-16495959D02*
X8832075Y-16495959D01*
X8832075Y-16495959D02*
X8851123Y-16505483D01*
X8851123Y-16505483D02*
X8860646Y-16515007D01*
X8860646Y-16515007D02*
X8870170Y-16534055D01*
X8870170Y-16534055D02*
X8879694Y-16572150D01*
X8879694Y-16572150D02*
X8879694Y-16619769D01*
X8879694Y-16619769D02*
X8870170Y-16657864D01*
X8870170Y-16657864D02*
X8860646Y-16676912D01*
X8860646Y-16676912D02*
X8851123Y-16686436D01*
X8851123Y-16686436D02*
X8832075Y-16695959D01*
X8832075Y-16695959D02*
X8813027Y-16695959D01*
X8813027Y-16695959D02*
X8793980Y-16686436D01*
X8793980Y-16686436D02*
X8784456Y-16676912D01*
X8784456Y-16676912D02*
X8774932Y-16657864D01*
X8774932Y-16657864D02*
X8765408Y-16619769D01*
X8765408Y-16619769D02*
X8765408Y-16572150D01*
X8765408Y-16572150D02*
X8774932Y-16534055D01*
X8774932Y-16534055D02*
X8784456Y-16515007D01*
X8784456Y-16515007D02*
X8793980Y-16505483D01*
X8793980Y-16505483D02*
X8813027Y-16495959D01*
X9003504Y-16495959D02*
X9022551Y-16495959D01*
X9022551Y-16495959D02*
X9041599Y-16505483D01*
X9041599Y-16505483D02*
X9051123Y-16515007D01*
X9051123Y-16515007D02*
X9060646Y-16534055D01*
X9060646Y-16534055D02*
X9070170Y-16572150D01*
X9070170Y-16572150D02*
X9070170Y-16619769D01*
X9070170Y-16619769D02*
X9060646Y-16657864D01*
X9060646Y-16657864D02*
X9051123Y-16676912D01*
X9051123Y-16676912D02*
X9041599Y-16686436D01*
X9041599Y-16686436D02*
X9022551Y-16695959D01*
X9022551Y-16695959D02*
X9003504Y-16695959D01*
X9003504Y-16695959D02*
X8984456Y-16686436D01*
X8984456Y-16686436D02*
X8974932Y-16676912D01*
X8974932Y-16676912D02*
X8965408Y-16657864D01*
X8965408Y-16657864D02*
X8955885Y-16619769D01*
X8955885Y-16619769D02*
X8955885Y-16572150D01*
X8955885Y-16572150D02*
X8965408Y-16534055D01*
X8965408Y-16534055D02*
X8974932Y-16515007D01*
X8974932Y-16515007D02*
X8984456Y-16505483D01*
X8984456Y-16505483D02*
X9003504Y-16495959D01*
X9155885Y-16695959D02*
X9155885Y-16562626D01*
X9155885Y-16581674D02*
X9165408Y-16572150D01*
X9165408Y-16572150D02*
X9184456Y-16562626D01*
X9184456Y-16562626D02*
X9213027Y-16562626D01*
X9213027Y-16562626D02*
X9232075Y-16572150D01*
X9232075Y-16572150D02*
X9241599Y-16591198D01*
X9241599Y-16591198D02*
X9241599Y-16695959D01*
X9241599Y-16591198D02*
X9251123Y-16572150D01*
X9251123Y-16572150D02*
X9270170Y-16562626D01*
X9270170Y-16562626D02*
X9298742Y-16562626D01*
X9298742Y-16562626D02*
X9317789Y-16572150D01*
X9317789Y-16572150D02*
X9327313Y-16591198D01*
X9327313Y-16591198D02*
X9327313Y-16695959D01*
X9422551Y-16695959D02*
X9422551Y-16562626D01*
X9422551Y-16581674D02*
X9432075Y-16572150D01*
X9432075Y-16572150D02*
X9451123Y-16562626D01*
X9451123Y-16562626D02*
X9479694Y-16562626D01*
X9479694Y-16562626D02*
X9498742Y-16572150D01*
X9498742Y-16572150D02*
X9508266Y-16591198D01*
X9508266Y-16591198D02*
X9508266Y-16695959D01*
X9508266Y-16591198D02*
X9517789Y-16572150D01*
X9517789Y-16572150D02*
X9536837Y-16562626D01*
X9536837Y-16562626D02*
X9565408Y-16562626D01*
X9565408Y-16562626D02*
X9584456Y-16572150D01*
X9584456Y-16572150D02*
X9593980Y-16591198D01*
X9593980Y-16591198D02*
X9593980Y-16695959D01*
X9984456Y-16486436D02*
X9813028Y-16743578D01*
X10241599Y-16495959D02*
X10260647Y-16495959D01*
X10260647Y-16495959D02*
X10279694Y-16505483D01*
X10279694Y-16505483D02*
X10289218Y-16515007D01*
X10289218Y-16515007D02*
X10298742Y-16534055D01*
X10298742Y-16534055D02*
X10308266Y-16572150D01*
X10308266Y-16572150D02*
X10308266Y-16619769D01*
X10308266Y-16619769D02*
X10298742Y-16657864D01*
X10298742Y-16657864D02*
X10289218Y-16676912D01*
X10289218Y-16676912D02*
X10279694Y-16686436D01*
X10279694Y-16686436D02*
X10260647Y-16695959D01*
X10260647Y-16695959D02*
X10241599Y-16695959D01*
X10241599Y-16695959D02*
X10222551Y-16686436D01*
X10222551Y-16686436D02*
X10213028Y-16676912D01*
X10213028Y-16676912D02*
X10203504Y-16657864D01*
X10203504Y-16657864D02*
X10193980Y-16619769D01*
X10193980Y-16619769D02*
X10193980Y-16572150D01*
X10193980Y-16572150D02*
X10203504Y-16534055D01*
X10203504Y-16534055D02*
X10213028Y-16515007D01*
X10213028Y-16515007D02*
X10222551Y-16505483D01*
X10222551Y-16505483D02*
X10241599Y-16495959D01*
X10393980Y-16676912D02*
X10403504Y-16686436D01*
X10403504Y-16686436D02*
X10393980Y-16695959D01*
X10393980Y-16695959D02*
X10384456Y-16686436D01*
X10384456Y-16686436D02*
X10393980Y-16676912D01*
X10393980Y-16676912D02*
X10393980Y-16695959D01*
X10527313Y-16495959D02*
X10546361Y-16495959D01*
X10546361Y-16495959D02*
X10565409Y-16505483D01*
X10565409Y-16505483D02*
X10574932Y-16515007D01*
X10574932Y-16515007D02*
X10584456Y-16534055D01*
X10584456Y-16534055D02*
X10593980Y-16572150D01*
X10593980Y-16572150D02*
X10593980Y-16619769D01*
X10593980Y-16619769D02*
X10584456Y-16657864D01*
X10584456Y-16657864D02*
X10574932Y-16676912D01*
X10574932Y-16676912D02*
X10565409Y-16686436D01*
X10565409Y-16686436D02*
X10546361Y-16695959D01*
X10546361Y-16695959D02*
X10527313Y-16695959D01*
X10527313Y-16695959D02*
X10508266Y-16686436D01*
X10508266Y-16686436D02*
X10498742Y-16676912D01*
X10498742Y-16676912D02*
X10489218Y-16657864D01*
X10489218Y-16657864D02*
X10479694Y-16619769D01*
X10479694Y-16619769D02*
X10479694Y-16572150D01*
X10479694Y-16572150D02*
X10489218Y-16534055D01*
X10489218Y-16534055D02*
X10498742Y-16515007D01*
X10498742Y-16515007D02*
X10508266Y-16505483D01*
X10508266Y-16505483D02*
X10527313Y-16495959D01*
X10784456Y-16695959D02*
X10670170Y-16695959D01*
X10727313Y-16695959D02*
X10727313Y-16495959D01*
X10727313Y-16495959D02*
X10708266Y-16524531D01*
X10708266Y-16524531D02*
X10689218Y-16543578D01*
X10689218Y-16543578D02*
X10670170Y-16553102D01*
X10879694Y-16695959D02*
X10917789Y-16695959D01*
X10917789Y-16695959D02*
X10936837Y-16686436D01*
X10936837Y-16686436D02*
X10946361Y-16676912D01*
X10946361Y-16676912D02*
X10965409Y-16648340D01*
X10965409Y-16648340D02*
X10974932Y-16610245D01*
X10974932Y-16610245D02*
X10974932Y-16534055D01*
X10974932Y-16534055D02*
X10965409Y-16515007D01*
X10965409Y-16515007D02*
X10955885Y-16505483D01*
X10955885Y-16505483D02*
X10936837Y-16495959D01*
X10936837Y-16495959D02*
X10898742Y-16495959D01*
X10898742Y-16495959D02*
X10879694Y-16505483D01*
X10879694Y-16505483D02*
X10870170Y-16515007D01*
X10870170Y-16515007D02*
X10860647Y-16534055D01*
X10860647Y-16534055D02*
X10860647Y-16581674D01*
X10860647Y-16581674D02*
X10870170Y-16600721D01*
X10870170Y-16600721D02*
X10879694Y-16610245D01*
X10879694Y-16610245D02*
X10898742Y-16619769D01*
X10898742Y-16619769D02*
X10936837Y-16619769D01*
X10936837Y-16619769D02*
X10955885Y-16610245D01*
X10955885Y-16610245D02*
X10965409Y-16600721D01*
X10965409Y-16600721D02*
X10974932Y-16581674D01*
X11041599Y-16495959D02*
X11174932Y-16495959D01*
X11174932Y-16495959D02*
X11089218Y-16695959D01*
X11241599Y-16495959D02*
X11241599Y-16534055D01*
X11317789Y-16495959D02*
X11317789Y-16534055D01*
X11613028Y-16772150D02*
X11603504Y-16762626D01*
X11603504Y-16762626D02*
X11584456Y-16734055D01*
X11584456Y-16734055D02*
X11574932Y-16715007D01*
X11574932Y-16715007D02*
X11565409Y-16686436D01*
X11565409Y-16686436D02*
X11555885Y-16638817D01*
X11555885Y-16638817D02*
X11555885Y-16600721D01*
X11555885Y-16600721D02*
X11565409Y-16553102D01*
X11565409Y-16553102D02*
X11574932Y-16524531D01*
X11574932Y-16524531D02*
X11584456Y-16505483D01*
X11584456Y-16505483D02*
X11603504Y-16476912D01*
X11603504Y-16476912D02*
X11613028Y-16467388D01*
X11727313Y-16495959D02*
X11746361Y-16495959D01*
X11746361Y-16495959D02*
X11765409Y-16505483D01*
X11765409Y-16505483D02*
X11774932Y-16515007D01*
X11774932Y-16515007D02*
X11784456Y-16534055D01*
X11784456Y-16534055D02*
X11793980Y-16572150D01*
X11793980Y-16572150D02*
X11793980Y-16619769D01*
X11793980Y-16619769D02*
X11784456Y-16657864D01*
X11784456Y-16657864D02*
X11774932Y-16676912D01*
X11774932Y-16676912D02*
X11765409Y-16686436D01*
X11765409Y-16686436D02*
X11746361Y-16695959D01*
X11746361Y-16695959D02*
X11727313Y-16695959D01*
X11727313Y-16695959D02*
X11708266Y-16686436D01*
X11708266Y-16686436D02*
X11698742Y-16676912D01*
X11698742Y-16676912D02*
X11689218Y-16657864D01*
X11689218Y-16657864D02*
X11679694Y-16619769D01*
X11679694Y-16619769D02*
X11679694Y-16572150D01*
X11679694Y-16572150D02*
X11689218Y-16534055D01*
X11689218Y-16534055D02*
X11698742Y-16515007D01*
X11698742Y-16515007D02*
X11708266Y-16505483D01*
X11708266Y-16505483D02*
X11727313Y-16495959D01*
X12032075Y-16695959D02*
X12032075Y-16495959D01*
X12117790Y-16695959D02*
X12117790Y-16591198D01*
X12117790Y-16591198D02*
X12108266Y-16572150D01*
X12108266Y-16572150D02*
X12089218Y-16562626D01*
X12089218Y-16562626D02*
X12060647Y-16562626D01*
X12060647Y-16562626D02*
X12041599Y-16572150D01*
X12041599Y-16572150D02*
X12032075Y-16581674D01*
X12241599Y-16695959D02*
X12222551Y-16686436D01*
X12222551Y-16686436D02*
X12213028Y-16676912D01*
X12213028Y-16676912D02*
X12203504Y-16657864D01*
X12203504Y-16657864D02*
X12203504Y-16600721D01*
X12203504Y-16600721D02*
X12213028Y-16581674D01*
X12213028Y-16581674D02*
X12222551Y-16572150D01*
X12222551Y-16572150D02*
X12241599Y-16562626D01*
X12241599Y-16562626D02*
X12270171Y-16562626D01*
X12270171Y-16562626D02*
X12289218Y-16572150D01*
X12289218Y-16572150D02*
X12298742Y-16581674D01*
X12298742Y-16581674D02*
X12308266Y-16600721D01*
X12308266Y-16600721D02*
X12308266Y-16657864D01*
X12308266Y-16657864D02*
X12298742Y-16676912D01*
X12298742Y-16676912D02*
X12289218Y-16686436D01*
X12289218Y-16686436D02*
X12270171Y-16695959D01*
X12270171Y-16695959D02*
X12241599Y-16695959D01*
X12422551Y-16695959D02*
X12403504Y-16686436D01*
X12403504Y-16686436D02*
X12393980Y-16667388D01*
X12393980Y-16667388D02*
X12393980Y-16495959D01*
X12574932Y-16686436D02*
X12555885Y-16695959D01*
X12555885Y-16695959D02*
X12517790Y-16695959D01*
X12517790Y-16695959D02*
X12498742Y-16686436D01*
X12498742Y-16686436D02*
X12489218Y-16667388D01*
X12489218Y-16667388D02*
X12489218Y-16591198D01*
X12489218Y-16591198D02*
X12498742Y-16572150D01*
X12498742Y-16572150D02*
X12517790Y-16562626D01*
X12517790Y-16562626D02*
X12555885Y-16562626D01*
X12555885Y-16562626D02*
X12574932Y-16572150D01*
X12574932Y-16572150D02*
X12584456Y-16591198D01*
X12584456Y-16591198D02*
X12584456Y-16610245D01*
X12584456Y-16610245D02*
X12489218Y-16629293D01*
X12660647Y-16686436D02*
X12679694Y-16695959D01*
X12679694Y-16695959D02*
X12717790Y-16695959D01*
X12717790Y-16695959D02*
X12736837Y-16686436D01*
X12736837Y-16686436D02*
X12746361Y-16667388D01*
X12746361Y-16667388D02*
X12746361Y-16657864D01*
X12746361Y-16657864D02*
X12736837Y-16638817D01*
X12736837Y-16638817D02*
X12717790Y-16629293D01*
X12717790Y-16629293D02*
X12689218Y-16629293D01*
X12689218Y-16629293D02*
X12670171Y-16619769D01*
X12670171Y-16619769D02*
X12660647Y-16600721D01*
X12660647Y-16600721D02*
X12660647Y-16591198D01*
X12660647Y-16591198D02*
X12670171Y-16572150D01*
X12670171Y-16572150D02*
X12689218Y-16562626D01*
X12689218Y-16562626D02*
X12717790Y-16562626D01*
X12717790Y-16562626D02*
X12736837Y-16572150D01*
X12984456Y-16619769D02*
X13136837Y-16619769D01*
X13060647Y-16695959D02*
X13060647Y-16543578D01*
X13470171Y-16562626D02*
X13470171Y-16695959D01*
X13422552Y-16486436D02*
X13374933Y-16629293D01*
X13374933Y-16629293D02*
X13498742Y-16629293D01*
X13717790Y-16686436D02*
X13736837Y-16695959D01*
X13736837Y-16695959D02*
X13774933Y-16695959D01*
X13774933Y-16695959D02*
X13793980Y-16686436D01*
X13793980Y-16686436D02*
X13803504Y-16667388D01*
X13803504Y-16667388D02*
X13803504Y-16657864D01*
X13803504Y-16657864D02*
X13793980Y-16638817D01*
X13793980Y-16638817D02*
X13774933Y-16629293D01*
X13774933Y-16629293D02*
X13746361Y-16629293D01*
X13746361Y-16629293D02*
X13727314Y-16619769D01*
X13727314Y-16619769D02*
X13717790Y-16600721D01*
X13717790Y-16600721D02*
X13717790Y-16591198D01*
X13717790Y-16591198D02*
X13727314Y-16572150D01*
X13727314Y-16572150D02*
X13746361Y-16562626D01*
X13746361Y-16562626D02*
X13774933Y-16562626D01*
X13774933Y-16562626D02*
X13793980Y-16572150D01*
X13917790Y-16695959D02*
X13898742Y-16686436D01*
X13898742Y-16686436D02*
X13889218Y-16667388D01*
X13889218Y-16667388D02*
X13889218Y-16495959D01*
X14022552Y-16695959D02*
X14003504Y-16686436D01*
X14003504Y-16686436D02*
X13993980Y-16676912D01*
X13993980Y-16676912D02*
X13984456Y-16657864D01*
X13984456Y-16657864D02*
X13984456Y-16600721D01*
X13984456Y-16600721D02*
X13993980Y-16581674D01*
X13993980Y-16581674D02*
X14003504Y-16572150D01*
X14003504Y-16572150D02*
X14022552Y-16562626D01*
X14022552Y-16562626D02*
X14051123Y-16562626D01*
X14051123Y-16562626D02*
X14070171Y-16572150D01*
X14070171Y-16572150D02*
X14079695Y-16581674D01*
X14079695Y-16581674D02*
X14089218Y-16600721D01*
X14089218Y-16600721D02*
X14089218Y-16657864D01*
X14089218Y-16657864D02*
X14079695Y-16676912D01*
X14079695Y-16676912D02*
X14070171Y-16686436D01*
X14070171Y-16686436D02*
X14051123Y-16695959D01*
X14051123Y-16695959D02*
X14022552Y-16695959D01*
X14146361Y-16562626D02*
X14222552Y-16562626D01*
X14174933Y-16495959D02*
X14174933Y-16667388D01*
X14174933Y-16667388D02*
X14184456Y-16686436D01*
X14184456Y-16686436D02*
X14203504Y-16695959D01*
X14203504Y-16695959D02*
X14222552Y-16695959D01*
X14279695Y-16686436D02*
X14298742Y-16695959D01*
X14298742Y-16695959D02*
X14336837Y-16695959D01*
X14336837Y-16695959D02*
X14355885Y-16686436D01*
X14355885Y-16686436D02*
X14365409Y-16667388D01*
X14365409Y-16667388D02*
X14365409Y-16657864D01*
X14365409Y-16657864D02*
X14355885Y-16638817D01*
X14355885Y-16638817D02*
X14336837Y-16629293D01*
X14336837Y-16629293D02*
X14308266Y-16629293D01*
X14308266Y-16629293D02*
X14289218Y-16619769D01*
X14289218Y-16619769D02*
X14279695Y-16600721D01*
X14279695Y-16600721D02*
X14279695Y-16591198D01*
X14279695Y-16591198D02*
X14289218Y-16572150D01*
X14289218Y-16572150D02*
X14308266Y-16562626D01*
X14308266Y-16562626D02*
X14336837Y-16562626D01*
X14336837Y-16562626D02*
X14355885Y-16572150D01*
X14432076Y-16772150D02*
X14441599Y-16762626D01*
X14441599Y-16762626D02*
X14460647Y-16734055D01*
X14460647Y-16734055D02*
X14470171Y-16715007D01*
X14470171Y-16715007D02*
X14479695Y-16686436D01*
X14479695Y-16686436D02*
X14489218Y-16638817D01*
X14489218Y-16638817D02*
X14489218Y-16600721D01*
X14489218Y-16600721D02*
X14479695Y-16553102D01*
X14479695Y-16553102D02*
X14470171Y-16524531D01*
X14470171Y-16524531D02*
X14460647Y-16505483D01*
X14460647Y-16505483D02*
X14441599Y-16476912D01*
X14441599Y-16476912D02*
X14432076Y-16467388D01*
D14*
X8011123Y-16907436D02*
X8051123Y-16867436D01*
X8011123Y-16827436D01*
X7971123Y-16867436D01*
X8011123Y-16907436D01*
D10*
X8336837Y-16759959D02*
X8355884Y-16759959D01*
X8355884Y-16759959D02*
X8374932Y-16769483D01*
X8374932Y-16769483D02*
X8384456Y-16779007D01*
X8384456Y-16779007D02*
X8393980Y-16798055D01*
X8393980Y-16798055D02*
X8403504Y-16836150D01*
X8403504Y-16836150D02*
X8403504Y-16883769D01*
X8403504Y-16883769D02*
X8393980Y-16921864D01*
X8393980Y-16921864D02*
X8384456Y-16940912D01*
X8384456Y-16940912D02*
X8374932Y-16950436D01*
X8374932Y-16950436D02*
X8355884Y-16959960D01*
X8355884Y-16959960D02*
X8336837Y-16959960D01*
X8336837Y-16959960D02*
X8317789Y-16950436D01*
X8317789Y-16950436D02*
X8308265Y-16940912D01*
X8308265Y-16940912D02*
X8298742Y-16921864D01*
X8298742Y-16921864D02*
X8289218Y-16883769D01*
X8289218Y-16883769D02*
X8289218Y-16836150D01*
X8289218Y-16836150D02*
X8298742Y-16798055D01*
X8298742Y-16798055D02*
X8308265Y-16779007D01*
X8308265Y-16779007D02*
X8317789Y-16769483D01*
X8317789Y-16769483D02*
X8336837Y-16759959D01*
X8489218Y-16940912D02*
X8498742Y-16950436D01*
X8498742Y-16950436D02*
X8489218Y-16959960D01*
X8489218Y-16959960D02*
X8479694Y-16950436D01*
X8479694Y-16950436D02*
X8489218Y-16940912D01*
X8489218Y-16940912D02*
X8489218Y-16959960D01*
X8613027Y-16845674D02*
X8593980Y-16836150D01*
X8593980Y-16836150D02*
X8584456Y-16826626D01*
X8584456Y-16826626D02*
X8574932Y-16807579D01*
X8574932Y-16807579D02*
X8574932Y-16798055D01*
X8574932Y-16798055D02*
X8584456Y-16779007D01*
X8584456Y-16779007D02*
X8593980Y-16769483D01*
X8593980Y-16769483D02*
X8613027Y-16759959D01*
X8613027Y-16759959D02*
X8651123Y-16759959D01*
X8651123Y-16759959D02*
X8670170Y-16769483D01*
X8670170Y-16769483D02*
X8679694Y-16779007D01*
X8679694Y-16779007D02*
X8689218Y-16798055D01*
X8689218Y-16798055D02*
X8689218Y-16807579D01*
X8689218Y-16807579D02*
X8679694Y-16826626D01*
X8679694Y-16826626D02*
X8670170Y-16836150D01*
X8670170Y-16836150D02*
X8651123Y-16845674D01*
X8651123Y-16845674D02*
X8613027Y-16845674D01*
X8613027Y-16845674D02*
X8593980Y-16855198D01*
X8593980Y-16855198D02*
X8584456Y-16864721D01*
X8584456Y-16864721D02*
X8574932Y-16883769D01*
X8574932Y-16883769D02*
X8574932Y-16921864D01*
X8574932Y-16921864D02*
X8584456Y-16940912D01*
X8584456Y-16940912D02*
X8593980Y-16950436D01*
X8593980Y-16950436D02*
X8613027Y-16959960D01*
X8613027Y-16959960D02*
X8651123Y-16959960D01*
X8651123Y-16959960D02*
X8670170Y-16950436D01*
X8670170Y-16950436D02*
X8679694Y-16940912D01*
X8679694Y-16940912D02*
X8689218Y-16921864D01*
X8689218Y-16921864D02*
X8689218Y-16883769D01*
X8689218Y-16883769D02*
X8679694Y-16864721D01*
X8679694Y-16864721D02*
X8670170Y-16855198D01*
X8670170Y-16855198D02*
X8651123Y-16845674D01*
X8813027Y-16759959D02*
X8832075Y-16759959D01*
X8832075Y-16759959D02*
X8851123Y-16769483D01*
X8851123Y-16769483D02*
X8860646Y-16779007D01*
X8860646Y-16779007D02*
X8870170Y-16798055D01*
X8870170Y-16798055D02*
X8879694Y-16836150D01*
X8879694Y-16836150D02*
X8879694Y-16883769D01*
X8879694Y-16883769D02*
X8870170Y-16921864D01*
X8870170Y-16921864D02*
X8860646Y-16940912D01*
X8860646Y-16940912D02*
X8851123Y-16950436D01*
X8851123Y-16950436D02*
X8832075Y-16959960D01*
X8832075Y-16959960D02*
X8813027Y-16959960D01*
X8813027Y-16959960D02*
X8793980Y-16950436D01*
X8793980Y-16950436D02*
X8784456Y-16940912D01*
X8784456Y-16940912D02*
X8774932Y-16921864D01*
X8774932Y-16921864D02*
X8765408Y-16883769D01*
X8765408Y-16883769D02*
X8765408Y-16836150D01*
X8765408Y-16836150D02*
X8774932Y-16798055D01*
X8774932Y-16798055D02*
X8784456Y-16779007D01*
X8784456Y-16779007D02*
X8793980Y-16769483D01*
X8793980Y-16769483D02*
X8813027Y-16759959D01*
X9003504Y-16759959D02*
X9022551Y-16759959D01*
X9022551Y-16759959D02*
X9041599Y-16769483D01*
X9041599Y-16769483D02*
X9051123Y-16779007D01*
X9051123Y-16779007D02*
X9060646Y-16798055D01*
X9060646Y-16798055D02*
X9070170Y-16836150D01*
X9070170Y-16836150D02*
X9070170Y-16883769D01*
X9070170Y-16883769D02*
X9060646Y-16921864D01*
X9060646Y-16921864D02*
X9051123Y-16940912D01*
X9051123Y-16940912D02*
X9041599Y-16950436D01*
X9041599Y-16950436D02*
X9022551Y-16959960D01*
X9022551Y-16959960D02*
X9003504Y-16959960D01*
X9003504Y-16959960D02*
X8984456Y-16950436D01*
X8984456Y-16950436D02*
X8974932Y-16940912D01*
X8974932Y-16940912D02*
X8965408Y-16921864D01*
X8965408Y-16921864D02*
X8955885Y-16883769D01*
X8955885Y-16883769D02*
X8955885Y-16836150D01*
X8955885Y-16836150D02*
X8965408Y-16798055D01*
X8965408Y-16798055D02*
X8974932Y-16779007D01*
X8974932Y-16779007D02*
X8984456Y-16769483D01*
X8984456Y-16769483D02*
X9003504Y-16759959D01*
X9155885Y-16959960D02*
X9155885Y-16826626D01*
X9155885Y-16845674D02*
X9165408Y-16836150D01*
X9165408Y-16836150D02*
X9184456Y-16826626D01*
X9184456Y-16826626D02*
X9213027Y-16826626D01*
X9213027Y-16826626D02*
X9232075Y-16836150D01*
X9232075Y-16836150D02*
X9241599Y-16855198D01*
X9241599Y-16855198D02*
X9241599Y-16959960D01*
X9241599Y-16855198D02*
X9251123Y-16836150D01*
X9251123Y-16836150D02*
X9270170Y-16826626D01*
X9270170Y-16826626D02*
X9298742Y-16826626D01*
X9298742Y-16826626D02*
X9317789Y-16836150D01*
X9317789Y-16836150D02*
X9327313Y-16855198D01*
X9327313Y-16855198D02*
X9327313Y-16959960D01*
X9422551Y-16959960D02*
X9422551Y-16826626D01*
X9422551Y-16845674D02*
X9432075Y-16836150D01*
X9432075Y-16836150D02*
X9451123Y-16826626D01*
X9451123Y-16826626D02*
X9479694Y-16826626D01*
X9479694Y-16826626D02*
X9498742Y-16836150D01*
X9498742Y-16836150D02*
X9508266Y-16855198D01*
X9508266Y-16855198D02*
X9508266Y-16959960D01*
X9508266Y-16855198D02*
X9517789Y-16836150D01*
X9517789Y-16836150D02*
X9536837Y-16826626D01*
X9536837Y-16826626D02*
X9565408Y-16826626D01*
X9565408Y-16826626D02*
X9584456Y-16836150D01*
X9584456Y-16836150D02*
X9593980Y-16855198D01*
X9593980Y-16855198D02*
X9593980Y-16959960D01*
X9984456Y-16750436D02*
X9813028Y-17007579D01*
X10241599Y-16759959D02*
X10260647Y-16759959D01*
X10260647Y-16759959D02*
X10279694Y-16769483D01*
X10279694Y-16769483D02*
X10289218Y-16779007D01*
X10289218Y-16779007D02*
X10298742Y-16798055D01*
X10298742Y-16798055D02*
X10308266Y-16836150D01*
X10308266Y-16836150D02*
X10308266Y-16883769D01*
X10308266Y-16883769D02*
X10298742Y-16921864D01*
X10298742Y-16921864D02*
X10289218Y-16940912D01*
X10289218Y-16940912D02*
X10279694Y-16950436D01*
X10279694Y-16950436D02*
X10260647Y-16959960D01*
X10260647Y-16959960D02*
X10241599Y-16959960D01*
X10241599Y-16959960D02*
X10222551Y-16950436D01*
X10222551Y-16950436D02*
X10213028Y-16940912D01*
X10213028Y-16940912D02*
X10203504Y-16921864D01*
X10203504Y-16921864D02*
X10193980Y-16883769D01*
X10193980Y-16883769D02*
X10193980Y-16836150D01*
X10193980Y-16836150D02*
X10203504Y-16798055D01*
X10203504Y-16798055D02*
X10213028Y-16779007D01*
X10213028Y-16779007D02*
X10222551Y-16769483D01*
X10222551Y-16769483D02*
X10241599Y-16759959D01*
X10393980Y-16940912D02*
X10403504Y-16950436D01*
X10403504Y-16950436D02*
X10393980Y-16959960D01*
X10393980Y-16959960D02*
X10384456Y-16950436D01*
X10384456Y-16950436D02*
X10393980Y-16940912D01*
X10393980Y-16940912D02*
X10393980Y-16959960D01*
X10527313Y-16759959D02*
X10546361Y-16759959D01*
X10546361Y-16759959D02*
X10565409Y-16769483D01*
X10565409Y-16769483D02*
X10574932Y-16779007D01*
X10574932Y-16779007D02*
X10584456Y-16798055D01*
X10584456Y-16798055D02*
X10593980Y-16836150D01*
X10593980Y-16836150D02*
X10593980Y-16883769D01*
X10593980Y-16883769D02*
X10584456Y-16921864D01*
X10584456Y-16921864D02*
X10574932Y-16940912D01*
X10574932Y-16940912D02*
X10565409Y-16950436D01*
X10565409Y-16950436D02*
X10546361Y-16959960D01*
X10546361Y-16959960D02*
X10527313Y-16959960D01*
X10527313Y-16959960D02*
X10508266Y-16950436D01*
X10508266Y-16950436D02*
X10498742Y-16940912D01*
X10498742Y-16940912D02*
X10489218Y-16921864D01*
X10489218Y-16921864D02*
X10479694Y-16883769D01*
X10479694Y-16883769D02*
X10479694Y-16836150D01*
X10479694Y-16836150D02*
X10489218Y-16798055D01*
X10489218Y-16798055D02*
X10498742Y-16779007D01*
X10498742Y-16779007D02*
X10508266Y-16769483D01*
X10508266Y-16769483D02*
X10527313Y-16759959D01*
X10660647Y-16759959D02*
X10784456Y-16759959D01*
X10784456Y-16759959D02*
X10717789Y-16836150D01*
X10717789Y-16836150D02*
X10746361Y-16836150D01*
X10746361Y-16836150D02*
X10765409Y-16845674D01*
X10765409Y-16845674D02*
X10774932Y-16855198D01*
X10774932Y-16855198D02*
X10784456Y-16874245D01*
X10784456Y-16874245D02*
X10784456Y-16921864D01*
X10784456Y-16921864D02*
X10774932Y-16940912D01*
X10774932Y-16940912D02*
X10765409Y-16950436D01*
X10765409Y-16950436D02*
X10746361Y-16959960D01*
X10746361Y-16959960D02*
X10689218Y-16959960D01*
X10689218Y-16959960D02*
X10670170Y-16950436D01*
X10670170Y-16950436D02*
X10660647Y-16940912D01*
X10974932Y-16959960D02*
X10860647Y-16959960D01*
X10917789Y-16959960D02*
X10917789Y-16759959D01*
X10917789Y-16759959D02*
X10898742Y-16788531D01*
X10898742Y-16788531D02*
X10879694Y-16807579D01*
X10879694Y-16807579D02*
X10860647Y-16817102D01*
X11155885Y-16759959D02*
X11060647Y-16759959D01*
X11060647Y-16759959D02*
X11051123Y-16855198D01*
X11051123Y-16855198D02*
X11060647Y-16845674D01*
X11060647Y-16845674D02*
X11079694Y-16836150D01*
X11079694Y-16836150D02*
X11127313Y-16836150D01*
X11127313Y-16836150D02*
X11146361Y-16845674D01*
X11146361Y-16845674D02*
X11155885Y-16855198D01*
X11155885Y-16855198D02*
X11165409Y-16874245D01*
X11165409Y-16874245D02*
X11165409Y-16921864D01*
X11165409Y-16921864D02*
X11155885Y-16940912D01*
X11155885Y-16940912D02*
X11146361Y-16950436D01*
X11146361Y-16950436D02*
X11127313Y-16959960D01*
X11127313Y-16959960D02*
X11079694Y-16959960D01*
X11079694Y-16959960D02*
X11060647Y-16950436D01*
X11060647Y-16950436D02*
X11051123Y-16940912D01*
X11241599Y-16759959D02*
X11241599Y-16798055D01*
X11317789Y-16759959D02*
X11317789Y-16798055D01*
X11613028Y-17036150D02*
X11603504Y-17026626D01*
X11603504Y-17026626D02*
X11584456Y-16998055D01*
X11584456Y-16998055D02*
X11574932Y-16979007D01*
X11574932Y-16979007D02*
X11565409Y-16950436D01*
X11565409Y-16950436D02*
X11555885Y-16902817D01*
X11555885Y-16902817D02*
X11555885Y-16864721D01*
X11555885Y-16864721D02*
X11565409Y-16817102D01*
X11565409Y-16817102D02*
X11574932Y-16788531D01*
X11574932Y-16788531D02*
X11584456Y-16769483D01*
X11584456Y-16769483D02*
X11603504Y-16740912D01*
X11603504Y-16740912D02*
X11613028Y-16731388D01*
X11679694Y-16779007D02*
X11689218Y-16769483D01*
X11689218Y-16769483D02*
X11708266Y-16759959D01*
X11708266Y-16759959D02*
X11755885Y-16759959D01*
X11755885Y-16759959D02*
X11774932Y-16769483D01*
X11774932Y-16769483D02*
X11784456Y-16779007D01*
X11784456Y-16779007D02*
X11793980Y-16798055D01*
X11793980Y-16798055D02*
X11793980Y-16817102D01*
X11793980Y-16817102D02*
X11784456Y-16845674D01*
X11784456Y-16845674D02*
X11670170Y-16959960D01*
X11670170Y-16959960D02*
X11793980Y-16959960D01*
X12032075Y-16959960D02*
X12032075Y-16759959D01*
X12117790Y-16959960D02*
X12117790Y-16855198D01*
X12117790Y-16855198D02*
X12108266Y-16836150D01*
X12108266Y-16836150D02*
X12089218Y-16826626D01*
X12089218Y-16826626D02*
X12060647Y-16826626D01*
X12060647Y-16826626D02*
X12041599Y-16836150D01*
X12041599Y-16836150D02*
X12032075Y-16845674D01*
X12241599Y-16959960D02*
X12222551Y-16950436D01*
X12222551Y-16950436D02*
X12213028Y-16940912D01*
X12213028Y-16940912D02*
X12203504Y-16921864D01*
X12203504Y-16921864D02*
X12203504Y-16864721D01*
X12203504Y-16864721D02*
X12213028Y-16845674D01*
X12213028Y-16845674D02*
X12222551Y-16836150D01*
X12222551Y-16836150D02*
X12241599Y-16826626D01*
X12241599Y-16826626D02*
X12270171Y-16826626D01*
X12270171Y-16826626D02*
X12289218Y-16836150D01*
X12289218Y-16836150D02*
X12298742Y-16845674D01*
X12298742Y-16845674D02*
X12308266Y-16864721D01*
X12308266Y-16864721D02*
X12308266Y-16921864D01*
X12308266Y-16921864D02*
X12298742Y-16940912D01*
X12298742Y-16940912D02*
X12289218Y-16950436D01*
X12289218Y-16950436D02*
X12270171Y-16959960D01*
X12270171Y-16959960D02*
X12241599Y-16959960D01*
X12422551Y-16959960D02*
X12403504Y-16950436D01*
X12403504Y-16950436D02*
X12393980Y-16931388D01*
X12393980Y-16931388D02*
X12393980Y-16759959D01*
X12574932Y-16950436D02*
X12555885Y-16959960D01*
X12555885Y-16959960D02*
X12517790Y-16959960D01*
X12517790Y-16959960D02*
X12498742Y-16950436D01*
X12498742Y-16950436D02*
X12489218Y-16931388D01*
X12489218Y-16931388D02*
X12489218Y-16855198D01*
X12489218Y-16855198D02*
X12498742Y-16836150D01*
X12498742Y-16836150D02*
X12517790Y-16826626D01*
X12517790Y-16826626D02*
X12555885Y-16826626D01*
X12555885Y-16826626D02*
X12574932Y-16836150D01*
X12574932Y-16836150D02*
X12584456Y-16855198D01*
X12584456Y-16855198D02*
X12584456Y-16874245D01*
X12584456Y-16874245D02*
X12489218Y-16893293D01*
X12660647Y-16950436D02*
X12679694Y-16959960D01*
X12679694Y-16959960D02*
X12717790Y-16959960D01*
X12717790Y-16959960D02*
X12736837Y-16950436D01*
X12736837Y-16950436D02*
X12746361Y-16931388D01*
X12746361Y-16931388D02*
X12746361Y-16921864D01*
X12746361Y-16921864D02*
X12736837Y-16902817D01*
X12736837Y-16902817D02*
X12717790Y-16893293D01*
X12717790Y-16893293D02*
X12689218Y-16893293D01*
X12689218Y-16893293D02*
X12670171Y-16883769D01*
X12670171Y-16883769D02*
X12660647Y-16864721D01*
X12660647Y-16864721D02*
X12660647Y-16855198D01*
X12660647Y-16855198D02*
X12670171Y-16836150D01*
X12670171Y-16836150D02*
X12689218Y-16826626D01*
X12689218Y-16826626D02*
X12717790Y-16826626D01*
X12717790Y-16826626D02*
X12736837Y-16836150D01*
X12813028Y-17036150D02*
X12822552Y-17026626D01*
X12822552Y-17026626D02*
X12841599Y-16998055D01*
X12841599Y-16998055D02*
X12851123Y-16979007D01*
X12851123Y-16979007D02*
X12860647Y-16950436D01*
X12860647Y-16950436D02*
X12870171Y-16902817D01*
X12870171Y-16902817D02*
X12870171Y-16864721D01*
X12870171Y-16864721D02*
X12860647Y-16817102D01*
X12860647Y-16817102D02*
X12851123Y-16788531D01*
X12851123Y-16788531D02*
X12841599Y-16769483D01*
X12841599Y-16769483D02*
X12822552Y-16740912D01*
X12822552Y-16740912D02*
X12813028Y-16731388D01*
D15*
X7961123Y-17086436D02*
X8051123Y-17176436D01*
X8051123Y-17086436D02*
X7961123Y-17176436D01*
X8051123Y-17131436D02*
G75*
G03*
X8051123Y-17131436I-45000J0D01*
G01*
D10*
X8336837Y-17023960D02*
X8355884Y-17023960D01*
X8355884Y-17023960D02*
X8374932Y-17033483D01*
X8374932Y-17033483D02*
X8384456Y-17043007D01*
X8384456Y-17043007D02*
X8393980Y-17062055D01*
X8393980Y-17062055D02*
X8403504Y-17100150D01*
X8403504Y-17100150D02*
X8403504Y-17147769D01*
X8403504Y-17147769D02*
X8393980Y-17185864D01*
X8393980Y-17185864D02*
X8384456Y-17204912D01*
X8384456Y-17204912D02*
X8374932Y-17214436D01*
X8374932Y-17214436D02*
X8355884Y-17223960D01*
X8355884Y-17223960D02*
X8336837Y-17223960D01*
X8336837Y-17223960D02*
X8317789Y-17214436D01*
X8317789Y-17214436D02*
X8308265Y-17204912D01*
X8308265Y-17204912D02*
X8298742Y-17185864D01*
X8298742Y-17185864D02*
X8289218Y-17147769D01*
X8289218Y-17147769D02*
X8289218Y-17100150D01*
X8289218Y-17100150D02*
X8298742Y-17062055D01*
X8298742Y-17062055D02*
X8308265Y-17043007D01*
X8308265Y-17043007D02*
X8317789Y-17033483D01*
X8317789Y-17033483D02*
X8336837Y-17023960D01*
X8489218Y-17204912D02*
X8498742Y-17214436D01*
X8498742Y-17214436D02*
X8489218Y-17223960D01*
X8489218Y-17223960D02*
X8479694Y-17214436D01*
X8479694Y-17214436D02*
X8489218Y-17204912D01*
X8489218Y-17204912D02*
X8489218Y-17223960D01*
X8593980Y-17223960D02*
X8632075Y-17223960D01*
X8632075Y-17223960D02*
X8651123Y-17214436D01*
X8651123Y-17214436D02*
X8660646Y-17204912D01*
X8660646Y-17204912D02*
X8679694Y-17176340D01*
X8679694Y-17176340D02*
X8689218Y-17138245D01*
X8689218Y-17138245D02*
X8689218Y-17062055D01*
X8689218Y-17062055D02*
X8679694Y-17043007D01*
X8679694Y-17043007D02*
X8670170Y-17033483D01*
X8670170Y-17033483D02*
X8651123Y-17023960D01*
X8651123Y-17023960D02*
X8613027Y-17023960D01*
X8613027Y-17023960D02*
X8593980Y-17033483D01*
X8593980Y-17033483D02*
X8584456Y-17043007D01*
X8584456Y-17043007D02*
X8574932Y-17062055D01*
X8574932Y-17062055D02*
X8574932Y-17109674D01*
X8574932Y-17109674D02*
X8584456Y-17128721D01*
X8584456Y-17128721D02*
X8593980Y-17138245D01*
X8593980Y-17138245D02*
X8613027Y-17147769D01*
X8613027Y-17147769D02*
X8651123Y-17147769D01*
X8651123Y-17147769D02*
X8670170Y-17138245D01*
X8670170Y-17138245D02*
X8679694Y-17128721D01*
X8679694Y-17128721D02*
X8689218Y-17109674D01*
X8813027Y-17023960D02*
X8832075Y-17023960D01*
X8832075Y-17023960D02*
X8851123Y-17033483D01*
X8851123Y-17033483D02*
X8860646Y-17043007D01*
X8860646Y-17043007D02*
X8870170Y-17062055D01*
X8870170Y-17062055D02*
X8879694Y-17100150D01*
X8879694Y-17100150D02*
X8879694Y-17147769D01*
X8879694Y-17147769D02*
X8870170Y-17185864D01*
X8870170Y-17185864D02*
X8860646Y-17204912D01*
X8860646Y-17204912D02*
X8851123Y-17214436D01*
X8851123Y-17214436D02*
X8832075Y-17223960D01*
X8832075Y-17223960D02*
X8813027Y-17223960D01*
X8813027Y-17223960D02*
X8793980Y-17214436D01*
X8793980Y-17214436D02*
X8784456Y-17204912D01*
X8784456Y-17204912D02*
X8774932Y-17185864D01*
X8774932Y-17185864D02*
X8765408Y-17147769D01*
X8765408Y-17147769D02*
X8765408Y-17100150D01*
X8765408Y-17100150D02*
X8774932Y-17062055D01*
X8774932Y-17062055D02*
X8784456Y-17043007D01*
X8784456Y-17043007D02*
X8793980Y-17033483D01*
X8793980Y-17033483D02*
X8813027Y-17023960D01*
X9003504Y-17023960D02*
X9022551Y-17023960D01*
X9022551Y-17023960D02*
X9041599Y-17033483D01*
X9041599Y-17033483D02*
X9051123Y-17043007D01*
X9051123Y-17043007D02*
X9060646Y-17062055D01*
X9060646Y-17062055D02*
X9070170Y-17100150D01*
X9070170Y-17100150D02*
X9070170Y-17147769D01*
X9070170Y-17147769D02*
X9060646Y-17185864D01*
X9060646Y-17185864D02*
X9051123Y-17204912D01*
X9051123Y-17204912D02*
X9041599Y-17214436D01*
X9041599Y-17214436D02*
X9022551Y-17223960D01*
X9022551Y-17223960D02*
X9003504Y-17223960D01*
X9003504Y-17223960D02*
X8984456Y-17214436D01*
X8984456Y-17214436D02*
X8974932Y-17204912D01*
X8974932Y-17204912D02*
X8965408Y-17185864D01*
X8965408Y-17185864D02*
X8955885Y-17147769D01*
X8955885Y-17147769D02*
X8955885Y-17100150D01*
X8955885Y-17100150D02*
X8965408Y-17062055D01*
X8965408Y-17062055D02*
X8974932Y-17043007D01*
X8974932Y-17043007D02*
X8984456Y-17033483D01*
X8984456Y-17033483D02*
X9003504Y-17023960D01*
X9155885Y-17223960D02*
X9155885Y-17090626D01*
X9155885Y-17109674D02*
X9165408Y-17100150D01*
X9165408Y-17100150D02*
X9184456Y-17090626D01*
X9184456Y-17090626D02*
X9213027Y-17090626D01*
X9213027Y-17090626D02*
X9232075Y-17100150D01*
X9232075Y-17100150D02*
X9241599Y-17119198D01*
X9241599Y-17119198D02*
X9241599Y-17223960D01*
X9241599Y-17119198D02*
X9251123Y-17100150D01*
X9251123Y-17100150D02*
X9270170Y-17090626D01*
X9270170Y-17090626D02*
X9298742Y-17090626D01*
X9298742Y-17090626D02*
X9317789Y-17100150D01*
X9317789Y-17100150D02*
X9327313Y-17119198D01*
X9327313Y-17119198D02*
X9327313Y-17223960D01*
X9422551Y-17223960D02*
X9422551Y-17090626D01*
X9422551Y-17109674D02*
X9432075Y-17100150D01*
X9432075Y-17100150D02*
X9451123Y-17090626D01*
X9451123Y-17090626D02*
X9479694Y-17090626D01*
X9479694Y-17090626D02*
X9498742Y-17100150D01*
X9498742Y-17100150D02*
X9508266Y-17119198D01*
X9508266Y-17119198D02*
X9508266Y-17223960D01*
X9508266Y-17119198D02*
X9517789Y-17100150D01*
X9517789Y-17100150D02*
X9536837Y-17090626D01*
X9536837Y-17090626D02*
X9565408Y-17090626D01*
X9565408Y-17090626D02*
X9584456Y-17100150D01*
X9584456Y-17100150D02*
X9593980Y-17119198D01*
X9593980Y-17119198D02*
X9593980Y-17223960D01*
X9984456Y-17014436D02*
X9813028Y-17271579D01*
X10241599Y-17023960D02*
X10260647Y-17023960D01*
X10260647Y-17023960D02*
X10279694Y-17033483D01*
X10279694Y-17033483D02*
X10289218Y-17043007D01*
X10289218Y-17043007D02*
X10298742Y-17062055D01*
X10298742Y-17062055D02*
X10308266Y-17100150D01*
X10308266Y-17100150D02*
X10308266Y-17147769D01*
X10308266Y-17147769D02*
X10298742Y-17185864D01*
X10298742Y-17185864D02*
X10289218Y-17204912D01*
X10289218Y-17204912D02*
X10279694Y-17214436D01*
X10279694Y-17214436D02*
X10260647Y-17223960D01*
X10260647Y-17223960D02*
X10241599Y-17223960D01*
X10241599Y-17223960D02*
X10222551Y-17214436D01*
X10222551Y-17214436D02*
X10213028Y-17204912D01*
X10213028Y-17204912D02*
X10203504Y-17185864D01*
X10203504Y-17185864D02*
X10193980Y-17147769D01*
X10193980Y-17147769D02*
X10193980Y-17100150D01*
X10193980Y-17100150D02*
X10203504Y-17062055D01*
X10203504Y-17062055D02*
X10213028Y-17043007D01*
X10213028Y-17043007D02*
X10222551Y-17033483D01*
X10222551Y-17033483D02*
X10241599Y-17023960D01*
X10393980Y-17204912D02*
X10403504Y-17214436D01*
X10403504Y-17214436D02*
X10393980Y-17223960D01*
X10393980Y-17223960D02*
X10384456Y-17214436D01*
X10384456Y-17214436D02*
X10393980Y-17204912D01*
X10393980Y-17204912D02*
X10393980Y-17223960D01*
X10527313Y-17023960D02*
X10546361Y-17023960D01*
X10546361Y-17023960D02*
X10565409Y-17033483D01*
X10565409Y-17033483D02*
X10574932Y-17043007D01*
X10574932Y-17043007D02*
X10584456Y-17062055D01*
X10584456Y-17062055D02*
X10593980Y-17100150D01*
X10593980Y-17100150D02*
X10593980Y-17147769D01*
X10593980Y-17147769D02*
X10584456Y-17185864D01*
X10584456Y-17185864D02*
X10574932Y-17204912D01*
X10574932Y-17204912D02*
X10565409Y-17214436D01*
X10565409Y-17214436D02*
X10546361Y-17223960D01*
X10546361Y-17223960D02*
X10527313Y-17223960D01*
X10527313Y-17223960D02*
X10508266Y-17214436D01*
X10508266Y-17214436D02*
X10498742Y-17204912D01*
X10498742Y-17204912D02*
X10489218Y-17185864D01*
X10489218Y-17185864D02*
X10479694Y-17147769D01*
X10479694Y-17147769D02*
X10479694Y-17100150D01*
X10479694Y-17100150D02*
X10489218Y-17062055D01*
X10489218Y-17062055D02*
X10498742Y-17043007D01*
X10498742Y-17043007D02*
X10508266Y-17033483D01*
X10508266Y-17033483D02*
X10527313Y-17023960D01*
X10660647Y-17023960D02*
X10784456Y-17023960D01*
X10784456Y-17023960D02*
X10717789Y-17100150D01*
X10717789Y-17100150D02*
X10746361Y-17100150D01*
X10746361Y-17100150D02*
X10765409Y-17109674D01*
X10765409Y-17109674D02*
X10774932Y-17119198D01*
X10774932Y-17119198D02*
X10784456Y-17138245D01*
X10784456Y-17138245D02*
X10784456Y-17185864D01*
X10784456Y-17185864D02*
X10774932Y-17204912D01*
X10774932Y-17204912D02*
X10765409Y-17214436D01*
X10765409Y-17214436D02*
X10746361Y-17223960D01*
X10746361Y-17223960D02*
X10689218Y-17223960D01*
X10689218Y-17223960D02*
X10670170Y-17214436D01*
X10670170Y-17214436D02*
X10660647Y-17204912D01*
X10965409Y-17023960D02*
X10870170Y-17023960D01*
X10870170Y-17023960D02*
X10860647Y-17119198D01*
X10860647Y-17119198D02*
X10870170Y-17109674D01*
X10870170Y-17109674D02*
X10889218Y-17100150D01*
X10889218Y-17100150D02*
X10936837Y-17100150D01*
X10936837Y-17100150D02*
X10955885Y-17109674D01*
X10955885Y-17109674D02*
X10965409Y-17119198D01*
X10965409Y-17119198D02*
X10974932Y-17138245D01*
X10974932Y-17138245D02*
X10974932Y-17185864D01*
X10974932Y-17185864D02*
X10965409Y-17204912D01*
X10965409Y-17204912D02*
X10955885Y-17214436D01*
X10955885Y-17214436D02*
X10936837Y-17223960D01*
X10936837Y-17223960D02*
X10889218Y-17223960D01*
X10889218Y-17223960D02*
X10870170Y-17214436D01*
X10870170Y-17214436D02*
X10860647Y-17204912D01*
X11146361Y-17090626D02*
X11146361Y-17223960D01*
X11098742Y-17014436D02*
X11051123Y-17157293D01*
X11051123Y-17157293D02*
X11174932Y-17157293D01*
X11241599Y-17023960D02*
X11241599Y-17062055D01*
X11317789Y-17023960D02*
X11317789Y-17062055D01*
X11613028Y-17300150D02*
X11603504Y-17290626D01*
X11603504Y-17290626D02*
X11584456Y-17262055D01*
X11584456Y-17262055D02*
X11574932Y-17243007D01*
X11574932Y-17243007D02*
X11565409Y-17214436D01*
X11565409Y-17214436D02*
X11555885Y-17166817D01*
X11555885Y-17166817D02*
X11555885Y-17128721D01*
X11555885Y-17128721D02*
X11565409Y-17081102D01*
X11565409Y-17081102D02*
X11574932Y-17052531D01*
X11574932Y-17052531D02*
X11584456Y-17033483D01*
X11584456Y-17033483D02*
X11603504Y-17004912D01*
X11603504Y-17004912D02*
X11613028Y-16995388D01*
X11679694Y-17043007D02*
X11689218Y-17033483D01*
X11689218Y-17033483D02*
X11708266Y-17023960D01*
X11708266Y-17023960D02*
X11755885Y-17023960D01*
X11755885Y-17023960D02*
X11774932Y-17033483D01*
X11774932Y-17033483D02*
X11784456Y-17043007D01*
X11784456Y-17043007D02*
X11793980Y-17062055D01*
X11793980Y-17062055D02*
X11793980Y-17081102D01*
X11793980Y-17081102D02*
X11784456Y-17109674D01*
X11784456Y-17109674D02*
X11670170Y-17223960D01*
X11670170Y-17223960D02*
X11793980Y-17223960D01*
X12032075Y-17223960D02*
X12032075Y-17023960D01*
X12117790Y-17223960D02*
X12117790Y-17119198D01*
X12117790Y-17119198D02*
X12108266Y-17100150D01*
X12108266Y-17100150D02*
X12089218Y-17090626D01*
X12089218Y-17090626D02*
X12060647Y-17090626D01*
X12060647Y-17090626D02*
X12041599Y-17100150D01*
X12041599Y-17100150D02*
X12032075Y-17109674D01*
X12241599Y-17223960D02*
X12222551Y-17214436D01*
X12222551Y-17214436D02*
X12213028Y-17204912D01*
X12213028Y-17204912D02*
X12203504Y-17185864D01*
X12203504Y-17185864D02*
X12203504Y-17128721D01*
X12203504Y-17128721D02*
X12213028Y-17109674D01*
X12213028Y-17109674D02*
X12222551Y-17100150D01*
X12222551Y-17100150D02*
X12241599Y-17090626D01*
X12241599Y-17090626D02*
X12270171Y-17090626D01*
X12270171Y-17090626D02*
X12289218Y-17100150D01*
X12289218Y-17100150D02*
X12298742Y-17109674D01*
X12298742Y-17109674D02*
X12308266Y-17128721D01*
X12308266Y-17128721D02*
X12308266Y-17185864D01*
X12308266Y-17185864D02*
X12298742Y-17204912D01*
X12298742Y-17204912D02*
X12289218Y-17214436D01*
X12289218Y-17214436D02*
X12270171Y-17223960D01*
X12270171Y-17223960D02*
X12241599Y-17223960D01*
X12422551Y-17223960D02*
X12403504Y-17214436D01*
X12403504Y-17214436D02*
X12393980Y-17195388D01*
X12393980Y-17195388D02*
X12393980Y-17023960D01*
X12574932Y-17214436D02*
X12555885Y-17223960D01*
X12555885Y-17223960D02*
X12517790Y-17223960D01*
X12517790Y-17223960D02*
X12498742Y-17214436D01*
X12498742Y-17214436D02*
X12489218Y-17195388D01*
X12489218Y-17195388D02*
X12489218Y-17119198D01*
X12489218Y-17119198D02*
X12498742Y-17100150D01*
X12498742Y-17100150D02*
X12517790Y-17090626D01*
X12517790Y-17090626D02*
X12555885Y-17090626D01*
X12555885Y-17090626D02*
X12574932Y-17100150D01*
X12574932Y-17100150D02*
X12584456Y-17119198D01*
X12584456Y-17119198D02*
X12584456Y-17138245D01*
X12584456Y-17138245D02*
X12489218Y-17157293D01*
X12660647Y-17214436D02*
X12679694Y-17223960D01*
X12679694Y-17223960D02*
X12717790Y-17223960D01*
X12717790Y-17223960D02*
X12736837Y-17214436D01*
X12736837Y-17214436D02*
X12746361Y-17195388D01*
X12746361Y-17195388D02*
X12746361Y-17185864D01*
X12746361Y-17185864D02*
X12736837Y-17166817D01*
X12736837Y-17166817D02*
X12717790Y-17157293D01*
X12717790Y-17157293D02*
X12689218Y-17157293D01*
X12689218Y-17157293D02*
X12670171Y-17147769D01*
X12670171Y-17147769D02*
X12660647Y-17128721D01*
X12660647Y-17128721D02*
X12660647Y-17119198D01*
X12660647Y-17119198D02*
X12670171Y-17100150D01*
X12670171Y-17100150D02*
X12689218Y-17090626D01*
X12689218Y-17090626D02*
X12717790Y-17090626D01*
X12717790Y-17090626D02*
X12736837Y-17100150D01*
X12813028Y-17300150D02*
X12822552Y-17290626D01*
X12822552Y-17290626D02*
X12841599Y-17262055D01*
X12841599Y-17262055D02*
X12851123Y-17243007D01*
X12851123Y-17243007D02*
X12860647Y-17214436D01*
X12860647Y-17214436D02*
X12870171Y-17166817D01*
X12870171Y-17166817D02*
X12870171Y-17128721D01*
X12870171Y-17128721D02*
X12860647Y-17081102D01*
X12860647Y-17081102D02*
X12851123Y-17052531D01*
X12851123Y-17052531D02*
X12841599Y-17033483D01*
X12841599Y-17033483D02*
X12822552Y-17004912D01*
X12822552Y-17004912D02*
X12813028Y-16995388D01*
D15*
X7961123Y-17350436D02*
X8051123Y-17440436D01*
X8051123Y-17350436D02*
X7961123Y-17440436D01*
X8006123Y-17350436D02*
X8006123Y-17440436D01*
X7961123Y-17395436D02*
X8051123Y-17395436D01*
D10*
X8336837Y-17287960D02*
X8355884Y-17287960D01*
X8355884Y-17287960D02*
X8374932Y-17297483D01*
X8374932Y-17297483D02*
X8384456Y-17307007D01*
X8384456Y-17307007D02*
X8393980Y-17326055D01*
X8393980Y-17326055D02*
X8403504Y-17364150D01*
X8403504Y-17364150D02*
X8403504Y-17411769D01*
X8403504Y-17411769D02*
X8393980Y-17449864D01*
X8393980Y-17449864D02*
X8384456Y-17468912D01*
X8384456Y-17468912D02*
X8374932Y-17478436D01*
X8374932Y-17478436D02*
X8355884Y-17487960D01*
X8355884Y-17487960D02*
X8336837Y-17487960D01*
X8336837Y-17487960D02*
X8317789Y-17478436D01*
X8317789Y-17478436D02*
X8308265Y-17468912D01*
X8308265Y-17468912D02*
X8298742Y-17449864D01*
X8298742Y-17449864D02*
X8289218Y-17411769D01*
X8289218Y-17411769D02*
X8289218Y-17364150D01*
X8289218Y-17364150D02*
X8298742Y-17326055D01*
X8298742Y-17326055D02*
X8308265Y-17307007D01*
X8308265Y-17307007D02*
X8317789Y-17297483D01*
X8317789Y-17297483D02*
X8336837Y-17287960D01*
X8489218Y-17468912D02*
X8498742Y-17478436D01*
X8498742Y-17478436D02*
X8489218Y-17487960D01*
X8489218Y-17487960D02*
X8479694Y-17478436D01*
X8479694Y-17478436D02*
X8489218Y-17468912D01*
X8489218Y-17468912D02*
X8489218Y-17487960D01*
X8593980Y-17487960D02*
X8632075Y-17487960D01*
X8632075Y-17487960D02*
X8651123Y-17478436D01*
X8651123Y-17478436D02*
X8660646Y-17468912D01*
X8660646Y-17468912D02*
X8679694Y-17440340D01*
X8679694Y-17440340D02*
X8689218Y-17402245D01*
X8689218Y-17402245D02*
X8689218Y-17326055D01*
X8689218Y-17326055D02*
X8679694Y-17307007D01*
X8679694Y-17307007D02*
X8670170Y-17297483D01*
X8670170Y-17297483D02*
X8651123Y-17287960D01*
X8651123Y-17287960D02*
X8613027Y-17287960D01*
X8613027Y-17287960D02*
X8593980Y-17297483D01*
X8593980Y-17297483D02*
X8584456Y-17307007D01*
X8584456Y-17307007D02*
X8574932Y-17326055D01*
X8574932Y-17326055D02*
X8574932Y-17373674D01*
X8574932Y-17373674D02*
X8584456Y-17392721D01*
X8584456Y-17392721D02*
X8593980Y-17402245D01*
X8593980Y-17402245D02*
X8613027Y-17411769D01*
X8613027Y-17411769D02*
X8651123Y-17411769D01*
X8651123Y-17411769D02*
X8670170Y-17402245D01*
X8670170Y-17402245D02*
X8679694Y-17392721D01*
X8679694Y-17392721D02*
X8689218Y-17373674D01*
X8813027Y-17287960D02*
X8832075Y-17287960D01*
X8832075Y-17287960D02*
X8851123Y-17297483D01*
X8851123Y-17297483D02*
X8860646Y-17307007D01*
X8860646Y-17307007D02*
X8870170Y-17326055D01*
X8870170Y-17326055D02*
X8879694Y-17364150D01*
X8879694Y-17364150D02*
X8879694Y-17411769D01*
X8879694Y-17411769D02*
X8870170Y-17449864D01*
X8870170Y-17449864D02*
X8860646Y-17468912D01*
X8860646Y-17468912D02*
X8851123Y-17478436D01*
X8851123Y-17478436D02*
X8832075Y-17487960D01*
X8832075Y-17487960D02*
X8813027Y-17487960D01*
X8813027Y-17487960D02*
X8793980Y-17478436D01*
X8793980Y-17478436D02*
X8784456Y-17468912D01*
X8784456Y-17468912D02*
X8774932Y-17449864D01*
X8774932Y-17449864D02*
X8765408Y-17411769D01*
X8765408Y-17411769D02*
X8765408Y-17364150D01*
X8765408Y-17364150D02*
X8774932Y-17326055D01*
X8774932Y-17326055D02*
X8784456Y-17307007D01*
X8784456Y-17307007D02*
X8793980Y-17297483D01*
X8793980Y-17297483D02*
X8813027Y-17287960D01*
X9003504Y-17287960D02*
X9022551Y-17287960D01*
X9022551Y-17287960D02*
X9041599Y-17297483D01*
X9041599Y-17297483D02*
X9051123Y-17307007D01*
X9051123Y-17307007D02*
X9060646Y-17326055D01*
X9060646Y-17326055D02*
X9070170Y-17364150D01*
X9070170Y-17364150D02*
X9070170Y-17411769D01*
X9070170Y-17411769D02*
X9060646Y-17449864D01*
X9060646Y-17449864D02*
X9051123Y-17468912D01*
X9051123Y-17468912D02*
X9041599Y-17478436D01*
X9041599Y-17478436D02*
X9022551Y-17487960D01*
X9022551Y-17487960D02*
X9003504Y-17487960D01*
X9003504Y-17487960D02*
X8984456Y-17478436D01*
X8984456Y-17478436D02*
X8974932Y-17468912D01*
X8974932Y-17468912D02*
X8965408Y-17449864D01*
X8965408Y-17449864D02*
X8955885Y-17411769D01*
X8955885Y-17411769D02*
X8955885Y-17364150D01*
X8955885Y-17364150D02*
X8965408Y-17326055D01*
X8965408Y-17326055D02*
X8974932Y-17307007D01*
X8974932Y-17307007D02*
X8984456Y-17297483D01*
X8984456Y-17297483D02*
X9003504Y-17287960D01*
X9155885Y-17487960D02*
X9155885Y-17354626D01*
X9155885Y-17373674D02*
X9165408Y-17364150D01*
X9165408Y-17364150D02*
X9184456Y-17354626D01*
X9184456Y-17354626D02*
X9213027Y-17354626D01*
X9213027Y-17354626D02*
X9232075Y-17364150D01*
X9232075Y-17364150D02*
X9241599Y-17383198D01*
X9241599Y-17383198D02*
X9241599Y-17487960D01*
X9241599Y-17383198D02*
X9251123Y-17364150D01*
X9251123Y-17364150D02*
X9270170Y-17354626D01*
X9270170Y-17354626D02*
X9298742Y-17354626D01*
X9298742Y-17354626D02*
X9317789Y-17364150D01*
X9317789Y-17364150D02*
X9327313Y-17383198D01*
X9327313Y-17383198D02*
X9327313Y-17487960D01*
X9422551Y-17487960D02*
X9422551Y-17354626D01*
X9422551Y-17373674D02*
X9432075Y-17364150D01*
X9432075Y-17364150D02*
X9451123Y-17354626D01*
X9451123Y-17354626D02*
X9479694Y-17354626D01*
X9479694Y-17354626D02*
X9498742Y-17364150D01*
X9498742Y-17364150D02*
X9508266Y-17383198D01*
X9508266Y-17383198D02*
X9508266Y-17487960D01*
X9508266Y-17383198D02*
X9517789Y-17364150D01*
X9517789Y-17364150D02*
X9536837Y-17354626D01*
X9536837Y-17354626D02*
X9565408Y-17354626D01*
X9565408Y-17354626D02*
X9584456Y-17364150D01*
X9584456Y-17364150D02*
X9593980Y-17383198D01*
X9593980Y-17383198D02*
X9593980Y-17487960D01*
X9984456Y-17278436D02*
X9813028Y-17535579D01*
X10241599Y-17287960D02*
X10260647Y-17287960D01*
X10260647Y-17287960D02*
X10279694Y-17297483D01*
X10279694Y-17297483D02*
X10289218Y-17307007D01*
X10289218Y-17307007D02*
X10298742Y-17326055D01*
X10298742Y-17326055D02*
X10308266Y-17364150D01*
X10308266Y-17364150D02*
X10308266Y-17411769D01*
X10308266Y-17411769D02*
X10298742Y-17449864D01*
X10298742Y-17449864D02*
X10289218Y-17468912D01*
X10289218Y-17468912D02*
X10279694Y-17478436D01*
X10279694Y-17478436D02*
X10260647Y-17487960D01*
X10260647Y-17487960D02*
X10241599Y-17487960D01*
X10241599Y-17487960D02*
X10222551Y-17478436D01*
X10222551Y-17478436D02*
X10213028Y-17468912D01*
X10213028Y-17468912D02*
X10203504Y-17449864D01*
X10203504Y-17449864D02*
X10193980Y-17411769D01*
X10193980Y-17411769D02*
X10193980Y-17364150D01*
X10193980Y-17364150D02*
X10203504Y-17326055D01*
X10203504Y-17326055D02*
X10213028Y-17307007D01*
X10213028Y-17307007D02*
X10222551Y-17297483D01*
X10222551Y-17297483D02*
X10241599Y-17287960D01*
X10393980Y-17468912D02*
X10403504Y-17478436D01*
X10403504Y-17478436D02*
X10393980Y-17487960D01*
X10393980Y-17487960D02*
X10384456Y-17478436D01*
X10384456Y-17478436D02*
X10393980Y-17468912D01*
X10393980Y-17468912D02*
X10393980Y-17487960D01*
X10527313Y-17287960D02*
X10546361Y-17287960D01*
X10546361Y-17287960D02*
X10565409Y-17297483D01*
X10565409Y-17297483D02*
X10574932Y-17307007D01*
X10574932Y-17307007D02*
X10584456Y-17326055D01*
X10584456Y-17326055D02*
X10593980Y-17364150D01*
X10593980Y-17364150D02*
X10593980Y-17411769D01*
X10593980Y-17411769D02*
X10584456Y-17449864D01*
X10584456Y-17449864D02*
X10574932Y-17468912D01*
X10574932Y-17468912D02*
X10565409Y-17478436D01*
X10565409Y-17478436D02*
X10546361Y-17487960D01*
X10546361Y-17487960D02*
X10527313Y-17487960D01*
X10527313Y-17487960D02*
X10508266Y-17478436D01*
X10508266Y-17478436D02*
X10498742Y-17468912D01*
X10498742Y-17468912D02*
X10489218Y-17449864D01*
X10489218Y-17449864D02*
X10479694Y-17411769D01*
X10479694Y-17411769D02*
X10479694Y-17364150D01*
X10479694Y-17364150D02*
X10489218Y-17326055D01*
X10489218Y-17326055D02*
X10498742Y-17307007D01*
X10498742Y-17307007D02*
X10508266Y-17297483D01*
X10508266Y-17297483D02*
X10527313Y-17287960D01*
X10660647Y-17287960D02*
X10784456Y-17287960D01*
X10784456Y-17287960D02*
X10717789Y-17364150D01*
X10717789Y-17364150D02*
X10746361Y-17364150D01*
X10746361Y-17364150D02*
X10765409Y-17373674D01*
X10765409Y-17373674D02*
X10774932Y-17383198D01*
X10774932Y-17383198D02*
X10784456Y-17402245D01*
X10784456Y-17402245D02*
X10784456Y-17449864D01*
X10784456Y-17449864D02*
X10774932Y-17468912D01*
X10774932Y-17468912D02*
X10765409Y-17478436D01*
X10765409Y-17478436D02*
X10746361Y-17487960D01*
X10746361Y-17487960D02*
X10689218Y-17487960D01*
X10689218Y-17487960D02*
X10670170Y-17478436D01*
X10670170Y-17478436D02*
X10660647Y-17468912D01*
X10965409Y-17287960D02*
X10870170Y-17287960D01*
X10870170Y-17287960D02*
X10860647Y-17383198D01*
X10860647Y-17383198D02*
X10870170Y-17373674D01*
X10870170Y-17373674D02*
X10889218Y-17364150D01*
X10889218Y-17364150D02*
X10936837Y-17364150D01*
X10936837Y-17364150D02*
X10955885Y-17373674D01*
X10955885Y-17373674D02*
X10965409Y-17383198D01*
X10965409Y-17383198D02*
X10974932Y-17402245D01*
X10974932Y-17402245D02*
X10974932Y-17449864D01*
X10974932Y-17449864D02*
X10965409Y-17468912D01*
X10965409Y-17468912D02*
X10955885Y-17478436D01*
X10955885Y-17478436D02*
X10936837Y-17487960D01*
X10936837Y-17487960D02*
X10889218Y-17487960D01*
X10889218Y-17487960D02*
X10870170Y-17478436D01*
X10870170Y-17478436D02*
X10860647Y-17468912D01*
X11146361Y-17354626D02*
X11146361Y-17487960D01*
X11098742Y-17278436D02*
X11051123Y-17421293D01*
X11051123Y-17421293D02*
X11174932Y-17421293D01*
X11241599Y-17287960D02*
X11241599Y-17326055D01*
X11317789Y-17287960D02*
X11317789Y-17326055D01*
X11613028Y-17564150D02*
X11603504Y-17554626D01*
X11603504Y-17554626D02*
X11584456Y-17526055D01*
X11584456Y-17526055D02*
X11574932Y-17507007D01*
X11574932Y-17507007D02*
X11565409Y-17478436D01*
X11565409Y-17478436D02*
X11555885Y-17430817D01*
X11555885Y-17430817D02*
X11555885Y-17392721D01*
X11555885Y-17392721D02*
X11565409Y-17345102D01*
X11565409Y-17345102D02*
X11574932Y-17316531D01*
X11574932Y-17316531D02*
X11584456Y-17297483D01*
X11584456Y-17297483D02*
X11603504Y-17268912D01*
X11603504Y-17268912D02*
X11613028Y-17259388D01*
X11717789Y-17373674D02*
X11698742Y-17364150D01*
X11698742Y-17364150D02*
X11689218Y-17354626D01*
X11689218Y-17354626D02*
X11679694Y-17335579D01*
X11679694Y-17335579D02*
X11679694Y-17326055D01*
X11679694Y-17326055D02*
X11689218Y-17307007D01*
X11689218Y-17307007D02*
X11698742Y-17297483D01*
X11698742Y-17297483D02*
X11717789Y-17287960D01*
X11717789Y-17287960D02*
X11755885Y-17287960D01*
X11755885Y-17287960D02*
X11774932Y-17297483D01*
X11774932Y-17297483D02*
X11784456Y-17307007D01*
X11784456Y-17307007D02*
X11793980Y-17326055D01*
X11793980Y-17326055D02*
X11793980Y-17335579D01*
X11793980Y-17335579D02*
X11784456Y-17354626D01*
X11784456Y-17354626D02*
X11774932Y-17364150D01*
X11774932Y-17364150D02*
X11755885Y-17373674D01*
X11755885Y-17373674D02*
X11717789Y-17373674D01*
X11717789Y-17373674D02*
X11698742Y-17383198D01*
X11698742Y-17383198D02*
X11689218Y-17392721D01*
X11689218Y-17392721D02*
X11679694Y-17411769D01*
X11679694Y-17411769D02*
X11679694Y-17449864D01*
X11679694Y-17449864D02*
X11689218Y-17468912D01*
X11689218Y-17468912D02*
X11698742Y-17478436D01*
X11698742Y-17478436D02*
X11717789Y-17487960D01*
X11717789Y-17487960D02*
X11755885Y-17487960D01*
X11755885Y-17487960D02*
X11774932Y-17478436D01*
X11774932Y-17478436D02*
X11784456Y-17468912D01*
X11784456Y-17468912D02*
X11793980Y-17449864D01*
X11793980Y-17449864D02*
X11793980Y-17411769D01*
X11793980Y-17411769D02*
X11784456Y-17392721D01*
X11784456Y-17392721D02*
X11774932Y-17383198D01*
X11774932Y-17383198D02*
X11755885Y-17373674D01*
X12032075Y-17487960D02*
X12032075Y-17287960D01*
X12117790Y-17487960D02*
X12117790Y-17383198D01*
X12117790Y-17383198D02*
X12108266Y-17364150D01*
X12108266Y-17364150D02*
X12089218Y-17354626D01*
X12089218Y-17354626D02*
X12060647Y-17354626D01*
X12060647Y-17354626D02*
X12041599Y-17364150D01*
X12041599Y-17364150D02*
X12032075Y-17373674D01*
X12241599Y-17487960D02*
X12222551Y-17478436D01*
X12222551Y-17478436D02*
X12213028Y-17468912D01*
X12213028Y-17468912D02*
X12203504Y-17449864D01*
X12203504Y-17449864D02*
X12203504Y-17392721D01*
X12203504Y-17392721D02*
X12213028Y-17373674D01*
X12213028Y-17373674D02*
X12222551Y-17364150D01*
X12222551Y-17364150D02*
X12241599Y-17354626D01*
X12241599Y-17354626D02*
X12270171Y-17354626D01*
X12270171Y-17354626D02*
X12289218Y-17364150D01*
X12289218Y-17364150D02*
X12298742Y-17373674D01*
X12298742Y-17373674D02*
X12308266Y-17392721D01*
X12308266Y-17392721D02*
X12308266Y-17449864D01*
X12308266Y-17449864D02*
X12298742Y-17468912D01*
X12298742Y-17468912D02*
X12289218Y-17478436D01*
X12289218Y-17478436D02*
X12270171Y-17487960D01*
X12270171Y-17487960D02*
X12241599Y-17487960D01*
X12422551Y-17487960D02*
X12403504Y-17478436D01*
X12403504Y-17478436D02*
X12393980Y-17459388D01*
X12393980Y-17459388D02*
X12393980Y-17287960D01*
X12574932Y-17478436D02*
X12555885Y-17487960D01*
X12555885Y-17487960D02*
X12517790Y-17487960D01*
X12517790Y-17487960D02*
X12498742Y-17478436D01*
X12498742Y-17478436D02*
X12489218Y-17459388D01*
X12489218Y-17459388D02*
X12489218Y-17383198D01*
X12489218Y-17383198D02*
X12498742Y-17364150D01*
X12498742Y-17364150D02*
X12517790Y-17354626D01*
X12517790Y-17354626D02*
X12555885Y-17354626D01*
X12555885Y-17354626D02*
X12574932Y-17364150D01*
X12574932Y-17364150D02*
X12584456Y-17383198D01*
X12584456Y-17383198D02*
X12584456Y-17402245D01*
X12584456Y-17402245D02*
X12489218Y-17421293D01*
X12660647Y-17478436D02*
X12679694Y-17487960D01*
X12679694Y-17487960D02*
X12717790Y-17487960D01*
X12717790Y-17487960D02*
X12736837Y-17478436D01*
X12736837Y-17478436D02*
X12746361Y-17459388D01*
X12746361Y-17459388D02*
X12746361Y-17449864D01*
X12746361Y-17449864D02*
X12736837Y-17430817D01*
X12736837Y-17430817D02*
X12717790Y-17421293D01*
X12717790Y-17421293D02*
X12689218Y-17421293D01*
X12689218Y-17421293D02*
X12670171Y-17411769D01*
X12670171Y-17411769D02*
X12660647Y-17392721D01*
X12660647Y-17392721D02*
X12660647Y-17383198D01*
X12660647Y-17383198D02*
X12670171Y-17364150D01*
X12670171Y-17364150D02*
X12689218Y-17354626D01*
X12689218Y-17354626D02*
X12717790Y-17354626D01*
X12717790Y-17354626D02*
X12736837Y-17364150D01*
X12813028Y-17564150D02*
X12822552Y-17554626D01*
X12822552Y-17554626D02*
X12841599Y-17526055D01*
X12841599Y-17526055D02*
X12851123Y-17507007D01*
X12851123Y-17507007D02*
X12860647Y-17478436D01*
X12860647Y-17478436D02*
X12870171Y-17430817D01*
X12870171Y-17430817D02*
X12870171Y-17392721D01*
X12870171Y-17392721D02*
X12860647Y-17345102D01*
X12860647Y-17345102D02*
X12851123Y-17316531D01*
X12851123Y-17316531D02*
X12841599Y-17297483D01*
X12841599Y-17297483D02*
X12822552Y-17268912D01*
X12822552Y-17268912D02*
X12813028Y-17259388D01*
D16*
X7951123Y-17609436D02*
X8051123Y-17709436D01*
X8051123Y-17609436D02*
X7951123Y-17709436D01*
X8036478Y-17694791D02*
X8036478Y-17624080D01*
X7965767Y-17624080D01*
X7965767Y-17694791D01*
X8036478Y-17694791D01*
D10*
X8403504Y-17751960D02*
X8289218Y-17751960D01*
X8346361Y-17751960D02*
X8346361Y-17551960D01*
X8346361Y-17551960D02*
X8327313Y-17580531D01*
X8327313Y-17580531D02*
X8308265Y-17599579D01*
X8308265Y-17599579D02*
X8289218Y-17609102D01*
X8489218Y-17732912D02*
X8498742Y-17742436D01*
X8498742Y-17742436D02*
X8489218Y-17751960D01*
X8489218Y-17751960D02*
X8479694Y-17742436D01*
X8479694Y-17742436D02*
X8489218Y-17732912D01*
X8489218Y-17732912D02*
X8489218Y-17751960D01*
X8622551Y-17551960D02*
X8641599Y-17551960D01*
X8641599Y-17551960D02*
X8660646Y-17561483D01*
X8660646Y-17561483D02*
X8670170Y-17571007D01*
X8670170Y-17571007D02*
X8679694Y-17590055D01*
X8679694Y-17590055D02*
X8689218Y-17628150D01*
X8689218Y-17628150D02*
X8689218Y-17675769D01*
X8689218Y-17675769D02*
X8679694Y-17713864D01*
X8679694Y-17713864D02*
X8670170Y-17732912D01*
X8670170Y-17732912D02*
X8660646Y-17742436D01*
X8660646Y-17742436D02*
X8641599Y-17751960D01*
X8641599Y-17751960D02*
X8622551Y-17751960D01*
X8622551Y-17751960D02*
X8603504Y-17742436D01*
X8603504Y-17742436D02*
X8593980Y-17732912D01*
X8593980Y-17732912D02*
X8584456Y-17713864D01*
X8584456Y-17713864D02*
X8574932Y-17675769D01*
X8574932Y-17675769D02*
X8574932Y-17628150D01*
X8574932Y-17628150D02*
X8584456Y-17590055D01*
X8584456Y-17590055D02*
X8593980Y-17571007D01*
X8593980Y-17571007D02*
X8603504Y-17561483D01*
X8603504Y-17561483D02*
X8622551Y-17551960D01*
X8813027Y-17551960D02*
X8832075Y-17551960D01*
X8832075Y-17551960D02*
X8851123Y-17561483D01*
X8851123Y-17561483D02*
X8860646Y-17571007D01*
X8860646Y-17571007D02*
X8870170Y-17590055D01*
X8870170Y-17590055D02*
X8879694Y-17628150D01*
X8879694Y-17628150D02*
X8879694Y-17675769D01*
X8879694Y-17675769D02*
X8870170Y-17713864D01*
X8870170Y-17713864D02*
X8860646Y-17732912D01*
X8860646Y-17732912D02*
X8851123Y-17742436D01*
X8851123Y-17742436D02*
X8832075Y-17751960D01*
X8832075Y-17751960D02*
X8813027Y-17751960D01*
X8813027Y-17751960D02*
X8793980Y-17742436D01*
X8793980Y-17742436D02*
X8784456Y-17732912D01*
X8784456Y-17732912D02*
X8774932Y-17713864D01*
X8774932Y-17713864D02*
X8765408Y-17675769D01*
X8765408Y-17675769D02*
X8765408Y-17628150D01*
X8765408Y-17628150D02*
X8774932Y-17590055D01*
X8774932Y-17590055D02*
X8784456Y-17571007D01*
X8784456Y-17571007D02*
X8793980Y-17561483D01*
X8793980Y-17561483D02*
X8813027Y-17551960D01*
X9003504Y-17551960D02*
X9022551Y-17551960D01*
X9022551Y-17551960D02*
X9041599Y-17561483D01*
X9041599Y-17561483D02*
X9051123Y-17571007D01*
X9051123Y-17571007D02*
X9060646Y-17590055D01*
X9060646Y-17590055D02*
X9070170Y-17628150D01*
X9070170Y-17628150D02*
X9070170Y-17675769D01*
X9070170Y-17675769D02*
X9060646Y-17713864D01*
X9060646Y-17713864D02*
X9051123Y-17732912D01*
X9051123Y-17732912D02*
X9041599Y-17742436D01*
X9041599Y-17742436D02*
X9022551Y-17751960D01*
X9022551Y-17751960D02*
X9003504Y-17751960D01*
X9003504Y-17751960D02*
X8984456Y-17742436D01*
X8984456Y-17742436D02*
X8974932Y-17732912D01*
X8974932Y-17732912D02*
X8965408Y-17713864D01*
X8965408Y-17713864D02*
X8955885Y-17675769D01*
X8955885Y-17675769D02*
X8955885Y-17628150D01*
X8955885Y-17628150D02*
X8965408Y-17590055D01*
X8965408Y-17590055D02*
X8974932Y-17571007D01*
X8974932Y-17571007D02*
X8984456Y-17561483D01*
X8984456Y-17561483D02*
X9003504Y-17551960D01*
X9155885Y-17751960D02*
X9155885Y-17618626D01*
X9155885Y-17637674D02*
X9165408Y-17628150D01*
X9165408Y-17628150D02*
X9184456Y-17618626D01*
X9184456Y-17618626D02*
X9213027Y-17618626D01*
X9213027Y-17618626D02*
X9232075Y-17628150D01*
X9232075Y-17628150D02*
X9241599Y-17647198D01*
X9241599Y-17647198D02*
X9241599Y-17751960D01*
X9241599Y-17647198D02*
X9251123Y-17628150D01*
X9251123Y-17628150D02*
X9270170Y-17618626D01*
X9270170Y-17618626D02*
X9298742Y-17618626D01*
X9298742Y-17618626D02*
X9317789Y-17628150D01*
X9317789Y-17628150D02*
X9327313Y-17647198D01*
X9327313Y-17647198D02*
X9327313Y-17751960D01*
X9422551Y-17751960D02*
X9422551Y-17618626D01*
X9422551Y-17637674D02*
X9432075Y-17628150D01*
X9432075Y-17628150D02*
X9451123Y-17618626D01*
X9451123Y-17618626D02*
X9479694Y-17618626D01*
X9479694Y-17618626D02*
X9498742Y-17628150D01*
X9498742Y-17628150D02*
X9508266Y-17647198D01*
X9508266Y-17647198D02*
X9508266Y-17751960D01*
X9508266Y-17647198D02*
X9517789Y-17628150D01*
X9517789Y-17628150D02*
X9536837Y-17618626D01*
X9536837Y-17618626D02*
X9565408Y-17618626D01*
X9565408Y-17618626D02*
X9584456Y-17628150D01*
X9584456Y-17628150D02*
X9593980Y-17647198D01*
X9593980Y-17647198D02*
X9593980Y-17751960D01*
X9984456Y-17542436D02*
X9813028Y-17799579D01*
X10241599Y-17551960D02*
X10260647Y-17551960D01*
X10260647Y-17551960D02*
X10279694Y-17561483D01*
X10279694Y-17561483D02*
X10289218Y-17571007D01*
X10289218Y-17571007D02*
X10298742Y-17590055D01*
X10298742Y-17590055D02*
X10308266Y-17628150D01*
X10308266Y-17628150D02*
X10308266Y-17675769D01*
X10308266Y-17675769D02*
X10298742Y-17713864D01*
X10298742Y-17713864D02*
X10289218Y-17732912D01*
X10289218Y-17732912D02*
X10279694Y-17742436D01*
X10279694Y-17742436D02*
X10260647Y-17751960D01*
X10260647Y-17751960D02*
X10241599Y-17751960D01*
X10241599Y-17751960D02*
X10222551Y-17742436D01*
X10222551Y-17742436D02*
X10213028Y-17732912D01*
X10213028Y-17732912D02*
X10203504Y-17713864D01*
X10203504Y-17713864D02*
X10193980Y-17675769D01*
X10193980Y-17675769D02*
X10193980Y-17628150D01*
X10193980Y-17628150D02*
X10203504Y-17590055D01*
X10203504Y-17590055D02*
X10213028Y-17571007D01*
X10213028Y-17571007D02*
X10222551Y-17561483D01*
X10222551Y-17561483D02*
X10241599Y-17551960D01*
X10393980Y-17732912D02*
X10403504Y-17742436D01*
X10403504Y-17742436D02*
X10393980Y-17751960D01*
X10393980Y-17751960D02*
X10384456Y-17742436D01*
X10384456Y-17742436D02*
X10393980Y-17732912D01*
X10393980Y-17732912D02*
X10393980Y-17751960D01*
X10527313Y-17551960D02*
X10546361Y-17551960D01*
X10546361Y-17551960D02*
X10565409Y-17561483D01*
X10565409Y-17561483D02*
X10574932Y-17571007D01*
X10574932Y-17571007D02*
X10584456Y-17590055D01*
X10584456Y-17590055D02*
X10593980Y-17628150D01*
X10593980Y-17628150D02*
X10593980Y-17675769D01*
X10593980Y-17675769D02*
X10584456Y-17713864D01*
X10584456Y-17713864D02*
X10574932Y-17732912D01*
X10574932Y-17732912D02*
X10565409Y-17742436D01*
X10565409Y-17742436D02*
X10546361Y-17751960D01*
X10546361Y-17751960D02*
X10527313Y-17751960D01*
X10527313Y-17751960D02*
X10508266Y-17742436D01*
X10508266Y-17742436D02*
X10498742Y-17732912D01*
X10498742Y-17732912D02*
X10489218Y-17713864D01*
X10489218Y-17713864D02*
X10479694Y-17675769D01*
X10479694Y-17675769D02*
X10479694Y-17628150D01*
X10479694Y-17628150D02*
X10489218Y-17590055D01*
X10489218Y-17590055D02*
X10498742Y-17571007D01*
X10498742Y-17571007D02*
X10508266Y-17561483D01*
X10508266Y-17561483D02*
X10527313Y-17551960D01*
X10660647Y-17551960D02*
X10784456Y-17551960D01*
X10784456Y-17551960D02*
X10717789Y-17628150D01*
X10717789Y-17628150D02*
X10746361Y-17628150D01*
X10746361Y-17628150D02*
X10765409Y-17637674D01*
X10765409Y-17637674D02*
X10774932Y-17647198D01*
X10774932Y-17647198D02*
X10784456Y-17666245D01*
X10784456Y-17666245D02*
X10784456Y-17713864D01*
X10784456Y-17713864D02*
X10774932Y-17732912D01*
X10774932Y-17732912D02*
X10765409Y-17742436D01*
X10765409Y-17742436D02*
X10746361Y-17751960D01*
X10746361Y-17751960D02*
X10689218Y-17751960D01*
X10689218Y-17751960D02*
X10670170Y-17742436D01*
X10670170Y-17742436D02*
X10660647Y-17732912D01*
X10879694Y-17751960D02*
X10917789Y-17751960D01*
X10917789Y-17751960D02*
X10936837Y-17742436D01*
X10936837Y-17742436D02*
X10946361Y-17732912D01*
X10946361Y-17732912D02*
X10965409Y-17704340D01*
X10965409Y-17704340D02*
X10974932Y-17666245D01*
X10974932Y-17666245D02*
X10974932Y-17590055D01*
X10974932Y-17590055D02*
X10965409Y-17571007D01*
X10965409Y-17571007D02*
X10955885Y-17561483D01*
X10955885Y-17561483D02*
X10936837Y-17551960D01*
X10936837Y-17551960D02*
X10898742Y-17551960D01*
X10898742Y-17551960D02*
X10879694Y-17561483D01*
X10879694Y-17561483D02*
X10870170Y-17571007D01*
X10870170Y-17571007D02*
X10860647Y-17590055D01*
X10860647Y-17590055D02*
X10860647Y-17637674D01*
X10860647Y-17637674D02*
X10870170Y-17656721D01*
X10870170Y-17656721D02*
X10879694Y-17666245D01*
X10879694Y-17666245D02*
X10898742Y-17675769D01*
X10898742Y-17675769D02*
X10936837Y-17675769D01*
X10936837Y-17675769D02*
X10955885Y-17666245D01*
X10955885Y-17666245D02*
X10965409Y-17656721D01*
X10965409Y-17656721D02*
X10974932Y-17637674D01*
X11146361Y-17618626D02*
X11146361Y-17751960D01*
X11098742Y-17542436D02*
X11051123Y-17685293D01*
X11051123Y-17685293D02*
X11174932Y-17685293D01*
X11241599Y-17551960D02*
X11241599Y-17590055D01*
X11317789Y-17551960D02*
X11317789Y-17590055D01*
X11613028Y-17828150D02*
X11603504Y-17818626D01*
X11603504Y-17818626D02*
X11584456Y-17790055D01*
X11584456Y-17790055D02*
X11574932Y-17771007D01*
X11574932Y-17771007D02*
X11565409Y-17742436D01*
X11565409Y-17742436D02*
X11555885Y-17694817D01*
X11555885Y-17694817D02*
X11555885Y-17656721D01*
X11555885Y-17656721D02*
X11565409Y-17609102D01*
X11565409Y-17609102D02*
X11574932Y-17580531D01*
X11574932Y-17580531D02*
X11584456Y-17561483D01*
X11584456Y-17561483D02*
X11603504Y-17532912D01*
X11603504Y-17532912D02*
X11613028Y-17523388D01*
X11793980Y-17751960D02*
X11679694Y-17751960D01*
X11736837Y-17751960D02*
X11736837Y-17551960D01*
X11736837Y-17551960D02*
X11717789Y-17580531D01*
X11717789Y-17580531D02*
X11698742Y-17599579D01*
X11698742Y-17599579D02*
X11679694Y-17609102D01*
X12032075Y-17751960D02*
X12032075Y-17551960D01*
X12117790Y-17751960D02*
X12117790Y-17647198D01*
X12117790Y-17647198D02*
X12108266Y-17628150D01*
X12108266Y-17628150D02*
X12089218Y-17618626D01*
X12089218Y-17618626D02*
X12060647Y-17618626D01*
X12060647Y-17618626D02*
X12041599Y-17628150D01*
X12041599Y-17628150D02*
X12032075Y-17637674D01*
X12241599Y-17751960D02*
X12222551Y-17742436D01*
X12222551Y-17742436D02*
X12213028Y-17732912D01*
X12213028Y-17732912D02*
X12203504Y-17713864D01*
X12203504Y-17713864D02*
X12203504Y-17656721D01*
X12203504Y-17656721D02*
X12213028Y-17637674D01*
X12213028Y-17637674D02*
X12222551Y-17628150D01*
X12222551Y-17628150D02*
X12241599Y-17618626D01*
X12241599Y-17618626D02*
X12270171Y-17618626D01*
X12270171Y-17618626D02*
X12289218Y-17628150D01*
X12289218Y-17628150D02*
X12298742Y-17637674D01*
X12298742Y-17637674D02*
X12308266Y-17656721D01*
X12308266Y-17656721D02*
X12308266Y-17713864D01*
X12308266Y-17713864D02*
X12298742Y-17732912D01*
X12298742Y-17732912D02*
X12289218Y-17742436D01*
X12289218Y-17742436D02*
X12270171Y-17751960D01*
X12270171Y-17751960D02*
X12241599Y-17751960D01*
X12422551Y-17751960D02*
X12403504Y-17742436D01*
X12403504Y-17742436D02*
X12393980Y-17723388D01*
X12393980Y-17723388D02*
X12393980Y-17551960D01*
X12574932Y-17742436D02*
X12555885Y-17751960D01*
X12555885Y-17751960D02*
X12517790Y-17751960D01*
X12517790Y-17751960D02*
X12498742Y-17742436D01*
X12498742Y-17742436D02*
X12489218Y-17723388D01*
X12489218Y-17723388D02*
X12489218Y-17647198D01*
X12489218Y-17647198D02*
X12498742Y-17628150D01*
X12498742Y-17628150D02*
X12517790Y-17618626D01*
X12517790Y-17618626D02*
X12555885Y-17618626D01*
X12555885Y-17618626D02*
X12574932Y-17628150D01*
X12574932Y-17628150D02*
X12584456Y-17647198D01*
X12584456Y-17647198D02*
X12584456Y-17666245D01*
X12584456Y-17666245D02*
X12489218Y-17685293D01*
X12651123Y-17828150D02*
X12660647Y-17818626D01*
X12660647Y-17818626D02*
X12679694Y-17790055D01*
X12679694Y-17790055D02*
X12689218Y-17771007D01*
X12689218Y-17771007D02*
X12698742Y-17742436D01*
X12698742Y-17742436D02*
X12708266Y-17694817D01*
X12708266Y-17694817D02*
X12708266Y-17656721D01*
X12708266Y-17656721D02*
X12698742Y-17609102D01*
X12698742Y-17609102D02*
X12689218Y-17580531D01*
X12689218Y-17580531D02*
X12679694Y-17561483D01*
X12679694Y-17561483D02*
X12660647Y-17532912D01*
X12660647Y-17532912D02*
X12651123Y-17523388D01*
D17*
X7941123Y-17868436D02*
X8051123Y-17978436D01*
X8051123Y-17868436D02*
X7941123Y-17978436D01*
X7996123Y-17978436D02*
X8051123Y-17923436D01*
X7996123Y-17868436D01*
X7941123Y-17923436D01*
X7996123Y-17978436D01*
D10*
X8403504Y-18015960D02*
X8289218Y-18015960D01*
X8346361Y-18015960D02*
X8346361Y-17815960D01*
X8346361Y-17815960D02*
X8327313Y-17844531D01*
X8327313Y-17844531D02*
X8308265Y-17863579D01*
X8308265Y-17863579D02*
X8289218Y-17873102D01*
X8489218Y-17996912D02*
X8498742Y-18006436D01*
X8498742Y-18006436D02*
X8489218Y-18015960D01*
X8489218Y-18015960D02*
X8479694Y-18006436D01*
X8479694Y-18006436D02*
X8489218Y-17996912D01*
X8489218Y-17996912D02*
X8489218Y-18015960D01*
X8689218Y-18015960D02*
X8574932Y-18015960D01*
X8632075Y-18015960D02*
X8632075Y-17815960D01*
X8632075Y-17815960D02*
X8613027Y-17844531D01*
X8613027Y-17844531D02*
X8593980Y-17863579D01*
X8593980Y-17863579D02*
X8574932Y-17873102D01*
X8813027Y-17815960D02*
X8832075Y-17815960D01*
X8832075Y-17815960D02*
X8851123Y-17825483D01*
X8851123Y-17825483D02*
X8860646Y-17835007D01*
X8860646Y-17835007D02*
X8870170Y-17854055D01*
X8870170Y-17854055D02*
X8879694Y-17892150D01*
X8879694Y-17892150D02*
X8879694Y-17939769D01*
X8879694Y-17939769D02*
X8870170Y-17977864D01*
X8870170Y-17977864D02*
X8860646Y-17996912D01*
X8860646Y-17996912D02*
X8851123Y-18006436D01*
X8851123Y-18006436D02*
X8832075Y-18015960D01*
X8832075Y-18015960D02*
X8813027Y-18015960D01*
X8813027Y-18015960D02*
X8793980Y-18006436D01*
X8793980Y-18006436D02*
X8784456Y-17996912D01*
X8784456Y-17996912D02*
X8774932Y-17977864D01*
X8774932Y-17977864D02*
X8765408Y-17939769D01*
X8765408Y-17939769D02*
X8765408Y-17892150D01*
X8765408Y-17892150D02*
X8774932Y-17854055D01*
X8774932Y-17854055D02*
X8784456Y-17835007D01*
X8784456Y-17835007D02*
X8793980Y-17825483D01*
X8793980Y-17825483D02*
X8813027Y-17815960D01*
X9003504Y-17815960D02*
X9022551Y-17815960D01*
X9022551Y-17815960D02*
X9041599Y-17825483D01*
X9041599Y-17825483D02*
X9051123Y-17835007D01*
X9051123Y-17835007D02*
X9060646Y-17854055D01*
X9060646Y-17854055D02*
X9070170Y-17892150D01*
X9070170Y-17892150D02*
X9070170Y-17939769D01*
X9070170Y-17939769D02*
X9060646Y-17977864D01*
X9060646Y-17977864D02*
X9051123Y-17996912D01*
X9051123Y-17996912D02*
X9041599Y-18006436D01*
X9041599Y-18006436D02*
X9022551Y-18015960D01*
X9022551Y-18015960D02*
X9003504Y-18015960D01*
X9003504Y-18015960D02*
X8984456Y-18006436D01*
X8984456Y-18006436D02*
X8974932Y-17996912D01*
X8974932Y-17996912D02*
X8965408Y-17977864D01*
X8965408Y-17977864D02*
X8955885Y-17939769D01*
X8955885Y-17939769D02*
X8955885Y-17892150D01*
X8955885Y-17892150D02*
X8965408Y-17854055D01*
X8965408Y-17854055D02*
X8974932Y-17835007D01*
X8974932Y-17835007D02*
X8984456Y-17825483D01*
X8984456Y-17825483D02*
X9003504Y-17815960D01*
X9155885Y-18015960D02*
X9155885Y-17882626D01*
X9155885Y-17901674D02*
X9165408Y-17892150D01*
X9165408Y-17892150D02*
X9184456Y-17882626D01*
X9184456Y-17882626D02*
X9213027Y-17882626D01*
X9213027Y-17882626D02*
X9232075Y-17892150D01*
X9232075Y-17892150D02*
X9241599Y-17911198D01*
X9241599Y-17911198D02*
X9241599Y-18015960D01*
X9241599Y-17911198D02*
X9251123Y-17892150D01*
X9251123Y-17892150D02*
X9270170Y-17882626D01*
X9270170Y-17882626D02*
X9298742Y-17882626D01*
X9298742Y-17882626D02*
X9317789Y-17892150D01*
X9317789Y-17892150D02*
X9327313Y-17911198D01*
X9327313Y-17911198D02*
X9327313Y-18015960D01*
X9422551Y-18015960D02*
X9422551Y-17882626D01*
X9422551Y-17901674D02*
X9432075Y-17892150D01*
X9432075Y-17892150D02*
X9451123Y-17882626D01*
X9451123Y-17882626D02*
X9479694Y-17882626D01*
X9479694Y-17882626D02*
X9498742Y-17892150D01*
X9498742Y-17892150D02*
X9508266Y-17911198D01*
X9508266Y-17911198D02*
X9508266Y-18015960D01*
X9508266Y-17911198D02*
X9517789Y-17892150D01*
X9517789Y-17892150D02*
X9536837Y-17882626D01*
X9536837Y-17882626D02*
X9565408Y-17882626D01*
X9565408Y-17882626D02*
X9584456Y-17892150D01*
X9584456Y-17892150D02*
X9593980Y-17911198D01*
X9593980Y-17911198D02*
X9593980Y-18015960D01*
X9984456Y-17806436D02*
X9813028Y-18063579D01*
X10241599Y-17815960D02*
X10260647Y-17815960D01*
X10260647Y-17815960D02*
X10279694Y-17825483D01*
X10279694Y-17825483D02*
X10289218Y-17835007D01*
X10289218Y-17835007D02*
X10298742Y-17854055D01*
X10298742Y-17854055D02*
X10308266Y-17892150D01*
X10308266Y-17892150D02*
X10308266Y-17939769D01*
X10308266Y-17939769D02*
X10298742Y-17977864D01*
X10298742Y-17977864D02*
X10289218Y-17996912D01*
X10289218Y-17996912D02*
X10279694Y-18006436D01*
X10279694Y-18006436D02*
X10260647Y-18015960D01*
X10260647Y-18015960D02*
X10241599Y-18015960D01*
X10241599Y-18015960D02*
X10222551Y-18006436D01*
X10222551Y-18006436D02*
X10213028Y-17996912D01*
X10213028Y-17996912D02*
X10203504Y-17977864D01*
X10203504Y-17977864D02*
X10193980Y-17939769D01*
X10193980Y-17939769D02*
X10193980Y-17892150D01*
X10193980Y-17892150D02*
X10203504Y-17854055D01*
X10203504Y-17854055D02*
X10213028Y-17835007D01*
X10213028Y-17835007D02*
X10222551Y-17825483D01*
X10222551Y-17825483D02*
X10241599Y-17815960D01*
X10393980Y-17996912D02*
X10403504Y-18006436D01*
X10403504Y-18006436D02*
X10393980Y-18015960D01*
X10393980Y-18015960D02*
X10384456Y-18006436D01*
X10384456Y-18006436D02*
X10393980Y-17996912D01*
X10393980Y-17996912D02*
X10393980Y-18015960D01*
X10527313Y-17815960D02*
X10546361Y-17815960D01*
X10546361Y-17815960D02*
X10565409Y-17825483D01*
X10565409Y-17825483D02*
X10574932Y-17835007D01*
X10574932Y-17835007D02*
X10584456Y-17854055D01*
X10584456Y-17854055D02*
X10593980Y-17892150D01*
X10593980Y-17892150D02*
X10593980Y-17939769D01*
X10593980Y-17939769D02*
X10584456Y-17977864D01*
X10584456Y-17977864D02*
X10574932Y-17996912D01*
X10574932Y-17996912D02*
X10565409Y-18006436D01*
X10565409Y-18006436D02*
X10546361Y-18015960D01*
X10546361Y-18015960D02*
X10527313Y-18015960D01*
X10527313Y-18015960D02*
X10508266Y-18006436D01*
X10508266Y-18006436D02*
X10498742Y-17996912D01*
X10498742Y-17996912D02*
X10489218Y-17977864D01*
X10489218Y-17977864D02*
X10479694Y-17939769D01*
X10479694Y-17939769D02*
X10479694Y-17892150D01*
X10479694Y-17892150D02*
X10489218Y-17854055D01*
X10489218Y-17854055D02*
X10498742Y-17835007D01*
X10498742Y-17835007D02*
X10508266Y-17825483D01*
X10508266Y-17825483D02*
X10527313Y-17815960D01*
X10765409Y-17882626D02*
X10765409Y-18015960D01*
X10717789Y-17806436D02*
X10670170Y-17949293D01*
X10670170Y-17949293D02*
X10793980Y-17949293D01*
X10851123Y-17815960D02*
X10974932Y-17815960D01*
X10974932Y-17815960D02*
X10908266Y-17892150D01*
X10908266Y-17892150D02*
X10936837Y-17892150D01*
X10936837Y-17892150D02*
X10955885Y-17901674D01*
X10955885Y-17901674D02*
X10965409Y-17911198D01*
X10965409Y-17911198D02*
X10974932Y-17930245D01*
X10974932Y-17930245D02*
X10974932Y-17977864D01*
X10974932Y-17977864D02*
X10965409Y-17996912D01*
X10965409Y-17996912D02*
X10955885Y-18006436D01*
X10955885Y-18006436D02*
X10936837Y-18015960D01*
X10936837Y-18015960D02*
X10879694Y-18015960D01*
X10879694Y-18015960D02*
X10860647Y-18006436D01*
X10860647Y-18006436D02*
X10851123Y-17996912D01*
X11041599Y-17815960D02*
X11165409Y-17815960D01*
X11165409Y-17815960D02*
X11098742Y-17892150D01*
X11098742Y-17892150D02*
X11127313Y-17892150D01*
X11127313Y-17892150D02*
X11146361Y-17901674D01*
X11146361Y-17901674D02*
X11155885Y-17911198D01*
X11155885Y-17911198D02*
X11165409Y-17930245D01*
X11165409Y-17930245D02*
X11165409Y-17977864D01*
X11165409Y-17977864D02*
X11155885Y-17996912D01*
X11155885Y-17996912D02*
X11146361Y-18006436D01*
X11146361Y-18006436D02*
X11127313Y-18015960D01*
X11127313Y-18015960D02*
X11070170Y-18015960D01*
X11070170Y-18015960D02*
X11051123Y-18006436D01*
X11051123Y-18006436D02*
X11041599Y-17996912D01*
X11241599Y-17815960D02*
X11241599Y-17854055D01*
X11317789Y-17815960D02*
X11317789Y-17854055D01*
X11613028Y-18092150D02*
X11603504Y-18082626D01*
X11603504Y-18082626D02*
X11584456Y-18054055D01*
X11584456Y-18054055D02*
X11574932Y-18035007D01*
X11574932Y-18035007D02*
X11565409Y-18006436D01*
X11565409Y-18006436D02*
X11555885Y-17958817D01*
X11555885Y-17958817D02*
X11555885Y-17920721D01*
X11555885Y-17920721D02*
X11565409Y-17873102D01*
X11565409Y-17873102D02*
X11574932Y-17844531D01*
X11574932Y-17844531D02*
X11584456Y-17825483D01*
X11584456Y-17825483D02*
X11603504Y-17796912D01*
X11603504Y-17796912D02*
X11613028Y-17787388D01*
X11774932Y-17815960D02*
X11736837Y-17815960D01*
X11736837Y-17815960D02*
X11717789Y-17825483D01*
X11717789Y-17825483D02*
X11708266Y-17835007D01*
X11708266Y-17835007D02*
X11689218Y-17863579D01*
X11689218Y-17863579D02*
X11679694Y-17901674D01*
X11679694Y-17901674D02*
X11679694Y-17977864D01*
X11679694Y-17977864D02*
X11689218Y-17996912D01*
X11689218Y-17996912D02*
X11698742Y-18006436D01*
X11698742Y-18006436D02*
X11717789Y-18015960D01*
X11717789Y-18015960D02*
X11755885Y-18015960D01*
X11755885Y-18015960D02*
X11774932Y-18006436D01*
X11774932Y-18006436D02*
X11784456Y-17996912D01*
X11784456Y-17996912D02*
X11793980Y-17977864D01*
X11793980Y-17977864D02*
X11793980Y-17930245D01*
X11793980Y-17930245D02*
X11784456Y-17911198D01*
X11784456Y-17911198D02*
X11774932Y-17901674D01*
X11774932Y-17901674D02*
X11755885Y-17892150D01*
X11755885Y-17892150D02*
X11717789Y-17892150D01*
X11717789Y-17892150D02*
X11698742Y-17901674D01*
X11698742Y-17901674D02*
X11689218Y-17911198D01*
X11689218Y-17911198D02*
X11679694Y-17930245D01*
X12032075Y-18015960D02*
X12032075Y-17815960D01*
X12117790Y-18015960D02*
X12117790Y-17911198D01*
X12117790Y-17911198D02*
X12108266Y-17892150D01*
X12108266Y-17892150D02*
X12089218Y-17882626D01*
X12089218Y-17882626D02*
X12060647Y-17882626D01*
X12060647Y-17882626D02*
X12041599Y-17892150D01*
X12041599Y-17892150D02*
X12032075Y-17901674D01*
X12241599Y-18015960D02*
X12222551Y-18006436D01*
X12222551Y-18006436D02*
X12213028Y-17996912D01*
X12213028Y-17996912D02*
X12203504Y-17977864D01*
X12203504Y-17977864D02*
X12203504Y-17920721D01*
X12203504Y-17920721D02*
X12213028Y-17901674D01*
X12213028Y-17901674D02*
X12222551Y-17892150D01*
X12222551Y-17892150D02*
X12241599Y-17882626D01*
X12241599Y-17882626D02*
X12270171Y-17882626D01*
X12270171Y-17882626D02*
X12289218Y-17892150D01*
X12289218Y-17892150D02*
X12298742Y-17901674D01*
X12298742Y-17901674D02*
X12308266Y-17920721D01*
X12308266Y-17920721D02*
X12308266Y-17977864D01*
X12308266Y-17977864D02*
X12298742Y-17996912D01*
X12298742Y-17996912D02*
X12289218Y-18006436D01*
X12289218Y-18006436D02*
X12270171Y-18015960D01*
X12270171Y-18015960D02*
X12241599Y-18015960D01*
X12422551Y-18015960D02*
X12403504Y-18006436D01*
X12403504Y-18006436D02*
X12393980Y-17987388D01*
X12393980Y-17987388D02*
X12393980Y-17815960D01*
X12574932Y-18006436D02*
X12555885Y-18015960D01*
X12555885Y-18015960D02*
X12517790Y-18015960D01*
X12517790Y-18015960D02*
X12498742Y-18006436D01*
X12498742Y-18006436D02*
X12489218Y-17987388D01*
X12489218Y-17987388D02*
X12489218Y-17911198D01*
X12489218Y-17911198D02*
X12498742Y-17892150D01*
X12498742Y-17892150D02*
X12517790Y-17882626D01*
X12517790Y-17882626D02*
X12555885Y-17882626D01*
X12555885Y-17882626D02*
X12574932Y-17892150D01*
X12574932Y-17892150D02*
X12584456Y-17911198D01*
X12584456Y-17911198D02*
X12584456Y-17930245D01*
X12584456Y-17930245D02*
X12489218Y-17949293D01*
X12660647Y-18006436D02*
X12679694Y-18015960D01*
X12679694Y-18015960D02*
X12717790Y-18015960D01*
X12717790Y-18015960D02*
X12736837Y-18006436D01*
X12736837Y-18006436D02*
X12746361Y-17987388D01*
X12746361Y-17987388D02*
X12746361Y-17977864D01*
X12746361Y-17977864D02*
X12736837Y-17958817D01*
X12736837Y-17958817D02*
X12717790Y-17949293D01*
X12717790Y-17949293D02*
X12689218Y-17949293D01*
X12689218Y-17949293D02*
X12670171Y-17939769D01*
X12670171Y-17939769D02*
X12660647Y-17920721D01*
X12660647Y-17920721D02*
X12660647Y-17911198D01*
X12660647Y-17911198D02*
X12670171Y-17892150D01*
X12670171Y-17892150D02*
X12689218Y-17882626D01*
X12689218Y-17882626D02*
X12717790Y-17882626D01*
X12717790Y-17882626D02*
X12736837Y-17892150D01*
X12813028Y-18092150D02*
X12822552Y-18082626D01*
X12822552Y-18082626D02*
X12841599Y-18054055D01*
X12841599Y-18054055D02*
X12851123Y-18035007D01*
X12851123Y-18035007D02*
X12860647Y-18006436D01*
X12860647Y-18006436D02*
X12870171Y-17958817D01*
X12870171Y-17958817D02*
X12870171Y-17920721D01*
X12870171Y-17920721D02*
X12860647Y-17873102D01*
X12860647Y-17873102D02*
X12851123Y-17844531D01*
X12851123Y-17844531D02*
X12841599Y-17825483D01*
X12841599Y-17825483D02*
X12822552Y-17796912D01*
X12822552Y-17796912D02*
X12813028Y-17787388D01*
D18*
X7991123Y-18127436D02*
X7991123Y-18247436D01*
X7931123Y-18187436D02*
X8051123Y-18187436D01*
X8051123Y-18187436D02*
G75*
G03*
X8051123Y-18187436I-60000J0D01*
G01*
D10*
X8403504Y-18279960D02*
X8289218Y-18279960D01*
X8346361Y-18279960D02*
X8346361Y-18079960D01*
X8346361Y-18079960D02*
X8327313Y-18108531D01*
X8327313Y-18108531D02*
X8308265Y-18127579D01*
X8308265Y-18127579D02*
X8289218Y-18137102D01*
X8489218Y-18260912D02*
X8498742Y-18270436D01*
X8498742Y-18270436D02*
X8489218Y-18279960D01*
X8489218Y-18279960D02*
X8479694Y-18270436D01*
X8479694Y-18270436D02*
X8489218Y-18260912D01*
X8489218Y-18260912D02*
X8489218Y-18279960D01*
X8574932Y-18099007D02*
X8584456Y-18089483D01*
X8584456Y-18089483D02*
X8603504Y-18079960D01*
X8603504Y-18079960D02*
X8651123Y-18079960D01*
X8651123Y-18079960D02*
X8670170Y-18089483D01*
X8670170Y-18089483D02*
X8679694Y-18099007D01*
X8679694Y-18099007D02*
X8689218Y-18118055D01*
X8689218Y-18118055D02*
X8689218Y-18137102D01*
X8689218Y-18137102D02*
X8679694Y-18165674D01*
X8679694Y-18165674D02*
X8565408Y-18279960D01*
X8565408Y-18279960D02*
X8689218Y-18279960D01*
X8813027Y-18079960D02*
X8832075Y-18079960D01*
X8832075Y-18079960D02*
X8851123Y-18089483D01*
X8851123Y-18089483D02*
X8860646Y-18099007D01*
X8860646Y-18099007D02*
X8870170Y-18118055D01*
X8870170Y-18118055D02*
X8879694Y-18156150D01*
X8879694Y-18156150D02*
X8879694Y-18203769D01*
X8879694Y-18203769D02*
X8870170Y-18241864D01*
X8870170Y-18241864D02*
X8860646Y-18260912D01*
X8860646Y-18260912D02*
X8851123Y-18270436D01*
X8851123Y-18270436D02*
X8832075Y-18279960D01*
X8832075Y-18279960D02*
X8813027Y-18279960D01*
X8813027Y-18279960D02*
X8793980Y-18270436D01*
X8793980Y-18270436D02*
X8784456Y-18260912D01*
X8784456Y-18260912D02*
X8774932Y-18241864D01*
X8774932Y-18241864D02*
X8765408Y-18203769D01*
X8765408Y-18203769D02*
X8765408Y-18156150D01*
X8765408Y-18156150D02*
X8774932Y-18118055D01*
X8774932Y-18118055D02*
X8784456Y-18099007D01*
X8784456Y-18099007D02*
X8793980Y-18089483D01*
X8793980Y-18089483D02*
X8813027Y-18079960D01*
X9003504Y-18079960D02*
X9022551Y-18079960D01*
X9022551Y-18079960D02*
X9041599Y-18089483D01*
X9041599Y-18089483D02*
X9051123Y-18099007D01*
X9051123Y-18099007D02*
X9060646Y-18118055D01*
X9060646Y-18118055D02*
X9070170Y-18156150D01*
X9070170Y-18156150D02*
X9070170Y-18203769D01*
X9070170Y-18203769D02*
X9060646Y-18241864D01*
X9060646Y-18241864D02*
X9051123Y-18260912D01*
X9051123Y-18260912D02*
X9041599Y-18270436D01*
X9041599Y-18270436D02*
X9022551Y-18279960D01*
X9022551Y-18279960D02*
X9003504Y-18279960D01*
X9003504Y-18279960D02*
X8984456Y-18270436D01*
X8984456Y-18270436D02*
X8974932Y-18260912D01*
X8974932Y-18260912D02*
X8965408Y-18241864D01*
X8965408Y-18241864D02*
X8955885Y-18203769D01*
X8955885Y-18203769D02*
X8955885Y-18156150D01*
X8955885Y-18156150D02*
X8965408Y-18118055D01*
X8965408Y-18118055D02*
X8974932Y-18099007D01*
X8974932Y-18099007D02*
X8984456Y-18089483D01*
X8984456Y-18089483D02*
X9003504Y-18079960D01*
X9155885Y-18279960D02*
X9155885Y-18146626D01*
X9155885Y-18165674D02*
X9165408Y-18156150D01*
X9165408Y-18156150D02*
X9184456Y-18146626D01*
X9184456Y-18146626D02*
X9213027Y-18146626D01*
X9213027Y-18146626D02*
X9232075Y-18156150D01*
X9232075Y-18156150D02*
X9241599Y-18175198D01*
X9241599Y-18175198D02*
X9241599Y-18279960D01*
X9241599Y-18175198D02*
X9251123Y-18156150D01*
X9251123Y-18156150D02*
X9270170Y-18146626D01*
X9270170Y-18146626D02*
X9298742Y-18146626D01*
X9298742Y-18146626D02*
X9317789Y-18156150D01*
X9317789Y-18156150D02*
X9327313Y-18175198D01*
X9327313Y-18175198D02*
X9327313Y-18279960D01*
X9422551Y-18279960D02*
X9422551Y-18146626D01*
X9422551Y-18165674D02*
X9432075Y-18156150D01*
X9432075Y-18156150D02*
X9451123Y-18146626D01*
X9451123Y-18146626D02*
X9479694Y-18146626D01*
X9479694Y-18146626D02*
X9498742Y-18156150D01*
X9498742Y-18156150D02*
X9508266Y-18175198D01*
X9508266Y-18175198D02*
X9508266Y-18279960D01*
X9508266Y-18175198D02*
X9517789Y-18156150D01*
X9517789Y-18156150D02*
X9536837Y-18146626D01*
X9536837Y-18146626D02*
X9565408Y-18146626D01*
X9565408Y-18146626D02*
X9584456Y-18156150D01*
X9584456Y-18156150D02*
X9593980Y-18175198D01*
X9593980Y-18175198D02*
X9593980Y-18279960D01*
X9984456Y-18070436D02*
X9813028Y-18327579D01*
X10241599Y-18079960D02*
X10260647Y-18079960D01*
X10260647Y-18079960D02*
X10279694Y-18089483D01*
X10279694Y-18089483D02*
X10289218Y-18099007D01*
X10289218Y-18099007D02*
X10298742Y-18118055D01*
X10298742Y-18118055D02*
X10308266Y-18156150D01*
X10308266Y-18156150D02*
X10308266Y-18203769D01*
X10308266Y-18203769D02*
X10298742Y-18241864D01*
X10298742Y-18241864D02*
X10289218Y-18260912D01*
X10289218Y-18260912D02*
X10279694Y-18270436D01*
X10279694Y-18270436D02*
X10260647Y-18279960D01*
X10260647Y-18279960D02*
X10241599Y-18279960D01*
X10241599Y-18279960D02*
X10222551Y-18270436D01*
X10222551Y-18270436D02*
X10213028Y-18260912D01*
X10213028Y-18260912D02*
X10203504Y-18241864D01*
X10203504Y-18241864D02*
X10193980Y-18203769D01*
X10193980Y-18203769D02*
X10193980Y-18156150D01*
X10193980Y-18156150D02*
X10203504Y-18118055D01*
X10203504Y-18118055D02*
X10213028Y-18099007D01*
X10213028Y-18099007D02*
X10222551Y-18089483D01*
X10222551Y-18089483D02*
X10241599Y-18079960D01*
X10393980Y-18260912D02*
X10403504Y-18270436D01*
X10403504Y-18270436D02*
X10393980Y-18279960D01*
X10393980Y-18279960D02*
X10384456Y-18270436D01*
X10384456Y-18270436D02*
X10393980Y-18260912D01*
X10393980Y-18260912D02*
X10393980Y-18279960D01*
X10527313Y-18079960D02*
X10546361Y-18079960D01*
X10546361Y-18079960D02*
X10565409Y-18089483D01*
X10565409Y-18089483D02*
X10574932Y-18099007D01*
X10574932Y-18099007D02*
X10584456Y-18118055D01*
X10584456Y-18118055D02*
X10593980Y-18156150D01*
X10593980Y-18156150D02*
X10593980Y-18203769D01*
X10593980Y-18203769D02*
X10584456Y-18241864D01*
X10584456Y-18241864D02*
X10574932Y-18260912D01*
X10574932Y-18260912D02*
X10565409Y-18270436D01*
X10565409Y-18270436D02*
X10546361Y-18279960D01*
X10546361Y-18279960D02*
X10527313Y-18279960D01*
X10527313Y-18279960D02*
X10508266Y-18270436D01*
X10508266Y-18270436D02*
X10498742Y-18260912D01*
X10498742Y-18260912D02*
X10489218Y-18241864D01*
X10489218Y-18241864D02*
X10479694Y-18203769D01*
X10479694Y-18203769D02*
X10479694Y-18156150D01*
X10479694Y-18156150D02*
X10489218Y-18118055D01*
X10489218Y-18118055D02*
X10498742Y-18099007D01*
X10498742Y-18099007D02*
X10508266Y-18089483D01*
X10508266Y-18089483D02*
X10527313Y-18079960D01*
X10765409Y-18146626D02*
X10765409Y-18279960D01*
X10717789Y-18070436D02*
X10670170Y-18213293D01*
X10670170Y-18213293D02*
X10793980Y-18213293D01*
X10851123Y-18079960D02*
X10984456Y-18079960D01*
X10984456Y-18079960D02*
X10898742Y-18279960D01*
X11051123Y-18099007D02*
X11060647Y-18089483D01*
X11060647Y-18089483D02*
X11079694Y-18079960D01*
X11079694Y-18079960D02*
X11127313Y-18079960D01*
X11127313Y-18079960D02*
X11146361Y-18089483D01*
X11146361Y-18089483D02*
X11155885Y-18099007D01*
X11155885Y-18099007D02*
X11165409Y-18118055D01*
X11165409Y-18118055D02*
X11165409Y-18137102D01*
X11165409Y-18137102D02*
X11155885Y-18165674D01*
X11155885Y-18165674D02*
X11041599Y-18279960D01*
X11041599Y-18279960D02*
X11165409Y-18279960D01*
X11241599Y-18079960D02*
X11241599Y-18118055D01*
X11317789Y-18079960D02*
X11317789Y-18118055D01*
X11613028Y-18356150D02*
X11603504Y-18346626D01*
X11603504Y-18346626D02*
X11584456Y-18318055D01*
X11584456Y-18318055D02*
X11574932Y-18299007D01*
X11574932Y-18299007D02*
X11565409Y-18270436D01*
X11565409Y-18270436D02*
X11555885Y-18222817D01*
X11555885Y-18222817D02*
X11555885Y-18184721D01*
X11555885Y-18184721D02*
X11565409Y-18137102D01*
X11565409Y-18137102D02*
X11574932Y-18108531D01*
X11574932Y-18108531D02*
X11584456Y-18089483D01*
X11584456Y-18089483D02*
X11603504Y-18060912D01*
X11603504Y-18060912D02*
X11613028Y-18051388D01*
X11793980Y-18279960D02*
X11679694Y-18279960D01*
X11736837Y-18279960D02*
X11736837Y-18079960D01*
X11736837Y-18079960D02*
X11717789Y-18108531D01*
X11717789Y-18108531D02*
X11698742Y-18127579D01*
X11698742Y-18127579D02*
X11679694Y-18137102D01*
X11870170Y-18099007D02*
X11879694Y-18089483D01*
X11879694Y-18089483D02*
X11898742Y-18079960D01*
X11898742Y-18079960D02*
X11946361Y-18079960D01*
X11946361Y-18079960D02*
X11965409Y-18089483D01*
X11965409Y-18089483D02*
X11974932Y-18099007D01*
X11974932Y-18099007D02*
X11984456Y-18118055D01*
X11984456Y-18118055D02*
X11984456Y-18137102D01*
X11984456Y-18137102D02*
X11974932Y-18165674D01*
X11974932Y-18165674D02*
X11860647Y-18279960D01*
X11860647Y-18279960D02*
X11984456Y-18279960D01*
X12222551Y-18279960D02*
X12222551Y-18079960D01*
X12308266Y-18279960D02*
X12308266Y-18175198D01*
X12308266Y-18175198D02*
X12298742Y-18156150D01*
X12298742Y-18156150D02*
X12279694Y-18146626D01*
X12279694Y-18146626D02*
X12251123Y-18146626D01*
X12251123Y-18146626D02*
X12232075Y-18156150D01*
X12232075Y-18156150D02*
X12222551Y-18165674D01*
X12432075Y-18279960D02*
X12413028Y-18270436D01*
X12413028Y-18270436D02*
X12403504Y-18260912D01*
X12403504Y-18260912D02*
X12393980Y-18241864D01*
X12393980Y-18241864D02*
X12393980Y-18184721D01*
X12393980Y-18184721D02*
X12403504Y-18165674D01*
X12403504Y-18165674D02*
X12413028Y-18156150D01*
X12413028Y-18156150D02*
X12432075Y-18146626D01*
X12432075Y-18146626D02*
X12460647Y-18146626D01*
X12460647Y-18146626D02*
X12479694Y-18156150D01*
X12479694Y-18156150D02*
X12489218Y-18165674D01*
X12489218Y-18165674D02*
X12498742Y-18184721D01*
X12498742Y-18184721D02*
X12498742Y-18241864D01*
X12498742Y-18241864D02*
X12489218Y-18260912D01*
X12489218Y-18260912D02*
X12479694Y-18270436D01*
X12479694Y-18270436D02*
X12460647Y-18279960D01*
X12460647Y-18279960D02*
X12432075Y-18279960D01*
X12613028Y-18279960D02*
X12593980Y-18270436D01*
X12593980Y-18270436D02*
X12584456Y-18251388D01*
X12584456Y-18251388D02*
X12584456Y-18079960D01*
X12765409Y-18270436D02*
X12746361Y-18279960D01*
X12746361Y-18279960D02*
X12708266Y-18279960D01*
X12708266Y-18279960D02*
X12689218Y-18270436D01*
X12689218Y-18270436D02*
X12679694Y-18251388D01*
X12679694Y-18251388D02*
X12679694Y-18175198D01*
X12679694Y-18175198D02*
X12689218Y-18156150D01*
X12689218Y-18156150D02*
X12708266Y-18146626D01*
X12708266Y-18146626D02*
X12746361Y-18146626D01*
X12746361Y-18146626D02*
X12765409Y-18156150D01*
X12765409Y-18156150D02*
X12774932Y-18175198D01*
X12774932Y-18175198D02*
X12774932Y-18194245D01*
X12774932Y-18194245D02*
X12679694Y-18213293D01*
X12851123Y-18270436D02*
X12870171Y-18279960D01*
X12870171Y-18279960D02*
X12908266Y-18279960D01*
X12908266Y-18279960D02*
X12927313Y-18270436D01*
X12927313Y-18270436D02*
X12936837Y-18251388D01*
X12936837Y-18251388D02*
X12936837Y-18241864D01*
X12936837Y-18241864D02*
X12927313Y-18222817D01*
X12927313Y-18222817D02*
X12908266Y-18213293D01*
X12908266Y-18213293D02*
X12879694Y-18213293D01*
X12879694Y-18213293D02*
X12860647Y-18203769D01*
X12860647Y-18203769D02*
X12851123Y-18184721D01*
X12851123Y-18184721D02*
X12851123Y-18175198D01*
X12851123Y-18175198D02*
X12860647Y-18156150D01*
X12860647Y-18156150D02*
X12879694Y-18146626D01*
X12879694Y-18146626D02*
X12908266Y-18146626D01*
X12908266Y-18146626D02*
X12927313Y-18156150D01*
X13003504Y-18356150D02*
X13013028Y-18346626D01*
X13013028Y-18346626D02*
X13032075Y-18318055D01*
X13032075Y-18318055D02*
X13041599Y-18299007D01*
X13041599Y-18299007D02*
X13051123Y-18270436D01*
X13051123Y-18270436D02*
X13060647Y-18222817D01*
X13060647Y-18222817D02*
X13060647Y-18184721D01*
X13060647Y-18184721D02*
X13051123Y-18137102D01*
X13051123Y-18137102D02*
X13041599Y-18108531D01*
X13041599Y-18108531D02*
X13032075Y-18089483D01*
X13032075Y-18089483D02*
X13013028Y-18060912D01*
X13013028Y-18060912D02*
X13003504Y-18051388D01*
M02*
