G04 #@! TF.GenerationSoftware,KiCad,Pcbnew,7.0.2*
G04 #@! TF.CreationDate,2023-06-19T11:15:08-07:00*
G04 #@! TF.ProjectId,procon_gcc_main_pcb,70726f63-6f6e-45f6-9763-635f6d61696e,1*
G04 #@! TF.SameCoordinates,Original*
G04 #@! TF.FileFunction,Soldermask,Bot*
G04 #@! TF.FilePolarity,Negative*
%FSLAX46Y46*%
G04 Gerber Fmt 4.6, Leading zero omitted, Abs format (unit mm)*
G04 Created by KiCad (PCBNEW 7.0.2) date 2023-06-19 11:15:08*
%MOMM*%
%LPD*%
G01*
G04 APERTURE LIST*
%ADD10O,0.400000X0.900000*%
%ADD11R,1.700000X1.700000*%
%ADD12R,2.300000X1.600000*%
%ADD13O,2.300000X1.600000*%
%ADD14R,2.000000X2.000000*%
%ADD15C,1.750000*%
%ADD16C,1.600000*%
%ADD17C,1.250000*%
%ADD18R,1.350000X1.350000*%
%ADD19O,1.350000X1.350000*%
%ADD20C,0.700000*%
%ADD21C,0.650000*%
%ADD22O,1.000000X1.600000*%
%ADD23C,2.000000*%
G04 APERTURE END LIST*
D10*
X126333519Y-101965000D03*
X130633519Y-101965000D03*
D11*
X172983595Y-145804174D03*
D12*
X115400000Y-120950000D03*
D13*
X115400000Y-118950000D03*
X115400000Y-116950000D03*
X115400000Y-114950000D03*
X115400000Y-112950000D03*
X115400000Y-110950000D03*
D14*
X178675000Y-144906500D03*
X84675000Y-140125000D03*
D15*
X153320200Y-133697000D03*
X153320200Y-146347000D03*
D16*
X158320200Y-135722000D03*
X158320200Y-144322000D03*
D15*
X163320200Y-133697000D03*
X163320200Y-146347000D03*
D17*
X152670200Y-136772000D03*
X152670200Y-143272000D03*
X148170200Y-136772000D03*
X148170200Y-143272000D03*
D18*
X122920000Y-100330000D03*
D19*
X120920000Y-100330000D03*
D20*
X142060000Y-98275000D03*
X134710000Y-98275000D03*
D21*
X135660000Y-97625000D03*
X136060000Y-96925000D03*
X136860000Y-96925000D03*
X137260000Y-97625000D03*
X137660000Y-96925000D03*
X138060000Y-97625000D03*
X138860000Y-97625000D03*
X139260000Y-96925000D03*
X139660000Y-97625000D03*
X140060000Y-96925000D03*
X140860000Y-96925000D03*
X141260000Y-97625000D03*
D22*
X142950000Y-92635000D03*
X142590000Y-97025000D03*
X134330000Y-97025000D03*
X133970000Y-92635000D03*
D15*
X91377000Y-112107600D03*
X91377000Y-124757600D03*
D16*
X96377000Y-114132600D03*
X96377000Y-122732600D03*
D15*
X101377000Y-112107600D03*
X101377000Y-124757600D03*
D17*
X90727000Y-115182600D03*
X90727000Y-121682600D03*
X86227000Y-115182600D03*
X86227000Y-121682600D03*
D14*
X89175000Y-140125000D03*
X183175000Y-144906500D03*
D23*
X115400000Y-126030000D03*
X115400000Y-123490000D03*
M02*
