G04 #@! TF.GenerationSoftware,KiCad,Pcbnew,7.0.2*
G04 #@! TF.CreationDate,2023-06-19T11:15:08-07:00*
G04 #@! TF.ProjectId,procon_gcc_main_pcb,70726f63-6f6e-45f6-9763-635f6d61696e,1*
G04 #@! TF.SameCoordinates,Original*
G04 #@! TF.FileFunction,Legend,Top*
G04 #@! TF.FilePolarity,Positive*
%FSLAX46Y46*%
G04 Gerber Fmt 4.6, Leading zero omitted, Abs format (unit mm)*
G04 Created by KiCad (PCBNEW 7.0.2) date 2023-06-19 11:15:08*
%MOMM*%
%LPD*%
G01*
G04 APERTURE LIST*
%ADD10C,0.250000*%
%ADD11C,0.100000*%
%ADD12C,0.300000*%
%ADD13C,0.125000*%
%ADD14C,0.150000*%
%ADD15C,0.050000*%
%ADD16C,0.060000*%
%ADD17C,0.160000*%
%ADD18C,0.120000*%
%ADD19C,0.200000*%
%ADD20C,0.350000*%
%ADD21C,0.127000*%
G04 APERTURE END LIST*
D10*
X120490961Y-102729496D02*
X120157628Y-102253305D01*
X119919533Y-102729496D02*
X119919533Y-101729496D01*
X119919533Y-101729496D02*
X120300485Y-101729496D01*
X120300485Y-101729496D02*
X120395723Y-101777115D01*
X120395723Y-101777115D02*
X120443342Y-101824734D01*
X120443342Y-101824734D02*
X120490961Y-101919972D01*
X120490961Y-101919972D02*
X120490961Y-102062829D01*
X120490961Y-102062829D02*
X120443342Y-102158067D01*
X120443342Y-102158067D02*
X120395723Y-102205686D01*
X120395723Y-102205686D02*
X120300485Y-102253305D01*
X120300485Y-102253305D02*
X119919533Y-102253305D01*
X120824295Y-101729496D02*
X121490961Y-102729496D01*
X121490961Y-101729496D02*
X120824295Y-102729496D01*
X122490962Y-101729496D02*
X123062390Y-101729496D01*
X122776676Y-102729496D02*
X122776676Y-101729496D01*
X123300486Y-101729496D02*
X123967152Y-102729496D01*
X123967152Y-101729496D02*
X123300486Y-102729496D01*
D11*
X134782239Y-149194488D02*
X135091763Y-149194488D01*
X134720334Y-149380202D02*
X134937001Y-148730202D01*
X134937001Y-148730202D02*
X135153668Y-149380202D01*
X135648906Y-149380202D02*
X135648906Y-148730202D01*
X135648906Y-149349250D02*
X135587001Y-149380202D01*
X135587001Y-149380202D02*
X135463192Y-149380202D01*
X135463192Y-149380202D02*
X135401287Y-149349250D01*
X135401287Y-149349250D02*
X135370334Y-149318297D01*
X135370334Y-149318297D02*
X135339382Y-149256392D01*
X135339382Y-149256392D02*
X135339382Y-149070678D01*
X135339382Y-149070678D02*
X135370334Y-149008773D01*
X135370334Y-149008773D02*
X135401287Y-148977821D01*
X135401287Y-148977821D02*
X135463192Y-148946869D01*
X135463192Y-148946869D02*
X135587001Y-148946869D01*
X135587001Y-148946869D02*
X135648906Y-148977821D01*
X136237001Y-149380202D02*
X136237001Y-148730202D01*
X136237001Y-149349250D02*
X136175096Y-149380202D01*
X136175096Y-149380202D02*
X136051287Y-149380202D01*
X136051287Y-149380202D02*
X135989382Y-149349250D01*
X135989382Y-149349250D02*
X135958429Y-149318297D01*
X135958429Y-149318297D02*
X135927477Y-149256392D01*
X135927477Y-149256392D02*
X135927477Y-149070678D01*
X135927477Y-149070678D02*
X135958429Y-149008773D01*
X135958429Y-149008773D02*
X135989382Y-148977821D01*
X135989382Y-148977821D02*
X136051287Y-148946869D01*
X136051287Y-148946869D02*
X136175096Y-148946869D01*
X136175096Y-148946869D02*
X136237001Y-148977821D01*
X136546524Y-149380202D02*
X136546524Y-148946869D01*
X136546524Y-148730202D02*
X136515572Y-148761154D01*
X136515572Y-148761154D02*
X136546524Y-148792107D01*
X136546524Y-148792107D02*
X136577477Y-148761154D01*
X136577477Y-148761154D02*
X136546524Y-148730202D01*
X136546524Y-148730202D02*
X136546524Y-148792107D01*
X136763191Y-148946869D02*
X137010810Y-148946869D01*
X136856048Y-148730202D02*
X136856048Y-149287345D01*
X136856048Y-149287345D02*
X136887001Y-149349250D01*
X136887001Y-149349250D02*
X136948906Y-149380202D01*
X136948906Y-149380202D02*
X137010810Y-149380202D01*
X137227477Y-149380202D02*
X137227477Y-148946869D01*
X137227477Y-148730202D02*
X137196525Y-148761154D01*
X137196525Y-148761154D02*
X137227477Y-148792107D01*
X137227477Y-148792107D02*
X137258430Y-148761154D01*
X137258430Y-148761154D02*
X137227477Y-148730202D01*
X137227477Y-148730202D02*
X137227477Y-148792107D01*
X137629859Y-149380202D02*
X137567954Y-149349250D01*
X137567954Y-149349250D02*
X137537001Y-149318297D01*
X137537001Y-149318297D02*
X137506049Y-149256392D01*
X137506049Y-149256392D02*
X137506049Y-149070678D01*
X137506049Y-149070678D02*
X137537001Y-149008773D01*
X137537001Y-149008773D02*
X137567954Y-148977821D01*
X137567954Y-148977821D02*
X137629859Y-148946869D01*
X137629859Y-148946869D02*
X137722716Y-148946869D01*
X137722716Y-148946869D02*
X137784620Y-148977821D01*
X137784620Y-148977821D02*
X137815573Y-149008773D01*
X137815573Y-149008773D02*
X137846525Y-149070678D01*
X137846525Y-149070678D02*
X137846525Y-149256392D01*
X137846525Y-149256392D02*
X137815573Y-149318297D01*
X137815573Y-149318297D02*
X137784620Y-149349250D01*
X137784620Y-149349250D02*
X137722716Y-149380202D01*
X137722716Y-149380202D02*
X137629859Y-149380202D01*
X138125096Y-148946869D02*
X138125096Y-149380202D01*
X138125096Y-149008773D02*
X138156049Y-148977821D01*
X138156049Y-148977821D02*
X138217954Y-148946869D01*
X138217954Y-148946869D02*
X138310811Y-148946869D01*
X138310811Y-148946869D02*
X138372715Y-148977821D01*
X138372715Y-148977821D02*
X138403668Y-149039726D01*
X138403668Y-149039726D02*
X138403668Y-149380202D01*
X138991763Y-149380202D02*
X138991763Y-149039726D01*
X138991763Y-149039726D02*
X138960810Y-148977821D01*
X138960810Y-148977821D02*
X138898906Y-148946869D01*
X138898906Y-148946869D02*
X138775096Y-148946869D01*
X138775096Y-148946869D02*
X138713191Y-148977821D01*
X138991763Y-149349250D02*
X138929858Y-149380202D01*
X138929858Y-149380202D02*
X138775096Y-149380202D01*
X138775096Y-149380202D02*
X138713191Y-149349250D01*
X138713191Y-149349250D02*
X138682239Y-149287345D01*
X138682239Y-149287345D02*
X138682239Y-149225440D01*
X138682239Y-149225440D02*
X138713191Y-149163535D01*
X138713191Y-149163535D02*
X138775096Y-149132583D01*
X138775096Y-149132583D02*
X138929858Y-149132583D01*
X138929858Y-149132583D02*
X138991763Y-149101630D01*
X139394144Y-149380202D02*
X139332239Y-149349250D01*
X139332239Y-149349250D02*
X139301286Y-149287345D01*
X139301286Y-149287345D02*
X139301286Y-148730202D01*
X140137000Y-149380202D02*
X140137000Y-148730202D01*
X140137000Y-148730202D02*
X140291762Y-148730202D01*
X140291762Y-148730202D02*
X140384619Y-148761154D01*
X140384619Y-148761154D02*
X140446524Y-148823059D01*
X140446524Y-148823059D02*
X140477477Y-148884964D01*
X140477477Y-148884964D02*
X140508429Y-149008773D01*
X140508429Y-149008773D02*
X140508429Y-149101630D01*
X140508429Y-149101630D02*
X140477477Y-149225440D01*
X140477477Y-149225440D02*
X140446524Y-149287345D01*
X140446524Y-149287345D02*
X140384619Y-149349250D01*
X140384619Y-149349250D02*
X140291762Y-149380202D01*
X140291762Y-149380202D02*
X140137000Y-149380202D01*
X141034619Y-149349250D02*
X140972715Y-149380202D01*
X140972715Y-149380202D02*
X140848905Y-149380202D01*
X140848905Y-149380202D02*
X140787000Y-149349250D01*
X140787000Y-149349250D02*
X140756048Y-149287345D01*
X140756048Y-149287345D02*
X140756048Y-149039726D01*
X140756048Y-149039726D02*
X140787000Y-148977821D01*
X140787000Y-148977821D02*
X140848905Y-148946869D01*
X140848905Y-148946869D02*
X140972715Y-148946869D01*
X140972715Y-148946869D02*
X141034619Y-148977821D01*
X141034619Y-148977821D02*
X141065572Y-149039726D01*
X141065572Y-149039726D02*
X141065572Y-149101630D01*
X141065572Y-149101630D02*
X140756048Y-149163535D01*
X141313191Y-149349250D02*
X141375096Y-149380202D01*
X141375096Y-149380202D02*
X141498905Y-149380202D01*
X141498905Y-149380202D02*
X141560810Y-149349250D01*
X141560810Y-149349250D02*
X141591762Y-149287345D01*
X141591762Y-149287345D02*
X141591762Y-149256392D01*
X141591762Y-149256392D02*
X141560810Y-149194488D01*
X141560810Y-149194488D02*
X141498905Y-149163535D01*
X141498905Y-149163535D02*
X141406048Y-149163535D01*
X141406048Y-149163535D02*
X141344143Y-149132583D01*
X141344143Y-149132583D02*
X141313191Y-149070678D01*
X141313191Y-149070678D02*
X141313191Y-149039726D01*
X141313191Y-149039726D02*
X141344143Y-148977821D01*
X141344143Y-148977821D02*
X141406048Y-148946869D01*
X141406048Y-148946869D02*
X141498905Y-148946869D01*
X141498905Y-148946869D02*
X141560810Y-148977821D01*
X141870333Y-149380202D02*
X141870333Y-148946869D01*
X141870333Y-148730202D02*
X141839381Y-148761154D01*
X141839381Y-148761154D02*
X141870333Y-148792107D01*
X141870333Y-148792107D02*
X141901286Y-148761154D01*
X141901286Y-148761154D02*
X141870333Y-148730202D01*
X141870333Y-148730202D02*
X141870333Y-148792107D01*
X142458429Y-148946869D02*
X142458429Y-149473059D01*
X142458429Y-149473059D02*
X142427476Y-149534964D01*
X142427476Y-149534964D02*
X142396524Y-149565916D01*
X142396524Y-149565916D02*
X142334619Y-149596869D01*
X142334619Y-149596869D02*
X142241762Y-149596869D01*
X142241762Y-149596869D02*
X142179857Y-149565916D01*
X142458429Y-149349250D02*
X142396524Y-149380202D01*
X142396524Y-149380202D02*
X142272715Y-149380202D01*
X142272715Y-149380202D02*
X142210810Y-149349250D01*
X142210810Y-149349250D02*
X142179857Y-149318297D01*
X142179857Y-149318297D02*
X142148905Y-149256392D01*
X142148905Y-149256392D02*
X142148905Y-149070678D01*
X142148905Y-149070678D02*
X142179857Y-149008773D01*
X142179857Y-149008773D02*
X142210810Y-148977821D01*
X142210810Y-148977821D02*
X142272715Y-148946869D01*
X142272715Y-148946869D02*
X142396524Y-148946869D01*
X142396524Y-148946869D02*
X142458429Y-148977821D01*
X142767952Y-148946869D02*
X142767952Y-149380202D01*
X142767952Y-149008773D02*
X142798905Y-148977821D01*
X142798905Y-148977821D02*
X142860810Y-148946869D01*
X142860810Y-148946869D02*
X142953667Y-148946869D01*
X142953667Y-148946869D02*
X143015571Y-148977821D01*
X143015571Y-148977821D02*
X143046524Y-149039726D01*
X143046524Y-149039726D02*
X143046524Y-149380202D01*
X143789381Y-148730202D02*
X143944143Y-149380202D01*
X143944143Y-149380202D02*
X144067952Y-148915916D01*
X144067952Y-148915916D02*
X144191762Y-149380202D01*
X144191762Y-149380202D02*
X144346524Y-148730202D01*
X144687000Y-149380202D02*
X144625095Y-149349250D01*
X144625095Y-149349250D02*
X144594142Y-149318297D01*
X144594142Y-149318297D02*
X144563190Y-149256392D01*
X144563190Y-149256392D02*
X144563190Y-149070678D01*
X144563190Y-149070678D02*
X144594142Y-149008773D01*
X144594142Y-149008773D02*
X144625095Y-148977821D01*
X144625095Y-148977821D02*
X144687000Y-148946869D01*
X144687000Y-148946869D02*
X144779857Y-148946869D01*
X144779857Y-148946869D02*
X144841761Y-148977821D01*
X144841761Y-148977821D02*
X144872714Y-149008773D01*
X144872714Y-149008773D02*
X144903666Y-149070678D01*
X144903666Y-149070678D02*
X144903666Y-149256392D01*
X144903666Y-149256392D02*
X144872714Y-149318297D01*
X144872714Y-149318297D02*
X144841761Y-149349250D01*
X144841761Y-149349250D02*
X144779857Y-149380202D01*
X144779857Y-149380202D02*
X144687000Y-149380202D01*
X145182237Y-149380202D02*
X145182237Y-148946869D01*
X145182237Y-149070678D02*
X145213190Y-149008773D01*
X145213190Y-149008773D02*
X145244142Y-148977821D01*
X145244142Y-148977821D02*
X145306047Y-148946869D01*
X145306047Y-148946869D02*
X145367952Y-148946869D01*
X145584618Y-149380202D02*
X145584618Y-148730202D01*
X145646523Y-149132583D02*
X145832237Y-149380202D01*
X145832237Y-148946869D02*
X145584618Y-149194488D01*
X146110808Y-149318297D02*
X146141761Y-149349250D01*
X146141761Y-149349250D02*
X146110808Y-149380202D01*
X146110808Y-149380202D02*
X146079856Y-149349250D01*
X146079856Y-149349250D02*
X146110808Y-149318297D01*
X146110808Y-149318297D02*
X146110808Y-149380202D01*
X146110808Y-148977821D02*
X146141761Y-149008773D01*
X146141761Y-149008773D02*
X146110808Y-149039726D01*
X146110808Y-149039726D02*
X146079856Y-149008773D01*
X146079856Y-149008773D02*
X146110808Y-148977821D01*
X146110808Y-148977821D02*
X146110808Y-149039726D01*
X134317953Y-150092726D02*
X134534620Y-150092726D01*
X134627477Y-150433202D02*
X134317953Y-150433202D01*
X134317953Y-150433202D02*
X134317953Y-149783202D01*
X134317953Y-149783202D02*
X134627477Y-149783202D01*
X134875096Y-150402250D02*
X134937001Y-150433202D01*
X134937001Y-150433202D02*
X135060810Y-150433202D01*
X135060810Y-150433202D02*
X135122715Y-150402250D01*
X135122715Y-150402250D02*
X135153667Y-150340345D01*
X135153667Y-150340345D02*
X135153667Y-150309392D01*
X135153667Y-150309392D02*
X135122715Y-150247488D01*
X135122715Y-150247488D02*
X135060810Y-150216535D01*
X135060810Y-150216535D02*
X134967953Y-150216535D01*
X134967953Y-150216535D02*
X134906048Y-150185583D01*
X134906048Y-150185583D02*
X134875096Y-150123678D01*
X134875096Y-150123678D02*
X134875096Y-150092726D01*
X134875096Y-150092726D02*
X134906048Y-150030821D01*
X134906048Y-150030821D02*
X134967953Y-149999869D01*
X134967953Y-149999869D02*
X135060810Y-149999869D01*
X135060810Y-149999869D02*
X135122715Y-150030821D01*
X135710810Y-150402250D02*
X135648905Y-150433202D01*
X135648905Y-150433202D02*
X135525096Y-150433202D01*
X135525096Y-150433202D02*
X135463191Y-150402250D01*
X135463191Y-150402250D02*
X135432238Y-150371297D01*
X135432238Y-150371297D02*
X135401286Y-150309392D01*
X135401286Y-150309392D02*
X135401286Y-150123678D01*
X135401286Y-150123678D02*
X135432238Y-150061773D01*
X135432238Y-150061773D02*
X135463191Y-150030821D01*
X135463191Y-150030821D02*
X135525096Y-149999869D01*
X135525096Y-149999869D02*
X135648905Y-149999869D01*
X135648905Y-149999869D02*
X135710810Y-150030821D01*
X136267953Y-150433202D02*
X136267953Y-150092726D01*
X136267953Y-150092726D02*
X136237000Y-150030821D01*
X136237000Y-150030821D02*
X136175096Y-149999869D01*
X136175096Y-149999869D02*
X136051286Y-149999869D01*
X136051286Y-149999869D02*
X135989381Y-150030821D01*
X136267953Y-150402250D02*
X136206048Y-150433202D01*
X136206048Y-150433202D02*
X136051286Y-150433202D01*
X136051286Y-150433202D02*
X135989381Y-150402250D01*
X135989381Y-150402250D02*
X135958429Y-150340345D01*
X135958429Y-150340345D02*
X135958429Y-150278440D01*
X135958429Y-150278440D02*
X135989381Y-150216535D01*
X135989381Y-150216535D02*
X136051286Y-150185583D01*
X136051286Y-150185583D02*
X136206048Y-150185583D01*
X136206048Y-150185583D02*
X136267953Y-150154630D01*
X137041762Y-149752250D02*
X136484619Y-150587964D01*
X137258428Y-150433202D02*
X137258428Y-149783202D01*
X137258428Y-149783202D02*
X137506047Y-149783202D01*
X137506047Y-149783202D02*
X137567952Y-149814154D01*
X137567952Y-149814154D02*
X137598905Y-149845107D01*
X137598905Y-149845107D02*
X137629857Y-149907011D01*
X137629857Y-149907011D02*
X137629857Y-149999869D01*
X137629857Y-149999869D02*
X137598905Y-150061773D01*
X137598905Y-150061773D02*
X137567952Y-150092726D01*
X137567952Y-150092726D02*
X137506047Y-150123678D01*
X137506047Y-150123678D02*
X137258428Y-150123678D01*
X137908428Y-150433202D02*
X137908428Y-149783202D01*
X138187000Y-150433202D02*
X138187000Y-150092726D01*
X138187000Y-150092726D02*
X138156047Y-150030821D01*
X138156047Y-150030821D02*
X138094143Y-149999869D01*
X138094143Y-149999869D02*
X138001286Y-149999869D01*
X138001286Y-149999869D02*
X137939381Y-150030821D01*
X137939381Y-150030821D02*
X137908428Y-150061773D01*
X138589381Y-150433202D02*
X138527476Y-150402250D01*
X138527476Y-150402250D02*
X138496523Y-150371297D01*
X138496523Y-150371297D02*
X138465571Y-150309392D01*
X138465571Y-150309392D02*
X138465571Y-150123678D01*
X138465571Y-150123678D02*
X138496523Y-150061773D01*
X138496523Y-150061773D02*
X138527476Y-150030821D01*
X138527476Y-150030821D02*
X138589381Y-149999869D01*
X138589381Y-149999869D02*
X138682238Y-149999869D01*
X138682238Y-149999869D02*
X138744142Y-150030821D01*
X138744142Y-150030821D02*
X138775095Y-150061773D01*
X138775095Y-150061773D02*
X138806047Y-150123678D01*
X138806047Y-150123678D02*
X138806047Y-150309392D01*
X138806047Y-150309392D02*
X138775095Y-150371297D01*
X138775095Y-150371297D02*
X138744142Y-150402250D01*
X138744142Y-150402250D02*
X138682238Y-150433202D01*
X138682238Y-150433202D02*
X138589381Y-150433202D01*
X139084618Y-150433202D02*
X139084618Y-149783202D01*
X139084618Y-150030821D02*
X139146523Y-149999869D01*
X139146523Y-149999869D02*
X139270333Y-149999869D01*
X139270333Y-149999869D02*
X139332237Y-150030821D01*
X139332237Y-150030821D02*
X139363190Y-150061773D01*
X139363190Y-150061773D02*
X139394142Y-150123678D01*
X139394142Y-150123678D02*
X139394142Y-150309392D01*
X139394142Y-150309392D02*
X139363190Y-150371297D01*
X139363190Y-150371297D02*
X139332237Y-150402250D01*
X139332237Y-150402250D02*
X139270333Y-150433202D01*
X139270333Y-150433202D02*
X139146523Y-150433202D01*
X139146523Y-150433202D02*
X139084618Y-150402250D01*
X140075094Y-149783202D02*
X140446523Y-149783202D01*
X140260809Y-150433202D02*
X140260809Y-149783202D01*
X140910808Y-150402250D02*
X140848904Y-150433202D01*
X140848904Y-150433202D02*
X140725094Y-150433202D01*
X140725094Y-150433202D02*
X140663189Y-150402250D01*
X140663189Y-150402250D02*
X140632237Y-150340345D01*
X140632237Y-150340345D02*
X140632237Y-150092726D01*
X140632237Y-150092726D02*
X140663189Y-150030821D01*
X140663189Y-150030821D02*
X140725094Y-149999869D01*
X140725094Y-149999869D02*
X140848904Y-149999869D01*
X140848904Y-149999869D02*
X140910808Y-150030821D01*
X140910808Y-150030821D02*
X140941761Y-150092726D01*
X140941761Y-150092726D02*
X140941761Y-150154630D01*
X140941761Y-150154630D02*
X140632237Y-150216535D01*
X141498904Y-150433202D02*
X141498904Y-150092726D01*
X141498904Y-150092726D02*
X141467951Y-150030821D01*
X141467951Y-150030821D02*
X141406047Y-149999869D01*
X141406047Y-149999869D02*
X141282237Y-149999869D01*
X141282237Y-149999869D02*
X141220332Y-150030821D01*
X141498904Y-150402250D02*
X141436999Y-150433202D01*
X141436999Y-150433202D02*
X141282237Y-150433202D01*
X141282237Y-150433202D02*
X141220332Y-150402250D01*
X141220332Y-150402250D02*
X141189380Y-150340345D01*
X141189380Y-150340345D02*
X141189380Y-150278440D01*
X141189380Y-150278440D02*
X141220332Y-150216535D01*
X141220332Y-150216535D02*
X141282237Y-150185583D01*
X141282237Y-150185583D02*
X141436999Y-150185583D01*
X141436999Y-150185583D02*
X141498904Y-150154630D01*
X141808427Y-150433202D02*
X141808427Y-149999869D01*
X141808427Y-150061773D02*
X141839380Y-150030821D01*
X141839380Y-150030821D02*
X141901285Y-149999869D01*
X141901285Y-149999869D02*
X141994142Y-149999869D01*
X141994142Y-149999869D02*
X142056046Y-150030821D01*
X142056046Y-150030821D02*
X142086999Y-150092726D01*
X142086999Y-150092726D02*
X142086999Y-150433202D01*
X142086999Y-150092726D02*
X142117951Y-150030821D01*
X142117951Y-150030821D02*
X142179856Y-149999869D01*
X142179856Y-149999869D02*
X142272713Y-149999869D01*
X142272713Y-149999869D02*
X142334618Y-150030821D01*
X142334618Y-150030821D02*
X142365570Y-150092726D01*
X142365570Y-150092726D02*
X142365570Y-150433202D01*
X143139380Y-149752250D02*
X142582237Y-150587964D01*
X143665570Y-150433202D02*
X143356046Y-150433202D01*
X143356046Y-150433202D02*
X143356046Y-149783202D01*
X144160808Y-149999869D02*
X144160808Y-150433202D01*
X143882236Y-149999869D02*
X143882236Y-150340345D01*
X143882236Y-150340345D02*
X143913189Y-150402250D01*
X143913189Y-150402250D02*
X143975094Y-150433202D01*
X143975094Y-150433202D02*
X144067951Y-150433202D01*
X144067951Y-150433202D02*
X144129855Y-150402250D01*
X144129855Y-150402250D02*
X144160808Y-150371297D01*
X144470331Y-150433202D02*
X144470331Y-149783202D01*
X144470331Y-150030821D02*
X144532236Y-149999869D01*
X144532236Y-149999869D02*
X144656046Y-149999869D01*
X144656046Y-149999869D02*
X144717950Y-150030821D01*
X144717950Y-150030821D02*
X144748903Y-150061773D01*
X144748903Y-150061773D02*
X144779855Y-150123678D01*
X144779855Y-150123678D02*
X144779855Y-150309392D01*
X144779855Y-150309392D02*
X144748903Y-150371297D01*
X144748903Y-150371297D02*
X144717950Y-150402250D01*
X144717950Y-150402250D02*
X144656046Y-150433202D01*
X144656046Y-150433202D02*
X144532236Y-150433202D01*
X144532236Y-150433202D02*
X144470331Y-150402250D01*
X145306045Y-150402250D02*
X145244141Y-150433202D01*
X145244141Y-150433202D02*
X145120331Y-150433202D01*
X145120331Y-150433202D02*
X145058426Y-150402250D01*
X145058426Y-150402250D02*
X145027474Y-150340345D01*
X145027474Y-150340345D02*
X145027474Y-150092726D01*
X145027474Y-150092726D02*
X145058426Y-150030821D01*
X145058426Y-150030821D02*
X145120331Y-149999869D01*
X145120331Y-149999869D02*
X145244141Y-149999869D01*
X145244141Y-149999869D02*
X145306045Y-150030821D01*
X145306045Y-150030821D02*
X145336998Y-150092726D01*
X145336998Y-150092726D02*
X145336998Y-150154630D01*
X145336998Y-150154630D02*
X145027474Y-150216535D01*
X145615569Y-150433202D02*
X145615569Y-149999869D01*
X145615569Y-150123678D02*
X145646522Y-150061773D01*
X145646522Y-150061773D02*
X145677474Y-150030821D01*
X145677474Y-150030821D02*
X145739379Y-149999869D01*
X145739379Y-149999869D02*
X145801284Y-149999869D01*
X146017950Y-150433202D02*
X146017950Y-149999869D01*
X146017950Y-150123678D02*
X146048903Y-150061773D01*
X146048903Y-150061773D02*
X146079855Y-150030821D01*
X146079855Y-150030821D02*
X146141760Y-149999869D01*
X146141760Y-149999869D02*
X146203665Y-149999869D01*
X146358427Y-149999869D02*
X146513189Y-150433202D01*
X146667950Y-149999869D02*
X146513189Y-150433202D01*
X146513189Y-150433202D02*
X146451284Y-150587964D01*
X146451284Y-150587964D02*
X146420331Y-150618916D01*
X146420331Y-150618916D02*
X146358427Y-150649869D01*
D12*
X90538100Y-110110485D02*
X90538100Y-108610485D01*
X90538100Y-108610485D02*
X91109529Y-108610485D01*
X91109529Y-108610485D02*
X91252386Y-108681914D01*
X91252386Y-108681914D02*
X91323815Y-108753342D01*
X91323815Y-108753342D02*
X91395243Y-108896199D01*
X91395243Y-108896199D02*
X91395243Y-109110485D01*
X91395243Y-109110485D02*
X91323815Y-109253342D01*
X91323815Y-109253342D02*
X91252386Y-109324771D01*
X91252386Y-109324771D02*
X91109529Y-109396199D01*
X91109529Y-109396199D02*
X90538100Y-109396199D01*
X92038100Y-110110485D02*
X92038100Y-109110485D01*
X92038100Y-109396199D02*
X92109529Y-109253342D01*
X92109529Y-109253342D02*
X92180958Y-109181914D01*
X92180958Y-109181914D02*
X92323815Y-109110485D01*
X92323815Y-109110485D02*
X92466672Y-109110485D01*
X93180957Y-110110485D02*
X93038100Y-110039057D01*
X93038100Y-110039057D02*
X92966671Y-109967628D01*
X92966671Y-109967628D02*
X92895243Y-109824771D01*
X92895243Y-109824771D02*
X92895243Y-109396199D01*
X92895243Y-109396199D02*
X92966671Y-109253342D01*
X92966671Y-109253342D02*
X93038100Y-109181914D01*
X93038100Y-109181914D02*
X93180957Y-109110485D01*
X93180957Y-109110485D02*
X93395243Y-109110485D01*
X93395243Y-109110485D02*
X93538100Y-109181914D01*
X93538100Y-109181914D02*
X93609529Y-109253342D01*
X93609529Y-109253342D02*
X93680957Y-109396199D01*
X93680957Y-109396199D02*
X93680957Y-109824771D01*
X93680957Y-109824771D02*
X93609529Y-109967628D01*
X93609529Y-109967628D02*
X93538100Y-110039057D01*
X93538100Y-110039057D02*
X93395243Y-110110485D01*
X93395243Y-110110485D02*
X93180957Y-110110485D01*
X95109529Y-108681914D02*
X94966672Y-108610485D01*
X94966672Y-108610485D02*
X94752386Y-108610485D01*
X94752386Y-108610485D02*
X94538100Y-108681914D01*
X94538100Y-108681914D02*
X94395243Y-108824771D01*
X94395243Y-108824771D02*
X94323814Y-108967628D01*
X94323814Y-108967628D02*
X94252386Y-109253342D01*
X94252386Y-109253342D02*
X94252386Y-109467628D01*
X94252386Y-109467628D02*
X94323814Y-109753342D01*
X94323814Y-109753342D02*
X94395243Y-109896199D01*
X94395243Y-109896199D02*
X94538100Y-110039057D01*
X94538100Y-110039057D02*
X94752386Y-110110485D01*
X94752386Y-110110485D02*
X94895243Y-110110485D01*
X94895243Y-110110485D02*
X95109529Y-110039057D01*
X95109529Y-110039057D02*
X95180957Y-109967628D01*
X95180957Y-109967628D02*
X95180957Y-109467628D01*
X95180957Y-109467628D02*
X94895243Y-109467628D01*
X96680957Y-109967628D02*
X96609529Y-110039057D01*
X96609529Y-110039057D02*
X96395243Y-110110485D01*
X96395243Y-110110485D02*
X96252386Y-110110485D01*
X96252386Y-110110485D02*
X96038100Y-110039057D01*
X96038100Y-110039057D02*
X95895243Y-109896199D01*
X95895243Y-109896199D02*
X95823814Y-109753342D01*
X95823814Y-109753342D02*
X95752386Y-109467628D01*
X95752386Y-109467628D02*
X95752386Y-109253342D01*
X95752386Y-109253342D02*
X95823814Y-108967628D01*
X95823814Y-108967628D02*
X95895243Y-108824771D01*
X95895243Y-108824771D02*
X96038100Y-108681914D01*
X96038100Y-108681914D02*
X96252386Y-108610485D01*
X96252386Y-108610485D02*
X96395243Y-108610485D01*
X96395243Y-108610485D02*
X96609529Y-108681914D01*
X96609529Y-108681914D02*
X96680957Y-108753342D01*
X98180957Y-109967628D02*
X98109529Y-110039057D01*
X98109529Y-110039057D02*
X97895243Y-110110485D01*
X97895243Y-110110485D02*
X97752386Y-110110485D01*
X97752386Y-110110485D02*
X97538100Y-110039057D01*
X97538100Y-110039057D02*
X97395243Y-109896199D01*
X97395243Y-109896199D02*
X97323814Y-109753342D01*
X97323814Y-109753342D02*
X97252386Y-109467628D01*
X97252386Y-109467628D02*
X97252386Y-109253342D01*
X97252386Y-109253342D02*
X97323814Y-108967628D01*
X97323814Y-108967628D02*
X97395243Y-108824771D01*
X97395243Y-108824771D02*
X97538100Y-108681914D01*
X97538100Y-108681914D02*
X97752386Y-108610485D01*
X97752386Y-108610485D02*
X97895243Y-108610485D01*
X97895243Y-108610485D02*
X98109529Y-108681914D01*
X98109529Y-108681914D02*
X98180957Y-108753342D01*
X99823814Y-108610485D02*
X100752386Y-108610485D01*
X100752386Y-108610485D02*
X100252386Y-109181914D01*
X100252386Y-109181914D02*
X100466671Y-109181914D01*
X100466671Y-109181914D02*
X100609529Y-109253342D01*
X100609529Y-109253342D02*
X100680957Y-109324771D01*
X100680957Y-109324771D02*
X100752386Y-109467628D01*
X100752386Y-109467628D02*
X100752386Y-109824771D01*
X100752386Y-109824771D02*
X100680957Y-109967628D01*
X100680957Y-109967628D02*
X100609529Y-110039057D01*
X100609529Y-110039057D02*
X100466671Y-110110485D01*
X100466671Y-110110485D02*
X100038100Y-110110485D01*
X100038100Y-110110485D02*
X99895243Y-110039057D01*
X99895243Y-110039057D02*
X99823814Y-109967628D01*
D13*
X112736714Y-121331895D02*
X112736714Y-120960467D01*
X112736714Y-120960467D02*
X113117666Y-121160467D01*
X113117666Y-121160467D02*
X113117666Y-121074752D01*
X113117666Y-121074752D02*
X113165285Y-121017610D01*
X113165285Y-121017610D02*
X113212904Y-120989038D01*
X113212904Y-120989038D02*
X113308142Y-120960467D01*
X113308142Y-120960467D02*
X113546237Y-120960467D01*
X113546237Y-120960467D02*
X113641475Y-120989038D01*
X113641475Y-120989038D02*
X113689095Y-121017610D01*
X113689095Y-121017610D02*
X113736714Y-121074752D01*
X113736714Y-121074752D02*
X113736714Y-121246181D01*
X113736714Y-121246181D02*
X113689095Y-121303324D01*
X113689095Y-121303324D02*
X113641475Y-121331895D01*
X113641475Y-120703323D02*
X113689095Y-120674752D01*
X113689095Y-120674752D02*
X113736714Y-120703323D01*
X113736714Y-120703323D02*
X113689095Y-120731895D01*
X113689095Y-120731895D02*
X113641475Y-120703323D01*
X113641475Y-120703323D02*
X113736714Y-120703323D01*
X112736714Y-120474752D02*
X112736714Y-120103324D01*
X112736714Y-120103324D02*
X113117666Y-120303324D01*
X113117666Y-120303324D02*
X113117666Y-120217609D01*
X113117666Y-120217609D02*
X113165285Y-120160467D01*
X113165285Y-120160467D02*
X113212904Y-120131895D01*
X113212904Y-120131895D02*
X113308142Y-120103324D01*
X113308142Y-120103324D02*
X113546237Y-120103324D01*
X113546237Y-120103324D02*
X113641475Y-120131895D01*
X113641475Y-120131895D02*
X113689095Y-120160467D01*
X113689095Y-120160467D02*
X113736714Y-120217609D01*
X113736714Y-120217609D02*
X113736714Y-120389038D01*
X113736714Y-120389038D02*
X113689095Y-120446181D01*
X113689095Y-120446181D02*
X113641475Y-120474752D01*
X113070047Y-119903323D02*
X113736714Y-119760466D01*
X113736714Y-119760466D02*
X113070047Y-119617609D01*
X112736714Y-118646180D02*
X112736714Y-118931894D01*
X112736714Y-118931894D02*
X113212904Y-118960466D01*
X113212904Y-118960466D02*
X113165285Y-118931894D01*
X113165285Y-118931894D02*
X113117666Y-118874752D01*
X113117666Y-118874752D02*
X113117666Y-118731894D01*
X113117666Y-118731894D02*
X113165285Y-118674752D01*
X113165285Y-118674752D02*
X113212904Y-118646180D01*
X113212904Y-118646180D02*
X113308142Y-118617609D01*
X113308142Y-118617609D02*
X113546237Y-118617609D01*
X113546237Y-118617609D02*
X113641475Y-118646180D01*
X113641475Y-118646180D02*
X113689095Y-118674752D01*
X113689095Y-118674752D02*
X113736714Y-118731894D01*
X113736714Y-118731894D02*
X113736714Y-118874752D01*
X113736714Y-118874752D02*
X113689095Y-118931894D01*
X113689095Y-118931894D02*
X113641475Y-118960466D01*
X113070047Y-118417608D02*
X113736714Y-118274751D01*
X113736714Y-118274751D02*
X113070047Y-118131894D01*
X113736714Y-117446179D02*
X112736714Y-117446179D01*
X112736714Y-117446179D02*
X112736714Y-117303322D01*
X112736714Y-117303322D02*
X112784333Y-117217608D01*
X112784333Y-117217608D02*
X112879571Y-117160465D01*
X112879571Y-117160465D02*
X112974809Y-117131894D01*
X112974809Y-117131894D02*
X113165285Y-117103322D01*
X113165285Y-117103322D02*
X113308142Y-117103322D01*
X113308142Y-117103322D02*
X113498618Y-117131894D01*
X113498618Y-117131894D02*
X113593856Y-117160465D01*
X113593856Y-117160465D02*
X113689095Y-117217608D01*
X113689095Y-117217608D02*
X113736714Y-117303322D01*
X113736714Y-117303322D02*
X113736714Y-117446179D01*
X113736714Y-116589037D02*
X113212904Y-116589037D01*
X113212904Y-116589037D02*
X113117666Y-116617608D01*
X113117666Y-116617608D02*
X113070047Y-116674751D01*
X113070047Y-116674751D02*
X113070047Y-116789037D01*
X113070047Y-116789037D02*
X113117666Y-116846179D01*
X113689095Y-116589037D02*
X113736714Y-116646179D01*
X113736714Y-116646179D02*
X113736714Y-116789037D01*
X113736714Y-116789037D02*
X113689095Y-116846179D01*
X113689095Y-116846179D02*
X113593856Y-116874751D01*
X113593856Y-116874751D02*
X113498618Y-116874751D01*
X113498618Y-116874751D02*
X113403380Y-116846179D01*
X113403380Y-116846179D02*
X113355761Y-116789037D01*
X113355761Y-116789037D02*
X113355761Y-116646179D01*
X113355761Y-116646179D02*
X113308142Y-116589037D01*
X113070047Y-116389037D02*
X113070047Y-116160465D01*
X112736714Y-116303322D02*
X113593856Y-116303322D01*
X113593856Y-116303322D02*
X113689095Y-116274751D01*
X113689095Y-116274751D02*
X113736714Y-116217608D01*
X113736714Y-116217608D02*
X113736714Y-116160465D01*
X113736714Y-115703323D02*
X113212904Y-115703323D01*
X113212904Y-115703323D02*
X113117666Y-115731894D01*
X113117666Y-115731894D02*
X113070047Y-115789037D01*
X113070047Y-115789037D02*
X113070047Y-115903323D01*
X113070047Y-115903323D02*
X113117666Y-115960465D01*
X113689095Y-115703323D02*
X113736714Y-115760465D01*
X113736714Y-115760465D02*
X113736714Y-115903323D01*
X113736714Y-115903323D02*
X113689095Y-115960465D01*
X113689095Y-115960465D02*
X113593856Y-115989037D01*
X113593856Y-115989037D02*
X113498618Y-115989037D01*
X113498618Y-115989037D02*
X113403380Y-115960465D01*
X113403380Y-115960465D02*
X113355761Y-115903323D01*
X113355761Y-115903323D02*
X113355761Y-115760465D01*
X113355761Y-115760465D02*
X113308142Y-115703323D01*
D11*
X127106739Y-100026947D02*
X127249596Y-100074566D01*
X127249596Y-100074566D02*
X127487691Y-100074566D01*
X127487691Y-100074566D02*
X127582929Y-100026947D01*
X127582929Y-100026947D02*
X127630548Y-99979327D01*
X127630548Y-99979327D02*
X127678167Y-99884089D01*
X127678167Y-99884089D02*
X127678167Y-99788851D01*
X127678167Y-99788851D02*
X127630548Y-99693613D01*
X127630548Y-99693613D02*
X127582929Y-99645994D01*
X127582929Y-99645994D02*
X127487691Y-99598375D01*
X127487691Y-99598375D02*
X127297215Y-99550756D01*
X127297215Y-99550756D02*
X127201977Y-99503137D01*
X127201977Y-99503137D02*
X127154358Y-99455518D01*
X127154358Y-99455518D02*
X127106739Y-99360280D01*
X127106739Y-99360280D02*
X127106739Y-99265042D01*
X127106739Y-99265042D02*
X127154358Y-99169804D01*
X127154358Y-99169804D02*
X127201977Y-99122185D01*
X127201977Y-99122185D02*
X127297215Y-99074566D01*
X127297215Y-99074566D02*
X127535310Y-99074566D01*
X127535310Y-99074566D02*
X127678167Y-99122185D01*
X128011501Y-99074566D02*
X128249596Y-100074566D01*
X128249596Y-100074566D02*
X128440072Y-99360280D01*
X128440072Y-99360280D02*
X128630548Y-100074566D01*
X128630548Y-100074566D02*
X128868644Y-99074566D01*
X129678167Y-99407899D02*
X129678167Y-100074566D01*
X129440072Y-99026947D02*
X129201977Y-99741232D01*
X129201977Y-99741232D02*
X129821024Y-99741232D01*
D14*
X97560577Y-119096265D02*
X98370100Y-119096265D01*
X98370100Y-119096265D02*
X98465338Y-119048646D01*
X98465338Y-119048646D02*
X98512958Y-119001027D01*
X98512958Y-119001027D02*
X98560577Y-118905789D01*
X98560577Y-118905789D02*
X98560577Y-118715313D01*
X98560577Y-118715313D02*
X98512958Y-118620075D01*
X98512958Y-118620075D02*
X98465338Y-118572456D01*
X98465338Y-118572456D02*
X98370100Y-118524837D01*
X98370100Y-118524837D02*
X97560577Y-118524837D01*
X97655815Y-118096265D02*
X97608196Y-118048646D01*
X97608196Y-118048646D02*
X97560577Y-117953408D01*
X97560577Y-117953408D02*
X97560577Y-117715313D01*
X97560577Y-117715313D02*
X97608196Y-117620075D01*
X97608196Y-117620075D02*
X97655815Y-117572456D01*
X97655815Y-117572456D02*
X97751053Y-117524837D01*
X97751053Y-117524837D02*
X97846291Y-117524837D01*
X97846291Y-117524837D02*
X97989148Y-117572456D01*
X97989148Y-117572456D02*
X98560577Y-118143884D01*
X98560577Y-118143884D02*
X98560577Y-117524837D01*
D11*
X152903088Y-121270731D02*
X152593564Y-121487398D01*
X152903088Y-121642160D02*
X152253088Y-121642160D01*
X152253088Y-121642160D02*
X152253088Y-121394541D01*
X152253088Y-121394541D02*
X152284040Y-121332636D01*
X152284040Y-121332636D02*
X152314993Y-121301683D01*
X152314993Y-121301683D02*
X152376897Y-121270731D01*
X152376897Y-121270731D02*
X152469755Y-121270731D01*
X152469755Y-121270731D02*
X152531659Y-121301683D01*
X152531659Y-121301683D02*
X152562612Y-121332636D01*
X152562612Y-121332636D02*
X152593564Y-121394541D01*
X152593564Y-121394541D02*
X152593564Y-121642160D01*
X152314993Y-121023112D02*
X152284040Y-120992160D01*
X152284040Y-120992160D02*
X152253088Y-120930255D01*
X152253088Y-120930255D02*
X152253088Y-120775493D01*
X152253088Y-120775493D02*
X152284040Y-120713588D01*
X152284040Y-120713588D02*
X152314993Y-120682636D01*
X152314993Y-120682636D02*
X152376897Y-120651683D01*
X152376897Y-120651683D02*
X152438802Y-120651683D01*
X152438802Y-120651683D02*
X152531659Y-120682636D01*
X152531659Y-120682636D02*
X152903088Y-121054064D01*
X152903088Y-121054064D02*
X152903088Y-120651683D01*
D14*
X171224041Y-143782790D02*
X171224041Y-142782790D01*
X171224041Y-142782790D02*
X171604993Y-142782790D01*
X171604993Y-142782790D02*
X171700231Y-142830409D01*
X171700231Y-142830409D02*
X171747850Y-142878028D01*
X171747850Y-142878028D02*
X171795469Y-142973266D01*
X171795469Y-142973266D02*
X171795469Y-143116123D01*
X171795469Y-143116123D02*
X171747850Y-143211361D01*
X171747850Y-143211361D02*
X171700231Y-143258980D01*
X171700231Y-143258980D02*
X171604993Y-143306599D01*
X171604993Y-143306599D02*
X171224041Y-143306599D01*
X172747850Y-143782790D02*
X172176422Y-143782790D01*
X172462136Y-143782790D02*
X172462136Y-142782790D01*
X172462136Y-142782790D02*
X172366898Y-142925647D01*
X172366898Y-142925647D02*
X172271660Y-143020885D01*
X172271660Y-143020885D02*
X172176422Y-143068504D01*
X146959889Y-125912461D02*
X146626556Y-125436270D01*
X146388461Y-125912461D02*
X146388461Y-124912461D01*
X146388461Y-124912461D02*
X146769413Y-124912461D01*
X146769413Y-124912461D02*
X146864651Y-124960080D01*
X146864651Y-124960080D02*
X146912270Y-125007699D01*
X146912270Y-125007699D02*
X146959889Y-125102937D01*
X146959889Y-125102937D02*
X146959889Y-125245794D01*
X146959889Y-125245794D02*
X146912270Y-125341032D01*
X146912270Y-125341032D02*
X146864651Y-125388651D01*
X146864651Y-125388651D02*
X146769413Y-125436270D01*
X146769413Y-125436270D02*
X146388461Y-125436270D01*
X147340842Y-125007699D02*
X147388461Y-124960080D01*
X147388461Y-124960080D02*
X147483699Y-124912461D01*
X147483699Y-124912461D02*
X147721794Y-124912461D01*
X147721794Y-124912461D02*
X147817032Y-124960080D01*
X147817032Y-124960080D02*
X147864651Y-125007699D01*
X147864651Y-125007699D02*
X147912270Y-125102937D01*
X147912270Y-125102937D02*
X147912270Y-125198175D01*
X147912270Y-125198175D02*
X147864651Y-125341032D01*
X147864651Y-125341032D02*
X147293223Y-125912461D01*
X147293223Y-125912461D02*
X147912270Y-125912461D01*
X148388461Y-125912461D02*
X148578937Y-125912461D01*
X148578937Y-125912461D02*
X148674175Y-125864842D01*
X148674175Y-125864842D02*
X148721794Y-125817222D01*
X148721794Y-125817222D02*
X148817032Y-125674365D01*
X148817032Y-125674365D02*
X148864651Y-125483889D01*
X148864651Y-125483889D02*
X148864651Y-125102937D01*
X148864651Y-125102937D02*
X148817032Y-125007699D01*
X148817032Y-125007699D02*
X148769413Y-124960080D01*
X148769413Y-124960080D02*
X148674175Y-124912461D01*
X148674175Y-124912461D02*
X148483699Y-124912461D01*
X148483699Y-124912461D02*
X148388461Y-124960080D01*
X148388461Y-124960080D02*
X148340842Y-125007699D01*
X148340842Y-125007699D02*
X148293223Y-125102937D01*
X148293223Y-125102937D02*
X148293223Y-125341032D01*
X148293223Y-125341032D02*
X148340842Y-125436270D01*
X148340842Y-125436270D02*
X148388461Y-125483889D01*
X148388461Y-125483889D02*
X148483699Y-125531508D01*
X148483699Y-125531508D02*
X148674175Y-125531508D01*
X148674175Y-125531508D02*
X148769413Y-125483889D01*
X148769413Y-125483889D02*
X148817032Y-125436270D01*
X148817032Y-125436270D02*
X148864651Y-125341032D01*
X167174876Y-132111571D02*
X166698686Y-132111571D01*
X166698686Y-132111571D02*
X166698686Y-131111571D01*
X167460591Y-131206809D02*
X167508210Y-131159190D01*
X167508210Y-131159190D02*
X167603448Y-131111571D01*
X167603448Y-131111571D02*
X167841543Y-131111571D01*
X167841543Y-131111571D02*
X167936781Y-131159190D01*
X167936781Y-131159190D02*
X167984400Y-131206809D01*
X167984400Y-131206809D02*
X168032019Y-131302047D01*
X168032019Y-131302047D02*
X168032019Y-131397285D01*
X168032019Y-131397285D02*
X167984400Y-131540142D01*
X167984400Y-131540142D02*
X167412972Y-132111571D01*
X167412972Y-132111571D02*
X168032019Y-132111571D01*
D11*
X157815592Y-115252588D02*
X157815592Y-114602588D01*
X157815592Y-114602588D02*
X157970354Y-114602588D01*
X157970354Y-114602588D02*
X158063211Y-114633540D01*
X158063211Y-114633540D02*
X158125116Y-114695445D01*
X158125116Y-114695445D02*
X158156069Y-114757350D01*
X158156069Y-114757350D02*
X158187021Y-114881159D01*
X158187021Y-114881159D02*
X158187021Y-114974016D01*
X158187021Y-114974016D02*
X158156069Y-115097826D01*
X158156069Y-115097826D02*
X158125116Y-115159731D01*
X158125116Y-115159731D02*
X158063211Y-115221636D01*
X158063211Y-115221636D02*
X157970354Y-115252588D01*
X157970354Y-115252588D02*
X157815592Y-115252588D01*
X158806069Y-115252588D02*
X158434640Y-115252588D01*
X158620354Y-115252588D02*
X158620354Y-114602588D01*
X158620354Y-114602588D02*
X158558450Y-114695445D01*
X158558450Y-114695445D02*
X158496545Y-114757350D01*
X158496545Y-114757350D02*
X158434640Y-114788302D01*
D14*
X133025024Y-135164943D02*
X133072644Y-135212562D01*
X133072644Y-135212562D02*
X133120263Y-135355419D01*
X133120263Y-135355419D02*
X133120263Y-135450657D01*
X133120263Y-135450657D02*
X133072644Y-135593514D01*
X133072644Y-135593514D02*
X132977405Y-135688752D01*
X132977405Y-135688752D02*
X132882167Y-135736371D01*
X132882167Y-135736371D02*
X132691691Y-135783990D01*
X132691691Y-135783990D02*
X132548834Y-135783990D01*
X132548834Y-135783990D02*
X132358358Y-135736371D01*
X132358358Y-135736371D02*
X132263120Y-135688752D01*
X132263120Y-135688752D02*
X132167882Y-135593514D01*
X132167882Y-135593514D02*
X132120263Y-135450657D01*
X132120263Y-135450657D02*
X132120263Y-135355419D01*
X132120263Y-135355419D02*
X132167882Y-135212562D01*
X132167882Y-135212562D02*
X132215501Y-135164943D01*
X132120263Y-134307800D02*
X132120263Y-134498276D01*
X132120263Y-134498276D02*
X132167882Y-134593514D01*
X132167882Y-134593514D02*
X132215501Y-134641133D01*
X132215501Y-134641133D02*
X132358358Y-134736371D01*
X132358358Y-134736371D02*
X132548834Y-134783990D01*
X132548834Y-134783990D02*
X132929786Y-134783990D01*
X132929786Y-134783990D02*
X133025024Y-134736371D01*
X133025024Y-134736371D02*
X133072644Y-134688752D01*
X133072644Y-134688752D02*
X133120263Y-134593514D01*
X133120263Y-134593514D02*
X133120263Y-134403038D01*
X133120263Y-134403038D02*
X133072644Y-134307800D01*
X133072644Y-134307800D02*
X133025024Y-134260181D01*
X133025024Y-134260181D02*
X132929786Y-134212562D01*
X132929786Y-134212562D02*
X132691691Y-134212562D01*
X132691691Y-134212562D02*
X132596453Y-134260181D01*
X132596453Y-134260181D02*
X132548834Y-134307800D01*
X132548834Y-134307800D02*
X132501215Y-134403038D01*
X132501215Y-134403038D02*
X132501215Y-134593514D01*
X132501215Y-134593514D02*
X132548834Y-134688752D01*
X132548834Y-134688752D02*
X132596453Y-134736371D01*
X132596453Y-134736371D02*
X132691691Y-134783990D01*
D11*
X162201107Y-117485793D02*
X161891583Y-117702460D01*
X162201107Y-117857222D02*
X161551107Y-117857222D01*
X161551107Y-117857222D02*
X161551107Y-117609603D01*
X161551107Y-117609603D02*
X161582059Y-117547698D01*
X161582059Y-117547698D02*
X161613012Y-117516745D01*
X161613012Y-117516745D02*
X161674916Y-117485793D01*
X161674916Y-117485793D02*
X161767774Y-117485793D01*
X161767774Y-117485793D02*
X161829678Y-117516745D01*
X161829678Y-117516745D02*
X161860631Y-117547698D01*
X161860631Y-117547698D02*
X161891583Y-117609603D01*
X161891583Y-117609603D02*
X161891583Y-117857222D01*
X161767774Y-116928650D02*
X162201107Y-116928650D01*
X161520155Y-117083412D02*
X161984440Y-117238174D01*
X161984440Y-117238174D02*
X161984440Y-116835793D01*
D14*
X172420619Y-140088857D02*
X171944428Y-140422190D01*
X172420619Y-140660285D02*
X171420619Y-140660285D01*
X171420619Y-140660285D02*
X171420619Y-140279333D01*
X171420619Y-140279333D02*
X171468238Y-140184095D01*
X171468238Y-140184095D02*
X171515857Y-140136476D01*
X171515857Y-140136476D02*
X171611095Y-140088857D01*
X171611095Y-140088857D02*
X171753952Y-140088857D01*
X171753952Y-140088857D02*
X171849190Y-140136476D01*
X171849190Y-140136476D02*
X171896809Y-140184095D01*
X171896809Y-140184095D02*
X171944428Y-140279333D01*
X171944428Y-140279333D02*
X171944428Y-140660285D01*
X172420619Y-139136476D02*
X172420619Y-139707904D01*
X172420619Y-139422190D02*
X171420619Y-139422190D01*
X171420619Y-139422190D02*
X171563476Y-139517428D01*
X171563476Y-139517428D02*
X171658714Y-139612666D01*
X171658714Y-139612666D02*
X171706333Y-139707904D01*
X171849190Y-138565047D02*
X171801571Y-138660285D01*
X171801571Y-138660285D02*
X171753952Y-138707904D01*
X171753952Y-138707904D02*
X171658714Y-138755523D01*
X171658714Y-138755523D02*
X171611095Y-138755523D01*
X171611095Y-138755523D02*
X171515857Y-138707904D01*
X171515857Y-138707904D02*
X171468238Y-138660285D01*
X171468238Y-138660285D02*
X171420619Y-138565047D01*
X171420619Y-138565047D02*
X171420619Y-138374571D01*
X171420619Y-138374571D02*
X171468238Y-138279333D01*
X171468238Y-138279333D02*
X171515857Y-138231714D01*
X171515857Y-138231714D02*
X171611095Y-138184095D01*
X171611095Y-138184095D02*
X171658714Y-138184095D01*
X171658714Y-138184095D02*
X171753952Y-138231714D01*
X171753952Y-138231714D02*
X171801571Y-138279333D01*
X171801571Y-138279333D02*
X171849190Y-138374571D01*
X171849190Y-138374571D02*
X171849190Y-138565047D01*
X171849190Y-138565047D02*
X171896809Y-138660285D01*
X171896809Y-138660285D02*
X171944428Y-138707904D01*
X171944428Y-138707904D02*
X172039666Y-138755523D01*
X172039666Y-138755523D02*
X172230142Y-138755523D01*
X172230142Y-138755523D02*
X172325380Y-138707904D01*
X172325380Y-138707904D02*
X172373000Y-138660285D01*
X172373000Y-138660285D02*
X172420619Y-138565047D01*
X172420619Y-138565047D02*
X172420619Y-138374571D01*
X172420619Y-138374571D02*
X172373000Y-138279333D01*
X172373000Y-138279333D02*
X172325380Y-138231714D01*
X172325380Y-138231714D02*
X172230142Y-138184095D01*
X172230142Y-138184095D02*
X172039666Y-138184095D01*
X172039666Y-138184095D02*
X171944428Y-138231714D01*
X171944428Y-138231714D02*
X171896809Y-138279333D01*
X171896809Y-138279333D02*
X171849190Y-138374571D01*
D11*
X113283649Y-128054299D02*
X113283649Y-128580489D01*
X113283649Y-128580489D02*
X113314602Y-128642394D01*
X113314602Y-128642394D02*
X113345554Y-128673347D01*
X113345554Y-128673347D02*
X113407459Y-128704299D01*
X113407459Y-128704299D02*
X113531268Y-128704299D01*
X113531268Y-128704299D02*
X113593173Y-128673347D01*
X113593173Y-128673347D02*
X113624126Y-128642394D01*
X113624126Y-128642394D02*
X113655078Y-128580489D01*
X113655078Y-128580489D02*
X113655078Y-128054299D01*
X114057459Y-128332870D02*
X113995554Y-128301918D01*
X113995554Y-128301918D02*
X113964601Y-128270966D01*
X113964601Y-128270966D02*
X113933649Y-128209061D01*
X113933649Y-128209061D02*
X113933649Y-128178108D01*
X113933649Y-128178108D02*
X113964601Y-128116204D01*
X113964601Y-128116204D02*
X113995554Y-128085251D01*
X113995554Y-128085251D02*
X114057459Y-128054299D01*
X114057459Y-128054299D02*
X114181268Y-128054299D01*
X114181268Y-128054299D02*
X114243173Y-128085251D01*
X114243173Y-128085251D02*
X114274125Y-128116204D01*
X114274125Y-128116204D02*
X114305078Y-128178108D01*
X114305078Y-128178108D02*
X114305078Y-128209061D01*
X114305078Y-128209061D02*
X114274125Y-128270966D01*
X114274125Y-128270966D02*
X114243173Y-128301918D01*
X114243173Y-128301918D02*
X114181268Y-128332870D01*
X114181268Y-128332870D02*
X114057459Y-128332870D01*
X114057459Y-128332870D02*
X113995554Y-128363823D01*
X113995554Y-128363823D02*
X113964601Y-128394775D01*
X113964601Y-128394775D02*
X113933649Y-128456680D01*
X113933649Y-128456680D02*
X113933649Y-128580489D01*
X113933649Y-128580489D02*
X113964601Y-128642394D01*
X113964601Y-128642394D02*
X113995554Y-128673347D01*
X113995554Y-128673347D02*
X114057459Y-128704299D01*
X114057459Y-128704299D02*
X114181268Y-128704299D01*
X114181268Y-128704299D02*
X114243173Y-128673347D01*
X114243173Y-128673347D02*
X114274125Y-128642394D01*
X114274125Y-128642394D02*
X114305078Y-128580489D01*
X114305078Y-128580489D02*
X114305078Y-128456680D01*
X114305078Y-128456680D02*
X114274125Y-128394775D01*
X114274125Y-128394775D02*
X114243173Y-128363823D01*
X114243173Y-128363823D02*
X114181268Y-128332870D01*
D14*
X94129211Y-131995649D02*
X94176831Y-132043268D01*
X94176831Y-132043268D02*
X94224450Y-132186125D01*
X94224450Y-132186125D02*
X94224450Y-132281363D01*
X94224450Y-132281363D02*
X94176831Y-132424220D01*
X94176831Y-132424220D02*
X94081592Y-132519458D01*
X94081592Y-132519458D02*
X93986354Y-132567077D01*
X93986354Y-132567077D02*
X93795878Y-132614696D01*
X93795878Y-132614696D02*
X93653021Y-132614696D01*
X93653021Y-132614696D02*
X93462545Y-132567077D01*
X93462545Y-132567077D02*
X93367307Y-132519458D01*
X93367307Y-132519458D02*
X93272069Y-132424220D01*
X93272069Y-132424220D02*
X93224450Y-132281363D01*
X93224450Y-132281363D02*
X93224450Y-132186125D01*
X93224450Y-132186125D02*
X93272069Y-132043268D01*
X93272069Y-132043268D02*
X93319688Y-131995649D01*
X94224450Y-131043268D02*
X94224450Y-131614696D01*
X94224450Y-131328982D02*
X93224450Y-131328982D01*
X93224450Y-131328982D02*
X93367307Y-131424220D01*
X93367307Y-131424220D02*
X93462545Y-131519458D01*
X93462545Y-131519458D02*
X93510164Y-131614696D01*
X93224450Y-130424220D02*
X93224450Y-130328982D01*
X93224450Y-130328982D02*
X93272069Y-130233744D01*
X93272069Y-130233744D02*
X93319688Y-130186125D01*
X93319688Y-130186125D02*
X93414926Y-130138506D01*
X93414926Y-130138506D02*
X93605402Y-130090887D01*
X93605402Y-130090887D02*
X93843497Y-130090887D01*
X93843497Y-130090887D02*
X94033973Y-130138506D01*
X94033973Y-130138506D02*
X94129211Y-130186125D01*
X94129211Y-130186125D02*
X94176831Y-130233744D01*
X94176831Y-130233744D02*
X94224450Y-130328982D01*
X94224450Y-130328982D02*
X94224450Y-130424220D01*
X94224450Y-130424220D02*
X94176831Y-130519458D01*
X94176831Y-130519458D02*
X94129211Y-130567077D01*
X94129211Y-130567077D02*
X94033973Y-130614696D01*
X94033973Y-130614696D02*
X93843497Y-130662315D01*
X93843497Y-130662315D02*
X93605402Y-130662315D01*
X93605402Y-130662315D02*
X93414926Y-130614696D01*
X93414926Y-130614696D02*
X93319688Y-130567077D01*
X93319688Y-130567077D02*
X93272069Y-130519458D01*
X93272069Y-130519458D02*
X93224450Y-130424220D01*
X114993275Y-108268954D02*
X114993275Y-108983239D01*
X114993275Y-108983239D02*
X114945656Y-109126096D01*
X114945656Y-109126096D02*
X114850418Y-109221335D01*
X114850418Y-109221335D02*
X114707561Y-109268954D01*
X114707561Y-109268954D02*
X114612323Y-109268954D01*
X115898037Y-108602287D02*
X115898037Y-109268954D01*
X115659942Y-108221335D02*
X115421847Y-108935620D01*
X115421847Y-108935620D02*
X116040894Y-108935620D01*
D15*
X123806387Y-107089600D02*
X123775911Y-107074362D01*
X123775911Y-107074362D02*
X123745435Y-107043886D01*
X123745435Y-107043886D02*
X123699721Y-106998171D01*
X123699721Y-106998171D02*
X123669244Y-106982933D01*
X123669244Y-106982933D02*
X123638768Y-106982933D01*
X123654006Y-107059124D02*
X123623530Y-107043886D01*
X123623530Y-107043886D02*
X123593054Y-107013409D01*
X123593054Y-107013409D02*
X123577816Y-106952457D01*
X123577816Y-106952457D02*
X123577816Y-106845790D01*
X123577816Y-106845790D02*
X123593054Y-106784838D01*
X123593054Y-106784838D02*
X123623530Y-106754362D01*
X123623530Y-106754362D02*
X123654006Y-106739124D01*
X123654006Y-106739124D02*
X123714959Y-106739124D01*
X123714959Y-106739124D02*
X123745435Y-106754362D01*
X123745435Y-106754362D02*
X123775911Y-106784838D01*
X123775911Y-106784838D02*
X123791149Y-106845790D01*
X123791149Y-106845790D02*
X123791149Y-106952457D01*
X123791149Y-106952457D02*
X123775911Y-107013409D01*
X123775911Y-107013409D02*
X123745435Y-107043886D01*
X123745435Y-107043886D02*
X123714959Y-107059124D01*
X123714959Y-107059124D02*
X123654006Y-107059124D01*
X124065435Y-106739124D02*
X124004482Y-106739124D01*
X124004482Y-106739124D02*
X123974006Y-106754362D01*
X123974006Y-106754362D02*
X123958768Y-106769600D01*
X123958768Y-106769600D02*
X123928292Y-106815314D01*
X123928292Y-106815314D02*
X123913054Y-106876266D01*
X123913054Y-106876266D02*
X123913054Y-106998171D01*
X123913054Y-106998171D02*
X123928292Y-107028647D01*
X123928292Y-107028647D02*
X123943530Y-107043886D01*
X123943530Y-107043886D02*
X123974006Y-107059124D01*
X123974006Y-107059124D02*
X124034959Y-107059124D01*
X124034959Y-107059124D02*
X124065435Y-107043886D01*
X124065435Y-107043886D02*
X124080673Y-107028647D01*
X124080673Y-107028647D02*
X124095911Y-106998171D01*
X124095911Y-106998171D02*
X124095911Y-106921981D01*
X124095911Y-106921981D02*
X124080673Y-106891505D01*
X124080673Y-106891505D02*
X124065435Y-106876266D01*
X124065435Y-106876266D02*
X124034959Y-106861028D01*
X124034959Y-106861028D02*
X123974006Y-106861028D01*
X123974006Y-106861028D02*
X123943530Y-106876266D01*
X123943530Y-106876266D02*
X123928292Y-106891505D01*
X123928292Y-106891505D02*
X123913054Y-106921981D01*
X123709840Y-114031325D02*
X123679364Y-114016087D01*
X123679364Y-114016087D02*
X123648888Y-113985611D01*
X123648888Y-113985611D02*
X123603174Y-113939896D01*
X123603174Y-113939896D02*
X123572697Y-113924658D01*
X123572697Y-113924658D02*
X123542221Y-113924658D01*
X123557459Y-114000849D02*
X123526983Y-113985611D01*
X123526983Y-113985611D02*
X123496507Y-113955134D01*
X123496507Y-113955134D02*
X123481269Y-113894182D01*
X123481269Y-113894182D02*
X123481269Y-113787515D01*
X123481269Y-113787515D02*
X123496507Y-113726563D01*
X123496507Y-113726563D02*
X123526983Y-113696087D01*
X123526983Y-113696087D02*
X123557459Y-113680849D01*
X123557459Y-113680849D02*
X123618412Y-113680849D01*
X123618412Y-113680849D02*
X123648888Y-113696087D01*
X123648888Y-113696087D02*
X123679364Y-113726563D01*
X123679364Y-113726563D02*
X123694602Y-113787515D01*
X123694602Y-113787515D02*
X123694602Y-113894182D01*
X123694602Y-113894182D02*
X123679364Y-113955134D01*
X123679364Y-113955134D02*
X123648888Y-113985611D01*
X123648888Y-113985611D02*
X123618412Y-114000849D01*
X123618412Y-114000849D02*
X123557459Y-114000849D01*
X123968888Y-113787515D02*
X123968888Y-114000849D01*
X123892697Y-113665611D02*
X123816507Y-113894182D01*
X123816507Y-113894182D02*
X124014602Y-113894182D01*
D11*
X131288402Y-120467180D02*
X131071735Y-120157656D01*
X130916973Y-120467180D02*
X130916973Y-119817180D01*
X130916973Y-119817180D02*
X131164592Y-119817180D01*
X131164592Y-119817180D02*
X131226497Y-119848132D01*
X131226497Y-119848132D02*
X131257450Y-119879085D01*
X131257450Y-119879085D02*
X131288402Y-119940989D01*
X131288402Y-119940989D02*
X131288402Y-120033847D01*
X131288402Y-120033847D02*
X131257450Y-120095751D01*
X131257450Y-120095751D02*
X131226497Y-120126704D01*
X131226497Y-120126704D02*
X131164592Y-120157656D01*
X131164592Y-120157656D02*
X130916973Y-120157656D01*
X131536021Y-119879085D02*
X131566973Y-119848132D01*
X131566973Y-119848132D02*
X131628878Y-119817180D01*
X131628878Y-119817180D02*
X131783640Y-119817180D01*
X131783640Y-119817180D02*
X131845545Y-119848132D01*
X131845545Y-119848132D02*
X131876497Y-119879085D01*
X131876497Y-119879085D02*
X131907450Y-119940989D01*
X131907450Y-119940989D02*
X131907450Y-120002894D01*
X131907450Y-120002894D02*
X131876497Y-120095751D01*
X131876497Y-120095751D02*
X131505069Y-120467180D01*
X131505069Y-120467180D02*
X131907450Y-120467180D01*
X132155069Y-119879085D02*
X132186021Y-119848132D01*
X132186021Y-119848132D02*
X132247926Y-119817180D01*
X132247926Y-119817180D02*
X132402688Y-119817180D01*
X132402688Y-119817180D02*
X132464593Y-119848132D01*
X132464593Y-119848132D02*
X132495545Y-119879085D01*
X132495545Y-119879085D02*
X132526498Y-119940989D01*
X132526498Y-119940989D02*
X132526498Y-120002894D01*
X132526498Y-120002894D02*
X132495545Y-120095751D01*
X132495545Y-120095751D02*
X132124117Y-120467180D01*
X132124117Y-120467180D02*
X132526498Y-120467180D01*
D14*
X161821619Y-149604343D02*
X161774000Y-149651963D01*
X161774000Y-149651963D02*
X161631143Y-149699582D01*
X161631143Y-149699582D02*
X161535905Y-149699582D01*
X161535905Y-149699582D02*
X161393048Y-149651963D01*
X161393048Y-149651963D02*
X161297810Y-149556724D01*
X161297810Y-149556724D02*
X161250191Y-149461486D01*
X161250191Y-149461486D02*
X161202572Y-149271010D01*
X161202572Y-149271010D02*
X161202572Y-149128153D01*
X161202572Y-149128153D02*
X161250191Y-148937677D01*
X161250191Y-148937677D02*
X161297810Y-148842439D01*
X161297810Y-148842439D02*
X161393048Y-148747201D01*
X161393048Y-148747201D02*
X161535905Y-148699582D01*
X161535905Y-148699582D02*
X161631143Y-148699582D01*
X161631143Y-148699582D02*
X161774000Y-148747201D01*
X161774000Y-148747201D02*
X161821619Y-148794820D01*
X162774000Y-149699582D02*
X162202572Y-149699582D01*
X162488286Y-149699582D02*
X162488286Y-148699582D01*
X162488286Y-148699582D02*
X162393048Y-148842439D01*
X162393048Y-148842439D02*
X162297810Y-148937677D01*
X162297810Y-148937677D02*
X162202572Y-148985296D01*
X163154953Y-148794820D02*
X163202572Y-148747201D01*
X163202572Y-148747201D02*
X163297810Y-148699582D01*
X163297810Y-148699582D02*
X163535905Y-148699582D01*
X163535905Y-148699582D02*
X163631143Y-148747201D01*
X163631143Y-148747201D02*
X163678762Y-148794820D01*
X163678762Y-148794820D02*
X163726381Y-148890058D01*
X163726381Y-148890058D02*
X163726381Y-148985296D01*
X163726381Y-148985296D02*
X163678762Y-149128153D01*
X163678762Y-149128153D02*
X163107334Y-149699582D01*
X163107334Y-149699582D02*
X163726381Y-149699582D01*
X87210333Y-127220219D02*
X86734143Y-127220219D01*
X86734143Y-127220219D02*
X86734143Y-126220219D01*
X87448429Y-126220219D02*
X88115095Y-126220219D01*
X88115095Y-126220219D02*
X87686524Y-127220219D01*
X135320809Y-111077333D02*
X135320809Y-111410666D01*
X135844619Y-111410666D02*
X134844619Y-111410666D01*
X134844619Y-111410666D02*
X134844619Y-110934476D01*
X134844619Y-110648761D02*
X134844619Y-110029714D01*
X134844619Y-110029714D02*
X135225571Y-110363047D01*
X135225571Y-110363047D02*
X135225571Y-110220190D01*
X135225571Y-110220190D02*
X135273190Y-110124952D01*
X135273190Y-110124952D02*
X135320809Y-110077333D01*
X135320809Y-110077333D02*
X135416047Y-110029714D01*
X135416047Y-110029714D02*
X135654142Y-110029714D01*
X135654142Y-110029714D02*
X135749380Y-110077333D01*
X135749380Y-110077333D02*
X135797000Y-110124952D01*
X135797000Y-110124952D02*
X135844619Y-110220190D01*
X135844619Y-110220190D02*
X135844619Y-110505904D01*
X135844619Y-110505904D02*
X135797000Y-110601142D01*
X135797000Y-110601142D02*
X135749380Y-110648761D01*
D16*
X120877333Y-110554047D02*
X120744000Y-110363571D01*
X120648762Y-110554047D02*
X120648762Y-110154047D01*
X120648762Y-110154047D02*
X120801143Y-110154047D01*
X120801143Y-110154047D02*
X120839238Y-110173095D01*
X120839238Y-110173095D02*
X120858285Y-110192142D01*
X120858285Y-110192142D02*
X120877333Y-110230238D01*
X120877333Y-110230238D02*
X120877333Y-110287380D01*
X120877333Y-110287380D02*
X120858285Y-110325476D01*
X120858285Y-110325476D02*
X120839238Y-110344523D01*
X120839238Y-110344523D02*
X120801143Y-110363571D01*
X120801143Y-110363571D02*
X120648762Y-110363571D01*
X121010666Y-110154047D02*
X121277333Y-110154047D01*
X121277333Y-110154047D02*
X121105904Y-110554047D01*
D11*
X165865223Y-117524830D02*
X165834270Y-117586735D01*
X165834270Y-117586735D02*
X165772366Y-117648640D01*
X165772366Y-117648640D02*
X165679508Y-117741497D01*
X165679508Y-117741497D02*
X165648556Y-117803402D01*
X165648556Y-117803402D02*
X165648556Y-117865306D01*
X165803318Y-117834354D02*
X165772366Y-117896259D01*
X165772366Y-117896259D02*
X165710461Y-117958164D01*
X165710461Y-117958164D02*
X165586651Y-117989116D01*
X165586651Y-117989116D02*
X165369985Y-117989116D01*
X165369985Y-117989116D02*
X165246175Y-117958164D01*
X165246175Y-117958164D02*
X165184270Y-117896259D01*
X165184270Y-117896259D02*
X165153318Y-117834354D01*
X165153318Y-117834354D02*
X165153318Y-117710545D01*
X165153318Y-117710545D02*
X165184270Y-117648640D01*
X165184270Y-117648640D02*
X165246175Y-117586735D01*
X165246175Y-117586735D02*
X165369985Y-117555783D01*
X165369985Y-117555783D02*
X165586651Y-117555783D01*
X165586651Y-117555783D02*
X165710461Y-117586735D01*
X165710461Y-117586735D02*
X165772366Y-117648640D01*
X165772366Y-117648640D02*
X165803318Y-117710545D01*
X165803318Y-117710545D02*
X165803318Y-117834354D01*
X165153318Y-117339116D02*
X165153318Y-116936735D01*
X165153318Y-116936735D02*
X165400937Y-117153402D01*
X165400937Y-117153402D02*
X165400937Y-117060545D01*
X165400937Y-117060545D02*
X165431889Y-116998640D01*
X165431889Y-116998640D02*
X165462842Y-116967688D01*
X165462842Y-116967688D02*
X165524746Y-116936735D01*
X165524746Y-116936735D02*
X165679508Y-116936735D01*
X165679508Y-116936735D02*
X165741413Y-116967688D01*
X165741413Y-116967688D02*
X165772366Y-116998640D01*
X165772366Y-116998640D02*
X165803318Y-117060545D01*
X165803318Y-117060545D02*
X165803318Y-117246259D01*
X165803318Y-117246259D02*
X165772366Y-117308164D01*
X165772366Y-117308164D02*
X165741413Y-117339116D01*
D14*
X153546910Y-107294126D02*
X153499291Y-107341746D01*
X153499291Y-107341746D02*
X153356434Y-107389365D01*
X153356434Y-107389365D02*
X153261196Y-107389365D01*
X153261196Y-107389365D02*
X153118339Y-107341746D01*
X153118339Y-107341746D02*
X153023101Y-107246507D01*
X153023101Y-107246507D02*
X152975482Y-107151269D01*
X152975482Y-107151269D02*
X152927863Y-106960793D01*
X152927863Y-106960793D02*
X152927863Y-106817936D01*
X152927863Y-106817936D02*
X152975482Y-106627460D01*
X152975482Y-106627460D02*
X153023101Y-106532222D01*
X153023101Y-106532222D02*
X153118339Y-106436984D01*
X153118339Y-106436984D02*
X153261196Y-106389365D01*
X153261196Y-106389365D02*
X153356434Y-106389365D01*
X153356434Y-106389365D02*
X153499291Y-106436984D01*
X153499291Y-106436984D02*
X153546910Y-106484603D01*
X154499291Y-107389365D02*
X153927863Y-107389365D01*
X154213577Y-107389365D02*
X154213577Y-106389365D01*
X154213577Y-106389365D02*
X154118339Y-106532222D01*
X154118339Y-106532222D02*
X154023101Y-106627460D01*
X154023101Y-106627460D02*
X153927863Y-106675079D01*
X177786095Y-141702119D02*
X178357523Y-141702119D01*
X178071809Y-142702119D02*
X178071809Y-141702119D01*
X179214666Y-142702119D02*
X178643238Y-142702119D01*
X178928952Y-142702119D02*
X178928952Y-141702119D01*
X178928952Y-141702119D02*
X178833714Y-141844976D01*
X178833714Y-141844976D02*
X178738476Y-141940214D01*
X178738476Y-141940214D02*
X178643238Y-141987833D01*
X135091335Y-127705484D02*
X135091335Y-128515007D01*
X135091335Y-128515007D02*
X135138954Y-128610245D01*
X135138954Y-128610245D02*
X135186573Y-128657865D01*
X135186573Y-128657865D02*
X135281811Y-128705484D01*
X135281811Y-128705484D02*
X135472287Y-128705484D01*
X135472287Y-128705484D02*
X135567525Y-128657865D01*
X135567525Y-128657865D02*
X135615144Y-128610245D01*
X135615144Y-128610245D02*
X135662763Y-128515007D01*
X135662763Y-128515007D02*
X135662763Y-127705484D01*
X136567525Y-127705484D02*
X136377049Y-127705484D01*
X136377049Y-127705484D02*
X136281811Y-127753103D01*
X136281811Y-127753103D02*
X136234192Y-127800722D01*
X136234192Y-127800722D02*
X136138954Y-127943579D01*
X136138954Y-127943579D02*
X136091335Y-128134055D01*
X136091335Y-128134055D02*
X136091335Y-128515007D01*
X136091335Y-128515007D02*
X136138954Y-128610245D01*
X136138954Y-128610245D02*
X136186573Y-128657865D01*
X136186573Y-128657865D02*
X136281811Y-128705484D01*
X136281811Y-128705484D02*
X136472287Y-128705484D01*
X136472287Y-128705484D02*
X136567525Y-128657865D01*
X136567525Y-128657865D02*
X136615144Y-128610245D01*
X136615144Y-128610245D02*
X136662763Y-128515007D01*
X136662763Y-128515007D02*
X136662763Y-128276912D01*
X136662763Y-128276912D02*
X136615144Y-128181674D01*
X136615144Y-128181674D02*
X136567525Y-128134055D01*
X136567525Y-128134055D02*
X136472287Y-128086436D01*
X136472287Y-128086436D02*
X136281811Y-128086436D01*
X136281811Y-128086436D02*
X136186573Y-128134055D01*
X136186573Y-128134055D02*
X136138954Y-128181674D01*
X136138954Y-128181674D02*
X136091335Y-128276912D01*
X105245842Y-110578828D02*
X104769652Y-110578828D01*
X104769652Y-110578828D02*
X104769652Y-109578828D01*
X106055366Y-109578828D02*
X105579176Y-109578828D01*
X105579176Y-109578828D02*
X105531557Y-110055018D01*
X105531557Y-110055018D02*
X105579176Y-110007399D01*
X105579176Y-110007399D02*
X105674414Y-109959780D01*
X105674414Y-109959780D02*
X105912509Y-109959780D01*
X105912509Y-109959780D02*
X106007747Y-110007399D01*
X106007747Y-110007399D02*
X106055366Y-110055018D01*
X106055366Y-110055018D02*
X106102985Y-110150256D01*
X106102985Y-110150256D02*
X106102985Y-110388351D01*
X106102985Y-110388351D02*
X106055366Y-110483589D01*
X106055366Y-110483589D02*
X106007747Y-110531209D01*
X106007747Y-110531209D02*
X105912509Y-110578828D01*
X105912509Y-110578828D02*
X105674414Y-110578828D01*
X105674414Y-110578828D02*
X105579176Y-110531209D01*
X105579176Y-110531209D02*
X105531557Y-110483589D01*
X144705805Y-128475113D02*
X144753425Y-128522732D01*
X144753425Y-128522732D02*
X144801044Y-128665589D01*
X144801044Y-128665589D02*
X144801044Y-128760827D01*
X144801044Y-128760827D02*
X144753425Y-128903684D01*
X144753425Y-128903684D02*
X144658186Y-128998922D01*
X144658186Y-128998922D02*
X144562948Y-129046541D01*
X144562948Y-129046541D02*
X144372472Y-129094160D01*
X144372472Y-129094160D02*
X144229615Y-129094160D01*
X144229615Y-129094160D02*
X144039139Y-129046541D01*
X144039139Y-129046541D02*
X143943901Y-128998922D01*
X143943901Y-128998922D02*
X143848663Y-128903684D01*
X143848663Y-128903684D02*
X143801044Y-128760827D01*
X143801044Y-128760827D02*
X143801044Y-128665589D01*
X143801044Y-128665589D02*
X143848663Y-128522732D01*
X143848663Y-128522732D02*
X143896282Y-128475113D01*
X144801044Y-127522732D02*
X144801044Y-128094160D01*
X144801044Y-127808446D02*
X143801044Y-127808446D01*
X143801044Y-127808446D02*
X143943901Y-127903684D01*
X143943901Y-127903684D02*
X144039139Y-127998922D01*
X144039139Y-127998922D02*
X144086758Y-128094160D01*
X144801044Y-127046541D02*
X144801044Y-126856065D01*
X144801044Y-126856065D02*
X144753425Y-126760827D01*
X144753425Y-126760827D02*
X144705805Y-126713208D01*
X144705805Y-126713208D02*
X144562948Y-126617970D01*
X144562948Y-126617970D02*
X144372472Y-126570351D01*
X144372472Y-126570351D02*
X143991520Y-126570351D01*
X143991520Y-126570351D02*
X143896282Y-126617970D01*
X143896282Y-126617970D02*
X143848663Y-126665589D01*
X143848663Y-126665589D02*
X143801044Y-126760827D01*
X143801044Y-126760827D02*
X143801044Y-126951303D01*
X143801044Y-126951303D02*
X143848663Y-127046541D01*
X143848663Y-127046541D02*
X143896282Y-127094160D01*
X143896282Y-127094160D02*
X143991520Y-127141779D01*
X143991520Y-127141779D02*
X144229615Y-127141779D01*
X144229615Y-127141779D02*
X144324853Y-127094160D01*
X144324853Y-127094160D02*
X144372472Y-127046541D01*
X144372472Y-127046541D02*
X144420091Y-126951303D01*
X144420091Y-126951303D02*
X144420091Y-126760827D01*
X144420091Y-126760827D02*
X144372472Y-126665589D01*
X144372472Y-126665589D02*
X144324853Y-126617970D01*
X144324853Y-126617970D02*
X144229615Y-126570351D01*
D16*
X120837333Y-113995047D02*
X120704000Y-113804571D01*
X120608762Y-113995047D02*
X120608762Y-113595047D01*
X120608762Y-113595047D02*
X120761143Y-113595047D01*
X120761143Y-113595047D02*
X120799238Y-113614095D01*
X120799238Y-113614095D02*
X120818285Y-113633142D01*
X120818285Y-113633142D02*
X120837333Y-113671238D01*
X120837333Y-113671238D02*
X120837333Y-113728380D01*
X120837333Y-113728380D02*
X120818285Y-113766476D01*
X120818285Y-113766476D02*
X120799238Y-113785523D01*
X120799238Y-113785523D02*
X120761143Y-113804571D01*
X120761143Y-113804571D02*
X120608762Y-113804571D01*
X121180190Y-113595047D02*
X121104000Y-113595047D01*
X121104000Y-113595047D02*
X121065904Y-113614095D01*
X121065904Y-113614095D02*
X121046857Y-113633142D01*
X121046857Y-113633142D02*
X121008762Y-113690285D01*
X121008762Y-113690285D02*
X120989714Y-113766476D01*
X120989714Y-113766476D02*
X120989714Y-113918857D01*
X120989714Y-113918857D02*
X121008762Y-113956952D01*
X121008762Y-113956952D02*
X121027809Y-113976000D01*
X121027809Y-113976000D02*
X121065904Y-113995047D01*
X121065904Y-113995047D02*
X121142095Y-113995047D01*
X121142095Y-113995047D02*
X121180190Y-113976000D01*
X121180190Y-113976000D02*
X121199238Y-113956952D01*
X121199238Y-113956952D02*
X121218285Y-113918857D01*
X121218285Y-113918857D02*
X121218285Y-113823619D01*
X121218285Y-113823619D02*
X121199238Y-113785523D01*
X121199238Y-113785523D02*
X121180190Y-113766476D01*
X121180190Y-113766476D02*
X121142095Y-113747428D01*
X121142095Y-113747428D02*
X121065904Y-113747428D01*
X121065904Y-113747428D02*
X121027809Y-113766476D01*
X121027809Y-113766476D02*
X121008762Y-113785523D01*
X121008762Y-113785523D02*
X120989714Y-113823619D01*
D14*
X131160139Y-116024311D02*
X131160139Y-115024311D01*
X131160139Y-115024311D02*
X131398234Y-115024311D01*
X131398234Y-115024311D02*
X131541091Y-115071930D01*
X131541091Y-115071930D02*
X131636329Y-115167168D01*
X131636329Y-115167168D02*
X131683948Y-115262406D01*
X131683948Y-115262406D02*
X131731567Y-115452882D01*
X131731567Y-115452882D02*
X131731567Y-115595739D01*
X131731567Y-115595739D02*
X131683948Y-115786215D01*
X131683948Y-115786215D02*
X131636329Y-115881453D01*
X131636329Y-115881453D02*
X131541091Y-115976692D01*
X131541091Y-115976692D02*
X131398234Y-116024311D01*
X131398234Y-116024311D02*
X131160139Y-116024311D01*
X132588710Y-115357644D02*
X132588710Y-116024311D01*
X132350615Y-114976692D02*
X132112520Y-115690977D01*
X132112520Y-115690977D02*
X132731567Y-115690977D01*
X118108834Y-116258818D02*
X118108834Y-116592151D01*
X118632644Y-116592151D02*
X117632644Y-116592151D01*
X117632644Y-116592151D02*
X117632644Y-116115961D01*
X117727882Y-115782627D02*
X117680263Y-115735008D01*
X117680263Y-115735008D02*
X117632644Y-115639770D01*
X117632644Y-115639770D02*
X117632644Y-115401675D01*
X117632644Y-115401675D02*
X117680263Y-115306437D01*
X117680263Y-115306437D02*
X117727882Y-115258818D01*
X117727882Y-115258818D02*
X117823120Y-115211199D01*
X117823120Y-115211199D02*
X117918358Y-115211199D01*
X117918358Y-115211199D02*
X118061215Y-115258818D01*
X118061215Y-115258818D02*
X118632644Y-115830246D01*
X118632644Y-115830246D02*
X118632644Y-115211199D01*
X83883095Y-136807619D02*
X84454523Y-136807619D01*
X84168809Y-137807619D02*
X84168809Y-136807619D01*
X84692619Y-136807619D02*
X85311666Y-136807619D01*
X85311666Y-136807619D02*
X84978333Y-137188571D01*
X84978333Y-137188571D02*
X85121190Y-137188571D01*
X85121190Y-137188571D02*
X85216428Y-137236190D01*
X85216428Y-137236190D02*
X85264047Y-137283809D01*
X85264047Y-137283809D02*
X85311666Y-137379047D01*
X85311666Y-137379047D02*
X85311666Y-137617142D01*
X85311666Y-137617142D02*
X85264047Y-137712380D01*
X85264047Y-137712380D02*
X85216428Y-137760000D01*
X85216428Y-137760000D02*
X85121190Y-137807619D01*
X85121190Y-137807619D02*
X84835476Y-137807619D01*
X84835476Y-137807619D02*
X84740238Y-137760000D01*
X84740238Y-137760000D02*
X84692619Y-137712380D01*
D11*
X125273846Y-121503584D02*
X124623846Y-121503584D01*
X124623846Y-121503584D02*
X124623846Y-121348822D01*
X124623846Y-121348822D02*
X124654798Y-121255965D01*
X124654798Y-121255965D02*
X124716703Y-121194060D01*
X124716703Y-121194060D02*
X124778608Y-121163107D01*
X124778608Y-121163107D02*
X124902417Y-121132155D01*
X124902417Y-121132155D02*
X124995274Y-121132155D01*
X124995274Y-121132155D02*
X125119084Y-121163107D01*
X125119084Y-121163107D02*
X125180989Y-121194060D01*
X125180989Y-121194060D02*
X125242894Y-121255965D01*
X125242894Y-121255965D02*
X125273846Y-121348822D01*
X125273846Y-121348822D02*
X125273846Y-121503584D01*
X124685751Y-120884536D02*
X124654798Y-120853584D01*
X124654798Y-120853584D02*
X124623846Y-120791679D01*
X124623846Y-120791679D02*
X124623846Y-120636917D01*
X124623846Y-120636917D02*
X124654798Y-120575012D01*
X124654798Y-120575012D02*
X124685751Y-120544060D01*
X124685751Y-120544060D02*
X124747655Y-120513107D01*
X124747655Y-120513107D02*
X124809560Y-120513107D01*
X124809560Y-120513107D02*
X124902417Y-120544060D01*
X124902417Y-120544060D02*
X125273846Y-120915488D01*
X125273846Y-120915488D02*
X125273846Y-120513107D01*
X132630179Y-123050493D02*
X132599227Y-123081446D01*
X132599227Y-123081446D02*
X132506369Y-123112398D01*
X132506369Y-123112398D02*
X132444465Y-123112398D01*
X132444465Y-123112398D02*
X132351608Y-123081446D01*
X132351608Y-123081446D02*
X132289703Y-123019541D01*
X132289703Y-123019541D02*
X132258750Y-122957636D01*
X132258750Y-122957636D02*
X132227798Y-122833826D01*
X132227798Y-122833826D02*
X132227798Y-122740969D01*
X132227798Y-122740969D02*
X132258750Y-122617160D01*
X132258750Y-122617160D02*
X132289703Y-122555255D01*
X132289703Y-122555255D02*
X132351608Y-122493350D01*
X132351608Y-122493350D02*
X132444465Y-122462398D01*
X132444465Y-122462398D02*
X132506369Y-122462398D01*
X132506369Y-122462398D02*
X132599227Y-122493350D01*
X132599227Y-122493350D02*
X132630179Y-122524303D01*
X133249227Y-123112398D02*
X132877798Y-123112398D01*
X133063512Y-123112398D02*
X133063512Y-122462398D01*
X133063512Y-122462398D02*
X133001608Y-122555255D01*
X133001608Y-122555255D02*
X132939703Y-122617160D01*
X132939703Y-122617160D02*
X132877798Y-122648112D01*
X133465894Y-122462398D02*
X133899227Y-122462398D01*
X133899227Y-122462398D02*
X133620656Y-123112398D01*
D16*
X128281557Y-113120662D02*
X128148224Y-112930186D01*
X128052986Y-113120662D02*
X128052986Y-112720662D01*
X128052986Y-112720662D02*
X128205367Y-112720662D01*
X128205367Y-112720662D02*
X128243462Y-112739710D01*
X128243462Y-112739710D02*
X128262509Y-112758757D01*
X128262509Y-112758757D02*
X128281557Y-112796853D01*
X128281557Y-112796853D02*
X128281557Y-112853995D01*
X128281557Y-112853995D02*
X128262509Y-112892091D01*
X128262509Y-112892091D02*
X128243462Y-112911138D01*
X128243462Y-112911138D02*
X128205367Y-112930186D01*
X128205367Y-112930186D02*
X128052986Y-112930186D01*
X128662509Y-113120662D02*
X128433938Y-113120662D01*
X128548224Y-113120662D02*
X128548224Y-112720662D01*
X128548224Y-112720662D02*
X128510128Y-112777805D01*
X128510128Y-112777805D02*
X128472033Y-112815900D01*
X128472033Y-112815900D02*
X128433938Y-112834948D01*
X129043461Y-113120662D02*
X128814890Y-113120662D01*
X128929176Y-113120662D02*
X128929176Y-112720662D01*
X128929176Y-112720662D02*
X128891080Y-112777805D01*
X128891080Y-112777805D02*
X128852985Y-112815900D01*
X128852985Y-112815900D02*
X128814890Y-112834948D01*
D11*
X160832465Y-117500199D02*
X160522941Y-117716866D01*
X160832465Y-117871628D02*
X160182465Y-117871628D01*
X160182465Y-117871628D02*
X160182465Y-117624009D01*
X160182465Y-117624009D02*
X160213417Y-117562104D01*
X160213417Y-117562104D02*
X160244370Y-117531151D01*
X160244370Y-117531151D02*
X160306274Y-117500199D01*
X160306274Y-117500199D02*
X160399132Y-117500199D01*
X160399132Y-117500199D02*
X160461036Y-117531151D01*
X160461036Y-117531151D02*
X160491989Y-117562104D01*
X160491989Y-117562104D02*
X160522941Y-117624009D01*
X160522941Y-117624009D02*
X160522941Y-117871628D01*
X160182465Y-116912104D02*
X160182465Y-117221628D01*
X160182465Y-117221628D02*
X160491989Y-117252580D01*
X160491989Y-117252580D02*
X160461036Y-117221628D01*
X160461036Y-117221628D02*
X160430084Y-117159723D01*
X160430084Y-117159723D02*
X160430084Y-117004961D01*
X160430084Y-117004961D02*
X160461036Y-116943056D01*
X160461036Y-116943056D02*
X160491989Y-116912104D01*
X160491989Y-116912104D02*
X160553893Y-116881151D01*
X160553893Y-116881151D02*
X160708655Y-116881151D01*
X160708655Y-116881151D02*
X160770560Y-116912104D01*
X160770560Y-116912104D02*
X160801513Y-116943056D01*
X160801513Y-116943056D02*
X160832465Y-117004961D01*
X160832465Y-117004961D02*
X160832465Y-117159723D01*
X160832465Y-117159723D02*
X160801513Y-117221628D01*
X160801513Y-117221628D02*
X160770560Y-117252580D01*
D14*
X127035682Y-142009928D02*
X126988063Y-142057548D01*
X126988063Y-142057548D02*
X126845206Y-142105167D01*
X126845206Y-142105167D02*
X126749968Y-142105167D01*
X126749968Y-142105167D02*
X126607111Y-142057548D01*
X126607111Y-142057548D02*
X126511873Y-141962309D01*
X126511873Y-141962309D02*
X126464254Y-141867071D01*
X126464254Y-141867071D02*
X126416635Y-141676595D01*
X126416635Y-141676595D02*
X126416635Y-141533738D01*
X126416635Y-141533738D02*
X126464254Y-141343262D01*
X126464254Y-141343262D02*
X126511873Y-141248024D01*
X126511873Y-141248024D02*
X126607111Y-141152786D01*
X126607111Y-141152786D02*
X126749968Y-141105167D01*
X126749968Y-141105167D02*
X126845206Y-141105167D01*
X126845206Y-141105167D02*
X126988063Y-141152786D01*
X126988063Y-141152786D02*
X127035682Y-141200405D01*
X127940444Y-141105167D02*
X127464254Y-141105167D01*
X127464254Y-141105167D02*
X127416635Y-141581357D01*
X127416635Y-141581357D02*
X127464254Y-141533738D01*
X127464254Y-141533738D02*
X127559492Y-141486119D01*
X127559492Y-141486119D02*
X127797587Y-141486119D01*
X127797587Y-141486119D02*
X127892825Y-141533738D01*
X127892825Y-141533738D02*
X127940444Y-141581357D01*
X127940444Y-141581357D02*
X127988063Y-141676595D01*
X127988063Y-141676595D02*
X127988063Y-141914690D01*
X127988063Y-141914690D02*
X127940444Y-142009928D01*
X127940444Y-142009928D02*
X127892825Y-142057548D01*
X127892825Y-142057548D02*
X127797587Y-142105167D01*
X127797587Y-142105167D02*
X127559492Y-142105167D01*
X127559492Y-142105167D02*
X127464254Y-142057548D01*
X127464254Y-142057548D02*
X127416635Y-142009928D01*
X154761327Y-146655483D02*
X154761327Y-147465006D01*
X154761327Y-147465006D02*
X154808946Y-147560244D01*
X154808946Y-147560244D02*
X154856565Y-147607864D01*
X154856565Y-147607864D02*
X154951803Y-147655483D01*
X154951803Y-147655483D02*
X155142279Y-147655483D01*
X155142279Y-147655483D02*
X155237517Y-147607864D01*
X155237517Y-147607864D02*
X155285136Y-147560244D01*
X155285136Y-147560244D02*
X155332755Y-147465006D01*
X155332755Y-147465006D02*
X155332755Y-146655483D01*
X155713708Y-146655483D02*
X156332755Y-146655483D01*
X156332755Y-146655483D02*
X155999422Y-147036435D01*
X155999422Y-147036435D02*
X156142279Y-147036435D01*
X156142279Y-147036435D02*
X156237517Y-147084054D01*
X156237517Y-147084054D02*
X156285136Y-147131673D01*
X156285136Y-147131673D02*
X156332755Y-147226911D01*
X156332755Y-147226911D02*
X156332755Y-147465006D01*
X156332755Y-147465006D02*
X156285136Y-147560244D01*
X156285136Y-147560244D02*
X156237517Y-147607864D01*
X156237517Y-147607864D02*
X156142279Y-147655483D01*
X156142279Y-147655483D02*
X155856565Y-147655483D01*
X155856565Y-147655483D02*
X155761327Y-147607864D01*
X155761327Y-147607864D02*
X155713708Y-147560244D01*
D11*
X163905835Y-123806178D02*
X163689168Y-123806178D01*
X163689168Y-124146654D02*
X163689168Y-123496654D01*
X163689168Y-123496654D02*
X163998692Y-123496654D01*
X164586788Y-124146654D02*
X164215359Y-124146654D01*
X164401073Y-124146654D02*
X164401073Y-123496654D01*
X164401073Y-123496654D02*
X164339169Y-123589511D01*
X164339169Y-123589511D02*
X164277264Y-123651416D01*
X164277264Y-123651416D02*
X164215359Y-123682368D01*
X155013184Y-124285232D02*
X154951279Y-124254279D01*
X154951279Y-124254279D02*
X154889374Y-124192375D01*
X154889374Y-124192375D02*
X154796517Y-124099517D01*
X154796517Y-124099517D02*
X154734612Y-124068565D01*
X154734612Y-124068565D02*
X154672708Y-124068565D01*
X154703660Y-124223327D02*
X154641755Y-124192375D01*
X154641755Y-124192375D02*
X154579850Y-124130470D01*
X154579850Y-124130470D02*
X154548898Y-124006660D01*
X154548898Y-124006660D02*
X154548898Y-123789994D01*
X154548898Y-123789994D02*
X154579850Y-123666184D01*
X154579850Y-123666184D02*
X154641755Y-123604279D01*
X154641755Y-123604279D02*
X154703660Y-123573327D01*
X154703660Y-123573327D02*
X154827469Y-123573327D01*
X154827469Y-123573327D02*
X154889374Y-123604279D01*
X154889374Y-123604279D02*
X154951279Y-123666184D01*
X154951279Y-123666184D02*
X154982231Y-123789994D01*
X154982231Y-123789994D02*
X154982231Y-124006660D01*
X154982231Y-124006660D02*
X154951279Y-124130470D01*
X154951279Y-124130470D02*
X154889374Y-124192375D01*
X154889374Y-124192375D02*
X154827469Y-124223327D01*
X154827469Y-124223327D02*
X154703660Y-124223327D01*
X155229850Y-123635232D02*
X155260802Y-123604279D01*
X155260802Y-123604279D02*
X155322707Y-123573327D01*
X155322707Y-123573327D02*
X155477469Y-123573327D01*
X155477469Y-123573327D02*
X155539374Y-123604279D01*
X155539374Y-123604279D02*
X155570326Y-123635232D01*
X155570326Y-123635232D02*
X155601279Y-123697136D01*
X155601279Y-123697136D02*
X155601279Y-123759041D01*
X155601279Y-123759041D02*
X155570326Y-123851898D01*
X155570326Y-123851898D02*
X155198898Y-124223327D01*
X155198898Y-124223327D02*
X155601279Y-124223327D01*
D14*
X146907093Y-127311962D02*
X146573760Y-126835771D01*
X146335665Y-127311962D02*
X146335665Y-126311962D01*
X146335665Y-126311962D02*
X146716617Y-126311962D01*
X146716617Y-126311962D02*
X146811855Y-126359581D01*
X146811855Y-126359581D02*
X146859474Y-126407200D01*
X146859474Y-126407200D02*
X146907093Y-126502438D01*
X146907093Y-126502438D02*
X146907093Y-126645295D01*
X146907093Y-126645295D02*
X146859474Y-126740533D01*
X146859474Y-126740533D02*
X146811855Y-126788152D01*
X146811855Y-126788152D02*
X146716617Y-126835771D01*
X146716617Y-126835771D02*
X146335665Y-126835771D01*
X147240427Y-126311962D02*
X147859474Y-126311962D01*
X147859474Y-126311962D02*
X147526141Y-126692914D01*
X147526141Y-126692914D02*
X147668998Y-126692914D01*
X147668998Y-126692914D02*
X147764236Y-126740533D01*
X147764236Y-126740533D02*
X147811855Y-126788152D01*
X147811855Y-126788152D02*
X147859474Y-126883390D01*
X147859474Y-126883390D02*
X147859474Y-127121485D01*
X147859474Y-127121485D02*
X147811855Y-127216723D01*
X147811855Y-127216723D02*
X147764236Y-127264343D01*
X147764236Y-127264343D02*
X147668998Y-127311962D01*
X147668998Y-127311962D02*
X147383284Y-127311962D01*
X147383284Y-127311962D02*
X147288046Y-127264343D01*
X147288046Y-127264343D02*
X147240427Y-127216723D01*
X148478522Y-126311962D02*
X148573760Y-126311962D01*
X148573760Y-126311962D02*
X148668998Y-126359581D01*
X148668998Y-126359581D02*
X148716617Y-126407200D01*
X148716617Y-126407200D02*
X148764236Y-126502438D01*
X148764236Y-126502438D02*
X148811855Y-126692914D01*
X148811855Y-126692914D02*
X148811855Y-126931009D01*
X148811855Y-126931009D02*
X148764236Y-127121485D01*
X148764236Y-127121485D02*
X148716617Y-127216723D01*
X148716617Y-127216723D02*
X148668998Y-127264343D01*
X148668998Y-127264343D02*
X148573760Y-127311962D01*
X148573760Y-127311962D02*
X148478522Y-127311962D01*
X148478522Y-127311962D02*
X148383284Y-127264343D01*
X148383284Y-127264343D02*
X148335665Y-127216723D01*
X148335665Y-127216723D02*
X148288046Y-127121485D01*
X148288046Y-127121485D02*
X148240427Y-126931009D01*
X148240427Y-126931009D02*
X148240427Y-126692914D01*
X148240427Y-126692914D02*
X148288046Y-126502438D01*
X148288046Y-126502438D02*
X148335665Y-126407200D01*
X148335665Y-126407200D02*
X148383284Y-126359581D01*
X148383284Y-126359581D02*
X148478522Y-126311962D01*
X107609505Y-121379298D02*
X107561886Y-121426918D01*
X107561886Y-121426918D02*
X107419029Y-121474537D01*
X107419029Y-121474537D02*
X107323791Y-121474537D01*
X107323791Y-121474537D02*
X107180934Y-121426918D01*
X107180934Y-121426918D02*
X107085696Y-121331679D01*
X107085696Y-121331679D02*
X107038077Y-121236441D01*
X107038077Y-121236441D02*
X106990458Y-121045965D01*
X106990458Y-121045965D02*
X106990458Y-120903108D01*
X106990458Y-120903108D02*
X107038077Y-120712632D01*
X107038077Y-120712632D02*
X107085696Y-120617394D01*
X107085696Y-120617394D02*
X107180934Y-120522156D01*
X107180934Y-120522156D02*
X107323791Y-120474537D01*
X107323791Y-120474537D02*
X107419029Y-120474537D01*
X107419029Y-120474537D02*
X107561886Y-120522156D01*
X107561886Y-120522156D02*
X107609505Y-120569775D01*
X108561886Y-121474537D02*
X107990458Y-121474537D01*
X108276172Y-121474537D02*
X108276172Y-120474537D01*
X108276172Y-120474537D02*
X108180934Y-120617394D01*
X108180934Y-120617394D02*
X108085696Y-120712632D01*
X108085696Y-120712632D02*
X107990458Y-120760251D01*
X109514267Y-121474537D02*
X108942839Y-121474537D01*
X109228553Y-121474537D02*
X109228553Y-120474537D01*
X109228553Y-120474537D02*
X109133315Y-120617394D01*
X109133315Y-120617394D02*
X109038077Y-120712632D01*
X109038077Y-120712632D02*
X108942839Y-120760251D01*
D11*
X124174753Y-125441297D02*
X124143801Y-125472250D01*
X124143801Y-125472250D02*
X124050943Y-125503202D01*
X124050943Y-125503202D02*
X123989039Y-125503202D01*
X123989039Y-125503202D02*
X123896182Y-125472250D01*
X123896182Y-125472250D02*
X123834277Y-125410345D01*
X123834277Y-125410345D02*
X123803324Y-125348440D01*
X123803324Y-125348440D02*
X123772372Y-125224630D01*
X123772372Y-125224630D02*
X123772372Y-125131773D01*
X123772372Y-125131773D02*
X123803324Y-125007964D01*
X123803324Y-125007964D02*
X123834277Y-124946059D01*
X123834277Y-124946059D02*
X123896182Y-124884154D01*
X123896182Y-124884154D02*
X123989039Y-124853202D01*
X123989039Y-124853202D02*
X124050943Y-124853202D01*
X124050943Y-124853202D02*
X124143801Y-124884154D01*
X124143801Y-124884154D02*
X124174753Y-124915107D01*
X124546182Y-125131773D02*
X124484277Y-125100821D01*
X124484277Y-125100821D02*
X124453324Y-125069869D01*
X124453324Y-125069869D02*
X124422372Y-125007964D01*
X124422372Y-125007964D02*
X124422372Y-124977011D01*
X124422372Y-124977011D02*
X124453324Y-124915107D01*
X124453324Y-124915107D02*
X124484277Y-124884154D01*
X124484277Y-124884154D02*
X124546182Y-124853202D01*
X124546182Y-124853202D02*
X124669991Y-124853202D01*
X124669991Y-124853202D02*
X124731896Y-124884154D01*
X124731896Y-124884154D02*
X124762848Y-124915107D01*
X124762848Y-124915107D02*
X124793801Y-124977011D01*
X124793801Y-124977011D02*
X124793801Y-125007964D01*
X124793801Y-125007964D02*
X124762848Y-125069869D01*
X124762848Y-125069869D02*
X124731896Y-125100821D01*
X124731896Y-125100821D02*
X124669991Y-125131773D01*
X124669991Y-125131773D02*
X124546182Y-125131773D01*
X124546182Y-125131773D02*
X124484277Y-125162726D01*
X124484277Y-125162726D02*
X124453324Y-125193678D01*
X124453324Y-125193678D02*
X124422372Y-125255583D01*
X124422372Y-125255583D02*
X124422372Y-125379392D01*
X124422372Y-125379392D02*
X124453324Y-125441297D01*
X124453324Y-125441297D02*
X124484277Y-125472250D01*
X124484277Y-125472250D02*
X124546182Y-125503202D01*
X124546182Y-125503202D02*
X124669991Y-125503202D01*
X124669991Y-125503202D02*
X124731896Y-125472250D01*
X124731896Y-125472250D02*
X124762848Y-125441297D01*
X124762848Y-125441297D02*
X124793801Y-125379392D01*
X124793801Y-125379392D02*
X124793801Y-125255583D01*
X124793801Y-125255583D02*
X124762848Y-125193678D01*
X124762848Y-125193678D02*
X124731896Y-125162726D01*
X124731896Y-125162726D02*
X124669991Y-125131773D01*
D14*
X149828891Y-149619746D02*
X149352701Y-149619746D01*
X149352701Y-149619746D02*
X149352701Y-148619746D01*
X150590796Y-148953079D02*
X150590796Y-149619746D01*
X150352701Y-148572127D02*
X150114606Y-149286412D01*
X150114606Y-149286412D02*
X150733653Y-149286412D01*
X125864015Y-130990386D02*
X125911635Y-131038005D01*
X125911635Y-131038005D02*
X125959254Y-131180862D01*
X125959254Y-131180862D02*
X125959254Y-131276100D01*
X125959254Y-131276100D02*
X125911635Y-131418957D01*
X125911635Y-131418957D02*
X125816396Y-131514195D01*
X125816396Y-131514195D02*
X125721158Y-131561814D01*
X125721158Y-131561814D02*
X125530682Y-131609433D01*
X125530682Y-131609433D02*
X125387825Y-131609433D01*
X125387825Y-131609433D02*
X125197349Y-131561814D01*
X125197349Y-131561814D02*
X125102111Y-131514195D01*
X125102111Y-131514195D02*
X125006873Y-131418957D01*
X125006873Y-131418957D02*
X124959254Y-131276100D01*
X124959254Y-131276100D02*
X124959254Y-131180862D01*
X124959254Y-131180862D02*
X125006873Y-131038005D01*
X125006873Y-131038005D02*
X125054492Y-130990386D01*
X125959254Y-130038005D02*
X125959254Y-130609433D01*
X125959254Y-130323719D02*
X124959254Y-130323719D01*
X124959254Y-130323719D02*
X125102111Y-130418957D01*
X125102111Y-130418957D02*
X125197349Y-130514195D01*
X125197349Y-130514195D02*
X125244968Y-130609433D01*
X125292587Y-129180862D02*
X125959254Y-129180862D01*
X124911635Y-129418957D02*
X125625920Y-129657052D01*
X125625920Y-129657052D02*
X125625920Y-129038005D01*
X146192931Y-108454131D02*
X145716740Y-108787464D01*
X146192931Y-109025559D02*
X145192931Y-109025559D01*
X145192931Y-109025559D02*
X145192931Y-108644607D01*
X145192931Y-108644607D02*
X145240550Y-108549369D01*
X145240550Y-108549369D02*
X145288169Y-108501750D01*
X145288169Y-108501750D02*
X145383407Y-108454131D01*
X145383407Y-108454131D02*
X145526264Y-108454131D01*
X145526264Y-108454131D02*
X145621502Y-108501750D01*
X145621502Y-108501750D02*
X145669121Y-108549369D01*
X145669121Y-108549369D02*
X145716740Y-108644607D01*
X145716740Y-108644607D02*
X145716740Y-109025559D01*
X146192931Y-107501750D02*
X146192931Y-108073178D01*
X146192931Y-107787464D02*
X145192931Y-107787464D01*
X145192931Y-107787464D02*
X145335788Y-107882702D01*
X145335788Y-107882702D02*
X145431026Y-107977940D01*
X145431026Y-107977940D02*
X145478645Y-108073178D01*
X145526264Y-106644607D02*
X146192931Y-106644607D01*
X145145312Y-106882702D02*
X145859597Y-107120797D01*
X145859597Y-107120797D02*
X145859597Y-106501750D01*
X127707976Y-122501196D02*
X128184167Y-122501196D01*
X127184167Y-122834529D02*
X127707976Y-122501196D01*
X127707976Y-122501196D02*
X127184167Y-122167863D01*
X128184167Y-121310720D02*
X128184167Y-121882148D01*
X128184167Y-121596434D02*
X127184167Y-121596434D01*
X127184167Y-121596434D02*
X127327024Y-121691672D01*
X127327024Y-121691672D02*
X127422262Y-121786910D01*
X127422262Y-121786910D02*
X127469881Y-121882148D01*
X142498049Y-117624517D02*
X142450430Y-117672137D01*
X142450430Y-117672137D02*
X142307573Y-117719756D01*
X142307573Y-117719756D02*
X142212335Y-117719756D01*
X142212335Y-117719756D02*
X142069478Y-117672137D01*
X142069478Y-117672137D02*
X141974240Y-117576898D01*
X141974240Y-117576898D02*
X141926621Y-117481660D01*
X141926621Y-117481660D02*
X141879002Y-117291184D01*
X141879002Y-117291184D02*
X141879002Y-117148327D01*
X141879002Y-117148327D02*
X141926621Y-116957851D01*
X141926621Y-116957851D02*
X141974240Y-116862613D01*
X141974240Y-116862613D02*
X142069478Y-116767375D01*
X142069478Y-116767375D02*
X142212335Y-116719756D01*
X142212335Y-116719756D02*
X142307573Y-116719756D01*
X142307573Y-116719756D02*
X142450430Y-116767375D01*
X142450430Y-116767375D02*
X142498049Y-116814994D01*
X143450430Y-117719756D02*
X142879002Y-117719756D01*
X143164716Y-117719756D02*
X143164716Y-116719756D01*
X143164716Y-116719756D02*
X143069478Y-116862613D01*
X143069478Y-116862613D02*
X142974240Y-116957851D01*
X142974240Y-116957851D02*
X142879002Y-117005470D01*
X144021859Y-117148327D02*
X143926621Y-117100708D01*
X143926621Y-117100708D02*
X143879002Y-117053089D01*
X143879002Y-117053089D02*
X143831383Y-116957851D01*
X143831383Y-116957851D02*
X143831383Y-116910232D01*
X143831383Y-116910232D02*
X143879002Y-116814994D01*
X143879002Y-116814994D02*
X143926621Y-116767375D01*
X143926621Y-116767375D02*
X144021859Y-116719756D01*
X144021859Y-116719756D02*
X144212335Y-116719756D01*
X144212335Y-116719756D02*
X144307573Y-116767375D01*
X144307573Y-116767375D02*
X144355192Y-116814994D01*
X144355192Y-116814994D02*
X144402811Y-116910232D01*
X144402811Y-116910232D02*
X144402811Y-116957851D01*
X144402811Y-116957851D02*
X144355192Y-117053089D01*
X144355192Y-117053089D02*
X144307573Y-117100708D01*
X144307573Y-117100708D02*
X144212335Y-117148327D01*
X144212335Y-117148327D02*
X144021859Y-117148327D01*
X144021859Y-117148327D02*
X143926621Y-117195946D01*
X143926621Y-117195946D02*
X143879002Y-117243565D01*
X143879002Y-117243565D02*
X143831383Y-117338803D01*
X143831383Y-117338803D02*
X143831383Y-117529279D01*
X143831383Y-117529279D02*
X143879002Y-117624517D01*
X143879002Y-117624517D02*
X143926621Y-117672137D01*
X143926621Y-117672137D02*
X144021859Y-117719756D01*
X144021859Y-117719756D02*
X144212335Y-117719756D01*
X144212335Y-117719756D02*
X144307573Y-117672137D01*
X144307573Y-117672137D02*
X144355192Y-117624517D01*
X144355192Y-117624517D02*
X144402811Y-117529279D01*
X144402811Y-117529279D02*
X144402811Y-117338803D01*
X144402811Y-117338803D02*
X144355192Y-117243565D01*
X144355192Y-117243565D02*
X144307573Y-117195946D01*
X144307573Y-117195946D02*
X144212335Y-117148327D01*
X86820128Y-110655144D02*
X86343938Y-110655144D01*
X86343938Y-110655144D02*
X86343938Y-109655144D01*
X87582033Y-109655144D02*
X87391557Y-109655144D01*
X87391557Y-109655144D02*
X87296319Y-109702763D01*
X87296319Y-109702763D02*
X87248700Y-109750382D01*
X87248700Y-109750382D02*
X87153462Y-109893239D01*
X87153462Y-109893239D02*
X87105843Y-110083715D01*
X87105843Y-110083715D02*
X87105843Y-110464667D01*
X87105843Y-110464667D02*
X87153462Y-110559905D01*
X87153462Y-110559905D02*
X87201081Y-110607525D01*
X87201081Y-110607525D02*
X87296319Y-110655144D01*
X87296319Y-110655144D02*
X87486795Y-110655144D01*
X87486795Y-110655144D02*
X87582033Y-110607525D01*
X87582033Y-110607525D02*
X87629652Y-110559905D01*
X87629652Y-110559905D02*
X87677271Y-110464667D01*
X87677271Y-110464667D02*
X87677271Y-110226572D01*
X87677271Y-110226572D02*
X87629652Y-110131334D01*
X87629652Y-110131334D02*
X87582033Y-110083715D01*
X87582033Y-110083715D02*
X87486795Y-110036096D01*
X87486795Y-110036096D02*
X87296319Y-110036096D01*
X87296319Y-110036096D02*
X87201081Y-110083715D01*
X87201081Y-110083715D02*
X87153462Y-110131334D01*
X87153462Y-110131334D02*
X87105843Y-110226572D01*
D11*
X120956590Y-122473932D02*
X120987543Y-122504884D01*
X120987543Y-122504884D02*
X121018495Y-122597742D01*
X121018495Y-122597742D02*
X121018495Y-122659646D01*
X121018495Y-122659646D02*
X120987543Y-122752503D01*
X120987543Y-122752503D02*
X120925638Y-122814408D01*
X120925638Y-122814408D02*
X120863733Y-122845361D01*
X120863733Y-122845361D02*
X120739923Y-122876313D01*
X120739923Y-122876313D02*
X120647066Y-122876313D01*
X120647066Y-122876313D02*
X120523257Y-122845361D01*
X120523257Y-122845361D02*
X120461352Y-122814408D01*
X120461352Y-122814408D02*
X120399447Y-122752503D01*
X120399447Y-122752503D02*
X120368495Y-122659646D01*
X120368495Y-122659646D02*
X120368495Y-122597742D01*
X120368495Y-122597742D02*
X120399447Y-122504884D01*
X120399447Y-122504884D02*
X120430400Y-122473932D01*
X120368495Y-122257265D02*
X120368495Y-121854884D01*
X120368495Y-121854884D02*
X120616114Y-122071551D01*
X120616114Y-122071551D02*
X120616114Y-121978694D01*
X120616114Y-121978694D02*
X120647066Y-121916789D01*
X120647066Y-121916789D02*
X120678019Y-121885837D01*
X120678019Y-121885837D02*
X120739923Y-121854884D01*
X120739923Y-121854884D02*
X120894685Y-121854884D01*
X120894685Y-121854884D02*
X120956590Y-121885837D01*
X120956590Y-121885837D02*
X120987543Y-121916789D01*
X120987543Y-121916789D02*
X121018495Y-121978694D01*
X121018495Y-121978694D02*
X121018495Y-122164408D01*
X121018495Y-122164408D02*
X120987543Y-122226313D01*
X120987543Y-122226313D02*
X120956590Y-122257265D01*
D14*
X169610272Y-136265461D02*
X169657892Y-136313080D01*
X169657892Y-136313080D02*
X169705511Y-136455937D01*
X169705511Y-136455937D02*
X169705511Y-136551175D01*
X169705511Y-136551175D02*
X169657892Y-136694032D01*
X169657892Y-136694032D02*
X169562653Y-136789270D01*
X169562653Y-136789270D02*
X169467415Y-136836889D01*
X169467415Y-136836889D02*
X169276939Y-136884508D01*
X169276939Y-136884508D02*
X169134082Y-136884508D01*
X169134082Y-136884508D02*
X168943606Y-136836889D01*
X168943606Y-136836889D02*
X168848368Y-136789270D01*
X168848368Y-136789270D02*
X168753130Y-136694032D01*
X168753130Y-136694032D02*
X168705511Y-136551175D01*
X168705511Y-136551175D02*
X168705511Y-136455937D01*
X168705511Y-136455937D02*
X168753130Y-136313080D01*
X168753130Y-136313080D02*
X168800749Y-136265461D01*
X169705511Y-135789270D02*
X169705511Y-135598794D01*
X169705511Y-135598794D02*
X169657892Y-135503556D01*
X169657892Y-135503556D02*
X169610272Y-135455937D01*
X169610272Y-135455937D02*
X169467415Y-135360699D01*
X169467415Y-135360699D02*
X169276939Y-135313080D01*
X169276939Y-135313080D02*
X168895987Y-135313080D01*
X168895987Y-135313080D02*
X168800749Y-135360699D01*
X168800749Y-135360699D02*
X168753130Y-135408318D01*
X168753130Y-135408318D02*
X168705511Y-135503556D01*
X168705511Y-135503556D02*
X168705511Y-135694032D01*
X168705511Y-135694032D02*
X168753130Y-135789270D01*
X168753130Y-135789270D02*
X168800749Y-135836889D01*
X168800749Y-135836889D02*
X168895987Y-135884508D01*
X168895987Y-135884508D02*
X169134082Y-135884508D01*
X169134082Y-135884508D02*
X169229320Y-135836889D01*
X169229320Y-135836889D02*
X169276939Y-135789270D01*
X169276939Y-135789270D02*
X169324558Y-135694032D01*
X169324558Y-135694032D02*
X169324558Y-135503556D01*
X169324558Y-135503556D02*
X169276939Y-135408318D01*
X169276939Y-135408318D02*
X169229320Y-135360699D01*
X169229320Y-135360699D02*
X169134082Y-135313080D01*
X167208533Y-148939619D02*
X166732343Y-148939619D01*
X166732343Y-148939619D02*
X166732343Y-147939619D01*
X167446629Y-147939619D02*
X168065676Y-147939619D01*
X168065676Y-147939619D02*
X167732343Y-148320571D01*
X167732343Y-148320571D02*
X167875200Y-148320571D01*
X167875200Y-148320571D02*
X167970438Y-148368190D01*
X167970438Y-148368190D02*
X168018057Y-148415809D01*
X168018057Y-148415809D02*
X168065676Y-148511047D01*
X168065676Y-148511047D02*
X168065676Y-148749142D01*
X168065676Y-148749142D02*
X168018057Y-148844380D01*
X168018057Y-148844380D02*
X167970438Y-148892000D01*
X167970438Y-148892000D02*
X167875200Y-148939619D01*
X167875200Y-148939619D02*
X167589486Y-148939619D01*
X167589486Y-148939619D02*
X167494248Y-148892000D01*
X167494248Y-148892000D02*
X167446629Y-148844380D01*
D15*
X123722065Y-110609552D02*
X123691589Y-110594314D01*
X123691589Y-110594314D02*
X123661113Y-110563838D01*
X123661113Y-110563838D02*
X123615399Y-110518123D01*
X123615399Y-110518123D02*
X123584922Y-110502885D01*
X123584922Y-110502885D02*
X123554446Y-110502885D01*
X123569684Y-110579076D02*
X123539208Y-110563838D01*
X123539208Y-110563838D02*
X123508732Y-110533361D01*
X123508732Y-110533361D02*
X123493494Y-110472409D01*
X123493494Y-110472409D02*
X123493494Y-110365742D01*
X123493494Y-110365742D02*
X123508732Y-110304790D01*
X123508732Y-110304790D02*
X123539208Y-110274314D01*
X123539208Y-110274314D02*
X123569684Y-110259076D01*
X123569684Y-110259076D02*
X123630637Y-110259076D01*
X123630637Y-110259076D02*
X123661113Y-110274314D01*
X123661113Y-110274314D02*
X123691589Y-110304790D01*
X123691589Y-110304790D02*
X123706827Y-110365742D01*
X123706827Y-110365742D02*
X123706827Y-110472409D01*
X123706827Y-110472409D02*
X123691589Y-110533361D01*
X123691589Y-110533361D02*
X123661113Y-110563838D01*
X123661113Y-110563838D02*
X123630637Y-110579076D01*
X123630637Y-110579076D02*
X123569684Y-110579076D01*
X123996351Y-110259076D02*
X123843970Y-110259076D01*
X123843970Y-110259076D02*
X123828732Y-110411457D01*
X123828732Y-110411457D02*
X123843970Y-110396218D01*
X123843970Y-110396218D02*
X123874446Y-110380980D01*
X123874446Y-110380980D02*
X123950637Y-110380980D01*
X123950637Y-110380980D02*
X123981113Y-110396218D01*
X123981113Y-110396218D02*
X123996351Y-110411457D01*
X123996351Y-110411457D02*
X124011589Y-110441933D01*
X124011589Y-110441933D02*
X124011589Y-110518123D01*
X124011589Y-110518123D02*
X123996351Y-110548599D01*
X123996351Y-110548599D02*
X123981113Y-110563838D01*
X123981113Y-110563838D02*
X123950637Y-110579076D01*
X123950637Y-110579076D02*
X123874446Y-110579076D01*
X123874446Y-110579076D02*
X123843970Y-110563838D01*
X123843970Y-110563838D02*
X123828732Y-110548599D01*
D14*
X136398095Y-106904619D02*
X136398095Y-107714142D01*
X136398095Y-107714142D02*
X136445714Y-107809380D01*
X136445714Y-107809380D02*
X136493333Y-107857000D01*
X136493333Y-107857000D02*
X136588571Y-107904619D01*
X136588571Y-107904619D02*
X136779047Y-107904619D01*
X136779047Y-107904619D02*
X136874285Y-107857000D01*
X136874285Y-107857000D02*
X136921904Y-107809380D01*
X136921904Y-107809380D02*
X136969523Y-107714142D01*
X136969523Y-107714142D02*
X136969523Y-106904619D01*
X137350476Y-106904619D02*
X138017142Y-106904619D01*
X138017142Y-106904619D02*
X137588571Y-107904619D01*
X157142357Y-151196732D02*
X156925690Y-150887208D01*
X156770928Y-151196732D02*
X156770928Y-150546732D01*
X156770928Y-150546732D02*
X157018547Y-150546732D01*
X157018547Y-150546732D02*
X157080452Y-150577684D01*
X157080452Y-150577684D02*
X157111405Y-150608637D01*
X157111405Y-150608637D02*
X157142357Y-150670541D01*
X157142357Y-150670541D02*
X157142357Y-150763399D01*
X157142357Y-150763399D02*
X157111405Y-150825303D01*
X157111405Y-150825303D02*
X157080452Y-150856256D01*
X157080452Y-150856256D02*
X157018547Y-150887208D01*
X157018547Y-150887208D02*
X156770928Y-150887208D01*
X157761405Y-151196732D02*
X157389976Y-151196732D01*
X157575690Y-151196732D02*
X157575690Y-150546732D01*
X157575690Y-150546732D02*
X157513786Y-150639589D01*
X157513786Y-150639589D02*
X157451881Y-150701494D01*
X157451881Y-150701494D02*
X157389976Y-150732446D01*
X157978072Y-150546732D02*
X158411405Y-150546732D01*
X158411405Y-150546732D02*
X158132834Y-151196732D01*
X156438000Y-141786743D02*
X156485619Y-141643886D01*
X156485619Y-141643886D02*
X156485619Y-141405791D01*
X156485619Y-141405791D02*
X156438000Y-141310553D01*
X156438000Y-141310553D02*
X156390380Y-141262934D01*
X156390380Y-141262934D02*
X156295142Y-141215315D01*
X156295142Y-141215315D02*
X156199904Y-141215315D01*
X156199904Y-141215315D02*
X156104666Y-141262934D01*
X156104666Y-141262934D02*
X156057047Y-141310553D01*
X156057047Y-141310553D02*
X156009428Y-141405791D01*
X156009428Y-141405791D02*
X155961809Y-141596267D01*
X155961809Y-141596267D02*
X155914190Y-141691505D01*
X155914190Y-141691505D02*
X155866571Y-141739124D01*
X155866571Y-141739124D02*
X155771333Y-141786743D01*
X155771333Y-141786743D02*
X155676095Y-141786743D01*
X155676095Y-141786743D02*
X155580857Y-141739124D01*
X155580857Y-141739124D02*
X155533238Y-141691505D01*
X155533238Y-141691505D02*
X155485619Y-141596267D01*
X155485619Y-141596267D02*
X155485619Y-141358172D01*
X155485619Y-141358172D02*
X155533238Y-141215315D01*
X155485619Y-140881981D02*
X156485619Y-140643886D01*
X156485619Y-140643886D02*
X155771333Y-140453410D01*
X155771333Y-140453410D02*
X156485619Y-140262934D01*
X156485619Y-140262934D02*
X155485619Y-140024839D01*
X155580857Y-139691505D02*
X155533238Y-139643886D01*
X155533238Y-139643886D02*
X155485619Y-139548648D01*
X155485619Y-139548648D02*
X155485619Y-139310553D01*
X155485619Y-139310553D02*
X155533238Y-139215315D01*
X155533238Y-139215315D02*
X155580857Y-139167696D01*
X155580857Y-139167696D02*
X155676095Y-139120077D01*
X155676095Y-139120077D02*
X155771333Y-139120077D01*
X155771333Y-139120077D02*
X155914190Y-139167696D01*
X155914190Y-139167696D02*
X156485619Y-139739124D01*
X156485619Y-139739124D02*
X156485619Y-139120077D01*
D11*
X159638527Y-113422521D02*
X159669479Y-113329664D01*
X159669479Y-113329664D02*
X159669479Y-113174902D01*
X159669479Y-113174902D02*
X159638527Y-113112997D01*
X159638527Y-113112997D02*
X159607574Y-113082045D01*
X159607574Y-113082045D02*
X159545669Y-113051092D01*
X159545669Y-113051092D02*
X159483765Y-113051092D01*
X159483765Y-113051092D02*
X159421860Y-113082045D01*
X159421860Y-113082045D02*
X159390907Y-113112997D01*
X159390907Y-113112997D02*
X159359955Y-113174902D01*
X159359955Y-113174902D02*
X159329003Y-113298711D01*
X159329003Y-113298711D02*
X159298050Y-113360616D01*
X159298050Y-113360616D02*
X159267098Y-113391569D01*
X159267098Y-113391569D02*
X159205193Y-113422521D01*
X159205193Y-113422521D02*
X159143288Y-113422521D01*
X159143288Y-113422521D02*
X159081384Y-113391569D01*
X159081384Y-113391569D02*
X159050431Y-113360616D01*
X159050431Y-113360616D02*
X159019479Y-113298711D01*
X159019479Y-113298711D02*
X159019479Y-113143950D01*
X159019479Y-113143950D02*
X159050431Y-113051092D01*
X159019479Y-112834425D02*
X159669479Y-112679663D01*
X159669479Y-112679663D02*
X159205193Y-112555854D01*
X159205193Y-112555854D02*
X159669479Y-112432044D01*
X159669479Y-112432044D02*
X159019479Y-112277283D01*
X159019479Y-112091568D02*
X159019479Y-111689187D01*
X159019479Y-111689187D02*
X159267098Y-111905854D01*
X159267098Y-111905854D02*
X159267098Y-111812997D01*
X159267098Y-111812997D02*
X159298050Y-111751092D01*
X159298050Y-111751092D02*
X159329003Y-111720140D01*
X159329003Y-111720140D02*
X159390907Y-111689187D01*
X159390907Y-111689187D02*
X159545669Y-111689187D01*
X159545669Y-111689187D02*
X159607574Y-111720140D01*
X159607574Y-111720140D02*
X159638527Y-111751092D01*
X159638527Y-111751092D02*
X159669479Y-111812997D01*
X159669479Y-111812997D02*
X159669479Y-111998711D01*
X159669479Y-111998711D02*
X159638527Y-112060616D01*
X159638527Y-112060616D02*
X159607574Y-112091568D01*
D14*
X95528712Y-119848557D02*
X95528712Y-120658080D01*
X95528712Y-120658080D02*
X95576331Y-120753318D01*
X95576331Y-120753318D02*
X95623950Y-120800938D01*
X95623950Y-120800938D02*
X95719188Y-120848557D01*
X95719188Y-120848557D02*
X95909664Y-120848557D01*
X95909664Y-120848557D02*
X96004902Y-120800938D01*
X96004902Y-120800938D02*
X96052521Y-120753318D01*
X96052521Y-120753318D02*
X96100140Y-120658080D01*
X96100140Y-120658080D02*
X96100140Y-119848557D01*
X97100140Y-120848557D02*
X96528712Y-120848557D01*
X96814426Y-120848557D02*
X96814426Y-119848557D01*
X96814426Y-119848557D02*
X96719188Y-119991414D01*
X96719188Y-119991414D02*
X96623950Y-120086652D01*
X96623950Y-120086652D02*
X96528712Y-120134271D01*
X108042543Y-117269678D02*
X107709210Y-116793487D01*
X107471115Y-117269678D02*
X107471115Y-116269678D01*
X107471115Y-116269678D02*
X107852067Y-116269678D01*
X107852067Y-116269678D02*
X107947305Y-116317297D01*
X107947305Y-116317297D02*
X107994924Y-116364916D01*
X107994924Y-116364916D02*
X108042543Y-116460154D01*
X108042543Y-116460154D02*
X108042543Y-116603011D01*
X108042543Y-116603011D02*
X107994924Y-116698249D01*
X107994924Y-116698249D02*
X107947305Y-116745868D01*
X107947305Y-116745868D02*
X107852067Y-116793487D01*
X107852067Y-116793487D02*
X107471115Y-116793487D01*
X108994924Y-117269678D02*
X108423496Y-117269678D01*
X108709210Y-117269678D02*
X108709210Y-116269678D01*
X108709210Y-116269678D02*
X108613972Y-116412535D01*
X108613972Y-116412535D02*
X108518734Y-116507773D01*
X108518734Y-116507773D02*
X108423496Y-116555392D01*
X109852067Y-116269678D02*
X109661591Y-116269678D01*
X109661591Y-116269678D02*
X109566353Y-116317297D01*
X109566353Y-116317297D02*
X109518734Y-116364916D01*
X109518734Y-116364916D02*
X109423496Y-116507773D01*
X109423496Y-116507773D02*
X109375877Y-116698249D01*
X109375877Y-116698249D02*
X109375877Y-117079201D01*
X109375877Y-117079201D02*
X109423496Y-117174439D01*
X109423496Y-117174439D02*
X109471115Y-117222059D01*
X109471115Y-117222059D02*
X109566353Y-117269678D01*
X109566353Y-117269678D02*
X109756829Y-117269678D01*
X109756829Y-117269678D02*
X109852067Y-117222059D01*
X109852067Y-117222059D02*
X109899686Y-117174439D01*
X109899686Y-117174439D02*
X109947305Y-117079201D01*
X109947305Y-117079201D02*
X109947305Y-116841106D01*
X109947305Y-116841106D02*
X109899686Y-116745868D01*
X109899686Y-116745868D02*
X109852067Y-116698249D01*
X109852067Y-116698249D02*
X109756829Y-116650630D01*
X109756829Y-116650630D02*
X109566353Y-116650630D01*
X109566353Y-116650630D02*
X109471115Y-116698249D01*
X109471115Y-116698249D02*
X109423496Y-116745868D01*
X109423496Y-116745868D02*
X109375877Y-116841106D01*
X127831727Y-128548178D02*
X127784108Y-128595798D01*
X127784108Y-128595798D02*
X127641251Y-128643417D01*
X127641251Y-128643417D02*
X127546013Y-128643417D01*
X127546013Y-128643417D02*
X127403156Y-128595798D01*
X127403156Y-128595798D02*
X127307918Y-128500559D01*
X127307918Y-128500559D02*
X127260299Y-128405321D01*
X127260299Y-128405321D02*
X127212680Y-128214845D01*
X127212680Y-128214845D02*
X127212680Y-128071988D01*
X127212680Y-128071988D02*
X127260299Y-127881512D01*
X127260299Y-127881512D02*
X127307918Y-127786274D01*
X127307918Y-127786274D02*
X127403156Y-127691036D01*
X127403156Y-127691036D02*
X127546013Y-127643417D01*
X127546013Y-127643417D02*
X127641251Y-127643417D01*
X127641251Y-127643417D02*
X127784108Y-127691036D01*
X127784108Y-127691036D02*
X127831727Y-127738655D01*
X128165061Y-127643417D02*
X128831727Y-127643417D01*
X128831727Y-127643417D02*
X128403156Y-128643417D01*
X143128127Y-130770969D02*
X143175747Y-130818588D01*
X143175747Y-130818588D02*
X143223366Y-130961445D01*
X143223366Y-130961445D02*
X143223366Y-131056683D01*
X143223366Y-131056683D02*
X143175747Y-131199540D01*
X143175747Y-131199540D02*
X143080508Y-131294778D01*
X143080508Y-131294778D02*
X142985270Y-131342397D01*
X142985270Y-131342397D02*
X142794794Y-131390016D01*
X142794794Y-131390016D02*
X142651937Y-131390016D01*
X142651937Y-131390016D02*
X142461461Y-131342397D01*
X142461461Y-131342397D02*
X142366223Y-131294778D01*
X142366223Y-131294778D02*
X142270985Y-131199540D01*
X142270985Y-131199540D02*
X142223366Y-131056683D01*
X142223366Y-131056683D02*
X142223366Y-130961445D01*
X142223366Y-130961445D02*
X142270985Y-130818588D01*
X142270985Y-130818588D02*
X142318604Y-130770969D01*
X142318604Y-130390016D02*
X142270985Y-130342397D01*
X142270985Y-130342397D02*
X142223366Y-130247159D01*
X142223366Y-130247159D02*
X142223366Y-130009064D01*
X142223366Y-130009064D02*
X142270985Y-129913826D01*
X142270985Y-129913826D02*
X142318604Y-129866207D01*
X142318604Y-129866207D02*
X142413842Y-129818588D01*
X142413842Y-129818588D02*
X142509080Y-129818588D01*
X142509080Y-129818588D02*
X142651937Y-129866207D01*
X142651937Y-129866207D02*
X143223366Y-130437635D01*
X143223366Y-130437635D02*
X143223366Y-129818588D01*
X143223366Y-128866207D02*
X143223366Y-129437635D01*
X143223366Y-129151921D02*
X142223366Y-129151921D01*
X142223366Y-129151921D02*
X142366223Y-129247159D01*
X142366223Y-129247159D02*
X142461461Y-129342397D01*
X142461461Y-129342397D02*
X142509080Y-129437635D01*
D11*
X127220022Y-126575123D02*
X127003355Y-126265599D01*
X126848593Y-126575123D02*
X126848593Y-125925123D01*
X126848593Y-125925123D02*
X127096212Y-125925123D01*
X127096212Y-125925123D02*
X127158117Y-125956075D01*
X127158117Y-125956075D02*
X127189070Y-125987028D01*
X127189070Y-125987028D02*
X127220022Y-126048932D01*
X127220022Y-126048932D02*
X127220022Y-126141790D01*
X127220022Y-126141790D02*
X127189070Y-126203694D01*
X127189070Y-126203694D02*
X127158117Y-126234647D01*
X127158117Y-126234647D02*
X127096212Y-126265599D01*
X127096212Y-126265599D02*
X126848593Y-126265599D01*
X127467641Y-125987028D02*
X127498593Y-125956075D01*
X127498593Y-125956075D02*
X127560498Y-125925123D01*
X127560498Y-125925123D02*
X127715260Y-125925123D01*
X127715260Y-125925123D02*
X127777165Y-125956075D01*
X127777165Y-125956075D02*
X127808117Y-125987028D01*
X127808117Y-125987028D02*
X127839070Y-126048932D01*
X127839070Y-126048932D02*
X127839070Y-126110837D01*
X127839070Y-126110837D02*
X127808117Y-126203694D01*
X127808117Y-126203694D02*
X127436689Y-126575123D01*
X127436689Y-126575123D02*
X127839070Y-126575123D01*
X128458118Y-126575123D02*
X128086689Y-126575123D01*
X128272403Y-126575123D02*
X128272403Y-125925123D01*
X128272403Y-125925123D02*
X128210499Y-126017980D01*
X128210499Y-126017980D02*
X128148594Y-126079885D01*
X128148594Y-126079885D02*
X128086689Y-126110837D01*
D14*
X142073333Y-113143380D02*
X142025714Y-113191000D01*
X142025714Y-113191000D02*
X141882857Y-113238619D01*
X141882857Y-113238619D02*
X141787619Y-113238619D01*
X141787619Y-113238619D02*
X141644762Y-113191000D01*
X141644762Y-113191000D02*
X141549524Y-113095761D01*
X141549524Y-113095761D02*
X141501905Y-113000523D01*
X141501905Y-113000523D02*
X141454286Y-112810047D01*
X141454286Y-112810047D02*
X141454286Y-112667190D01*
X141454286Y-112667190D02*
X141501905Y-112476714D01*
X141501905Y-112476714D02*
X141549524Y-112381476D01*
X141549524Y-112381476D02*
X141644762Y-112286238D01*
X141644762Y-112286238D02*
X141787619Y-112238619D01*
X141787619Y-112238619D02*
X141882857Y-112238619D01*
X141882857Y-112238619D02*
X142025714Y-112286238D01*
X142025714Y-112286238D02*
X142073333Y-112333857D01*
X142454286Y-112333857D02*
X142501905Y-112286238D01*
X142501905Y-112286238D02*
X142597143Y-112238619D01*
X142597143Y-112238619D02*
X142835238Y-112238619D01*
X142835238Y-112238619D02*
X142930476Y-112286238D01*
X142930476Y-112286238D02*
X142978095Y-112333857D01*
X142978095Y-112333857D02*
X143025714Y-112429095D01*
X143025714Y-112429095D02*
X143025714Y-112524333D01*
X143025714Y-112524333D02*
X142978095Y-112667190D01*
X142978095Y-112667190D02*
X142406667Y-113238619D01*
X142406667Y-113238619D02*
X143025714Y-113238619D01*
X146590208Y-124074773D02*
X146542589Y-124122393D01*
X146542589Y-124122393D02*
X146399732Y-124170012D01*
X146399732Y-124170012D02*
X146304494Y-124170012D01*
X146304494Y-124170012D02*
X146161637Y-124122393D01*
X146161637Y-124122393D02*
X146066399Y-124027154D01*
X146066399Y-124027154D02*
X146018780Y-123931916D01*
X146018780Y-123931916D02*
X145971161Y-123741440D01*
X145971161Y-123741440D02*
X145971161Y-123598583D01*
X145971161Y-123598583D02*
X146018780Y-123408107D01*
X146018780Y-123408107D02*
X146066399Y-123312869D01*
X146066399Y-123312869D02*
X146161637Y-123217631D01*
X146161637Y-123217631D02*
X146304494Y-123170012D01*
X146304494Y-123170012D02*
X146399732Y-123170012D01*
X146399732Y-123170012D02*
X146542589Y-123217631D01*
X146542589Y-123217631D02*
X146590208Y-123265250D01*
X146971161Y-123265250D02*
X147018780Y-123217631D01*
X147018780Y-123217631D02*
X147114018Y-123170012D01*
X147114018Y-123170012D02*
X147352113Y-123170012D01*
X147352113Y-123170012D02*
X147447351Y-123217631D01*
X147447351Y-123217631D02*
X147494970Y-123265250D01*
X147494970Y-123265250D02*
X147542589Y-123360488D01*
X147542589Y-123360488D02*
X147542589Y-123455726D01*
X147542589Y-123455726D02*
X147494970Y-123598583D01*
X147494970Y-123598583D02*
X146923542Y-124170012D01*
X146923542Y-124170012D02*
X147542589Y-124170012D01*
X147923542Y-123265250D02*
X147971161Y-123217631D01*
X147971161Y-123217631D02*
X148066399Y-123170012D01*
X148066399Y-123170012D02*
X148304494Y-123170012D01*
X148304494Y-123170012D02*
X148399732Y-123217631D01*
X148399732Y-123217631D02*
X148447351Y-123265250D01*
X148447351Y-123265250D02*
X148494970Y-123360488D01*
X148494970Y-123360488D02*
X148494970Y-123455726D01*
X148494970Y-123455726D02*
X148447351Y-123598583D01*
X148447351Y-123598583D02*
X147875923Y-124170012D01*
X147875923Y-124170012D02*
X148494970Y-124170012D01*
X124442619Y-100663333D02*
X125156904Y-100663333D01*
X125156904Y-100663333D02*
X125299761Y-100710952D01*
X125299761Y-100710952D02*
X125395000Y-100806190D01*
X125395000Y-100806190D02*
X125442619Y-100949047D01*
X125442619Y-100949047D02*
X125442619Y-101044285D01*
X124442619Y-99710952D02*
X124442619Y-100187142D01*
X124442619Y-100187142D02*
X124918809Y-100234761D01*
X124918809Y-100234761D02*
X124871190Y-100187142D01*
X124871190Y-100187142D02*
X124823571Y-100091904D01*
X124823571Y-100091904D02*
X124823571Y-99853809D01*
X124823571Y-99853809D02*
X124871190Y-99758571D01*
X124871190Y-99758571D02*
X124918809Y-99710952D01*
X124918809Y-99710952D02*
X125014047Y-99663333D01*
X125014047Y-99663333D02*
X125252142Y-99663333D01*
X125252142Y-99663333D02*
X125347380Y-99710952D01*
X125347380Y-99710952D02*
X125395000Y-99758571D01*
X125395000Y-99758571D02*
X125442619Y-99853809D01*
X125442619Y-99853809D02*
X125442619Y-100091904D01*
X125442619Y-100091904D02*
X125395000Y-100187142D01*
X125395000Y-100187142D02*
X125347380Y-100234761D01*
X146515831Y-122597167D02*
X146468212Y-122644787D01*
X146468212Y-122644787D02*
X146325355Y-122692406D01*
X146325355Y-122692406D02*
X146230117Y-122692406D01*
X146230117Y-122692406D02*
X146087260Y-122644787D01*
X146087260Y-122644787D02*
X145992022Y-122549548D01*
X145992022Y-122549548D02*
X145944403Y-122454310D01*
X145944403Y-122454310D02*
X145896784Y-122263834D01*
X145896784Y-122263834D02*
X145896784Y-122120977D01*
X145896784Y-122120977D02*
X145944403Y-121930501D01*
X145944403Y-121930501D02*
X145992022Y-121835263D01*
X145992022Y-121835263D02*
X146087260Y-121740025D01*
X146087260Y-121740025D02*
X146230117Y-121692406D01*
X146230117Y-121692406D02*
X146325355Y-121692406D01*
X146325355Y-121692406D02*
X146468212Y-121740025D01*
X146468212Y-121740025D02*
X146515831Y-121787644D01*
X147468212Y-122692406D02*
X146896784Y-122692406D01*
X147182498Y-122692406D02*
X147182498Y-121692406D01*
X147182498Y-121692406D02*
X147087260Y-121835263D01*
X147087260Y-121835263D02*
X146992022Y-121930501D01*
X146992022Y-121930501D02*
X146896784Y-121978120D01*
X147801546Y-121692406D02*
X148420593Y-121692406D01*
X148420593Y-121692406D02*
X148087260Y-122073358D01*
X148087260Y-122073358D02*
X148230117Y-122073358D01*
X148230117Y-122073358D02*
X148325355Y-122120977D01*
X148325355Y-122120977D02*
X148372974Y-122168596D01*
X148372974Y-122168596D02*
X148420593Y-122263834D01*
X148420593Y-122263834D02*
X148420593Y-122501929D01*
X148420593Y-122501929D02*
X148372974Y-122597167D01*
X148372974Y-122597167D02*
X148325355Y-122644787D01*
X148325355Y-122644787D02*
X148230117Y-122692406D01*
X148230117Y-122692406D02*
X147944403Y-122692406D01*
X147944403Y-122692406D02*
X147849165Y-122644787D01*
X147849165Y-122644787D02*
X147801546Y-122597167D01*
X107108666Y-145004619D02*
X107108666Y-145718904D01*
X107108666Y-145718904D02*
X107061047Y-145861761D01*
X107061047Y-145861761D02*
X106965809Y-145957000D01*
X106965809Y-145957000D02*
X106822952Y-146004619D01*
X106822952Y-146004619D02*
X106727714Y-146004619D01*
X107489619Y-145004619D02*
X108108666Y-145004619D01*
X108108666Y-145004619D02*
X107775333Y-145385571D01*
X107775333Y-145385571D02*
X107918190Y-145385571D01*
X107918190Y-145385571D02*
X108013428Y-145433190D01*
X108013428Y-145433190D02*
X108061047Y-145480809D01*
X108061047Y-145480809D02*
X108108666Y-145576047D01*
X108108666Y-145576047D02*
X108108666Y-145814142D01*
X108108666Y-145814142D02*
X108061047Y-145909380D01*
X108061047Y-145909380D02*
X108013428Y-145957000D01*
X108013428Y-145957000D02*
X107918190Y-146004619D01*
X107918190Y-146004619D02*
X107632476Y-146004619D01*
X107632476Y-146004619D02*
X107537238Y-145957000D01*
X107537238Y-145957000D02*
X107489619Y-145909380D01*
D11*
X158003431Y-122483417D02*
X157941526Y-122452464D01*
X157941526Y-122452464D02*
X157879621Y-122390560D01*
X157879621Y-122390560D02*
X157786764Y-122297702D01*
X157786764Y-122297702D02*
X157724859Y-122266750D01*
X157724859Y-122266750D02*
X157662955Y-122266750D01*
X157693907Y-122421512D02*
X157632002Y-122390560D01*
X157632002Y-122390560D02*
X157570097Y-122328655D01*
X157570097Y-122328655D02*
X157539145Y-122204845D01*
X157539145Y-122204845D02*
X157539145Y-121988179D01*
X157539145Y-121988179D02*
X157570097Y-121864369D01*
X157570097Y-121864369D02*
X157632002Y-121802464D01*
X157632002Y-121802464D02*
X157693907Y-121771512D01*
X157693907Y-121771512D02*
X157817716Y-121771512D01*
X157817716Y-121771512D02*
X157879621Y-121802464D01*
X157879621Y-121802464D02*
X157941526Y-121864369D01*
X157941526Y-121864369D02*
X157972478Y-121988179D01*
X157972478Y-121988179D02*
X157972478Y-122204845D01*
X157972478Y-122204845D02*
X157941526Y-122328655D01*
X157941526Y-122328655D02*
X157879621Y-122390560D01*
X157879621Y-122390560D02*
X157817716Y-122421512D01*
X157817716Y-122421512D02*
X157693907Y-122421512D01*
X158591526Y-122421512D02*
X158220097Y-122421512D01*
X158405811Y-122421512D02*
X158405811Y-121771512D01*
X158405811Y-121771512D02*
X158343907Y-121864369D01*
X158343907Y-121864369D02*
X158282002Y-121926274D01*
X158282002Y-121926274D02*
X158220097Y-121957226D01*
D16*
X127758857Y-109659047D02*
X127625524Y-109468571D01*
X127530286Y-109659047D02*
X127530286Y-109259047D01*
X127530286Y-109259047D02*
X127682667Y-109259047D01*
X127682667Y-109259047D02*
X127720762Y-109278095D01*
X127720762Y-109278095D02*
X127739809Y-109297142D01*
X127739809Y-109297142D02*
X127758857Y-109335238D01*
X127758857Y-109335238D02*
X127758857Y-109392380D01*
X127758857Y-109392380D02*
X127739809Y-109430476D01*
X127739809Y-109430476D02*
X127720762Y-109449523D01*
X127720762Y-109449523D02*
X127682667Y-109468571D01*
X127682667Y-109468571D02*
X127530286Y-109468571D01*
X128139809Y-109659047D02*
X127911238Y-109659047D01*
X128025524Y-109659047D02*
X128025524Y-109259047D01*
X128025524Y-109259047D02*
X127987428Y-109316190D01*
X127987428Y-109316190D02*
X127949333Y-109354285D01*
X127949333Y-109354285D02*
X127911238Y-109373333D01*
X128292190Y-109297142D02*
X128311238Y-109278095D01*
X128311238Y-109278095D02*
X128349333Y-109259047D01*
X128349333Y-109259047D02*
X128444571Y-109259047D01*
X128444571Y-109259047D02*
X128482666Y-109278095D01*
X128482666Y-109278095D02*
X128501714Y-109297142D01*
X128501714Y-109297142D02*
X128520761Y-109335238D01*
X128520761Y-109335238D02*
X128520761Y-109373333D01*
X128520761Y-109373333D02*
X128501714Y-109430476D01*
X128501714Y-109430476D02*
X128273142Y-109659047D01*
X128273142Y-109659047D02*
X128520761Y-109659047D01*
D14*
X142056807Y-135414061D02*
X142056807Y-136223584D01*
X142056807Y-136223584D02*
X142104426Y-136318822D01*
X142104426Y-136318822D02*
X142152045Y-136366442D01*
X142152045Y-136366442D02*
X142247283Y-136414061D01*
X142247283Y-136414061D02*
X142437759Y-136414061D01*
X142437759Y-136414061D02*
X142532997Y-136366442D01*
X142532997Y-136366442D02*
X142580616Y-136318822D01*
X142580616Y-136318822D02*
X142628235Y-136223584D01*
X142628235Y-136223584D02*
X142628235Y-135414061D01*
X143628235Y-136414061D02*
X143056807Y-136414061D01*
X143342521Y-136414061D02*
X143342521Y-135414061D01*
X143342521Y-135414061D02*
X143247283Y-135556918D01*
X143247283Y-135556918D02*
X143152045Y-135652156D01*
X143152045Y-135652156D02*
X143056807Y-135699775D01*
X144247283Y-135414061D02*
X144342521Y-135414061D01*
X144342521Y-135414061D02*
X144437759Y-135461680D01*
X144437759Y-135461680D02*
X144485378Y-135509299D01*
X144485378Y-135509299D02*
X144532997Y-135604537D01*
X144532997Y-135604537D02*
X144580616Y-135795013D01*
X144580616Y-135795013D02*
X144580616Y-136033108D01*
X144580616Y-136033108D02*
X144532997Y-136223584D01*
X144532997Y-136223584D02*
X144485378Y-136318822D01*
X144485378Y-136318822D02*
X144437759Y-136366442D01*
X144437759Y-136366442D02*
X144342521Y-136414061D01*
X144342521Y-136414061D02*
X144247283Y-136414061D01*
X144247283Y-136414061D02*
X144152045Y-136366442D01*
X144152045Y-136366442D02*
X144104426Y-136318822D01*
X144104426Y-136318822D02*
X144056807Y-136223584D01*
X144056807Y-136223584D02*
X144009188Y-136033108D01*
X144009188Y-136033108D02*
X144009188Y-135795013D01*
X144009188Y-135795013D02*
X144056807Y-135604537D01*
X144056807Y-135604537D02*
X144104426Y-135509299D01*
X144104426Y-135509299D02*
X144152045Y-135461680D01*
X144152045Y-135461680D02*
X144247283Y-135414061D01*
X151780463Y-114674525D02*
X151780463Y-115484048D01*
X151780463Y-115484048D02*
X151828082Y-115579286D01*
X151828082Y-115579286D02*
X151875701Y-115626906D01*
X151875701Y-115626906D02*
X151970939Y-115674525D01*
X151970939Y-115674525D02*
X152161415Y-115674525D01*
X152161415Y-115674525D02*
X152256653Y-115626906D01*
X152256653Y-115626906D02*
X152304272Y-115579286D01*
X152304272Y-115579286D02*
X152351891Y-115484048D01*
X152351891Y-115484048D02*
X152351891Y-114674525D01*
X152875701Y-115674525D02*
X153066177Y-115674525D01*
X153066177Y-115674525D02*
X153161415Y-115626906D01*
X153161415Y-115626906D02*
X153209034Y-115579286D01*
X153209034Y-115579286D02*
X153304272Y-115436429D01*
X153304272Y-115436429D02*
X153351891Y-115245953D01*
X153351891Y-115245953D02*
X153351891Y-114865001D01*
X153351891Y-114865001D02*
X153304272Y-114769763D01*
X153304272Y-114769763D02*
X153256653Y-114722144D01*
X153256653Y-114722144D02*
X153161415Y-114674525D01*
X153161415Y-114674525D02*
X152970939Y-114674525D01*
X152970939Y-114674525D02*
X152875701Y-114722144D01*
X152875701Y-114722144D02*
X152828082Y-114769763D01*
X152828082Y-114769763D02*
X152780463Y-114865001D01*
X152780463Y-114865001D02*
X152780463Y-115103096D01*
X152780463Y-115103096D02*
X152828082Y-115198334D01*
X152828082Y-115198334D02*
X152875701Y-115245953D01*
X152875701Y-115245953D02*
X152970939Y-115293572D01*
X152970939Y-115293572D02*
X153161415Y-115293572D01*
X153161415Y-115293572D02*
X153256653Y-115245953D01*
X153256653Y-115245953D02*
X153304272Y-115198334D01*
X153304272Y-115198334D02*
X153351891Y-115103096D01*
D16*
X127789167Y-108138840D02*
X127655834Y-107948364D01*
X127560596Y-108138840D02*
X127560596Y-107738840D01*
X127560596Y-107738840D02*
X127712977Y-107738840D01*
X127712977Y-107738840D02*
X127751072Y-107757888D01*
X127751072Y-107757888D02*
X127770119Y-107776935D01*
X127770119Y-107776935D02*
X127789167Y-107815031D01*
X127789167Y-107815031D02*
X127789167Y-107872173D01*
X127789167Y-107872173D02*
X127770119Y-107910269D01*
X127770119Y-107910269D02*
X127751072Y-107929316D01*
X127751072Y-107929316D02*
X127712977Y-107948364D01*
X127712977Y-107948364D02*
X127560596Y-107948364D01*
X128170119Y-108138840D02*
X127941548Y-108138840D01*
X128055834Y-108138840D02*
X128055834Y-107738840D01*
X128055834Y-107738840D02*
X128017738Y-107795983D01*
X128017738Y-107795983D02*
X127979643Y-107834078D01*
X127979643Y-107834078D02*
X127941548Y-107853126D01*
X128303452Y-107738840D02*
X128551071Y-107738840D01*
X128551071Y-107738840D02*
X128417738Y-107891221D01*
X128417738Y-107891221D02*
X128474881Y-107891221D01*
X128474881Y-107891221D02*
X128512976Y-107910269D01*
X128512976Y-107910269D02*
X128532024Y-107929316D01*
X128532024Y-107929316D02*
X128551071Y-107967412D01*
X128551071Y-107967412D02*
X128551071Y-108062650D01*
X128551071Y-108062650D02*
X128532024Y-108100745D01*
X128532024Y-108100745D02*
X128512976Y-108119793D01*
X128512976Y-108119793D02*
X128474881Y-108138840D01*
X128474881Y-108138840D02*
X128360595Y-108138840D01*
X128360595Y-108138840D02*
X128322500Y-108119793D01*
X128322500Y-108119793D02*
X128303452Y-108100745D01*
D11*
X131666498Y-126009281D02*
X131356974Y-126225948D01*
X131666498Y-126380710D02*
X131016498Y-126380710D01*
X131016498Y-126380710D02*
X131016498Y-126133091D01*
X131016498Y-126133091D02*
X131047450Y-126071186D01*
X131047450Y-126071186D02*
X131078403Y-126040233D01*
X131078403Y-126040233D02*
X131140307Y-126009281D01*
X131140307Y-126009281D02*
X131233165Y-126009281D01*
X131233165Y-126009281D02*
X131295069Y-126040233D01*
X131295069Y-126040233D02*
X131326022Y-126071186D01*
X131326022Y-126071186D02*
X131356974Y-126133091D01*
X131356974Y-126133091D02*
X131356974Y-126380710D01*
X131666498Y-125390233D02*
X131666498Y-125761662D01*
X131666498Y-125575948D02*
X131016498Y-125575948D01*
X131016498Y-125575948D02*
X131109355Y-125637852D01*
X131109355Y-125637852D02*
X131171260Y-125699757D01*
X131171260Y-125699757D02*
X131202212Y-125761662D01*
X131666498Y-125080709D02*
X131666498Y-124956900D01*
X131666498Y-124956900D02*
X131635546Y-124894995D01*
X131635546Y-124894995D02*
X131604593Y-124864043D01*
X131604593Y-124864043D02*
X131511736Y-124802138D01*
X131511736Y-124802138D02*
X131387926Y-124771185D01*
X131387926Y-124771185D02*
X131140307Y-124771185D01*
X131140307Y-124771185D02*
X131078403Y-124802138D01*
X131078403Y-124802138D02*
X131047450Y-124833090D01*
X131047450Y-124833090D02*
X131016498Y-124894995D01*
X131016498Y-124894995D02*
X131016498Y-125018804D01*
X131016498Y-125018804D02*
X131047450Y-125080709D01*
X131047450Y-125080709D02*
X131078403Y-125111662D01*
X131078403Y-125111662D02*
X131140307Y-125142614D01*
X131140307Y-125142614D02*
X131295069Y-125142614D01*
X131295069Y-125142614D02*
X131356974Y-125111662D01*
X131356974Y-125111662D02*
X131387926Y-125080709D01*
X131387926Y-125080709D02*
X131418879Y-125018804D01*
X131418879Y-125018804D02*
X131418879Y-124894995D01*
X131418879Y-124894995D02*
X131387926Y-124833090D01*
X131387926Y-124833090D02*
X131356974Y-124802138D01*
X131356974Y-124802138D02*
X131295069Y-124771185D01*
D14*
X98709820Y-130692209D02*
X98233629Y-131025542D01*
X98709820Y-131263637D02*
X97709820Y-131263637D01*
X97709820Y-131263637D02*
X97709820Y-130882685D01*
X97709820Y-130882685D02*
X97757439Y-130787447D01*
X97757439Y-130787447D02*
X97805058Y-130739828D01*
X97805058Y-130739828D02*
X97900296Y-130692209D01*
X97900296Y-130692209D02*
X98043153Y-130692209D01*
X98043153Y-130692209D02*
X98138391Y-130739828D01*
X98138391Y-130739828D02*
X98186010Y-130787447D01*
X98186010Y-130787447D02*
X98233629Y-130882685D01*
X98233629Y-130882685D02*
X98233629Y-131263637D01*
X98709820Y-129739828D02*
X98709820Y-130311256D01*
X98709820Y-130025542D02*
X97709820Y-130025542D01*
X97709820Y-130025542D02*
X97852677Y-130120780D01*
X97852677Y-130120780D02*
X97947915Y-130216018D01*
X97947915Y-130216018D02*
X97995534Y-130311256D01*
X97709820Y-128835066D02*
X97709820Y-129311256D01*
X97709820Y-129311256D02*
X98186010Y-129358875D01*
X98186010Y-129358875D02*
X98138391Y-129311256D01*
X98138391Y-129311256D02*
X98090772Y-129216018D01*
X98090772Y-129216018D02*
X98090772Y-128977923D01*
X98090772Y-128977923D02*
X98138391Y-128882685D01*
X98138391Y-128882685D02*
X98186010Y-128835066D01*
X98186010Y-128835066D02*
X98281248Y-128787447D01*
X98281248Y-128787447D02*
X98519343Y-128787447D01*
X98519343Y-128787447D02*
X98614581Y-128835066D01*
X98614581Y-128835066D02*
X98662201Y-128882685D01*
X98662201Y-128882685D02*
X98709820Y-128977923D01*
X98709820Y-128977923D02*
X98709820Y-129216018D01*
X98709820Y-129216018D02*
X98662201Y-129311256D01*
X98662201Y-129311256D02*
X98614581Y-129358875D01*
X138009333Y-106267924D02*
X137961714Y-106315544D01*
X137961714Y-106315544D02*
X137818857Y-106363163D01*
X137818857Y-106363163D02*
X137723619Y-106363163D01*
X137723619Y-106363163D02*
X137580762Y-106315544D01*
X137580762Y-106315544D02*
X137485524Y-106220305D01*
X137485524Y-106220305D02*
X137437905Y-106125067D01*
X137437905Y-106125067D02*
X137390286Y-105934591D01*
X137390286Y-105934591D02*
X137390286Y-105791734D01*
X137390286Y-105791734D02*
X137437905Y-105601258D01*
X137437905Y-105601258D02*
X137485524Y-105506020D01*
X137485524Y-105506020D02*
X137580762Y-105410782D01*
X137580762Y-105410782D02*
X137723619Y-105363163D01*
X137723619Y-105363163D02*
X137818857Y-105363163D01*
X137818857Y-105363163D02*
X137961714Y-105410782D01*
X137961714Y-105410782D02*
X138009333Y-105458401D01*
X138866476Y-105696496D02*
X138866476Y-106363163D01*
X138628381Y-105315544D02*
X138390286Y-106029829D01*
X138390286Y-106029829D02*
X139009333Y-106029829D01*
X105205466Y-127200086D02*
X104729276Y-127200086D01*
X104729276Y-127200086D02*
X104729276Y-126200086D01*
X105681657Y-126628657D02*
X105586419Y-126581038D01*
X105586419Y-126581038D02*
X105538800Y-126533419D01*
X105538800Y-126533419D02*
X105491181Y-126438181D01*
X105491181Y-126438181D02*
X105491181Y-126390562D01*
X105491181Y-126390562D02*
X105538800Y-126295324D01*
X105538800Y-126295324D02*
X105586419Y-126247705D01*
X105586419Y-126247705D02*
X105681657Y-126200086D01*
X105681657Y-126200086D02*
X105872133Y-126200086D01*
X105872133Y-126200086D02*
X105967371Y-126247705D01*
X105967371Y-126247705D02*
X106014990Y-126295324D01*
X106014990Y-126295324D02*
X106062609Y-126390562D01*
X106062609Y-126390562D02*
X106062609Y-126438181D01*
X106062609Y-126438181D02*
X106014990Y-126533419D01*
X106014990Y-126533419D02*
X105967371Y-126581038D01*
X105967371Y-126581038D02*
X105872133Y-126628657D01*
X105872133Y-126628657D02*
X105681657Y-126628657D01*
X105681657Y-126628657D02*
X105586419Y-126676276D01*
X105586419Y-126676276D02*
X105538800Y-126723895D01*
X105538800Y-126723895D02*
X105491181Y-126819133D01*
X105491181Y-126819133D02*
X105491181Y-127009609D01*
X105491181Y-127009609D02*
X105538800Y-127104847D01*
X105538800Y-127104847D02*
X105586419Y-127152467D01*
X105586419Y-127152467D02*
X105681657Y-127200086D01*
X105681657Y-127200086D02*
X105872133Y-127200086D01*
X105872133Y-127200086D02*
X105967371Y-127152467D01*
X105967371Y-127152467D02*
X106014990Y-127104847D01*
X106014990Y-127104847D02*
X106062609Y-127009609D01*
X106062609Y-127009609D02*
X106062609Y-126819133D01*
X106062609Y-126819133D02*
X106014990Y-126723895D01*
X106014990Y-126723895D02*
X105967371Y-126676276D01*
X105967371Y-126676276D02*
X105872133Y-126628657D01*
D17*
X131473998Y-129322118D02*
X131473998Y-130131641D01*
X131473998Y-130131641D02*
X131521617Y-130226879D01*
X131521617Y-130226879D02*
X131569236Y-130274499D01*
X131569236Y-130274499D02*
X131664474Y-130322118D01*
X131664474Y-130322118D02*
X131854950Y-130322118D01*
X131854950Y-130322118D02*
X131950188Y-130274499D01*
X131950188Y-130274499D02*
X131997807Y-130226879D01*
X131997807Y-130226879D02*
X132045426Y-130131641D01*
X132045426Y-130131641D02*
X132045426Y-129322118D01*
X133045426Y-130322118D02*
X132473998Y-130322118D01*
X132759712Y-130322118D02*
X132759712Y-129322118D01*
X132759712Y-129322118D02*
X132664474Y-129464975D01*
X132664474Y-129464975D02*
X132569236Y-129560213D01*
X132569236Y-129560213D02*
X132473998Y-129607832D01*
X133997807Y-130322118D02*
X133426379Y-130322118D01*
X133712093Y-130322118D02*
X133712093Y-129322118D01*
X133712093Y-129322118D02*
X133616855Y-129464975D01*
X133616855Y-129464975D02*
X133521617Y-129560213D01*
X133521617Y-129560213D02*
X133426379Y-129607832D01*
D16*
X121118105Y-104420244D02*
X120927629Y-104553577D01*
X121118105Y-104648815D02*
X120718105Y-104648815D01*
X120718105Y-104648815D02*
X120718105Y-104496434D01*
X120718105Y-104496434D02*
X120737153Y-104458339D01*
X120737153Y-104458339D02*
X120756200Y-104439292D01*
X120756200Y-104439292D02*
X120794296Y-104420244D01*
X120794296Y-104420244D02*
X120851438Y-104420244D01*
X120851438Y-104420244D02*
X120889534Y-104439292D01*
X120889534Y-104439292D02*
X120908581Y-104458339D01*
X120908581Y-104458339D02*
X120927629Y-104496434D01*
X120927629Y-104496434D02*
X120927629Y-104648815D01*
X121118105Y-104039292D02*
X121118105Y-104267863D01*
X121118105Y-104153577D02*
X120718105Y-104153577D01*
X120718105Y-104153577D02*
X120775248Y-104191673D01*
X120775248Y-104191673D02*
X120813343Y-104229768D01*
X120813343Y-104229768D02*
X120832391Y-104267863D01*
X120718105Y-103791673D02*
X120718105Y-103753578D01*
X120718105Y-103753578D02*
X120737153Y-103715482D01*
X120737153Y-103715482D02*
X120756200Y-103696435D01*
X120756200Y-103696435D02*
X120794296Y-103677387D01*
X120794296Y-103677387D02*
X120870486Y-103658340D01*
X120870486Y-103658340D02*
X120965724Y-103658340D01*
X120965724Y-103658340D02*
X121041915Y-103677387D01*
X121041915Y-103677387D02*
X121080010Y-103696435D01*
X121080010Y-103696435D02*
X121099058Y-103715482D01*
X121099058Y-103715482D02*
X121118105Y-103753578D01*
X121118105Y-103753578D02*
X121118105Y-103791673D01*
X121118105Y-103791673D02*
X121099058Y-103829768D01*
X121099058Y-103829768D02*
X121080010Y-103848816D01*
X121080010Y-103848816D02*
X121041915Y-103867863D01*
X121041915Y-103867863D02*
X120965724Y-103886911D01*
X120965724Y-103886911D02*
X120870486Y-103886911D01*
X120870486Y-103886911D02*
X120794296Y-103867863D01*
X120794296Y-103867863D02*
X120756200Y-103848816D01*
X120756200Y-103848816D02*
X120737153Y-103829768D01*
X120737153Y-103829768D02*
X120718105Y-103791673D01*
D11*
X153184109Y-118971228D02*
X152967442Y-118661704D01*
X152812680Y-118971228D02*
X152812680Y-118321228D01*
X152812680Y-118321228D02*
X153060299Y-118321228D01*
X153060299Y-118321228D02*
X153122204Y-118352180D01*
X153122204Y-118352180D02*
X153153157Y-118383133D01*
X153153157Y-118383133D02*
X153184109Y-118445037D01*
X153184109Y-118445037D02*
X153184109Y-118537895D01*
X153184109Y-118537895D02*
X153153157Y-118599799D01*
X153153157Y-118599799D02*
X153122204Y-118630752D01*
X153122204Y-118630752D02*
X153060299Y-118661704D01*
X153060299Y-118661704D02*
X152812680Y-118661704D01*
X153803157Y-118971228D02*
X153431728Y-118971228D01*
X153617442Y-118971228D02*
X153617442Y-118321228D01*
X153617442Y-118321228D02*
X153555538Y-118414085D01*
X153555538Y-118414085D02*
X153493633Y-118475990D01*
X153493633Y-118475990D02*
X153431728Y-118506942D01*
D17*
X129097594Y-139836368D02*
X129097594Y-140645891D01*
X129097594Y-140645891D02*
X129145213Y-140741129D01*
X129145213Y-140741129D02*
X129192832Y-140788749D01*
X129192832Y-140788749D02*
X129288070Y-140836368D01*
X129288070Y-140836368D02*
X129478546Y-140836368D01*
X129478546Y-140836368D02*
X129573784Y-140788749D01*
X129573784Y-140788749D02*
X129621403Y-140741129D01*
X129621403Y-140741129D02*
X129669022Y-140645891D01*
X129669022Y-140645891D02*
X129669022Y-139836368D01*
X130621403Y-139836368D02*
X130145213Y-139836368D01*
X130145213Y-139836368D02*
X130097594Y-140312558D01*
X130097594Y-140312558D02*
X130145213Y-140264939D01*
X130145213Y-140264939D02*
X130240451Y-140217320D01*
X130240451Y-140217320D02*
X130478546Y-140217320D01*
X130478546Y-140217320D02*
X130573784Y-140264939D01*
X130573784Y-140264939D02*
X130621403Y-140312558D01*
X130621403Y-140312558D02*
X130669022Y-140407796D01*
X130669022Y-140407796D02*
X130669022Y-140645891D01*
X130669022Y-140645891D02*
X130621403Y-140741129D01*
X130621403Y-140741129D02*
X130573784Y-140788749D01*
X130573784Y-140788749D02*
X130478546Y-140836368D01*
X130478546Y-140836368D02*
X130240451Y-140836368D01*
X130240451Y-140836368D02*
X130145213Y-140788749D01*
X130145213Y-140788749D02*
X130097594Y-140741129D01*
D14*
X144783333Y-103162619D02*
X144450000Y-102686428D01*
X144211905Y-103162619D02*
X144211905Y-102162619D01*
X144211905Y-102162619D02*
X144592857Y-102162619D01*
X144592857Y-102162619D02*
X144688095Y-102210238D01*
X144688095Y-102210238D02*
X144735714Y-102257857D01*
X144735714Y-102257857D02*
X144783333Y-102353095D01*
X144783333Y-102353095D02*
X144783333Y-102495952D01*
X144783333Y-102495952D02*
X144735714Y-102591190D01*
X144735714Y-102591190D02*
X144688095Y-102638809D01*
X144688095Y-102638809D02*
X144592857Y-102686428D01*
X144592857Y-102686428D02*
X144211905Y-102686428D01*
X145259524Y-103162619D02*
X145450000Y-103162619D01*
X145450000Y-103162619D02*
X145545238Y-103115000D01*
X145545238Y-103115000D02*
X145592857Y-103067380D01*
X145592857Y-103067380D02*
X145688095Y-102924523D01*
X145688095Y-102924523D02*
X145735714Y-102734047D01*
X145735714Y-102734047D02*
X145735714Y-102353095D01*
X145735714Y-102353095D02*
X145688095Y-102257857D01*
X145688095Y-102257857D02*
X145640476Y-102210238D01*
X145640476Y-102210238D02*
X145545238Y-102162619D01*
X145545238Y-102162619D02*
X145354762Y-102162619D01*
X145354762Y-102162619D02*
X145259524Y-102210238D01*
X145259524Y-102210238D02*
X145211905Y-102257857D01*
X145211905Y-102257857D02*
X145164286Y-102353095D01*
X145164286Y-102353095D02*
X145164286Y-102591190D01*
X145164286Y-102591190D02*
X145211905Y-102686428D01*
X145211905Y-102686428D02*
X145259524Y-102734047D01*
X145259524Y-102734047D02*
X145354762Y-102781666D01*
X145354762Y-102781666D02*
X145545238Y-102781666D01*
X145545238Y-102781666D02*
X145640476Y-102734047D01*
X145640476Y-102734047D02*
X145688095Y-102686428D01*
X145688095Y-102686428D02*
X145735714Y-102591190D01*
X94507499Y-119814234D02*
X94555118Y-119671377D01*
X94555118Y-119671377D02*
X94555118Y-119433282D01*
X94555118Y-119433282D02*
X94507499Y-119338044D01*
X94507499Y-119338044D02*
X94459879Y-119290425D01*
X94459879Y-119290425D02*
X94364641Y-119242806D01*
X94364641Y-119242806D02*
X94269403Y-119242806D01*
X94269403Y-119242806D02*
X94174165Y-119290425D01*
X94174165Y-119290425D02*
X94126546Y-119338044D01*
X94126546Y-119338044D02*
X94078927Y-119433282D01*
X94078927Y-119433282D02*
X94031308Y-119623758D01*
X94031308Y-119623758D02*
X93983689Y-119718996D01*
X93983689Y-119718996D02*
X93936070Y-119766615D01*
X93936070Y-119766615D02*
X93840832Y-119814234D01*
X93840832Y-119814234D02*
X93745594Y-119814234D01*
X93745594Y-119814234D02*
X93650356Y-119766615D01*
X93650356Y-119766615D02*
X93602737Y-119718996D01*
X93602737Y-119718996D02*
X93555118Y-119623758D01*
X93555118Y-119623758D02*
X93555118Y-119385663D01*
X93555118Y-119385663D02*
X93602737Y-119242806D01*
X93555118Y-118909472D02*
X94555118Y-118671377D01*
X94555118Y-118671377D02*
X93840832Y-118480901D01*
X93840832Y-118480901D02*
X94555118Y-118290425D01*
X94555118Y-118290425D02*
X93555118Y-118052330D01*
X94555118Y-117147568D02*
X94555118Y-117718996D01*
X94555118Y-117433282D02*
X93555118Y-117433282D01*
X93555118Y-117433282D02*
X93697975Y-117528520D01*
X93697975Y-117528520D02*
X93793213Y-117623758D01*
X93793213Y-117623758D02*
X93840832Y-117718996D01*
X159539736Y-141182844D02*
X160349259Y-141182844D01*
X160349259Y-141182844D02*
X160444497Y-141135225D01*
X160444497Y-141135225D02*
X160492117Y-141087606D01*
X160492117Y-141087606D02*
X160539736Y-140992368D01*
X160539736Y-140992368D02*
X160539736Y-140801892D01*
X160539736Y-140801892D02*
X160492117Y-140706654D01*
X160492117Y-140706654D02*
X160444497Y-140659035D01*
X160444497Y-140659035D02*
X160349259Y-140611416D01*
X160349259Y-140611416D02*
X159539736Y-140611416D01*
X159873069Y-139706654D02*
X160539736Y-139706654D01*
X159492117Y-139944749D02*
X160206402Y-140182844D01*
X160206402Y-140182844D02*
X160206402Y-139563797D01*
X144394865Y-107547797D02*
X143394865Y-107547797D01*
X143394865Y-107547797D02*
X143394865Y-107309702D01*
X143394865Y-107309702D02*
X143442484Y-107166845D01*
X143442484Y-107166845D02*
X143537722Y-107071607D01*
X143537722Y-107071607D02*
X143632960Y-107023988D01*
X143632960Y-107023988D02*
X143823436Y-106976369D01*
X143823436Y-106976369D02*
X143966293Y-106976369D01*
X143966293Y-106976369D02*
X144156769Y-107023988D01*
X144156769Y-107023988D02*
X144252007Y-107071607D01*
X144252007Y-107071607D02*
X144347246Y-107166845D01*
X144347246Y-107166845D02*
X144394865Y-107309702D01*
X144394865Y-107309702D02*
X144394865Y-107547797D01*
X143394865Y-106643035D02*
X143394865Y-106023988D01*
X143394865Y-106023988D02*
X143775817Y-106357321D01*
X143775817Y-106357321D02*
X143775817Y-106214464D01*
X143775817Y-106214464D02*
X143823436Y-106119226D01*
X143823436Y-106119226D02*
X143871055Y-106071607D01*
X143871055Y-106071607D02*
X143966293Y-106023988D01*
X143966293Y-106023988D02*
X144204388Y-106023988D01*
X144204388Y-106023988D02*
X144299626Y-106071607D01*
X144299626Y-106071607D02*
X144347246Y-106119226D01*
X144347246Y-106119226D02*
X144394865Y-106214464D01*
X144394865Y-106214464D02*
X144394865Y-106500178D01*
X144394865Y-106500178D02*
X144347246Y-106595416D01*
X144347246Y-106595416D02*
X144299626Y-106643035D01*
X146832006Y-134456012D02*
X146355816Y-134456012D01*
X146355816Y-134456012D02*
X146355816Y-133456012D01*
X147689149Y-134456012D02*
X147117721Y-134456012D01*
X147403435Y-134456012D02*
X147403435Y-133456012D01*
X147403435Y-133456012D02*
X147308197Y-133598869D01*
X147308197Y-133598869D02*
X147212959Y-133694107D01*
X147212959Y-133694107D02*
X147117721Y-133741726D01*
D11*
X151273787Y-121136553D02*
X150964263Y-121353220D01*
X151273787Y-121507982D02*
X150623787Y-121507982D01*
X150623787Y-121507982D02*
X150623787Y-121260363D01*
X150623787Y-121260363D02*
X150654739Y-121198458D01*
X150654739Y-121198458D02*
X150685692Y-121167505D01*
X150685692Y-121167505D02*
X150747596Y-121136553D01*
X150747596Y-121136553D02*
X150840454Y-121136553D01*
X150840454Y-121136553D02*
X150902358Y-121167505D01*
X150902358Y-121167505D02*
X150933311Y-121198458D01*
X150933311Y-121198458D02*
X150964263Y-121260363D01*
X150964263Y-121260363D02*
X150964263Y-121507982D01*
X150623787Y-120919886D02*
X150623787Y-120517505D01*
X150623787Y-120517505D02*
X150871406Y-120734172D01*
X150871406Y-120734172D02*
X150871406Y-120641315D01*
X150871406Y-120641315D02*
X150902358Y-120579410D01*
X150902358Y-120579410D02*
X150933311Y-120548458D01*
X150933311Y-120548458D02*
X150995215Y-120517505D01*
X150995215Y-120517505D02*
X151149977Y-120517505D01*
X151149977Y-120517505D02*
X151211882Y-120548458D01*
X151211882Y-120548458D02*
X151242835Y-120579410D01*
X151242835Y-120579410D02*
X151273787Y-120641315D01*
X151273787Y-120641315D02*
X151273787Y-120827029D01*
X151273787Y-120827029D02*
X151242835Y-120888934D01*
X151242835Y-120888934D02*
X151211882Y-120919886D01*
D14*
X88383095Y-136807619D02*
X88954523Y-136807619D01*
X88668809Y-137807619D02*
X88668809Y-136807619D01*
X89240238Y-136902857D02*
X89287857Y-136855238D01*
X89287857Y-136855238D02*
X89383095Y-136807619D01*
X89383095Y-136807619D02*
X89621190Y-136807619D01*
X89621190Y-136807619D02*
X89716428Y-136855238D01*
X89716428Y-136855238D02*
X89764047Y-136902857D01*
X89764047Y-136902857D02*
X89811666Y-136998095D01*
X89811666Y-136998095D02*
X89811666Y-137093333D01*
X89811666Y-137093333D02*
X89764047Y-137236190D01*
X89764047Y-137236190D02*
X89192619Y-137807619D01*
X89192619Y-137807619D02*
X89811666Y-137807619D01*
X182483095Y-141539119D02*
X183054523Y-141539119D01*
X182768809Y-142539119D02*
X182768809Y-141539119D01*
X183816428Y-141872452D02*
X183816428Y-142539119D01*
X183578333Y-141491500D02*
X183340238Y-142205785D01*
X183340238Y-142205785D02*
X183959285Y-142205785D01*
X144733333Y-104812619D02*
X144400000Y-104336428D01*
X144161905Y-104812619D02*
X144161905Y-103812619D01*
X144161905Y-103812619D02*
X144542857Y-103812619D01*
X144542857Y-103812619D02*
X144638095Y-103860238D01*
X144638095Y-103860238D02*
X144685714Y-103907857D01*
X144685714Y-103907857D02*
X144733333Y-104003095D01*
X144733333Y-104003095D02*
X144733333Y-104145952D01*
X144733333Y-104145952D02*
X144685714Y-104241190D01*
X144685714Y-104241190D02*
X144638095Y-104288809D01*
X144638095Y-104288809D02*
X144542857Y-104336428D01*
X144542857Y-104336428D02*
X144161905Y-104336428D01*
X145304762Y-104241190D02*
X145209524Y-104193571D01*
X145209524Y-104193571D02*
X145161905Y-104145952D01*
X145161905Y-104145952D02*
X145114286Y-104050714D01*
X145114286Y-104050714D02*
X145114286Y-104003095D01*
X145114286Y-104003095D02*
X145161905Y-103907857D01*
X145161905Y-103907857D02*
X145209524Y-103860238D01*
X145209524Y-103860238D02*
X145304762Y-103812619D01*
X145304762Y-103812619D02*
X145495238Y-103812619D01*
X145495238Y-103812619D02*
X145590476Y-103860238D01*
X145590476Y-103860238D02*
X145638095Y-103907857D01*
X145638095Y-103907857D02*
X145685714Y-104003095D01*
X145685714Y-104003095D02*
X145685714Y-104050714D01*
X145685714Y-104050714D02*
X145638095Y-104145952D01*
X145638095Y-104145952D02*
X145590476Y-104193571D01*
X145590476Y-104193571D02*
X145495238Y-104241190D01*
X145495238Y-104241190D02*
X145304762Y-104241190D01*
X145304762Y-104241190D02*
X145209524Y-104288809D01*
X145209524Y-104288809D02*
X145161905Y-104336428D01*
X145161905Y-104336428D02*
X145114286Y-104431666D01*
X145114286Y-104431666D02*
X145114286Y-104622142D01*
X145114286Y-104622142D02*
X145161905Y-104717380D01*
X145161905Y-104717380D02*
X145209524Y-104765000D01*
X145209524Y-104765000D02*
X145304762Y-104812619D01*
X145304762Y-104812619D02*
X145495238Y-104812619D01*
X145495238Y-104812619D02*
X145590476Y-104765000D01*
X145590476Y-104765000D02*
X145638095Y-104717380D01*
X145638095Y-104717380D02*
X145685714Y-104622142D01*
X145685714Y-104622142D02*
X145685714Y-104431666D01*
X145685714Y-104431666D02*
X145638095Y-104336428D01*
X145638095Y-104336428D02*
X145590476Y-104288809D01*
X145590476Y-104288809D02*
X145495238Y-104241190D01*
X138888974Y-129727660D02*
X138412783Y-130060993D01*
X138888974Y-130299088D02*
X137888974Y-130299088D01*
X137888974Y-130299088D02*
X137888974Y-129918136D01*
X137888974Y-129918136D02*
X137936593Y-129822898D01*
X137936593Y-129822898D02*
X137984212Y-129775279D01*
X137984212Y-129775279D02*
X138079450Y-129727660D01*
X138079450Y-129727660D02*
X138222307Y-129727660D01*
X138222307Y-129727660D02*
X138317545Y-129775279D01*
X138317545Y-129775279D02*
X138365164Y-129822898D01*
X138365164Y-129822898D02*
X138412783Y-129918136D01*
X138412783Y-129918136D02*
X138412783Y-130299088D01*
X137984212Y-129346707D02*
X137936593Y-129299088D01*
X137936593Y-129299088D02*
X137888974Y-129203850D01*
X137888974Y-129203850D02*
X137888974Y-128965755D01*
X137888974Y-128965755D02*
X137936593Y-128870517D01*
X137936593Y-128870517D02*
X137984212Y-128822898D01*
X137984212Y-128822898D02*
X138079450Y-128775279D01*
X138079450Y-128775279D02*
X138174688Y-128775279D01*
X138174688Y-128775279D02*
X138317545Y-128822898D01*
X138317545Y-128822898D02*
X138888974Y-129394326D01*
X138888974Y-129394326D02*
X138888974Y-128775279D01*
X137888974Y-128156231D02*
X137888974Y-128060993D01*
X137888974Y-128060993D02*
X137936593Y-127965755D01*
X137936593Y-127965755D02*
X137984212Y-127918136D01*
X137984212Y-127918136D02*
X138079450Y-127870517D01*
X138079450Y-127870517D02*
X138269926Y-127822898D01*
X138269926Y-127822898D02*
X138508021Y-127822898D01*
X138508021Y-127822898D02*
X138698497Y-127870517D01*
X138698497Y-127870517D02*
X138793735Y-127918136D01*
X138793735Y-127918136D02*
X138841355Y-127965755D01*
X138841355Y-127965755D02*
X138888974Y-128060993D01*
X138888974Y-128060993D02*
X138888974Y-128156231D01*
X138888974Y-128156231D02*
X138841355Y-128251469D01*
X138841355Y-128251469D02*
X138793735Y-128299088D01*
X138793735Y-128299088D02*
X138698497Y-128346707D01*
X138698497Y-128346707D02*
X138508021Y-128394326D01*
X138508021Y-128394326D02*
X138269926Y-128394326D01*
X138269926Y-128394326D02*
X138079450Y-128346707D01*
X138079450Y-128346707D02*
X137984212Y-128299088D01*
X137984212Y-128299088D02*
X137936593Y-128251469D01*
X137936593Y-128251469D02*
X137888974Y-128156231D01*
D18*
X152012760Y-122977953D02*
X152012760Y-122670671D01*
X152772760Y-122977953D02*
X152772760Y-122670671D01*
X171653595Y-144474174D02*
X172983595Y-144474174D01*
X171653595Y-145804174D02*
X171653595Y-144474174D01*
X171653595Y-147074174D02*
X171653595Y-147134174D01*
X171653595Y-147074174D02*
X174313595Y-147074174D01*
X171653595Y-147134174D02*
X174313595Y-147134174D01*
X174313595Y-147074174D02*
X174313595Y-147134174D01*
X145022019Y-125054084D02*
X144714737Y-125054084D01*
X145022019Y-124294084D02*
X144714737Y-124294084D01*
X166304200Y-132506000D02*
X168336200Y-132506000D01*
X166304200Y-134538000D02*
X166304200Y-132506000D01*
X168336200Y-132506000D02*
X168336200Y-134538000D01*
X168336200Y-134538000D02*
X166304200Y-134538000D01*
X165947934Y-135046000D02*
G75*
G03*
X165947934Y-135046000I-151734J0D01*
G01*
X154375499Y-115574786D02*
X154375499Y-117574786D01*
X154375499Y-115574786D02*
X158385499Y-115574786D01*
X154375499Y-117574786D02*
X158385499Y-117574786D01*
X133148988Y-137413324D02*
X133148988Y-137694484D01*
X132128988Y-137413324D02*
X132128988Y-137694484D01*
X162401317Y-119140739D02*
X162401317Y-119448021D01*
X161641317Y-119140739D02*
X161641317Y-119448021D01*
X153070505Y-102616000D02*
G75*
G03*
X153070505Y-102616000I-950000J0D01*
G01*
X170359623Y-139122118D02*
X170359623Y-138814836D01*
X171119623Y-139122118D02*
X171119623Y-138814836D01*
X143031539Y-105833876D02*
G75*
G03*
X143031539Y-105833876I-950000J0D01*
G01*
X116080156Y-122529537D02*
X112630156Y-122529537D01*
X116080156Y-122529537D02*
X118030156Y-122529537D01*
X116080156Y-127649537D02*
X114130156Y-127649537D01*
X116080156Y-127649537D02*
X118030156Y-127649537D01*
X95827457Y-130734124D02*
X95827457Y-131026658D01*
X94807457Y-130734124D02*
X94807457Y-131026658D01*
X116775000Y-121930000D02*
X115715000Y-121930000D01*
X116775000Y-120870000D02*
X116775000Y-121930000D01*
X116650000Y-119950000D02*
X116650000Y-109890000D01*
X116650000Y-119950000D02*
X114125000Y-119950000D01*
X116650000Y-109890000D02*
X114125000Y-109890000D01*
X114125000Y-119950000D02*
X114125000Y-109890000D01*
X124042500Y-105250000D02*
X122367500Y-105250000D01*
X124042500Y-105250000D02*
X124692500Y-105250000D01*
X124042500Y-108370000D02*
X123392500Y-108370000D01*
X124042500Y-108370000D02*
X124692500Y-108370000D01*
X124030000Y-112320000D02*
X122355000Y-112320000D01*
X124030000Y-112320000D02*
X124680000Y-112320000D01*
X124030000Y-115440000D02*
X123380000Y-115440000D01*
X124030000Y-115440000D02*
X124680000Y-115440000D01*
X131926359Y-120751418D02*
X132233641Y-120751418D01*
X131926359Y-121511418D02*
X132233641Y-121511418D01*
X162596271Y-151208757D02*
X162303737Y-151208757D01*
X162596271Y-150188757D02*
X162303737Y-150188757D01*
X86361000Y-123916600D02*
X88393000Y-123916600D01*
X86361000Y-125948600D02*
X86361000Y-123916600D01*
X88393000Y-123916600D02*
X88393000Y-125948600D01*
X88393000Y-125948600D02*
X86361000Y-125948600D01*
X86004734Y-126456600D02*
G75*
G03*
X86004734Y-126456600I-151734J0D01*
G01*
X137562000Y-110141936D02*
X137562000Y-111346064D01*
X135742000Y-110141936D02*
X135742000Y-111346064D01*
X121466500Y-110114276D02*
X121466500Y-110623724D01*
X120421500Y-110114276D02*
X120421500Y-110623724D01*
X162793973Y-118767393D02*
X162793973Y-120442393D01*
X162793973Y-118767393D02*
X162793973Y-118117393D01*
X165913973Y-118767393D02*
X165913973Y-119417393D01*
X165913973Y-118767393D02*
X165913973Y-118117393D01*
X154496801Y-108459075D02*
X154281129Y-108459075D01*
X154496801Y-107739075D02*
X154281129Y-107739075D01*
X176675000Y-142906500D02*
X180675000Y-142906500D01*
X176675000Y-146906500D02*
X176675000Y-142906500D01*
X178040000Y-147827500D02*
X178421000Y-147827500D01*
X178421000Y-148843500D02*
X178421000Y-147827500D01*
X178421000Y-148843500D02*
X178929000Y-148843500D01*
X178675000Y-147319500D02*
X178040000Y-147827500D01*
X178929000Y-147827500D02*
X179310000Y-147827500D01*
X178929000Y-148843500D02*
X178929000Y-147827500D01*
X179310000Y-147827500D02*
X178675000Y-147319500D01*
X180675000Y-142906500D02*
X180675000Y-146906500D01*
X180675000Y-146906500D02*
X176675000Y-146906500D01*
X134690000Y-119690000D02*
X135340000Y-119690000D01*
X141910000Y-120340000D02*
X141910000Y-119690000D01*
X134690000Y-120340000D02*
X134690000Y-119690000D01*
X141910000Y-126260000D02*
X141910000Y-126910000D01*
X134690000Y-126260000D02*
X134690000Y-126910000D01*
X141910000Y-126910000D02*
X141260000Y-126910000D01*
X134690000Y-126910000D02*
X135340000Y-126910000D01*
X104361000Y-110916600D02*
X106393000Y-110916600D01*
X104361000Y-112948600D02*
X104361000Y-110916600D01*
X106393000Y-110916600D02*
X106393000Y-112948600D01*
X106393000Y-112948600D02*
X104361000Y-112948600D01*
X104004734Y-113456600D02*
G75*
G03*
X104004734Y-113456600I-151734J0D01*
G01*
X143480000Y-126592164D02*
X143480000Y-126807836D01*
X142760000Y-126592164D02*
X142760000Y-126807836D01*
X140764343Y-115229853D02*
G75*
G03*
X140764343Y-115229853I-950000J0D01*
G01*
X121459500Y-113555276D02*
X121459500Y-114064724D01*
X120414500Y-113555276D02*
X120414500Y-114064724D01*
X129868718Y-113074462D02*
X129868718Y-114774462D01*
X129868718Y-113074462D02*
X133128718Y-113074462D01*
X129868718Y-114774462D02*
X133128718Y-114774462D01*
X117256000Y-119837564D02*
X117256000Y-118633436D01*
X119076000Y-119837564D02*
X119076000Y-118633436D01*
X82675000Y-138125000D02*
X86675000Y-138125000D01*
X82675000Y-142125000D02*
X82675000Y-138125000D01*
X84040000Y-143046000D02*
X84421000Y-143046000D01*
X84421000Y-144062000D02*
X84421000Y-143046000D01*
X84421000Y-144062000D02*
X84929000Y-144062000D01*
X84675000Y-142538000D02*
X84040000Y-143046000D01*
X84929000Y-143046000D02*
X85310000Y-143046000D01*
X84929000Y-144062000D02*
X84929000Y-143046000D01*
X85310000Y-143046000D02*
X84675000Y-142538000D01*
X86675000Y-138125000D02*
X86675000Y-142125000D01*
X86675000Y-142125000D02*
X82675000Y-142125000D01*
X122650000Y-123060000D02*
X124350000Y-123060000D01*
X122650000Y-123060000D02*
X122650000Y-119800000D01*
X124350000Y-123060000D02*
X124350000Y-119800000D01*
X132989448Y-124159940D02*
X132773776Y-124159940D01*
X132989448Y-123439940D02*
X132773776Y-123439940D01*
X128334724Y-114462500D02*
X127825276Y-114462500D01*
X128334724Y-113417500D02*
X127825276Y-113417500D01*
X161330598Y-119138837D02*
X161330598Y-119446119D01*
X160570598Y-119138837D02*
X160570598Y-119446119D01*
X127072419Y-139684151D02*
X127353579Y-139684151D01*
X127072419Y-140704151D02*
X127353579Y-140704151D01*
X163251909Y-121157393D02*
X164456037Y-121157393D01*
X163251909Y-122977393D02*
X164456037Y-122977393D01*
D19*
X178957595Y-146730317D02*
X178957595Y-145830317D01*
X179399595Y-146280317D02*
X178499595Y-146280317D01*
X183307595Y-146280317D02*
X182407595Y-146280317D01*
D18*
X153295499Y-121354786D02*
X153295499Y-123029786D01*
X153295499Y-121354786D02*
X153295499Y-120704786D01*
X156415499Y-121354786D02*
X156415499Y-122004786D01*
X156415499Y-121354786D02*
X156415499Y-120704786D01*
X145027116Y-126078631D02*
X144719834Y-126078631D01*
X145027116Y-125318631D02*
X144719834Y-125318631D01*
X108135042Y-118987056D02*
X108427576Y-118987056D01*
X108135042Y-120007056D02*
X108427576Y-120007056D01*
X124440580Y-124435000D02*
X124159420Y-124435000D01*
X124440580Y-123415000D02*
X124159420Y-123415000D01*
X148304200Y-145506000D02*
X150336200Y-145506000D01*
X148304200Y-147538000D02*
X148304200Y-145506000D01*
X150336200Y-145506000D02*
X150336200Y-147538000D01*
X150336200Y-147538000D02*
X148304200Y-147538000D01*
X147947934Y-148046000D02*
G75*
G03*
X147947934Y-148046000I-151734J0D01*
G01*
X125850940Y-115973075D02*
G75*
G03*
X125850940Y-115973075I-950000J0D01*
G01*
X158187043Y-128094200D02*
G75*
G03*
X158187043Y-128094200I-950000J0D01*
G01*
X127538523Y-130206949D02*
X127538523Y-130488109D01*
X126518523Y-130206949D02*
X126518523Y-130488109D01*
X147289721Y-107809148D02*
X147289721Y-107501866D01*
X148049721Y-107809148D02*
X148049721Y-107501866D01*
X130850000Y-121575000D02*
X128850000Y-121575000D01*
X128850000Y-121575000D02*
X128450000Y-121575000D01*
X130850000Y-121775000D02*
X130850000Y-122775000D01*
X128850000Y-121775000D02*
X130850000Y-121775000D01*
X128850000Y-121775000D02*
X128450000Y-121775000D01*
X128450000Y-122775000D02*
X128450000Y-121775000D01*
X128450000Y-122775000D02*
X128050000Y-122775000D01*
X130850000Y-124575000D02*
X130850000Y-125375000D01*
X130850000Y-125375000D02*
X128850000Y-125375000D01*
X128850000Y-125375000D02*
X128450000Y-125375000D01*
X128450000Y-125375000D02*
X128450000Y-124575000D01*
X142447892Y-118221565D02*
X142663564Y-118221565D01*
X142447892Y-118941565D02*
X142663564Y-118941565D01*
X86361000Y-110916600D02*
X88393000Y-110916600D01*
X86361000Y-112948600D02*
X86361000Y-110916600D01*
X88393000Y-110916600D02*
X88393000Y-112948600D01*
X88393000Y-112948600D02*
X86361000Y-112948600D01*
X86004734Y-113456600D02*
G75*
G03*
X86004734Y-113456600I-151734J0D01*
G01*
X119771000Y-121582000D02*
X121641000Y-121582000D01*
X121641000Y-121582000D02*
X121641000Y-117672000D01*
X119771000Y-117672000D02*
X119771000Y-121582000D01*
X131506000Y-105156000D02*
G75*
G03*
X131506000Y-105156000I-950000J0D01*
G01*
X171248456Y-136068314D02*
X171248456Y-136360848D01*
X170228456Y-136068314D02*
X170228456Y-136360848D01*
X166304200Y-145506000D02*
X168336200Y-145506000D01*
X166304200Y-147538000D02*
X166304200Y-145506000D01*
X168336200Y-145506000D02*
X168336200Y-147538000D01*
X168336200Y-147538000D02*
X166304200Y-147538000D01*
X165947934Y-148046000D02*
G75*
G03*
X165947934Y-148046000I-151734J0D01*
G01*
X124030000Y-108830000D02*
X122355000Y-108830000D01*
X124030000Y-108830000D02*
X124680000Y-108830000D01*
X124030000Y-111950000D02*
X123380000Y-111950000D01*
X124030000Y-111950000D02*
X124680000Y-111950000D01*
X139808000Y-111354500D02*
X141483000Y-111354500D01*
X139808000Y-111354500D02*
X139158000Y-111354500D01*
X139808000Y-108234500D02*
X140458000Y-108234500D01*
X139808000Y-108234500D02*
X139158000Y-108234500D01*
X159491988Y-150467756D02*
X159799270Y-150467756D01*
X159491988Y-151227756D02*
X159799270Y-151227756D01*
D20*
X143833130Y-145345810D02*
X143833130Y-148048261D01*
X138433755Y-148048261D01*
X136582870Y-146222988D01*
X136582870Y-143035740D01*
X141550692Y-143035740D01*
X143833130Y-145345810D01*
D21*
X163940000Y-109990000D02*
X161580000Y-109990000D01*
X165310000Y-114790000D02*
X165310000Y-110290000D01*
X160210000Y-114790000D02*
X160210000Y-110290000D01*
X161580000Y-115090000D02*
X163940000Y-115090000D01*
D19*
X164735000Y-108290000D02*
G75*
G03*
X164735000Y-108290000I-100000J0D01*
G01*
D18*
X137409755Y-115106341D02*
G75*
G03*
X137409755Y-115106341I-950000J0D01*
G01*
X108531760Y-117597059D02*
X108839042Y-117597059D01*
X108531760Y-118357059D02*
X108839042Y-118357059D01*
X129402814Y-129085200D02*
X129683974Y-129085200D01*
X129402814Y-130105200D02*
X129683974Y-130105200D01*
X142231091Y-128520953D02*
X142015419Y-128520953D01*
X142231091Y-127800953D02*
X142015419Y-127800953D01*
X129486115Y-125894421D02*
X129793397Y-125894421D01*
X129486115Y-126654421D02*
X129793397Y-126654421D01*
X139547420Y-111814500D02*
X139828580Y-111814500D01*
X139547420Y-112834500D02*
X139828580Y-112834500D01*
X144957836Y-124035000D02*
X144742164Y-124035000D01*
X144957836Y-123315000D02*
X144742164Y-123315000D01*
X123980000Y-99270000D02*
X123980000Y-100330000D01*
X122920000Y-99270000D02*
X123980000Y-99270000D01*
X121920000Y-99270000D02*
X119860000Y-99270000D01*
X121920000Y-99270000D02*
X121920000Y-101390000D01*
X119860000Y-99270000D02*
X119860000Y-101390000D01*
X121920000Y-101390000D02*
X119860000Y-101390000D01*
X119566369Y-107778492D02*
G75*
G03*
X119566369Y-107778492I-950000J0D01*
G01*
X144955825Y-123025768D02*
X144740153Y-123025768D01*
X144955825Y-122305768D02*
X144740153Y-122305768D01*
X131895712Y-110042059D02*
G75*
G03*
X131895712Y-110042059I-950000J0D01*
G01*
X156695499Y-119674786D02*
X156695499Y-121349786D01*
X156695499Y-119674786D02*
X156695499Y-119024786D01*
X159815499Y-119674786D02*
X159815499Y-120324786D01*
X159815499Y-119674786D02*
X159815499Y-119024786D01*
X128324724Y-110902500D02*
X127815276Y-110902500D01*
X128324724Y-109857500D02*
X127815276Y-109857500D01*
X119549544Y-111294833D02*
G75*
G03*
X119549544Y-111294833I-950000J0D01*
G01*
X137922000Y-131552000D02*
X134472000Y-131552000D01*
X137922000Y-131552000D02*
X139872000Y-131552000D01*
X137922000Y-136672000D02*
X135972000Y-136672000D01*
X137922000Y-136672000D02*
X139872000Y-136672000D01*
X148546042Y-108969917D02*
X148546042Y-109229917D01*
X148546042Y-109229917D02*
X146871042Y-109229917D01*
X148546042Y-114419917D02*
X148546042Y-114159917D01*
X151271042Y-108969917D02*
X148546042Y-108969917D01*
X151271042Y-108969917D02*
X153996042Y-108969917D01*
X151271042Y-114419917D02*
X148546042Y-114419917D01*
X151271042Y-114419917D02*
X153996042Y-114419917D01*
X153996042Y-108969917D02*
X153996042Y-109229917D01*
X153996042Y-114419917D02*
X153996042Y-114159917D01*
X128334724Y-107402500D02*
X127825276Y-107402500D01*
X128334724Y-106357500D02*
X127825276Y-106357500D01*
X131040884Y-123797218D02*
X131040884Y-123489936D01*
X131800884Y-123797218D02*
X131800884Y-123489936D01*
D19*
X84607723Y-141940911D02*
X84607723Y-141040911D01*
X85049723Y-141490911D02*
X84149723Y-141490911D01*
X88957723Y-141490911D02*
X88057723Y-141490911D01*
D18*
X97313652Y-131098722D02*
X97313652Y-131406004D01*
X96553652Y-131098722D02*
X96553652Y-131406004D01*
X139873580Y-107854500D02*
X139592420Y-107854500D01*
X139873580Y-106834500D02*
X139592420Y-106834500D01*
X104361000Y-123916600D02*
X106393000Y-123916600D01*
X104361000Y-125948600D02*
X104361000Y-123916600D01*
X106393000Y-123916600D02*
X106393000Y-125948600D01*
X106393000Y-125948600D02*
X104361000Y-125948600D01*
X104004734Y-126456600D02*
G75*
G03*
X104004734Y-126456600I-151734J0D01*
G01*
D17*
X128152000Y-130630000D02*
X128152000Y-130930000D01*
X128152000Y-130630000D02*
X128952000Y-130630000D01*
X128152000Y-133230000D02*
X128152000Y-133530000D01*
X128152000Y-133530000D02*
X128952000Y-133530000D01*
X131552000Y-130630000D02*
X130752000Y-130630000D01*
X131552000Y-130930000D02*
X131552000Y-130630000D01*
X131552000Y-133530000D02*
X130752000Y-133530000D01*
X131552000Y-133530000D02*
X131552000Y-133230000D01*
X132452000Y-132830000D02*
G75*
G03*
X132452000Y-132830000I-200000J0D01*
G01*
D18*
X121452500Y-106625276D02*
X121452500Y-107134724D01*
X120407500Y-106625276D02*
X120407500Y-107134724D01*
X155119140Y-119064786D02*
X154811858Y-119064786D01*
X155119140Y-118304786D02*
X154811858Y-118304786D01*
D17*
X131559499Y-139023749D02*
X131559499Y-138723749D01*
X131559499Y-139023749D02*
X130759499Y-139023749D01*
X131559499Y-136423749D02*
X131559499Y-136123749D01*
X131559499Y-136123749D02*
X130759499Y-136123749D01*
X128159499Y-139023749D02*
X128959499Y-139023749D01*
X128159499Y-138723749D02*
X128159499Y-139023749D01*
X128159499Y-136123749D02*
X128959499Y-136123749D01*
X128159499Y-136123749D02*
X128159499Y-136423749D01*
X127659499Y-136823749D02*
G75*
G03*
X127659499Y-136823749I-200000J0D01*
G01*
D18*
X155636000Y-102616000D02*
G75*
G03*
X155636000Y-102616000I-950000J0D01*
G01*
X133930418Y-104222421D02*
G75*
G03*
X133930418Y-104222421I-950000J0D01*
G01*
X147345276Y-102027500D02*
X147854724Y-102027500D01*
X147345276Y-103072500D02*
X147854724Y-103072500D01*
X141944000Y-111714500D02*
X143644000Y-111714500D01*
X141944000Y-111714500D02*
X141944000Y-108454500D01*
X143644000Y-111714500D02*
X143644000Y-108454500D01*
X148304200Y-132506000D02*
X150336200Y-132506000D01*
X148304200Y-134538000D02*
X148304200Y-132506000D01*
X150336200Y-132506000D02*
X150336200Y-134538000D01*
X150336200Y-134538000D02*
X148304200Y-134538000D01*
X147947934Y-135046000D02*
G75*
G03*
X147947934Y-135046000I-151734J0D01*
G01*
X151694832Y-122665063D02*
X151694832Y-122972345D01*
X150934832Y-122665063D02*
X150934832Y-122972345D01*
X87175000Y-138125000D02*
X91175000Y-138125000D01*
X87175000Y-142125000D02*
X87175000Y-138125000D01*
X88540000Y-143046000D02*
X88921000Y-143046000D01*
X88921000Y-144062000D02*
X88921000Y-143046000D01*
X88921000Y-144062000D02*
X89429000Y-144062000D01*
X89175000Y-142538000D02*
X88540000Y-143046000D01*
X89429000Y-143046000D02*
X89810000Y-143046000D01*
X89429000Y-144062000D02*
X89429000Y-143046000D01*
X89810000Y-143046000D02*
X89175000Y-142538000D01*
X91175000Y-138125000D02*
X91175000Y-142125000D01*
X91175000Y-142125000D02*
X87175000Y-142125000D01*
X154069831Y-124976430D02*
G75*
G03*
X154069831Y-124976430I-950000J0D01*
G01*
X181175000Y-142906500D02*
X185175000Y-142906500D01*
X181175000Y-146906500D02*
X181175000Y-142906500D01*
X182540000Y-147827500D02*
X182921000Y-147827500D01*
X182921000Y-148843500D02*
X182921000Y-147827500D01*
X182921000Y-148843500D02*
X183429000Y-148843500D01*
X183175000Y-147319500D02*
X182540000Y-147827500D01*
X183429000Y-147827500D02*
X183810000Y-147827500D01*
X183429000Y-148843500D02*
X183429000Y-147827500D01*
X183810000Y-147827500D02*
X183175000Y-147319500D01*
X185175000Y-142906500D02*
X185175000Y-146906500D01*
X185175000Y-146906500D02*
X181175000Y-146906500D01*
X147345276Y-103627500D02*
X147854724Y-103627500D01*
X147345276Y-104672500D02*
X147854724Y-104672500D01*
X133521909Y-111701320D02*
G75*
G03*
X133521909Y-111701320I-950000J0D01*
G01*
X139853009Y-128742303D02*
X139853009Y-129049585D01*
X139093009Y-128742303D02*
X139093009Y-129049585D01*
M02*
