G04 #@! TF.GenerationSoftware,KiCad,Pcbnew,7.0.2*
G04 #@! TF.CreationDate,2023-06-19T11:15:08-07:00*
G04 #@! TF.ProjectId,procon_gcc_main_pcb,70726f63-6f6e-45f6-9763-635f6d61696e,1*
G04 #@! TF.SameCoordinates,Original*
G04 #@! TF.FileFunction,Soldermask,Top*
G04 #@! TF.FilePolarity,Negative*
%FSLAX46Y46*%
G04 Gerber Fmt 4.6, Leading zero omitted, Abs format (unit mm)*
G04 Created by KiCad (PCBNEW 7.0.2) date 2023-06-19 11:15:08*
%MOMM*%
%LPD*%
G01*
G04 APERTURE LIST*
G04 Aperture macros list*
%AMRoundRect*
0 Rectangle with rounded corners*
0 $1 Rounding radius*
0 $2 $3 $4 $5 $6 $7 $8 $9 X,Y pos of 4 corners*
0 Add a 4 corners polygon primitive as box body*
4,1,4,$2,$3,$4,$5,$6,$7,$8,$9,$2,$3,0*
0 Add four circle primitives for the rounded corners*
1,1,$1+$1,$2,$3*
1,1,$1+$1,$4,$5*
1,1,$1+$1,$6,$7*
1,1,$1+$1,$8,$9*
0 Add four rect primitives between the rounded corners*
20,1,$1+$1,$2,$3,$4,$5,0*
20,1,$1+$1,$4,$5,$6,$7,0*
20,1,$1+$1,$6,$7,$8,$9,0*
20,1,$1+$1,$8,$9,$2,$3,0*%
G04 Aperture macros list end*
%ADD10C,0.025000*%
%ADD11O,0.400000X0.900000*%
%ADD12R,0.950000X1.700000*%
%ADD13R,0.900000X1.700000*%
%ADD14R,1.200000X0.600000*%
%ADD15R,1.000000X1.000000*%
%ADD16RoundRect,0.135000X0.185000X-0.135000X0.185000X0.135000X-0.185000X0.135000X-0.185000X-0.135000X0*%
%ADD17R,1.700000X1.700000*%
%ADD18RoundRect,0.135000X0.135000X0.185000X-0.135000X0.185000X-0.135000X-0.185000X0.135000X-0.185000X0*%
%ADD19R,0.550000X0.550000*%
%ADD20RoundRect,0.225000X-0.225000X-0.375000X0.225000X-0.375000X0.225000X0.375000X-0.225000X0.375000X0*%
%ADD21RoundRect,0.225000X-0.250000X0.225000X-0.250000X-0.225000X0.250000X-0.225000X0.250000X0.225000X0*%
%ADD22RoundRect,0.135000X-0.185000X0.135000X-0.185000X-0.135000X0.185000X-0.135000X0.185000X0.135000X0*%
%ADD23C,1.500000*%
%ADD24RoundRect,0.150000X-0.825000X-0.150000X0.825000X-0.150000X0.825000X0.150000X-0.825000X0.150000X0*%
%ADD25RoundRect,0.237500X-0.237500X0.300000X-0.237500X-0.300000X0.237500X-0.300000X0.237500X0.300000X0*%
%ADD26R,2.300000X1.600000*%
%ADD27O,2.300000X1.600000*%
%ADD28RoundRect,0.150000X-0.587500X-0.150000X0.587500X-0.150000X0.587500X0.150000X-0.587500X0.150000X0*%
%ADD29RoundRect,0.135000X-0.135000X-0.185000X0.135000X-0.185000X0.135000X0.185000X-0.135000X0.185000X0*%
%ADD30RoundRect,0.237500X0.300000X0.237500X-0.300000X0.237500X-0.300000X-0.237500X0.300000X-0.237500X0*%
%ADD31RoundRect,0.250001X-0.624999X0.462499X-0.624999X-0.462499X0.624999X-0.462499X0.624999X0.462499X0*%
%ADD32RoundRect,0.237500X-0.237500X0.250000X-0.237500X-0.250000X0.237500X-0.250000X0.237500X0.250000X0*%
%ADD33RoundRect,0.150000X0.150000X-0.587500X0.150000X0.587500X-0.150000X0.587500X-0.150000X-0.587500X0*%
%ADD34RoundRect,0.140000X0.140000X0.170000X-0.140000X0.170000X-0.140000X-0.170000X0.140000X-0.170000X0*%
%ADD35R,2.000000X2.000000*%
%ADD36RoundRect,0.050000X-0.050000X0.387500X-0.050000X-0.387500X0.050000X-0.387500X0.050000X0.387500X0*%
%ADD37RoundRect,0.050000X-0.387500X0.050000X-0.387500X-0.050000X0.387500X-0.050000X0.387500X0.050000X0*%
%ADD38R,3.200000X3.200000*%
%ADD39RoundRect,0.140000X-0.170000X0.140000X-0.170000X-0.140000X0.170000X-0.140000X0.170000X0.140000X0*%
%ADD40RoundRect,0.250000X-0.250000X-0.250000X0.250000X-0.250000X0.250000X0.250000X-0.250000X0.250000X0*%
%ADD41RoundRect,0.250001X0.624999X-0.462499X0.624999X0.462499X-0.624999X0.462499X-0.624999X-0.462499X0*%
%ADD42RoundRect,0.250000X0.250000X-0.250000X0.250000X0.250000X-0.250000X0.250000X-0.250000X-0.250000X0*%
%ADD43RoundRect,0.237500X0.250000X0.237500X-0.250000X0.237500X-0.250000X-0.237500X0.250000X-0.237500X0*%
%ADD44RoundRect,0.225000X-0.225000X-0.250000X0.225000X-0.250000X0.225000X0.250000X-0.225000X0.250000X0*%
%ADD45RoundRect,0.250001X-0.462499X-0.624999X0.462499X-0.624999X0.462499X0.624999X-0.462499X0.624999X0*%
%ADD46O,2.250000X3.250000*%
%ADD47RoundRect,0.237500X-0.300000X-0.237500X0.300000X-0.237500X0.300000X0.237500X-0.300000X0.237500X0*%
%ADD48RoundRect,0.225000X0.225000X0.250000X-0.225000X0.250000X-0.225000X-0.250000X0.225000X-0.250000X0*%
%ADD49R,1.900000X0.400000*%
%ADD50RoundRect,0.140000X-0.140000X-0.170000X0.140000X-0.170000X0.140000X0.170000X-0.140000X0.170000X0*%
%ADD51RoundRect,0.250000X0.425000X-0.450000X0.425000X0.450000X-0.425000X0.450000X-0.425000X-0.450000X0*%
%ADD52RoundRect,0.150000X0.587500X0.150000X-0.587500X0.150000X-0.587500X-0.150000X0.587500X-0.150000X0*%
%ADD53C,1.750000*%
%ADD54C,1.600000*%
%ADD55C,1.250000*%
%ADD56R,0.750000X1.000000*%
%ADD57R,1.350000X1.350000*%
%ADD58O,1.350000X1.350000*%
%ADD59R,0.300000X1.300000*%
%ADD60R,1.800000X2.200000*%
%ADD61C,0.700000*%
%ADD62R,0.300000X0.900000*%
%ADD63C,0.650000*%
%ADD64O,1.000000X1.600000*%
%ADD65RoundRect,0.150000X-0.650000X-0.150000X0.650000X-0.150000X0.650000X0.150000X-0.650000X0.150000X0*%
%ADD66R,0.745000X0.280000*%
%ADD67R,0.280000X0.745000*%
%ADD68RoundRect,0.237500X-0.250000X-0.237500X0.250000X-0.237500X0.250000X0.237500X-0.250000X0.237500X0*%
G04 APERTURE END LIST*
D10*
X141256470Y-145243438D02*
X142210425Y-145243438D01*
X142210425Y-145912807D01*
X140623811Y-145912807D01*
X140623811Y-143359635D01*
X141256470Y-143359635D01*
X141256470Y-145243438D01*
G36*
X141256470Y-145243438D02*
G01*
X142210425Y-145243438D01*
X142210425Y-145912807D01*
X140623811Y-145912807D01*
X140623811Y-143359635D01*
X141256470Y-143359635D01*
X141256470Y-145243438D01*
G37*
X138490336Y-145912807D02*
X137809475Y-145912807D01*
X137809475Y-144944685D01*
X137569819Y-144944685D01*
X137569819Y-145912807D01*
X136884519Y-145912807D01*
X136884519Y-143360155D01*
X137567533Y-143359635D01*
X137567533Y-144282437D01*
X137809475Y-144282437D01*
X137809475Y-143359635D01*
X138490336Y-143359635D01*
X138490336Y-145912807D01*
G36*
X138490336Y-145912807D02*
G01*
X137809475Y-145912807D01*
X137809475Y-144944685D01*
X137569819Y-144944685D01*
X137569819Y-145912807D01*
X136884519Y-145912807D01*
X136884519Y-143360155D01*
X137567533Y-143359635D01*
X137567533Y-144282437D01*
X137809475Y-144282437D01*
X137809475Y-143359635D01*
X138490336Y-143359635D01*
X138490336Y-145912807D01*
G37*
X140340336Y-145912807D02*
X139659475Y-145912807D01*
X139659475Y-144944685D01*
X139419819Y-144944685D01*
X139419819Y-145912807D01*
X138734519Y-145912807D01*
X138734519Y-143360155D01*
X139417533Y-143359635D01*
X139417533Y-144282437D01*
X139659475Y-144282437D01*
X139659475Y-143359635D01*
X140340336Y-143359635D01*
X140340336Y-145912807D01*
G36*
X140340336Y-145912807D02*
G01*
X139659475Y-145912807D01*
X139659475Y-144944685D01*
X139419819Y-144944685D01*
X139419819Y-145912807D01*
X138734519Y-145912807D01*
X138734519Y-143360155D01*
X139417533Y-143359635D01*
X139417533Y-144282437D01*
X139659475Y-144282437D01*
X139659475Y-143359635D01*
X140340336Y-143359635D01*
X140340336Y-145912807D01*
G37*
D11*
X126333519Y-101965000D03*
X130633519Y-101965000D03*
D12*
X127208519Y-102740000D03*
D13*
X128483519Y-102740000D03*
D12*
X129758519Y-102740000D03*
D14*
X126583519Y-100840000D03*
X130383519Y-100840000D03*
D15*
X105477000Y-119382600D03*
X105477000Y-117482600D03*
X102977000Y-118432600D03*
D16*
X152392760Y-123334312D03*
X152392760Y-122314312D03*
D17*
X172983595Y-145804174D03*
D18*
X145378378Y-124674084D03*
X144358378Y-124674084D03*
D19*
X166845200Y-133997000D03*
X167795200Y-133997000D03*
X167795200Y-133047000D03*
X166845200Y-133047000D03*
D20*
X155085499Y-116574786D03*
X158385499Y-116574786D03*
D21*
X132638988Y-136778904D03*
X132638988Y-138328904D03*
D22*
X162021317Y-118784380D03*
X162021317Y-119804380D03*
D23*
X152120505Y-102616000D03*
D16*
X170739623Y-139478477D03*
X170739623Y-138458477D03*
D23*
X142081539Y-105833876D03*
D24*
X113605156Y-123184537D03*
X113605156Y-124454537D03*
X113605156Y-125724537D03*
X113605156Y-126994537D03*
X118555156Y-126994537D03*
X118555156Y-125724537D03*
X118555156Y-124454537D03*
X118555156Y-123184537D03*
D25*
X95317457Y-130017891D03*
X95317457Y-131742891D03*
D26*
X115400000Y-120950000D03*
D27*
X115400000Y-118950000D03*
X115400000Y-116950000D03*
X115400000Y-114950000D03*
X115400000Y-112950000D03*
X115400000Y-110950000D03*
D28*
X123105000Y-105860000D03*
X123105000Y-107760000D03*
X124980000Y-106810000D03*
X123092500Y-112930000D03*
X123092500Y-114830000D03*
X124967500Y-113880000D03*
D29*
X131570000Y-121131418D03*
X132590000Y-121131418D03*
D30*
X163312504Y-150698757D03*
X161587504Y-150698757D03*
D19*
X86902000Y-125407600D03*
X87852000Y-125407600D03*
X87852000Y-124457600D03*
X86902000Y-124457600D03*
D31*
X136652000Y-109256500D03*
X136652000Y-112231500D03*
D32*
X120944000Y-109456500D03*
X120944000Y-111281500D03*
D33*
X163403973Y-119704893D03*
X165303973Y-119704893D03*
X164353973Y-117829893D03*
D34*
X154868965Y-108099075D03*
X153908965Y-108099075D03*
D35*
X178675000Y-144906500D03*
D36*
X140900000Y-119862500D03*
X140500000Y-119862500D03*
X140100000Y-119862500D03*
X139700000Y-119862500D03*
X139300000Y-119862500D03*
X138900000Y-119862500D03*
X138500000Y-119862500D03*
X138100000Y-119862500D03*
X137700000Y-119862500D03*
X137300000Y-119862500D03*
X136900000Y-119862500D03*
X136500000Y-119862500D03*
X136100000Y-119862500D03*
X135700000Y-119862500D03*
D37*
X134862500Y-120700000D03*
X134862500Y-121100000D03*
X134862500Y-121500000D03*
X134862500Y-121900000D03*
X134862500Y-122300000D03*
X134862500Y-122700000D03*
X134862500Y-123100000D03*
X134862500Y-123500000D03*
X134862500Y-123900000D03*
X134862500Y-124300000D03*
X134862500Y-124700000D03*
X134862500Y-125100000D03*
X134862500Y-125500000D03*
X134862500Y-125900000D03*
D36*
X135700000Y-126737500D03*
X136100000Y-126737500D03*
X136500000Y-126737500D03*
X136900000Y-126737500D03*
X137300000Y-126737500D03*
X137700000Y-126737500D03*
X138100000Y-126737500D03*
X138500000Y-126737500D03*
X138900000Y-126737500D03*
X139300000Y-126737500D03*
X139700000Y-126737500D03*
X140100000Y-126737500D03*
X140500000Y-126737500D03*
X140900000Y-126737500D03*
D37*
X141737500Y-125900000D03*
X141737500Y-125500000D03*
X141737500Y-125100000D03*
X141737500Y-124700000D03*
X141737500Y-124300000D03*
X141737500Y-123900000D03*
X141737500Y-123500000D03*
X141737500Y-123100000D03*
X141737500Y-122700000D03*
X141737500Y-122300000D03*
X141737500Y-121900000D03*
X141737500Y-121500000D03*
X141737500Y-121100000D03*
X141737500Y-120700000D03*
D38*
X138300000Y-123300000D03*
D19*
X104902000Y-112407600D03*
X105852000Y-112407600D03*
X105852000Y-111457600D03*
X104902000Y-111457600D03*
D39*
X143120000Y-126220000D03*
X143120000Y-127180000D03*
D23*
X139814343Y-115229853D03*
D32*
X120937000Y-112897500D03*
X120937000Y-114722500D03*
D40*
X130628718Y-113924462D03*
X133128718Y-113924462D03*
D41*
X118166000Y-120723000D03*
X118166000Y-117748000D03*
D35*
X84675000Y-140125000D03*
D42*
X123500000Y-122300000D03*
X123500000Y-119800000D03*
D34*
X133361612Y-123799940D03*
X132401612Y-123799940D03*
D43*
X128992500Y-113940000D03*
X127167500Y-113940000D03*
D22*
X160950598Y-118782478D03*
X160950598Y-119802478D03*
D44*
X126437999Y-140194151D03*
X127987999Y-140194151D03*
D15*
X157370200Y-149122000D03*
X159270200Y-149122000D03*
X158320200Y-146622000D03*
D45*
X162366473Y-122067393D03*
X165341473Y-122067393D03*
D46*
X178957595Y-143318317D03*
X182857595Y-143318317D03*
D33*
X153905499Y-122292286D03*
X155805499Y-122292286D03*
X154855499Y-120417286D03*
D18*
X145383475Y-125698631D03*
X144363475Y-125698631D03*
D47*
X107418809Y-119497056D03*
X109143809Y-119497056D03*
D48*
X125075000Y-123925000D03*
X123525000Y-123925000D03*
D19*
X148845200Y-146997000D03*
X149795200Y-146997000D03*
X149795200Y-146047000D03*
X148845200Y-146047000D03*
D23*
X124900940Y-115973075D03*
X157237043Y-128094200D03*
D21*
X127028523Y-129572529D03*
X127028523Y-131122529D03*
D16*
X147669721Y-108165507D03*
X147669721Y-107145507D03*
D49*
X129650000Y-122375000D03*
X129650000Y-123575000D03*
X129650000Y-124775000D03*
D50*
X142075728Y-118581565D03*
X143035728Y-118581565D03*
D19*
X86902000Y-112407600D03*
X87852000Y-112407600D03*
X87852000Y-111457600D03*
X86902000Y-111457600D03*
D51*
X120706000Y-120622000D03*
X120706000Y-117922000D03*
D23*
X130556000Y-105156000D03*
D25*
X170738456Y-135352081D03*
X170738456Y-137077081D03*
D19*
X166845200Y-146997000D03*
X167795200Y-146997000D03*
X167795200Y-146047000D03*
X166845200Y-146047000D03*
D28*
X123092500Y-109440000D03*
X123092500Y-111340000D03*
X124967500Y-110390000D03*
D52*
X140745500Y-110744500D03*
X140745500Y-108844500D03*
X138870500Y-109794500D03*
D29*
X159135629Y-150847756D03*
X160155629Y-150847756D03*
D53*
X153320200Y-133697000D03*
X153320200Y-146347000D03*
D54*
X158320200Y-135722000D03*
X158320200Y-144322000D03*
D53*
X163320200Y-133697000D03*
X163320200Y-146347000D03*
D55*
X152670200Y-136772000D03*
X152670200Y-143272000D03*
X148170200Y-136772000D03*
X148170200Y-143272000D03*
D56*
X164635000Y-109540000D03*
X164635000Y-115540000D03*
X160885000Y-109540000D03*
X160885000Y-115540000D03*
D15*
X95427000Y-127532600D03*
X97327000Y-127532600D03*
X96377000Y-125032600D03*
D23*
X136459755Y-115106341D03*
D29*
X108175401Y-117977059D03*
X109195401Y-117977059D03*
D44*
X128768394Y-129595200D03*
X130318394Y-129595200D03*
D34*
X142603255Y-128160953D03*
X141643255Y-128160953D03*
D29*
X129129756Y-126274421D03*
X130149756Y-126274421D03*
D44*
X138913000Y-112324500D03*
X140463000Y-112324500D03*
D34*
X145330000Y-123675000D03*
X144370000Y-123675000D03*
D57*
X122920000Y-100330000D03*
D58*
X120920000Y-100330000D03*
D23*
X118616369Y-107778492D03*
D34*
X145327989Y-122665768D03*
X144367989Y-122665768D03*
D59*
X96741205Y-141917846D03*
X97241205Y-141917846D03*
X97741205Y-141917846D03*
X98241205Y-141917846D03*
X98741205Y-141917846D03*
X99241205Y-141917846D03*
X99741205Y-141917846D03*
X100241205Y-141917846D03*
X100741205Y-141917846D03*
X101241205Y-141917846D03*
X101741205Y-141917846D03*
X102241205Y-141917846D03*
X102741205Y-141917846D03*
X103241205Y-141917846D03*
D60*
X94841205Y-145167846D03*
X105141205Y-145167846D03*
D23*
X130945712Y-110042059D03*
D33*
X157305499Y-120612286D03*
X159205499Y-120612286D03*
X158255499Y-118737286D03*
D43*
X128982500Y-110380000D03*
X127157500Y-110380000D03*
D61*
X142060000Y-98275000D03*
X134710000Y-98275000D03*
D62*
X141210000Y-98835000D03*
X140710000Y-98835000D03*
X140210000Y-98835000D03*
X139710000Y-98835000D03*
X139210000Y-98835000D03*
X138710000Y-98835000D03*
X138210000Y-98835000D03*
X137710000Y-98835000D03*
X137210000Y-98835000D03*
X136710000Y-98835000D03*
X136210000Y-98835000D03*
X135710000Y-98835000D03*
D63*
X135660000Y-97625000D03*
X136060000Y-96925000D03*
X136860000Y-96925000D03*
X137260000Y-97625000D03*
X137660000Y-96925000D03*
X138060000Y-97625000D03*
X138860000Y-97625000D03*
X139260000Y-96925000D03*
X139660000Y-97625000D03*
X140060000Y-96925000D03*
X140860000Y-96925000D03*
X141260000Y-97625000D03*
D64*
X142950000Y-92635000D03*
X142590000Y-97025000D03*
X134330000Y-97025000D03*
X133970000Y-92635000D03*
D23*
X118599544Y-111294833D03*
D24*
X135447000Y-132207000D03*
X135447000Y-133477000D03*
X135447000Y-134747000D03*
X135447000Y-136017000D03*
X140397000Y-136017000D03*
X140397000Y-134747000D03*
X140397000Y-133477000D03*
X140397000Y-132207000D03*
D65*
X147671042Y-109789917D03*
X147671042Y-111059917D03*
X147671042Y-112329917D03*
X147671042Y-113599917D03*
X154871042Y-113599917D03*
X154871042Y-112329917D03*
X154871042Y-111059917D03*
X154871042Y-109789917D03*
D43*
X128992500Y-106880000D03*
X127167500Y-106880000D03*
D16*
X131420884Y-124153577D03*
X131420884Y-123133577D03*
D46*
X84607723Y-138528911D03*
X89507723Y-138528911D03*
D22*
X96933652Y-130742363D03*
X96933652Y-131762363D03*
D48*
X140508000Y-107344500D03*
X138958000Y-107344500D03*
D19*
X104902000Y-125407600D03*
X105852000Y-125407600D03*
X105852000Y-124457600D03*
X104902000Y-124457600D03*
D66*
X131250000Y-132830000D03*
X131250000Y-132330000D03*
X131250000Y-131830000D03*
X131250000Y-131330000D03*
D67*
X130352000Y-130932000D03*
X129852000Y-130932000D03*
X129352000Y-130932000D03*
D66*
X128454000Y-131330000D03*
X128454000Y-131830000D03*
X128454000Y-132330000D03*
X128454000Y-132830000D03*
D67*
X129352000Y-133228000D03*
X129852000Y-133228000D03*
X130352000Y-133228000D03*
D32*
X120930000Y-105967500D03*
X120930000Y-107792500D03*
D18*
X155475499Y-118684786D03*
X154455499Y-118684786D03*
D66*
X128461499Y-136823749D03*
X128461499Y-137323749D03*
X128461499Y-137823749D03*
X128461499Y-138323749D03*
D67*
X129359499Y-138721749D03*
X129859499Y-138721749D03*
X130359499Y-138721749D03*
D66*
X131257499Y-138323749D03*
X131257499Y-137823749D03*
X131257499Y-137323749D03*
X131257499Y-136823749D03*
D67*
X130359499Y-136425749D03*
X129859499Y-136425749D03*
X129359499Y-136425749D03*
D23*
X154686000Y-102616000D03*
X132980418Y-104222421D03*
D68*
X146687500Y-102550000D03*
X148512500Y-102550000D03*
D53*
X91377000Y-112107600D03*
X91377000Y-124757600D03*
D54*
X96377000Y-114132600D03*
X96377000Y-122732600D03*
D53*
X101377000Y-112107600D03*
X101377000Y-124757600D03*
D55*
X90727000Y-115182600D03*
X90727000Y-121682600D03*
X86227000Y-115182600D03*
X86227000Y-121682600D03*
D15*
X167420200Y-140972000D03*
X167420200Y-139072000D03*
X164920200Y-140022000D03*
D42*
X142794000Y-110954500D03*
X142794000Y-108454500D03*
D19*
X148845200Y-133997000D03*
X149795200Y-133997000D03*
X149795200Y-133047000D03*
X148845200Y-133047000D03*
D22*
X151314832Y-122308704D03*
X151314832Y-123328704D03*
D35*
X89175000Y-140125000D03*
D23*
X153119831Y-124976430D03*
D35*
X183175000Y-144906500D03*
D68*
X146687500Y-104150000D03*
X148512500Y-104150000D03*
D23*
X132571909Y-111701320D03*
D22*
X139473009Y-128385944D03*
X139473009Y-129405944D03*
M02*
