M48
; DRILL file {KiCad 7.0.2} date Mon Jun 19 11:15:10 2023
; FORMAT={-:-/ absolute / inch / decimal}
; #@! TF.CreationDate,2023-06-19T11:15:10-07:00
; #@! TF.GenerationSoftware,Kicad,Pcbnew,7.0.2
; #@! TF.FileFunction,Plated,1,4,PTH
FMAT,2
INCH
; #@! TA.AperFunction,Plated,PTH,ViaDrill
T1C0.0138
; #@! TA.AperFunction,Plated,PTH,ViaDrill
T2C0.0157
; #@! TA.AperFunction,Plated,PTH,ComponentDrill
T3C0.0157
; #@! TA.AperFunction,Plated,PTH,ComponentDrill
T4C0.0197
; #@! TA.AperFunction,Plated,PTH,ComponentDrill
T5C0.0315
; #@! TA.AperFunction,Plated,PTH,ViaDrill
T6C0.0354
; #@! TA.AperFunction,Plated,PTH,ComponentDrill
T7C0.0354
; #@! TA.AperFunction,Plated,PTH,ComponentDrill
T8C0.0394
; #@! TA.AperFunction,Plated,PTH,ComponentDrill
T9C0.0433
; #@! TA.AperFunction,Plated,PTH,ComponentDrill
T10C0.0472
%
G90
G05
T1
X3.3612Y-4.4581
X3.3692Y-4.4116
X3.3692Y-4.9099
X3.4656Y-4.4999
X3.4856Y-4.9899
X3.62Y-4.72
X3.6481Y-5.0235
X3.69Y-4.9946
X3.6946Y-5.1084
X3.7267Y-4.8989
X3.7894Y-5.5417
X3.7987Y-5.3374
X3.8Y-5.51
X3.8212Y-5.3629
X3.8792Y-5.2192
X3.92Y-5.12
X4.0075Y-5.0905
X4.0393Y-5.126
X4.0394Y-4.7292
X4.04Y-5.53
X4.0409Y-5.091
X4.0656Y-4.9099
X4.0656Y-5.0099
X4.0707Y-4.4093
X4.0782Y-5.1559
X4.0792Y-5.1216
X4.1128Y-5.1914
X4.1131Y-4.4996
X4.1132Y-5.1576
X4.1347Y-4.7907
X4.1466Y-5.2244
X4.148Y-5.1896
X4.1897Y-4.7368
X4.2075Y-4.3623
X4.2141Y-4.9819
X4.2208Y-4.4603
X4.2505Y-5.271
X4.3037Y-4.7938
X4.3827Y-4.8469
X4.39Y-4.9
X4.4Y-5.02
X4.65Y-5.3103
X4.65Y-5.3438
X4.73Y-4.87
X4.73Y-5.38
X4.73Y-5.49
X4.74Y-4.95
X4.76Y-4.59
X4.7636Y-4.9736
X4.81Y-5.2454
X4.8466Y-4.61
X4.88Y-4.61
X4.94Y-4.83
X4.9672Y-4.7515
X4.97Y-4.27
X4.97Y-4.41
X4.97Y-4.54
X4.9832Y-5.3768
X4.9965Y-4.7353
X5.0022Y-5.2071
X5.017Y-5.3137
X5.0217Y-4.3943
X5.0231Y-4.4287
X5.0388Y-5.6209
X5.0389Y-4.6489
X5.06Y-4.54
X5.0625Y-5.2699
X5.075Y-5.3014
X5.1183Y-5.2039
X5.1362Y-4.7727
X5.1403Y-5.0345
X5.153Y-5.2857
X5.1969Y-5.2869
X5.2085Y-4.9241
X5.22Y-5.5
X5.2326Y-5.2954
X5.2344Y-5.0367
X5.2366Y-4.5304
X5.2391Y-4.73
X5.24Y-3.94
X5.2406Y-4.9045
X5.2476Y-5.0675
X5.2578Y-5.1851
X5.2627Y-4.7035
X5.27Y-4.53
X5.28Y-4.39
X5.2935Y-5.09
X5.2941Y-5.0561
X5.3Y-4.49
X5.3Y-5.47
X5.302Y-4.6018
X5.3036Y-4.4136
X5.3264Y-4.6254
X5.3285Y-5.1218
X5.3287Y-5.0882
X5.337Y-4.0161
X5.3378Y-4.0496
X5.35Y-4.8786
X5.35Y-4.65
X5.3525Y-4.0798
X5.3539Y-4.8224
X5.39Y-5.0995
X5.3948Y-4.6244
X5.4034Y-5.5502
X5.4049Y-5.2277
X5.4055Y-5.1364
X5.414Y-5.5185
X5.4282Y-4.0827
X5.43Y-5.16
X5.4374Y-3.9498
X5.4595Y-5.3553
X5.4597Y-5.2244
X5.46Y-5.31
X5.4616Y-4.0827
X5.4635Y-5.1587
X5.48Y-4.47
X5.4853Y-4.6064
X5.4884Y-4.9437
X5.4897Y-5.1351
X5.4917Y-4.1079
X5.4931Y-4.6447
X5.5199Y-4.5999
X5.5213Y-4.0787
X5.5243Y-5.1096
X5.5252Y-5.064
X5.5376Y-4.9253
X5.5413Y-4.6471
X5.5456Y-4.0534
X5.5526Y-5.0851
X5.5571Y-4.0201
X5.5671Y-4.6259
X5.6026Y-5.1107
X5.6028Y-5.2571
X5.62Y-3.97
X5.6288Y-4.7088
X5.6386Y-4.5254
X5.6496Y-4.8761
X5.65Y-5.05
X5.6535Y-4.0374
X5.7137Y-4.47
X5.72Y-5.03
X5.7292Y-4.5026
X5.7403Y-4.4464
X5.7411Y-4.774
X5.76Y-4.94
X5.762Y-4.5253
X5.7626Y-4.9
X5.7952Y-4.6147
X5.8Y-4.78
X5.8104Y-5.7454
X5.8236Y-5.04
X5.8236Y-5.0734
X5.8236Y-5.108
X5.8236Y-5.1948
X5.8311Y-4.6171
X5.86Y-4.22
X5.8604Y-5.8454
X5.8612Y-4.6318
X5.8777Y-4.6022
X5.88Y-5.5931
X5.8813Y-4.5689
X5.8851Y-5.1836
X5.91Y-4.1
X5.9104Y-5.3454
X5.9122Y-4.9
X5.93Y-4.38
X5.93Y-4.93
X5.957Y-5.1241
X5.96Y-4.44
X5.9604Y-5.8654
X5.9679Y-5.2121
X5.9759Y-4.7727
X5.99Y-4.11
X6.0017Y-4.5235
X6.02Y-4.25
X6.0389Y-4.4722
X6.06Y-4.11
X6.13Y-5.88
X6.1598Y-4.5193
X6.17Y-4.33
X6.17Y-5.77
X6.21Y-5.1
X6.2894Y-5.1934
X6.29Y-5.16
X6.3335Y-4.2524
X6.3381Y-5.097
X6.3928Y-5.1344
X6.42Y-4.62
X6.4904Y-5.9354
X6.5003Y-5.2831
X6.5104Y-5.5854
X6.5181Y-5.1933
X6.5304Y-5.7154
X6.5304Y-5.8754
X6.5904Y-5.7054
X6.61Y-5.35
X6.6104Y-5.6154
X6.6404Y-5.8754
X6.65Y-5.25
X6.73Y-5.25
X6.79Y-5.19
X6.7932Y-5.1567
T2
X4.71Y-4.1719
X4.71Y-4.3093
X4.71Y-4.4437
X4.82Y-4.88
X4.9571Y-4.0742
X4.9908Y-4.6102
X5.0042Y-4.8688
X5.0389Y-4.1474
X5.069Y-4.1136
X5.3248Y-3.9744
X5.3555Y-4.766
X5.3918Y-4.0814
X5.5Y-4.17
X5.53Y-4.47
X5.57Y-4.49
X5.5748Y-3.9823
X6.04Y-4.59
X6.2Y-4.91
X6.2319Y-5.5332
X6.27Y-4.82
X6.29Y-5.57
X6.301Y-4.9222
X6.3924Y-4.9222
T3
X5.3409Y-3.8435
X5.3567Y-3.8159
X5.3882Y-3.8159
X5.4039Y-3.8435
X5.4197Y-3.8159
X5.4354Y-3.8435
X5.4669Y-3.8435
X5.4827Y-3.8159
X5.4984Y-3.8435
X5.5142Y-3.8159
X5.5457Y-3.8159
X5.5614Y-3.8435
T5
X4.7606Y-3.95
X4.8394Y-3.95
T6
X4.543Y-4.8615
X4.5433Y-4.9616
T7
X3.3948Y-4.5347
X3.3948Y-4.7907
X3.5719Y-4.5347
X3.5719Y-4.7907
X5.8335Y-5.3847
X5.8335Y-5.6406
X6.0106Y-5.3847
X6.0106Y-5.6406
T8
X6.8104Y-5.7403
T9
X4.5433Y-4.3681
X4.5433Y-4.4469
X4.5433Y-4.5256
X4.5433Y-4.6043
X4.5433Y-4.6831
X4.5433Y-4.7618
T10
X3.3337Y-5.5167
X3.5108Y-5.5167
X3.5975Y-4.4137
X3.5975Y-4.9117
X3.9912Y-4.4137
X3.9912Y-4.9117
X6.0362Y-5.2637
X6.0362Y-5.7617
X6.4299Y-5.2637
X6.4299Y-5.7617
X7.0344Y-5.705
X7.2116Y-5.705
T4
G00X5.2744Y-3.6589
M15
G01X5.2744Y-3.6352
M16
G05
G00X5.2886Y-3.8317
M15
G01X5.2886Y-3.8081
M16
G05
G00X5.6138Y-3.8317
M15
G01X5.6138Y-3.8081
M16
G05
G00X5.628Y-3.6589
M15
G01X5.628Y-3.6352
M16
G05
T0
M30
