G04 #@! TF.GenerationSoftware,KiCad,Pcbnew,7.0.2*
G04 #@! TF.CreationDate,2023-06-19T11:15:08-07:00*
G04 #@! TF.ProjectId,procon_gcc_main_pcb,70726f63-6f6e-45f6-9763-635f6d61696e,1*
G04 #@! TF.SameCoordinates,Original*
G04 #@! TF.FileFunction,AssemblyDrawing,Top*
%FSLAX46Y46*%
G04 Gerber Fmt 4.6, Leading zero omitted, Abs format (unit mm)*
G04 Created by KiCad (PCBNEW 7.0.2) date 2023-06-19 11:15:08*
%MOMM*%
%LPD*%
G01*
G04 APERTURE LIST*
%ADD10C,0.200000*%
%ADD11C,0.150000*%
%ADD12C,0.040000*%
%ADD13C,0.060000*%
%ADD14C,0.120000*%
%ADD15C,0.050000*%
%ADD16C,0.030000*%
%ADD17C,0.080000*%
%ADD18C,0.100000*%
%ADD19C,0.127000*%
G04 APERTURE END LIST*
D10*
X105912500Y-129100000D02*
X105912500Y-144250000D01*
X124562500Y-135100000D02*
G75*
G03*
X118562500Y-129100000I-6000000J0D01*
G01*
X164987500Y-106250000D02*
X112137500Y-106250000D01*
X122737500Y-106250000D02*
G75*
G03*
X122737500Y-106250000I-3250000J0D01*
G01*
X124562500Y-144250000D02*
X124562500Y-135100000D01*
X118562500Y-129100000D02*
X105912500Y-129100000D01*
X144487500Y-91948000D02*
X132637500Y-91948000D01*
X160887500Y-106250000D02*
G75*
G03*
X160887500Y-106250000I-3250000J0D01*
G01*
X131062500Y-118250000D02*
G75*
G03*
X131062500Y-118250000I-3250000J0D01*
G01*
X124562500Y-118250000D02*
X124562500Y-129100000D01*
X105912500Y-144250000D02*
X124562500Y-144250000D01*
X152562500Y-118250000D02*
G75*
G03*
X152562500Y-118250000I-3250000J0D01*
G01*
D11*
X128221614Y-106392666D02*
X128269233Y-106345047D01*
X128269233Y-106345047D02*
X128364471Y-106297428D01*
X128364471Y-106297428D02*
X128554947Y-106392666D01*
X128554947Y-106392666D02*
X128650185Y-106345047D01*
X128650185Y-106345047D02*
X128697804Y-106297428D01*
X127150186Y-108226000D02*
X127293043Y-108273619D01*
X127293043Y-108273619D02*
X127531138Y-108273619D01*
X127531138Y-108273619D02*
X127626376Y-108226000D01*
X127626376Y-108226000D02*
X127673995Y-108178380D01*
X127673995Y-108178380D02*
X127721614Y-108083142D01*
X127721614Y-108083142D02*
X127721614Y-107987904D01*
X127721614Y-107987904D02*
X127673995Y-107892666D01*
X127673995Y-107892666D02*
X127626376Y-107845047D01*
X127626376Y-107845047D02*
X127531138Y-107797428D01*
X127531138Y-107797428D02*
X127340662Y-107749809D01*
X127340662Y-107749809D02*
X127245424Y-107702190D01*
X127245424Y-107702190D02*
X127197805Y-107654571D01*
X127197805Y-107654571D02*
X127150186Y-107559333D01*
X127150186Y-107559333D02*
X127150186Y-107464095D01*
X127150186Y-107464095D02*
X127197805Y-107368857D01*
X127197805Y-107368857D02*
X127245424Y-107321238D01*
X127245424Y-107321238D02*
X127340662Y-107273619D01*
X127340662Y-107273619D02*
X127578757Y-107273619D01*
X127578757Y-107273619D02*
X127721614Y-107321238D01*
X128054948Y-107273619D02*
X128293043Y-108273619D01*
X128293043Y-108273619D02*
X128483519Y-107559333D01*
X128483519Y-107559333D02*
X128673995Y-108273619D01*
X128673995Y-108273619D02*
X128912091Y-107273619D01*
X129721614Y-107606952D02*
X129721614Y-108273619D01*
X129483519Y-107226000D02*
X129245424Y-107940285D01*
X129245424Y-107940285D02*
X129864471Y-107940285D01*
D12*
X152513040Y-122867644D02*
X152389231Y-122954311D01*
X152513040Y-123016216D02*
X152253040Y-123016216D01*
X152253040Y-123016216D02*
X152253040Y-122917168D01*
X152253040Y-122917168D02*
X152265421Y-122892406D01*
X152265421Y-122892406D02*
X152277802Y-122880025D01*
X152277802Y-122880025D02*
X152302564Y-122867644D01*
X152302564Y-122867644D02*
X152339707Y-122867644D01*
X152339707Y-122867644D02*
X152364469Y-122880025D01*
X152364469Y-122880025D02*
X152376850Y-122892406D01*
X152376850Y-122892406D02*
X152389231Y-122917168D01*
X152389231Y-122917168D02*
X152389231Y-123016216D01*
X152277802Y-122768597D02*
X152265421Y-122756216D01*
X152265421Y-122756216D02*
X152253040Y-122731454D01*
X152253040Y-122731454D02*
X152253040Y-122669549D01*
X152253040Y-122669549D02*
X152265421Y-122644787D01*
X152265421Y-122644787D02*
X152277802Y-122632406D01*
X152277802Y-122632406D02*
X152302564Y-122620025D01*
X152302564Y-122620025D02*
X152327326Y-122620025D01*
X152327326Y-122620025D02*
X152364469Y-122632406D01*
X152364469Y-122632406D02*
X152513040Y-122780978D01*
X152513040Y-122780978D02*
X152513040Y-122620025D01*
D11*
X169983595Y-148072983D02*
X170316928Y-148072983D01*
X170459785Y-148596793D02*
X169983595Y-148596793D01*
X169983595Y-148596793D02*
X169983595Y-147596793D01*
X169983595Y-147596793D02*
X170459785Y-147596793D01*
X170888357Y-147930126D02*
X170888357Y-148596793D01*
X170888357Y-148025364D02*
X170935976Y-147977745D01*
X170935976Y-147977745D02*
X171031214Y-147930126D01*
X171031214Y-147930126D02*
X171174071Y-147930126D01*
X171174071Y-147930126D02*
X171269309Y-147977745D01*
X171269309Y-147977745D02*
X171316928Y-148072983D01*
X171316928Y-148072983D02*
X171316928Y-148596793D01*
X172221690Y-148596793D02*
X172221690Y-147596793D01*
X172221690Y-148549174D02*
X172126452Y-148596793D01*
X172126452Y-148596793D02*
X171935976Y-148596793D01*
X171935976Y-148596793D02*
X171840738Y-148549174D01*
X171840738Y-148549174D02*
X171793119Y-148501554D01*
X171793119Y-148501554D02*
X171745500Y-148406316D01*
X171745500Y-148406316D02*
X171745500Y-148120602D01*
X171745500Y-148120602D02*
X171793119Y-148025364D01*
X171793119Y-148025364D02*
X171840738Y-147977745D01*
X171840738Y-147977745D02*
X171935976Y-147930126D01*
X171935976Y-147930126D02*
X172126452Y-147930126D01*
X172126452Y-147930126D02*
X172221690Y-147977745D01*
X172697881Y-147930126D02*
X172697881Y-148930126D01*
X172697881Y-147977745D02*
X172793119Y-147930126D01*
X172793119Y-147930126D02*
X172983595Y-147930126D01*
X172983595Y-147930126D02*
X173078833Y-147977745D01*
X173078833Y-147977745D02*
X173126452Y-148025364D01*
X173126452Y-148025364D02*
X173174071Y-148120602D01*
X173174071Y-148120602D02*
X173174071Y-148406316D01*
X173174071Y-148406316D02*
X173126452Y-148501554D01*
X173126452Y-148501554D02*
X173078833Y-148549174D01*
X173078833Y-148549174D02*
X172983595Y-148596793D01*
X172983595Y-148596793D02*
X172793119Y-148596793D01*
X172793119Y-148596793D02*
X172697881Y-148549174D01*
X173745500Y-148596793D02*
X173650262Y-148549174D01*
X173650262Y-148549174D02*
X173602643Y-148501554D01*
X173602643Y-148501554D02*
X173555024Y-148406316D01*
X173555024Y-148406316D02*
X173555024Y-148120602D01*
X173555024Y-148120602D02*
X173602643Y-148025364D01*
X173602643Y-148025364D02*
X173650262Y-147977745D01*
X173650262Y-147977745D02*
X173745500Y-147930126D01*
X173745500Y-147930126D02*
X173888357Y-147930126D01*
X173888357Y-147930126D02*
X173983595Y-147977745D01*
X173983595Y-147977745D02*
X174031214Y-148025364D01*
X174031214Y-148025364D02*
X174078833Y-148120602D01*
X174078833Y-148120602D02*
X174078833Y-148406316D01*
X174078833Y-148406316D02*
X174031214Y-148501554D01*
X174031214Y-148501554D02*
X173983595Y-148549174D01*
X173983595Y-148549174D02*
X173888357Y-148596793D01*
X173888357Y-148596793D02*
X173745500Y-148596793D01*
X174507405Y-148596793D02*
X174507405Y-147930126D01*
X174507405Y-147596793D02*
X174459786Y-147644412D01*
X174459786Y-147644412D02*
X174507405Y-147692031D01*
X174507405Y-147692031D02*
X174555024Y-147644412D01*
X174555024Y-147644412D02*
X174507405Y-147596793D01*
X174507405Y-147596793D02*
X174507405Y-147692031D01*
X174983595Y-147930126D02*
X174983595Y-148596793D01*
X174983595Y-148025364D02*
X175031214Y-147977745D01*
X175031214Y-147977745D02*
X175126452Y-147930126D01*
X175126452Y-147930126D02*
X175269309Y-147930126D01*
X175269309Y-147930126D02*
X175364547Y-147977745D01*
X175364547Y-147977745D02*
X175412166Y-148072983D01*
X175412166Y-148072983D02*
X175412166Y-148596793D01*
X175745500Y-147930126D02*
X176126452Y-147930126D01*
X175888357Y-147596793D02*
X175888357Y-148453935D01*
X175888357Y-148453935D02*
X175935976Y-148549174D01*
X175935976Y-148549174D02*
X176031214Y-148596793D01*
X176031214Y-148596793D02*
X176126452Y-148596793D01*
X173446214Y-146542268D02*
X172446214Y-146542268D01*
X172446214Y-146542268D02*
X172446214Y-146161316D01*
X172446214Y-146161316D02*
X172493833Y-146066078D01*
X172493833Y-146066078D02*
X172541452Y-146018459D01*
X172541452Y-146018459D02*
X172636690Y-145970840D01*
X172636690Y-145970840D02*
X172779547Y-145970840D01*
X172779547Y-145970840D02*
X172874785Y-146018459D01*
X172874785Y-146018459D02*
X172922404Y-146066078D01*
X172922404Y-146066078D02*
X172970023Y-146161316D01*
X172970023Y-146161316D02*
X172970023Y-146542268D01*
X173446214Y-145018459D02*
X173446214Y-145589887D01*
X173446214Y-145304173D02*
X172446214Y-145304173D01*
X172446214Y-145304173D02*
X172589071Y-145399411D01*
X172589071Y-145399411D02*
X172684309Y-145494649D01*
X172684309Y-145494649D02*
X172731928Y-145589887D01*
D12*
X144701235Y-124794364D02*
X144614568Y-124670555D01*
X144552663Y-124794364D02*
X144552663Y-124534364D01*
X144552663Y-124534364D02*
X144651711Y-124534364D01*
X144651711Y-124534364D02*
X144676473Y-124546745D01*
X144676473Y-124546745D02*
X144688854Y-124559126D01*
X144688854Y-124559126D02*
X144701235Y-124583888D01*
X144701235Y-124583888D02*
X144701235Y-124621031D01*
X144701235Y-124621031D02*
X144688854Y-124645793D01*
X144688854Y-124645793D02*
X144676473Y-124658174D01*
X144676473Y-124658174D02*
X144651711Y-124670555D01*
X144651711Y-124670555D02*
X144552663Y-124670555D01*
X144800282Y-124559126D02*
X144812663Y-124546745D01*
X144812663Y-124546745D02*
X144837425Y-124534364D01*
X144837425Y-124534364D02*
X144899330Y-124534364D01*
X144899330Y-124534364D02*
X144924092Y-124546745D01*
X144924092Y-124546745D02*
X144936473Y-124559126D01*
X144936473Y-124559126D02*
X144948854Y-124583888D01*
X144948854Y-124583888D02*
X144948854Y-124608650D01*
X144948854Y-124608650D02*
X144936473Y-124645793D01*
X144936473Y-124645793D02*
X144787901Y-124794364D01*
X144787901Y-124794364D02*
X144948854Y-124794364D01*
X145072663Y-124794364D02*
X145122187Y-124794364D01*
X145122187Y-124794364D02*
X145146949Y-124781984D01*
X145146949Y-124781984D02*
X145159330Y-124769603D01*
X145159330Y-124769603D02*
X145184092Y-124732460D01*
X145184092Y-124732460D02*
X145196473Y-124682936D01*
X145196473Y-124682936D02*
X145196473Y-124583888D01*
X145196473Y-124583888D02*
X145184092Y-124559126D01*
X145184092Y-124559126D02*
X145171711Y-124546745D01*
X145171711Y-124546745D02*
X145146949Y-124534364D01*
X145146949Y-124534364D02*
X145097425Y-124534364D01*
X145097425Y-124534364D02*
X145072663Y-124546745D01*
X145072663Y-124546745D02*
X145060282Y-124559126D01*
X145060282Y-124559126D02*
X145047901Y-124583888D01*
X145047901Y-124583888D02*
X145047901Y-124645793D01*
X145047901Y-124645793D02*
X145060282Y-124670555D01*
X145060282Y-124670555D02*
X145072663Y-124682936D01*
X145072663Y-124682936D02*
X145097425Y-124695317D01*
X145097425Y-124695317D02*
X145146949Y-124695317D01*
X145146949Y-124695317D02*
X145171711Y-124682936D01*
X145171711Y-124682936D02*
X145184092Y-124670555D01*
X145184092Y-124670555D02*
X145196473Y-124645793D01*
D11*
X168169533Y-137540619D02*
X167693343Y-137540619D01*
X167693343Y-137540619D02*
X167693343Y-136540619D01*
X168455248Y-136635857D02*
X168502867Y-136588238D01*
X168502867Y-136588238D02*
X168598105Y-136540619D01*
X168598105Y-136540619D02*
X168836200Y-136540619D01*
X168836200Y-136540619D02*
X168931438Y-136588238D01*
X168931438Y-136588238D02*
X168979057Y-136635857D01*
X168979057Y-136635857D02*
X169026676Y-136731095D01*
X169026676Y-136731095D02*
X169026676Y-136826333D01*
X169026676Y-136826333D02*
X168979057Y-136969190D01*
X168979057Y-136969190D02*
X168407629Y-137540619D01*
X168407629Y-137540619D02*
X169026676Y-137540619D01*
X155997404Y-115037405D02*
X155997404Y-114037405D01*
X155997404Y-114037405D02*
X156235499Y-114037405D01*
X156235499Y-114037405D02*
X156378356Y-114085024D01*
X156378356Y-114085024D02*
X156473594Y-114180262D01*
X156473594Y-114180262D02*
X156521213Y-114275500D01*
X156521213Y-114275500D02*
X156568832Y-114465976D01*
X156568832Y-114465976D02*
X156568832Y-114608833D01*
X156568832Y-114608833D02*
X156521213Y-114799309D01*
X156521213Y-114799309D02*
X156473594Y-114894547D01*
X156473594Y-114894547D02*
X156378356Y-114989786D01*
X156378356Y-114989786D02*
X156235499Y-115037405D01*
X156235499Y-115037405D02*
X155997404Y-115037405D01*
X157521213Y-115037405D02*
X156949785Y-115037405D01*
X157235499Y-115037405D02*
X157235499Y-114037405D01*
X157235499Y-114037405D02*
X157140261Y-114180262D01*
X157140261Y-114180262D02*
X157045023Y-114275500D01*
X157045023Y-114275500D02*
X156949785Y-114323119D01*
X131671607Y-139101523D02*
X131671607Y-139672951D01*
X131671607Y-139387237D02*
X130671607Y-139387237D01*
X130671607Y-139387237D02*
X130814464Y-139482475D01*
X130814464Y-139482475D02*
X130909702Y-139577713D01*
X130909702Y-139577713D02*
X130957321Y-139672951D01*
X130671607Y-138482475D02*
X130671607Y-138387237D01*
X130671607Y-138387237D02*
X130719226Y-138291999D01*
X130719226Y-138291999D02*
X130766845Y-138244380D01*
X130766845Y-138244380D02*
X130862083Y-138196761D01*
X130862083Y-138196761D02*
X131052559Y-138149142D01*
X131052559Y-138149142D02*
X131290654Y-138149142D01*
X131290654Y-138149142D02*
X131481130Y-138196761D01*
X131481130Y-138196761D02*
X131576368Y-138244380D01*
X131576368Y-138244380D02*
X131623988Y-138291999D01*
X131623988Y-138291999D02*
X131671607Y-138387237D01*
X131671607Y-138387237D02*
X131671607Y-138482475D01*
X131671607Y-138482475D02*
X131623988Y-138577713D01*
X131623988Y-138577713D02*
X131576368Y-138625332D01*
X131576368Y-138625332D02*
X131481130Y-138672951D01*
X131481130Y-138672951D02*
X131290654Y-138720570D01*
X131290654Y-138720570D02*
X131052559Y-138720570D01*
X131052559Y-138720570D02*
X130862083Y-138672951D01*
X130862083Y-138672951D02*
X130766845Y-138625332D01*
X130766845Y-138625332D02*
X130719226Y-138577713D01*
X130719226Y-138577713D02*
X130671607Y-138482475D01*
X130671607Y-137530094D02*
X130671607Y-137434856D01*
X130671607Y-137434856D02*
X130719226Y-137339618D01*
X130719226Y-137339618D02*
X130766845Y-137291999D01*
X130766845Y-137291999D02*
X130862083Y-137244380D01*
X130862083Y-137244380D02*
X131052559Y-137196761D01*
X131052559Y-137196761D02*
X131290654Y-137196761D01*
X131290654Y-137196761D02*
X131481130Y-137244380D01*
X131481130Y-137244380D02*
X131576368Y-137291999D01*
X131576368Y-137291999D02*
X131623988Y-137339618D01*
X131623988Y-137339618D02*
X131671607Y-137434856D01*
X131671607Y-137434856D02*
X131671607Y-137530094D01*
X131671607Y-137530094D02*
X131623988Y-137625332D01*
X131623988Y-137625332D02*
X131576368Y-137672951D01*
X131576368Y-137672951D02*
X131481130Y-137720570D01*
X131481130Y-137720570D02*
X131290654Y-137768189D01*
X131290654Y-137768189D02*
X131052559Y-137768189D01*
X131052559Y-137768189D02*
X130862083Y-137720570D01*
X130862083Y-137720570D02*
X130766845Y-137672951D01*
X130766845Y-137672951D02*
X130719226Y-137625332D01*
X130719226Y-137625332D02*
X130671607Y-137530094D01*
X131004940Y-136768189D02*
X131671607Y-136768189D01*
X131100178Y-136768189D02*
X131052559Y-136720570D01*
X131052559Y-136720570D02*
X131004940Y-136625332D01*
X131004940Y-136625332D02*
X131004940Y-136482475D01*
X131004940Y-136482475D02*
X131052559Y-136387237D01*
X131052559Y-136387237D02*
X131147797Y-136339618D01*
X131147797Y-136339618D02*
X131671607Y-136339618D01*
X131147797Y-135530094D02*
X131147797Y-135863427D01*
X131671607Y-135863427D02*
X130671607Y-135863427D01*
X130671607Y-135863427D02*
X130671607Y-135387237D01*
D13*
X132785940Y-137620570D02*
X132804988Y-137639618D01*
X132804988Y-137639618D02*
X132824035Y-137696760D01*
X132824035Y-137696760D02*
X132824035Y-137734856D01*
X132824035Y-137734856D02*
X132804988Y-137791999D01*
X132804988Y-137791999D02*
X132766892Y-137830094D01*
X132766892Y-137830094D02*
X132728797Y-137849141D01*
X132728797Y-137849141D02*
X132652607Y-137868189D01*
X132652607Y-137868189D02*
X132595464Y-137868189D01*
X132595464Y-137868189D02*
X132519273Y-137849141D01*
X132519273Y-137849141D02*
X132481178Y-137830094D01*
X132481178Y-137830094D02*
X132443083Y-137791999D01*
X132443083Y-137791999D02*
X132424035Y-137734856D01*
X132424035Y-137734856D02*
X132424035Y-137696760D01*
X132424035Y-137696760D02*
X132443083Y-137639618D01*
X132443083Y-137639618D02*
X132462130Y-137620570D01*
X132424035Y-137277713D02*
X132424035Y-137353903D01*
X132424035Y-137353903D02*
X132443083Y-137391999D01*
X132443083Y-137391999D02*
X132462130Y-137411046D01*
X132462130Y-137411046D02*
X132519273Y-137449141D01*
X132519273Y-137449141D02*
X132595464Y-137468189D01*
X132595464Y-137468189D02*
X132747845Y-137468189D01*
X132747845Y-137468189D02*
X132785940Y-137449141D01*
X132785940Y-137449141D02*
X132804988Y-137430094D01*
X132804988Y-137430094D02*
X132824035Y-137391999D01*
X132824035Y-137391999D02*
X132824035Y-137315808D01*
X132824035Y-137315808D02*
X132804988Y-137277713D01*
X132804988Y-137277713D02*
X132785940Y-137258665D01*
X132785940Y-137258665D02*
X132747845Y-137239618D01*
X132747845Y-137239618D02*
X132652607Y-137239618D01*
X132652607Y-137239618D02*
X132614511Y-137258665D01*
X132614511Y-137258665D02*
X132595464Y-137277713D01*
X132595464Y-137277713D02*
X132576416Y-137315808D01*
X132576416Y-137315808D02*
X132576416Y-137391999D01*
X132576416Y-137391999D02*
X132595464Y-137430094D01*
X132595464Y-137430094D02*
X132614511Y-137449141D01*
X132614511Y-137449141D02*
X132652607Y-137468189D01*
D12*
X162141597Y-119337712D02*
X162017788Y-119424379D01*
X162141597Y-119486284D02*
X161881597Y-119486284D01*
X161881597Y-119486284D02*
X161881597Y-119387236D01*
X161881597Y-119387236D02*
X161893978Y-119362474D01*
X161893978Y-119362474D02*
X161906359Y-119350093D01*
X161906359Y-119350093D02*
X161931121Y-119337712D01*
X161931121Y-119337712D02*
X161968264Y-119337712D01*
X161968264Y-119337712D02*
X161993026Y-119350093D01*
X161993026Y-119350093D02*
X162005407Y-119362474D01*
X162005407Y-119362474D02*
X162017788Y-119387236D01*
X162017788Y-119387236D02*
X162017788Y-119486284D01*
X161968264Y-119114855D02*
X162141597Y-119114855D01*
X161869217Y-119176760D02*
X162054931Y-119238665D01*
X162054931Y-119238665D02*
X162054931Y-119077712D01*
D11*
X150382410Y-100428619D02*
X150953838Y-100428619D01*
X150668124Y-101428619D02*
X150668124Y-100428619D01*
X151287172Y-101428619D02*
X151287172Y-100428619D01*
X151287172Y-100428619D02*
X151668124Y-100428619D01*
X151668124Y-100428619D02*
X151763362Y-100476238D01*
X151763362Y-100476238D02*
X151810981Y-100523857D01*
X151810981Y-100523857D02*
X151858600Y-100619095D01*
X151858600Y-100619095D02*
X151858600Y-100761952D01*
X151858600Y-100761952D02*
X151810981Y-100857190D01*
X151810981Y-100857190D02*
X151763362Y-100904809D01*
X151763362Y-100904809D02*
X151668124Y-100952428D01*
X151668124Y-100952428D02*
X151287172Y-100952428D01*
X152810981Y-101428619D02*
X152239553Y-101428619D01*
X152525267Y-101428619D02*
X152525267Y-100428619D01*
X152525267Y-100428619D02*
X152430029Y-100571476D01*
X152430029Y-100571476D02*
X152334791Y-100666714D01*
X152334791Y-100666714D02*
X152239553Y-100714333D01*
X153668124Y-100761952D02*
X153668124Y-101428619D01*
X153430029Y-100381000D02*
X153191934Y-101095285D01*
X153191934Y-101095285D02*
X153810981Y-101095285D01*
D12*
X170859903Y-139135619D02*
X170736094Y-139222286D01*
X170859903Y-139284191D02*
X170599903Y-139284191D01*
X170599903Y-139284191D02*
X170599903Y-139185143D01*
X170599903Y-139185143D02*
X170612284Y-139160381D01*
X170612284Y-139160381D02*
X170624665Y-139148000D01*
X170624665Y-139148000D02*
X170649427Y-139135619D01*
X170649427Y-139135619D02*
X170686570Y-139135619D01*
X170686570Y-139135619D02*
X170711332Y-139148000D01*
X170711332Y-139148000D02*
X170723713Y-139160381D01*
X170723713Y-139160381D02*
X170736094Y-139185143D01*
X170736094Y-139185143D02*
X170736094Y-139284191D01*
X170859903Y-138888000D02*
X170859903Y-139036572D01*
X170859903Y-138962286D02*
X170599903Y-138962286D01*
X170599903Y-138962286D02*
X170637046Y-138987048D01*
X170637046Y-138987048D02*
X170661808Y-139011810D01*
X170661808Y-139011810D02*
X170674189Y-139036572D01*
X170711332Y-138739429D02*
X170698951Y-138764191D01*
X170698951Y-138764191D02*
X170686570Y-138776572D01*
X170686570Y-138776572D02*
X170661808Y-138788953D01*
X170661808Y-138788953D02*
X170649427Y-138788953D01*
X170649427Y-138788953D02*
X170624665Y-138776572D01*
X170624665Y-138776572D02*
X170612284Y-138764191D01*
X170612284Y-138764191D02*
X170599903Y-138739429D01*
X170599903Y-138739429D02*
X170599903Y-138689905D01*
X170599903Y-138689905D02*
X170612284Y-138665143D01*
X170612284Y-138665143D02*
X170624665Y-138652762D01*
X170624665Y-138652762D02*
X170649427Y-138640381D01*
X170649427Y-138640381D02*
X170661808Y-138640381D01*
X170661808Y-138640381D02*
X170686570Y-138652762D01*
X170686570Y-138652762D02*
X170698951Y-138665143D01*
X170698951Y-138665143D02*
X170711332Y-138689905D01*
X170711332Y-138689905D02*
X170711332Y-138739429D01*
X170711332Y-138739429D02*
X170723713Y-138764191D01*
X170723713Y-138764191D02*
X170736094Y-138776572D01*
X170736094Y-138776572D02*
X170760856Y-138788953D01*
X170760856Y-138788953D02*
X170810380Y-138788953D01*
X170810380Y-138788953D02*
X170835142Y-138776572D01*
X170835142Y-138776572D02*
X170847523Y-138764191D01*
X170847523Y-138764191D02*
X170859903Y-138739429D01*
X170859903Y-138739429D02*
X170859903Y-138689905D01*
X170859903Y-138689905D02*
X170847523Y-138665143D01*
X170847523Y-138665143D02*
X170835142Y-138652762D01*
X170835142Y-138652762D02*
X170810380Y-138640381D01*
X170810380Y-138640381D02*
X170760856Y-138640381D01*
X170760856Y-138640381D02*
X170736094Y-138652762D01*
X170736094Y-138652762D02*
X170723713Y-138665143D01*
X170723713Y-138665143D02*
X170711332Y-138689905D01*
D11*
X140343444Y-103646495D02*
X140914872Y-103646495D01*
X140629158Y-104646495D02*
X140629158Y-103646495D01*
X141248206Y-104646495D02*
X141248206Y-103646495D01*
X141248206Y-103646495D02*
X141629158Y-103646495D01*
X141629158Y-103646495D02*
X141724396Y-103694114D01*
X141724396Y-103694114D02*
X141772015Y-103741733D01*
X141772015Y-103741733D02*
X141819634Y-103836971D01*
X141819634Y-103836971D02*
X141819634Y-103979828D01*
X141819634Y-103979828D02*
X141772015Y-104075066D01*
X141772015Y-104075066D02*
X141724396Y-104122685D01*
X141724396Y-104122685D02*
X141629158Y-104170304D01*
X141629158Y-104170304D02*
X141248206Y-104170304D01*
X142772015Y-104646495D02*
X142200587Y-104646495D01*
X142486301Y-104646495D02*
X142486301Y-103646495D01*
X142486301Y-103646495D02*
X142391063Y-103789352D01*
X142391063Y-103789352D02*
X142295825Y-103884590D01*
X142295825Y-103884590D02*
X142200587Y-103932209D01*
X143105349Y-103646495D02*
X143724396Y-103646495D01*
X143724396Y-103646495D02*
X143391063Y-104027447D01*
X143391063Y-104027447D02*
X143533920Y-104027447D01*
X143533920Y-104027447D02*
X143629158Y-104075066D01*
X143629158Y-104075066D02*
X143676777Y-104122685D01*
X143676777Y-104122685D02*
X143724396Y-104217923D01*
X143724396Y-104217923D02*
X143724396Y-104456018D01*
X143724396Y-104456018D02*
X143676777Y-104551256D01*
X143676777Y-104551256D02*
X143629158Y-104598876D01*
X143629158Y-104598876D02*
X143533920Y-104646495D01*
X143533920Y-104646495D02*
X143248206Y-104646495D01*
X143248206Y-104646495D02*
X143152968Y-104598876D01*
X143152968Y-104598876D02*
X143105349Y-104551256D01*
X115333489Y-124562903D02*
X115333489Y-125356237D01*
X115333489Y-125356237D02*
X115380156Y-125449570D01*
X115380156Y-125449570D02*
X115426822Y-125496237D01*
X115426822Y-125496237D02*
X115520156Y-125542903D01*
X115520156Y-125542903D02*
X115706822Y-125542903D01*
X115706822Y-125542903D02*
X115800156Y-125496237D01*
X115800156Y-125496237D02*
X115846822Y-125449570D01*
X115846822Y-125449570D02*
X115893489Y-125356237D01*
X115893489Y-125356237D02*
X115893489Y-124562903D01*
X116500156Y-124982903D02*
X116406823Y-124936237D01*
X116406823Y-124936237D02*
X116360156Y-124889570D01*
X116360156Y-124889570D02*
X116313489Y-124796237D01*
X116313489Y-124796237D02*
X116313489Y-124749570D01*
X116313489Y-124749570D02*
X116360156Y-124656237D01*
X116360156Y-124656237D02*
X116406823Y-124609570D01*
X116406823Y-124609570D02*
X116500156Y-124562903D01*
X116500156Y-124562903D02*
X116686823Y-124562903D01*
X116686823Y-124562903D02*
X116780156Y-124609570D01*
X116780156Y-124609570D02*
X116826823Y-124656237D01*
X116826823Y-124656237D02*
X116873489Y-124749570D01*
X116873489Y-124749570D02*
X116873489Y-124796237D01*
X116873489Y-124796237D02*
X116826823Y-124889570D01*
X116826823Y-124889570D02*
X116780156Y-124936237D01*
X116780156Y-124936237D02*
X116686823Y-124982903D01*
X116686823Y-124982903D02*
X116500156Y-124982903D01*
X116500156Y-124982903D02*
X116406823Y-125029570D01*
X116406823Y-125029570D02*
X116360156Y-125076237D01*
X116360156Y-125076237D02*
X116313489Y-125169570D01*
X116313489Y-125169570D02*
X116313489Y-125356237D01*
X116313489Y-125356237D02*
X116360156Y-125449570D01*
X116360156Y-125449570D02*
X116406823Y-125496237D01*
X116406823Y-125496237D02*
X116500156Y-125542903D01*
X116500156Y-125542903D02*
X116686823Y-125542903D01*
X116686823Y-125542903D02*
X116780156Y-125496237D01*
X116780156Y-125496237D02*
X116826823Y-125449570D01*
X116826823Y-125449570D02*
X116873489Y-125356237D01*
X116873489Y-125356237D02*
X116873489Y-125169570D01*
X116873489Y-125169570D02*
X116826823Y-125076237D01*
X116826823Y-125076237D02*
X116780156Y-125029570D01*
X116780156Y-125029570D02*
X116686823Y-124982903D01*
D13*
X95464409Y-131137533D02*
X95483457Y-131156581D01*
X95483457Y-131156581D02*
X95502504Y-131213723D01*
X95502504Y-131213723D02*
X95502504Y-131251819D01*
X95502504Y-131251819D02*
X95483457Y-131308962D01*
X95483457Y-131308962D02*
X95445361Y-131347057D01*
X95445361Y-131347057D02*
X95407266Y-131366104D01*
X95407266Y-131366104D02*
X95331076Y-131385152D01*
X95331076Y-131385152D02*
X95273933Y-131385152D01*
X95273933Y-131385152D02*
X95197742Y-131366104D01*
X95197742Y-131366104D02*
X95159647Y-131347057D01*
X95159647Y-131347057D02*
X95121552Y-131308962D01*
X95121552Y-131308962D02*
X95102504Y-131251819D01*
X95102504Y-131251819D02*
X95102504Y-131213723D01*
X95102504Y-131213723D02*
X95121552Y-131156581D01*
X95121552Y-131156581D02*
X95140599Y-131137533D01*
X95502504Y-130756581D02*
X95502504Y-130985152D01*
X95502504Y-130870866D02*
X95102504Y-130870866D01*
X95102504Y-130870866D02*
X95159647Y-130908962D01*
X95159647Y-130908962D02*
X95197742Y-130947057D01*
X95197742Y-130947057D02*
X95216790Y-130985152D01*
X95102504Y-130508962D02*
X95102504Y-130470867D01*
X95102504Y-130470867D02*
X95121552Y-130432771D01*
X95121552Y-130432771D02*
X95140599Y-130413724D01*
X95140599Y-130413724D02*
X95178695Y-130394676D01*
X95178695Y-130394676D02*
X95254885Y-130375629D01*
X95254885Y-130375629D02*
X95350123Y-130375629D01*
X95350123Y-130375629D02*
X95426314Y-130394676D01*
X95426314Y-130394676D02*
X95464409Y-130413724D01*
X95464409Y-130413724D02*
X95483457Y-130432771D01*
X95483457Y-130432771D02*
X95502504Y-130470867D01*
X95502504Y-130470867D02*
X95502504Y-130508962D01*
X95502504Y-130508962D02*
X95483457Y-130547057D01*
X95483457Y-130547057D02*
X95464409Y-130566105D01*
X95464409Y-130566105D02*
X95426314Y-130585152D01*
X95426314Y-130585152D02*
X95350123Y-130604200D01*
X95350123Y-130604200D02*
X95254885Y-130604200D01*
X95254885Y-130604200D02*
X95178695Y-130585152D01*
X95178695Y-130585152D02*
X95140599Y-130566105D01*
X95140599Y-130566105D02*
X95121552Y-130547057D01*
X95121552Y-130547057D02*
X95102504Y-130508962D01*
D11*
X114862619Y-116283333D02*
X115576904Y-116283333D01*
X115576904Y-116283333D02*
X115719761Y-116330952D01*
X115719761Y-116330952D02*
X115815000Y-116426190D01*
X115815000Y-116426190D02*
X115862619Y-116569047D01*
X115862619Y-116569047D02*
X115862619Y-116664285D01*
X115195952Y-115378571D02*
X115862619Y-115378571D01*
X114815000Y-115616666D02*
X115529285Y-115854761D01*
X115529285Y-115854761D02*
X115529285Y-115235714D01*
D12*
X131912857Y-121251698D02*
X131826190Y-121127889D01*
X131764285Y-121251698D02*
X131764285Y-120991698D01*
X131764285Y-120991698D02*
X131863333Y-120991698D01*
X131863333Y-120991698D02*
X131888095Y-121004079D01*
X131888095Y-121004079D02*
X131900476Y-121016460D01*
X131900476Y-121016460D02*
X131912857Y-121041222D01*
X131912857Y-121041222D02*
X131912857Y-121078365D01*
X131912857Y-121078365D02*
X131900476Y-121103127D01*
X131900476Y-121103127D02*
X131888095Y-121115508D01*
X131888095Y-121115508D02*
X131863333Y-121127889D01*
X131863333Y-121127889D02*
X131764285Y-121127889D01*
X132011904Y-121016460D02*
X132024285Y-121004079D01*
X132024285Y-121004079D02*
X132049047Y-120991698D01*
X132049047Y-120991698D02*
X132110952Y-120991698D01*
X132110952Y-120991698D02*
X132135714Y-121004079D01*
X132135714Y-121004079D02*
X132148095Y-121016460D01*
X132148095Y-121016460D02*
X132160476Y-121041222D01*
X132160476Y-121041222D02*
X132160476Y-121065984D01*
X132160476Y-121065984D02*
X132148095Y-121103127D01*
X132148095Y-121103127D02*
X131999523Y-121251698D01*
X131999523Y-121251698D02*
X132160476Y-121251698D01*
X132259523Y-121016460D02*
X132271904Y-121004079D01*
X132271904Y-121004079D02*
X132296666Y-120991698D01*
X132296666Y-120991698D02*
X132358571Y-120991698D01*
X132358571Y-120991698D02*
X132383333Y-121004079D01*
X132383333Y-121004079D02*
X132395714Y-121016460D01*
X132395714Y-121016460D02*
X132408095Y-121041222D01*
X132408095Y-121041222D02*
X132408095Y-121065984D01*
X132408095Y-121065984D02*
X132395714Y-121103127D01*
X132395714Y-121103127D02*
X132247142Y-121251698D01*
X132247142Y-121251698D02*
X132408095Y-121251698D01*
D13*
X162192861Y-150845709D02*
X162173813Y-150864757D01*
X162173813Y-150864757D02*
X162116671Y-150883804D01*
X162116671Y-150883804D02*
X162078575Y-150883804D01*
X162078575Y-150883804D02*
X162021432Y-150864757D01*
X162021432Y-150864757D02*
X161983337Y-150826661D01*
X161983337Y-150826661D02*
X161964290Y-150788566D01*
X161964290Y-150788566D02*
X161945242Y-150712376D01*
X161945242Y-150712376D02*
X161945242Y-150655233D01*
X161945242Y-150655233D02*
X161964290Y-150579042D01*
X161964290Y-150579042D02*
X161983337Y-150540947D01*
X161983337Y-150540947D02*
X162021432Y-150502852D01*
X162021432Y-150502852D02*
X162078575Y-150483804D01*
X162078575Y-150483804D02*
X162116671Y-150483804D01*
X162116671Y-150483804D02*
X162173813Y-150502852D01*
X162173813Y-150502852D02*
X162192861Y-150521899D01*
X162573813Y-150883804D02*
X162345242Y-150883804D01*
X162459528Y-150883804D02*
X162459528Y-150483804D01*
X162459528Y-150483804D02*
X162421432Y-150540947D01*
X162421432Y-150540947D02*
X162383337Y-150579042D01*
X162383337Y-150579042D02*
X162345242Y-150598090D01*
X162726194Y-150521899D02*
X162745242Y-150502852D01*
X162745242Y-150502852D02*
X162783337Y-150483804D01*
X162783337Y-150483804D02*
X162878575Y-150483804D01*
X162878575Y-150483804D02*
X162916670Y-150502852D01*
X162916670Y-150502852D02*
X162935718Y-150521899D01*
X162935718Y-150521899D02*
X162954765Y-150559995D01*
X162954765Y-150559995D02*
X162954765Y-150598090D01*
X162954765Y-150598090D02*
X162935718Y-150655233D01*
X162935718Y-150655233D02*
X162707146Y-150883804D01*
X162707146Y-150883804D02*
X162954765Y-150883804D01*
D11*
X88226333Y-128951219D02*
X87750143Y-128951219D01*
X87750143Y-128951219D02*
X87750143Y-127951219D01*
X88464429Y-127951219D02*
X89131095Y-127951219D01*
X89131095Y-127951219D02*
X88702524Y-128951219D01*
D14*
X136603047Y-111010666D02*
X136603047Y-111277332D01*
X137022095Y-111277332D02*
X136222095Y-111277332D01*
X136222095Y-111277332D02*
X136222095Y-110896380D01*
X136222095Y-110667809D02*
X136222095Y-110172571D01*
X136222095Y-110172571D02*
X136526857Y-110439237D01*
X136526857Y-110439237D02*
X136526857Y-110324952D01*
X136526857Y-110324952D02*
X136564952Y-110248761D01*
X136564952Y-110248761D02*
X136603047Y-110210666D01*
X136603047Y-110210666D02*
X136679238Y-110172571D01*
X136679238Y-110172571D02*
X136869714Y-110172571D01*
X136869714Y-110172571D02*
X136945904Y-110210666D01*
X136945904Y-110210666D02*
X136984000Y-110248761D01*
X136984000Y-110248761D02*
X137022095Y-110324952D01*
X137022095Y-110324952D02*
X137022095Y-110553523D01*
X137022095Y-110553523D02*
X136984000Y-110629714D01*
X136984000Y-110629714D02*
X136945904Y-110667809D01*
D15*
X164532487Y-118797869D02*
X164517249Y-118828345D01*
X164517249Y-118828345D02*
X164486773Y-118858821D01*
X164486773Y-118858821D02*
X164441058Y-118904535D01*
X164441058Y-118904535D02*
X164425820Y-118935012D01*
X164425820Y-118935012D02*
X164425820Y-118965488D01*
X164502011Y-118950250D02*
X164486773Y-118980726D01*
X164486773Y-118980726D02*
X164456296Y-119011202D01*
X164456296Y-119011202D02*
X164395344Y-119026440D01*
X164395344Y-119026440D02*
X164288677Y-119026440D01*
X164288677Y-119026440D02*
X164227725Y-119011202D01*
X164227725Y-119011202D02*
X164197249Y-118980726D01*
X164197249Y-118980726D02*
X164182011Y-118950250D01*
X164182011Y-118950250D02*
X164182011Y-118889297D01*
X164182011Y-118889297D02*
X164197249Y-118858821D01*
X164197249Y-118858821D02*
X164227725Y-118828345D01*
X164227725Y-118828345D02*
X164288677Y-118813107D01*
X164288677Y-118813107D02*
X164395344Y-118813107D01*
X164395344Y-118813107D02*
X164456296Y-118828345D01*
X164456296Y-118828345D02*
X164486773Y-118858821D01*
X164486773Y-118858821D02*
X164502011Y-118889297D01*
X164502011Y-118889297D02*
X164502011Y-118950250D01*
X164182011Y-118706440D02*
X164182011Y-118508345D01*
X164182011Y-118508345D02*
X164303915Y-118615012D01*
X164303915Y-118615012D02*
X164303915Y-118569297D01*
X164303915Y-118569297D02*
X164319153Y-118538821D01*
X164319153Y-118538821D02*
X164334392Y-118523583D01*
X164334392Y-118523583D02*
X164364868Y-118508345D01*
X164364868Y-118508345D02*
X164441058Y-118508345D01*
X164441058Y-118508345D02*
X164471534Y-118523583D01*
X164471534Y-118523583D02*
X164486773Y-118538821D01*
X164486773Y-118538821D02*
X164502011Y-118569297D01*
X164502011Y-118569297D02*
X164502011Y-118660726D01*
X164502011Y-118660726D02*
X164486773Y-118691202D01*
X164486773Y-118691202D02*
X164471534Y-118706440D01*
D12*
X154347298Y-108190920D02*
X154335394Y-108202825D01*
X154335394Y-108202825D02*
X154299679Y-108214729D01*
X154299679Y-108214729D02*
X154275870Y-108214729D01*
X154275870Y-108214729D02*
X154240156Y-108202825D01*
X154240156Y-108202825D02*
X154216346Y-108179015D01*
X154216346Y-108179015D02*
X154204441Y-108155205D01*
X154204441Y-108155205D02*
X154192537Y-108107586D01*
X154192537Y-108107586D02*
X154192537Y-108071872D01*
X154192537Y-108071872D02*
X154204441Y-108024253D01*
X154204441Y-108024253D02*
X154216346Y-108000444D01*
X154216346Y-108000444D02*
X154240156Y-107976634D01*
X154240156Y-107976634D02*
X154275870Y-107964729D01*
X154275870Y-107964729D02*
X154299679Y-107964729D01*
X154299679Y-107964729D02*
X154335394Y-107976634D01*
X154335394Y-107976634D02*
X154347298Y-107988539D01*
X154585394Y-108214729D02*
X154442537Y-108214729D01*
X154513965Y-108214729D02*
X154513965Y-107964729D01*
X154513965Y-107964729D02*
X154490156Y-108000444D01*
X154490156Y-108000444D02*
X154466346Y-108024253D01*
X154466346Y-108024253D02*
X154442537Y-108036158D01*
D11*
X177786095Y-140432119D02*
X178357523Y-140432119D01*
X178071809Y-141432119D02*
X178071809Y-140432119D01*
X179214666Y-141432119D02*
X178643238Y-141432119D01*
X178928952Y-141432119D02*
X178928952Y-140432119D01*
X178928952Y-140432119D02*
X178833714Y-140574976D01*
X178833714Y-140574976D02*
X178738476Y-140670214D01*
X178738476Y-140670214D02*
X178643238Y-140717833D01*
X137762619Y-124061904D02*
X138572142Y-124061904D01*
X138572142Y-124061904D02*
X138667380Y-124014285D01*
X138667380Y-124014285D02*
X138715000Y-123966666D01*
X138715000Y-123966666D02*
X138762619Y-123871428D01*
X138762619Y-123871428D02*
X138762619Y-123680952D01*
X138762619Y-123680952D02*
X138715000Y-123585714D01*
X138715000Y-123585714D02*
X138667380Y-123538095D01*
X138667380Y-123538095D02*
X138572142Y-123490476D01*
X138572142Y-123490476D02*
X137762619Y-123490476D01*
X137762619Y-122585714D02*
X137762619Y-122776190D01*
X137762619Y-122776190D02*
X137810238Y-122871428D01*
X137810238Y-122871428D02*
X137857857Y-122919047D01*
X137857857Y-122919047D02*
X138000714Y-123014285D01*
X138000714Y-123014285D02*
X138191190Y-123061904D01*
X138191190Y-123061904D02*
X138572142Y-123061904D01*
X138572142Y-123061904D02*
X138667380Y-123014285D01*
X138667380Y-123014285D02*
X138715000Y-122966666D01*
X138715000Y-122966666D02*
X138762619Y-122871428D01*
X138762619Y-122871428D02*
X138762619Y-122680952D01*
X138762619Y-122680952D02*
X138715000Y-122585714D01*
X138715000Y-122585714D02*
X138667380Y-122538095D01*
X138667380Y-122538095D02*
X138572142Y-122490476D01*
X138572142Y-122490476D02*
X138334047Y-122490476D01*
X138334047Y-122490476D02*
X138238809Y-122538095D01*
X138238809Y-122538095D02*
X138191190Y-122585714D01*
X138191190Y-122585714D02*
X138143571Y-122680952D01*
X138143571Y-122680952D02*
X138143571Y-122871428D01*
X138143571Y-122871428D02*
X138191190Y-122966666D01*
X138191190Y-122966666D02*
X138238809Y-123014285D01*
X138238809Y-123014285D02*
X138334047Y-123061904D01*
X106226333Y-115951219D02*
X105750143Y-115951219D01*
X105750143Y-115951219D02*
X105750143Y-114951219D01*
X107035857Y-114951219D02*
X106559667Y-114951219D01*
X106559667Y-114951219D02*
X106512048Y-115427409D01*
X106512048Y-115427409D02*
X106559667Y-115379790D01*
X106559667Y-115379790D02*
X106654905Y-115332171D01*
X106654905Y-115332171D02*
X106893000Y-115332171D01*
X106893000Y-115332171D02*
X106988238Y-115379790D01*
X106988238Y-115379790D02*
X107035857Y-115427409D01*
X107035857Y-115427409D02*
X107083476Y-115522647D01*
X107083476Y-115522647D02*
X107083476Y-115760742D01*
X107083476Y-115760742D02*
X107035857Y-115855980D01*
X107035857Y-115855980D02*
X106988238Y-115903600D01*
X106988238Y-115903600D02*
X106893000Y-115951219D01*
X106893000Y-115951219D02*
X106654905Y-115951219D01*
X106654905Y-115951219D02*
X106559667Y-115903600D01*
X106559667Y-115903600D02*
X106512048Y-115855980D01*
D12*
X143211845Y-126860714D02*
X143223750Y-126872618D01*
X143223750Y-126872618D02*
X143235654Y-126908333D01*
X143235654Y-126908333D02*
X143235654Y-126932142D01*
X143235654Y-126932142D02*
X143223750Y-126967856D01*
X143223750Y-126967856D02*
X143199940Y-126991666D01*
X143199940Y-126991666D02*
X143176130Y-127003571D01*
X143176130Y-127003571D02*
X143128511Y-127015475D01*
X143128511Y-127015475D02*
X143092797Y-127015475D01*
X143092797Y-127015475D02*
X143045178Y-127003571D01*
X143045178Y-127003571D02*
X143021369Y-126991666D01*
X143021369Y-126991666D02*
X142997559Y-126967856D01*
X142997559Y-126967856D02*
X142985654Y-126932142D01*
X142985654Y-126932142D02*
X142985654Y-126908333D01*
X142985654Y-126908333D02*
X142997559Y-126872618D01*
X142997559Y-126872618D02*
X143009464Y-126860714D01*
X143235654Y-126622618D02*
X143235654Y-126765475D01*
X143235654Y-126694047D02*
X142985654Y-126694047D01*
X142985654Y-126694047D02*
X143021369Y-126717856D01*
X143021369Y-126717856D02*
X143045178Y-126741666D01*
X143045178Y-126741666D02*
X143057083Y-126765475D01*
X143235654Y-126503571D02*
X143235654Y-126455952D01*
X143235654Y-126455952D02*
X143223750Y-126432142D01*
X143223750Y-126432142D02*
X143211845Y-126420238D01*
X143211845Y-126420238D02*
X143176130Y-126396428D01*
X143176130Y-126396428D02*
X143128511Y-126384523D01*
X143128511Y-126384523D02*
X143033273Y-126384523D01*
X143033273Y-126384523D02*
X143009464Y-126396428D01*
X143009464Y-126396428D02*
X142997559Y-126408333D01*
X142997559Y-126408333D02*
X142985654Y-126432142D01*
X142985654Y-126432142D02*
X142985654Y-126479761D01*
X142985654Y-126479761D02*
X142997559Y-126503571D01*
X142997559Y-126503571D02*
X143009464Y-126515476D01*
X143009464Y-126515476D02*
X143033273Y-126527380D01*
X143033273Y-126527380D02*
X143092797Y-126527380D01*
X143092797Y-126527380D02*
X143116607Y-126515476D01*
X143116607Y-126515476D02*
X143128511Y-126503571D01*
X143128511Y-126503571D02*
X143140416Y-126479761D01*
X143140416Y-126479761D02*
X143140416Y-126432142D01*
X143140416Y-126432142D02*
X143128511Y-126408333D01*
X143128511Y-126408333D02*
X143116607Y-126396428D01*
X143116607Y-126396428D02*
X143092797Y-126384523D01*
D11*
X131140623Y-112537081D02*
X131140623Y-111537081D01*
X131140623Y-111537081D02*
X131378718Y-111537081D01*
X131378718Y-111537081D02*
X131521575Y-111584700D01*
X131521575Y-111584700D02*
X131616813Y-111679938D01*
X131616813Y-111679938D02*
X131664432Y-111775176D01*
X131664432Y-111775176D02*
X131712051Y-111965652D01*
X131712051Y-111965652D02*
X131712051Y-112108509D01*
X131712051Y-112108509D02*
X131664432Y-112298985D01*
X131664432Y-112298985D02*
X131616813Y-112394223D01*
X131616813Y-112394223D02*
X131521575Y-112489462D01*
X131521575Y-112489462D02*
X131378718Y-112537081D01*
X131378718Y-112537081D02*
X131140623Y-112537081D01*
X132569194Y-111870414D02*
X132569194Y-112537081D01*
X132331099Y-111489462D02*
X132093004Y-112203747D01*
X132093004Y-112203747D02*
X132712051Y-112203747D01*
D14*
X118117047Y-119502166D02*
X118117047Y-119768832D01*
X118536095Y-119768832D02*
X117736095Y-119768832D01*
X117736095Y-119768832D02*
X117736095Y-119387880D01*
X117812285Y-119121214D02*
X117774190Y-119083118D01*
X117774190Y-119083118D02*
X117736095Y-119006928D01*
X117736095Y-119006928D02*
X117736095Y-118816452D01*
X117736095Y-118816452D02*
X117774190Y-118740261D01*
X117774190Y-118740261D02*
X117812285Y-118702166D01*
X117812285Y-118702166D02*
X117888476Y-118664071D01*
X117888476Y-118664071D02*
X117964666Y-118664071D01*
X117964666Y-118664071D02*
X118078952Y-118702166D01*
X118078952Y-118702166D02*
X118536095Y-119159309D01*
X118536095Y-119159309D02*
X118536095Y-118664071D01*
D11*
X83661667Y-135357619D02*
X84280714Y-135357619D01*
X84280714Y-135357619D02*
X83947381Y-135738571D01*
X83947381Y-135738571D02*
X84090238Y-135738571D01*
X84090238Y-135738571D02*
X84185476Y-135786190D01*
X84185476Y-135786190D02*
X84233095Y-135833809D01*
X84233095Y-135833809D02*
X84280714Y-135929047D01*
X84280714Y-135929047D02*
X84280714Y-136167142D01*
X84280714Y-136167142D02*
X84233095Y-136262380D01*
X84233095Y-136262380D02*
X84185476Y-136310000D01*
X84185476Y-136310000D02*
X84090238Y-136357619D01*
X84090238Y-136357619D02*
X83804524Y-136357619D01*
X83804524Y-136357619D02*
X83709286Y-136310000D01*
X83709286Y-136310000D02*
X83661667Y-136262380D01*
X85137857Y-135357619D02*
X84947381Y-135357619D01*
X84947381Y-135357619D02*
X84852143Y-135405238D01*
X84852143Y-135405238D02*
X84804524Y-135452857D01*
X84804524Y-135452857D02*
X84709286Y-135595714D01*
X84709286Y-135595714D02*
X84661667Y-135786190D01*
X84661667Y-135786190D02*
X84661667Y-136167142D01*
X84661667Y-136167142D02*
X84709286Y-136262380D01*
X84709286Y-136262380D02*
X84756905Y-136310000D01*
X84756905Y-136310000D02*
X84852143Y-136357619D01*
X84852143Y-136357619D02*
X85042619Y-136357619D01*
X85042619Y-136357619D02*
X85137857Y-136310000D01*
X85137857Y-136310000D02*
X85185476Y-136262380D01*
X85185476Y-136262380D02*
X85233095Y-136167142D01*
X85233095Y-136167142D02*
X85233095Y-135929047D01*
X85233095Y-135929047D02*
X85185476Y-135833809D01*
X85185476Y-135833809D02*
X85137857Y-135786190D01*
X85137857Y-135786190D02*
X85042619Y-135738571D01*
X85042619Y-135738571D02*
X84852143Y-135738571D01*
X84852143Y-135738571D02*
X84756905Y-135786190D01*
X84756905Y-135786190D02*
X84709286Y-135833809D01*
X84709286Y-135833809D02*
X84661667Y-135929047D01*
X85661667Y-135976666D02*
X86423572Y-135976666D01*
X87042619Y-135786190D02*
X86947381Y-135738571D01*
X86947381Y-135738571D02*
X86899762Y-135690952D01*
X86899762Y-135690952D02*
X86852143Y-135595714D01*
X86852143Y-135595714D02*
X86852143Y-135548095D01*
X86852143Y-135548095D02*
X86899762Y-135452857D01*
X86899762Y-135452857D02*
X86947381Y-135405238D01*
X86947381Y-135405238D02*
X87042619Y-135357619D01*
X87042619Y-135357619D02*
X87233095Y-135357619D01*
X87233095Y-135357619D02*
X87328333Y-135405238D01*
X87328333Y-135405238D02*
X87375952Y-135452857D01*
X87375952Y-135452857D02*
X87423571Y-135548095D01*
X87423571Y-135548095D02*
X87423571Y-135595714D01*
X87423571Y-135595714D02*
X87375952Y-135690952D01*
X87375952Y-135690952D02*
X87328333Y-135738571D01*
X87328333Y-135738571D02*
X87233095Y-135786190D01*
X87233095Y-135786190D02*
X87042619Y-135786190D01*
X87042619Y-135786190D02*
X86947381Y-135833809D01*
X86947381Y-135833809D02*
X86899762Y-135881428D01*
X86899762Y-135881428D02*
X86852143Y-135976666D01*
X86852143Y-135976666D02*
X86852143Y-136167142D01*
X86852143Y-136167142D02*
X86899762Y-136262380D01*
X86899762Y-136262380D02*
X86947381Y-136310000D01*
X86947381Y-136310000D02*
X87042619Y-136357619D01*
X87042619Y-136357619D02*
X87233095Y-136357619D01*
X87233095Y-136357619D02*
X87328333Y-136310000D01*
X87328333Y-136310000D02*
X87375952Y-136262380D01*
X87375952Y-136262380D02*
X87423571Y-136167142D01*
X87423571Y-136167142D02*
X87423571Y-135976666D01*
X87423571Y-135976666D02*
X87375952Y-135881428D01*
X87375952Y-135881428D02*
X87328333Y-135833809D01*
X87328333Y-135833809D02*
X87233095Y-135786190D01*
X87756905Y-135357619D02*
X88423571Y-135357619D01*
X88423571Y-135357619D02*
X87995000Y-136357619D01*
X88709286Y-135357619D02*
X89328333Y-135357619D01*
X89328333Y-135357619D02*
X88995000Y-135738571D01*
X88995000Y-135738571D02*
X89137857Y-135738571D01*
X89137857Y-135738571D02*
X89233095Y-135786190D01*
X89233095Y-135786190D02*
X89280714Y-135833809D01*
X89280714Y-135833809D02*
X89328333Y-135929047D01*
X89328333Y-135929047D02*
X89328333Y-136167142D01*
X89328333Y-136167142D02*
X89280714Y-136262380D01*
X89280714Y-136262380D02*
X89233095Y-136310000D01*
X89233095Y-136310000D02*
X89137857Y-136357619D01*
X89137857Y-136357619D02*
X88852143Y-136357619D01*
X88852143Y-136357619D02*
X88756905Y-136310000D01*
X88756905Y-136310000D02*
X88709286Y-136262380D01*
X89947381Y-135357619D02*
X90042619Y-135357619D01*
X90042619Y-135357619D02*
X90137857Y-135405238D01*
X90137857Y-135405238D02*
X90185476Y-135452857D01*
X90185476Y-135452857D02*
X90233095Y-135548095D01*
X90233095Y-135548095D02*
X90280714Y-135738571D01*
X90280714Y-135738571D02*
X90280714Y-135976666D01*
X90280714Y-135976666D02*
X90233095Y-136167142D01*
X90233095Y-136167142D02*
X90185476Y-136262380D01*
X90185476Y-136262380D02*
X90137857Y-136310000D01*
X90137857Y-136310000D02*
X90042619Y-136357619D01*
X90042619Y-136357619D02*
X89947381Y-136357619D01*
X89947381Y-136357619D02*
X89852143Y-136310000D01*
X89852143Y-136310000D02*
X89804524Y-136262380D01*
X89804524Y-136262380D02*
X89756905Y-136167142D01*
X89756905Y-136167142D02*
X89709286Y-135976666D01*
X89709286Y-135976666D02*
X89709286Y-135738571D01*
X89709286Y-135738571D02*
X89756905Y-135548095D01*
X89756905Y-135548095D02*
X89804524Y-135452857D01*
X89804524Y-135452857D02*
X89852143Y-135405238D01*
X89852143Y-135405238D02*
X89947381Y-135357619D01*
X122112619Y-121788094D02*
X121112619Y-121788094D01*
X121112619Y-121788094D02*
X121112619Y-121549999D01*
X121112619Y-121549999D02*
X121160238Y-121407142D01*
X121160238Y-121407142D02*
X121255476Y-121311904D01*
X121255476Y-121311904D02*
X121350714Y-121264285D01*
X121350714Y-121264285D02*
X121541190Y-121216666D01*
X121541190Y-121216666D02*
X121684047Y-121216666D01*
X121684047Y-121216666D02*
X121874523Y-121264285D01*
X121874523Y-121264285D02*
X121969761Y-121311904D01*
X121969761Y-121311904D02*
X122065000Y-121407142D01*
X122065000Y-121407142D02*
X122112619Y-121549999D01*
X122112619Y-121549999D02*
X122112619Y-121788094D01*
X121207857Y-120835713D02*
X121160238Y-120788094D01*
X121160238Y-120788094D02*
X121112619Y-120692856D01*
X121112619Y-120692856D02*
X121112619Y-120454761D01*
X121112619Y-120454761D02*
X121160238Y-120359523D01*
X121160238Y-120359523D02*
X121207857Y-120311904D01*
X121207857Y-120311904D02*
X121303095Y-120264285D01*
X121303095Y-120264285D02*
X121398333Y-120264285D01*
X121398333Y-120264285D02*
X121541190Y-120311904D01*
X121541190Y-120311904D02*
X122112619Y-120883332D01*
X122112619Y-120883332D02*
X122112619Y-120264285D01*
D12*
X132720897Y-123891785D02*
X132708993Y-123903690D01*
X132708993Y-123903690D02*
X132673278Y-123915594D01*
X132673278Y-123915594D02*
X132649469Y-123915594D01*
X132649469Y-123915594D02*
X132613755Y-123903690D01*
X132613755Y-123903690D02*
X132589945Y-123879880D01*
X132589945Y-123879880D02*
X132578040Y-123856070D01*
X132578040Y-123856070D02*
X132566136Y-123808451D01*
X132566136Y-123808451D02*
X132566136Y-123772737D01*
X132566136Y-123772737D02*
X132578040Y-123725118D01*
X132578040Y-123725118D02*
X132589945Y-123701309D01*
X132589945Y-123701309D02*
X132613755Y-123677499D01*
X132613755Y-123677499D02*
X132649469Y-123665594D01*
X132649469Y-123665594D02*
X132673278Y-123665594D01*
X132673278Y-123665594D02*
X132708993Y-123677499D01*
X132708993Y-123677499D02*
X132720897Y-123689404D01*
X132958993Y-123915594D02*
X132816136Y-123915594D01*
X132887564Y-123915594D02*
X132887564Y-123665594D01*
X132887564Y-123665594D02*
X132863755Y-123701309D01*
X132863755Y-123701309D02*
X132839945Y-123725118D01*
X132839945Y-123725118D02*
X132816136Y-123737023D01*
X133042326Y-123665594D02*
X133208992Y-123665594D01*
X133208992Y-123665594D02*
X133101850Y-123915594D01*
X161070878Y-119335810D02*
X160947069Y-119422477D01*
X161070878Y-119484382D02*
X160810878Y-119484382D01*
X160810878Y-119484382D02*
X160810878Y-119385334D01*
X160810878Y-119385334D02*
X160823259Y-119360572D01*
X160823259Y-119360572D02*
X160835640Y-119348191D01*
X160835640Y-119348191D02*
X160860402Y-119335810D01*
X160860402Y-119335810D02*
X160897545Y-119335810D01*
X160897545Y-119335810D02*
X160922307Y-119348191D01*
X160922307Y-119348191D02*
X160934688Y-119360572D01*
X160934688Y-119360572D02*
X160947069Y-119385334D01*
X160947069Y-119385334D02*
X160947069Y-119484382D01*
X160810878Y-119100572D02*
X160810878Y-119224382D01*
X160810878Y-119224382D02*
X160934688Y-119236763D01*
X160934688Y-119236763D02*
X160922307Y-119224382D01*
X160922307Y-119224382D02*
X160909926Y-119199620D01*
X160909926Y-119199620D02*
X160909926Y-119137715D01*
X160909926Y-119137715D02*
X160922307Y-119112953D01*
X160922307Y-119112953D02*
X160934688Y-119100572D01*
X160934688Y-119100572D02*
X160959450Y-119088191D01*
X160959450Y-119088191D02*
X161021355Y-119088191D01*
X161021355Y-119088191D02*
X161046117Y-119100572D01*
X161046117Y-119100572D02*
X161058498Y-119112953D01*
X161058498Y-119112953D02*
X161070878Y-119137715D01*
X161070878Y-119137715D02*
X161070878Y-119199620D01*
X161070878Y-119199620D02*
X161058498Y-119224382D01*
X161058498Y-119224382D02*
X161046117Y-119236763D01*
D11*
X125665379Y-142086770D02*
X125093951Y-142086770D01*
X125379665Y-142086770D02*
X125379665Y-141086770D01*
X125379665Y-141086770D02*
X125284427Y-141229627D01*
X125284427Y-141229627D02*
X125189189Y-141324865D01*
X125189189Y-141324865D02*
X125093951Y-141372484D01*
X126284427Y-141086770D02*
X126379665Y-141086770D01*
X126379665Y-141086770D02*
X126474903Y-141134389D01*
X126474903Y-141134389D02*
X126522522Y-141182008D01*
X126522522Y-141182008D02*
X126570141Y-141277246D01*
X126570141Y-141277246D02*
X126617760Y-141467722D01*
X126617760Y-141467722D02*
X126617760Y-141705817D01*
X126617760Y-141705817D02*
X126570141Y-141896293D01*
X126570141Y-141896293D02*
X126522522Y-141991531D01*
X126522522Y-141991531D02*
X126474903Y-142039151D01*
X126474903Y-142039151D02*
X126379665Y-142086770D01*
X126379665Y-142086770D02*
X126284427Y-142086770D01*
X126284427Y-142086770D02*
X126189189Y-142039151D01*
X126189189Y-142039151D02*
X126141570Y-141991531D01*
X126141570Y-141991531D02*
X126093951Y-141896293D01*
X126093951Y-141896293D02*
X126046332Y-141705817D01*
X126046332Y-141705817D02*
X126046332Y-141467722D01*
X126046332Y-141467722D02*
X126093951Y-141277246D01*
X126093951Y-141277246D02*
X126141570Y-141182008D01*
X126141570Y-141182008D02*
X126189189Y-141134389D01*
X126189189Y-141134389D02*
X126284427Y-141086770D01*
X127236808Y-141086770D02*
X127332046Y-141086770D01*
X127332046Y-141086770D02*
X127427284Y-141134389D01*
X127427284Y-141134389D02*
X127474903Y-141182008D01*
X127474903Y-141182008D02*
X127522522Y-141277246D01*
X127522522Y-141277246D02*
X127570141Y-141467722D01*
X127570141Y-141467722D02*
X127570141Y-141705817D01*
X127570141Y-141705817D02*
X127522522Y-141896293D01*
X127522522Y-141896293D02*
X127474903Y-141991531D01*
X127474903Y-141991531D02*
X127427284Y-142039151D01*
X127427284Y-142039151D02*
X127332046Y-142086770D01*
X127332046Y-142086770D02*
X127236808Y-142086770D01*
X127236808Y-142086770D02*
X127141570Y-142039151D01*
X127141570Y-142039151D02*
X127093951Y-141991531D01*
X127093951Y-141991531D02*
X127046332Y-141896293D01*
X127046332Y-141896293D02*
X126998713Y-141705817D01*
X126998713Y-141705817D02*
X126998713Y-141467722D01*
X126998713Y-141467722D02*
X127046332Y-141277246D01*
X127046332Y-141277246D02*
X127093951Y-141182008D01*
X127093951Y-141182008D02*
X127141570Y-141134389D01*
X127141570Y-141134389D02*
X127236808Y-141086770D01*
X127998713Y-141420103D02*
X127998713Y-142086770D01*
X127998713Y-141515341D02*
X128046332Y-141467722D01*
X128046332Y-141467722D02*
X128141570Y-141420103D01*
X128141570Y-141420103D02*
X128284427Y-141420103D01*
X128284427Y-141420103D02*
X128379665Y-141467722D01*
X128379665Y-141467722D02*
X128427284Y-141562960D01*
X128427284Y-141562960D02*
X128427284Y-142086770D01*
X129236808Y-141562960D02*
X128903475Y-141562960D01*
X128903475Y-142086770D02*
X128903475Y-141086770D01*
X128903475Y-141086770D02*
X129379665Y-141086770D01*
D13*
X127146332Y-140341103D02*
X127127284Y-140360151D01*
X127127284Y-140360151D02*
X127070142Y-140379198D01*
X127070142Y-140379198D02*
X127032046Y-140379198D01*
X127032046Y-140379198D02*
X126974903Y-140360151D01*
X126974903Y-140360151D02*
X126936808Y-140322055D01*
X126936808Y-140322055D02*
X126917761Y-140283960D01*
X126917761Y-140283960D02*
X126898713Y-140207770D01*
X126898713Y-140207770D02*
X126898713Y-140150627D01*
X126898713Y-140150627D02*
X126917761Y-140074436D01*
X126917761Y-140074436D02*
X126936808Y-140036341D01*
X126936808Y-140036341D02*
X126974903Y-139998246D01*
X126974903Y-139998246D02*
X127032046Y-139979198D01*
X127032046Y-139979198D02*
X127070142Y-139979198D01*
X127070142Y-139979198D02*
X127127284Y-139998246D01*
X127127284Y-139998246D02*
X127146332Y-140017293D01*
X127508237Y-139979198D02*
X127317761Y-139979198D01*
X127317761Y-139979198D02*
X127298713Y-140169674D01*
X127298713Y-140169674D02*
X127317761Y-140150627D01*
X127317761Y-140150627D02*
X127355856Y-140131579D01*
X127355856Y-140131579D02*
X127451094Y-140131579D01*
X127451094Y-140131579D02*
X127489189Y-140150627D01*
X127489189Y-140150627D02*
X127508237Y-140169674D01*
X127508237Y-140169674D02*
X127527284Y-140207770D01*
X127527284Y-140207770D02*
X127527284Y-140303008D01*
X127527284Y-140303008D02*
X127508237Y-140341103D01*
X127508237Y-140341103D02*
X127489189Y-140360151D01*
X127489189Y-140360151D02*
X127451094Y-140379198D01*
X127451094Y-140379198D02*
X127355856Y-140379198D01*
X127355856Y-140379198D02*
X127317761Y-140360151D01*
X127317761Y-140360151D02*
X127298713Y-140341103D01*
D14*
X163587306Y-122018440D02*
X163320640Y-122018440D01*
X163320640Y-122437488D02*
X163320640Y-121637488D01*
X163320640Y-121637488D02*
X163701592Y-121637488D01*
X164425401Y-122437488D02*
X163968258Y-122437488D01*
X164196830Y-122437488D02*
X164196830Y-121637488D01*
X164196830Y-121637488D02*
X164120639Y-121751773D01*
X164120639Y-121751773D02*
X164044449Y-121827964D01*
X164044449Y-121827964D02*
X163968258Y-121866059D01*
D15*
X155034013Y-121385262D02*
X155018775Y-121415738D01*
X155018775Y-121415738D02*
X154988299Y-121446214D01*
X154988299Y-121446214D02*
X154942584Y-121491928D01*
X154942584Y-121491928D02*
X154927346Y-121522405D01*
X154927346Y-121522405D02*
X154927346Y-121552881D01*
X155003537Y-121537643D02*
X154988299Y-121568119D01*
X154988299Y-121568119D02*
X154957822Y-121598595D01*
X154957822Y-121598595D02*
X154896870Y-121613833D01*
X154896870Y-121613833D02*
X154790203Y-121613833D01*
X154790203Y-121613833D02*
X154729251Y-121598595D01*
X154729251Y-121598595D02*
X154698775Y-121568119D01*
X154698775Y-121568119D02*
X154683537Y-121537643D01*
X154683537Y-121537643D02*
X154683537Y-121476690D01*
X154683537Y-121476690D02*
X154698775Y-121446214D01*
X154698775Y-121446214D02*
X154729251Y-121415738D01*
X154729251Y-121415738D02*
X154790203Y-121400500D01*
X154790203Y-121400500D02*
X154896870Y-121400500D01*
X154896870Y-121400500D02*
X154957822Y-121415738D01*
X154957822Y-121415738D02*
X154988299Y-121446214D01*
X154988299Y-121446214D02*
X155003537Y-121476690D01*
X155003537Y-121476690D02*
X155003537Y-121537643D01*
X154714013Y-121278595D02*
X154698775Y-121263357D01*
X154698775Y-121263357D02*
X154683537Y-121232881D01*
X154683537Y-121232881D02*
X154683537Y-121156690D01*
X154683537Y-121156690D02*
X154698775Y-121126214D01*
X154698775Y-121126214D02*
X154714013Y-121110976D01*
X154714013Y-121110976D02*
X154744489Y-121095738D01*
X154744489Y-121095738D02*
X154774965Y-121095738D01*
X154774965Y-121095738D02*
X154820679Y-121110976D01*
X154820679Y-121110976D02*
X155003537Y-121293833D01*
X155003537Y-121293833D02*
X155003537Y-121095738D01*
D12*
X144706332Y-125818911D02*
X144619665Y-125695102D01*
X144557760Y-125818911D02*
X144557760Y-125558911D01*
X144557760Y-125558911D02*
X144656808Y-125558911D01*
X144656808Y-125558911D02*
X144681570Y-125571292D01*
X144681570Y-125571292D02*
X144693951Y-125583673D01*
X144693951Y-125583673D02*
X144706332Y-125608435D01*
X144706332Y-125608435D02*
X144706332Y-125645578D01*
X144706332Y-125645578D02*
X144693951Y-125670340D01*
X144693951Y-125670340D02*
X144681570Y-125682721D01*
X144681570Y-125682721D02*
X144656808Y-125695102D01*
X144656808Y-125695102D02*
X144557760Y-125695102D01*
X144792998Y-125558911D02*
X144953951Y-125558911D01*
X144953951Y-125558911D02*
X144867284Y-125657959D01*
X144867284Y-125657959D02*
X144904427Y-125657959D01*
X144904427Y-125657959D02*
X144929189Y-125670340D01*
X144929189Y-125670340D02*
X144941570Y-125682721D01*
X144941570Y-125682721D02*
X144953951Y-125707483D01*
X144953951Y-125707483D02*
X144953951Y-125769388D01*
X144953951Y-125769388D02*
X144941570Y-125794150D01*
X144941570Y-125794150D02*
X144929189Y-125806531D01*
X144929189Y-125806531D02*
X144904427Y-125818911D01*
X144904427Y-125818911D02*
X144830141Y-125818911D01*
X144830141Y-125818911D02*
X144805379Y-125806531D01*
X144805379Y-125806531D02*
X144792998Y-125794150D01*
X145114903Y-125558911D02*
X145139665Y-125558911D01*
X145139665Y-125558911D02*
X145164427Y-125571292D01*
X145164427Y-125571292D02*
X145176808Y-125583673D01*
X145176808Y-125583673D02*
X145189189Y-125608435D01*
X145189189Y-125608435D02*
X145201570Y-125657959D01*
X145201570Y-125657959D02*
X145201570Y-125719864D01*
X145201570Y-125719864D02*
X145189189Y-125769388D01*
X145189189Y-125769388D02*
X145176808Y-125794150D01*
X145176808Y-125794150D02*
X145164427Y-125806531D01*
X145164427Y-125806531D02*
X145139665Y-125818911D01*
X145139665Y-125818911D02*
X145114903Y-125818911D01*
X145114903Y-125818911D02*
X145090141Y-125806531D01*
X145090141Y-125806531D02*
X145077760Y-125794150D01*
X145077760Y-125794150D02*
X145065379Y-125769388D01*
X145065379Y-125769388D02*
X145052998Y-125719864D01*
X145052998Y-125719864D02*
X145052998Y-125657959D01*
X145052998Y-125657959D02*
X145065379Y-125608435D01*
X145065379Y-125608435D02*
X145077760Y-125583673D01*
X145077760Y-125583673D02*
X145090141Y-125571292D01*
X145090141Y-125571292D02*
X145114903Y-125558911D01*
D13*
X108024166Y-119644008D02*
X108005118Y-119663056D01*
X108005118Y-119663056D02*
X107947976Y-119682103D01*
X107947976Y-119682103D02*
X107909880Y-119682103D01*
X107909880Y-119682103D02*
X107852737Y-119663056D01*
X107852737Y-119663056D02*
X107814642Y-119624960D01*
X107814642Y-119624960D02*
X107795595Y-119586865D01*
X107795595Y-119586865D02*
X107776547Y-119510675D01*
X107776547Y-119510675D02*
X107776547Y-119453532D01*
X107776547Y-119453532D02*
X107795595Y-119377341D01*
X107795595Y-119377341D02*
X107814642Y-119339246D01*
X107814642Y-119339246D02*
X107852737Y-119301151D01*
X107852737Y-119301151D02*
X107909880Y-119282103D01*
X107909880Y-119282103D02*
X107947976Y-119282103D01*
X107947976Y-119282103D02*
X108005118Y-119301151D01*
X108005118Y-119301151D02*
X108024166Y-119320198D01*
X108405118Y-119682103D02*
X108176547Y-119682103D01*
X108290833Y-119682103D02*
X108290833Y-119282103D01*
X108290833Y-119282103D02*
X108252737Y-119339246D01*
X108252737Y-119339246D02*
X108214642Y-119377341D01*
X108214642Y-119377341D02*
X108176547Y-119396389D01*
X108786070Y-119682103D02*
X108557499Y-119682103D01*
X108671785Y-119682103D02*
X108671785Y-119282103D01*
X108671785Y-119282103D02*
X108633689Y-119339246D01*
X108633689Y-119339246D02*
X108595594Y-119377341D01*
X108595594Y-119377341D02*
X108557499Y-119396389D01*
X124233333Y-124071952D02*
X124214285Y-124091000D01*
X124214285Y-124091000D02*
X124157143Y-124110047D01*
X124157143Y-124110047D02*
X124119047Y-124110047D01*
X124119047Y-124110047D02*
X124061904Y-124091000D01*
X124061904Y-124091000D02*
X124023809Y-124052904D01*
X124023809Y-124052904D02*
X124004762Y-124014809D01*
X124004762Y-124014809D02*
X123985714Y-123938619D01*
X123985714Y-123938619D02*
X123985714Y-123881476D01*
X123985714Y-123881476D02*
X124004762Y-123805285D01*
X124004762Y-123805285D02*
X124023809Y-123767190D01*
X124023809Y-123767190D02*
X124061904Y-123729095D01*
X124061904Y-123729095D02*
X124119047Y-123710047D01*
X124119047Y-123710047D02*
X124157143Y-123710047D01*
X124157143Y-123710047D02*
X124214285Y-123729095D01*
X124214285Y-123729095D02*
X124233333Y-123748142D01*
X124461904Y-123881476D02*
X124423809Y-123862428D01*
X124423809Y-123862428D02*
X124404762Y-123843380D01*
X124404762Y-123843380D02*
X124385714Y-123805285D01*
X124385714Y-123805285D02*
X124385714Y-123786238D01*
X124385714Y-123786238D02*
X124404762Y-123748142D01*
X124404762Y-123748142D02*
X124423809Y-123729095D01*
X124423809Y-123729095D02*
X124461904Y-123710047D01*
X124461904Y-123710047D02*
X124538095Y-123710047D01*
X124538095Y-123710047D02*
X124576190Y-123729095D01*
X124576190Y-123729095D02*
X124595238Y-123748142D01*
X124595238Y-123748142D02*
X124614285Y-123786238D01*
X124614285Y-123786238D02*
X124614285Y-123805285D01*
X124614285Y-123805285D02*
X124595238Y-123843380D01*
X124595238Y-123843380D02*
X124576190Y-123862428D01*
X124576190Y-123862428D02*
X124538095Y-123881476D01*
X124538095Y-123881476D02*
X124461904Y-123881476D01*
X124461904Y-123881476D02*
X124423809Y-123900523D01*
X124423809Y-123900523D02*
X124404762Y-123919571D01*
X124404762Y-123919571D02*
X124385714Y-123957666D01*
X124385714Y-123957666D02*
X124385714Y-124033857D01*
X124385714Y-124033857D02*
X124404762Y-124071952D01*
X124404762Y-124071952D02*
X124423809Y-124091000D01*
X124423809Y-124091000D02*
X124461904Y-124110047D01*
X124461904Y-124110047D02*
X124538095Y-124110047D01*
X124538095Y-124110047D02*
X124576190Y-124091000D01*
X124576190Y-124091000D02*
X124595238Y-124071952D01*
X124595238Y-124071952D02*
X124614285Y-124033857D01*
X124614285Y-124033857D02*
X124614285Y-123957666D01*
X124614285Y-123957666D02*
X124595238Y-123919571D01*
X124595238Y-123919571D02*
X124576190Y-123900523D01*
X124576190Y-123900523D02*
X124538095Y-123881476D01*
D11*
X150169533Y-150540619D02*
X149693343Y-150540619D01*
X149693343Y-150540619D02*
X149693343Y-149540619D01*
X150931438Y-149873952D02*
X150931438Y-150540619D01*
X150693343Y-149493000D02*
X150455248Y-150207285D01*
X150455248Y-150207285D02*
X151074295Y-150207285D01*
X155498948Y-125906819D02*
X156070376Y-125906819D01*
X155784662Y-126906819D02*
X155784662Y-125906819D01*
X156403710Y-126906819D02*
X156403710Y-125906819D01*
X156403710Y-125906819D02*
X156784662Y-125906819D01*
X156784662Y-125906819D02*
X156879900Y-125954438D01*
X156879900Y-125954438D02*
X156927519Y-126002057D01*
X156927519Y-126002057D02*
X156975138Y-126097295D01*
X156975138Y-126097295D02*
X156975138Y-126240152D01*
X156975138Y-126240152D02*
X156927519Y-126335390D01*
X156927519Y-126335390D02*
X156879900Y-126383009D01*
X156879900Y-126383009D02*
X156784662Y-126430628D01*
X156784662Y-126430628D02*
X156403710Y-126430628D01*
X157927519Y-126906819D02*
X157356091Y-126906819D01*
X157641805Y-126906819D02*
X157641805Y-125906819D01*
X157641805Y-125906819D02*
X157546567Y-126049676D01*
X157546567Y-126049676D02*
X157451329Y-126144914D01*
X157451329Y-126144914D02*
X157356091Y-126192533D01*
X158879900Y-126906819D02*
X158308472Y-126906819D01*
X158594186Y-126906819D02*
X158594186Y-125906819D01*
X158594186Y-125906819D02*
X158498948Y-126049676D01*
X158498948Y-126049676D02*
X158403710Y-126144914D01*
X158403710Y-126144914D02*
X158308472Y-126192533D01*
X126061142Y-131895148D02*
X126061142Y-132466576D01*
X126061142Y-132180862D02*
X125061142Y-132180862D01*
X125061142Y-132180862D02*
X125203999Y-132276100D01*
X125203999Y-132276100D02*
X125299237Y-132371338D01*
X125299237Y-132371338D02*
X125346856Y-132466576D01*
X125061142Y-131276100D02*
X125061142Y-131180862D01*
X125061142Y-131180862D02*
X125108761Y-131085624D01*
X125108761Y-131085624D02*
X125156380Y-131038005D01*
X125156380Y-131038005D02*
X125251618Y-130990386D01*
X125251618Y-130990386D02*
X125442094Y-130942767D01*
X125442094Y-130942767D02*
X125680189Y-130942767D01*
X125680189Y-130942767D02*
X125870665Y-130990386D01*
X125870665Y-130990386D02*
X125965903Y-131038005D01*
X125965903Y-131038005D02*
X126013523Y-131085624D01*
X126013523Y-131085624D02*
X126061142Y-131180862D01*
X126061142Y-131180862D02*
X126061142Y-131276100D01*
X126061142Y-131276100D02*
X126013523Y-131371338D01*
X126013523Y-131371338D02*
X125965903Y-131418957D01*
X125965903Y-131418957D02*
X125870665Y-131466576D01*
X125870665Y-131466576D02*
X125680189Y-131514195D01*
X125680189Y-131514195D02*
X125442094Y-131514195D01*
X125442094Y-131514195D02*
X125251618Y-131466576D01*
X125251618Y-131466576D02*
X125156380Y-131418957D01*
X125156380Y-131418957D02*
X125108761Y-131371338D01*
X125108761Y-131371338D02*
X125061142Y-131276100D01*
X125061142Y-130323719D02*
X125061142Y-130228481D01*
X125061142Y-130228481D02*
X125108761Y-130133243D01*
X125108761Y-130133243D02*
X125156380Y-130085624D01*
X125156380Y-130085624D02*
X125251618Y-130038005D01*
X125251618Y-130038005D02*
X125442094Y-129990386D01*
X125442094Y-129990386D02*
X125680189Y-129990386D01*
X125680189Y-129990386D02*
X125870665Y-130038005D01*
X125870665Y-130038005D02*
X125965903Y-130085624D01*
X125965903Y-130085624D02*
X126013523Y-130133243D01*
X126013523Y-130133243D02*
X126061142Y-130228481D01*
X126061142Y-130228481D02*
X126061142Y-130323719D01*
X126061142Y-130323719D02*
X126013523Y-130418957D01*
X126013523Y-130418957D02*
X125965903Y-130466576D01*
X125965903Y-130466576D02*
X125870665Y-130514195D01*
X125870665Y-130514195D02*
X125680189Y-130561814D01*
X125680189Y-130561814D02*
X125442094Y-130561814D01*
X125442094Y-130561814D02*
X125251618Y-130514195D01*
X125251618Y-130514195D02*
X125156380Y-130466576D01*
X125156380Y-130466576D02*
X125108761Y-130418957D01*
X125108761Y-130418957D02*
X125061142Y-130323719D01*
X125394475Y-129561814D02*
X126061142Y-129561814D01*
X125489713Y-129561814D02*
X125442094Y-129514195D01*
X125442094Y-129514195D02*
X125394475Y-129418957D01*
X125394475Y-129418957D02*
X125394475Y-129276100D01*
X125394475Y-129276100D02*
X125442094Y-129180862D01*
X125442094Y-129180862D02*
X125537332Y-129133243D01*
X125537332Y-129133243D02*
X126061142Y-129133243D01*
X125537332Y-128323719D02*
X125537332Y-128657052D01*
X126061142Y-128657052D02*
X125061142Y-128657052D01*
X125061142Y-128657052D02*
X125061142Y-128180862D01*
D13*
X127175475Y-130604671D02*
X127194523Y-130623719D01*
X127194523Y-130623719D02*
X127213570Y-130680861D01*
X127213570Y-130680861D02*
X127213570Y-130718957D01*
X127213570Y-130718957D02*
X127194523Y-130776100D01*
X127194523Y-130776100D02*
X127156427Y-130814195D01*
X127156427Y-130814195D02*
X127118332Y-130833242D01*
X127118332Y-130833242D02*
X127042142Y-130852290D01*
X127042142Y-130852290D02*
X126984999Y-130852290D01*
X126984999Y-130852290D02*
X126908808Y-130833242D01*
X126908808Y-130833242D02*
X126870713Y-130814195D01*
X126870713Y-130814195D02*
X126832618Y-130776100D01*
X126832618Y-130776100D02*
X126813570Y-130718957D01*
X126813570Y-130718957D02*
X126813570Y-130680861D01*
X126813570Y-130680861D02*
X126832618Y-130623719D01*
X126832618Y-130623719D02*
X126851665Y-130604671D01*
X127213570Y-130223719D02*
X127213570Y-130452290D01*
X127213570Y-130338004D02*
X126813570Y-130338004D01*
X126813570Y-130338004D02*
X126870713Y-130376100D01*
X126870713Y-130376100D02*
X126908808Y-130414195D01*
X126908808Y-130414195D02*
X126927856Y-130452290D01*
X126946903Y-129880862D02*
X127213570Y-129880862D01*
X126794523Y-129976100D02*
X127080237Y-130071338D01*
X127080237Y-130071338D02*
X127080237Y-129823719D01*
D12*
X147790001Y-107822649D02*
X147666192Y-107909316D01*
X147790001Y-107971221D02*
X147530001Y-107971221D01*
X147530001Y-107971221D02*
X147530001Y-107872173D01*
X147530001Y-107872173D02*
X147542382Y-107847411D01*
X147542382Y-107847411D02*
X147554763Y-107835030D01*
X147554763Y-107835030D02*
X147579525Y-107822649D01*
X147579525Y-107822649D02*
X147616668Y-107822649D01*
X147616668Y-107822649D02*
X147641430Y-107835030D01*
X147641430Y-107835030D02*
X147653811Y-107847411D01*
X147653811Y-107847411D02*
X147666192Y-107872173D01*
X147666192Y-107872173D02*
X147666192Y-107971221D01*
X147790001Y-107575030D02*
X147790001Y-107723602D01*
X147790001Y-107649316D02*
X147530001Y-107649316D01*
X147530001Y-107649316D02*
X147567144Y-107674078D01*
X147567144Y-107674078D02*
X147591906Y-107698840D01*
X147591906Y-107698840D02*
X147604287Y-107723602D01*
X147616668Y-107352173D02*
X147790001Y-107352173D01*
X147517621Y-107414078D02*
X147703335Y-107475983D01*
X147703335Y-107475983D02*
X147703335Y-107315030D01*
D16*
X127923476Y-124408333D02*
X127933000Y-124417857D01*
X127933000Y-124417857D02*
X127942523Y-124446428D01*
X127942523Y-124446428D02*
X127942523Y-124465476D01*
X127942523Y-124465476D02*
X127933000Y-124494047D01*
X127933000Y-124494047D02*
X127913952Y-124513095D01*
X127913952Y-124513095D02*
X127894904Y-124522618D01*
X127894904Y-124522618D02*
X127856809Y-124532142D01*
X127856809Y-124532142D02*
X127828238Y-124532142D01*
X127828238Y-124532142D02*
X127790142Y-124522618D01*
X127790142Y-124522618D02*
X127771095Y-124513095D01*
X127771095Y-124513095D02*
X127752047Y-124494047D01*
X127752047Y-124494047D02*
X127742523Y-124465476D01*
X127742523Y-124465476D02*
X127742523Y-124446428D01*
X127742523Y-124446428D02*
X127752047Y-124417857D01*
X127752047Y-124417857D02*
X127761571Y-124408333D01*
X127942523Y-124322618D02*
X127809190Y-124322618D01*
X127847285Y-124322618D02*
X127828238Y-124313095D01*
X127828238Y-124313095D02*
X127818714Y-124303571D01*
X127818714Y-124303571D02*
X127809190Y-124284523D01*
X127809190Y-124284523D02*
X127809190Y-124265476D01*
X127809190Y-124217856D02*
X127942523Y-124170237D01*
X127809190Y-124122618D02*
X127942523Y-124170237D01*
X127942523Y-124170237D02*
X127990142Y-124189285D01*
X127990142Y-124189285D02*
X127999666Y-124198808D01*
X127999666Y-124198808D02*
X128009190Y-124217856D01*
X127933000Y-124055951D02*
X127942523Y-124036904D01*
X127942523Y-124036904D02*
X127942523Y-123998808D01*
X127942523Y-123998808D02*
X127933000Y-123979761D01*
X127933000Y-123979761D02*
X127913952Y-123970237D01*
X127913952Y-123970237D02*
X127904428Y-123970237D01*
X127904428Y-123970237D02*
X127885380Y-123979761D01*
X127885380Y-123979761D02*
X127875857Y-123998808D01*
X127875857Y-123998808D02*
X127875857Y-124027380D01*
X127875857Y-124027380D02*
X127866333Y-124046427D01*
X127866333Y-124046427D02*
X127847285Y-124055951D01*
X127847285Y-124055951D02*
X127837761Y-124055951D01*
X127837761Y-124055951D02*
X127818714Y-124046427D01*
X127818714Y-124046427D02*
X127809190Y-124027380D01*
X127809190Y-124027380D02*
X127809190Y-123998808D01*
X127809190Y-123998808D02*
X127818714Y-123979761D01*
X127809190Y-123913094D02*
X127809190Y-123836903D01*
X127742523Y-123884522D02*
X127913952Y-123884522D01*
X127913952Y-123884522D02*
X127933000Y-123874999D01*
X127933000Y-123874999D02*
X127942523Y-123855951D01*
X127942523Y-123855951D02*
X127942523Y-123836903D01*
X127942523Y-123684522D02*
X127837761Y-123684522D01*
X127837761Y-123684522D02*
X127818714Y-123694046D01*
X127818714Y-123694046D02*
X127809190Y-123713094D01*
X127809190Y-123713094D02*
X127809190Y-123751189D01*
X127809190Y-123751189D02*
X127818714Y-123770236D01*
X127933000Y-123684522D02*
X127942523Y-123703570D01*
X127942523Y-123703570D02*
X127942523Y-123751189D01*
X127942523Y-123751189D02*
X127933000Y-123770236D01*
X127933000Y-123770236D02*
X127913952Y-123779760D01*
X127913952Y-123779760D02*
X127894904Y-123779760D01*
X127894904Y-123779760D02*
X127875857Y-123770236D01*
X127875857Y-123770236D02*
X127866333Y-123751189D01*
X127866333Y-123751189D02*
X127866333Y-123703570D01*
X127866333Y-123703570D02*
X127856809Y-123684522D01*
X127942523Y-123560713D02*
X127933000Y-123579761D01*
X127933000Y-123579761D02*
X127913952Y-123589284D01*
X127913952Y-123589284D02*
X127742523Y-123589284D01*
X127961571Y-123532142D02*
X127961571Y-123379761D01*
X127752047Y-123227380D02*
X127742523Y-123246427D01*
X127742523Y-123246427D02*
X127742523Y-123274999D01*
X127742523Y-123274999D02*
X127752047Y-123303570D01*
X127752047Y-123303570D02*
X127771095Y-123322618D01*
X127771095Y-123322618D02*
X127790142Y-123332141D01*
X127790142Y-123332141D02*
X127828238Y-123341665D01*
X127828238Y-123341665D02*
X127856809Y-123341665D01*
X127856809Y-123341665D02*
X127894904Y-123332141D01*
X127894904Y-123332141D02*
X127913952Y-123322618D01*
X127913952Y-123322618D02*
X127933000Y-123303570D01*
X127933000Y-123303570D02*
X127942523Y-123274999D01*
X127942523Y-123274999D02*
X127942523Y-123255951D01*
X127942523Y-123255951D02*
X127933000Y-123227380D01*
X127933000Y-123227380D02*
X127923476Y-123217856D01*
X127923476Y-123217856D02*
X127856809Y-123217856D01*
X127856809Y-123217856D02*
X127856809Y-123255951D01*
X127942523Y-123132141D02*
X127742523Y-123132141D01*
X127742523Y-123132141D02*
X127942523Y-123017856D01*
X127942523Y-123017856D02*
X127742523Y-123017856D01*
X127942523Y-122922617D02*
X127742523Y-122922617D01*
X127742523Y-122922617D02*
X127742523Y-122874998D01*
X127742523Y-122874998D02*
X127752047Y-122846427D01*
X127752047Y-122846427D02*
X127771095Y-122827379D01*
X127771095Y-122827379D02*
X127790142Y-122817856D01*
X127790142Y-122817856D02*
X127828238Y-122808332D01*
X127828238Y-122808332D02*
X127856809Y-122808332D01*
X127856809Y-122808332D02*
X127894904Y-122817856D01*
X127894904Y-122817856D02*
X127913952Y-122827379D01*
X127913952Y-122827379D02*
X127933000Y-122846427D01*
X127933000Y-122846427D02*
X127942523Y-122874998D01*
X127942523Y-122874998D02*
X127942523Y-122922617D01*
X127742523Y-122741665D02*
X127742523Y-122617856D01*
X127742523Y-122617856D02*
X127818714Y-122684522D01*
X127818714Y-122684522D02*
X127818714Y-122655951D01*
X127818714Y-122655951D02*
X127828238Y-122636903D01*
X127828238Y-122636903D02*
X127837761Y-122627379D01*
X127837761Y-122627379D02*
X127856809Y-122617856D01*
X127856809Y-122617856D02*
X127904428Y-122617856D01*
X127904428Y-122617856D02*
X127923476Y-122627379D01*
X127923476Y-122627379D02*
X127933000Y-122636903D01*
X127933000Y-122636903D02*
X127942523Y-122655951D01*
X127942523Y-122655951D02*
X127942523Y-122713094D01*
X127942523Y-122713094D02*
X127933000Y-122732141D01*
X127933000Y-122732141D02*
X127923476Y-122741665D01*
D17*
X129691857Y-123960714D02*
X129977571Y-123960714D01*
X129377571Y-124160714D02*
X129691857Y-123960714D01*
X129691857Y-123960714D02*
X129377571Y-123760714D01*
X129977571Y-123246428D02*
X129977571Y-123589285D01*
X129977571Y-123417856D02*
X129377571Y-123417856D01*
X129377571Y-123417856D02*
X129463285Y-123474999D01*
X129463285Y-123474999D02*
X129520428Y-123532142D01*
X129520428Y-123532142D02*
X129549000Y-123589285D01*
D12*
X142395013Y-118673410D02*
X142383109Y-118685315D01*
X142383109Y-118685315D02*
X142347394Y-118697219D01*
X142347394Y-118697219D02*
X142323585Y-118697219D01*
X142323585Y-118697219D02*
X142287871Y-118685315D01*
X142287871Y-118685315D02*
X142264061Y-118661505D01*
X142264061Y-118661505D02*
X142252156Y-118637695D01*
X142252156Y-118637695D02*
X142240252Y-118590076D01*
X142240252Y-118590076D02*
X142240252Y-118554362D01*
X142240252Y-118554362D02*
X142252156Y-118506743D01*
X142252156Y-118506743D02*
X142264061Y-118482934D01*
X142264061Y-118482934D02*
X142287871Y-118459124D01*
X142287871Y-118459124D02*
X142323585Y-118447219D01*
X142323585Y-118447219D02*
X142347394Y-118447219D01*
X142347394Y-118447219D02*
X142383109Y-118459124D01*
X142383109Y-118459124D02*
X142395013Y-118471029D01*
X142633109Y-118697219D02*
X142490252Y-118697219D01*
X142561680Y-118697219D02*
X142561680Y-118447219D01*
X142561680Y-118447219D02*
X142537871Y-118482934D01*
X142537871Y-118482934D02*
X142514061Y-118506743D01*
X142514061Y-118506743D02*
X142490252Y-118518648D01*
X142775966Y-118554362D02*
X142752156Y-118542457D01*
X142752156Y-118542457D02*
X142740251Y-118530553D01*
X142740251Y-118530553D02*
X142728347Y-118506743D01*
X142728347Y-118506743D02*
X142728347Y-118494838D01*
X142728347Y-118494838D02*
X142740251Y-118471029D01*
X142740251Y-118471029D02*
X142752156Y-118459124D01*
X142752156Y-118459124D02*
X142775966Y-118447219D01*
X142775966Y-118447219D02*
X142823585Y-118447219D01*
X142823585Y-118447219D02*
X142847394Y-118459124D01*
X142847394Y-118459124D02*
X142859299Y-118471029D01*
X142859299Y-118471029D02*
X142871204Y-118494838D01*
X142871204Y-118494838D02*
X142871204Y-118506743D01*
X142871204Y-118506743D02*
X142859299Y-118530553D01*
X142859299Y-118530553D02*
X142847394Y-118542457D01*
X142847394Y-118542457D02*
X142823585Y-118554362D01*
X142823585Y-118554362D02*
X142775966Y-118554362D01*
X142775966Y-118554362D02*
X142752156Y-118566267D01*
X142752156Y-118566267D02*
X142740251Y-118578172D01*
X142740251Y-118578172D02*
X142728347Y-118601981D01*
X142728347Y-118601981D02*
X142728347Y-118649600D01*
X142728347Y-118649600D02*
X142740251Y-118673410D01*
X142740251Y-118673410D02*
X142752156Y-118685315D01*
X142752156Y-118685315D02*
X142775966Y-118697219D01*
X142775966Y-118697219D02*
X142823585Y-118697219D01*
X142823585Y-118697219D02*
X142847394Y-118685315D01*
X142847394Y-118685315D02*
X142859299Y-118673410D01*
X142859299Y-118673410D02*
X142871204Y-118649600D01*
X142871204Y-118649600D02*
X142871204Y-118601981D01*
X142871204Y-118601981D02*
X142859299Y-118578172D01*
X142859299Y-118578172D02*
X142847394Y-118566267D01*
X142847394Y-118566267D02*
X142823585Y-118554362D01*
D11*
X88226333Y-115951219D02*
X87750143Y-115951219D01*
X87750143Y-115951219D02*
X87750143Y-114951219D01*
X88988238Y-114951219D02*
X88797762Y-114951219D01*
X88797762Y-114951219D02*
X88702524Y-114998838D01*
X88702524Y-114998838D02*
X88654905Y-115046457D01*
X88654905Y-115046457D02*
X88559667Y-115189314D01*
X88559667Y-115189314D02*
X88512048Y-115379790D01*
X88512048Y-115379790D02*
X88512048Y-115760742D01*
X88512048Y-115760742D02*
X88559667Y-115855980D01*
X88559667Y-115855980D02*
X88607286Y-115903600D01*
X88607286Y-115903600D02*
X88702524Y-115951219D01*
X88702524Y-115951219D02*
X88893000Y-115951219D01*
X88893000Y-115951219D02*
X88988238Y-115903600D01*
X88988238Y-115903600D02*
X89035857Y-115855980D01*
X89035857Y-115855980D02*
X89083476Y-115760742D01*
X89083476Y-115760742D02*
X89083476Y-115522647D01*
X89083476Y-115522647D02*
X89035857Y-115427409D01*
X89035857Y-115427409D02*
X88988238Y-115379790D01*
X88988238Y-115379790D02*
X88893000Y-115332171D01*
X88893000Y-115332171D02*
X88702524Y-115332171D01*
X88702524Y-115332171D02*
X88607286Y-115379790D01*
X88607286Y-115379790D02*
X88559667Y-115427409D01*
X88559667Y-115427409D02*
X88512048Y-115522647D01*
D14*
X120999904Y-119405332D02*
X121038000Y-119443428D01*
X121038000Y-119443428D02*
X121076095Y-119557713D01*
X121076095Y-119557713D02*
X121076095Y-119633904D01*
X121076095Y-119633904D02*
X121038000Y-119748190D01*
X121038000Y-119748190D02*
X120961809Y-119824380D01*
X120961809Y-119824380D02*
X120885619Y-119862475D01*
X120885619Y-119862475D02*
X120733238Y-119900571D01*
X120733238Y-119900571D02*
X120618952Y-119900571D01*
X120618952Y-119900571D02*
X120466571Y-119862475D01*
X120466571Y-119862475D02*
X120390380Y-119824380D01*
X120390380Y-119824380D02*
X120314190Y-119748190D01*
X120314190Y-119748190D02*
X120276095Y-119633904D01*
X120276095Y-119633904D02*
X120276095Y-119557713D01*
X120276095Y-119557713D02*
X120314190Y-119443428D01*
X120314190Y-119443428D02*
X120352285Y-119405332D01*
X120276095Y-119138666D02*
X120276095Y-118643428D01*
X120276095Y-118643428D02*
X120580857Y-118910094D01*
X120580857Y-118910094D02*
X120580857Y-118795809D01*
X120580857Y-118795809D02*
X120618952Y-118719618D01*
X120618952Y-118719618D02*
X120657047Y-118681523D01*
X120657047Y-118681523D02*
X120733238Y-118643428D01*
X120733238Y-118643428D02*
X120923714Y-118643428D01*
X120923714Y-118643428D02*
X120999904Y-118681523D01*
X120999904Y-118681523D02*
X121038000Y-118719618D01*
X121038000Y-118719618D02*
X121076095Y-118795809D01*
X121076095Y-118795809D02*
X121076095Y-119024380D01*
X121076095Y-119024380D02*
X121038000Y-119100571D01*
X121038000Y-119100571D02*
X120999904Y-119138666D01*
D11*
X129294095Y-102968619D02*
X129865523Y-102968619D01*
X129579809Y-103968619D02*
X129579809Y-102968619D01*
X130198857Y-103968619D02*
X130198857Y-102968619D01*
X130198857Y-102968619D02*
X130579809Y-102968619D01*
X130579809Y-102968619D02*
X130675047Y-103016238D01*
X130675047Y-103016238D02*
X130722666Y-103063857D01*
X130722666Y-103063857D02*
X130770285Y-103159095D01*
X130770285Y-103159095D02*
X130770285Y-103301952D01*
X130770285Y-103301952D02*
X130722666Y-103397190D01*
X130722666Y-103397190D02*
X130675047Y-103444809D01*
X130675047Y-103444809D02*
X130579809Y-103492428D01*
X130579809Y-103492428D02*
X130198857Y-103492428D01*
X131627428Y-103301952D02*
X131627428Y-103968619D01*
X131389333Y-102921000D02*
X131151238Y-103635285D01*
X131151238Y-103635285D02*
X131770285Y-103635285D01*
D13*
X170885408Y-136281247D02*
X170904456Y-136300295D01*
X170904456Y-136300295D02*
X170923503Y-136357437D01*
X170923503Y-136357437D02*
X170923503Y-136395533D01*
X170923503Y-136395533D02*
X170904456Y-136452676D01*
X170904456Y-136452676D02*
X170866360Y-136490771D01*
X170866360Y-136490771D02*
X170828265Y-136509818D01*
X170828265Y-136509818D02*
X170752075Y-136528866D01*
X170752075Y-136528866D02*
X170694932Y-136528866D01*
X170694932Y-136528866D02*
X170618741Y-136509818D01*
X170618741Y-136509818D02*
X170580646Y-136490771D01*
X170580646Y-136490771D02*
X170542551Y-136452676D01*
X170542551Y-136452676D02*
X170523503Y-136395533D01*
X170523503Y-136395533D02*
X170523503Y-136357437D01*
X170523503Y-136357437D02*
X170542551Y-136300295D01*
X170542551Y-136300295D02*
X170561598Y-136281247D01*
X170923503Y-136090771D02*
X170923503Y-136014580D01*
X170923503Y-136014580D02*
X170904456Y-135976485D01*
X170904456Y-135976485D02*
X170885408Y-135957437D01*
X170885408Y-135957437D02*
X170828265Y-135919342D01*
X170828265Y-135919342D02*
X170752075Y-135900295D01*
X170752075Y-135900295D02*
X170599694Y-135900295D01*
X170599694Y-135900295D02*
X170561598Y-135919342D01*
X170561598Y-135919342D02*
X170542551Y-135938390D01*
X170542551Y-135938390D02*
X170523503Y-135976485D01*
X170523503Y-135976485D02*
X170523503Y-136052676D01*
X170523503Y-136052676D02*
X170542551Y-136090771D01*
X170542551Y-136090771D02*
X170561598Y-136109818D01*
X170561598Y-136109818D02*
X170599694Y-136128866D01*
X170599694Y-136128866D02*
X170694932Y-136128866D01*
X170694932Y-136128866D02*
X170733027Y-136109818D01*
X170733027Y-136109818D02*
X170752075Y-136090771D01*
X170752075Y-136090771D02*
X170771122Y-136052676D01*
X170771122Y-136052676D02*
X170771122Y-135976485D01*
X170771122Y-135976485D02*
X170752075Y-135938390D01*
X170752075Y-135938390D02*
X170733027Y-135919342D01*
X170733027Y-135919342D02*
X170694932Y-135900295D01*
D11*
X168169533Y-150540619D02*
X167693343Y-150540619D01*
X167693343Y-150540619D02*
X167693343Y-149540619D01*
X168407629Y-149540619D02*
X169026676Y-149540619D01*
X169026676Y-149540619D02*
X168693343Y-149921571D01*
X168693343Y-149921571D02*
X168836200Y-149921571D01*
X168836200Y-149921571D02*
X168931438Y-149969190D01*
X168931438Y-149969190D02*
X168979057Y-150016809D01*
X168979057Y-150016809D02*
X169026676Y-150112047D01*
X169026676Y-150112047D02*
X169026676Y-150350142D01*
X169026676Y-150350142D02*
X168979057Y-150445380D01*
X168979057Y-150445380D02*
X168931438Y-150493000D01*
X168931438Y-150493000D02*
X168836200Y-150540619D01*
X168836200Y-150540619D02*
X168550486Y-150540619D01*
X168550486Y-150540619D02*
X168455248Y-150493000D01*
X168455248Y-150493000D02*
X168407629Y-150445380D01*
D15*
X139564190Y-109622538D02*
X139564190Y-109881585D01*
X139564190Y-109881585D02*
X139579428Y-109912061D01*
X139579428Y-109912061D02*
X139594666Y-109927300D01*
X139594666Y-109927300D02*
X139625142Y-109942538D01*
X139625142Y-109942538D02*
X139686095Y-109942538D01*
X139686095Y-109942538D02*
X139716571Y-109927300D01*
X139716571Y-109927300D02*
X139731809Y-109912061D01*
X139731809Y-109912061D02*
X139747047Y-109881585D01*
X139747047Y-109881585D02*
X139747047Y-109622538D01*
X139868952Y-109622538D02*
X140082285Y-109622538D01*
X140082285Y-109622538D02*
X139945142Y-109942538D01*
D12*
X159478486Y-150968036D02*
X159391819Y-150844227D01*
X159329914Y-150968036D02*
X159329914Y-150708036D01*
X159329914Y-150708036D02*
X159428962Y-150708036D01*
X159428962Y-150708036D02*
X159453724Y-150720417D01*
X159453724Y-150720417D02*
X159466105Y-150732798D01*
X159466105Y-150732798D02*
X159478486Y-150757560D01*
X159478486Y-150757560D02*
X159478486Y-150794703D01*
X159478486Y-150794703D02*
X159466105Y-150819465D01*
X159466105Y-150819465D02*
X159453724Y-150831846D01*
X159453724Y-150831846D02*
X159428962Y-150844227D01*
X159428962Y-150844227D02*
X159329914Y-150844227D01*
X159726105Y-150968036D02*
X159577533Y-150968036D01*
X159651819Y-150968036D02*
X159651819Y-150708036D01*
X159651819Y-150708036D02*
X159627057Y-150745179D01*
X159627057Y-150745179D02*
X159602295Y-150769941D01*
X159602295Y-150769941D02*
X159577533Y-150782322D01*
X159812771Y-150708036D02*
X159986105Y-150708036D01*
X159986105Y-150708036D02*
X159874676Y-150968036D01*
D11*
X136172127Y-151500759D02*
X136172127Y-150500759D01*
X136172127Y-150976949D02*
X136743555Y-150976949D01*
X136743555Y-151500759D02*
X136743555Y-150500759D01*
X137219746Y-151500759D02*
X137219746Y-150500759D01*
X137219746Y-150976949D02*
X137791174Y-150976949D01*
X137791174Y-151500759D02*
X137791174Y-150500759D01*
X138743555Y-151500759D02*
X138267365Y-151500759D01*
X138267365Y-151500759D02*
X138267365Y-150500759D01*
X138838794Y-151595997D02*
X139600698Y-151595997D01*
X140314984Y-151500759D02*
X139838794Y-151500759D01*
X139838794Y-151500759D02*
X139838794Y-150500759D01*
X140791175Y-151500759D02*
X140695937Y-151453140D01*
X140695937Y-151453140D02*
X140648318Y-151405520D01*
X140648318Y-151405520D02*
X140600699Y-151310282D01*
X140600699Y-151310282D02*
X140600699Y-151024568D01*
X140600699Y-151024568D02*
X140648318Y-150929330D01*
X140648318Y-150929330D02*
X140695937Y-150881711D01*
X140695937Y-150881711D02*
X140791175Y-150834092D01*
X140791175Y-150834092D02*
X140934032Y-150834092D01*
X140934032Y-150834092D02*
X141029270Y-150881711D01*
X141029270Y-150881711D02*
X141076889Y-150929330D01*
X141076889Y-150929330D02*
X141124508Y-151024568D01*
X141124508Y-151024568D02*
X141124508Y-151310282D01*
X141124508Y-151310282D02*
X141076889Y-151405520D01*
X141076889Y-151405520D02*
X141029270Y-151453140D01*
X141029270Y-151453140D02*
X140934032Y-151500759D01*
X140934032Y-151500759D02*
X140791175Y-151500759D01*
X141981651Y-150834092D02*
X141981651Y-151643616D01*
X141981651Y-151643616D02*
X141934032Y-151738854D01*
X141934032Y-151738854D02*
X141886413Y-151786473D01*
X141886413Y-151786473D02*
X141791175Y-151834092D01*
X141791175Y-151834092D02*
X141648318Y-151834092D01*
X141648318Y-151834092D02*
X141553080Y-151786473D01*
X141981651Y-151453140D02*
X141886413Y-151500759D01*
X141886413Y-151500759D02*
X141695937Y-151500759D01*
X141695937Y-151500759D02*
X141600699Y-151453140D01*
X141600699Y-151453140D02*
X141553080Y-151405520D01*
X141553080Y-151405520D02*
X141505461Y-151310282D01*
X141505461Y-151310282D02*
X141505461Y-151024568D01*
X141505461Y-151024568D02*
X141553080Y-150929330D01*
X141553080Y-150929330D02*
X141600699Y-150881711D01*
X141600699Y-150881711D02*
X141695937Y-150834092D01*
X141695937Y-150834092D02*
X141886413Y-150834092D01*
X141886413Y-150834092D02*
X141981651Y-150881711D01*
X142600699Y-151500759D02*
X142505461Y-151453140D01*
X142505461Y-151453140D02*
X142457842Y-151405520D01*
X142457842Y-151405520D02*
X142410223Y-151310282D01*
X142410223Y-151310282D02*
X142410223Y-151024568D01*
X142410223Y-151024568D02*
X142457842Y-150929330D01*
X142457842Y-150929330D02*
X142505461Y-150881711D01*
X142505461Y-150881711D02*
X142600699Y-150834092D01*
X142600699Y-150834092D02*
X142743556Y-150834092D01*
X142743556Y-150834092D02*
X142838794Y-150881711D01*
X142838794Y-150881711D02*
X142886413Y-150929330D01*
X142886413Y-150929330D02*
X142934032Y-151024568D01*
X142934032Y-151024568D02*
X142934032Y-151310282D01*
X142934032Y-151310282D02*
X142886413Y-151405520D01*
X142886413Y-151405520D02*
X142838794Y-151453140D01*
X142838794Y-151453140D02*
X142743556Y-151500759D01*
X142743556Y-151500759D02*
X142600699Y-151500759D01*
X138195936Y-153000759D02*
X137862603Y-152524568D01*
X137624508Y-153000759D02*
X137624508Y-152000759D01*
X137624508Y-152000759D02*
X138005460Y-152000759D01*
X138005460Y-152000759D02*
X138100698Y-152048378D01*
X138100698Y-152048378D02*
X138148317Y-152095997D01*
X138148317Y-152095997D02*
X138195936Y-152191235D01*
X138195936Y-152191235D02*
X138195936Y-152334092D01*
X138195936Y-152334092D02*
X138148317Y-152429330D01*
X138148317Y-152429330D02*
X138100698Y-152476949D01*
X138100698Y-152476949D02*
X138005460Y-152524568D01*
X138005460Y-152524568D02*
X137624508Y-152524568D01*
X138624508Y-152476949D02*
X138957841Y-152476949D01*
X139100698Y-153000759D02*
X138624508Y-153000759D01*
X138624508Y-153000759D02*
X138624508Y-152000759D01*
X138624508Y-152000759D02*
X139100698Y-152000759D01*
X139862603Y-152476949D02*
X139529270Y-152476949D01*
X139529270Y-153000759D02*
X139529270Y-152000759D01*
X139529270Y-152000759D02*
X140005460Y-152000759D01*
X140529270Y-152000759D02*
X140529270Y-152238854D01*
X140291175Y-152143616D02*
X140529270Y-152238854D01*
X140529270Y-152238854D02*
X140767365Y-152143616D01*
X140386413Y-152429330D02*
X140529270Y-152238854D01*
X140529270Y-152238854D02*
X140672127Y-152429330D01*
X141291175Y-152000759D02*
X141291175Y-152238854D01*
X141053080Y-152143616D02*
X141291175Y-152238854D01*
X141291175Y-152238854D02*
X141529270Y-152143616D01*
X141148318Y-152429330D02*
X141291175Y-152238854D01*
X141291175Y-152238854D02*
X141434032Y-152429330D01*
D12*
X108518258Y-118097339D02*
X108431591Y-117973530D01*
X108369686Y-118097339D02*
X108369686Y-117837339D01*
X108369686Y-117837339D02*
X108468734Y-117837339D01*
X108468734Y-117837339D02*
X108493496Y-117849720D01*
X108493496Y-117849720D02*
X108505877Y-117862101D01*
X108505877Y-117862101D02*
X108518258Y-117886863D01*
X108518258Y-117886863D02*
X108518258Y-117924006D01*
X108518258Y-117924006D02*
X108505877Y-117948768D01*
X108505877Y-117948768D02*
X108493496Y-117961149D01*
X108493496Y-117961149D02*
X108468734Y-117973530D01*
X108468734Y-117973530D02*
X108369686Y-117973530D01*
X108765877Y-118097339D02*
X108617305Y-118097339D01*
X108691591Y-118097339D02*
X108691591Y-117837339D01*
X108691591Y-117837339D02*
X108666829Y-117874482D01*
X108666829Y-117874482D02*
X108642067Y-117899244D01*
X108642067Y-117899244D02*
X108617305Y-117911625D01*
X108988734Y-117837339D02*
X108939210Y-117837339D01*
X108939210Y-117837339D02*
X108914448Y-117849720D01*
X108914448Y-117849720D02*
X108902067Y-117862101D01*
X108902067Y-117862101D02*
X108877305Y-117899244D01*
X108877305Y-117899244D02*
X108864924Y-117948768D01*
X108864924Y-117948768D02*
X108864924Y-118047816D01*
X108864924Y-118047816D02*
X108877305Y-118072578D01*
X108877305Y-118072578D02*
X108889686Y-118084959D01*
X108889686Y-118084959D02*
X108914448Y-118097339D01*
X108914448Y-118097339D02*
X108963972Y-118097339D01*
X108963972Y-118097339D02*
X108988734Y-118084959D01*
X108988734Y-118084959D02*
X109001115Y-118072578D01*
X109001115Y-118072578D02*
X109013496Y-118047816D01*
X109013496Y-118047816D02*
X109013496Y-117985911D01*
X109013496Y-117985911D02*
X109001115Y-117961149D01*
X109001115Y-117961149D02*
X108988734Y-117948768D01*
X108988734Y-117948768D02*
X108963972Y-117936387D01*
X108963972Y-117936387D02*
X108914448Y-117936387D01*
X108914448Y-117936387D02*
X108889686Y-117948768D01*
X108889686Y-117948768D02*
X108877305Y-117961149D01*
X108877305Y-117961149D02*
X108864924Y-117985911D01*
D11*
X127995774Y-131487819D02*
X127424346Y-131487819D01*
X127710060Y-131487819D02*
X127710060Y-130487819D01*
X127710060Y-130487819D02*
X127614822Y-130630676D01*
X127614822Y-130630676D02*
X127519584Y-130725914D01*
X127519584Y-130725914D02*
X127424346Y-130773533D01*
X128614822Y-130487819D02*
X128710060Y-130487819D01*
X128710060Y-130487819D02*
X128805298Y-130535438D01*
X128805298Y-130535438D02*
X128852917Y-130583057D01*
X128852917Y-130583057D02*
X128900536Y-130678295D01*
X128900536Y-130678295D02*
X128948155Y-130868771D01*
X128948155Y-130868771D02*
X128948155Y-131106866D01*
X128948155Y-131106866D02*
X128900536Y-131297342D01*
X128900536Y-131297342D02*
X128852917Y-131392580D01*
X128852917Y-131392580D02*
X128805298Y-131440200D01*
X128805298Y-131440200D02*
X128710060Y-131487819D01*
X128710060Y-131487819D02*
X128614822Y-131487819D01*
X128614822Y-131487819D02*
X128519584Y-131440200D01*
X128519584Y-131440200D02*
X128471965Y-131392580D01*
X128471965Y-131392580D02*
X128424346Y-131297342D01*
X128424346Y-131297342D02*
X128376727Y-131106866D01*
X128376727Y-131106866D02*
X128376727Y-130868771D01*
X128376727Y-130868771D02*
X128424346Y-130678295D01*
X128424346Y-130678295D02*
X128471965Y-130583057D01*
X128471965Y-130583057D02*
X128519584Y-130535438D01*
X128519584Y-130535438D02*
X128614822Y-130487819D01*
X129567203Y-130487819D02*
X129662441Y-130487819D01*
X129662441Y-130487819D02*
X129757679Y-130535438D01*
X129757679Y-130535438D02*
X129805298Y-130583057D01*
X129805298Y-130583057D02*
X129852917Y-130678295D01*
X129852917Y-130678295D02*
X129900536Y-130868771D01*
X129900536Y-130868771D02*
X129900536Y-131106866D01*
X129900536Y-131106866D02*
X129852917Y-131297342D01*
X129852917Y-131297342D02*
X129805298Y-131392580D01*
X129805298Y-131392580D02*
X129757679Y-131440200D01*
X129757679Y-131440200D02*
X129662441Y-131487819D01*
X129662441Y-131487819D02*
X129567203Y-131487819D01*
X129567203Y-131487819D02*
X129471965Y-131440200D01*
X129471965Y-131440200D02*
X129424346Y-131392580D01*
X129424346Y-131392580D02*
X129376727Y-131297342D01*
X129376727Y-131297342D02*
X129329108Y-131106866D01*
X129329108Y-131106866D02*
X129329108Y-130868771D01*
X129329108Y-130868771D02*
X129376727Y-130678295D01*
X129376727Y-130678295D02*
X129424346Y-130583057D01*
X129424346Y-130583057D02*
X129471965Y-130535438D01*
X129471965Y-130535438D02*
X129567203Y-130487819D01*
X130329108Y-130821152D02*
X130329108Y-131487819D01*
X130329108Y-130916390D02*
X130376727Y-130868771D01*
X130376727Y-130868771D02*
X130471965Y-130821152D01*
X130471965Y-130821152D02*
X130614822Y-130821152D01*
X130614822Y-130821152D02*
X130710060Y-130868771D01*
X130710060Y-130868771D02*
X130757679Y-130964009D01*
X130757679Y-130964009D02*
X130757679Y-131487819D01*
X131567203Y-130964009D02*
X131233870Y-130964009D01*
X131233870Y-131487819D02*
X131233870Y-130487819D01*
X131233870Y-130487819D02*
X131710060Y-130487819D01*
D13*
X129476727Y-129742152D02*
X129457679Y-129761200D01*
X129457679Y-129761200D02*
X129400537Y-129780247D01*
X129400537Y-129780247D02*
X129362441Y-129780247D01*
X129362441Y-129780247D02*
X129305298Y-129761200D01*
X129305298Y-129761200D02*
X129267203Y-129723104D01*
X129267203Y-129723104D02*
X129248156Y-129685009D01*
X129248156Y-129685009D02*
X129229108Y-129608819D01*
X129229108Y-129608819D02*
X129229108Y-129551676D01*
X129229108Y-129551676D02*
X129248156Y-129475485D01*
X129248156Y-129475485D02*
X129267203Y-129437390D01*
X129267203Y-129437390D02*
X129305298Y-129399295D01*
X129305298Y-129399295D02*
X129362441Y-129380247D01*
X129362441Y-129380247D02*
X129400537Y-129380247D01*
X129400537Y-129380247D02*
X129457679Y-129399295D01*
X129457679Y-129399295D02*
X129476727Y-129418342D01*
X129610060Y-129380247D02*
X129876727Y-129380247D01*
X129876727Y-129380247D02*
X129705298Y-129780247D01*
D12*
X141962540Y-128252798D02*
X141950636Y-128264703D01*
X141950636Y-128264703D02*
X141914921Y-128276607D01*
X141914921Y-128276607D02*
X141891112Y-128276607D01*
X141891112Y-128276607D02*
X141855398Y-128264703D01*
X141855398Y-128264703D02*
X141831588Y-128240893D01*
X141831588Y-128240893D02*
X141819683Y-128217083D01*
X141819683Y-128217083D02*
X141807779Y-128169464D01*
X141807779Y-128169464D02*
X141807779Y-128133750D01*
X141807779Y-128133750D02*
X141819683Y-128086131D01*
X141819683Y-128086131D02*
X141831588Y-128062322D01*
X141831588Y-128062322D02*
X141855398Y-128038512D01*
X141855398Y-128038512D02*
X141891112Y-128026607D01*
X141891112Y-128026607D02*
X141914921Y-128026607D01*
X141914921Y-128026607D02*
X141950636Y-128038512D01*
X141950636Y-128038512D02*
X141962540Y-128050417D01*
X142057779Y-128050417D02*
X142069683Y-128038512D01*
X142069683Y-128038512D02*
X142093493Y-128026607D01*
X142093493Y-128026607D02*
X142153017Y-128026607D01*
X142153017Y-128026607D02*
X142176826Y-128038512D01*
X142176826Y-128038512D02*
X142188731Y-128050417D01*
X142188731Y-128050417D02*
X142200636Y-128074226D01*
X142200636Y-128074226D02*
X142200636Y-128098036D01*
X142200636Y-128098036D02*
X142188731Y-128133750D01*
X142188731Y-128133750D02*
X142045874Y-128276607D01*
X142045874Y-128276607D02*
X142200636Y-128276607D01*
X142438731Y-128276607D02*
X142295874Y-128276607D01*
X142367302Y-128276607D02*
X142367302Y-128026607D01*
X142367302Y-128026607D02*
X142343493Y-128062322D01*
X142343493Y-128062322D02*
X142319683Y-128086131D01*
X142319683Y-128086131D02*
X142295874Y-128098036D01*
D11*
X129044517Y-127907040D02*
X128473089Y-127907040D01*
X128758803Y-127907040D02*
X128758803Y-126907040D01*
X128758803Y-126907040D02*
X128663565Y-127049897D01*
X128663565Y-127049897D02*
X128568327Y-127145135D01*
X128568327Y-127145135D02*
X128473089Y-127192754D01*
X129663565Y-126907040D02*
X129758803Y-126907040D01*
X129758803Y-126907040D02*
X129854041Y-126954659D01*
X129854041Y-126954659D02*
X129901660Y-127002278D01*
X129901660Y-127002278D02*
X129949279Y-127097516D01*
X129949279Y-127097516D02*
X129996898Y-127287992D01*
X129996898Y-127287992D02*
X129996898Y-127526087D01*
X129996898Y-127526087D02*
X129949279Y-127716563D01*
X129949279Y-127716563D02*
X129901660Y-127811801D01*
X129901660Y-127811801D02*
X129854041Y-127859421D01*
X129854041Y-127859421D02*
X129758803Y-127907040D01*
X129758803Y-127907040D02*
X129663565Y-127907040D01*
X129663565Y-127907040D02*
X129568327Y-127859421D01*
X129568327Y-127859421D02*
X129520708Y-127811801D01*
X129520708Y-127811801D02*
X129473089Y-127716563D01*
X129473089Y-127716563D02*
X129425470Y-127526087D01*
X129425470Y-127526087D02*
X129425470Y-127287992D01*
X129425470Y-127287992D02*
X129473089Y-127097516D01*
X129473089Y-127097516D02*
X129520708Y-127002278D01*
X129520708Y-127002278D02*
X129568327Y-126954659D01*
X129568327Y-126954659D02*
X129663565Y-126907040D01*
X130425470Y-127907040D02*
X130425470Y-126907040D01*
X130520708Y-127526087D02*
X130806422Y-127907040D01*
X130806422Y-127240373D02*
X130425470Y-127621325D01*
D12*
X129472613Y-126394701D02*
X129385946Y-126270892D01*
X129324041Y-126394701D02*
X129324041Y-126134701D01*
X129324041Y-126134701D02*
X129423089Y-126134701D01*
X129423089Y-126134701D02*
X129447851Y-126147082D01*
X129447851Y-126147082D02*
X129460232Y-126159463D01*
X129460232Y-126159463D02*
X129472613Y-126184225D01*
X129472613Y-126184225D02*
X129472613Y-126221368D01*
X129472613Y-126221368D02*
X129460232Y-126246130D01*
X129460232Y-126246130D02*
X129447851Y-126258511D01*
X129447851Y-126258511D02*
X129423089Y-126270892D01*
X129423089Y-126270892D02*
X129324041Y-126270892D01*
X129571660Y-126159463D02*
X129584041Y-126147082D01*
X129584041Y-126147082D02*
X129608803Y-126134701D01*
X129608803Y-126134701D02*
X129670708Y-126134701D01*
X129670708Y-126134701D02*
X129695470Y-126147082D01*
X129695470Y-126147082D02*
X129707851Y-126159463D01*
X129707851Y-126159463D02*
X129720232Y-126184225D01*
X129720232Y-126184225D02*
X129720232Y-126208987D01*
X129720232Y-126208987D02*
X129707851Y-126246130D01*
X129707851Y-126246130D02*
X129559279Y-126394701D01*
X129559279Y-126394701D02*
X129720232Y-126394701D01*
X129967851Y-126394701D02*
X129819279Y-126394701D01*
X129893565Y-126394701D02*
X129893565Y-126134701D01*
X129893565Y-126134701D02*
X129868803Y-126171844D01*
X129868803Y-126171844D02*
X129844041Y-126196606D01*
X129844041Y-126196606D02*
X129819279Y-126208987D01*
D13*
X139621333Y-112471452D02*
X139602285Y-112490500D01*
X139602285Y-112490500D02*
X139545143Y-112509547D01*
X139545143Y-112509547D02*
X139507047Y-112509547D01*
X139507047Y-112509547D02*
X139449904Y-112490500D01*
X139449904Y-112490500D02*
X139411809Y-112452404D01*
X139411809Y-112452404D02*
X139392762Y-112414309D01*
X139392762Y-112414309D02*
X139373714Y-112338119D01*
X139373714Y-112338119D02*
X139373714Y-112280976D01*
X139373714Y-112280976D02*
X139392762Y-112204785D01*
X139392762Y-112204785D02*
X139411809Y-112166690D01*
X139411809Y-112166690D02*
X139449904Y-112128595D01*
X139449904Y-112128595D02*
X139507047Y-112109547D01*
X139507047Y-112109547D02*
X139545143Y-112109547D01*
X139545143Y-112109547D02*
X139602285Y-112128595D01*
X139602285Y-112128595D02*
X139621333Y-112147642D01*
X139773714Y-112147642D02*
X139792762Y-112128595D01*
X139792762Y-112128595D02*
X139830857Y-112109547D01*
X139830857Y-112109547D02*
X139926095Y-112109547D01*
X139926095Y-112109547D02*
X139964190Y-112128595D01*
X139964190Y-112128595D02*
X139983238Y-112147642D01*
X139983238Y-112147642D02*
X140002285Y-112185738D01*
X140002285Y-112185738D02*
X140002285Y-112223833D01*
X140002285Y-112223833D02*
X139983238Y-112280976D01*
X139983238Y-112280976D02*
X139754666Y-112509547D01*
X139754666Y-112509547D02*
X140002285Y-112509547D01*
D12*
X144689285Y-123766845D02*
X144677381Y-123778750D01*
X144677381Y-123778750D02*
X144641666Y-123790654D01*
X144641666Y-123790654D02*
X144617857Y-123790654D01*
X144617857Y-123790654D02*
X144582143Y-123778750D01*
X144582143Y-123778750D02*
X144558333Y-123754940D01*
X144558333Y-123754940D02*
X144546428Y-123731130D01*
X144546428Y-123731130D02*
X144534524Y-123683511D01*
X144534524Y-123683511D02*
X144534524Y-123647797D01*
X144534524Y-123647797D02*
X144546428Y-123600178D01*
X144546428Y-123600178D02*
X144558333Y-123576369D01*
X144558333Y-123576369D02*
X144582143Y-123552559D01*
X144582143Y-123552559D02*
X144617857Y-123540654D01*
X144617857Y-123540654D02*
X144641666Y-123540654D01*
X144641666Y-123540654D02*
X144677381Y-123552559D01*
X144677381Y-123552559D02*
X144689285Y-123564464D01*
X144784524Y-123564464D02*
X144796428Y-123552559D01*
X144796428Y-123552559D02*
X144820238Y-123540654D01*
X144820238Y-123540654D02*
X144879762Y-123540654D01*
X144879762Y-123540654D02*
X144903571Y-123552559D01*
X144903571Y-123552559D02*
X144915476Y-123564464D01*
X144915476Y-123564464D02*
X144927381Y-123588273D01*
X144927381Y-123588273D02*
X144927381Y-123612083D01*
X144927381Y-123612083D02*
X144915476Y-123647797D01*
X144915476Y-123647797D02*
X144772619Y-123790654D01*
X144772619Y-123790654D02*
X144927381Y-123790654D01*
X145022619Y-123564464D02*
X145034523Y-123552559D01*
X145034523Y-123552559D02*
X145058333Y-123540654D01*
X145058333Y-123540654D02*
X145117857Y-123540654D01*
X145117857Y-123540654D02*
X145141666Y-123552559D01*
X145141666Y-123552559D02*
X145153571Y-123564464D01*
X145153571Y-123564464D02*
X145165476Y-123588273D01*
X145165476Y-123588273D02*
X145165476Y-123612083D01*
X145165476Y-123612083D02*
X145153571Y-123647797D01*
X145153571Y-123647797D02*
X145010714Y-123790654D01*
X145010714Y-123790654D02*
X145165476Y-123790654D01*
D11*
X121586666Y-99792619D02*
X121586666Y-100506904D01*
X121586666Y-100506904D02*
X121539047Y-100649761D01*
X121539047Y-100649761D02*
X121443809Y-100745000D01*
X121443809Y-100745000D02*
X121300952Y-100792619D01*
X121300952Y-100792619D02*
X121205714Y-100792619D01*
X122539047Y-99792619D02*
X122062857Y-99792619D01*
X122062857Y-99792619D02*
X122015238Y-100268809D01*
X122015238Y-100268809D02*
X122062857Y-100221190D01*
X122062857Y-100221190D02*
X122158095Y-100173571D01*
X122158095Y-100173571D02*
X122396190Y-100173571D01*
X122396190Y-100173571D02*
X122491428Y-100221190D01*
X122491428Y-100221190D02*
X122539047Y-100268809D01*
X122539047Y-100268809D02*
X122586666Y-100364047D01*
X122586666Y-100364047D02*
X122586666Y-100602142D01*
X122586666Y-100602142D02*
X122539047Y-100697380D01*
X122539047Y-100697380D02*
X122491428Y-100745000D01*
X122491428Y-100745000D02*
X122396190Y-100792619D01*
X122396190Y-100792619D02*
X122158095Y-100792619D01*
X122158095Y-100792619D02*
X122062857Y-100745000D01*
X122062857Y-100745000D02*
X122015238Y-100697380D01*
X117354464Y-105591111D02*
X117925892Y-105591111D01*
X117640178Y-106591111D02*
X117640178Y-105591111D01*
X118259226Y-106591111D02*
X118259226Y-105591111D01*
X118259226Y-105591111D02*
X118640178Y-105591111D01*
X118640178Y-105591111D02*
X118735416Y-105638730D01*
X118735416Y-105638730D02*
X118783035Y-105686349D01*
X118783035Y-105686349D02*
X118830654Y-105781587D01*
X118830654Y-105781587D02*
X118830654Y-105924444D01*
X118830654Y-105924444D02*
X118783035Y-106019682D01*
X118783035Y-106019682D02*
X118735416Y-106067301D01*
X118735416Y-106067301D02*
X118640178Y-106114920D01*
X118640178Y-106114920D02*
X118259226Y-106114920D01*
X119163988Y-105591111D02*
X119783035Y-105591111D01*
X119783035Y-105591111D02*
X119449702Y-105972063D01*
X119449702Y-105972063D02*
X119592559Y-105972063D01*
X119592559Y-105972063D02*
X119687797Y-106019682D01*
X119687797Y-106019682D02*
X119735416Y-106067301D01*
X119735416Y-106067301D02*
X119783035Y-106162539D01*
X119783035Y-106162539D02*
X119783035Y-106400634D01*
X119783035Y-106400634D02*
X119735416Y-106495872D01*
X119735416Y-106495872D02*
X119687797Y-106543492D01*
X119687797Y-106543492D02*
X119592559Y-106591111D01*
X119592559Y-106591111D02*
X119306845Y-106591111D01*
X119306845Y-106591111D02*
X119211607Y-106543492D01*
X119211607Y-106543492D02*
X119163988Y-106495872D01*
D12*
X144687274Y-122757613D02*
X144675370Y-122769518D01*
X144675370Y-122769518D02*
X144639655Y-122781422D01*
X144639655Y-122781422D02*
X144615846Y-122781422D01*
X144615846Y-122781422D02*
X144580132Y-122769518D01*
X144580132Y-122769518D02*
X144556322Y-122745708D01*
X144556322Y-122745708D02*
X144544417Y-122721898D01*
X144544417Y-122721898D02*
X144532513Y-122674279D01*
X144532513Y-122674279D02*
X144532513Y-122638565D01*
X144532513Y-122638565D02*
X144544417Y-122590946D01*
X144544417Y-122590946D02*
X144556322Y-122567137D01*
X144556322Y-122567137D02*
X144580132Y-122543327D01*
X144580132Y-122543327D02*
X144615846Y-122531422D01*
X144615846Y-122531422D02*
X144639655Y-122531422D01*
X144639655Y-122531422D02*
X144675370Y-122543327D01*
X144675370Y-122543327D02*
X144687274Y-122555232D01*
X144925370Y-122781422D02*
X144782513Y-122781422D01*
X144853941Y-122781422D02*
X144853941Y-122531422D01*
X144853941Y-122531422D02*
X144830132Y-122567137D01*
X144830132Y-122567137D02*
X144806322Y-122590946D01*
X144806322Y-122590946D02*
X144782513Y-122602851D01*
X145008703Y-122531422D02*
X145163465Y-122531422D01*
X145163465Y-122531422D02*
X145080131Y-122626660D01*
X145080131Y-122626660D02*
X145115846Y-122626660D01*
X145115846Y-122626660D02*
X145139655Y-122638565D01*
X145139655Y-122638565D02*
X145151560Y-122650470D01*
X145151560Y-122650470D02*
X145163465Y-122674279D01*
X145163465Y-122674279D02*
X145163465Y-122733803D01*
X145163465Y-122733803D02*
X145151560Y-122757613D01*
X145151560Y-122757613D02*
X145139655Y-122769518D01*
X145139655Y-122769518D02*
X145115846Y-122781422D01*
X145115846Y-122781422D02*
X145044417Y-122781422D01*
X145044417Y-122781422D02*
X145020608Y-122769518D01*
X145020608Y-122769518D02*
X145008703Y-122757613D01*
D11*
X93895966Y-147830865D02*
X94467394Y-147830865D01*
X94181680Y-148830865D02*
X94181680Y-147830865D01*
X94943585Y-148830865D02*
X94848347Y-148783246D01*
X94848347Y-148783246D02*
X94800728Y-148735626D01*
X94800728Y-148735626D02*
X94753109Y-148640388D01*
X94753109Y-148640388D02*
X94753109Y-148354674D01*
X94753109Y-148354674D02*
X94800728Y-148259436D01*
X94800728Y-148259436D02*
X94848347Y-148211817D01*
X94848347Y-148211817D02*
X94943585Y-148164198D01*
X94943585Y-148164198D02*
X95086442Y-148164198D01*
X95086442Y-148164198D02*
X95181680Y-148211817D01*
X95181680Y-148211817D02*
X95229299Y-148259436D01*
X95229299Y-148259436D02*
X95276918Y-148354674D01*
X95276918Y-148354674D02*
X95276918Y-148640388D01*
X95276918Y-148640388D02*
X95229299Y-148735626D01*
X95229299Y-148735626D02*
X95181680Y-148783246D01*
X95181680Y-148783246D02*
X95086442Y-148830865D01*
X95086442Y-148830865D02*
X94943585Y-148830865D01*
X96800728Y-148307055D02*
X96943585Y-148354674D01*
X96943585Y-148354674D02*
X96991204Y-148402293D01*
X96991204Y-148402293D02*
X97038823Y-148497531D01*
X97038823Y-148497531D02*
X97038823Y-148640388D01*
X97038823Y-148640388D02*
X96991204Y-148735626D01*
X96991204Y-148735626D02*
X96943585Y-148783246D01*
X96943585Y-148783246D02*
X96848347Y-148830865D01*
X96848347Y-148830865D02*
X96467395Y-148830865D01*
X96467395Y-148830865D02*
X96467395Y-147830865D01*
X96467395Y-147830865D02*
X96800728Y-147830865D01*
X96800728Y-147830865D02*
X96895966Y-147878484D01*
X96895966Y-147878484D02*
X96943585Y-147926103D01*
X96943585Y-147926103D02*
X96991204Y-148021341D01*
X96991204Y-148021341D02*
X96991204Y-148116579D01*
X96991204Y-148116579D02*
X96943585Y-148211817D01*
X96943585Y-148211817D02*
X96895966Y-148259436D01*
X96895966Y-148259436D02*
X96800728Y-148307055D01*
X96800728Y-148307055D02*
X96467395Y-148307055D01*
X97895966Y-148164198D02*
X97895966Y-148830865D01*
X97467395Y-148164198D02*
X97467395Y-148688007D01*
X97467395Y-148688007D02*
X97515014Y-148783246D01*
X97515014Y-148783246D02*
X97610252Y-148830865D01*
X97610252Y-148830865D02*
X97753109Y-148830865D01*
X97753109Y-148830865D02*
X97848347Y-148783246D01*
X97848347Y-148783246D02*
X97895966Y-148735626D01*
X98229300Y-148164198D02*
X98610252Y-148164198D01*
X98372157Y-147830865D02*
X98372157Y-148688007D01*
X98372157Y-148688007D02*
X98419776Y-148783246D01*
X98419776Y-148783246D02*
X98515014Y-148830865D01*
X98515014Y-148830865D02*
X98610252Y-148830865D01*
X98800729Y-148164198D02*
X99181681Y-148164198D01*
X98943586Y-147830865D02*
X98943586Y-148688007D01*
X98943586Y-148688007D02*
X98991205Y-148783246D01*
X98991205Y-148783246D02*
X99086443Y-148830865D01*
X99086443Y-148830865D02*
X99181681Y-148830865D01*
X99657872Y-148830865D02*
X99562634Y-148783246D01*
X99562634Y-148783246D02*
X99515015Y-148735626D01*
X99515015Y-148735626D02*
X99467396Y-148640388D01*
X99467396Y-148640388D02*
X99467396Y-148354674D01*
X99467396Y-148354674D02*
X99515015Y-148259436D01*
X99515015Y-148259436D02*
X99562634Y-148211817D01*
X99562634Y-148211817D02*
X99657872Y-148164198D01*
X99657872Y-148164198D02*
X99800729Y-148164198D01*
X99800729Y-148164198D02*
X99895967Y-148211817D01*
X99895967Y-148211817D02*
X99943586Y-148259436D01*
X99943586Y-148259436D02*
X99991205Y-148354674D01*
X99991205Y-148354674D02*
X99991205Y-148640388D01*
X99991205Y-148640388D02*
X99943586Y-148735626D01*
X99943586Y-148735626D02*
X99895967Y-148783246D01*
X99895967Y-148783246D02*
X99800729Y-148830865D01*
X99800729Y-148830865D02*
X99657872Y-148830865D01*
X100419777Y-148164198D02*
X100419777Y-148830865D01*
X100419777Y-148259436D02*
X100467396Y-148211817D01*
X100467396Y-148211817D02*
X100562634Y-148164198D01*
X100562634Y-148164198D02*
X100705491Y-148164198D01*
X100705491Y-148164198D02*
X100800729Y-148211817D01*
X100800729Y-148211817D02*
X100848348Y-148307055D01*
X100848348Y-148307055D02*
X100848348Y-148830865D01*
X102419777Y-148307055D02*
X102562634Y-148354674D01*
X102562634Y-148354674D02*
X102610253Y-148402293D01*
X102610253Y-148402293D02*
X102657872Y-148497531D01*
X102657872Y-148497531D02*
X102657872Y-148640388D01*
X102657872Y-148640388D02*
X102610253Y-148735626D01*
X102610253Y-148735626D02*
X102562634Y-148783246D01*
X102562634Y-148783246D02*
X102467396Y-148830865D01*
X102467396Y-148830865D02*
X102086444Y-148830865D01*
X102086444Y-148830865D02*
X102086444Y-147830865D01*
X102086444Y-147830865D02*
X102419777Y-147830865D01*
X102419777Y-147830865D02*
X102515015Y-147878484D01*
X102515015Y-147878484D02*
X102562634Y-147926103D01*
X102562634Y-147926103D02*
X102610253Y-148021341D01*
X102610253Y-148021341D02*
X102610253Y-148116579D01*
X102610253Y-148116579D02*
X102562634Y-148211817D01*
X102562634Y-148211817D02*
X102515015Y-148259436D01*
X102515015Y-148259436D02*
X102419777Y-148307055D01*
X102419777Y-148307055D02*
X102086444Y-148307055D01*
X103229301Y-148830865D02*
X103134063Y-148783246D01*
X103134063Y-148783246D02*
X103086444Y-148735626D01*
X103086444Y-148735626D02*
X103038825Y-148640388D01*
X103038825Y-148640388D02*
X103038825Y-148354674D01*
X103038825Y-148354674D02*
X103086444Y-148259436D01*
X103086444Y-148259436D02*
X103134063Y-148211817D01*
X103134063Y-148211817D02*
X103229301Y-148164198D01*
X103229301Y-148164198D02*
X103372158Y-148164198D01*
X103372158Y-148164198D02*
X103467396Y-148211817D01*
X103467396Y-148211817D02*
X103515015Y-148259436D01*
X103515015Y-148259436D02*
X103562634Y-148354674D01*
X103562634Y-148354674D02*
X103562634Y-148640388D01*
X103562634Y-148640388D02*
X103515015Y-148735626D01*
X103515015Y-148735626D02*
X103467396Y-148783246D01*
X103467396Y-148783246D02*
X103372158Y-148830865D01*
X103372158Y-148830865D02*
X103229301Y-148830865D01*
X104419777Y-148830865D02*
X104419777Y-148307055D01*
X104419777Y-148307055D02*
X104372158Y-148211817D01*
X104372158Y-148211817D02*
X104276920Y-148164198D01*
X104276920Y-148164198D02*
X104086444Y-148164198D01*
X104086444Y-148164198D02*
X103991206Y-148211817D01*
X104419777Y-148783246D02*
X104324539Y-148830865D01*
X104324539Y-148830865D02*
X104086444Y-148830865D01*
X104086444Y-148830865D02*
X103991206Y-148783246D01*
X103991206Y-148783246D02*
X103943587Y-148688007D01*
X103943587Y-148688007D02*
X103943587Y-148592769D01*
X103943587Y-148592769D02*
X103991206Y-148497531D01*
X103991206Y-148497531D02*
X104086444Y-148449912D01*
X104086444Y-148449912D02*
X104324539Y-148449912D01*
X104324539Y-148449912D02*
X104419777Y-148402293D01*
X104895968Y-148830865D02*
X104895968Y-148164198D01*
X104895968Y-148354674D02*
X104943587Y-148259436D01*
X104943587Y-148259436D02*
X104991206Y-148211817D01*
X104991206Y-148211817D02*
X105086444Y-148164198D01*
X105086444Y-148164198D02*
X105181682Y-148164198D01*
X105943587Y-148830865D02*
X105943587Y-147830865D01*
X105943587Y-148783246D02*
X105848349Y-148830865D01*
X105848349Y-148830865D02*
X105657873Y-148830865D01*
X105657873Y-148830865D02*
X105562635Y-148783246D01*
X105562635Y-148783246D02*
X105515016Y-148735626D01*
X105515016Y-148735626D02*
X105467397Y-148640388D01*
X105467397Y-148640388D02*
X105467397Y-148354674D01*
X105467397Y-148354674D02*
X105515016Y-148259436D01*
X105515016Y-148259436D02*
X105562635Y-148211817D01*
X105562635Y-148211817D02*
X105657873Y-148164198D01*
X105657873Y-148164198D02*
X105848349Y-148164198D01*
X105848349Y-148164198D02*
X105943587Y-148211817D01*
X129683807Y-107854678D02*
X130255235Y-107854678D01*
X129969521Y-108854678D02*
X129969521Y-107854678D01*
X130588569Y-108854678D02*
X130588569Y-107854678D01*
X130588569Y-107854678D02*
X130969521Y-107854678D01*
X130969521Y-107854678D02*
X131064759Y-107902297D01*
X131064759Y-107902297D02*
X131112378Y-107949916D01*
X131112378Y-107949916D02*
X131159997Y-108045154D01*
X131159997Y-108045154D02*
X131159997Y-108188011D01*
X131159997Y-108188011D02*
X131112378Y-108283249D01*
X131112378Y-108283249D02*
X131064759Y-108330868D01*
X131064759Y-108330868D02*
X130969521Y-108378487D01*
X130969521Y-108378487D02*
X130588569Y-108378487D01*
X132017140Y-107854678D02*
X131826664Y-107854678D01*
X131826664Y-107854678D02*
X131731426Y-107902297D01*
X131731426Y-107902297D02*
X131683807Y-107949916D01*
X131683807Y-107949916D02*
X131588569Y-108092773D01*
X131588569Y-108092773D02*
X131540950Y-108283249D01*
X131540950Y-108283249D02*
X131540950Y-108664201D01*
X131540950Y-108664201D02*
X131588569Y-108759439D01*
X131588569Y-108759439D02*
X131636188Y-108807059D01*
X131636188Y-108807059D02*
X131731426Y-108854678D01*
X131731426Y-108854678D02*
X131921902Y-108854678D01*
X131921902Y-108854678D02*
X132017140Y-108807059D01*
X132017140Y-108807059D02*
X132064759Y-108759439D01*
X132064759Y-108759439D02*
X132112378Y-108664201D01*
X132112378Y-108664201D02*
X132112378Y-108426106D01*
X132112378Y-108426106D02*
X132064759Y-108330868D01*
X132064759Y-108330868D02*
X132017140Y-108283249D01*
X132017140Y-108283249D02*
X131921902Y-108235630D01*
X131921902Y-108235630D02*
X131731426Y-108235630D01*
X131731426Y-108235630D02*
X131636188Y-108283249D01*
X131636188Y-108283249D02*
X131588569Y-108330868D01*
X131588569Y-108330868D02*
X131540950Y-108426106D01*
D15*
X158461429Y-119747387D02*
X158446191Y-119777863D01*
X158446191Y-119777863D02*
X158415715Y-119808339D01*
X158415715Y-119808339D02*
X158370000Y-119854053D01*
X158370000Y-119854053D02*
X158354762Y-119884530D01*
X158354762Y-119884530D02*
X158354762Y-119915006D01*
X158430953Y-119899768D02*
X158415715Y-119930244D01*
X158415715Y-119930244D02*
X158385238Y-119960720D01*
X158385238Y-119960720D02*
X158324286Y-119975958D01*
X158324286Y-119975958D02*
X158217619Y-119975958D01*
X158217619Y-119975958D02*
X158156667Y-119960720D01*
X158156667Y-119960720D02*
X158126191Y-119930244D01*
X158126191Y-119930244D02*
X158110953Y-119899768D01*
X158110953Y-119899768D02*
X158110953Y-119838815D01*
X158110953Y-119838815D02*
X158126191Y-119808339D01*
X158126191Y-119808339D02*
X158156667Y-119777863D01*
X158156667Y-119777863D02*
X158217619Y-119762625D01*
X158217619Y-119762625D02*
X158324286Y-119762625D01*
X158324286Y-119762625D02*
X158385238Y-119777863D01*
X158385238Y-119777863D02*
X158415715Y-119808339D01*
X158415715Y-119808339D02*
X158430953Y-119838815D01*
X158430953Y-119838815D02*
X158430953Y-119899768D01*
X158430953Y-119457863D02*
X158430953Y-119640720D01*
X158430953Y-119549292D02*
X158110953Y-119549292D01*
X158110953Y-119549292D02*
X158156667Y-119579768D01*
X158156667Y-119579768D02*
X158187143Y-119610244D01*
X158187143Y-119610244D02*
X158202381Y-119640720D01*
D11*
X117337639Y-109107452D02*
X117909067Y-109107452D01*
X117623353Y-110107452D02*
X117623353Y-109107452D01*
X118242401Y-110107452D02*
X118242401Y-109107452D01*
X118242401Y-109107452D02*
X118623353Y-109107452D01*
X118623353Y-109107452D02*
X118718591Y-109155071D01*
X118718591Y-109155071D02*
X118766210Y-109202690D01*
X118766210Y-109202690D02*
X118813829Y-109297928D01*
X118813829Y-109297928D02*
X118813829Y-109440785D01*
X118813829Y-109440785D02*
X118766210Y-109536023D01*
X118766210Y-109536023D02*
X118718591Y-109583642D01*
X118718591Y-109583642D02*
X118623353Y-109631261D01*
X118623353Y-109631261D02*
X118242401Y-109631261D01*
X119194782Y-109202690D02*
X119242401Y-109155071D01*
X119242401Y-109155071D02*
X119337639Y-109107452D01*
X119337639Y-109107452D02*
X119575734Y-109107452D01*
X119575734Y-109107452D02*
X119670972Y-109155071D01*
X119670972Y-109155071D02*
X119718591Y-109202690D01*
X119718591Y-109202690D02*
X119766210Y-109297928D01*
X119766210Y-109297928D02*
X119766210Y-109393166D01*
X119766210Y-109393166D02*
X119718591Y-109536023D01*
X119718591Y-109536023D02*
X119147163Y-110107452D01*
X119147163Y-110107452D02*
X119766210Y-110107452D01*
X136708667Y-133585366D02*
X136708667Y-134378700D01*
X136708667Y-134378700D02*
X136755334Y-134472033D01*
X136755334Y-134472033D02*
X136802000Y-134518700D01*
X136802000Y-134518700D02*
X136895334Y-134565366D01*
X136895334Y-134565366D02*
X137082000Y-134565366D01*
X137082000Y-134565366D02*
X137175334Y-134518700D01*
X137175334Y-134518700D02*
X137222000Y-134472033D01*
X137222000Y-134472033D02*
X137268667Y-134378700D01*
X137268667Y-134378700D02*
X137268667Y-133585366D01*
X138248667Y-134565366D02*
X137688667Y-134565366D01*
X137968667Y-134565366D02*
X137968667Y-133585366D01*
X137968667Y-133585366D02*
X137875334Y-133725366D01*
X137875334Y-133725366D02*
X137782001Y-133818700D01*
X137782001Y-133818700D02*
X137688667Y-133865366D01*
X138855334Y-133585366D02*
X138948667Y-133585366D01*
X138948667Y-133585366D02*
X139042000Y-133632033D01*
X139042000Y-133632033D02*
X139088667Y-133678700D01*
X139088667Y-133678700D02*
X139135334Y-133772033D01*
X139135334Y-133772033D02*
X139182000Y-133958700D01*
X139182000Y-133958700D02*
X139182000Y-134192033D01*
X139182000Y-134192033D02*
X139135334Y-134378700D01*
X139135334Y-134378700D02*
X139088667Y-134472033D01*
X139088667Y-134472033D02*
X139042000Y-134518700D01*
X139042000Y-134518700D02*
X138948667Y-134565366D01*
X138948667Y-134565366D02*
X138855334Y-134565366D01*
X138855334Y-134565366D02*
X138762000Y-134518700D01*
X138762000Y-134518700D02*
X138715334Y-134472033D01*
X138715334Y-134472033D02*
X138668667Y-134378700D01*
X138668667Y-134378700D02*
X138622000Y-134192033D01*
X138622000Y-134192033D02*
X138622000Y-133958700D01*
X138622000Y-133958700D02*
X138668667Y-133772033D01*
X138668667Y-133772033D02*
X138715334Y-133678700D01*
X138715334Y-133678700D02*
X138762000Y-133632033D01*
X138762000Y-133632033D02*
X138855334Y-133585366D01*
X150509137Y-111157536D02*
X150509137Y-111967059D01*
X150509137Y-111967059D02*
X150556756Y-112062297D01*
X150556756Y-112062297D02*
X150604375Y-112109917D01*
X150604375Y-112109917D02*
X150699613Y-112157536D01*
X150699613Y-112157536D02*
X150890089Y-112157536D01*
X150890089Y-112157536D02*
X150985327Y-112109917D01*
X150985327Y-112109917D02*
X151032946Y-112062297D01*
X151032946Y-112062297D02*
X151080565Y-111967059D01*
X151080565Y-111967059D02*
X151080565Y-111157536D01*
X151604375Y-112157536D02*
X151794851Y-112157536D01*
X151794851Y-112157536D02*
X151890089Y-112109917D01*
X151890089Y-112109917D02*
X151937708Y-112062297D01*
X151937708Y-112062297D02*
X152032946Y-111919440D01*
X152032946Y-111919440D02*
X152080565Y-111728964D01*
X152080565Y-111728964D02*
X152080565Y-111348012D01*
X152080565Y-111348012D02*
X152032946Y-111252774D01*
X152032946Y-111252774D02*
X151985327Y-111205155D01*
X151985327Y-111205155D02*
X151890089Y-111157536D01*
X151890089Y-111157536D02*
X151699613Y-111157536D01*
X151699613Y-111157536D02*
X151604375Y-111205155D01*
X151604375Y-111205155D02*
X151556756Y-111252774D01*
X151556756Y-111252774D02*
X151509137Y-111348012D01*
X151509137Y-111348012D02*
X151509137Y-111586107D01*
X151509137Y-111586107D02*
X151556756Y-111681345D01*
X151556756Y-111681345D02*
X151604375Y-111728964D01*
X151604375Y-111728964D02*
X151699613Y-111776583D01*
X151699613Y-111776583D02*
X151890089Y-111776583D01*
X151890089Y-111776583D02*
X151985327Y-111728964D01*
X151985327Y-111728964D02*
X152032946Y-111681345D01*
X152032946Y-111681345D02*
X152080565Y-111586107D01*
D12*
X131541164Y-123810719D02*
X131417355Y-123897386D01*
X131541164Y-123959291D02*
X131281164Y-123959291D01*
X131281164Y-123959291D02*
X131281164Y-123860243D01*
X131281164Y-123860243D02*
X131293545Y-123835481D01*
X131293545Y-123835481D02*
X131305926Y-123823100D01*
X131305926Y-123823100D02*
X131330688Y-123810719D01*
X131330688Y-123810719D02*
X131367831Y-123810719D01*
X131367831Y-123810719D02*
X131392593Y-123823100D01*
X131392593Y-123823100D02*
X131404974Y-123835481D01*
X131404974Y-123835481D02*
X131417355Y-123860243D01*
X131417355Y-123860243D02*
X131417355Y-123959291D01*
X131541164Y-123563100D02*
X131541164Y-123711672D01*
X131541164Y-123637386D02*
X131281164Y-123637386D01*
X131281164Y-123637386D02*
X131318307Y-123662148D01*
X131318307Y-123662148D02*
X131343069Y-123686910D01*
X131343069Y-123686910D02*
X131355450Y-123711672D01*
X131541164Y-123439291D02*
X131541164Y-123389767D01*
X131541164Y-123389767D02*
X131528784Y-123365005D01*
X131528784Y-123365005D02*
X131516403Y-123352624D01*
X131516403Y-123352624D02*
X131479260Y-123327862D01*
X131479260Y-123327862D02*
X131429736Y-123315481D01*
X131429736Y-123315481D02*
X131330688Y-123315481D01*
X131330688Y-123315481D02*
X131305926Y-123327862D01*
X131305926Y-123327862D02*
X131293545Y-123340243D01*
X131293545Y-123340243D02*
X131281164Y-123365005D01*
X131281164Y-123365005D02*
X131281164Y-123414529D01*
X131281164Y-123414529D02*
X131293545Y-123439291D01*
X131293545Y-123439291D02*
X131305926Y-123451672D01*
X131305926Y-123451672D02*
X131330688Y-123464053D01*
X131330688Y-123464053D02*
X131392593Y-123464053D01*
X131392593Y-123464053D02*
X131417355Y-123451672D01*
X131417355Y-123451672D02*
X131429736Y-123439291D01*
X131429736Y-123439291D02*
X131442117Y-123414529D01*
X131442117Y-123414529D02*
X131442117Y-123365005D01*
X131442117Y-123365005D02*
X131429736Y-123340243D01*
X131429736Y-123340243D02*
X131417355Y-123327862D01*
X131417355Y-123327862D02*
X131392593Y-123315481D01*
X97053932Y-131419505D02*
X96930123Y-131506172D01*
X97053932Y-131568077D02*
X96793932Y-131568077D01*
X96793932Y-131568077D02*
X96793932Y-131469029D01*
X96793932Y-131469029D02*
X96806313Y-131444267D01*
X96806313Y-131444267D02*
X96818694Y-131431886D01*
X96818694Y-131431886D02*
X96843456Y-131419505D01*
X96843456Y-131419505D02*
X96880599Y-131419505D01*
X96880599Y-131419505D02*
X96905361Y-131431886D01*
X96905361Y-131431886D02*
X96917742Y-131444267D01*
X96917742Y-131444267D02*
X96930123Y-131469029D01*
X96930123Y-131469029D02*
X96930123Y-131568077D01*
X97053932Y-131171886D02*
X97053932Y-131320458D01*
X97053932Y-131246172D02*
X96793932Y-131246172D01*
X96793932Y-131246172D02*
X96831075Y-131270934D01*
X96831075Y-131270934D02*
X96855837Y-131295696D01*
X96855837Y-131295696D02*
X96868218Y-131320458D01*
X96793932Y-130936648D02*
X96793932Y-131060458D01*
X96793932Y-131060458D02*
X96917742Y-131072839D01*
X96917742Y-131072839D02*
X96905361Y-131060458D01*
X96905361Y-131060458D02*
X96892980Y-131035696D01*
X96892980Y-131035696D02*
X96892980Y-130973791D01*
X96892980Y-130973791D02*
X96905361Y-130949029D01*
X96905361Y-130949029D02*
X96917742Y-130936648D01*
X96917742Y-130936648D02*
X96942504Y-130924267D01*
X96942504Y-130924267D02*
X97004409Y-130924267D01*
X97004409Y-130924267D02*
X97029171Y-130936648D01*
X97029171Y-130936648D02*
X97041552Y-130949029D01*
X97041552Y-130949029D02*
X97053932Y-130973791D01*
X97053932Y-130973791D02*
X97053932Y-131035696D01*
X97053932Y-131035696D02*
X97041552Y-131060458D01*
X97041552Y-131060458D02*
X97029171Y-131072839D01*
D13*
X139666333Y-107491452D02*
X139647285Y-107510500D01*
X139647285Y-107510500D02*
X139590143Y-107529547D01*
X139590143Y-107529547D02*
X139552047Y-107529547D01*
X139552047Y-107529547D02*
X139494904Y-107510500D01*
X139494904Y-107510500D02*
X139456809Y-107472404D01*
X139456809Y-107472404D02*
X139437762Y-107434309D01*
X139437762Y-107434309D02*
X139418714Y-107358119D01*
X139418714Y-107358119D02*
X139418714Y-107300976D01*
X139418714Y-107300976D02*
X139437762Y-107224785D01*
X139437762Y-107224785D02*
X139456809Y-107186690D01*
X139456809Y-107186690D02*
X139494904Y-107148595D01*
X139494904Y-107148595D02*
X139552047Y-107129547D01*
X139552047Y-107129547D02*
X139590143Y-107129547D01*
X139590143Y-107129547D02*
X139647285Y-107148595D01*
X139647285Y-107148595D02*
X139666333Y-107167642D01*
X140009190Y-107262880D02*
X140009190Y-107529547D01*
X139913952Y-107110500D02*
X139818714Y-107396214D01*
X139818714Y-107396214D02*
X140066333Y-107396214D01*
D11*
X106226333Y-128951219D02*
X105750143Y-128951219D01*
X105750143Y-128951219D02*
X105750143Y-127951219D01*
X106702524Y-128379790D02*
X106607286Y-128332171D01*
X106607286Y-128332171D02*
X106559667Y-128284552D01*
X106559667Y-128284552D02*
X106512048Y-128189314D01*
X106512048Y-128189314D02*
X106512048Y-128141695D01*
X106512048Y-128141695D02*
X106559667Y-128046457D01*
X106559667Y-128046457D02*
X106607286Y-127998838D01*
X106607286Y-127998838D02*
X106702524Y-127951219D01*
X106702524Y-127951219D02*
X106893000Y-127951219D01*
X106893000Y-127951219D02*
X106988238Y-127998838D01*
X106988238Y-127998838D02*
X107035857Y-128046457D01*
X107035857Y-128046457D02*
X107083476Y-128141695D01*
X107083476Y-128141695D02*
X107083476Y-128189314D01*
X107083476Y-128189314D02*
X107035857Y-128284552D01*
X107035857Y-128284552D02*
X106988238Y-128332171D01*
X106988238Y-128332171D02*
X106893000Y-128379790D01*
X106893000Y-128379790D02*
X106702524Y-128379790D01*
X106702524Y-128379790D02*
X106607286Y-128427409D01*
X106607286Y-128427409D02*
X106559667Y-128475028D01*
X106559667Y-128475028D02*
X106512048Y-128570266D01*
X106512048Y-128570266D02*
X106512048Y-128760742D01*
X106512048Y-128760742D02*
X106559667Y-128855980D01*
X106559667Y-128855980D02*
X106607286Y-128903600D01*
X106607286Y-128903600D02*
X106702524Y-128951219D01*
X106702524Y-128951219D02*
X106893000Y-128951219D01*
X106893000Y-128951219D02*
X106988238Y-128903600D01*
X106988238Y-128903600D02*
X107035857Y-128855980D01*
X107035857Y-128855980D02*
X107083476Y-128760742D01*
X107083476Y-128760742D02*
X107083476Y-128570266D01*
X107083476Y-128570266D02*
X107035857Y-128475028D01*
X107035857Y-128475028D02*
X106988238Y-128427409D01*
X106988238Y-128427409D02*
X106893000Y-128379790D01*
X154370260Y-117977405D02*
X153798832Y-117977405D01*
X154084546Y-117977405D02*
X154084546Y-116977405D01*
X154084546Y-116977405D02*
X153989308Y-117120262D01*
X153989308Y-117120262D02*
X153894070Y-117215500D01*
X153894070Y-117215500D02*
X153798832Y-117263119D01*
X154989308Y-116977405D02*
X155084546Y-116977405D01*
X155084546Y-116977405D02*
X155179784Y-117025024D01*
X155179784Y-117025024D02*
X155227403Y-117072643D01*
X155227403Y-117072643D02*
X155275022Y-117167881D01*
X155275022Y-117167881D02*
X155322641Y-117358357D01*
X155322641Y-117358357D02*
X155322641Y-117596452D01*
X155322641Y-117596452D02*
X155275022Y-117786928D01*
X155275022Y-117786928D02*
X155227403Y-117882166D01*
X155227403Y-117882166D02*
X155179784Y-117929786D01*
X155179784Y-117929786D02*
X155084546Y-117977405D01*
X155084546Y-117977405D02*
X154989308Y-117977405D01*
X154989308Y-117977405D02*
X154894070Y-117929786D01*
X154894070Y-117929786D02*
X154846451Y-117882166D01*
X154846451Y-117882166D02*
X154798832Y-117786928D01*
X154798832Y-117786928D02*
X154751213Y-117596452D01*
X154751213Y-117596452D02*
X154751213Y-117358357D01*
X154751213Y-117358357D02*
X154798832Y-117167881D01*
X154798832Y-117167881D02*
X154846451Y-117072643D01*
X154846451Y-117072643D02*
X154894070Y-117025024D01*
X154894070Y-117025024D02*
X154989308Y-116977405D01*
X155751213Y-117977405D02*
X155751213Y-116977405D01*
X155846451Y-117596452D02*
X156132165Y-117977405D01*
X156132165Y-117310738D02*
X155751213Y-117691690D01*
D12*
X154922166Y-118805066D02*
X154835499Y-118681257D01*
X154773594Y-118805066D02*
X154773594Y-118545066D01*
X154773594Y-118545066D02*
X154872642Y-118545066D01*
X154872642Y-118545066D02*
X154897404Y-118557447D01*
X154897404Y-118557447D02*
X154909785Y-118569828D01*
X154909785Y-118569828D02*
X154922166Y-118594590D01*
X154922166Y-118594590D02*
X154922166Y-118631733D01*
X154922166Y-118631733D02*
X154909785Y-118656495D01*
X154909785Y-118656495D02*
X154897404Y-118668876D01*
X154897404Y-118668876D02*
X154872642Y-118681257D01*
X154872642Y-118681257D02*
X154773594Y-118681257D01*
X155169785Y-118805066D02*
X155021213Y-118805066D01*
X155095499Y-118805066D02*
X155095499Y-118545066D01*
X155095499Y-118545066D02*
X155070737Y-118582209D01*
X155070737Y-118582209D02*
X155045975Y-118606971D01*
X155045975Y-118606971D02*
X155021213Y-118619352D01*
D11*
X153424095Y-100428619D02*
X153995523Y-100428619D01*
X153709809Y-101428619D02*
X153709809Y-100428619D01*
X154328857Y-101428619D02*
X154328857Y-100428619D01*
X154328857Y-100428619D02*
X154709809Y-100428619D01*
X154709809Y-100428619D02*
X154805047Y-100476238D01*
X154805047Y-100476238D02*
X154852666Y-100523857D01*
X154852666Y-100523857D02*
X154900285Y-100619095D01*
X154900285Y-100619095D02*
X154900285Y-100761952D01*
X154900285Y-100761952D02*
X154852666Y-100857190D01*
X154852666Y-100857190D02*
X154805047Y-100904809D01*
X154805047Y-100904809D02*
X154709809Y-100952428D01*
X154709809Y-100952428D02*
X154328857Y-100952428D01*
X155376476Y-101428619D02*
X155566952Y-101428619D01*
X155566952Y-101428619D02*
X155662190Y-101381000D01*
X155662190Y-101381000D02*
X155709809Y-101333380D01*
X155709809Y-101333380D02*
X155805047Y-101190523D01*
X155805047Y-101190523D02*
X155852666Y-101000047D01*
X155852666Y-101000047D02*
X155852666Y-100619095D01*
X155852666Y-100619095D02*
X155805047Y-100523857D01*
X155805047Y-100523857D02*
X155757428Y-100476238D01*
X155757428Y-100476238D02*
X155662190Y-100428619D01*
X155662190Y-100428619D02*
X155471714Y-100428619D01*
X155471714Y-100428619D02*
X155376476Y-100476238D01*
X155376476Y-100476238D02*
X155328857Y-100523857D01*
X155328857Y-100523857D02*
X155281238Y-100619095D01*
X155281238Y-100619095D02*
X155281238Y-100857190D01*
X155281238Y-100857190D02*
X155328857Y-100952428D01*
X155328857Y-100952428D02*
X155376476Y-101000047D01*
X155376476Y-101000047D02*
X155471714Y-101047666D01*
X155471714Y-101047666D02*
X155662190Y-101047666D01*
X155662190Y-101047666D02*
X155757428Y-101000047D01*
X155757428Y-101000047D02*
X155805047Y-100952428D01*
X155805047Y-100952428D02*
X155852666Y-100857190D01*
X131718513Y-102035040D02*
X132289941Y-102035040D01*
X132004227Y-103035040D02*
X132004227Y-102035040D01*
X132623275Y-103035040D02*
X132623275Y-102035040D01*
X132623275Y-102035040D02*
X133004227Y-102035040D01*
X133004227Y-102035040D02*
X133099465Y-102082659D01*
X133099465Y-102082659D02*
X133147084Y-102130278D01*
X133147084Y-102130278D02*
X133194703Y-102225516D01*
X133194703Y-102225516D02*
X133194703Y-102368373D01*
X133194703Y-102368373D02*
X133147084Y-102463611D01*
X133147084Y-102463611D02*
X133099465Y-102511230D01*
X133099465Y-102511230D02*
X133004227Y-102558849D01*
X133004227Y-102558849D02*
X132623275Y-102558849D01*
X133528037Y-102035040D02*
X134194703Y-102035040D01*
X134194703Y-102035040D02*
X133766132Y-103035040D01*
D13*
X147533333Y-102875047D02*
X147400000Y-102684571D01*
X147304762Y-102875047D02*
X147304762Y-102475047D01*
X147304762Y-102475047D02*
X147457143Y-102475047D01*
X147457143Y-102475047D02*
X147495238Y-102494095D01*
X147495238Y-102494095D02*
X147514285Y-102513142D01*
X147514285Y-102513142D02*
X147533333Y-102551238D01*
X147533333Y-102551238D02*
X147533333Y-102608380D01*
X147533333Y-102608380D02*
X147514285Y-102646476D01*
X147514285Y-102646476D02*
X147495238Y-102665523D01*
X147495238Y-102665523D02*
X147457143Y-102684571D01*
X147457143Y-102684571D02*
X147304762Y-102684571D01*
X147723809Y-102875047D02*
X147800000Y-102875047D01*
X147800000Y-102875047D02*
X147838095Y-102856000D01*
X147838095Y-102856000D02*
X147857143Y-102836952D01*
X147857143Y-102836952D02*
X147895238Y-102779809D01*
X147895238Y-102779809D02*
X147914285Y-102703619D01*
X147914285Y-102703619D02*
X147914285Y-102551238D01*
X147914285Y-102551238D02*
X147895238Y-102513142D01*
X147895238Y-102513142D02*
X147876190Y-102494095D01*
X147876190Y-102494095D02*
X147838095Y-102475047D01*
X147838095Y-102475047D02*
X147761904Y-102475047D01*
X147761904Y-102475047D02*
X147723809Y-102494095D01*
X147723809Y-102494095D02*
X147704762Y-102513142D01*
X147704762Y-102513142D02*
X147685714Y-102551238D01*
X147685714Y-102551238D02*
X147685714Y-102646476D01*
X147685714Y-102646476D02*
X147704762Y-102684571D01*
X147704762Y-102684571D02*
X147723809Y-102703619D01*
X147723809Y-102703619D02*
X147761904Y-102722666D01*
X147761904Y-102722666D02*
X147838095Y-102722666D01*
X147838095Y-102722666D02*
X147876190Y-102703619D01*
X147876190Y-102703619D02*
X147895238Y-102684571D01*
X147895238Y-102684571D02*
X147914285Y-102646476D01*
D11*
X141406619Y-110442594D02*
X140406619Y-110442594D01*
X140406619Y-110442594D02*
X140406619Y-110204499D01*
X140406619Y-110204499D02*
X140454238Y-110061642D01*
X140454238Y-110061642D02*
X140549476Y-109966404D01*
X140549476Y-109966404D02*
X140644714Y-109918785D01*
X140644714Y-109918785D02*
X140835190Y-109871166D01*
X140835190Y-109871166D02*
X140978047Y-109871166D01*
X140978047Y-109871166D02*
X141168523Y-109918785D01*
X141168523Y-109918785D02*
X141263761Y-109966404D01*
X141263761Y-109966404D02*
X141359000Y-110061642D01*
X141359000Y-110061642D02*
X141406619Y-110204499D01*
X141406619Y-110204499D02*
X141406619Y-110442594D01*
X140406619Y-109537832D02*
X140406619Y-108918785D01*
X140406619Y-108918785D02*
X140787571Y-109252118D01*
X140787571Y-109252118D02*
X140787571Y-109109261D01*
X140787571Y-109109261D02*
X140835190Y-109014023D01*
X140835190Y-109014023D02*
X140882809Y-108966404D01*
X140882809Y-108966404D02*
X140978047Y-108918785D01*
X140978047Y-108918785D02*
X141216142Y-108918785D01*
X141216142Y-108918785D02*
X141311380Y-108966404D01*
X141311380Y-108966404D02*
X141359000Y-109014023D01*
X141359000Y-109014023D02*
X141406619Y-109109261D01*
X141406619Y-109109261D02*
X141406619Y-109394975D01*
X141406619Y-109394975D02*
X141359000Y-109490213D01*
X141359000Y-109490213D02*
X141311380Y-109537832D01*
D12*
X151435112Y-122862036D02*
X151311303Y-122948703D01*
X151435112Y-123010608D02*
X151175112Y-123010608D01*
X151175112Y-123010608D02*
X151175112Y-122911560D01*
X151175112Y-122911560D02*
X151187493Y-122886798D01*
X151187493Y-122886798D02*
X151199874Y-122874417D01*
X151199874Y-122874417D02*
X151224636Y-122862036D01*
X151224636Y-122862036D02*
X151261779Y-122862036D01*
X151261779Y-122862036D02*
X151286541Y-122874417D01*
X151286541Y-122874417D02*
X151298922Y-122886798D01*
X151298922Y-122886798D02*
X151311303Y-122911560D01*
X151311303Y-122911560D02*
X151311303Y-123010608D01*
X151175112Y-122775370D02*
X151175112Y-122614417D01*
X151175112Y-122614417D02*
X151274160Y-122701084D01*
X151274160Y-122701084D02*
X151274160Y-122663941D01*
X151274160Y-122663941D02*
X151286541Y-122639179D01*
X151286541Y-122639179D02*
X151298922Y-122626798D01*
X151298922Y-122626798D02*
X151323684Y-122614417D01*
X151323684Y-122614417D02*
X151385589Y-122614417D01*
X151385589Y-122614417D02*
X151410351Y-122626798D01*
X151410351Y-122626798D02*
X151422732Y-122639179D01*
X151422732Y-122639179D02*
X151435112Y-122663941D01*
X151435112Y-122663941D02*
X151435112Y-122738227D01*
X151435112Y-122738227D02*
X151422732Y-122762989D01*
X151422732Y-122762989D02*
X151410351Y-122775370D01*
D11*
X151857926Y-122789049D02*
X152429354Y-122789049D01*
X152143640Y-123789049D02*
X152143640Y-122789049D01*
X152762688Y-123789049D02*
X152762688Y-122789049D01*
X152762688Y-122789049D02*
X153143640Y-122789049D01*
X153143640Y-122789049D02*
X153238878Y-122836668D01*
X153238878Y-122836668D02*
X153286497Y-122884287D01*
X153286497Y-122884287D02*
X153334116Y-122979525D01*
X153334116Y-122979525D02*
X153334116Y-123122382D01*
X153334116Y-123122382D02*
X153286497Y-123217620D01*
X153286497Y-123217620D02*
X153238878Y-123265239D01*
X153238878Y-123265239D02*
X153143640Y-123312858D01*
X153143640Y-123312858D02*
X152762688Y-123312858D01*
X153905545Y-123217620D02*
X153810307Y-123170001D01*
X153810307Y-123170001D02*
X153762688Y-123122382D01*
X153762688Y-123122382D02*
X153715069Y-123027144D01*
X153715069Y-123027144D02*
X153715069Y-122979525D01*
X153715069Y-122979525D02*
X153762688Y-122884287D01*
X153762688Y-122884287D02*
X153810307Y-122836668D01*
X153810307Y-122836668D02*
X153905545Y-122789049D01*
X153905545Y-122789049D02*
X154096021Y-122789049D01*
X154096021Y-122789049D02*
X154191259Y-122836668D01*
X154191259Y-122836668D02*
X154238878Y-122884287D01*
X154238878Y-122884287D02*
X154286497Y-122979525D01*
X154286497Y-122979525D02*
X154286497Y-123027144D01*
X154286497Y-123027144D02*
X154238878Y-123122382D01*
X154238878Y-123122382D02*
X154191259Y-123170001D01*
X154191259Y-123170001D02*
X154096021Y-123217620D01*
X154096021Y-123217620D02*
X153905545Y-123217620D01*
X153905545Y-123217620D02*
X153810307Y-123265239D01*
X153810307Y-123265239D02*
X153762688Y-123312858D01*
X153762688Y-123312858D02*
X153715069Y-123408096D01*
X153715069Y-123408096D02*
X153715069Y-123598572D01*
X153715069Y-123598572D02*
X153762688Y-123693810D01*
X153762688Y-123693810D02*
X153810307Y-123741430D01*
X153810307Y-123741430D02*
X153905545Y-123789049D01*
X153905545Y-123789049D02*
X154096021Y-123789049D01*
X154096021Y-123789049D02*
X154191259Y-123741430D01*
X154191259Y-123741430D02*
X154238878Y-123693810D01*
X154238878Y-123693810D02*
X154286497Y-123598572D01*
X154286497Y-123598572D02*
X154286497Y-123408096D01*
X154286497Y-123408096D02*
X154238878Y-123312858D01*
X154238878Y-123312858D02*
X154191259Y-123265239D01*
X154191259Y-123265239D02*
X154096021Y-123217620D01*
D13*
X147483333Y-104305047D02*
X147350000Y-104114571D01*
X147254762Y-104305047D02*
X147254762Y-103905047D01*
X147254762Y-103905047D02*
X147407143Y-103905047D01*
X147407143Y-103905047D02*
X147445238Y-103924095D01*
X147445238Y-103924095D02*
X147464285Y-103943142D01*
X147464285Y-103943142D02*
X147483333Y-103981238D01*
X147483333Y-103981238D02*
X147483333Y-104038380D01*
X147483333Y-104038380D02*
X147464285Y-104076476D01*
X147464285Y-104076476D02*
X147445238Y-104095523D01*
X147445238Y-104095523D02*
X147407143Y-104114571D01*
X147407143Y-104114571D02*
X147254762Y-104114571D01*
X147711904Y-104076476D02*
X147673809Y-104057428D01*
X147673809Y-104057428D02*
X147654762Y-104038380D01*
X147654762Y-104038380D02*
X147635714Y-104000285D01*
X147635714Y-104000285D02*
X147635714Y-103981238D01*
X147635714Y-103981238D02*
X147654762Y-103943142D01*
X147654762Y-103943142D02*
X147673809Y-103924095D01*
X147673809Y-103924095D02*
X147711904Y-103905047D01*
X147711904Y-103905047D02*
X147788095Y-103905047D01*
X147788095Y-103905047D02*
X147826190Y-103924095D01*
X147826190Y-103924095D02*
X147845238Y-103943142D01*
X147845238Y-103943142D02*
X147864285Y-103981238D01*
X147864285Y-103981238D02*
X147864285Y-104000285D01*
X147864285Y-104000285D02*
X147845238Y-104038380D01*
X147845238Y-104038380D02*
X147826190Y-104057428D01*
X147826190Y-104057428D02*
X147788095Y-104076476D01*
X147788095Y-104076476D02*
X147711904Y-104076476D01*
X147711904Y-104076476D02*
X147673809Y-104095523D01*
X147673809Y-104095523D02*
X147654762Y-104114571D01*
X147654762Y-104114571D02*
X147635714Y-104152666D01*
X147635714Y-104152666D02*
X147635714Y-104228857D01*
X147635714Y-104228857D02*
X147654762Y-104266952D01*
X147654762Y-104266952D02*
X147673809Y-104286000D01*
X147673809Y-104286000D02*
X147711904Y-104305047D01*
X147711904Y-104305047D02*
X147788095Y-104305047D01*
X147788095Y-104305047D02*
X147826190Y-104286000D01*
X147826190Y-104286000D02*
X147845238Y-104266952D01*
X147845238Y-104266952D02*
X147864285Y-104228857D01*
X147864285Y-104228857D02*
X147864285Y-104152666D01*
X147864285Y-104152666D02*
X147845238Y-104114571D01*
X147845238Y-104114571D02*
X147826190Y-104095523D01*
X147826190Y-104095523D02*
X147788095Y-104076476D01*
D11*
X131310004Y-109513939D02*
X131881432Y-109513939D01*
X131595718Y-110513939D02*
X131595718Y-109513939D01*
X132214766Y-110513939D02*
X132214766Y-109513939D01*
X132214766Y-109513939D02*
X132595718Y-109513939D01*
X132595718Y-109513939D02*
X132690956Y-109561558D01*
X132690956Y-109561558D02*
X132738575Y-109609177D01*
X132738575Y-109609177D02*
X132786194Y-109704415D01*
X132786194Y-109704415D02*
X132786194Y-109847272D01*
X132786194Y-109847272D02*
X132738575Y-109942510D01*
X132738575Y-109942510D02*
X132690956Y-109990129D01*
X132690956Y-109990129D02*
X132595718Y-110037748D01*
X132595718Y-110037748D02*
X132214766Y-110037748D01*
X133690956Y-109513939D02*
X133214766Y-109513939D01*
X133214766Y-109513939D02*
X133167147Y-109990129D01*
X133167147Y-109990129D02*
X133214766Y-109942510D01*
X133214766Y-109942510D02*
X133310004Y-109894891D01*
X133310004Y-109894891D02*
X133548099Y-109894891D01*
X133548099Y-109894891D02*
X133643337Y-109942510D01*
X133643337Y-109942510D02*
X133690956Y-109990129D01*
X133690956Y-109990129D02*
X133738575Y-110085367D01*
X133738575Y-110085367D02*
X133738575Y-110323462D01*
X133738575Y-110323462D02*
X133690956Y-110418700D01*
X133690956Y-110418700D02*
X133643337Y-110466320D01*
X133643337Y-110466320D02*
X133548099Y-110513939D01*
X133548099Y-110513939D02*
X133310004Y-110513939D01*
X133310004Y-110513939D02*
X133214766Y-110466320D01*
X133214766Y-110466320D02*
X133167147Y-110418700D01*
D12*
X139593289Y-129063086D02*
X139469480Y-129149753D01*
X139593289Y-129211658D02*
X139333289Y-129211658D01*
X139333289Y-129211658D02*
X139333289Y-129112610D01*
X139333289Y-129112610D02*
X139345670Y-129087848D01*
X139345670Y-129087848D02*
X139358051Y-129075467D01*
X139358051Y-129075467D02*
X139382813Y-129063086D01*
X139382813Y-129063086D02*
X139419956Y-129063086D01*
X139419956Y-129063086D02*
X139444718Y-129075467D01*
X139444718Y-129075467D02*
X139457099Y-129087848D01*
X139457099Y-129087848D02*
X139469480Y-129112610D01*
X139469480Y-129112610D02*
X139469480Y-129211658D01*
X139358051Y-128964039D02*
X139345670Y-128951658D01*
X139345670Y-128951658D02*
X139333289Y-128926896D01*
X139333289Y-128926896D02*
X139333289Y-128864991D01*
X139333289Y-128864991D02*
X139345670Y-128840229D01*
X139345670Y-128840229D02*
X139358051Y-128827848D01*
X139358051Y-128827848D02*
X139382813Y-128815467D01*
X139382813Y-128815467D02*
X139407575Y-128815467D01*
X139407575Y-128815467D02*
X139444718Y-128827848D01*
X139444718Y-128827848D02*
X139593289Y-128976420D01*
X139593289Y-128976420D02*
X139593289Y-128815467D01*
X139333289Y-128654515D02*
X139333289Y-128629753D01*
X139333289Y-128629753D02*
X139345670Y-128604991D01*
X139345670Y-128604991D02*
X139358051Y-128592610D01*
X139358051Y-128592610D02*
X139382813Y-128580229D01*
X139382813Y-128580229D02*
X139432337Y-128567848D01*
X139432337Y-128567848D02*
X139494242Y-128567848D01*
X139494242Y-128567848D02*
X139543766Y-128580229D01*
X139543766Y-128580229D02*
X139568528Y-128592610D01*
X139568528Y-128592610D02*
X139580909Y-128604991D01*
X139580909Y-128604991D02*
X139593289Y-128629753D01*
X139593289Y-128629753D02*
X139593289Y-128654515D01*
X139593289Y-128654515D02*
X139580909Y-128679277D01*
X139580909Y-128679277D02*
X139568528Y-128691658D01*
X139568528Y-128691658D02*
X139543766Y-128704039D01*
X139543766Y-128704039D02*
X139494242Y-128716420D01*
X139494242Y-128716420D02*
X139432337Y-128716420D01*
X139432337Y-128716420D02*
X139382813Y-128704039D01*
X139382813Y-128704039D02*
X139358051Y-128691658D01*
X139358051Y-128691658D02*
X139345670Y-128679277D01*
X139345670Y-128679277D02*
X139333289Y-128654515D01*
D18*
X152122760Y-123349312D02*
X152122760Y-122299312D01*
X152662760Y-123349312D02*
X152122760Y-123349312D01*
X152122760Y-122299312D02*
X152662760Y-122299312D01*
X152662760Y-122299312D02*
X152662760Y-123349312D01*
X171713595Y-145169174D02*
X172348595Y-144534174D01*
X171713595Y-147074174D02*
X171713595Y-145169174D01*
X172348595Y-144534174D02*
X174253595Y-144534174D01*
X174253595Y-144534174D02*
X174253595Y-147074174D01*
X174253595Y-147074174D02*
X171713595Y-147074174D01*
X145393378Y-124944084D02*
X144343378Y-124944084D01*
X145393378Y-124404084D02*
X145393378Y-124944084D01*
X144343378Y-124944084D02*
X144343378Y-124404084D01*
X144343378Y-124404084D02*
X145393378Y-124404084D01*
X155335499Y-115674786D02*
X158135499Y-115674786D01*
X155335499Y-117474786D02*
X155335499Y-115674786D01*
X155985499Y-116574786D02*
X156385499Y-116574786D01*
X156385499Y-116574786D02*
X156385499Y-116024786D01*
X156385499Y-116574786D02*
X156385499Y-117124786D01*
X156385499Y-116574786D02*
X156985499Y-116174786D01*
X156985499Y-116174786D02*
X156985499Y-116974786D01*
X156985499Y-116574786D02*
X157485499Y-116574786D01*
X156985499Y-116974786D02*
X156385499Y-116574786D01*
X158135499Y-115674786D02*
X158135499Y-117474786D01*
X158135499Y-117474786D02*
X155335499Y-117474786D01*
X133038988Y-136753904D02*
X133038988Y-138353904D01*
X132238988Y-136753904D02*
X133038988Y-136753904D01*
X133038988Y-138353904D02*
X132238988Y-138353904D01*
X132238988Y-138353904D02*
X132238988Y-136753904D01*
X162291317Y-118769380D02*
X162291317Y-119819380D01*
X161751317Y-118769380D02*
X162291317Y-118769380D01*
X162291317Y-119819380D02*
X161751317Y-119819380D01*
X161751317Y-119819380D02*
X161751317Y-118769380D01*
X170469623Y-139493477D02*
X170469623Y-138443477D01*
X171009623Y-139493477D02*
X170469623Y-139493477D01*
X170469623Y-138443477D02*
X171009623Y-138443477D01*
X171009623Y-138443477D02*
X171009623Y-139493477D01*
X114130156Y-123614537D02*
X115105156Y-122639537D01*
X114130156Y-127539537D02*
X114130156Y-123614537D01*
X115105156Y-122639537D02*
X118030156Y-122639537D01*
X118030156Y-122639537D02*
X118030156Y-127539537D01*
X118030156Y-127539537D02*
X114130156Y-127539537D01*
X95717457Y-130080391D02*
X95717457Y-131680391D01*
X94917457Y-130080391D02*
X95717457Y-130080391D01*
X95717457Y-131680391D02*
X94917457Y-131680391D01*
X94917457Y-131680391D02*
X94917457Y-130080391D01*
X116400000Y-121450000D02*
X115900000Y-121950000D01*
X116400000Y-109950000D02*
X116400000Y-121450000D01*
X115900000Y-121950000D02*
X114400000Y-121950000D01*
X114400000Y-121950000D02*
X114400000Y-109950000D01*
X114400000Y-109950000D02*
X116400000Y-109950000D01*
X123392500Y-105685000D02*
X123717500Y-105360000D01*
X123392500Y-108260000D02*
X123392500Y-105685000D01*
X123717500Y-105360000D02*
X124692500Y-105360000D01*
X124692500Y-105360000D02*
X124692500Y-108260000D01*
X124692500Y-108260000D02*
X123392500Y-108260000D01*
X123380000Y-112755000D02*
X123705000Y-112430000D01*
X123380000Y-115330000D02*
X123380000Y-112755000D01*
X123705000Y-112430000D02*
X124680000Y-112430000D01*
X124680000Y-112430000D02*
X124680000Y-115330000D01*
X124680000Y-115330000D02*
X123380000Y-115330000D01*
X131555000Y-120861418D02*
X132605000Y-120861418D01*
X131555000Y-121401418D02*
X131555000Y-120861418D01*
X132605000Y-120861418D02*
X132605000Y-121401418D01*
X132605000Y-121401418D02*
X131555000Y-121401418D01*
X163250004Y-151098757D02*
X161650004Y-151098757D01*
X163250004Y-150298757D02*
X163250004Y-151098757D01*
X161650004Y-151098757D02*
X161650004Y-150298757D01*
X161650004Y-150298757D02*
X163250004Y-150298757D01*
X137452000Y-109144000D02*
X137452000Y-112344000D01*
X135852000Y-109144000D02*
X137452000Y-109144000D01*
X137452000Y-112344000D02*
X135852000Y-112344000D01*
X135852000Y-112344000D02*
X135852000Y-109144000D01*
X121356500Y-109569000D02*
X121356500Y-111169000D01*
X120531500Y-109569000D02*
X121356500Y-109569000D01*
X121356500Y-111169000D02*
X120531500Y-111169000D01*
X120531500Y-111169000D02*
X120531500Y-109569000D01*
X163228973Y-119417393D02*
X162903973Y-119092393D01*
X165803973Y-119417393D02*
X163228973Y-119417393D01*
X162903973Y-119092393D02*
X162903973Y-118117393D01*
X162903973Y-118117393D02*
X165803973Y-118117393D01*
X165803973Y-118117393D02*
X165803973Y-119417393D01*
X154888965Y-108349075D02*
X153888965Y-108349075D01*
X154888965Y-107849075D02*
X154888965Y-108349075D01*
X153888965Y-108349075D02*
X153888965Y-107849075D01*
X153888965Y-107849075D02*
X154888965Y-107849075D01*
X140800000Y-119800000D02*
X141800000Y-120800000D01*
X134800000Y-119800000D02*
X140800000Y-119800000D01*
X141800000Y-120800000D02*
X141800000Y-126800000D01*
X141800000Y-126800000D02*
X134800000Y-126800000D01*
X134800000Y-126800000D02*
X134800000Y-119800000D01*
X143370000Y-126200000D02*
X143370000Y-127200000D01*
X142870000Y-126200000D02*
X143370000Y-126200000D01*
X143370000Y-127200000D02*
X142870000Y-127200000D01*
X142870000Y-127200000D02*
X142870000Y-126200000D01*
X121349500Y-113010000D02*
X121349500Y-114610000D01*
X120524500Y-113010000D02*
X121349500Y-113010000D01*
X121349500Y-114610000D02*
X120524500Y-114610000D01*
X120524500Y-114610000D02*
X120524500Y-113010000D01*
X130978718Y-113224462D02*
X132778718Y-113224462D01*
X130978718Y-114624462D02*
X130978718Y-113224462D01*
X131578718Y-113574462D02*
X131578718Y-114274462D01*
X131578718Y-113924462D02*
X131378718Y-113924462D01*
X131578718Y-113924462D02*
X132078718Y-113574462D01*
X132078718Y-113574462D02*
X132078718Y-114274462D01*
X132078718Y-113924462D02*
X132328718Y-113924462D01*
X132078718Y-114274462D02*
X131578718Y-113924462D01*
X132778718Y-113224462D02*
X132778718Y-114624462D01*
X132778718Y-114624462D02*
X130978718Y-114624462D01*
X117366000Y-120835500D02*
X117366000Y-117635500D01*
X118966000Y-120835500D02*
X117366000Y-120835500D01*
X117366000Y-117635500D02*
X118966000Y-117635500D01*
X118966000Y-117635500D02*
X118966000Y-120835500D01*
X122800000Y-121950000D02*
X122800000Y-120150000D01*
X124200000Y-121950000D02*
X122800000Y-121950000D01*
X123150000Y-121350000D02*
X123850000Y-121350000D01*
X123500000Y-121350000D02*
X123500000Y-121550000D01*
X123500000Y-121350000D02*
X123150000Y-120850000D01*
X123150000Y-120850000D02*
X123850000Y-120850000D01*
X123500000Y-120850000D02*
X123500000Y-120600000D01*
X123850000Y-120850000D02*
X123500000Y-121350000D01*
X122800000Y-120150000D02*
X124200000Y-120150000D01*
X124200000Y-120150000D02*
X124200000Y-121950000D01*
X133381612Y-124049940D02*
X132381612Y-124049940D01*
X133381612Y-123549940D02*
X133381612Y-124049940D01*
X132381612Y-124049940D02*
X132381612Y-123549940D01*
X132381612Y-123549940D02*
X133381612Y-123549940D01*
X128880000Y-114352500D02*
X127280000Y-114352500D01*
X128880000Y-113527500D02*
X128880000Y-114352500D01*
X127280000Y-114352500D02*
X127280000Y-113527500D01*
X127280000Y-113527500D02*
X128880000Y-113527500D01*
X161220598Y-118767478D02*
X161220598Y-119817478D01*
X160680598Y-118767478D02*
X161220598Y-118767478D01*
X161220598Y-119817478D02*
X160680598Y-119817478D01*
X160680598Y-119817478D02*
X160680598Y-118767478D01*
X126412999Y-139794151D02*
X128012999Y-139794151D01*
X126412999Y-140594151D02*
X126412999Y-139794151D01*
X128012999Y-139794151D02*
X128012999Y-140594151D01*
X128012999Y-140594151D02*
X126412999Y-140594151D01*
X162253973Y-121267393D02*
X165453973Y-121267393D01*
X162253973Y-122867393D02*
X162253973Y-121267393D01*
X165453973Y-121267393D02*
X165453973Y-122867393D01*
X165453973Y-122867393D02*
X162253973Y-122867393D01*
X153730499Y-122004786D02*
X153405499Y-121679786D01*
X156305499Y-122004786D02*
X153730499Y-122004786D01*
X153405499Y-121679786D02*
X153405499Y-120704786D01*
X153405499Y-120704786D02*
X156305499Y-120704786D01*
X156305499Y-120704786D02*
X156305499Y-122004786D01*
X145398475Y-125968631D02*
X144348475Y-125968631D01*
X145398475Y-125428631D02*
X145398475Y-125968631D01*
X144348475Y-125968631D02*
X144348475Y-125428631D01*
X144348475Y-125428631D02*
X145398475Y-125428631D01*
X107481309Y-119097056D02*
X109081309Y-119097056D01*
X107481309Y-119897056D02*
X107481309Y-119097056D01*
X109081309Y-119097056D02*
X109081309Y-119897056D01*
X109081309Y-119897056D02*
X107481309Y-119897056D01*
X125100000Y-124325000D02*
X123500000Y-124325000D01*
X125100000Y-123525000D02*
X125100000Y-124325000D01*
X123500000Y-124325000D02*
X123500000Y-123525000D01*
X123500000Y-123525000D02*
X125100000Y-123525000D01*
X127428523Y-129547529D02*
X127428523Y-131147529D01*
X126628523Y-129547529D02*
X127428523Y-129547529D01*
X127428523Y-131147529D02*
X126628523Y-131147529D01*
X126628523Y-131147529D02*
X126628523Y-129547529D01*
X147399721Y-108180507D02*
X147399721Y-107130507D01*
X147939721Y-108180507D02*
X147399721Y-108180507D01*
X147399721Y-107130507D02*
X147939721Y-107130507D01*
X147939721Y-107130507D02*
X147939721Y-108180507D01*
X129350000Y-122075000D02*
X130450000Y-122075000D01*
X128850000Y-122575000D02*
X129350000Y-122075000D01*
X128850000Y-122575000D02*
X128850000Y-125075000D01*
X130450000Y-125075000D02*
X130450000Y-122075000D01*
X128850000Y-125075000D02*
X130450000Y-125075000D01*
X142055728Y-118331565D02*
X143055728Y-118331565D01*
X142055728Y-118831565D02*
X142055728Y-118331565D01*
X143055728Y-118331565D02*
X143055728Y-118831565D01*
X143055728Y-118831565D02*
X142055728Y-118831565D01*
X120306000Y-120872000D02*
X121506000Y-120872000D01*
X121506000Y-120872000D02*
X121506000Y-117672000D01*
X119906000Y-120472000D02*
X120306000Y-120872000D01*
X119906000Y-117672000D02*
X119906000Y-120472000D01*
X121506000Y-117672000D02*
X119906000Y-117672000D01*
X171138456Y-135414581D02*
X171138456Y-137014581D01*
X170338456Y-135414581D02*
X171138456Y-135414581D01*
X171138456Y-137014581D02*
X170338456Y-137014581D01*
X170338456Y-137014581D02*
X170338456Y-135414581D01*
X123380000Y-109265000D02*
X123705000Y-108940000D01*
X123380000Y-111840000D02*
X123380000Y-109265000D01*
X123705000Y-108940000D02*
X124680000Y-108940000D01*
X124680000Y-108940000D02*
X124680000Y-111840000D01*
X124680000Y-111840000D02*
X123380000Y-111840000D01*
X140458000Y-110919500D02*
X140133000Y-111244500D01*
X140458000Y-108344500D02*
X140458000Y-110919500D01*
X140133000Y-111244500D02*
X139158000Y-111244500D01*
X139158000Y-111244500D02*
X139158000Y-108344500D01*
X139158000Y-108344500D02*
X140458000Y-108344500D01*
X159120629Y-150577756D02*
X160170629Y-150577756D01*
X159120629Y-151117756D02*
X159120629Y-150577756D01*
X160170629Y-150577756D02*
X160170629Y-151117756D01*
X160170629Y-151117756D02*
X159120629Y-151117756D01*
D19*
X165310000Y-109990000D02*
X160210000Y-109990000D01*
X160210000Y-109990000D02*
X160210000Y-115090000D01*
X165310000Y-115090000D02*
X165310000Y-109990000D01*
X160210000Y-115090000D02*
X165310000Y-115090000D01*
D10*
X164735000Y-108290000D02*
G75*
G03*
X164735000Y-108290000I-100000J0D01*
G01*
D18*
X108160401Y-117707059D02*
X109210401Y-117707059D01*
X108160401Y-118247059D02*
X108160401Y-117707059D01*
X109210401Y-117707059D02*
X109210401Y-118247059D01*
X109210401Y-118247059D02*
X108160401Y-118247059D01*
X128743394Y-129195200D02*
X130343394Y-129195200D01*
X128743394Y-129995200D02*
X128743394Y-129195200D01*
X130343394Y-129195200D02*
X130343394Y-129995200D01*
X130343394Y-129995200D02*
X128743394Y-129995200D01*
X142623255Y-128410953D02*
X141623255Y-128410953D01*
X142623255Y-127910953D02*
X142623255Y-128410953D01*
X141623255Y-128410953D02*
X141623255Y-127910953D01*
X141623255Y-127910953D02*
X142623255Y-127910953D01*
X129114756Y-126004421D02*
X130164756Y-126004421D01*
X129114756Y-126544421D02*
X129114756Y-126004421D01*
X130164756Y-126004421D02*
X130164756Y-126544421D01*
X130164756Y-126544421D02*
X129114756Y-126544421D01*
X138888000Y-111924500D02*
X140488000Y-111924500D01*
X138888000Y-112724500D02*
X138888000Y-111924500D01*
X140488000Y-111924500D02*
X140488000Y-112724500D01*
X140488000Y-112724500D02*
X138888000Y-112724500D01*
X145350000Y-123925000D02*
X144350000Y-123925000D01*
X145350000Y-123425000D02*
X145350000Y-123925000D01*
X144350000Y-123925000D02*
X144350000Y-123425000D01*
X144350000Y-123425000D02*
X145350000Y-123425000D01*
X123420000Y-99330000D02*
X123920000Y-99830000D01*
X119920000Y-99330000D02*
X123420000Y-99330000D01*
X123920000Y-99830000D02*
X123920000Y-101330000D01*
X123920000Y-101330000D02*
X119920000Y-101330000D01*
X119920000Y-101330000D02*
X119920000Y-99330000D01*
X145347989Y-122915768D02*
X144347989Y-122915768D01*
X145347989Y-122415768D02*
X145347989Y-122915768D01*
X144347989Y-122915768D02*
X144347989Y-122415768D01*
X144347989Y-122415768D02*
X145347989Y-122415768D01*
X157130499Y-120324786D02*
X156805499Y-119999786D01*
X159705499Y-120324786D02*
X157130499Y-120324786D01*
X156805499Y-119999786D02*
X156805499Y-119024786D01*
X156805499Y-119024786D02*
X159705499Y-119024786D01*
X159705499Y-119024786D02*
X159705499Y-120324786D01*
X128870000Y-110792500D02*
X127270000Y-110792500D01*
X128870000Y-109967500D02*
X128870000Y-110792500D01*
X127270000Y-110792500D02*
X127270000Y-109967500D01*
X127270000Y-109967500D02*
X128870000Y-109967500D01*
D14*
X143280000Y-99975000D02*
X143280000Y-90125000D01*
X143280000Y-90125000D02*
X133640000Y-90125000D01*
X133640000Y-99975000D02*
X143280000Y-99975000D01*
X133640000Y-90125000D02*
X133640000Y-99975000D01*
D18*
X135972000Y-132637000D02*
X136947000Y-131662000D01*
X135972000Y-136562000D02*
X135972000Y-132637000D01*
X136947000Y-131662000D02*
X139872000Y-131662000D01*
X139872000Y-131662000D02*
X139872000Y-136562000D01*
X139872000Y-136562000D02*
X135972000Y-136562000D01*
X148656042Y-110079917D02*
X149656042Y-109079917D01*
X148656042Y-114309917D02*
X148656042Y-110079917D01*
X149656042Y-109079917D02*
X153886042Y-109079917D01*
X153886042Y-109079917D02*
X153886042Y-114309917D01*
X153886042Y-114309917D02*
X148656042Y-114309917D01*
X128880000Y-107292500D02*
X127280000Y-107292500D01*
X128880000Y-106467500D02*
X128880000Y-107292500D01*
X127280000Y-107292500D02*
X127280000Y-106467500D01*
X127280000Y-106467500D02*
X128880000Y-106467500D01*
X131150884Y-124168577D02*
X131150884Y-123118577D01*
X131690884Y-124168577D02*
X131150884Y-124168577D01*
X131150884Y-123118577D02*
X131690884Y-123118577D01*
X131690884Y-123118577D02*
X131690884Y-124168577D01*
X97203652Y-130727363D02*
X97203652Y-131777363D01*
X96663652Y-130727363D02*
X97203652Y-130727363D01*
X97203652Y-131777363D02*
X96663652Y-131777363D01*
X96663652Y-131777363D02*
X96663652Y-130727363D01*
X140533000Y-107744500D02*
X138933000Y-107744500D01*
X140533000Y-106944500D02*
X140533000Y-107744500D01*
X138933000Y-107744500D02*
X138933000Y-106944500D01*
X138933000Y-106944500D02*
X140533000Y-106944500D01*
X121342500Y-106080000D02*
X121342500Y-107680000D01*
X120517500Y-106080000D02*
X121342500Y-106080000D01*
X121342500Y-107680000D02*
X120517500Y-107680000D01*
X120517500Y-107680000D02*
X120517500Y-106080000D01*
X155490499Y-118954786D02*
X154440499Y-118954786D01*
X155490499Y-118414786D02*
X155490499Y-118954786D01*
X154440499Y-118954786D02*
X154440499Y-118414786D01*
X154440499Y-118414786D02*
X155490499Y-118414786D01*
X146800000Y-102137500D02*
X148400000Y-102137500D01*
X146800000Y-102962500D02*
X146800000Y-102137500D01*
X148400000Y-102137500D02*
X148400000Y-102962500D01*
X148400000Y-102962500D02*
X146800000Y-102962500D01*
X142094000Y-110604500D02*
X142094000Y-108804500D01*
X143494000Y-110604500D02*
X142094000Y-110604500D01*
X142444000Y-110004500D02*
X143144000Y-110004500D01*
X142794000Y-110004500D02*
X142794000Y-110204500D01*
X142794000Y-110004500D02*
X142444000Y-109504500D01*
X142444000Y-109504500D02*
X143144000Y-109504500D01*
X142794000Y-109504500D02*
X142794000Y-109254500D01*
X143144000Y-109504500D02*
X142794000Y-110004500D01*
X142094000Y-108804500D02*
X143494000Y-108804500D01*
X143494000Y-108804500D02*
X143494000Y-110604500D01*
X151584832Y-122293704D02*
X151584832Y-123343704D01*
X151044832Y-122293704D02*
X151584832Y-122293704D01*
X151584832Y-123343704D02*
X151044832Y-123343704D01*
X151044832Y-123343704D02*
X151044832Y-122293704D01*
X146800000Y-103737500D02*
X148400000Y-103737500D01*
X146800000Y-104562500D02*
X146800000Y-103737500D01*
X148400000Y-103737500D02*
X148400000Y-104562500D01*
X148400000Y-104562500D02*
X146800000Y-104562500D01*
X139743009Y-128370944D02*
X139743009Y-129420944D01*
X139203009Y-128370944D02*
X139743009Y-128370944D01*
X139743009Y-129420944D02*
X139203009Y-129420944D01*
X139203009Y-129420944D02*
X139203009Y-128370944D01*
M02*
