G04 #@! TF.GenerationSoftware,KiCad,Pcbnew,7.0.2*
G04 #@! TF.CreationDate,2023-06-06T21:42:25-07:00*
G04 #@! TF.ProjectId,procon_gcc_button_board,70726f63-6f6e-45f6-9763-635f62757474,rev?*
G04 #@! TF.SameCoordinates,Original*
G04 #@! TF.FileFunction,Paste,Bot*
G04 #@! TF.FilePolarity,Positive*
%FSLAX46Y46*%
G04 Gerber Fmt 4.6, Leading zero omitted, Abs format (unit mm)*
G04 Created by KiCad (PCBNEW 7.0.2) date 2023-06-06 21:42:25*
%MOMM*%
%LPD*%
G01*
G04 APERTURE LIST*
%ADD10R,0.400000X0.650000*%
%ADD11R,0.600000X1.000000*%
%ADD12R,0.300000X1.000000*%
%ADD13R,0.300000X1.300000*%
%ADD14R,1.800000X2.200000*%
G04 APERTURE END LIST*
D10*
X147024720Y-165209612D03*
X146374720Y-165209612D03*
X145724720Y-165209612D03*
X145724720Y-163309612D03*
X146374720Y-163309612D03*
X147024720Y-163309612D03*
X137880720Y-165209612D03*
X137230720Y-165209612D03*
X136580720Y-165209612D03*
X136580720Y-163309612D03*
X137230720Y-163309612D03*
X137880720Y-163309612D03*
X140928720Y-165209612D03*
X140278720Y-165209612D03*
X139628720Y-165209612D03*
X139628720Y-163309612D03*
X140278720Y-163309612D03*
X140928720Y-163309612D03*
D11*
X141033000Y-132246000D03*
X145213000Y-132246000D03*
D12*
X142123000Y-134896000D03*
X142623000Y-134896000D03*
X143123000Y-134896000D03*
X143623000Y-134896000D03*
X144123000Y-134896000D03*
D10*
X134832720Y-165209612D03*
X134182720Y-165209612D03*
X133532720Y-165209612D03*
X133532720Y-163309612D03*
X134182720Y-163309612D03*
X134832720Y-163309612D03*
X143976720Y-165209612D03*
X143326720Y-165209612D03*
X142676720Y-165209612D03*
X142676720Y-163309612D03*
X143326720Y-163309612D03*
X143976720Y-163309612D03*
X150072720Y-165209612D03*
X149422720Y-165209612D03*
X148772720Y-165209612D03*
X148772720Y-163309612D03*
X149422720Y-163309612D03*
X150072720Y-163309612D03*
D13*
X101214720Y-163251644D03*
X101714720Y-163251644D03*
X102214720Y-163251644D03*
X102714720Y-163251644D03*
X103214720Y-163251644D03*
X103714720Y-163251644D03*
X104214720Y-163251644D03*
X104714720Y-163251644D03*
X105214720Y-163251644D03*
X105714720Y-163251644D03*
X106214720Y-163251644D03*
X106714720Y-163251644D03*
X107214720Y-163251644D03*
X107714720Y-163251644D03*
D14*
X99314720Y-160001644D03*
X109614720Y-160001644D03*
M02*
