G04 #@! TF.GenerationSoftware,KiCad,Pcbnew,7.0.2*
G04 #@! TF.CreationDate,2023-06-06T21:42:25-07:00*
G04 #@! TF.ProjectId,procon_gcc_button_board,70726f63-6f6e-45f6-9763-635f62757474,rev?*
G04 #@! TF.SameCoordinates,Original*
G04 #@! TF.FileFunction,Copper,L4,Bot*
G04 #@! TF.FilePolarity,Positive*
%FSLAX46Y46*%
G04 Gerber Fmt 4.6, Leading zero omitted, Abs format (unit mm)*
G04 Created by KiCad (PCBNEW 7.0.2) date 2023-06-06 21:42:25*
%MOMM*%
%LPD*%
G01*
G04 APERTURE LIST*
G04 #@! TA.AperFunction,SMDPad,CuDef*
%ADD10R,0.400000X0.650000*%
G04 #@! TD*
G04 #@! TA.AperFunction,SMDPad,CuDef*
%ADD11R,0.600000X1.000000*%
G04 #@! TD*
G04 #@! TA.AperFunction,SMDPad,CuDef*
%ADD12R,0.300000X1.000000*%
G04 #@! TD*
G04 #@! TA.AperFunction,SMDPad,CuDef*
%ADD13R,0.300000X1.300000*%
G04 #@! TD*
G04 #@! TA.AperFunction,SMDPad,CuDef*
%ADD14R,1.800000X2.200000*%
G04 #@! TD*
G04 #@! TA.AperFunction,ViaPad*
%ADD15C,0.800000*%
G04 #@! TD*
G04 #@! TA.AperFunction,ViaPad*
%ADD16C,0.650000*%
G04 #@! TD*
G04 #@! TA.AperFunction,ViaPad*
%ADD17C,1.500000*%
G04 #@! TD*
G04 #@! TA.AperFunction,ViaPad*
%ADD18C,1.250000*%
G04 #@! TD*
G04 #@! TA.AperFunction,Conductor*
%ADD19C,0.200000*%
G04 #@! TD*
G04 #@! TA.AperFunction,Conductor*
%ADD20C,0.250000*%
G04 #@! TD*
G04 APERTURE END LIST*
D10*
X147024720Y-165209612D03*
X146374720Y-165209612D03*
X145724720Y-165209612D03*
X145724720Y-163309612D03*
X146374720Y-163309612D03*
X147024720Y-163309612D03*
X137880720Y-165209612D03*
X137230720Y-165209612D03*
X136580720Y-165209612D03*
X136580720Y-163309612D03*
X137230720Y-163309612D03*
X137880720Y-163309612D03*
X140928720Y-165209612D03*
X140278720Y-165209612D03*
X139628720Y-165209612D03*
X139628720Y-163309612D03*
X140278720Y-163309612D03*
X140928720Y-163309612D03*
D11*
X141033000Y-132246000D03*
X145213000Y-132246000D03*
D12*
X142123000Y-134896000D03*
X142623000Y-134896000D03*
X143123000Y-134896000D03*
X143623000Y-134896000D03*
X144123000Y-134896000D03*
D10*
X134832720Y-165209612D03*
X134182720Y-165209612D03*
X133532720Y-165209612D03*
X133532720Y-163309612D03*
X134182720Y-163309612D03*
X134832720Y-163309612D03*
X143976720Y-165209612D03*
X143326720Y-165209612D03*
X142676720Y-165209612D03*
X142676720Y-163309612D03*
X143326720Y-163309612D03*
X143976720Y-163309612D03*
X150072720Y-165209612D03*
X149422720Y-165209612D03*
X148772720Y-165209612D03*
X148772720Y-163309612D03*
X149422720Y-163309612D03*
X150072720Y-163309612D03*
D13*
X101214720Y-163251644D03*
X101714720Y-163251644D03*
X102214720Y-163251644D03*
X102714720Y-163251644D03*
X103214720Y-163251644D03*
X103714720Y-163251644D03*
X104214720Y-163251644D03*
X104714720Y-163251644D03*
X105214720Y-163251644D03*
X105714720Y-163251644D03*
X106214720Y-163251644D03*
X106714720Y-163251644D03*
X107214720Y-163251644D03*
X107714720Y-163251644D03*
D14*
X99314720Y-160001644D03*
X109614720Y-160001644D03*
D15*
X126562720Y-138605612D03*
D16*
X99384720Y-162735612D03*
X181334234Y-123893767D03*
X122498720Y-121841612D03*
D15*
X141710917Y-160887606D03*
D16*
X106750720Y-161465612D03*
X118942720Y-153337612D03*
X169418000Y-133731000D03*
D15*
X107258720Y-156385612D03*
X124125528Y-160812249D03*
D16*
X115132720Y-148511612D03*
D15*
X125038720Y-156893612D03*
X185894937Y-135051757D03*
X190125683Y-139881547D03*
X190062720Y-138097612D03*
D16*
X113919000Y-156337000D03*
D15*
X131388720Y-155115612D03*
D16*
X117926720Y-145463612D03*
X130372720Y-133271612D03*
X160090720Y-121841612D03*
D15*
X129356720Y-159687612D03*
X115132720Y-161973612D03*
D16*
X149860000Y-132461000D03*
D15*
X150842087Y-161464691D03*
D16*
X181198902Y-144250066D03*
X147193000Y-142875000D03*
X123514720Y-148511612D03*
X163830000Y-129921000D03*
D15*
X125546720Y-140383612D03*
X143764000Y-153670000D03*
D16*
X193432979Y-134393539D03*
D15*
X122755581Y-138503280D03*
D16*
X138303000Y-134493000D03*
X100946952Y-161373173D03*
X115640720Y-153591612D03*
X121990720Y-156131612D03*
X185236720Y-145717612D03*
X125800720Y-153083612D03*
X125726872Y-123395697D03*
X155693975Y-134493000D03*
X173579679Y-135300648D03*
X163392720Y-123063000D03*
X197174720Y-135557612D03*
X121482720Y-146225612D03*
X185236720Y-124889612D03*
X134239000Y-134620000D03*
X101924720Y-160957612D03*
X114624720Y-152067612D03*
X101162720Y-152575612D03*
X147898720Y-165209612D03*
X101747324Y-157686249D03*
X102178720Y-154607612D03*
X158058720Y-116253612D03*
X157550720Y-127175612D03*
X127832720Y-116253612D03*
D17*
X132070667Y-127270703D03*
D16*
X128594720Y-127683612D03*
X103080657Y-158348830D03*
X144850720Y-165209612D03*
X103702720Y-153337612D03*
D18*
X104227219Y-165552532D03*
D16*
X143009050Y-140716947D03*
D15*
X128727900Y-154353612D03*
D16*
X105199223Y-154153663D03*
X110727900Y-146596924D03*
X115316000Y-141605000D03*
X128736649Y-146524700D03*
D17*
X115189000Y-143129000D03*
D15*
X124022720Y-159253572D03*
D16*
X123638935Y-141228354D03*
X128714653Y-141267635D03*
D15*
X114370720Y-159253572D03*
D16*
X110706298Y-154065640D03*
X105357449Y-158975997D03*
X141802720Y-165209612D03*
X135706720Y-165209612D03*
X106157243Y-159380831D03*
D17*
X186309000Y-144145000D03*
D16*
X188284720Y-144193612D03*
X148228722Y-135386049D03*
X188538720Y-122857612D03*
X130118720Y-138351612D03*
X189046720Y-133779612D03*
X166694720Y-123619612D03*
D18*
X147987385Y-161597812D03*
D16*
X141753211Y-139354258D03*
X144272000Y-144653000D03*
D18*
X136143221Y-161833702D03*
X144500157Y-161945912D03*
D16*
X143425971Y-141587729D03*
X143510000Y-143637000D03*
D18*
X139885396Y-160369374D03*
D16*
X135028817Y-155203798D03*
D17*
X161772602Y-119345941D03*
D16*
X156591000Y-119761000D03*
X148919230Y-160614197D03*
X147736989Y-157287885D03*
D17*
X180594000Y-114554000D03*
D16*
X151434800Y-137312400D03*
X169742720Y-114983612D03*
X135996469Y-155618506D03*
X150438720Y-131239612D03*
D17*
X151511000Y-129540000D03*
D16*
X145612720Y-157909612D03*
D17*
X170924659Y-124371252D03*
D16*
X168980720Y-124889612D03*
X146374376Y-157366877D03*
X150759534Y-136710860D03*
X147074758Y-160698843D03*
X127832720Y-140383612D03*
X129425838Y-156526572D03*
D17*
X121384754Y-137280073D03*
D16*
X143491167Y-156695445D03*
X150030902Y-136134071D03*
X179394720Y-121841612D03*
D17*
X194437000Y-122555000D03*
D16*
X189300720Y-121841612D03*
X168218720Y-122603612D03*
D17*
X116954758Y-162557703D03*
D16*
X143326720Y-160703612D03*
X132658720Y-159687612D03*
D17*
X132416626Y-149752890D03*
D16*
X139515616Y-161471318D03*
X132404720Y-151559612D03*
X127140349Y-121050669D03*
X133468723Y-154436917D03*
X141548720Y-156893612D03*
D17*
X124148000Y-119635612D03*
D16*
X137484720Y-156639612D03*
D17*
X132588000Y-131826000D03*
D16*
X127905066Y-131272542D03*
X134284974Y-153564714D03*
D17*
X180467000Y-135255000D03*
D16*
X149261976Y-135483192D03*
X177634335Y-121110921D03*
X138771393Y-156665823D03*
X179394720Y-134541612D03*
X167456720Y-121841612D03*
X135499804Y-160857483D03*
X110052720Y-155115612D03*
D17*
X106426000Y-150368000D03*
D16*
X122752720Y-162227612D03*
X107004720Y-153337612D03*
X115739662Y-160096670D03*
X124276720Y-144701612D03*
X123629229Y-125152363D03*
X126400528Y-121917191D03*
X126428426Y-133955211D03*
X177870720Y-134541612D03*
X178378720Y-125143612D03*
X189808720Y-124127612D03*
X190316720Y-134541612D03*
D19*
X148772720Y-162575433D02*
X148772720Y-163309612D01*
X148261022Y-162063735D02*
X148772720Y-162575433D01*
X147038323Y-155674323D02*
X147038323Y-157611025D01*
X146178296Y-154814296D02*
X147038323Y-155674323D01*
X147038323Y-157611025D02*
X148261022Y-158833724D01*
X146178296Y-148464296D02*
X146178296Y-154814296D01*
X144272000Y-146558000D02*
X146178296Y-148464296D01*
X144272000Y-144653000D02*
X144272000Y-146558000D01*
X148261022Y-158833724D02*
X148261022Y-162063735D01*
X106714720Y-161501612D02*
X106750720Y-161465612D01*
X100908720Y-162227612D02*
X99892720Y-162227612D01*
X101214720Y-163251644D02*
X101214720Y-162533612D01*
X106714720Y-163251644D02*
X106714720Y-161501612D01*
X99892720Y-162227612D02*
X99384720Y-162735612D01*
X101214720Y-162533612D02*
X100908720Y-162227612D01*
X101714720Y-162140941D02*
X100946952Y-161373173D01*
X101714720Y-163251644D02*
X101714720Y-162140941D01*
X102214720Y-163251644D02*
X102214720Y-161247612D01*
X102214720Y-161247612D02*
X101924720Y-160957612D01*
X147024720Y-165209612D02*
X148772720Y-165209612D01*
X150072720Y-165209612D02*
X149422720Y-165209612D01*
X102149877Y-160224455D02*
X101747324Y-159821902D01*
X102714720Y-160789298D02*
X102149877Y-160224455D01*
X149422720Y-165209612D02*
X148772720Y-165209612D01*
X101747324Y-159821902D02*
X101747324Y-157686249D01*
X102714720Y-163251644D02*
X102714720Y-160789298D01*
X157550720Y-127175612D02*
X157550720Y-116761612D01*
X102432720Y-157401612D02*
X102432720Y-159941612D01*
X127832720Y-116253612D02*
X127832720Y-126921612D01*
X102178720Y-154607612D02*
X103214720Y-155643612D01*
X127832720Y-126921612D02*
X128594720Y-127683612D01*
X102432720Y-159941612D02*
X103214720Y-160723612D01*
X103214720Y-155643612D02*
X103214720Y-156619612D01*
X103214720Y-156619612D02*
X102432720Y-157401612D01*
X157550720Y-116761612D02*
X158058720Y-116253612D01*
X103214720Y-160723612D02*
X103214720Y-163251644D01*
X146374720Y-165209612D02*
X145724720Y-165209612D01*
X143976720Y-165209612D02*
X143326720Y-165209612D01*
X103714720Y-158982893D02*
X103080657Y-158348830D01*
X103714720Y-163251644D02*
X103714720Y-158982893D01*
X145724720Y-165209612D02*
X143976720Y-165209612D01*
X143161620Y-134934620D02*
X143161620Y-140564377D01*
X103702720Y-153337612D02*
X104214720Y-153849612D01*
X104214720Y-165428720D02*
X104267000Y-165481000D01*
X143161620Y-140564377D02*
X143009050Y-140716947D01*
X143123000Y-134896000D02*
X143161620Y-134934620D01*
X104214720Y-163251644D02*
X104214720Y-165428720D01*
X104214720Y-153849612D02*
X104214720Y-163251644D01*
X115692646Y-141228354D02*
X123638935Y-141228354D01*
X128714653Y-141267635D02*
X128714653Y-146502704D01*
X104714720Y-154638166D02*
X104714720Y-163251644D01*
X110727900Y-154044038D02*
X110706298Y-154065640D01*
X128714653Y-146502704D02*
X128736649Y-146524700D01*
X123440760Y-158671612D02*
X114952680Y-158671612D01*
X110727900Y-146596924D02*
X110727900Y-154044038D01*
X114952680Y-158671612D02*
X114370720Y-159253572D01*
X105199223Y-154153663D02*
X104714720Y-154638166D01*
X124022720Y-159253572D02*
X123440760Y-158671612D01*
X128736649Y-154344863D02*
X128727900Y-154353612D01*
X128736649Y-146524700D02*
X128736649Y-154344863D01*
X115316000Y-141605000D02*
X115692646Y-141228354D01*
X105214720Y-159118726D02*
X105214720Y-163251644D01*
X140278720Y-165209612D02*
X139628720Y-165209612D01*
X140928720Y-165209612D02*
X140278720Y-165209612D01*
X105357449Y-158975997D02*
X105214720Y-159118726D01*
X142676720Y-165209612D02*
X140928720Y-165209612D01*
X134832720Y-165209612D02*
X136580720Y-165209612D01*
X137230720Y-165209612D02*
X136580720Y-165209612D01*
X137880720Y-165209612D02*
X137230720Y-165209612D01*
X105714720Y-163251644D02*
X105714720Y-159823354D01*
X105714720Y-159823354D02*
X106157243Y-159380831D01*
X106214720Y-164231612D02*
X106214720Y-163251644D01*
X166694720Y-123619612D02*
X166694720Y-128072280D01*
X122752720Y-164767612D02*
X106750720Y-164767612D01*
X130118720Y-138351612D02*
X130118720Y-157401612D01*
X189046720Y-123365612D02*
X188538720Y-122857612D01*
X154455771Y-129159000D02*
X148228722Y-135386049D01*
X130118720Y-157401612D02*
X122752720Y-164767612D01*
X166694720Y-128072280D02*
X165608000Y-129159000D01*
X106750720Y-164767612D02*
X106214720Y-164231612D01*
X189046720Y-133779612D02*
X189046720Y-123365612D01*
X188284720Y-134541612D02*
X189046720Y-133779612D01*
X188284720Y-144193612D02*
X188284720Y-134541612D01*
X165608000Y-129159000D02*
X154455771Y-129159000D01*
X142087600Y-139019869D02*
X141753211Y-139354258D01*
X142123000Y-134896000D02*
X142087600Y-134931400D01*
X142087600Y-134931400D02*
X142087600Y-139019869D01*
X139865713Y-145459186D02*
X139865713Y-152701424D01*
X142310720Y-143014179D02*
X139865713Y-145459186D01*
X142661620Y-134934620D02*
X142661620Y-139778712D01*
X142661620Y-139778712D02*
X142310720Y-140129612D01*
X142623000Y-134896000D02*
X142661620Y-134934620D01*
X142310720Y-140129612D02*
X142310720Y-143014179D01*
X136580720Y-155986417D02*
X136580720Y-163309612D01*
X139865713Y-152701424D02*
X136580720Y-155986417D01*
X143623000Y-134896000D02*
X143661620Y-134934620D01*
X143661620Y-134934620D02*
X143661620Y-141352080D01*
X143661620Y-141352080D02*
X143425971Y-141587729D01*
X144432863Y-156511059D02*
X144432863Y-158073469D01*
X140683099Y-152761295D02*
X144432863Y-156511059D01*
X143510000Y-143637000D02*
X142925018Y-143637000D01*
X143976720Y-158529612D02*
X143976720Y-163309612D01*
X140683099Y-145878919D02*
X140683099Y-152761295D01*
X142925018Y-143637000D02*
X140683099Y-145878919D01*
X144432863Y-158073469D02*
X143976720Y-158529612D01*
X144161620Y-141834712D02*
X140278720Y-145717612D01*
X144161620Y-134934620D02*
X144161620Y-141834712D01*
X140278720Y-145717612D02*
X140278720Y-163309612D01*
X144123000Y-134896000D02*
X144161620Y-134934620D01*
X148919230Y-160614197D02*
X149422720Y-161117687D01*
X133674720Y-139113612D02*
X128594720Y-134033612D01*
X129356720Y-119555612D02*
X130548332Y-118364000D01*
X130548332Y-118364000D02*
X155702000Y-118364000D01*
X155702000Y-118364000D02*
X156591000Y-119253000D01*
X156591000Y-119253000D02*
X156591000Y-119761000D01*
X134436720Y-139875612D02*
X133674720Y-139113612D01*
X134436720Y-152067612D02*
X134436720Y-151305612D01*
X134436720Y-151305612D02*
X134436720Y-139875612D01*
X129356720Y-128699612D02*
X129356720Y-126159612D01*
X135028817Y-155203798D02*
X135028817Y-152659709D01*
X129102720Y-128953612D02*
X129356720Y-128699612D01*
X134690720Y-152321612D02*
X134436720Y-152067612D01*
X135028817Y-152659709D02*
X134690720Y-152321612D01*
X128594720Y-130731612D02*
X128594720Y-129461612D01*
X128594720Y-134033612D02*
X128594720Y-130731612D01*
X128594720Y-129461612D02*
X129102720Y-128953612D01*
X149422720Y-161117687D02*
X149422720Y-163309612D01*
X129356720Y-126159612D02*
X129356720Y-119555612D01*
X150072720Y-163309612D02*
X150072720Y-160747093D01*
X155651200Y-133096000D02*
X165653892Y-133096000D01*
X165653892Y-133096000D02*
X166159984Y-133602092D01*
X169671046Y-115055286D02*
X169671046Y-131222557D01*
X148860065Y-159534438D02*
X148860065Y-158757901D01*
X169742720Y-114983612D02*
X169671046Y-115055286D01*
X148860065Y-158757901D02*
X147736989Y-157634825D01*
X169671046Y-131755040D02*
X168622719Y-132803367D01*
X151434800Y-137312400D02*
X155651200Y-133096000D01*
X168622719Y-132803367D02*
X167823994Y-133602092D01*
X147736989Y-157634825D02*
X147736989Y-157287885D01*
X150072720Y-160747093D02*
X148860065Y-159534438D01*
X167823994Y-133602092D02*
X166159984Y-133602092D01*
X169671046Y-131222557D02*
X169671046Y-131755040D01*
X135996469Y-152865361D02*
X134944720Y-151813612D01*
X129864720Y-129715612D02*
X148914720Y-129715612D01*
X135996469Y-155618506D02*
X135996469Y-152865361D01*
X129356720Y-130223612D02*
X129864720Y-129715612D01*
X145724720Y-163309612D02*
X145724720Y-158021612D01*
X134944720Y-151813612D02*
X134944720Y-139621612D01*
X134944720Y-139621612D02*
X129356720Y-134033612D01*
X129356720Y-134033612D02*
X129356720Y-130223612D01*
X148914720Y-129715612D02*
X150438720Y-131239612D01*
X145724720Y-158021612D02*
X145612720Y-157909612D01*
D20*
X168980720Y-131114158D02*
X168980720Y-124889612D01*
D19*
X166007391Y-132461000D02*
X166225045Y-132678654D01*
X146374720Y-163309612D02*
X146374720Y-157367221D01*
X155009394Y-132461000D02*
X166007391Y-132461000D01*
X146374720Y-157367221D02*
X146374376Y-157366877D01*
X150759534Y-136710860D02*
X155009394Y-132461000D01*
D20*
X166225045Y-132678654D02*
X167416224Y-132678654D01*
X167416224Y-132678654D02*
X168980720Y-131114158D01*
D19*
X127832720Y-154933454D02*
X129425838Y-156526572D01*
X147024720Y-160748881D02*
X147074758Y-160698843D01*
X127832720Y-140383612D02*
X127832720Y-154933454D01*
X147024720Y-163309612D02*
X147024720Y-160748881D01*
X189300720Y-121841612D02*
X179394720Y-121841612D01*
X150030902Y-135465098D02*
X150030902Y-136123869D01*
X142676720Y-157509892D02*
X143491167Y-156695445D01*
X142676720Y-163309612D02*
X142676720Y-157509892D01*
X153797000Y-131699000D02*
X150030902Y-135465098D01*
X167299354Y-131826000D02*
X166186720Y-131826000D01*
X168218720Y-130906634D02*
X167299354Y-131826000D01*
X168218720Y-122603612D02*
X168218720Y-130906634D01*
X166059720Y-131699000D02*
X153797000Y-131699000D01*
X166186720Y-131826000D02*
X166059720Y-131699000D01*
X143326720Y-163309612D02*
X143326720Y-160703612D01*
X139515616Y-161471318D02*
X139628720Y-161584422D01*
X132404720Y-151559612D02*
X132404720Y-159433612D01*
X132404720Y-159433612D02*
X132658720Y-159687612D01*
X139628720Y-161584422D02*
X139628720Y-163309612D01*
X127140349Y-134103241D02*
X127140349Y-121050669D01*
X133468723Y-140431615D02*
X130118720Y-137081612D01*
X140928720Y-157513612D02*
X141548720Y-156893612D01*
X140928720Y-163309612D02*
X140928720Y-157513612D01*
X130118720Y-137081612D02*
X127140349Y-134103241D01*
X133468723Y-154436917D02*
X133468723Y-140431615D01*
X137230720Y-156893612D02*
X137484720Y-156639612D01*
X134284974Y-152903156D02*
X134047997Y-152666179D01*
X133928720Y-150289612D02*
X133928720Y-140129612D01*
X133928720Y-152546902D02*
X133928720Y-150289612D01*
X134047997Y-152666179D02*
X133928720Y-152546902D01*
X137230720Y-163309612D02*
X137230720Y-156893612D01*
X134284974Y-153564714D02*
X134284974Y-152903156D01*
X133928720Y-140129612D02*
X127832720Y-134033612D01*
X127832720Y-131344888D02*
X127905066Y-131272542D01*
X127832720Y-134033612D02*
X127832720Y-131344888D01*
X167456720Y-121841612D02*
X167456720Y-130287505D01*
X137880720Y-163309612D02*
X137880720Y-157556496D01*
X179394720Y-123365612D02*
X178378720Y-122349612D01*
X179394720Y-134541612D02*
X179394720Y-123365612D01*
X177634335Y-121605227D02*
X177634335Y-121110921D01*
X153820771Y-130810000D02*
X166186720Y-130810000D01*
X167456720Y-130287505D02*
X166934225Y-130810000D01*
X178378720Y-122349612D02*
X177634335Y-121605227D01*
X166934225Y-130810000D02*
X166186720Y-130810000D01*
X137880720Y-157556496D02*
X138771393Y-156665823D01*
X149261976Y-135368795D02*
X153820771Y-130810000D01*
X134832720Y-161524567D02*
X134832720Y-163309612D01*
X121110126Y-162227612D02*
X122752720Y-162227612D01*
X119880629Y-160998115D02*
X121110126Y-162227612D01*
X116951223Y-160998115D02*
X119880629Y-160998115D01*
X107004720Y-153337612D02*
X107004720Y-154353612D01*
X107766720Y-155115612D02*
X110052720Y-155115612D01*
X116049778Y-160096670D02*
X116951223Y-160998115D01*
X107004720Y-154353612D02*
X107766720Y-155115612D01*
X115739662Y-160096670D02*
X116049778Y-160096670D01*
X135499804Y-160857483D02*
X134832720Y-161524567D01*
X124276720Y-144701612D02*
X124276720Y-125799854D01*
X124276720Y-125799854D02*
X123629229Y-125152363D01*
X126400528Y-133927313D02*
X126428426Y-133955211D01*
X126400528Y-121917191D02*
X126400528Y-133927313D01*
X177870720Y-134541612D02*
X177870720Y-125651612D01*
X177870720Y-125651612D02*
X178378720Y-125143612D01*
X189808720Y-134033612D02*
X189808720Y-124127612D01*
X190316720Y-134541612D02*
X189808720Y-134033612D01*
G04 #@! TA.AperFunction,Conductor*
G36*
X98126808Y-161521310D02*
G01*
X98168516Y-161552533D01*
X98168519Y-161552534D01*
X98305514Y-161603632D01*
X98305517Y-161603632D01*
X98305519Y-161603633D01*
X98366082Y-161610144D01*
X100057464Y-161610144D01*
X100124503Y-161629829D01*
X100170258Y-161682633D01*
X100175395Y-161695827D01*
X100181317Y-161714054D01*
X100268919Y-161865788D01*
X100386161Y-161995997D01*
X100527905Y-162098981D01*
X100602356Y-162132128D01*
X100655593Y-162177378D01*
X100675915Y-162244227D01*
X100656870Y-162311451D01*
X100651189Y-162319718D01*
X100621367Y-162359555D01*
X100571120Y-162494272D01*
X100565074Y-162550511D01*
X100564720Y-162557125D01*
X100564720Y-163101644D01*
X100932220Y-163101644D01*
X100999259Y-163121329D01*
X101045014Y-163174133D01*
X101056220Y-163225644D01*
X101056220Y-163277644D01*
X101036535Y-163344683D01*
X100983731Y-163390438D01*
X100932220Y-163401644D01*
X100564720Y-163401644D01*
X100564720Y-163946162D01*
X100565074Y-163952776D01*
X100571120Y-164009015D01*
X100621367Y-164143733D01*
X100707531Y-164258832D01*
X100822630Y-164344996D01*
X100957348Y-164395243D01*
X101013587Y-164401289D01*
X101020202Y-164401644D01*
X101064720Y-164401644D01*
X101068302Y-164398061D01*
X101084405Y-164343224D01*
X101137209Y-164297469D01*
X101206367Y-164287525D01*
X101263026Y-164310994D01*
X101315032Y-164349925D01*
X101327348Y-164366377D01*
X101328401Y-164365325D01*
X101364720Y-164401644D01*
X101409227Y-164401644D01*
X101419167Y-164401111D01*
X101411499Y-164401763D01*
X101439687Y-164405175D01*
X101440032Y-164401968D01*
X101512779Y-164409789D01*
X101512780Y-164409789D01*
X101516082Y-164410144D01*
X101519392Y-164410144D01*
X101910048Y-164410144D01*
X101913358Y-164410144D01*
X101916657Y-164409789D01*
X101916662Y-164409789D01*
X101951465Y-164406048D01*
X101977975Y-164406048D01*
X102012777Y-164409789D01*
X102012783Y-164409789D01*
X102016082Y-164410144D01*
X102019392Y-164410144D01*
X102410034Y-164410144D01*
X102413358Y-164410144D01*
X102451465Y-164406047D01*
X102477970Y-164406047D01*
X102512779Y-164409789D01*
X102512780Y-164409789D01*
X102516082Y-164410144D01*
X102519392Y-164410144D01*
X102910034Y-164410144D01*
X102913358Y-164410144D01*
X102951465Y-164406047D01*
X102977970Y-164406047D01*
X103012779Y-164409789D01*
X103012780Y-164409789D01*
X103016082Y-164410144D01*
X103019392Y-164410144D01*
X103410048Y-164410144D01*
X103413358Y-164410144D01*
X103416657Y-164409789D01*
X103416662Y-164409789D01*
X103451465Y-164406048D01*
X103477972Y-164406047D01*
X103488061Y-164407131D01*
X103495472Y-164407928D01*
X103560024Y-164434664D01*
X103599873Y-164492056D01*
X103606220Y-164531218D01*
X103606220Y-164534781D01*
X103586535Y-164601820D01*
X103547500Y-164640207D01*
X103541206Y-164644103D01*
X103385962Y-164785628D01*
X103259366Y-164953267D01*
X103165733Y-165141309D01*
X103108245Y-165343357D01*
X103088863Y-165552532D01*
X103108245Y-165761706D01*
X103165733Y-165963754D01*
X103259366Y-166151796D01*
X103385962Y-166319435D01*
X103385964Y-166319437D01*
X103541206Y-166460960D01*
X103549464Y-166466073D01*
X103596099Y-166518102D01*
X103607203Y-166587083D01*
X103579249Y-166651118D01*
X103521114Y-166689874D01*
X103484186Y-166695500D01*
X102484093Y-166695500D01*
X102471939Y-166694903D01*
X102314671Y-166679413D01*
X102290830Y-166674671D01*
X102145462Y-166630575D01*
X102123005Y-166621273D01*
X101989035Y-166549663D01*
X101968824Y-166536159D01*
X101851398Y-166439791D01*
X101834208Y-166422601D01*
X101749544Y-166319437D01*
X101737839Y-166305174D01*
X101724336Y-166284965D01*
X101712525Y-166262868D01*
X101652724Y-166150989D01*
X101643427Y-166128544D01*
X101599326Y-165983163D01*
X101594587Y-165959335D01*
X101579097Y-165802061D01*
X101578500Y-165789907D01*
X101578500Y-165599718D01*
X101564534Y-165520516D01*
X101545062Y-165410082D01*
X101479202Y-165229132D01*
X101479202Y-165229131D01*
X101382921Y-165062367D01*
X101326446Y-164995064D01*
X101259144Y-164914856D01*
X101191840Y-164858381D01*
X101111632Y-164791078D01*
X100944868Y-164694797D01*
X100763918Y-164628938D01*
X100574282Y-164595500D01*
X100574281Y-164595500D01*
X100493917Y-164595500D01*
X98834093Y-164595500D01*
X98821939Y-164594903D01*
X98664671Y-164579413D01*
X98640830Y-164574671D01*
X98495462Y-164530575D01*
X98473005Y-164521273D01*
X98372533Y-164467569D01*
X98339034Y-164449663D01*
X98318824Y-164436159D01*
X98260110Y-164387974D01*
X98201397Y-164339790D01*
X98184208Y-164322601D01*
X98183629Y-164321896D01*
X98087839Y-164205174D01*
X98074336Y-164184965D01*
X98060517Y-164159112D01*
X98002724Y-164050989D01*
X97993427Y-164028544D01*
X97949326Y-163883163D01*
X97944587Y-163859335D01*
X97929097Y-163702061D01*
X97928500Y-163689907D01*
X97928500Y-161620579D01*
X97948185Y-161553540D01*
X98000989Y-161507785D01*
X98070147Y-161497841D01*
X98126808Y-161521310D01*
G37*
G04 #@! TD.AperFunction*
G04 #@! TA.AperFunction,Conductor*
G36*
X129286932Y-112616185D02*
G01*
X129326648Y-112657418D01*
X130536808Y-114705380D01*
X130547000Y-114727966D01*
X130547500Y-114728654D01*
X130560454Y-114746484D01*
X130566881Y-114756273D01*
X130571998Y-114764933D01*
X130581240Y-114775093D01*
X130585887Y-114781489D01*
X130595311Y-114788336D01*
X130605995Y-114792963D01*
X130605997Y-114792965D01*
X130613865Y-114793711D01*
X130627316Y-114796500D01*
X130632083Y-114796500D01*
X130637380Y-114796500D01*
X130649094Y-114797054D01*
X130671014Y-114799135D01*
X130671015Y-114799134D01*
X130671854Y-114799214D01*
X130696491Y-114796500D01*
X155040039Y-114796500D01*
X155048820Y-114796810D01*
X155073456Y-114798560D01*
X155077874Y-114795805D01*
X155105159Y-114783098D01*
X155110112Y-114781490D01*
X155124629Y-114761507D01*
X155130024Y-114754609D01*
X156677046Y-112914908D01*
X156907636Y-112640694D01*
X156965849Y-112602053D01*
X157002541Y-112596500D01*
X166442850Y-112596500D01*
X166509889Y-112616185D01*
X166538108Y-112641116D01*
X167455476Y-113741958D01*
X167710995Y-114048581D01*
X167720886Y-114062241D01*
X167730081Y-114076953D01*
X167730082Y-114076953D01*
X167730083Y-114076955D01*
X167741785Y-114081681D01*
X167761399Y-114091715D01*
X167772088Y-114098445D01*
X167772091Y-114098444D01*
X167781238Y-114100758D01*
X167790637Y-114101414D01*
X167790639Y-114101415D01*
X167802884Y-114098360D01*
X167824666Y-114094946D01*
X167837253Y-114094110D01*
X167850580Y-114083003D01*
X167864226Y-114073122D01*
X170196666Y-112615347D01*
X170262386Y-112596500D01*
X187739394Y-112596500D01*
X187806433Y-112616185D01*
X187836616Y-112643533D01*
X188716326Y-113754746D01*
X188719422Y-113758827D01*
X188735887Y-113781489D01*
X188735888Y-113781490D01*
X188737630Y-113782056D01*
X188767991Y-113796743D01*
X188769507Y-113797751D01*
X188769525Y-113797763D01*
X188796662Y-113796640D01*
X188797509Y-113796606D01*
X188802631Y-113796500D01*
X191155671Y-113796500D01*
X191178171Y-113796500D01*
X191187027Y-113796817D01*
X191373144Y-113810143D01*
X191390665Y-113812665D01*
X191568657Y-113851431D01*
X191585648Y-113856426D01*
X191756297Y-113920157D01*
X191772393Y-113927517D01*
X191932228Y-114014914D01*
X191947112Y-114024494D01*
X191997703Y-114062425D01*
X192092850Y-114133763D01*
X192106226Y-114145373D01*
X192234917Y-114274299D01*
X192246501Y-114287694D01*
X192345543Y-114420298D01*
X192355498Y-114433626D01*
X192365058Y-114448538D01*
X192454221Y-114612315D01*
X192458170Y-114620230D01*
X192458653Y-114621291D01*
X195689551Y-121720969D01*
X195699402Y-121790140D01*
X195670293Y-121853657D01*
X195611464Y-121891354D01*
X195541595Y-121891261D01*
X195482867Y-121853408D01*
X195475118Y-121843460D01*
X195404749Y-121742962D01*
X195249038Y-121587251D01*
X195068654Y-121460944D01*
X194976636Y-121418035D01*
X194869077Y-121367880D01*
X194656368Y-121310884D01*
X194437000Y-121291692D01*
X194217631Y-121310884D01*
X194004922Y-121367880D01*
X193875603Y-121428183D01*
X193805347Y-121460944D01*
X193640589Y-121576309D01*
X193624958Y-121587254D01*
X193469254Y-121742958D01*
X193469251Y-121742961D01*
X193469251Y-121742962D01*
X193343932Y-121921937D01*
X193342943Y-121923349D01*
X193249880Y-122122922D01*
X193192884Y-122335631D01*
X193173692Y-122555000D01*
X193192884Y-122774368D01*
X193249880Y-122987077D01*
X193264076Y-123017520D01*
X193342944Y-123186654D01*
X193469251Y-123367038D01*
X193624962Y-123522749D01*
X193805346Y-123649056D01*
X194004924Y-123742120D01*
X194217629Y-123799115D01*
X194345946Y-123810341D01*
X194436999Y-123818307D01*
X194436999Y-123818306D01*
X194437000Y-123818307D01*
X194656371Y-123799115D01*
X194869076Y-123742120D01*
X195068654Y-123649056D01*
X195249038Y-123522749D01*
X195404749Y-123367038D01*
X195531056Y-123186654D01*
X195624120Y-122987076D01*
X195681115Y-122774371D01*
X195700307Y-122555000D01*
X195695642Y-122501678D01*
X195681115Y-122335627D01*
X195656002Y-122241908D01*
X195657663Y-122172058D01*
X195696825Y-122114195D01*
X195761053Y-122086690D01*
X195829956Y-122098276D01*
X195881656Y-122145274D01*
X195888639Y-122158451D01*
X195899581Y-122182494D01*
X195936094Y-122262730D01*
X195939041Y-122269204D01*
X195940646Y-122274304D01*
X195945684Y-122284886D01*
X195945684Y-122284887D01*
X195956876Y-122308396D01*
X195963119Y-122322114D01*
X195963120Y-122322115D01*
X195967706Y-122332191D01*
X195968833Y-122333514D01*
X195969968Y-122334295D01*
X195991122Y-122352707D01*
X195995915Y-122357943D01*
X195995916Y-122357943D01*
X195998053Y-122359154D01*
X196004261Y-122360880D01*
X196013196Y-122364051D01*
X196013198Y-122364052D01*
X196026382Y-122365099D01*
X196041343Y-122367211D01*
X196059906Y-122370999D01*
X196061778Y-122371381D01*
X196084938Y-122371417D01*
X196124906Y-122376075D01*
X196534169Y-122423772D01*
X196543149Y-122425154D01*
X197027252Y-122518029D01*
X197036098Y-122520065D01*
X197512077Y-122648252D01*
X197520752Y-122650934D01*
X197986024Y-122813735D01*
X197994493Y-122817053D01*
X198331423Y-122963540D01*
X198446521Y-123013581D01*
X198454741Y-123017520D01*
X198482046Y-123031862D01*
X198873075Y-123237249D01*
X198891109Y-123246721D01*
X198899017Y-123251253D01*
X199317371Y-123511889D01*
X199324926Y-123516990D01*
X199711309Y-123799115D01*
X199723000Y-123807651D01*
X199730159Y-123813293D01*
X200105805Y-124132409D01*
X200112530Y-124138561D01*
X200463734Y-124484422D01*
X200469988Y-124491052D01*
X200794818Y-124861754D01*
X200800570Y-124868826D01*
X201097304Y-125262405D01*
X201102520Y-125269880D01*
X201369537Y-125684187D01*
X201374190Y-125692025D01*
X201610053Y-126124832D01*
X201614117Y-126132990D01*
X201817550Y-126581949D01*
X201821004Y-126590384D01*
X201971918Y-127001361D01*
X201990904Y-127053063D01*
X201993728Y-127061722D01*
X202116159Y-127490071D01*
X202122726Y-127513046D01*
X202127500Y-127547123D01*
X202127500Y-127548654D01*
X202128262Y-127550999D01*
X202130007Y-127553747D01*
X202136862Y-127566192D01*
X202136863Y-127566193D01*
X202136864Y-127566195D01*
X202144857Y-127574517D01*
X202155739Y-127587522D01*
X202165889Y-127601491D01*
X202168514Y-127603399D01*
X202174170Y-127605037D01*
X202174171Y-127605038D01*
X202196609Y-127611537D01*
X202200390Y-127612700D01*
X202222729Y-127619960D01*
X202225899Y-127620023D01*
X202225902Y-127620024D01*
X202225904Y-127620023D01*
X202226183Y-127620029D01*
X202255257Y-127616500D01*
X205401071Y-127616500D01*
X205421907Y-127616500D01*
X205434061Y-127617097D01*
X205591335Y-127632587D01*
X205615163Y-127637326D01*
X205760544Y-127681427D01*
X205782989Y-127690724D01*
X205916967Y-127762337D01*
X205937174Y-127775839D01*
X205964708Y-127798436D01*
X206054601Y-127872208D01*
X206071791Y-127889398D01*
X206168159Y-128006824D01*
X206181663Y-128027034D01*
X206253272Y-128161003D01*
X206262575Y-128183462D01*
X206306671Y-128328830D01*
X206311413Y-128352671D01*
X206326902Y-128509938D01*
X206327499Y-128522092D01*
X206327499Y-132174746D01*
X206307814Y-132241785D01*
X206304803Y-132246255D01*
X192612978Y-151643009D01*
X192558236Y-151686426D01*
X192511674Y-151695500D01*
X179959501Y-151695500D01*
X179959493Y-151695499D01*
X179945059Y-151695499D01*
X179923001Y-151695499D01*
X179913275Y-151695117D01*
X179851227Y-151690235D01*
X179708922Y-151679038D01*
X179689704Y-151675994D01*
X179495146Y-151629288D01*
X179476640Y-151623276D01*
X179291772Y-151546705D01*
X179274435Y-151537871D01*
X179138999Y-151454879D01*
X179103833Y-151433329D01*
X179088093Y-151421894D01*
X178935936Y-151291943D01*
X178922176Y-151278184D01*
X178915646Y-151270538D01*
X178792226Y-151126035D01*
X178780791Y-151110296D01*
X178754254Y-151066993D01*
X178676239Y-150939687D01*
X178667406Y-150922350D01*
X178590835Y-150737494D01*
X178584822Y-150718989D01*
X178553222Y-150587368D01*
X178538109Y-150524422D01*
X178535066Y-150505206D01*
X178526078Y-150391007D01*
X178519161Y-150303125D01*
X178518840Y-150289587D01*
X178530572Y-149911377D01*
X178516871Y-149135651D01*
X178465477Y-148361508D01*
X178376511Y-147590779D01*
X178250185Y-146825286D01*
X178086797Y-146066838D01*
X177886733Y-145317230D01*
X177650465Y-144578233D01*
X177378554Y-143851595D01*
X177071641Y-143139035D01*
X176730453Y-142442236D01*
X176355796Y-141762846D01*
X175948556Y-141102472D01*
X175509696Y-140462675D01*
X175040253Y-139844968D01*
X175039284Y-139843814D01*
X175039272Y-139843799D01*
X174542310Y-139251969D01*
X174542300Y-139251958D01*
X174541338Y-139250812D01*
X174014130Y-138681611D01*
X174013078Y-138680581D01*
X174013060Y-138680562D01*
X173460956Y-138139770D01*
X173459875Y-138138711D01*
X173426965Y-138109473D01*
X173208720Y-137915578D01*
X173208617Y-137915413D01*
X173145137Y-137858996D01*
X172876064Y-137619862D01*
X172844108Y-137594169D01*
X172264472Y-137128138D01*
X172264464Y-137128131D01*
X172263295Y-137127192D01*
X171626999Y-136665307D01*
X171601146Y-136648420D01*
X170969994Y-136236160D01*
X170969979Y-136236151D01*
X170968721Y-136235329D01*
X170290060Y-135838303D01*
X169680042Y-135520687D01*
X169594024Y-135475900D01*
X169594020Y-135475898D01*
X169592664Y-135475192D01*
X169392832Y-135383361D01*
X169212839Y-135300647D01*
X172741588Y-135300647D01*
X172759902Y-135474898D01*
X172814044Y-135641530D01*
X172901646Y-135793263D01*
X173018888Y-135923472D01*
X173160633Y-136026456D01*
X173320697Y-136097721D01*
X173492073Y-136134148D01*
X173492075Y-136134148D01*
X173667285Y-136134148D01*
X173838660Y-136097721D01*
X173838661Y-136097720D01*
X173838663Y-136097720D01*
X173998725Y-136026456D01*
X174140471Y-135923471D01*
X174257709Y-135793266D01*
X174257754Y-135793189D01*
X174345313Y-135641530D01*
X174372580Y-135557611D01*
X174399456Y-135474897D01*
X174417770Y-135300648D01*
X174399456Y-135126399D01*
X174361706Y-135010218D01*
X174345313Y-134959765D01*
X174257711Y-134808032D01*
X174190072Y-134732912D01*
X174140471Y-134677825D01*
X174140470Y-134677824D01*
X174140469Y-134677823D01*
X173998724Y-134574839D01*
X173838660Y-134503574D01*
X173667285Y-134467148D01*
X173667283Y-134467148D01*
X173492075Y-134467148D01*
X173492073Y-134467148D01*
X173320697Y-134503574D01*
X173160631Y-134574840D01*
X173018890Y-134677821D01*
X172901646Y-134808032D01*
X172814044Y-134959765D01*
X172759902Y-135126397D01*
X172741588Y-135300647D01*
X169212839Y-135300647D01*
X168879620Y-135147519D01*
X168879615Y-135147516D01*
X168878227Y-135146879D01*
X168148484Y-134854160D01*
X168147074Y-134853673D01*
X168147051Y-134853665D01*
X167406642Y-134598242D01*
X167406615Y-134598233D01*
X167405205Y-134597747D01*
X167403786Y-134597334D01*
X167403753Y-134597324D01*
X166909572Y-134453663D01*
X166850693Y-134416047D01*
X166821497Y-134352569D01*
X166831254Y-134283384D01*
X166876867Y-134230457D01*
X166943853Y-134210592D01*
X167775989Y-134210592D01*
X167792173Y-134211652D01*
X167823994Y-134215842D01*
X167863874Y-134210592D01*
X167863879Y-134210592D01*
X167963450Y-134197483D01*
X167982845Y-134194930D01*
X168130870Y-134133616D01*
X168226066Y-134060569D01*
X168226066Y-134060567D01*
X168242358Y-134048067D01*
X168242359Y-134048065D01*
X168257981Y-134036079D01*
X168277530Y-134010601D01*
X168288210Y-133998423D01*
X169081197Y-133205438D01*
X169081197Y-133205437D01*
X170067378Y-132219255D01*
X170079556Y-132208575D01*
X170105033Y-132189027D01*
X170117016Y-132173410D01*
X170117019Y-132173407D01*
X170129521Y-132157112D01*
X170129523Y-132157112D01*
X170198975Y-132066599D01*
X170206608Y-132057579D01*
X170209042Y-132054965D01*
X170212508Y-132048962D01*
X170215660Y-132044853D01*
X170215421Y-132043477D01*
X170224067Y-132010016D01*
X170263884Y-131913890D01*
X170279546Y-131794925D01*
X170279546Y-131794917D01*
X170284796Y-131755040D01*
X170280606Y-131723219D01*
X170279546Y-131707035D01*
X170279546Y-131480753D01*
X170279546Y-131182672D01*
X170279545Y-131182671D01*
X170279545Y-125653668D01*
X170299230Y-125586633D01*
X170352034Y-125540878D01*
X170421192Y-125530934D01*
X170455950Y-125541290D01*
X170492583Y-125558372D01*
X170705288Y-125615367D01*
X170924659Y-125634559D01*
X171144030Y-125615367D01*
X171356735Y-125558372D01*
X171556313Y-125465308D01*
X171736697Y-125339001D01*
X171892408Y-125183290D01*
X172018715Y-125002906D01*
X172111779Y-124803328D01*
X172168774Y-124590623D01*
X172187966Y-124371252D01*
X172186569Y-124355289D01*
X172178827Y-124266785D01*
X172168774Y-124151881D01*
X172111779Y-123939176D01*
X172018715Y-123739599D01*
X171892408Y-123559214D01*
X171736697Y-123403503D01*
X171556313Y-123277196D01*
X171464295Y-123234287D01*
X171356736Y-123184132D01*
X171144027Y-123127136D01*
X170924659Y-123107944D01*
X170705290Y-123127136D01*
X170492583Y-123184132D01*
X170455950Y-123201214D01*
X170386872Y-123211705D01*
X170323088Y-123183184D01*
X170284849Y-123124708D01*
X170279546Y-123088831D01*
X170279546Y-121110921D01*
X176796244Y-121110921D01*
X176814558Y-121285171D01*
X176868700Y-121451803D01*
X176956304Y-121603539D01*
X177005568Y-121658252D01*
X177035798Y-121721244D01*
X177036357Y-121725037D01*
X177041497Y-121764078D01*
X177102810Y-121912102D01*
X177175831Y-122007265D01*
X177175848Y-122007287D01*
X177175858Y-122007299D01*
X177175860Y-122007301D01*
X177189884Y-122025577D01*
X177200349Y-122039215D01*
X177225813Y-122058754D01*
X177238008Y-122069449D01*
X178749901Y-123581342D01*
X178783386Y-123642665D01*
X178786220Y-123669023D01*
X178786220Y-124224980D01*
X178766535Y-124292019D01*
X178713731Y-124337774D01*
X178644573Y-124347718D01*
X178636439Y-124346270D01*
X178466326Y-124310112D01*
X178466324Y-124310112D01*
X178291116Y-124310112D01*
X178291114Y-124310112D01*
X178119738Y-124346538D01*
X177959672Y-124417804D01*
X177817931Y-124520785D01*
X177700687Y-124650996D01*
X177613085Y-124802729D01*
X177558943Y-124969361D01*
X177547856Y-125074847D01*
X177521271Y-125139461D01*
X177512216Y-125149565D01*
X177474391Y-125187390D01*
X177462198Y-125198083D01*
X177436736Y-125217621D01*
X177436732Y-125217625D01*
X177436733Y-125217625D01*
X177412245Y-125249537D01*
X177412243Y-125249540D01*
X177409894Y-125252600D01*
X177409890Y-125252604D01*
X177339196Y-125344735D01*
X177277882Y-125492758D01*
X177277882Y-125492761D01*
X177277853Y-125492979D01*
X177262220Y-125611727D01*
X177262220Y-125611732D01*
X177261672Y-125615888D01*
X177256969Y-125651611D01*
X177261159Y-125683430D01*
X177262220Y-125699616D01*
X177262220Y-133924173D01*
X177242535Y-133991212D01*
X177230370Y-134007145D01*
X177192689Y-134048993D01*
X177105085Y-134200729D01*
X177050943Y-134367361D01*
X177032629Y-134541612D01*
X177050943Y-134715862D01*
X177105085Y-134882494D01*
X177192687Y-135034227D01*
X177309929Y-135164436D01*
X177451674Y-135267420D01*
X177611738Y-135338685D01*
X177783114Y-135375112D01*
X177783116Y-135375112D01*
X177958326Y-135375112D01*
X178129701Y-135338685D01*
X178129702Y-135338684D01*
X178129704Y-135338684D01*
X178289766Y-135267420D01*
X178431512Y-135164435D01*
X178540569Y-135043315D01*
X178600057Y-135006666D01*
X178669914Y-135007997D01*
X178724870Y-135043315D01*
X178833926Y-135164434D01*
X178941819Y-135242823D01*
X178975674Y-135267420D01*
X178999239Y-135277912D01*
X179147337Y-135343849D01*
X179200574Y-135389099D01*
X179220430Y-135446320D01*
X179222884Y-135474368D01*
X179279880Y-135687077D01*
X179300763Y-135731861D01*
X179372944Y-135886654D01*
X179499251Y-136067038D01*
X179654962Y-136222749D01*
X179835346Y-136349056D01*
X180034924Y-136442120D01*
X180247629Y-136499115D01*
X180467000Y-136518307D01*
X180686371Y-136499115D01*
X180899076Y-136442120D01*
X181098654Y-136349056D01*
X181279038Y-136222749D01*
X181434749Y-136067038D01*
X181561056Y-135886654D01*
X181654120Y-135687076D01*
X181711115Y-135474371D01*
X181730307Y-135255000D01*
X181711115Y-135035629D01*
X181654120Y-134822924D01*
X181561056Y-134623347D01*
X181434749Y-134442962D01*
X181279038Y-134287251D01*
X181098654Y-134160944D01*
X180942402Y-134088083D01*
X180899077Y-134067880D01*
X180686368Y-134010884D01*
X180466999Y-133991692D01*
X180247631Y-134010884D01*
X180159314Y-134034549D01*
X180089464Y-134032886D01*
X180031601Y-133993724D01*
X180004097Y-133929495D01*
X180003220Y-133914774D01*
X180003220Y-124889612D01*
X184398629Y-124889612D01*
X184416943Y-125063862D01*
X184471085Y-125230494D01*
X184558687Y-125382227D01*
X184675929Y-125512436D01*
X184817674Y-125615420D01*
X184977738Y-125686685D01*
X185149114Y-125723112D01*
X185149116Y-125723112D01*
X185324326Y-125723112D01*
X185495701Y-125686685D01*
X185495702Y-125686684D01*
X185495704Y-125686684D01*
X185655766Y-125615420D01*
X185797512Y-125512435D01*
X185914750Y-125382230D01*
X185939711Y-125338997D01*
X186002354Y-125230494D01*
X186015491Y-125190062D01*
X186056497Y-125063861D01*
X186074811Y-124889612D01*
X186056497Y-124715363D01*
X186002354Y-124548730D01*
X186002354Y-124548729D01*
X185914752Y-124396996D01*
X185841354Y-124315480D01*
X185797512Y-124266789D01*
X185797511Y-124266788D01*
X185797510Y-124266787D01*
X185655765Y-124163803D01*
X185495701Y-124092538D01*
X185324326Y-124056112D01*
X185324324Y-124056112D01*
X185149116Y-124056112D01*
X185149114Y-124056112D01*
X184977738Y-124092538D01*
X184817672Y-124163804D01*
X184675931Y-124266785D01*
X184558687Y-124396996D01*
X184471085Y-124548729D01*
X184416943Y-124715361D01*
X184398629Y-124889612D01*
X180003220Y-124889612D01*
X180003220Y-123413616D01*
X180004281Y-123397430D01*
X180008470Y-123365611D01*
X180003220Y-123325733D01*
X180003220Y-123325727D01*
X179987558Y-123206761D01*
X179984134Y-123198493D01*
X179926244Y-123058735D01*
X179853204Y-122963549D01*
X179853195Y-122963538D01*
X179846118Y-122954316D01*
X179828707Y-122931625D01*
X179803232Y-122912077D01*
X179791046Y-122901389D01*
X179694538Y-122804881D01*
X179661053Y-122743558D01*
X179666037Y-122673866D01*
X179707909Y-122617933D01*
X179731785Y-122603920D01*
X179743683Y-122598623D01*
X179813766Y-122567420D01*
X179942630Y-122473793D01*
X180008436Y-122450314D01*
X180015516Y-122450112D01*
X187624060Y-122450112D01*
X187691099Y-122469797D01*
X187736854Y-122522601D01*
X187746798Y-122591759D01*
X187741991Y-122612430D01*
X187718943Y-122683361D01*
X187700629Y-122857612D01*
X187718943Y-123031862D01*
X187773085Y-123198493D01*
X187860687Y-123350227D01*
X187977929Y-123480436D01*
X188024539Y-123514300D01*
X188119674Y-123583420D01*
X188279736Y-123654684D01*
X188340000Y-123667493D01*
X188401481Y-123700684D01*
X188435258Y-123761847D01*
X188438219Y-123788783D01*
X188438220Y-133162173D01*
X188418535Y-133229212D01*
X188406370Y-133245145D01*
X188368689Y-133286993D01*
X188281085Y-133438729D01*
X188226943Y-133605361D01*
X188215856Y-133710847D01*
X188189271Y-133775461D01*
X188180216Y-133785565D01*
X187888391Y-134077390D01*
X187876198Y-134088083D01*
X187850736Y-134107621D01*
X187830789Y-134133616D01*
X187826245Y-134139537D01*
X187826243Y-134139540D01*
X187823894Y-134142600D01*
X187823890Y-134142604D01*
X187753196Y-134234735D01*
X187691882Y-134382760D01*
X187690486Y-134393363D01*
X187676220Y-134501726D01*
X187676220Y-134501733D01*
X187670969Y-134541611D01*
X187675159Y-134573430D01*
X187676220Y-134589616D01*
X187676220Y-143539822D01*
X187656535Y-143606861D01*
X187603731Y-143652616D01*
X187534573Y-143662560D01*
X187471017Y-143633535D01*
X187439838Y-143592227D01*
X187439426Y-143591343D01*
X187403056Y-143513347D01*
X187276749Y-143332962D01*
X187121038Y-143177251D01*
X186940654Y-143050944D01*
X186838976Y-143003531D01*
X186741077Y-142957880D01*
X186528368Y-142900884D01*
X186308999Y-142881692D01*
X186089631Y-142900884D01*
X185876922Y-142957880D01*
X185677349Y-143050943D01*
X185677347Y-143050944D01*
X185565873Y-143128999D01*
X185496958Y-143177254D01*
X185341254Y-143332958D01*
X185341251Y-143332961D01*
X185341251Y-143332962D01*
X185330462Y-143348371D01*
X185214943Y-143513349D01*
X185121880Y-143712922D01*
X185064884Y-143925631D01*
X185045692Y-144145000D01*
X185064884Y-144364368D01*
X185121881Y-144577080D01*
X185188715Y-144720407D01*
X185199207Y-144789484D01*
X185170687Y-144853268D01*
X185112210Y-144891507D01*
X185102115Y-144894101D01*
X184977737Y-144920539D01*
X184817672Y-144991804D01*
X184675931Y-145094785D01*
X184558687Y-145224996D01*
X184471085Y-145376729D01*
X184416943Y-145543361D01*
X184398629Y-145717612D01*
X184416943Y-145891862D01*
X184471085Y-146058494D01*
X184558687Y-146210227D01*
X184675929Y-146340436D01*
X184817674Y-146443420D01*
X184977738Y-146514685D01*
X185149114Y-146551112D01*
X185149116Y-146551112D01*
X185324326Y-146551112D01*
X185495701Y-146514685D01*
X185495702Y-146514684D01*
X185495704Y-146514684D01*
X185655766Y-146443420D01*
X185797512Y-146340435D01*
X185914750Y-146210230D01*
X185930859Y-146182329D01*
X186002354Y-146058494D01*
X186029776Y-145974099D01*
X186056497Y-145891861D01*
X186074811Y-145717612D01*
X186056497Y-145543363D01*
X186056494Y-145543356D01*
X186055549Y-145534358D01*
X186068118Y-145465628D01*
X186115850Y-145414604D01*
X186183590Y-145397486D01*
X186189677Y-145397868D01*
X186309000Y-145408307D01*
X186528371Y-145389115D01*
X186741076Y-145332120D01*
X186940654Y-145239056D01*
X187121038Y-145112749D01*
X187276749Y-144957038D01*
X187403056Y-144776654D01*
X187421137Y-144737876D01*
X187467307Y-144685438D01*
X187534500Y-144666285D01*
X187601382Y-144686499D01*
X187625668Y-144707308D01*
X187723926Y-144816433D01*
X187723928Y-144816435D01*
X187834949Y-144897097D01*
X187865674Y-144919420D01*
X188025738Y-144990685D01*
X188197114Y-145027112D01*
X188197116Y-145027112D01*
X188372326Y-145027112D01*
X188543701Y-144990685D01*
X188543702Y-144990684D01*
X188543704Y-144990684D01*
X188703766Y-144919420D01*
X188845512Y-144816435D01*
X188962750Y-144686230D01*
X188963208Y-144685438D01*
X189050354Y-144534494D01*
X189071147Y-144470500D01*
X189104497Y-144367861D01*
X189122811Y-144193612D01*
X189104497Y-144019363D01*
X189051393Y-143855928D01*
X189050354Y-143852729D01*
X188962750Y-143700993D01*
X188925070Y-143659145D01*
X188894840Y-143596153D01*
X188893220Y-143576173D01*
X188893220Y-141596000D01*
X193222357Y-141596000D01*
X193242885Y-141817537D01*
X193303769Y-142031526D01*
X193402941Y-142230688D01*
X193537019Y-142408237D01*
X193701437Y-142558124D01*
X193890595Y-142675245D01*
X193890597Y-142675245D01*
X193890599Y-142675247D01*
X194098060Y-142755618D01*
X194316757Y-142796500D01*
X194316759Y-142796500D01*
X194539241Y-142796500D01*
X194539243Y-142796500D01*
X194757940Y-142755618D01*
X194965401Y-142675247D01*
X195154562Y-142558124D01*
X195318981Y-142408236D01*
X195453058Y-142230689D01*
X195552229Y-142031528D01*
X195553966Y-142025426D01*
X195583240Y-141922536D01*
X195613115Y-141817536D01*
X195633643Y-141596000D01*
X195613115Y-141374464D01*
X195562719Y-141197339D01*
X195552230Y-141160473D01*
X195453058Y-140961311D01*
X195318980Y-140783762D01*
X195154562Y-140633875D01*
X194965404Y-140516754D01*
X194846166Y-140470561D01*
X194757940Y-140436382D01*
X194539243Y-140395500D01*
X194316757Y-140395500D01*
X194110080Y-140434135D01*
X194098060Y-140436382D01*
X193890595Y-140516754D01*
X193701437Y-140633875D01*
X193537019Y-140783762D01*
X193402941Y-140961311D01*
X193303769Y-141160473D01*
X193242885Y-141374462D01*
X193222357Y-141596000D01*
X188893220Y-141596000D01*
X188893220Y-139213619D01*
X188893220Y-135557612D01*
X196336629Y-135557612D01*
X196345449Y-135641530D01*
X196354943Y-135731862D01*
X196409085Y-135898494D01*
X196496687Y-136050227D01*
X196613929Y-136180436D01*
X196755674Y-136283420D01*
X196915738Y-136354685D01*
X197087114Y-136391112D01*
X197087116Y-136391112D01*
X197262326Y-136391112D01*
X197433701Y-136354685D01*
X197433702Y-136354684D01*
X197433704Y-136354684D01*
X197593766Y-136283420D01*
X197735512Y-136180435D01*
X197852750Y-136050230D01*
X197858038Y-136041072D01*
X197940354Y-135898494D01*
X197960142Y-135837592D01*
X197994497Y-135731861D01*
X198012811Y-135557612D01*
X197994497Y-135383363D01*
X197964185Y-135290072D01*
X197940354Y-135216729D01*
X197852752Y-135064996D01*
X197759006Y-134960882D01*
X197735512Y-134934789D01*
X197735511Y-134934788D01*
X197735510Y-134934787D01*
X197593765Y-134831803D01*
X197433701Y-134760538D01*
X197262326Y-134724112D01*
X197262324Y-134724112D01*
X197087116Y-134724112D01*
X197087114Y-134724112D01*
X196915738Y-134760538D01*
X196755672Y-134831804D01*
X196613931Y-134934785D01*
X196496687Y-135064996D01*
X196409085Y-135216729D01*
X196354943Y-135383361D01*
X196340177Y-135523851D01*
X196336629Y-135557612D01*
X188893220Y-135557612D01*
X188893220Y-134845018D01*
X188912904Y-134777983D01*
X188929534Y-134757346D01*
X189037450Y-134649430D01*
X189098774Y-134615946D01*
X189125131Y-134613112D01*
X189134326Y-134613112D01*
X189247879Y-134588975D01*
X189305704Y-134576684D01*
X189318503Y-134570985D01*
X189387749Y-134561699D01*
X189451026Y-134591325D01*
X189488242Y-134650459D01*
X189492259Y-134671297D01*
X189493281Y-134681019D01*
X189496943Y-134715862D01*
X189551085Y-134882494D01*
X189638687Y-135034227D01*
X189755929Y-135164436D01*
X189897674Y-135267420D01*
X190057738Y-135338685D01*
X190229114Y-135375112D01*
X190229116Y-135375112D01*
X190404326Y-135375112D01*
X190575701Y-135338685D01*
X190575702Y-135338684D01*
X190575704Y-135338684D01*
X190735766Y-135267420D01*
X190877512Y-135164435D01*
X190994750Y-135034230D01*
X191009896Y-135007997D01*
X191082354Y-134882494D01*
X191091721Y-134853665D01*
X191136497Y-134715861D01*
X191154811Y-134541612D01*
X191136497Y-134367363D01*
X191100882Y-134257752D01*
X191082354Y-134200729D01*
X190994752Y-134048996D01*
X190902235Y-133946247D01*
X190877512Y-133918789D01*
X190877511Y-133918788D01*
X190877510Y-133918787D01*
X190735765Y-133815803D01*
X190575702Y-133744539D01*
X190515438Y-133731729D01*
X190453956Y-133698536D01*
X190420180Y-133637373D01*
X190417220Y-133610439D01*
X190417220Y-124745049D01*
X190436905Y-124678010D01*
X190449064Y-124662083D01*
X190486750Y-124620230D01*
X190503844Y-124590623D01*
X190574354Y-124468494D01*
X190605950Y-124371252D01*
X190628497Y-124301861D01*
X190646811Y-124127612D01*
X190628497Y-123953363D01*
X190578378Y-123799115D01*
X190574354Y-123786729D01*
X190486752Y-123634996D01*
X190369510Y-123504787D01*
X190227765Y-123401803D01*
X190067701Y-123330538D01*
X189896326Y-123294112D01*
X189896324Y-123294112D01*
X189758594Y-123294112D01*
X189691555Y-123274427D01*
X189645800Y-123221623D01*
X189644033Y-123217565D01*
X189605570Y-123124708D01*
X189578244Y-123058737D01*
X189537671Y-123005861D01*
X189505197Y-122963540D01*
X189505194Y-122963537D01*
X189498119Y-122954317D01*
X189498119Y-122954316D01*
X189490582Y-122944494D01*
X189480707Y-122931625D01*
X189455232Y-122912077D01*
X189443046Y-122901389D01*
X189408330Y-122866673D01*
X189374845Y-122805350D01*
X189379829Y-122735658D01*
X189421701Y-122679725D01*
X189470226Y-122657703D01*
X189559704Y-122638684D01*
X189719766Y-122567420D01*
X189861512Y-122464435D01*
X189978750Y-122334230D01*
X189979164Y-122333514D01*
X190066354Y-122182494D01*
X190078448Y-122145274D01*
X190120497Y-122015861D01*
X190138811Y-121841612D01*
X190120497Y-121667363D01*
X190090911Y-121576308D01*
X190066354Y-121500729D01*
X189978752Y-121348996D01*
X189920131Y-121283891D01*
X189861512Y-121218789D01*
X189861511Y-121218788D01*
X189861510Y-121218787D01*
X189719765Y-121115803D01*
X189559701Y-121044538D01*
X189388326Y-121008112D01*
X189388324Y-121008112D01*
X189213116Y-121008112D01*
X189213114Y-121008112D01*
X189041738Y-121044538D01*
X188881675Y-121115803D01*
X188752810Y-121209430D01*
X188687003Y-121232910D01*
X188679924Y-121233112D01*
X180015516Y-121233112D01*
X179948477Y-121213427D01*
X179942638Y-121209435D01*
X179813766Y-121115804D01*
X179813765Y-121115803D01*
X179653701Y-121044538D01*
X179482326Y-121008112D01*
X179482324Y-121008112D01*
X179307116Y-121008112D01*
X179307114Y-121008112D01*
X179135738Y-121044538D01*
X178975672Y-121115804D01*
X178833931Y-121218785D01*
X178716687Y-121348996D01*
X178658589Y-121449627D01*
X178608022Y-121497843D01*
X178539415Y-121511066D01*
X178474550Y-121485098D01*
X178434022Y-121428183D01*
X178430697Y-121358393D01*
X178433263Y-121349333D01*
X178454112Y-121285170D01*
X178472426Y-121110921D01*
X178454112Y-120936672D01*
X178399969Y-120770039D01*
X178399969Y-120770038D01*
X178312367Y-120618305D01*
X178195125Y-120488096D01*
X178053380Y-120385112D01*
X177893316Y-120313847D01*
X177721941Y-120277421D01*
X177721939Y-120277421D01*
X177546731Y-120277421D01*
X177546729Y-120277421D01*
X177375353Y-120313847D01*
X177215287Y-120385113D01*
X177073546Y-120488094D01*
X176956302Y-120618305D01*
X176868700Y-120770038D01*
X176814558Y-120936670D01*
X176796244Y-121110921D01*
X170279546Y-121110921D01*
X170279546Y-115680651D01*
X170299231Y-115613612D01*
X170311397Y-115597678D01*
X170420750Y-115476230D01*
X170508354Y-115324494D01*
X170553467Y-115185651D01*
X170562497Y-115157861D01*
X170580811Y-114983612D01*
X170562497Y-114809363D01*
X170531789Y-114714856D01*
X170508354Y-114642729D01*
X170457127Y-114554000D01*
X179330692Y-114554000D01*
X179349884Y-114773368D01*
X179406880Y-114986077D01*
X179426957Y-115029132D01*
X179499944Y-115185654D01*
X179626251Y-115366038D01*
X179781962Y-115521749D01*
X179962346Y-115648056D01*
X180161924Y-115741120D01*
X180374629Y-115798115D01*
X180594000Y-115817307D01*
X180813371Y-115798115D01*
X181026076Y-115741120D01*
X181225654Y-115648056D01*
X181406038Y-115521749D01*
X181561749Y-115366038D01*
X181688056Y-115185654D01*
X181781120Y-114986076D01*
X181838115Y-114773371D01*
X181857307Y-114554000D01*
X181838115Y-114334629D01*
X181781120Y-114121924D01*
X181688056Y-113922347D01*
X181561749Y-113741962D01*
X181406038Y-113586251D01*
X181225654Y-113459944D01*
X181133636Y-113417035D01*
X181026077Y-113366880D01*
X180813368Y-113309884D01*
X180594000Y-113290692D01*
X180374631Y-113309884D01*
X180161922Y-113366880D01*
X179962349Y-113459943D01*
X179962347Y-113459944D01*
X179781962Y-113586251D01*
X179781958Y-113586254D01*
X179626254Y-113741958D01*
X179626251Y-113741961D01*
X179626251Y-113741962D01*
X179578066Y-113810778D01*
X179499943Y-113922349D01*
X179406880Y-114121922D01*
X179349884Y-114334631D01*
X179330692Y-114554000D01*
X170457127Y-114554000D01*
X170420752Y-114490996D01*
X170303510Y-114360787D01*
X170161765Y-114257803D01*
X170001701Y-114186538D01*
X169830326Y-114150112D01*
X169830324Y-114150112D01*
X169655116Y-114150112D01*
X169655114Y-114150112D01*
X169483738Y-114186538D01*
X169323672Y-114257804D01*
X169181931Y-114360785D01*
X169064687Y-114490996D01*
X168977085Y-114642729D01*
X168922943Y-114809361D01*
X168904629Y-114983611D01*
X168922943Y-115157862D01*
X168977085Y-115324494D01*
X169045933Y-115443741D01*
X169062546Y-115505741D01*
X169062546Y-121972098D01*
X169042861Y-122039137D01*
X168990057Y-122084892D01*
X168920899Y-122094836D01*
X168857343Y-122065811D01*
X168846396Y-122055071D01*
X168832118Y-122039214D01*
X168779512Y-121980789D01*
X168779511Y-121980788D01*
X168779510Y-121980787D01*
X168637765Y-121877803D01*
X168477701Y-121806538D01*
X168374983Y-121784705D01*
X168313501Y-121751512D01*
X168279725Y-121690349D01*
X168277445Y-121676389D01*
X168276497Y-121667363D01*
X168246911Y-121576308D01*
X168222354Y-121500729D01*
X168134752Y-121348996D01*
X168076130Y-121283891D01*
X168017512Y-121218789D01*
X168017511Y-121218788D01*
X168017510Y-121218787D01*
X167875765Y-121115803D01*
X167715701Y-121044538D01*
X167544326Y-121008112D01*
X167544324Y-121008112D01*
X167369116Y-121008112D01*
X167369114Y-121008112D01*
X167197738Y-121044538D01*
X167037672Y-121115804D01*
X166895931Y-121218785D01*
X166778687Y-121348996D01*
X166691085Y-121500729D01*
X166636943Y-121667361D01*
X166618629Y-121841612D01*
X166636943Y-122015862D01*
X166691085Y-122182494D01*
X166778687Y-122334227D01*
X166779951Y-122335631D01*
X166816370Y-122376077D01*
X166846599Y-122439067D01*
X166848220Y-122459049D01*
X166848220Y-122662112D01*
X166828535Y-122729151D01*
X166775731Y-122774906D01*
X166724220Y-122786112D01*
X166607114Y-122786112D01*
X166435738Y-122822538D01*
X166275672Y-122893804D01*
X166133931Y-122996785D01*
X166016687Y-123126996D01*
X165929085Y-123278729D01*
X165874943Y-123445361D01*
X165856629Y-123619611D01*
X165874943Y-123793862D01*
X165929085Y-123960494D01*
X166016687Y-124112227D01*
X166016690Y-124112230D01*
X166054370Y-124154077D01*
X166084599Y-124217067D01*
X166086220Y-124237049D01*
X166086220Y-127768869D01*
X166066535Y-127835908D01*
X166049901Y-127856550D01*
X165392270Y-128514181D01*
X165330947Y-128547666D01*
X165304589Y-128550500D01*
X154503776Y-128550500D01*
X154487591Y-128549439D01*
X154455769Y-128545249D01*
X154415895Y-128550499D01*
X154415876Y-128550501D01*
X154316314Y-128563608D01*
X154296917Y-128566162D01*
X154148895Y-128627475D01*
X154058455Y-128696872D01*
X154058446Y-128696879D01*
X154053699Y-128700523D01*
X154053696Y-128700525D01*
X154052066Y-128701776D01*
X154021781Y-128725015D01*
X154002237Y-128750484D01*
X153991546Y-128762674D01*
X152973032Y-129781188D01*
X152911709Y-129814673D01*
X152842017Y-129809689D01*
X152786084Y-129767817D01*
X152761667Y-129702353D01*
X152761823Y-129682700D01*
X152772463Y-129561072D01*
X152774307Y-129540000D01*
X152755115Y-129320629D01*
X152755115Y-129320627D01*
X152702099Y-129122774D01*
X152698120Y-129107924D01*
X152605056Y-128908347D01*
X152478749Y-128727962D01*
X152323038Y-128572251D01*
X152142654Y-128445944D01*
X152050636Y-128403035D01*
X151943077Y-128352880D01*
X151730368Y-128295884D01*
X151510999Y-128276692D01*
X151291631Y-128295884D01*
X151078922Y-128352880D01*
X150879349Y-128445943D01*
X150879347Y-128445944D01*
X150707658Y-128566162D01*
X150698958Y-128572254D01*
X150543254Y-128727958D01*
X150543251Y-128727961D01*
X150543251Y-128727962D01*
X150507284Y-128779329D01*
X150416943Y-128908349D01*
X150323880Y-129107922D01*
X150266885Y-129320627D01*
X150247692Y-129539999D01*
X150266884Y-129759368D01*
X150311038Y-129924150D01*
X150309375Y-129994000D01*
X150270213Y-130051863D01*
X150205985Y-130079367D01*
X150137082Y-130067781D01*
X150103582Y-130043925D01*
X149378945Y-129319288D01*
X149368251Y-129307094D01*
X149348709Y-129281627D01*
X149348707Y-129281626D01*
X149348707Y-129281625D01*
X149316794Y-129257137D01*
X149316792Y-129257135D01*
X149316780Y-129257125D01*
X149316758Y-129257108D01*
X149221596Y-129184088D01*
X149073571Y-129122774D01*
X149054176Y-129120220D01*
X148954622Y-129107114D01*
X148954612Y-129107112D01*
X148954605Y-129107112D01*
X148954603Y-129107112D01*
X148954594Y-129107111D01*
X148914720Y-129101861D01*
X148882900Y-129106051D01*
X148866715Y-129107112D01*
X130032142Y-129107112D01*
X129965103Y-129087427D01*
X129919348Y-129034623D01*
X129909404Y-128965465D01*
X129917579Y-128935663D01*
X129949558Y-128858462D01*
X129965220Y-128739497D01*
X129965219Y-128739495D01*
X129967296Y-128723726D01*
X129967296Y-128723715D01*
X129970470Y-128699612D01*
X129966280Y-128667791D01*
X129965220Y-128651607D01*
X129965220Y-127270702D01*
X130807359Y-127270702D01*
X130826551Y-127490071D01*
X130883547Y-127702780D01*
X130928152Y-127798435D01*
X130976611Y-127902357D01*
X131102918Y-128082741D01*
X131258629Y-128238452D01*
X131439013Y-128364759D01*
X131638591Y-128457823D01*
X131851296Y-128514818D01*
X131997543Y-128527612D01*
X132070666Y-128534010D01*
X132070666Y-128534009D01*
X132070667Y-128534010D01*
X132290038Y-128514818D01*
X132502743Y-128457823D01*
X132702321Y-128364759D01*
X132882705Y-128238452D01*
X133038416Y-128082741D01*
X133164723Y-127902357D01*
X133257787Y-127702779D01*
X133314782Y-127490074D01*
X133333974Y-127270703D01*
X133314782Y-127051332D01*
X133257787Y-126838627D01*
X133164723Y-126639050D01*
X133038416Y-126458665D01*
X132882705Y-126302954D01*
X132702321Y-126176647D01*
X132599783Y-126128833D01*
X132502744Y-126083583D01*
X132290035Y-126026587D01*
X132070667Y-126007395D01*
X131851298Y-126026587D01*
X131638589Y-126083583D01*
X131439016Y-126176646D01*
X131439014Y-126176647D01*
X131258629Y-126302954D01*
X131258625Y-126302957D01*
X131102921Y-126458661D01*
X131102918Y-126458664D01*
X131102918Y-126458665D01*
X130986301Y-126625212D01*
X130976610Y-126639052D01*
X130883547Y-126838625D01*
X130826551Y-127051334D01*
X130807359Y-127270702D01*
X129965220Y-127270702D01*
X129965220Y-126068373D01*
X129965219Y-126068364D01*
X129965219Y-123556000D01*
X141112591Y-123556000D01*
X141132197Y-123817627D01*
X141190580Y-124073418D01*
X141266472Y-124266787D01*
X141286432Y-124317643D01*
X141298055Y-124337774D01*
X141417613Y-124544856D01*
X141454109Y-124590620D01*
X141581195Y-124749981D01*
X141581197Y-124749983D01*
X141581198Y-124749984D01*
X141773514Y-124928428D01*
X141773520Y-124928432D01*
X141773521Y-124928433D01*
X141990296Y-125076228D01*
X142226677Y-125190063D01*
X142477385Y-125267396D01*
X142736818Y-125306500D01*
X142999182Y-125306500D01*
X143258615Y-125267396D01*
X143509323Y-125190063D01*
X143745704Y-125076228D01*
X143962479Y-124928433D01*
X143962482Y-124928429D01*
X143962485Y-124928428D01*
X144047792Y-124849273D01*
X144154805Y-124749981D01*
X144318386Y-124544857D01*
X144449568Y-124317643D01*
X144545420Y-124073416D01*
X144603802Y-123817630D01*
X144623408Y-123556000D01*
X144603802Y-123294370D01*
X144545420Y-123038584D01*
X144542781Y-123031861D01*
X144458477Y-122817057D01*
X144449568Y-122794357D01*
X144318386Y-122567143D01*
X144154805Y-122362019D01*
X144154801Y-122362015D01*
X143962485Y-122183571D01*
X143925641Y-122158451D01*
X143745704Y-122035772D01*
X143509323Y-121921937D01*
X143258615Y-121844604D01*
X142999182Y-121805500D01*
X142736818Y-121805500D01*
X142477385Y-121844604D01*
X142226677Y-121921937D01*
X142122517Y-121972098D01*
X141990296Y-122035772D01*
X141946237Y-122065811D01*
X141773514Y-122183571D01*
X141581198Y-122362015D01*
X141417613Y-122567143D01*
X141286431Y-122794358D01*
X141190580Y-123038581D01*
X141132197Y-123294372D01*
X141112591Y-123556000D01*
X129965219Y-123556000D01*
X129965219Y-122966760D01*
X129965219Y-119859019D01*
X129984904Y-119791984D01*
X130001533Y-119771347D01*
X130764062Y-119008818D01*
X130825385Y-118975334D01*
X130851743Y-118972500D01*
X155398589Y-118972500D01*
X155465628Y-118992185D01*
X155486270Y-119008819D01*
X155789341Y-119311890D01*
X155822826Y-119373213D01*
X155819591Y-119437889D01*
X155771223Y-119586749D01*
X155752909Y-119760999D01*
X155752909Y-119761000D01*
X155757813Y-119807661D01*
X155771223Y-119935250D01*
X155825365Y-120101882D01*
X155912967Y-120253615D01*
X156030209Y-120383824D01*
X156171954Y-120486808D01*
X156332018Y-120558073D01*
X156503394Y-120594500D01*
X156503396Y-120594500D01*
X156678604Y-120594500D01*
X156792440Y-120570303D01*
X156862105Y-120575619D01*
X156917839Y-120617755D01*
X156941945Y-120683335D01*
X156942220Y-120691593D01*
X156942220Y-126558173D01*
X156922535Y-126625212D01*
X156910370Y-126641145D01*
X156872689Y-126682993D01*
X156785085Y-126834729D01*
X156730943Y-127001361D01*
X156712629Y-127175611D01*
X156730943Y-127349862D01*
X156785085Y-127516494D01*
X156872687Y-127668227D01*
X156989929Y-127798436D01*
X157131674Y-127901420D01*
X157291738Y-127972685D01*
X157463114Y-128009112D01*
X157463116Y-128009112D01*
X157638326Y-128009112D01*
X157809701Y-127972685D01*
X157809702Y-127972684D01*
X157809704Y-127972684D01*
X157969766Y-127901420D01*
X158111512Y-127798435D01*
X158228750Y-127668230D01*
X158256582Y-127620024D01*
X158316354Y-127516494D01*
X158324939Y-127490071D01*
X158370497Y-127349861D01*
X158388811Y-127175612D01*
X158370497Y-127001363D01*
X158321352Y-126850112D01*
X158316354Y-126834729D01*
X158228750Y-126682993D01*
X158191070Y-126641145D01*
X158160840Y-126578153D01*
X158159220Y-126558173D01*
X158159220Y-123063000D01*
X162554629Y-123063000D01*
X162572943Y-123237250D01*
X162627085Y-123403882D01*
X162714687Y-123555615D01*
X162831929Y-123685824D01*
X162973674Y-123788808D01*
X163133738Y-123860073D01*
X163305114Y-123896500D01*
X163305116Y-123896500D01*
X163480326Y-123896500D01*
X163651701Y-123860073D01*
X163651702Y-123860072D01*
X163651704Y-123860072D01*
X163811766Y-123788808D01*
X163953512Y-123685823D01*
X164070750Y-123555618D01*
X164158354Y-123403882D01*
X164212497Y-123237249D01*
X164230811Y-123063000D01*
X164212497Y-122888751D01*
X164183698Y-122800118D01*
X164158354Y-122722117D01*
X164070752Y-122570384D01*
X163971665Y-122460338D01*
X163953512Y-122440177D01*
X163953511Y-122440176D01*
X163953510Y-122440175D01*
X163811765Y-122337191D01*
X163651701Y-122265926D01*
X163480326Y-122229500D01*
X163480324Y-122229500D01*
X163305116Y-122229500D01*
X163305114Y-122229500D01*
X163133738Y-122265926D01*
X162973672Y-122337192D01*
X162831931Y-122440173D01*
X162714687Y-122570384D01*
X162627085Y-122722117D01*
X162572943Y-122888749D01*
X162554629Y-123063000D01*
X158159220Y-123063000D01*
X158159220Y-119345941D01*
X160509294Y-119345941D01*
X160528486Y-119565309D01*
X160585482Y-119778018D01*
X160623255Y-119859023D01*
X160678546Y-119977595D01*
X160804853Y-120157979D01*
X160960564Y-120313690D01*
X161140948Y-120439997D01*
X161340526Y-120533061D01*
X161553231Y-120590056D01*
X161772602Y-120609248D01*
X161991973Y-120590056D01*
X162204678Y-120533061D01*
X162404256Y-120439997D01*
X162584640Y-120313690D01*
X162740351Y-120157979D01*
X162866658Y-119977595D01*
X162959722Y-119778017D01*
X163016717Y-119565312D01*
X163035909Y-119345941D01*
X163016717Y-119126570D01*
X162959722Y-118913865D01*
X162866658Y-118714288D01*
X162740351Y-118533903D01*
X162584640Y-118378192D01*
X162404256Y-118251885D01*
X162312238Y-118208976D01*
X162204679Y-118158821D01*
X161991970Y-118101825D01*
X161772602Y-118082633D01*
X161553233Y-118101825D01*
X161340524Y-118158821D01*
X161140951Y-118251884D01*
X161140949Y-118251885D01*
X160968973Y-118372304D01*
X160960560Y-118378195D01*
X160804856Y-118533899D01*
X160804853Y-118533902D01*
X160804853Y-118533903D01*
X160799495Y-118541556D01*
X160678545Y-118714290D01*
X160585482Y-118913863D01*
X160528486Y-119126572D01*
X160509294Y-119345941D01*
X158159220Y-119345941D01*
X158159220Y-117184783D01*
X158178905Y-117117744D01*
X158231709Y-117071989D01*
X158257432Y-117063494D01*
X158317704Y-117050684D01*
X158477766Y-116979420D01*
X158619512Y-116876435D01*
X158736750Y-116746230D01*
X158824354Y-116594494D01*
X158878497Y-116427861D01*
X158896811Y-116253612D01*
X158878497Y-116079363D01*
X158824354Y-115912730D01*
X158824354Y-115912729D01*
X158736752Y-115760996D01*
X158619510Y-115630787D01*
X158477765Y-115527803D01*
X158317701Y-115456538D01*
X158146326Y-115420112D01*
X158146324Y-115420112D01*
X157971116Y-115420112D01*
X157971114Y-115420112D01*
X157799738Y-115456538D01*
X157639672Y-115527804D01*
X157497931Y-115630785D01*
X157380687Y-115760996D01*
X157293085Y-115912729D01*
X157238943Y-116079361D01*
X157227856Y-116184847D01*
X157201271Y-116249461D01*
X157192216Y-116259565D01*
X157154391Y-116297390D01*
X157142198Y-116308083D01*
X157116736Y-116327621D01*
X157116732Y-116327625D01*
X157116733Y-116327625D01*
X157092245Y-116359537D01*
X157092243Y-116359540D01*
X157089894Y-116362600D01*
X157089890Y-116362604D01*
X157019195Y-116454736D01*
X156961307Y-116594494D01*
X156957881Y-116602762D01*
X156942220Y-116721727D01*
X156942220Y-116721733D01*
X156936969Y-116761611D01*
X156941159Y-116793430D01*
X156942220Y-116809616D01*
X156942220Y-118444308D01*
X156922535Y-118511347D01*
X156869731Y-118557102D01*
X156800573Y-118567046D01*
X156737017Y-118538021D01*
X156730539Y-118531989D01*
X156166225Y-117967676D01*
X156155531Y-117955482D01*
X156135989Y-117930015D01*
X156135987Y-117930014D01*
X156135987Y-117930013D01*
X156104074Y-117905525D01*
X156104072Y-117905523D01*
X156104060Y-117905513D01*
X156104038Y-117905496D01*
X156008876Y-117832476D01*
X155860851Y-117771162D01*
X155841456Y-117768608D01*
X155741902Y-117755502D01*
X155741892Y-117755500D01*
X155741885Y-117755500D01*
X155741883Y-117755500D01*
X155741874Y-117755499D01*
X155702000Y-117750249D01*
X155670180Y-117754439D01*
X155653995Y-117755500D01*
X130596337Y-117755500D01*
X130580152Y-117754439D01*
X130548330Y-117750249D01*
X130508456Y-117755499D01*
X130508437Y-117755501D01*
X130408875Y-117768608D01*
X130389478Y-117771162D01*
X130241456Y-117832475D01*
X130147374Y-117904667D01*
X130147370Y-117904670D01*
X130146261Y-117905522D01*
X130146257Y-117905525D01*
X130114345Y-117930013D01*
X130114340Y-117930019D01*
X130114338Y-117930021D01*
X130094798Y-117955484D01*
X130084107Y-117967674D01*
X128960391Y-119091390D01*
X128948198Y-119102083D01*
X128922736Y-119121621D01*
X128922732Y-119121625D01*
X128922733Y-119121625D01*
X128898245Y-119153537D01*
X128898243Y-119153540D01*
X128895894Y-119156600D01*
X128895890Y-119156604D01*
X128825195Y-119248736D01*
X128763881Y-119396761D01*
X128761327Y-119416158D01*
X128748220Y-119515726D01*
X128748220Y-119515733D01*
X128742969Y-119555611D01*
X128746323Y-119581081D01*
X128747069Y-119586751D01*
X128747159Y-119587430D01*
X128748220Y-119603616D01*
X128748220Y-126677201D01*
X128728535Y-126744240D01*
X128675731Y-126789995D01*
X128606573Y-126799939D01*
X128543017Y-126770914D01*
X128536539Y-126764882D01*
X128477539Y-126705882D01*
X128444054Y-126644559D01*
X128441220Y-126618201D01*
X128441220Y-116871049D01*
X128460905Y-116804010D01*
X128473064Y-116788083D01*
X128510750Y-116746230D01*
X128598354Y-116594494D01*
X128652497Y-116427861D01*
X128670811Y-116253612D01*
X128652497Y-116079363D01*
X128598354Y-115912730D01*
X128598354Y-115912729D01*
X128510752Y-115760996D01*
X128393510Y-115630787D01*
X128251765Y-115527803D01*
X128091701Y-115456538D01*
X127920326Y-115420112D01*
X127920324Y-115420112D01*
X127745116Y-115420112D01*
X127745114Y-115420112D01*
X127573738Y-115456538D01*
X127413672Y-115527804D01*
X127271931Y-115630785D01*
X127154687Y-115760996D01*
X127067085Y-115912729D01*
X127012943Y-116079361D01*
X126994629Y-116253611D01*
X127012943Y-116427862D01*
X127067085Y-116594494D01*
X127154687Y-116746227D01*
X127154690Y-116746230D01*
X127192369Y-116788077D01*
X127222599Y-116851068D01*
X127224219Y-116871049D01*
X127224219Y-118511347D01*
X127224220Y-120093169D01*
X127204535Y-120160208D01*
X127151731Y-120205963D01*
X127100220Y-120217169D01*
X127052743Y-120217169D01*
X126881367Y-120253595D01*
X126721301Y-120324861D01*
X126579560Y-120427842D01*
X126462316Y-120558053D01*
X126374714Y-120709786D01*
X126320572Y-120876418D01*
X126307881Y-120997167D01*
X126281296Y-121061782D01*
X126223998Y-121101766D01*
X126210342Y-121105495D01*
X126141544Y-121120118D01*
X125981480Y-121191383D01*
X125839739Y-121294364D01*
X125722495Y-121424575D01*
X125634893Y-121576308D01*
X125580751Y-121742940D01*
X125562437Y-121917190D01*
X125580751Y-122091441D01*
X125634893Y-122258072D01*
X125706429Y-122381978D01*
X125722900Y-122449878D01*
X125700048Y-122515905D01*
X125645126Y-122559095D01*
X125624822Y-122565267D01*
X125467890Y-122598623D01*
X125307824Y-122669889D01*
X125166083Y-122772870D01*
X125048839Y-122903081D01*
X124961237Y-123054814D01*
X124907095Y-123221446D01*
X124888781Y-123395697D01*
X124907095Y-123569947D01*
X124961237Y-123736579D01*
X125048839Y-123888312D01*
X125166081Y-124018521D01*
X125307826Y-124121505D01*
X125467890Y-124192770D01*
X125639266Y-124229197D01*
X125639268Y-124229197D01*
X125668028Y-124229197D01*
X125735067Y-124248882D01*
X125780822Y-124301686D01*
X125792027Y-124353196D01*
X125792027Y-128908347D01*
X125792027Y-133368757D01*
X125772342Y-133435796D01*
X125760180Y-133451726D01*
X125750396Y-133462592D01*
X125662791Y-133614328D01*
X125608649Y-133780960D01*
X125590335Y-133955211D01*
X125608649Y-134129461D01*
X125662791Y-134296093D01*
X125750393Y-134447826D01*
X125775626Y-134475850D01*
X125866418Y-134576684D01*
X125867635Y-134578035D01*
X126009380Y-134681019D01*
X126169444Y-134752284D01*
X126340820Y-134788711D01*
X126340822Y-134788711D01*
X126516032Y-134788711D01*
X126648573Y-134760538D01*
X126687410Y-134752283D01*
X126776609Y-134712568D01*
X126845859Y-134703284D01*
X126909136Y-134732912D01*
X126914726Y-134738167D01*
X129656489Y-137479930D01*
X129689974Y-137541253D01*
X129684990Y-137610945D01*
X129643118Y-137666878D01*
X129641694Y-137667929D01*
X129557929Y-137728787D01*
X129440687Y-137858996D01*
X129353085Y-138010729D01*
X129298943Y-138177361D01*
X129280629Y-138351612D01*
X129298943Y-138525862D01*
X129353085Y-138692494D01*
X129440687Y-138844227D01*
X129440689Y-138844229D01*
X129440690Y-138844230D01*
X129478370Y-138886077D01*
X129508599Y-138949067D01*
X129510220Y-138969049D01*
X129510220Y-140582524D01*
X129490535Y-140649563D01*
X129437731Y-140695318D01*
X129368573Y-140705262D01*
X129305017Y-140676237D01*
X129294071Y-140665497D01*
X129275446Y-140644813D01*
X129260391Y-140633875D01*
X129133699Y-140541827D01*
X129133698Y-140541826D01*
X128973634Y-140470561D01*
X128802259Y-140434135D01*
X128802257Y-140434135D01*
X128787771Y-140434135D01*
X128720732Y-140414450D01*
X128674977Y-140361646D01*
X128664451Y-140323099D01*
X128652497Y-140209363D01*
X128624413Y-140122931D01*
X128598354Y-140042729D01*
X128510752Y-139890996D01*
X128393510Y-139760787D01*
X128251765Y-139657803D01*
X128091701Y-139586538D01*
X127920326Y-139550112D01*
X127920324Y-139550112D01*
X127745116Y-139550112D01*
X127745114Y-139550112D01*
X127573738Y-139586538D01*
X127413672Y-139657804D01*
X127271931Y-139760785D01*
X127154687Y-139890996D01*
X127067085Y-140042729D01*
X127012943Y-140209361D01*
X127012942Y-140209363D01*
X127012943Y-140209363D01*
X126994629Y-140383612D01*
X126997870Y-140414450D01*
X127012943Y-140557862D01*
X127067085Y-140724494D01*
X127154687Y-140876227D01*
X127192369Y-140918076D01*
X127222599Y-140981068D01*
X127224219Y-141001049D01*
X127224219Y-154885447D01*
X127223159Y-154901627D01*
X127218970Y-154933453D01*
X127224219Y-154973335D01*
X127224243Y-154973523D01*
X127234558Y-155051864D01*
X127239882Y-155092305D01*
X127301195Y-155240329D01*
X127374216Y-155335492D01*
X127374233Y-155335514D01*
X127374243Y-155335526D01*
X127374245Y-155335528D01*
X127398733Y-155367441D01*
X127398734Y-155367442D01*
X127424198Y-155386981D01*
X127436393Y-155397676D01*
X128559334Y-156520617D01*
X128592819Y-156581940D01*
X128594974Y-156595336D01*
X128606061Y-156700822D01*
X128660203Y-156867454D01*
X128747805Y-157019187D01*
X128865047Y-157149396D01*
X129006792Y-157252380D01*
X129119163Y-157302411D01*
X129172400Y-157347661D01*
X129192722Y-157414510D01*
X129173677Y-157481734D01*
X129156409Y-157503372D01*
X122536990Y-164122793D01*
X122475667Y-164156278D01*
X122449309Y-164159112D01*
X108488815Y-164159112D01*
X108421776Y-164139427D01*
X108376021Y-164086623D01*
X108365525Y-164021857D01*
X108367119Y-164007029D01*
X108373220Y-163950282D01*
X108373220Y-162553006D01*
X108366709Y-162492443D01*
X108366708Y-162492441D01*
X108366708Y-162492438D01*
X108315609Y-162355440D01*
X108227981Y-162238382D01*
X108110923Y-162150754D01*
X107973925Y-162099655D01*
X107916644Y-162093497D01*
X107916638Y-162093496D01*
X107913358Y-162093144D01*
X107516082Y-162093144D01*
X107512807Y-162093495D01*
X107512788Y-162093497D01*
X107477970Y-162097240D01*
X107451467Y-162097240D01*
X107416650Y-162093497D01*
X107416633Y-162093496D01*
X107413358Y-162093144D01*
X107016082Y-162093144D01*
X107012801Y-162093496D01*
X107012777Y-162093498D01*
X106940035Y-162101319D01*
X106939705Y-162098258D01*
X106912687Y-162101655D01*
X106919170Y-162102176D01*
X106909238Y-162101644D01*
X106864720Y-162101644D01*
X106842431Y-162123932D01*
X106815031Y-162153363D01*
X106789030Y-162172828D01*
X106723565Y-162197244D01*
X106655292Y-162182392D01*
X106640410Y-162172828D01*
X106614409Y-162153364D01*
X106602091Y-162136910D01*
X106601039Y-162137963D01*
X106564720Y-162101644D01*
X106520202Y-162101644D01*
X106510271Y-162102176D01*
X106515301Y-162101801D01*
X106489715Y-162098439D01*
X106489406Y-162101319D01*
X106433964Y-162095358D01*
X106369413Y-162068620D01*
X106329565Y-162011227D01*
X106323220Y-161972069D01*
X106323220Y-161150282D01*
X108206220Y-161150282D01*
X108206572Y-161153562D01*
X108206573Y-161153568D01*
X108212731Y-161210849D01*
X108263830Y-161347847D01*
X108351458Y-161464905D01*
X108468516Y-161552533D01*
X108605514Y-161603632D01*
X108605517Y-161603632D01*
X108605519Y-161603633D01*
X108666082Y-161610144D01*
X108669392Y-161610144D01*
X110560048Y-161610144D01*
X110563358Y-161610144D01*
X110623921Y-161603633D01*
X110623923Y-161603632D01*
X110623925Y-161603632D01*
X110728984Y-161564446D01*
X110760924Y-161552533D01*
X110877981Y-161464905D01*
X110965609Y-161347848D01*
X110997872Y-161261349D01*
X111016708Y-161210849D01*
X111016708Y-161210847D01*
X111016709Y-161210845D01*
X111023220Y-161150282D01*
X111023220Y-159253572D01*
X113457216Y-159253572D01*
X113477178Y-159443501D01*
X113536192Y-159625128D01*
X113631677Y-159790513D01*
X113631680Y-159790516D01*
X113759467Y-159932438D01*
X113891676Y-160028494D01*
X113913968Y-160044690D01*
X114088434Y-160122367D01*
X114275231Y-160162072D01*
X114275233Y-160162072D01*
X114466209Y-160162072D01*
X114622842Y-160128778D01*
X114653008Y-160122366D01*
X114737122Y-160084915D01*
X114806372Y-160075631D01*
X114869649Y-160105259D01*
X114906862Y-160164394D01*
X114910879Y-160185233D01*
X114919885Y-160270920D01*
X114974027Y-160437552D01*
X115061629Y-160589285D01*
X115067715Y-160596044D01*
X115167808Y-160707208D01*
X115178871Y-160719494D01*
X115320616Y-160822478D01*
X115480680Y-160893743D01*
X115652056Y-160930170D01*
X115652058Y-160930170D01*
X115827267Y-160930170D01*
X115922610Y-160909904D01*
X115992277Y-160915220D01*
X116036072Y-160943513D01*
X116356854Y-161264295D01*
X116390339Y-161325618D01*
X116385355Y-161395310D01*
X116343483Y-161451243D01*
X116325103Y-161462248D01*
X116323105Y-161463646D01*
X116323105Y-161463647D01*
X116167546Y-161572571D01*
X116142716Y-161589957D01*
X115987012Y-161745661D01*
X115987009Y-161745664D01*
X115987009Y-161745665D01*
X115884556Y-161891984D01*
X115860701Y-161926052D01*
X115767638Y-162125625D01*
X115710642Y-162338334D01*
X115691450Y-162557702D01*
X115710642Y-162777071D01*
X115767638Y-162989780D01*
X115784978Y-163026965D01*
X115860702Y-163189357D01*
X115987009Y-163369741D01*
X116142720Y-163525452D01*
X116323104Y-163651759D01*
X116522682Y-163744823D01*
X116735387Y-163801818D01*
X116881634Y-163814612D01*
X116954757Y-163821010D01*
X116954757Y-163821009D01*
X116954758Y-163821010D01*
X117174129Y-163801818D01*
X117386834Y-163744823D01*
X117586412Y-163651759D01*
X117766796Y-163525452D01*
X117922507Y-163369741D01*
X118048814Y-163189357D01*
X118141878Y-162989779D01*
X118198873Y-162777074D01*
X118218065Y-162557703D01*
X118218014Y-162557125D01*
X118210927Y-162476112D01*
X118198873Y-162338332D01*
X118141878Y-162125627D01*
X118048814Y-161926050D01*
X117979221Y-161826661D01*
X117961770Y-161801738D01*
X117939443Y-161735532D01*
X117956453Y-161667765D01*
X118007401Y-161619952D01*
X118063345Y-161606615D01*
X119577218Y-161606615D01*
X119644257Y-161626300D01*
X119664899Y-161642934D01*
X120645903Y-162623938D01*
X120656598Y-162636133D01*
X120676139Y-162661600D01*
X120693501Y-162674922D01*
X120693506Y-162674925D01*
X120708051Y-162686086D01*
X120708054Y-162686089D01*
X120752548Y-162720230D01*
X120803251Y-162759136D01*
X120951276Y-162820450D01*
X121070241Y-162836112D01*
X121070248Y-162836112D01*
X121110126Y-162841362D01*
X121141946Y-162837172D01*
X121158131Y-162836112D01*
X122131924Y-162836112D01*
X122198963Y-162855797D01*
X122204801Y-162859788D01*
X122234633Y-162881462D01*
X122333674Y-162953420D01*
X122493738Y-163024685D01*
X122665114Y-163061112D01*
X122665116Y-163061112D01*
X122840326Y-163061112D01*
X123011701Y-163024685D01*
X123011702Y-163024684D01*
X123011704Y-163024684D01*
X123171766Y-162953420D01*
X123313512Y-162850435D01*
X123430750Y-162720230D01*
X123433873Y-162714822D01*
X123518354Y-162568494D01*
X123542470Y-162494272D01*
X123572497Y-162401861D01*
X123590811Y-162227612D01*
X123572497Y-162053363D01*
X123518354Y-161886730D01*
X123518354Y-161886729D01*
X123430752Y-161734996D01*
X123327165Y-161619952D01*
X123313512Y-161604789D01*
X123313511Y-161604788D01*
X123313510Y-161604787D01*
X123171765Y-161501803D01*
X123011701Y-161430538D01*
X122840326Y-161394112D01*
X122840324Y-161394112D01*
X122665116Y-161394112D01*
X122665114Y-161394112D01*
X122493738Y-161430538D01*
X122333675Y-161501803D01*
X122204810Y-161595430D01*
X122139003Y-161618910D01*
X122131924Y-161619112D01*
X121413537Y-161619112D01*
X121346498Y-161599427D01*
X121325856Y-161582793D01*
X120344854Y-160601791D01*
X120334160Y-160589597D01*
X120314618Y-160564130D01*
X120314616Y-160564129D01*
X120314616Y-160564128D01*
X120282703Y-160539640D01*
X120282701Y-160539638D01*
X120282689Y-160539628D01*
X120282667Y-160539611D01*
X120187504Y-160466590D01*
X120039480Y-160405277D01*
X120006308Y-160400910D01*
X119920526Y-160389616D01*
X119920502Y-160389614D01*
X119880629Y-160384364D01*
X119848809Y-160388554D01*
X119832624Y-160389615D01*
X117254634Y-160389615D01*
X117187595Y-160369930D01*
X117166953Y-160353296D01*
X116514003Y-159700346D01*
X116503309Y-159688152D01*
X116483767Y-159662685D01*
X116483765Y-159662684D01*
X116483765Y-159662683D01*
X116451852Y-159638195D01*
X116451850Y-159638193D01*
X116451831Y-159638178D01*
X116451818Y-159638168D01*
X116445476Y-159633301D01*
X116427478Y-159612778D01*
X116426413Y-159613738D01*
X116416267Y-159602470D01*
X116312373Y-159487084D01*
X116282143Y-159424093D01*
X116290768Y-159354757D01*
X116335510Y-159301092D01*
X116402162Y-159280134D01*
X116404523Y-159280112D01*
X123000355Y-159280112D01*
X123067394Y-159299797D01*
X123113149Y-159352601D01*
X123123675Y-159391146D01*
X123127138Y-159424093D01*
X123129178Y-159443501D01*
X123188192Y-159625128D01*
X123283677Y-159790513D01*
X123283680Y-159790516D01*
X123411467Y-159932438D01*
X123543676Y-160028494D01*
X123565968Y-160044690D01*
X123740434Y-160122367D01*
X123927231Y-160162072D01*
X123927233Y-160162072D01*
X124118209Y-160162072D01*
X124305005Y-160122367D01*
X124305006Y-160122366D01*
X124305008Y-160122366D01*
X124479472Y-160044690D01*
X124633973Y-159932438D01*
X124761760Y-159790516D01*
X124857247Y-159625128D01*
X124916262Y-159443500D01*
X124936224Y-159253572D01*
X124916262Y-159063644D01*
X124857247Y-158882016D01*
X124857247Y-158882015D01*
X124761762Y-158716630D01*
X124706666Y-158655440D01*
X124633973Y-158574706D01*
X124501226Y-158478259D01*
X124479471Y-158462453D01*
X124305005Y-158384776D01*
X124118209Y-158345072D01*
X124118207Y-158345072D01*
X124026131Y-158345072D01*
X123959092Y-158325387D01*
X123938450Y-158308753D01*
X123904985Y-158275288D01*
X123894291Y-158263094D01*
X123874749Y-158237627D01*
X123874747Y-158237626D01*
X123874747Y-158237625D01*
X123842834Y-158213137D01*
X123842832Y-158213135D01*
X123842820Y-158213125D01*
X123842798Y-158213108D01*
X123747636Y-158140088D01*
X123599611Y-158078774D01*
X123580216Y-158076220D01*
X123480662Y-158063114D01*
X123480652Y-158063112D01*
X123480645Y-158063112D01*
X123480643Y-158063112D01*
X123480634Y-158063111D01*
X123440760Y-158057861D01*
X123408940Y-158062051D01*
X123392755Y-158063112D01*
X115000685Y-158063112D01*
X114984500Y-158062051D01*
X114952678Y-158057861D01*
X114912804Y-158063111D01*
X114912785Y-158063113D01*
X114813223Y-158076220D01*
X114793826Y-158078774D01*
X114645804Y-158140087D01*
X114551722Y-158212279D01*
X114551718Y-158212282D01*
X114550609Y-158213134D01*
X114550605Y-158213137D01*
X114518693Y-158237625D01*
X114518688Y-158237631D01*
X114518686Y-158237633D01*
X114499149Y-158263092D01*
X114488461Y-158275280D01*
X114480038Y-158283704D01*
X114460057Y-158303686D01*
X114454992Y-158308751D01*
X114393670Y-158342237D01*
X114367308Y-158345072D01*
X114275231Y-158345072D01*
X114088434Y-158384776D01*
X113913968Y-158462453D01*
X113759468Y-158574705D01*
X113631677Y-158716630D01*
X113536192Y-158882015D01*
X113477178Y-159063642D01*
X113457216Y-159253572D01*
X111023220Y-159253572D01*
X111023220Y-158853006D01*
X111016709Y-158792443D01*
X111016708Y-158792441D01*
X111016708Y-158792438D01*
X110965609Y-158655440D01*
X110877981Y-158538382D01*
X110760923Y-158450754D01*
X110623925Y-158399655D01*
X110566644Y-158393497D01*
X110566638Y-158393496D01*
X110563358Y-158393144D01*
X108666082Y-158393144D01*
X108662802Y-158393496D01*
X108662795Y-158393497D01*
X108605514Y-158399655D01*
X108468516Y-158450754D01*
X108351458Y-158538382D01*
X108263830Y-158655440D01*
X108212731Y-158792438D01*
X108208368Y-158833022D01*
X108206220Y-158853006D01*
X108206220Y-161150282D01*
X106323220Y-161150282D01*
X106323220Y-160298085D01*
X106342905Y-160231046D01*
X106395709Y-160185291D01*
X106410892Y-160180278D01*
X106416225Y-160177903D01*
X106416227Y-160177903D01*
X106576289Y-160106639D01*
X106718035Y-160003654D01*
X106835273Y-159873449D01*
X106839471Y-159866179D01*
X106922877Y-159721713D01*
X106933958Y-159687609D01*
X106977020Y-159555080D01*
X106995334Y-159380831D01*
X106977020Y-159206582D01*
X106930576Y-159063644D01*
X106922877Y-159039948D01*
X106835275Y-158888215D01*
X106749036Y-158792438D01*
X106718035Y-158758008D01*
X106718034Y-158758007D01*
X106718033Y-158758006D01*
X106576288Y-158655022D01*
X106416224Y-158583757D01*
X106244849Y-158547331D01*
X106244847Y-158547331D01*
X106143993Y-158547331D01*
X106076954Y-158527646D01*
X106036604Y-158485328D01*
X106035479Y-158483379D01*
X106006102Y-158450753D01*
X105918241Y-158353174D01*
X105918240Y-158353173D01*
X105918239Y-158353172D01*
X105776494Y-158250188D01*
X105616430Y-158178923D01*
X105432305Y-158139787D01*
X105432639Y-158138215D01*
X105380181Y-158122812D01*
X105334426Y-158070008D01*
X105323220Y-158018497D01*
X105323220Y-156131612D01*
X121152629Y-156131612D01*
X121170943Y-156305862D01*
X121225085Y-156472494D01*
X121312687Y-156624227D01*
X121429929Y-156754436D01*
X121571674Y-156857420D01*
X121731738Y-156928685D01*
X121903114Y-156965112D01*
X121903116Y-156965112D01*
X122078326Y-156965112D01*
X122249701Y-156928685D01*
X122249702Y-156928684D01*
X122249704Y-156928684D01*
X122409766Y-156857420D01*
X122551512Y-156754435D01*
X122668750Y-156624230D01*
X122728571Y-156520617D01*
X122756354Y-156472494D01*
X122785791Y-156381896D01*
X122810497Y-156305861D01*
X122828811Y-156131612D01*
X122810497Y-155957363D01*
X122756354Y-155790730D01*
X122756354Y-155790729D01*
X122668752Y-155638996D01*
X122551510Y-155508787D01*
X122409765Y-155405803D01*
X122249701Y-155334538D01*
X122078326Y-155298112D01*
X122078324Y-155298112D01*
X121903116Y-155298112D01*
X121903114Y-155298112D01*
X121731738Y-155334538D01*
X121571672Y-155405804D01*
X121429931Y-155508785D01*
X121312687Y-155638996D01*
X121225085Y-155790729D01*
X121170943Y-155957361D01*
X121152629Y-156131612D01*
X105323220Y-156131612D01*
X105323220Y-155079840D01*
X105342905Y-155012801D01*
X105395709Y-154967046D01*
X105421434Y-154958551D01*
X105458207Y-154950735D01*
X105618269Y-154879471D01*
X105760015Y-154776486D01*
X105877253Y-154646281D01*
X105889364Y-154625305D01*
X105964857Y-154494545D01*
X105967170Y-154487427D01*
X106019000Y-154327912D01*
X106037314Y-154153663D01*
X106019000Y-153979414D01*
X105964857Y-153812781D01*
X105964857Y-153812780D01*
X105877255Y-153661047D01*
X105797995Y-153573021D01*
X105760015Y-153530840D01*
X105760014Y-153530839D01*
X105760013Y-153530838D01*
X105618268Y-153427854D01*
X105458204Y-153356589D01*
X105368922Y-153337612D01*
X106166629Y-153337612D01*
X106184943Y-153511862D01*
X106239085Y-153678494D01*
X106326687Y-153830227D01*
X106326690Y-153830230D01*
X106364370Y-153872077D01*
X106394599Y-153935067D01*
X106396220Y-153955049D01*
X106396220Y-154305607D01*
X106395159Y-154321792D01*
X106390969Y-154353611D01*
X106393204Y-154370584D01*
X106396220Y-154393491D01*
X106396220Y-154393497D01*
X106406770Y-154473634D01*
X106411882Y-154512463D01*
X106438928Y-154577757D01*
X106473196Y-154660488D01*
X106546216Y-154755650D01*
X106546233Y-154755672D01*
X106546243Y-154755684D01*
X106546245Y-154755686D01*
X106563213Y-154777799D01*
X106570734Y-154787600D01*
X106596198Y-154807139D01*
X106608393Y-154817834D01*
X107302497Y-155511938D01*
X107313192Y-155524133D01*
X107329016Y-155544756D01*
X107332733Y-155549599D01*
X107364645Y-155574086D01*
X107364649Y-155574090D01*
X107364655Y-155574094D01*
X107364671Y-155574108D01*
X107443296Y-155634438D01*
X107459844Y-155647136D01*
X107557900Y-155687752D01*
X107607866Y-155708449D01*
X107607869Y-155708450D01*
X107627263Y-155711003D01*
X107726835Y-155724112D01*
X107726840Y-155724112D01*
X107766720Y-155729362D01*
X107766721Y-155729361D01*
X107766722Y-155729362D01*
X107798542Y-155725173D01*
X107814727Y-155724112D01*
X109431924Y-155724112D01*
X109498963Y-155743797D01*
X109504801Y-155747788D01*
X109514695Y-155754976D01*
X109633674Y-155841420D01*
X109793738Y-155912685D01*
X109965114Y-155949112D01*
X109965116Y-155949112D01*
X110140326Y-155949112D01*
X110311701Y-155912685D01*
X110311702Y-155912684D01*
X110311704Y-155912684D01*
X110471766Y-155841420D01*
X110613512Y-155738435D01*
X110730750Y-155608230D01*
X110756380Y-155563838D01*
X110818354Y-155456494D01*
X110823352Y-155441112D01*
X110872497Y-155289861D01*
X110890811Y-155115612D01*
X110878108Y-154994756D01*
X110890677Y-154926031D01*
X110938409Y-154875007D01*
X110953819Y-154869008D01*
X110953376Y-154868013D01*
X110990289Y-154851578D01*
X111125344Y-154791448D01*
X111267090Y-154688463D01*
X111384328Y-154558258D01*
X111389292Y-154549661D01*
X111471932Y-154406522D01*
X111484873Y-154366693D01*
X111526075Y-154239889D01*
X111544389Y-154065640D01*
X111526075Y-153891391D01*
X111471932Y-153724758D01*
X111471932Y-153724757D01*
X111384328Y-153573022D01*
X111368249Y-153555164D01*
X111338020Y-153492172D01*
X111336400Y-153472193D01*
X111336400Y-152067612D01*
X113786629Y-152067612D01*
X113804943Y-152241862D01*
X113859085Y-152408494D01*
X113946687Y-152560227D01*
X114063929Y-152690436D01*
X114205674Y-152793420D01*
X114365738Y-152864685D01*
X114537114Y-152901112D01*
X114537116Y-152901112D01*
X114712326Y-152901112D01*
X114868999Y-152867810D01*
X114938666Y-152873126D01*
X114994400Y-152915263D01*
X115018505Y-152980843D01*
X115003328Y-153049044D01*
X114986930Y-153072072D01*
X114962689Y-153098993D01*
X114875085Y-153250729D01*
X114820943Y-153417361D01*
X114802629Y-153591611D01*
X114820943Y-153765862D01*
X114875085Y-153932494D01*
X114962687Y-154084227D01*
X115079929Y-154214436D01*
X115221674Y-154317420D01*
X115381738Y-154388685D01*
X115553114Y-154425112D01*
X115553116Y-154425112D01*
X115728326Y-154425112D01*
X115899701Y-154388685D01*
X115899702Y-154388684D01*
X115899704Y-154388684D01*
X116059766Y-154317420D01*
X116201512Y-154214435D01*
X116318750Y-154084230D01*
X116338397Y-154050201D01*
X116406354Y-153932494D01*
X116422824Y-153881804D01*
X116460497Y-153765861D01*
X116478811Y-153591612D01*
X116460497Y-153417363D01*
X116420472Y-153294180D01*
X116406354Y-153250729D01*
X116318752Y-153098996D01*
X116304900Y-153083612D01*
X124962629Y-153083612D01*
X124980943Y-153257862D01*
X125035085Y-153424494D01*
X125122687Y-153576227D01*
X125239929Y-153706436D01*
X125381674Y-153809420D01*
X125541738Y-153880685D01*
X125713114Y-153917112D01*
X125713116Y-153917112D01*
X125888326Y-153917112D01*
X126059701Y-153880685D01*
X126059702Y-153880684D01*
X126059704Y-153880684D01*
X126219766Y-153809420D01*
X126361512Y-153706435D01*
X126478750Y-153576230D01*
X126490913Y-153555164D01*
X126566354Y-153424494D01*
X126599265Y-153323205D01*
X126620497Y-153257861D01*
X126638811Y-153083612D01*
X126620497Y-152909363D01*
X126571352Y-152758112D01*
X126566354Y-152742729D01*
X126478752Y-152590996D01*
X126405143Y-152509246D01*
X126361512Y-152460789D01*
X126361511Y-152460788D01*
X126361510Y-152460787D01*
X126219765Y-152357803D01*
X126059701Y-152286538D01*
X125888326Y-152250112D01*
X125888324Y-152250112D01*
X125713116Y-152250112D01*
X125713114Y-152250112D01*
X125541738Y-152286538D01*
X125381672Y-152357804D01*
X125239931Y-152460785D01*
X125122687Y-152590996D01*
X125035085Y-152742729D01*
X124980943Y-152909361D01*
X124962629Y-153083612D01*
X116304900Y-153083612D01*
X116226669Y-152996729D01*
X116201512Y-152968789D01*
X116201511Y-152968788D01*
X116201510Y-152968787D01*
X116059765Y-152865803D01*
X115899701Y-152794538D01*
X115728326Y-152758112D01*
X115728324Y-152758112D01*
X115553116Y-152758112D01*
X115553113Y-152758112D01*
X115396439Y-152791413D01*
X115326772Y-152786097D01*
X115271039Y-152743959D01*
X115246934Y-152678379D01*
X115262111Y-152610178D01*
X115278504Y-152587157D01*
X115302750Y-152560230D01*
X115390354Y-152408494D01*
X115444497Y-152241861D01*
X115462811Y-152067612D01*
X115444497Y-151893363D01*
X115413881Y-151799139D01*
X115390354Y-151726729D01*
X115302752Y-151574996D01*
X115185510Y-151444787D01*
X115043765Y-151341803D01*
X114883701Y-151270538D01*
X114712326Y-151234112D01*
X114712324Y-151234112D01*
X114537116Y-151234112D01*
X114537114Y-151234112D01*
X114365738Y-151270538D01*
X114205672Y-151341804D01*
X114063931Y-151444785D01*
X113946687Y-151574996D01*
X113859085Y-151726729D01*
X113804943Y-151893361D01*
X113786629Y-152067612D01*
X111336400Y-152067612D01*
X111336400Y-147214361D01*
X111356085Y-147147322D01*
X111368244Y-147131395D01*
X111405930Y-147089542D01*
X111480699Y-146960038D01*
X111493534Y-146937806D01*
X111517001Y-146865582D01*
X111547677Y-146771173D01*
X111565991Y-146596924D01*
X111547677Y-146422675D01*
X111493534Y-146256042D01*
X111493534Y-146256041D01*
X111475966Y-146225612D01*
X120644629Y-146225612D01*
X120662943Y-146399862D01*
X120717085Y-146566494D01*
X120804687Y-146718227D01*
X120921929Y-146848436D01*
X121063674Y-146951420D01*
X121223738Y-147022685D01*
X121395114Y-147059112D01*
X121395116Y-147059112D01*
X121570326Y-147059112D01*
X121741701Y-147022685D01*
X121741702Y-147022684D01*
X121741704Y-147022684D01*
X121901766Y-146951420D01*
X122043512Y-146848435D01*
X122160750Y-146718230D01*
X122181561Y-146682185D01*
X122248354Y-146566494D01*
X122266712Y-146509995D01*
X122302497Y-146399861D01*
X122320811Y-146225612D01*
X122302497Y-146051363D01*
X122263204Y-145930432D01*
X122248354Y-145884729D01*
X122160752Y-145732996D01*
X122070418Y-145632671D01*
X122043512Y-145602789D01*
X122043511Y-145602788D01*
X122043510Y-145602787D01*
X121901765Y-145499803D01*
X121741701Y-145428538D01*
X121570326Y-145392112D01*
X121570324Y-145392112D01*
X121395116Y-145392112D01*
X121395114Y-145392112D01*
X121223738Y-145428538D01*
X121063672Y-145499804D01*
X120921931Y-145602785D01*
X120804687Y-145732996D01*
X120717085Y-145884729D01*
X120662943Y-146051361D01*
X120644629Y-146225612D01*
X111475966Y-146225612D01*
X111405932Y-146104308D01*
X111288690Y-145974099D01*
X111146945Y-145871115D01*
X110986881Y-145799850D01*
X110815506Y-145763424D01*
X110815504Y-145763424D01*
X110640296Y-145763424D01*
X110640294Y-145763424D01*
X110468918Y-145799850D01*
X110308852Y-145871116D01*
X110167111Y-145974097D01*
X110049867Y-146104308D01*
X109962265Y-146256041D01*
X109908123Y-146422673D01*
X109889809Y-146596924D01*
X109908123Y-146771174D01*
X109962265Y-146937806D01*
X110049867Y-147089539D01*
X110049870Y-147089542D01*
X110087550Y-147131389D01*
X110117779Y-147194379D01*
X110119400Y-147214361D01*
X110119400Y-153424210D01*
X110099715Y-153491249D01*
X110087550Y-153507182D01*
X110028267Y-153573021D01*
X109940663Y-153724757D01*
X109886521Y-153891389D01*
X109876943Y-153982517D01*
X109868207Y-154065640D01*
X109877480Y-154153872D01*
X109880909Y-154186492D01*
X109868339Y-154255222D01*
X109820607Y-154306245D01*
X109805198Y-154312246D01*
X109805641Y-154313240D01*
X109793737Y-154318539D01*
X109793736Y-154318540D01*
X109772684Y-154327913D01*
X109633675Y-154389803D01*
X109504810Y-154483430D01*
X109439003Y-154506910D01*
X109431924Y-154507112D01*
X108070131Y-154507112D01*
X108003092Y-154487427D01*
X107982450Y-154470793D01*
X107649539Y-154137882D01*
X107616054Y-154076559D01*
X107613220Y-154050201D01*
X107613220Y-153955049D01*
X107632905Y-153888010D01*
X107645064Y-153872083D01*
X107682750Y-153830230D01*
X107685213Y-153825965D01*
X107770354Y-153678494D01*
X107792480Y-153610397D01*
X107824497Y-153511861D01*
X107842811Y-153337612D01*
X107824497Y-153163363D01*
X107770354Y-152996730D01*
X107770354Y-152996729D01*
X107682752Y-152844996D01*
X107606947Y-152760807D01*
X107565512Y-152714789D01*
X107565511Y-152714788D01*
X107565510Y-152714787D01*
X107423765Y-152611803D01*
X107263701Y-152540538D01*
X107092326Y-152504112D01*
X107092324Y-152504112D01*
X106917116Y-152504112D01*
X106917114Y-152504112D01*
X106745738Y-152540538D01*
X106585672Y-152611804D01*
X106443931Y-152714785D01*
X106326687Y-152844996D01*
X106239085Y-152996729D01*
X106184943Y-153163361D01*
X106166629Y-153337612D01*
X105368922Y-153337612D01*
X105286829Y-153320163D01*
X105286827Y-153320163D01*
X105111619Y-153320163D01*
X105111617Y-153320163D01*
X104940241Y-153356589D01*
X104774460Y-153430400D01*
X104705210Y-153439684D01*
X104648539Y-153415496D01*
X104623231Y-153396076D01*
X104611046Y-153385389D01*
X104569223Y-153343566D01*
X104535738Y-153282243D01*
X104533583Y-153268846D01*
X104532429Y-153257862D01*
X104522497Y-153163363D01*
X104468354Y-152996730D01*
X104468354Y-152996729D01*
X104380752Y-152844996D01*
X104304947Y-152760807D01*
X104263512Y-152714789D01*
X104263511Y-152714788D01*
X104263510Y-152714787D01*
X104121765Y-152611803D01*
X103961701Y-152540538D01*
X103790326Y-152504112D01*
X103790324Y-152504112D01*
X103615116Y-152504112D01*
X103615114Y-152504112D01*
X103443738Y-152540538D01*
X103283672Y-152611804D01*
X103141931Y-152714785D01*
X103024687Y-152844996D01*
X102937085Y-152996729D01*
X102882943Y-153163361D01*
X102864629Y-153337612D01*
X102882943Y-153511862D01*
X102937085Y-153678494D01*
X103024687Y-153830227D01*
X103141929Y-153960436D01*
X103175445Y-153984787D01*
X103283674Y-154063420D01*
X103443736Y-154134684D01*
X103508002Y-154148344D01*
X103569482Y-154181536D01*
X103603259Y-154242699D01*
X103606220Y-154269634D01*
X103606220Y-154875201D01*
X103586535Y-154942240D01*
X103533731Y-154987995D01*
X103464573Y-154997939D01*
X103401017Y-154968914D01*
X103394539Y-154962882D01*
X103045223Y-154613566D01*
X103011738Y-154552243D01*
X103009583Y-154538846D01*
X103008028Y-154524052D01*
X102998497Y-154433363D01*
X102964234Y-154327913D01*
X102944354Y-154266729D01*
X102856752Y-154114996D01*
X102739510Y-153984787D01*
X102597765Y-153881803D01*
X102437701Y-153810538D01*
X102266326Y-153774112D01*
X102266324Y-153774112D01*
X102091116Y-153774112D01*
X102091114Y-153774112D01*
X101919738Y-153810538D01*
X101759672Y-153881804D01*
X101617931Y-153984785D01*
X101500687Y-154114996D01*
X101413085Y-154266729D01*
X101358943Y-154433361D01*
X101340629Y-154607611D01*
X101358943Y-154781862D01*
X101413085Y-154948494D01*
X101500687Y-155100227D01*
X101519546Y-155121172D01*
X101615112Y-155227308D01*
X101617929Y-155230436D01*
X101759674Y-155333420D01*
X101919738Y-155404685D01*
X102091114Y-155441112D01*
X102091116Y-155441112D01*
X102100309Y-155441112D01*
X102167348Y-155460797D01*
X102187990Y-155477431D01*
X102569901Y-155859341D01*
X102603386Y-155920664D01*
X102606220Y-155947022D01*
X102606220Y-156316200D01*
X102586535Y-156383239D01*
X102569901Y-156403881D01*
X102118487Y-156855294D01*
X102057164Y-156888779D01*
X102005026Y-156888903D01*
X101834931Y-156852749D01*
X101834928Y-156852749D01*
X101659720Y-156852749D01*
X101659718Y-156852749D01*
X101488342Y-156889175D01*
X101328276Y-156960441D01*
X101186535Y-157063422D01*
X101069291Y-157193633D01*
X100981689Y-157345366D01*
X100927547Y-157511998D01*
X100915878Y-157623022D01*
X100909233Y-157686249D01*
X100911570Y-157708487D01*
X100927547Y-157860499D01*
X100981689Y-158027131D01*
X101069291Y-158178864D01*
X101069294Y-158178867D01*
X101106974Y-158220714D01*
X101137203Y-158283704D01*
X101138824Y-158303686D01*
X101138824Y-159773897D01*
X101137763Y-159790082D01*
X101133573Y-159821901D01*
X101138824Y-159861781D01*
X101138824Y-159861787D01*
X101148834Y-159937819D01*
X101154485Y-159980752D01*
X101215799Y-160128778D01*
X101288847Y-160223975D01*
X101288857Y-160223987D01*
X101306518Y-160247003D01*
X101331713Y-160312172D01*
X101317675Y-160380617D01*
X101300293Y-160405462D01*
X101246690Y-160464994D01*
X101230144Y-160493652D01*
X101179576Y-160541867D01*
X101110969Y-160555088D01*
X101096978Y-160552941D01*
X101074088Y-160548075D01*
X101034556Y-160539673D01*
X100859348Y-160539673D01*
X100847220Y-160539673D01*
X100780181Y-160519988D01*
X100734426Y-160467184D01*
X100723220Y-160415673D01*
X100723220Y-158856315D01*
X100723220Y-158853006D01*
X100716709Y-158792443D01*
X100716708Y-158792441D01*
X100716708Y-158792438D01*
X100665609Y-158655440D01*
X100577981Y-158538382D01*
X100460923Y-158450754D01*
X100323925Y-158399655D01*
X100266644Y-158393497D01*
X100266638Y-158393496D01*
X100263358Y-158393144D01*
X98366082Y-158393144D01*
X98362802Y-158393496D01*
X98362795Y-158393497D01*
X98305514Y-158399655D01*
X98168519Y-158450753D01*
X98168516Y-158450754D01*
X98168516Y-158450755D01*
X98152888Y-158462454D01*
X98126810Y-158481976D01*
X98061345Y-158506392D01*
X97993072Y-158491540D01*
X97943667Y-158442134D01*
X97928500Y-158382708D01*
X97928500Y-154803066D01*
X97928397Y-154802421D01*
X97928397Y-154802256D01*
X97928381Y-154792151D01*
X97903246Y-154703609D01*
X97854870Y-154625307D01*
X97854869Y-154625305D01*
X97802854Y-154577757D01*
X97797045Y-154568167D01*
X97777633Y-154558459D01*
X97777619Y-154558449D01*
X97748348Y-154543813D01*
X97729521Y-154534398D01*
X97721728Y-154530501D01*
X97721727Y-154530501D01*
X97708831Y-154524052D01*
X97708810Y-154524044D01*
X97210364Y-154274817D01*
X97190944Y-154262750D01*
X97180673Y-154254969D01*
X97150029Y-154221255D01*
X97149388Y-154220216D01*
X97133011Y-154177822D01*
X97130602Y-154164900D01*
X97128502Y-154142156D01*
X97128506Y-154126943D01*
X97128504Y-154126941D01*
X97128508Y-154111439D01*
X97128500Y-154111367D01*
X97128500Y-150586000D01*
X99522357Y-150586000D01*
X99542885Y-150807537D01*
X99603769Y-151021526D01*
X99702941Y-151220688D01*
X99837019Y-151398237D01*
X100001437Y-151548124D01*
X100190595Y-151665245D01*
X100190597Y-151665245D01*
X100190599Y-151665247D01*
X100398060Y-151745618D01*
X100514966Y-151767471D01*
X100577246Y-151799139D01*
X100612519Y-151859452D01*
X100609585Y-151929260D01*
X100584330Y-151972332D01*
X100484689Y-152082993D01*
X100397085Y-152234729D01*
X100342943Y-152401361D01*
X100324629Y-152575612D01*
X100342943Y-152749862D01*
X100397085Y-152916494D01*
X100484687Y-153068227D01*
X100601929Y-153198436D01*
X100743674Y-153301420D01*
X100903738Y-153372685D01*
X101075114Y-153409112D01*
X101075116Y-153409112D01*
X101250326Y-153409112D01*
X101421701Y-153372685D01*
X101421702Y-153372684D01*
X101421704Y-153372684D01*
X101581766Y-153301420D01*
X101723512Y-153198435D01*
X101840750Y-153068230D01*
X101891203Y-152980843D01*
X101928354Y-152916494D01*
X101942445Y-152873126D01*
X101982497Y-152749861D01*
X102000811Y-152575612D01*
X101982497Y-152401363D01*
X101933352Y-152250112D01*
X101928354Y-152234729D01*
X101840752Y-152082996D01*
X101723510Y-151952787D01*
X101581765Y-151849803D01*
X101438451Y-151785996D01*
X101385214Y-151740746D01*
X101364892Y-151673897D01*
X101383937Y-151606673D01*
X101423608Y-151567289D01*
X101454562Y-151548124D01*
X101586079Y-151428230D01*
X101618980Y-151398237D01*
X101628702Y-151385363D01*
X101753058Y-151220689D01*
X101852229Y-151021528D01*
X101855606Y-151009662D01*
X101877881Y-150931369D01*
X101913115Y-150807536D01*
X101933643Y-150586000D01*
X101913443Y-150368000D01*
X105162692Y-150368000D01*
X105181884Y-150587368D01*
X105238880Y-150800077D01*
X105289035Y-150907636D01*
X105331944Y-150999654D01*
X105458251Y-151180038D01*
X105613962Y-151335749D01*
X105794346Y-151462056D01*
X105993924Y-151555120D01*
X106206629Y-151612115D01*
X106426000Y-151631307D01*
X106645371Y-151612115D01*
X106858076Y-151555120D01*
X107057654Y-151462056D01*
X107238038Y-151335749D01*
X107393749Y-151180038D01*
X107520056Y-150999654D01*
X107613120Y-150800076D01*
X107670115Y-150587371D01*
X107689307Y-150368000D01*
X107670115Y-150148629D01*
X107613120Y-149935924D01*
X107520056Y-149736347D01*
X107393749Y-149555962D01*
X107238038Y-149400251D01*
X107057654Y-149273944D01*
X106922532Y-149210936D01*
X106858077Y-149180880D01*
X106645368Y-149123884D01*
X106425999Y-149104692D01*
X106206631Y-149123884D01*
X105993922Y-149180880D01*
X105814282Y-149264648D01*
X105794347Y-149273944D01*
X105700195Y-149339870D01*
X105613958Y-149400254D01*
X105458254Y-149555958D01*
X105458251Y-149555961D01*
X105458251Y-149555962D01*
X105358029Y-149699095D01*
X105331943Y-149736349D01*
X105238880Y-149935922D01*
X105181884Y-150148631D01*
X105162692Y-150368000D01*
X101913443Y-150368000D01*
X101913115Y-150364464D01*
X101862044Y-150184967D01*
X101852230Y-150150473D01*
X101753058Y-149951311D01*
X101618980Y-149773762D01*
X101454562Y-149623875D01*
X101265404Y-149506754D01*
X101161517Y-149466508D01*
X101057940Y-149426382D01*
X100839243Y-149385500D01*
X100616757Y-149385500D01*
X100398059Y-149426381D01*
X100398060Y-149426382D01*
X100190595Y-149506754D01*
X100001437Y-149623875D01*
X99837019Y-149773762D01*
X99702941Y-149951311D01*
X99603769Y-150150473D01*
X99542885Y-150364462D01*
X99522357Y-150586000D01*
X97128500Y-150586000D01*
X97128500Y-145802092D01*
X97129097Y-145789938D01*
X97130068Y-145780082D01*
X97144587Y-145632662D01*
X97149326Y-145608838D01*
X97193428Y-145463451D01*
X97202722Y-145441014D01*
X97274340Y-145307027D01*
X97287835Y-145286830D01*
X97384213Y-145169392D01*
X97401392Y-145152213D01*
X97518830Y-145055835D01*
X97539027Y-145042340D01*
X97673014Y-144970722D01*
X97695451Y-144961428D01*
X97840838Y-144917326D01*
X97864662Y-144912587D01*
X98021938Y-144897097D01*
X98034093Y-144896500D01*
X101565748Y-144896500D01*
X101565783Y-144896492D01*
X101894936Y-144896508D01*
X102627885Y-144859699D01*
X103358065Y-144786173D01*
X104083637Y-144676116D01*
X104802777Y-144529805D01*
X105513673Y-144347609D01*
X106214535Y-144129984D01*
X106903600Y-143877481D01*
X107579133Y-143590733D01*
X108239433Y-143270464D01*
X108497287Y-143129000D01*
X113925692Y-143129000D01*
X113944884Y-143348368D01*
X114001880Y-143561077D01*
X114031116Y-143623773D01*
X114094944Y-143760654D01*
X114221251Y-143941038D01*
X114376962Y-144096749D01*
X114557346Y-144223056D01*
X114756924Y-144316120D01*
X114969629Y-144373115D01*
X115189000Y-144392307D01*
X115408371Y-144373115D01*
X115621076Y-144316120D01*
X115820654Y-144223056D01*
X116001038Y-144096749D01*
X116156749Y-143941038D01*
X116283056Y-143760654D01*
X116376120Y-143561076D01*
X116433115Y-143348371D01*
X116452307Y-143129000D01*
X116433115Y-142909629D01*
X116376120Y-142696924D01*
X116283056Y-142497347D01*
X116156749Y-142316962D01*
X116040583Y-142200796D01*
X116007099Y-142139473D01*
X116012083Y-142069781D01*
X116020878Y-142051115D01*
X116030215Y-142034944D01*
X116081634Y-141945882D01*
X116089219Y-141922536D01*
X116128658Y-141864860D01*
X116193016Y-141837662D01*
X116207151Y-141836854D01*
X123018139Y-141836854D01*
X123085178Y-141856539D01*
X123091016Y-141860530D01*
X123110378Y-141874597D01*
X123219889Y-141954162D01*
X123379953Y-142025427D01*
X123564079Y-142064564D01*
X123563454Y-142067501D01*
X123611259Y-142081539D01*
X123657014Y-142134343D01*
X123668220Y-142185854D01*
X123668220Y-144084173D01*
X123648535Y-144151212D01*
X123636370Y-144167145D01*
X123598689Y-144208993D01*
X123511085Y-144360729D01*
X123456943Y-144527361D01*
X123438629Y-144701612D01*
X123456943Y-144875862D01*
X123511085Y-145042494D01*
X123598687Y-145194227D01*
X123715929Y-145324436D01*
X123857674Y-145427420D01*
X124017738Y-145498685D01*
X124189114Y-145535112D01*
X124189116Y-145535112D01*
X124364326Y-145535112D01*
X124535701Y-145498685D01*
X124535702Y-145498684D01*
X124535704Y-145498684D01*
X124695766Y-145427420D01*
X124837512Y-145324435D01*
X124954750Y-145194230D01*
X124973146Y-145162368D01*
X125042354Y-145042494D01*
X125047352Y-145027112D01*
X125096497Y-144875861D01*
X125114811Y-144701612D01*
X125096497Y-144527363D01*
X125046378Y-144373115D01*
X125042354Y-144360729D01*
X124954750Y-144208993D01*
X124917070Y-144167146D01*
X124886839Y-144104154D01*
X124885220Y-144084185D01*
X124885219Y-125847864D01*
X124886281Y-125831679D01*
X124890471Y-125799853D01*
X124887223Y-125775186D01*
X124869558Y-125641003D01*
X124808244Y-125492978D01*
X124735198Y-125397783D01*
X124735194Y-125397779D01*
X124710707Y-125365867D01*
X124685232Y-125346319D01*
X124673046Y-125335631D01*
X124495732Y-125158317D01*
X124462247Y-125096994D01*
X124460092Y-125083597D01*
X124449006Y-124978114D01*
X124394863Y-124811481D01*
X124394863Y-124811480D01*
X124307261Y-124659747D01*
X124207299Y-124548729D01*
X124190021Y-124529540D01*
X124190020Y-124529539D01*
X124190019Y-124529538D01*
X124048274Y-124426554D01*
X123888210Y-124355289D01*
X123716835Y-124318863D01*
X123716833Y-124318863D01*
X123541625Y-124318863D01*
X123541623Y-124318863D01*
X123370247Y-124355289D01*
X123210181Y-124426555D01*
X123068440Y-124529536D01*
X122951196Y-124659747D01*
X122863594Y-124811480D01*
X122809452Y-124978112D01*
X122791138Y-125152363D01*
X122809452Y-125326613D01*
X122863594Y-125493245D01*
X122951196Y-125644978D01*
X123068438Y-125775187D01*
X123210183Y-125878171D01*
X123370247Y-125949436D01*
X123541623Y-125985863D01*
X123541625Y-125985863D01*
X123544220Y-125985863D01*
X123551027Y-125987861D01*
X123554373Y-125988573D01*
X123554318Y-125988828D01*
X123611259Y-126005548D01*
X123657014Y-126058352D01*
X123668220Y-126109863D01*
X123668220Y-140270854D01*
X123648535Y-140337893D01*
X123595731Y-140383648D01*
X123563751Y-140390604D01*
X123564079Y-140392144D01*
X123379953Y-140431280D01*
X123219890Y-140502545D01*
X123165824Y-140541827D01*
X123109810Y-140582524D01*
X123091025Y-140596172D01*
X123025218Y-140619652D01*
X123018139Y-140619854D01*
X115740651Y-140619854D01*
X115724466Y-140618793D01*
X115692645Y-140614603D01*
X115652772Y-140619853D01*
X115652749Y-140619855D01*
X115554191Y-140632831D01*
X115533793Y-140635516D01*
X115385769Y-140696830D01*
X115321851Y-140745876D01*
X115256682Y-140771070D01*
X115246365Y-140771500D01*
X115228394Y-140771500D01*
X115057018Y-140807926D01*
X114896952Y-140879192D01*
X114755211Y-140982173D01*
X114637967Y-141112384D01*
X114550365Y-141264117D01*
X114496223Y-141430749D01*
X114477909Y-141605000D01*
X114496223Y-141779250D01*
X114546880Y-141935154D01*
X114548875Y-142004995D01*
X114512795Y-142064828D01*
X114500073Y-142075046D01*
X114376962Y-142161250D01*
X114221254Y-142316958D01*
X114221251Y-142316961D01*
X114221251Y-142316962D01*
X114132581Y-142443597D01*
X114094943Y-142497349D01*
X114001880Y-142696922D01*
X113944884Y-142909631D01*
X113925692Y-143129000D01*
X108497287Y-143129000D01*
X108882838Y-142917479D01*
X109507728Y-142532666D01*
X110112531Y-142116995D01*
X110695723Y-141671512D01*
X111255837Y-141197339D01*
X111791463Y-140695668D01*
X112301253Y-140167764D01*
X112783922Y-139614954D01*
X113238257Y-139038630D01*
X113663112Y-138440244D01*
X114057420Y-137821302D01*
X114365192Y-137280072D01*
X120121446Y-137280072D01*
X120140638Y-137499441D01*
X120197634Y-137712150D01*
X120240938Y-137805016D01*
X120290698Y-137911727D01*
X120417005Y-138092111D01*
X120572716Y-138247822D01*
X120753100Y-138374129D01*
X120952678Y-138467193D01*
X121165383Y-138524188D01*
X121384754Y-138543380D01*
X121604125Y-138524188D01*
X121816830Y-138467193D01*
X122016408Y-138374129D01*
X122196792Y-138247822D01*
X122352503Y-138092111D01*
X122478810Y-137911727D01*
X122571874Y-137712149D01*
X122628869Y-137499444D01*
X122648061Y-137280073D01*
X122628869Y-137060702D01*
X122571874Y-136847997D01*
X122478810Y-136648420D01*
X122352503Y-136468035D01*
X122196792Y-136312324D01*
X122016408Y-136186017D01*
X121905174Y-136134148D01*
X121816831Y-136092953D01*
X121604122Y-136035957D01*
X121384754Y-136016765D01*
X121165385Y-136035957D01*
X120952676Y-136092953D01*
X120759309Y-136183122D01*
X120753101Y-136186017D01*
X120574864Y-136310820D01*
X120572712Y-136312327D01*
X120417008Y-136468031D01*
X120417005Y-136468034D01*
X120417005Y-136468035D01*
X120305915Y-136626689D01*
X120290697Y-136648422D01*
X120197634Y-136847995D01*
X120140638Y-137060704D01*
X120121446Y-137280072D01*
X114365192Y-137280072D01*
X114420187Y-137183361D01*
X114750500Y-136528027D01*
X115047527Y-135856951D01*
X115310521Y-135171821D01*
X115538820Y-134474363D01*
X115731849Y-133766331D01*
X115889122Y-133049509D01*
X116010243Y-132325701D01*
X116060149Y-131895999D01*
X119642340Y-131895999D01*
X119662936Y-132131407D01*
X119692512Y-132241785D01*
X119724097Y-132359663D01*
X119823965Y-132573830D01*
X119959505Y-132767401D01*
X120126599Y-132934495D01*
X120320170Y-133070035D01*
X120534337Y-133169903D01*
X120762592Y-133231063D01*
X120998000Y-133251659D01*
X121233408Y-133231063D01*
X121461663Y-133169903D01*
X121675830Y-133070035D01*
X121869401Y-132934495D01*
X122036495Y-132767401D01*
X122172035Y-132573830D01*
X122271903Y-132359663D01*
X122333063Y-132131408D01*
X122353659Y-131896000D01*
X122350722Y-131862436D01*
X122333063Y-131660592D01*
X122315951Y-131596729D01*
X122271903Y-131432337D01*
X122172035Y-131218171D01*
X122036495Y-131024599D01*
X121869401Y-130857505D01*
X121675830Y-130721965D01*
X121461663Y-130622097D01*
X121400502Y-130605709D01*
X121233407Y-130560936D01*
X120998000Y-130540340D01*
X120762592Y-130560936D01*
X120534336Y-130622097D01*
X120320170Y-130721965D01*
X120126598Y-130857505D01*
X119959505Y-131024598D01*
X119823965Y-131218170D01*
X119724097Y-131432336D01*
X119662936Y-131660592D01*
X119642340Y-131895999D01*
X116060149Y-131895999D01*
X116094907Y-131596729D01*
X116142902Y-130864428D01*
X116147971Y-130531399D01*
X116148500Y-130528236D01*
X116148500Y-130496747D01*
X116148576Y-130491753D01*
X116148899Y-130470609D01*
X116148898Y-130470607D01*
X116149084Y-130458402D01*
X116148500Y-130453676D01*
X116148500Y-119635611D01*
X122884692Y-119635611D01*
X122903884Y-119854980D01*
X122960880Y-120067689D01*
X123002983Y-120157979D01*
X123053944Y-120267266D01*
X123180251Y-120447650D01*
X123335962Y-120603361D01*
X123516346Y-120729668D01*
X123715924Y-120822732D01*
X123928629Y-120879727D01*
X124148000Y-120898919D01*
X124367371Y-120879727D01*
X124580076Y-120822732D01*
X124779654Y-120729668D01*
X124960038Y-120603361D01*
X125115749Y-120447650D01*
X125242056Y-120267266D01*
X125335120Y-120067688D01*
X125392115Y-119854983D01*
X125411307Y-119635612D01*
X125392115Y-119416241D01*
X125335120Y-119203536D01*
X125242056Y-119003959D01*
X125115749Y-118823574D01*
X124960038Y-118667863D01*
X124779654Y-118541556D01*
X124687636Y-118498647D01*
X124580077Y-118448492D01*
X124367368Y-118391496D01*
X124148000Y-118372304D01*
X123928631Y-118391496D01*
X123715922Y-118448492D01*
X123532759Y-118533903D01*
X123516347Y-118541556D01*
X123479944Y-118567046D01*
X123335958Y-118667866D01*
X123180254Y-118823570D01*
X123180251Y-118823573D01*
X123180251Y-118823574D01*
X123062189Y-118992185D01*
X123053943Y-119003961D01*
X122960880Y-119203534D01*
X122903884Y-119416243D01*
X122884692Y-119635611D01*
X116148500Y-119635611D01*
X116148500Y-115502092D01*
X116149097Y-115489938D01*
X116150813Y-115472516D01*
X116164587Y-115332662D01*
X116169326Y-115308838D01*
X116213428Y-115163451D01*
X116222722Y-115141014D01*
X116294340Y-115007027D01*
X116307835Y-114986830D01*
X116404213Y-114869392D01*
X116421392Y-114852213D01*
X116538830Y-114755835D01*
X116559027Y-114742340D01*
X116693014Y-114670722D01*
X116715451Y-114661428D01*
X116860838Y-114617326D01*
X116884662Y-114612587D01*
X117041938Y-114597097D01*
X117054093Y-114596500D01*
X117074929Y-114596500D01*
X117427579Y-114596500D01*
X117449957Y-114598535D01*
X117461981Y-114600742D01*
X117477974Y-114593077D01*
X117493244Y-114586970D01*
X117493658Y-114586835D01*
X117510112Y-114581490D01*
X117517303Y-114571591D01*
X117532093Y-114554695D01*
X119524236Y-112657418D01*
X119552283Y-112630707D01*
X119614404Y-112598727D01*
X119637800Y-112596500D01*
X129219893Y-112596500D01*
X129286932Y-112616185D01*
G37*
G04 #@! TD.AperFunction*
G04 #@! TA.AperFunction,Conductor*
G36*
X130981988Y-138806670D02*
G01*
X130993022Y-138816463D01*
X132823904Y-140647345D01*
X132857389Y-140708668D01*
X132860223Y-140735026D01*
X132860223Y-148407256D01*
X132840538Y-148474295D01*
X132787734Y-148520050D01*
X132718576Y-148529994D01*
X132704129Y-148527031D01*
X132635994Y-148508774D01*
X132416625Y-148489582D01*
X132197257Y-148508774D01*
X131984548Y-148565770D01*
X131801962Y-148650912D01*
X131784973Y-148658834D01*
X131604588Y-148785141D01*
X131604584Y-148785144D01*
X131448880Y-148940848D01*
X131448877Y-148940851D01*
X131448877Y-148940852D01*
X131334155Y-149104693D01*
X131322569Y-149121239D01*
X131229506Y-149320812D01*
X131172510Y-149533521D01*
X131153318Y-149752890D01*
X131172510Y-149972258D01*
X131229506Y-150184967D01*
X131268726Y-150269074D01*
X131322570Y-150384544D01*
X131448877Y-150564928D01*
X131448880Y-150564931D01*
X131604588Y-150720639D01*
X131755935Y-150826615D01*
X131799560Y-150881192D01*
X131806752Y-150950690D01*
X131776961Y-151011161D01*
X131726689Y-151066993D01*
X131639085Y-151218729D01*
X131584943Y-151385361D01*
X131566629Y-151559612D01*
X131584943Y-151733862D01*
X131639085Y-151900494D01*
X131726687Y-152052227D01*
X131726690Y-152052230D01*
X131764370Y-152094077D01*
X131794599Y-152157067D01*
X131796220Y-152177049D01*
X131796220Y-159385607D01*
X131795159Y-159401792D01*
X131790969Y-159433611D01*
X131796220Y-159473491D01*
X131796220Y-159473497D01*
X131805323Y-159542638D01*
X131811881Y-159592463D01*
X131814783Y-159599469D01*
X131823543Y-159659880D01*
X131820629Y-159687609D01*
X131820629Y-159687612D01*
X131831690Y-159792854D01*
X131838943Y-159861862D01*
X131893085Y-160028494D01*
X131980687Y-160180227D01*
X132097929Y-160310436D01*
X132239674Y-160413420D01*
X132399738Y-160484685D01*
X132571114Y-160521112D01*
X132571116Y-160521112D01*
X132746326Y-160521112D01*
X132917701Y-160484685D01*
X132917702Y-160484684D01*
X132917704Y-160484684D01*
X133077766Y-160413420D01*
X133219512Y-160310435D01*
X133336750Y-160180230D01*
X133338094Y-160177903D01*
X133424354Y-160028494D01*
X133439866Y-159980753D01*
X133478497Y-159861861D01*
X133496811Y-159687612D01*
X133478497Y-159513363D01*
X133424354Y-159346730D01*
X133424354Y-159346729D01*
X133336752Y-159194996D01*
X133284652Y-159137134D01*
X133219512Y-159064789D01*
X133185321Y-159039948D01*
X133067223Y-158954144D01*
X133069446Y-158951083D01*
X133033544Y-158920564D01*
X133013226Y-158853714D01*
X133013220Y-158852540D01*
X133013220Y-155337436D01*
X133032905Y-155270397D01*
X133085709Y-155224642D01*
X133154867Y-155214698D01*
X133187653Y-155224156D01*
X133201757Y-155230435D01*
X133209741Y-155233990D01*
X133381117Y-155270417D01*
X133381119Y-155270417D01*
X133556329Y-155270417D01*
X133727704Y-155233990D01*
X133727705Y-155233989D01*
X133727707Y-155233989D01*
X133887769Y-155162725D01*
X133995130Y-155084722D01*
X134060934Y-155061243D01*
X134128988Y-155077068D01*
X134177683Y-155127173D01*
X134191559Y-155195651D01*
X134191335Y-155198000D01*
X134190726Y-155203798D01*
X134199772Y-155289862D01*
X134209040Y-155378048D01*
X134263182Y-155544680D01*
X134350784Y-155696413D01*
X134468026Y-155826622D01*
X134609771Y-155929606D01*
X134769835Y-156000871D01*
X134941211Y-156037298D01*
X134941213Y-156037298D01*
X135116419Y-156037298D01*
X135116421Y-156037298D01*
X135170271Y-156025851D01*
X135239935Y-156031166D01*
X135295669Y-156073302D01*
X135303439Y-156085143D01*
X135318439Y-156111124D01*
X135405836Y-156208187D01*
X135435678Y-156241330D01*
X135577423Y-156344314D01*
X135737487Y-156415579D01*
X135827447Y-156434700D01*
X135874000Y-156444595D01*
X135935482Y-156477787D01*
X135969259Y-156538950D01*
X135972220Y-156565885D01*
X135972220Y-159964493D01*
X135952535Y-160031532D01*
X135899731Y-160077287D01*
X135830573Y-160087231D01*
X135797786Y-160077773D01*
X135758788Y-160060410D01*
X135587410Y-160023983D01*
X135587408Y-160023983D01*
X135412200Y-160023983D01*
X135412198Y-160023983D01*
X135240822Y-160060409D01*
X135080756Y-160131675D01*
X134939015Y-160234656D01*
X134821771Y-160364867D01*
X134734169Y-160516600D01*
X134680027Y-160683232D01*
X134673315Y-160747093D01*
X134669124Y-160786972D01*
X134668940Y-160788718D01*
X134642355Y-160853332D01*
X134633300Y-160863436D01*
X134436391Y-161060345D01*
X134424198Y-161071038D01*
X134398736Y-161090576D01*
X134398732Y-161090580D01*
X134398733Y-161090580D01*
X134374245Y-161122492D01*
X134374243Y-161122495D01*
X134371894Y-161125555D01*
X134371890Y-161125559D01*
X134301195Y-161217691D01*
X134241901Y-161360843D01*
X134239881Y-161365716D01*
X134224220Y-161484682D01*
X134224220Y-161484688D01*
X134218969Y-161524566D01*
X134223159Y-161556385D01*
X134224220Y-161572571D01*
X134224220Y-162352112D01*
X134204535Y-162419151D01*
X134151731Y-162464906D01*
X134100220Y-162476112D01*
X133934082Y-162476112D01*
X133930804Y-162476464D01*
X133930792Y-162476465D01*
X133870974Y-162482896D01*
X133844466Y-162482896D01*
X133784647Y-162476465D01*
X133784636Y-162476464D01*
X133781358Y-162476112D01*
X133284082Y-162476112D01*
X133280802Y-162476464D01*
X133280795Y-162476465D01*
X133223514Y-162482623D01*
X133086516Y-162533722D01*
X132969458Y-162621350D01*
X132881830Y-162738408D01*
X132830731Y-162875406D01*
X132824573Y-162932687D01*
X132824220Y-162935974D01*
X132824220Y-163683250D01*
X132824572Y-163686530D01*
X132824573Y-163686536D01*
X132830731Y-163743817D01*
X132881830Y-163880815D01*
X132969458Y-163997873D01*
X133086516Y-164085501D01*
X133238112Y-164142045D01*
X133237660Y-164143255D01*
X133285476Y-164163061D01*
X133325324Y-164220454D01*
X133327817Y-164290279D01*
X133292164Y-164350367D01*
X133229685Y-164381642D01*
X133223928Y-164382469D01*
X133086516Y-164433722D01*
X132969458Y-164521350D01*
X132881830Y-164638408D01*
X132830731Y-164775406D01*
X132824573Y-164832687D01*
X132824220Y-164835974D01*
X132824220Y-165583250D01*
X132824572Y-165586530D01*
X132824573Y-165586536D01*
X132830731Y-165643817D01*
X132881830Y-165780815D01*
X132969458Y-165897873D01*
X133086516Y-165985501D01*
X133223514Y-166036600D01*
X133223517Y-166036600D01*
X133223519Y-166036601D01*
X133284082Y-166043112D01*
X133287392Y-166043112D01*
X133778048Y-166043112D01*
X133781358Y-166043112D01*
X133785995Y-166042613D01*
X133844464Y-166036328D01*
X133870976Y-166036328D01*
X133930779Y-166042757D01*
X133930780Y-166042757D01*
X133934082Y-166043112D01*
X133937392Y-166043112D01*
X134428048Y-166043112D01*
X134431358Y-166043112D01*
X134435995Y-166042613D01*
X134494464Y-166036328D01*
X134520976Y-166036328D01*
X134580779Y-166042757D01*
X134580780Y-166042757D01*
X134584082Y-166043112D01*
X134587392Y-166043112D01*
X135078048Y-166043112D01*
X135081358Y-166043112D01*
X135141921Y-166036601D01*
X135278924Y-165985501D01*
X135278924Y-165985500D01*
X135295629Y-165979270D01*
X135297233Y-165983572D01*
X135331294Y-165970854D01*
X135390623Y-165981256D01*
X135447736Y-166006684D01*
X135619114Y-166043112D01*
X135619116Y-166043112D01*
X135794326Y-166043112D01*
X135898333Y-166021004D01*
X135965704Y-166006684D01*
X136022819Y-165981254D01*
X136092064Y-165971969D01*
X136116680Y-165982304D01*
X136117812Y-165979271D01*
X136271514Y-166036600D01*
X136271517Y-166036600D01*
X136271519Y-166036601D01*
X136332082Y-166043112D01*
X136335392Y-166043112D01*
X136826048Y-166043112D01*
X136829358Y-166043112D01*
X136833995Y-166042613D01*
X136892464Y-166036328D01*
X136918976Y-166036328D01*
X136978779Y-166042757D01*
X136978780Y-166042757D01*
X136982082Y-166043112D01*
X136985392Y-166043112D01*
X137476048Y-166043112D01*
X137479358Y-166043112D01*
X137483995Y-166042613D01*
X137542464Y-166036328D01*
X137568976Y-166036328D01*
X137628779Y-166042757D01*
X137628780Y-166042757D01*
X137632082Y-166043112D01*
X137635392Y-166043112D01*
X138126048Y-166043112D01*
X138129358Y-166043112D01*
X138189921Y-166036601D01*
X138189923Y-166036600D01*
X138189925Y-166036600D01*
X138270131Y-166006684D01*
X138326924Y-165985501D01*
X138443981Y-165897873D01*
X138531609Y-165780816D01*
X138553644Y-165721736D01*
X138582708Y-165643817D01*
X138582708Y-165643815D01*
X138582709Y-165643813D01*
X138589220Y-165583250D01*
X138589220Y-164835974D01*
X138582709Y-164775411D01*
X138582708Y-164775409D01*
X138582708Y-164775406D01*
X138531609Y-164638408D01*
X138443981Y-164521350D01*
X138326923Y-164433722D01*
X138175328Y-164377179D01*
X138175779Y-164375969D01*
X138127964Y-164356164D01*
X138088116Y-164298771D01*
X138085622Y-164228946D01*
X138121274Y-164168857D01*
X138183753Y-164137582D01*
X138189515Y-164136753D01*
X138272473Y-164105810D01*
X138326924Y-164085501D01*
X138443981Y-163997873D01*
X138531609Y-163880816D01*
X138565214Y-163790719D01*
X138582708Y-163743817D01*
X138582708Y-163743815D01*
X138582709Y-163743813D01*
X138589220Y-163683250D01*
X138589220Y-162935974D01*
X138582709Y-162875411D01*
X138582708Y-162875409D01*
X138582708Y-162875406D01*
X138531609Y-162738408D01*
X138513953Y-162714822D01*
X138489536Y-162649358D01*
X138489220Y-162640512D01*
X138489220Y-161792563D01*
X138508905Y-161725524D01*
X138561709Y-161679769D01*
X138630867Y-161669825D01*
X138694423Y-161698850D01*
X138731151Y-161754245D01*
X138749981Y-161812200D01*
X138837583Y-161963933D01*
X138837586Y-161963936D01*
X138954824Y-162094141D01*
X138964704Y-162101319D01*
X138969104Y-162104516D01*
X139011771Y-162159846D01*
X139020220Y-162204835D01*
X139020220Y-162640512D01*
X139000535Y-162707551D01*
X138995487Y-162714822D01*
X138977830Y-162738408D01*
X138926731Y-162875406D01*
X138920573Y-162932687D01*
X138920220Y-162935974D01*
X138920220Y-163683250D01*
X138920572Y-163686530D01*
X138920573Y-163686536D01*
X138926731Y-163743817D01*
X138977830Y-163880815D01*
X139065458Y-163997873D01*
X139182516Y-164085501D01*
X139334112Y-164142045D01*
X139333660Y-164143255D01*
X139381476Y-164163061D01*
X139421324Y-164220454D01*
X139423817Y-164290279D01*
X139388164Y-164350367D01*
X139325685Y-164381642D01*
X139319928Y-164382469D01*
X139182516Y-164433722D01*
X139065458Y-164521350D01*
X138977830Y-164638408D01*
X138926731Y-164775406D01*
X138920573Y-164832687D01*
X138920220Y-164835974D01*
X138920220Y-165583250D01*
X138920572Y-165586530D01*
X138920573Y-165586536D01*
X138926731Y-165643817D01*
X138977830Y-165780815D01*
X139065458Y-165897873D01*
X139182516Y-165985501D01*
X139319514Y-166036600D01*
X139319517Y-166036600D01*
X139319519Y-166036601D01*
X139380082Y-166043112D01*
X139383392Y-166043112D01*
X139874048Y-166043112D01*
X139877358Y-166043112D01*
X139881995Y-166042613D01*
X139940464Y-166036328D01*
X139966976Y-166036328D01*
X140026779Y-166042757D01*
X140026780Y-166042757D01*
X140030082Y-166043112D01*
X140033392Y-166043112D01*
X140524048Y-166043112D01*
X140527358Y-166043112D01*
X140531995Y-166042613D01*
X140590464Y-166036328D01*
X140616976Y-166036328D01*
X140676779Y-166042757D01*
X140676780Y-166042757D01*
X140680082Y-166043112D01*
X140683392Y-166043112D01*
X141174048Y-166043112D01*
X141177358Y-166043112D01*
X141237921Y-166036601D01*
X141374924Y-165985501D01*
X141374924Y-165985500D01*
X141391629Y-165979270D01*
X141393233Y-165983572D01*
X141427294Y-165970854D01*
X141486623Y-165981256D01*
X141543736Y-166006684D01*
X141715114Y-166043112D01*
X141715116Y-166043112D01*
X141890326Y-166043112D01*
X141994333Y-166021004D01*
X142061704Y-166006684D01*
X142118819Y-165981254D01*
X142188064Y-165971969D01*
X142212680Y-165982304D01*
X142213812Y-165979271D01*
X142367514Y-166036600D01*
X142367517Y-166036600D01*
X142367519Y-166036601D01*
X142428082Y-166043112D01*
X142431392Y-166043112D01*
X142922048Y-166043112D01*
X142925358Y-166043112D01*
X142929995Y-166042613D01*
X142988464Y-166036328D01*
X143014976Y-166036328D01*
X143074779Y-166042757D01*
X143074780Y-166042757D01*
X143078082Y-166043112D01*
X143081392Y-166043112D01*
X143572048Y-166043112D01*
X143575358Y-166043112D01*
X143579995Y-166042613D01*
X143638464Y-166036328D01*
X143664976Y-166036328D01*
X143724779Y-166042757D01*
X143724780Y-166042757D01*
X143728082Y-166043112D01*
X143731392Y-166043112D01*
X144222048Y-166043112D01*
X144225358Y-166043112D01*
X144285921Y-166036601D01*
X144422924Y-165985501D01*
X144422924Y-165985500D01*
X144439629Y-165979270D01*
X144441233Y-165983572D01*
X144475294Y-165970854D01*
X144534623Y-165981256D01*
X144591736Y-166006684D01*
X144763114Y-166043112D01*
X144763116Y-166043112D01*
X144938326Y-166043112D01*
X145042333Y-166021004D01*
X145109704Y-166006684D01*
X145166819Y-165981254D01*
X145236064Y-165971969D01*
X145260680Y-165982304D01*
X145261812Y-165979271D01*
X145415514Y-166036600D01*
X145415517Y-166036600D01*
X145415519Y-166036601D01*
X145476082Y-166043112D01*
X145479392Y-166043112D01*
X145970048Y-166043112D01*
X145973358Y-166043112D01*
X145977995Y-166042613D01*
X146036464Y-166036328D01*
X146062976Y-166036328D01*
X146122779Y-166042757D01*
X146122780Y-166042757D01*
X146126082Y-166043112D01*
X146129392Y-166043112D01*
X146620048Y-166043112D01*
X146623358Y-166043112D01*
X146627995Y-166042613D01*
X146686464Y-166036328D01*
X146712976Y-166036328D01*
X146772779Y-166042757D01*
X146772780Y-166042757D01*
X146776082Y-166043112D01*
X146779392Y-166043112D01*
X147270048Y-166043112D01*
X147273358Y-166043112D01*
X147333921Y-166036601D01*
X147470924Y-165985501D01*
X147470924Y-165985500D01*
X147487629Y-165979270D01*
X147489233Y-165983572D01*
X147523294Y-165970854D01*
X147582623Y-165981256D01*
X147639736Y-166006684D01*
X147811114Y-166043112D01*
X147811116Y-166043112D01*
X147986326Y-166043112D01*
X148090333Y-166021004D01*
X148157704Y-166006684D01*
X148214819Y-165981254D01*
X148284064Y-165971969D01*
X148308680Y-165982304D01*
X148309812Y-165979271D01*
X148463514Y-166036600D01*
X148463517Y-166036600D01*
X148463519Y-166036601D01*
X148524082Y-166043112D01*
X148527392Y-166043112D01*
X149018048Y-166043112D01*
X149021358Y-166043112D01*
X149025995Y-166042613D01*
X149084464Y-166036328D01*
X149110976Y-166036328D01*
X149170779Y-166042757D01*
X149170780Y-166042757D01*
X149174082Y-166043112D01*
X149177392Y-166043112D01*
X149668048Y-166043112D01*
X149671358Y-166043112D01*
X149675995Y-166042613D01*
X149734464Y-166036328D01*
X149760976Y-166036328D01*
X149820779Y-166042757D01*
X149820780Y-166042757D01*
X149824082Y-166043112D01*
X149827392Y-166043112D01*
X150318048Y-166043112D01*
X150321358Y-166043112D01*
X150381921Y-166036601D01*
X150381923Y-166036600D01*
X150381925Y-166036600D01*
X150462131Y-166006684D01*
X150518924Y-165985501D01*
X150635981Y-165897873D01*
X150723609Y-165780816D01*
X150745644Y-165721736D01*
X150774708Y-165643817D01*
X150774708Y-165643815D01*
X150774709Y-165643813D01*
X150781220Y-165583250D01*
X150781220Y-164835974D01*
X150774709Y-164775411D01*
X150774708Y-164775409D01*
X150774708Y-164775406D01*
X150723609Y-164638408D01*
X150635981Y-164521350D01*
X150518923Y-164433722D01*
X150367328Y-164377179D01*
X150367779Y-164375969D01*
X150319964Y-164356164D01*
X150280116Y-164298771D01*
X150277622Y-164228946D01*
X150313274Y-164168857D01*
X150375753Y-164137582D01*
X150381515Y-164136753D01*
X150464473Y-164105810D01*
X150518924Y-164085501D01*
X150635981Y-163997873D01*
X150723609Y-163880816D01*
X150757214Y-163790719D01*
X150774708Y-163743817D01*
X150774708Y-163743815D01*
X150774709Y-163743813D01*
X150781220Y-163683250D01*
X150781220Y-162935974D01*
X150774709Y-162875411D01*
X150774708Y-162875409D01*
X150774708Y-162875406D01*
X150723609Y-162738408D01*
X150705953Y-162714822D01*
X150681536Y-162649358D01*
X150681220Y-162640512D01*
X150681220Y-160795097D01*
X150682281Y-160778912D01*
X150687077Y-160742483D01*
X150715343Y-160678586D01*
X150773668Y-160640115D01*
X150843533Y-160639284D01*
X150900037Y-160673391D01*
X151265632Y-161059330D01*
X151266731Y-161060381D01*
X151266737Y-161060387D01*
X151339985Y-161130436D01*
X151539045Y-161320804D01*
X151546131Y-161327583D01*
X151553075Y-161334783D01*
X151639531Y-161431999D01*
X151651577Y-161447972D01*
X151661522Y-161463647D01*
X151718554Y-161553540D01*
X151718577Y-161553575D01*
X151727896Y-161571276D01*
X151732818Y-161582793D01*
X151777041Y-161686279D01*
X151783393Y-161705251D01*
X151813403Y-161826661D01*
X151816621Y-161846408D01*
X151827095Y-161975752D01*
X151827500Y-161985760D01*
X151827500Y-165789907D01*
X151826903Y-165802062D01*
X151811413Y-165959329D01*
X151806671Y-165983169D01*
X151762575Y-166128537D01*
X151753272Y-166150996D01*
X151681663Y-166284965D01*
X151668159Y-166305175D01*
X151571791Y-166422601D01*
X151554601Y-166439791D01*
X151437175Y-166536159D01*
X151416965Y-166549663D01*
X151282996Y-166621272D01*
X151260537Y-166630575D01*
X151115169Y-166674671D01*
X151091329Y-166679413D01*
X150975425Y-166690828D01*
X150934060Y-166694903D01*
X150921907Y-166695500D01*
X132434093Y-166695500D01*
X132421939Y-166694903D01*
X132264671Y-166679413D01*
X132240830Y-166674671D01*
X132095462Y-166630575D01*
X132073005Y-166621273D01*
X131939035Y-166549663D01*
X131918824Y-166536159D01*
X131801398Y-166439791D01*
X131784208Y-166422601D01*
X131699544Y-166319437D01*
X131687839Y-166305174D01*
X131674336Y-166284965D01*
X131662525Y-166262868D01*
X131602724Y-166150989D01*
X131593427Y-166128544D01*
X131549326Y-165983163D01*
X131544587Y-165959335D01*
X131529097Y-165802061D01*
X131528500Y-165789907D01*
X131528500Y-165198866D01*
X131528500Y-165194973D01*
X131490642Y-164895302D01*
X131415525Y-164602738D01*
X131304332Y-164321896D01*
X131158816Y-164057205D01*
X130981274Y-163812838D01*
X130774504Y-163592651D01*
X130677334Y-163512265D01*
X130544770Y-163402598D01*
X130544765Y-163402594D01*
X130541768Y-163400115D01*
X130538480Y-163398028D01*
X130538474Y-163398024D01*
X130290022Y-163240352D01*
X130290017Y-163240349D01*
X130286736Y-163238267D01*
X130013430Y-163109659D01*
X130009727Y-163108455D01*
X130009725Y-163108455D01*
X129729869Y-163017524D01*
X129729867Y-163017523D01*
X129726160Y-163016319D01*
X129722335Y-163015589D01*
X129722330Y-163015588D01*
X129433283Y-162960449D01*
X129433269Y-162960447D01*
X129429457Y-162959720D01*
X129128000Y-162940754D01*
X129124106Y-162940999D01*
X128830436Y-162959475D01*
X128830434Y-162959475D01*
X128826543Y-162959720D01*
X128822732Y-162960446D01*
X128822716Y-162960449D01*
X128533669Y-163015588D01*
X128533660Y-163015590D01*
X128529840Y-163016319D01*
X128526136Y-163017522D01*
X128526130Y-163017524D01*
X128246274Y-163108455D01*
X128246267Y-163108457D01*
X128242570Y-163109659D01*
X128239055Y-163111312D01*
X128239050Y-163111315D01*
X127972782Y-163236611D01*
X127972774Y-163236614D01*
X127969264Y-163238267D01*
X127965988Y-163240345D01*
X127965977Y-163240352D01*
X127717525Y-163398024D01*
X127717511Y-163398033D01*
X127714232Y-163400115D01*
X127711241Y-163402588D01*
X127711229Y-163402598D01*
X127484492Y-163590172D01*
X127484487Y-163590176D01*
X127481496Y-163592651D01*
X127478838Y-163595481D01*
X127478831Y-163595488D01*
X127277394Y-163809996D01*
X127277387Y-163810003D01*
X127274726Y-163812838D01*
X127272440Y-163815983D01*
X127272432Y-163815994D01*
X127099472Y-164054055D01*
X127099467Y-164054061D01*
X127097184Y-164057205D01*
X127095317Y-164060600D01*
X127095310Y-164060612D01*
X126953546Y-164318478D01*
X126953539Y-164318491D01*
X126951668Y-164321896D01*
X126950234Y-164325515D01*
X126950230Y-164325526D01*
X126841911Y-164599109D01*
X126841907Y-164599120D01*
X126840475Y-164602738D01*
X126839506Y-164606511D01*
X126839504Y-164606518D01*
X126779741Y-164839283D01*
X126765358Y-164895302D01*
X126764870Y-164899161D01*
X126764869Y-164899169D01*
X126729880Y-165176132D01*
X126727500Y-165194973D01*
X126727500Y-165198866D01*
X126727500Y-165789907D01*
X126726903Y-165802062D01*
X126711413Y-165959329D01*
X126706671Y-165983169D01*
X126662575Y-166128537D01*
X126653272Y-166150996D01*
X126581663Y-166284965D01*
X126568159Y-166305175D01*
X126471791Y-166422601D01*
X126454601Y-166439791D01*
X126337175Y-166536159D01*
X126316965Y-166549663D01*
X126182996Y-166621272D01*
X126160537Y-166630575D01*
X126015169Y-166674671D01*
X125991329Y-166679413D01*
X125875425Y-166690828D01*
X125834060Y-166694903D01*
X125821907Y-166695500D01*
X104970252Y-166695500D01*
X104903213Y-166675815D01*
X104857458Y-166623011D01*
X104847514Y-166553853D01*
X104876539Y-166490297D01*
X104904974Y-166466073D01*
X104913232Y-166460960D01*
X105068474Y-166319437D01*
X105195069Y-166151799D01*
X105195069Y-166151797D01*
X105195071Y-166151796D01*
X105288704Y-165963754D01*
X105346192Y-165761706D01*
X105349222Y-165729000D01*
X105365575Y-165552532D01*
X105350408Y-165388857D01*
X105346192Y-165343357D01*
X105288704Y-165141309D01*
X105195071Y-164953267D01*
X105068475Y-164785628D01*
X104913231Y-164644103D01*
X104898335Y-164634880D01*
X104851701Y-164582851D01*
X104840598Y-164513869D01*
X104868553Y-164449835D01*
X104926689Y-164411080D01*
X104950367Y-164406164D01*
X104951483Y-164406045D01*
X104977970Y-164406047D01*
X105012779Y-164409789D01*
X105012780Y-164409789D01*
X105016082Y-164410144D01*
X105019392Y-164410144D01*
X105410048Y-164410144D01*
X105413358Y-164410144D01*
X105416657Y-164409789D01*
X105416662Y-164409789D01*
X105451465Y-164406048D01*
X105477975Y-164406048D01*
X105512777Y-164409789D01*
X105512783Y-164409789D01*
X105516082Y-164410144D01*
X105547180Y-164410144D01*
X105614219Y-164429829D01*
X105659974Y-164482633D01*
X105661741Y-164486692D01*
X105683195Y-164538487D01*
X105756216Y-164633650D01*
X105756233Y-164633672D01*
X105756243Y-164633684D01*
X105756245Y-164633686D01*
X105780733Y-164665599D01*
X105780734Y-164665600D01*
X105806198Y-164685139D01*
X105818393Y-164695834D01*
X106286497Y-165163938D01*
X106297192Y-165176133D01*
X106316733Y-165201600D01*
X106334095Y-165214922D01*
X106334100Y-165214925D01*
X106348645Y-165226086D01*
X106348648Y-165226089D01*
X106405704Y-165269869D01*
X106443845Y-165299136D01*
X106591870Y-165360450D01*
X106710835Y-165376112D01*
X106710842Y-165376112D01*
X106750720Y-165381362D01*
X106782540Y-165377172D01*
X106798725Y-165376112D01*
X122704715Y-165376112D01*
X122720899Y-165377172D01*
X122752720Y-165381362D01*
X122792600Y-165376112D01*
X122792605Y-165376112D01*
X122892176Y-165363003D01*
X122911571Y-165360450D01*
X123059596Y-165299136D01*
X123154792Y-165226089D01*
X123154792Y-165226087D01*
X123171084Y-165213587D01*
X123171085Y-165213585D01*
X123186707Y-165201599D01*
X123206256Y-165176121D01*
X123216936Y-165163943D01*
X130515052Y-157865827D01*
X130527230Y-157855147D01*
X130552707Y-157835599D01*
X130564691Y-157819980D01*
X130564694Y-157819978D01*
X130594180Y-157781551D01*
X130650244Y-157708488D01*
X130711558Y-157560463D01*
X130717938Y-157512000D01*
X130727220Y-157441497D01*
X130727220Y-157441491D01*
X130732470Y-157401612D01*
X130728280Y-157369791D01*
X130727220Y-157353607D01*
X130727220Y-138969049D01*
X130746905Y-138902010D01*
X130759064Y-138886083D01*
X130796750Y-138844230D01*
X130797951Y-138842148D01*
X130802707Y-138837613D01*
X130805472Y-138834543D01*
X130805706Y-138834753D01*
X130848515Y-138793931D01*
X130917122Y-138780705D01*
X130981988Y-138806670D01*
G37*
G04 #@! TD.AperFunction*
G04 #@! TA.AperFunction,Conductor*
G36*
X142026311Y-157672702D02*
G01*
X142063524Y-157731837D01*
X142068220Y-157765638D01*
X142068220Y-162640512D01*
X142048535Y-162707551D01*
X142043487Y-162714822D01*
X142025830Y-162738408D01*
X141974731Y-162875406D01*
X141968573Y-162932687D01*
X141968220Y-162935974D01*
X141968220Y-163683250D01*
X141968572Y-163686530D01*
X141968573Y-163686536D01*
X141974731Y-163743817D01*
X142025830Y-163880815D01*
X142113458Y-163997873D01*
X142230516Y-164085501D01*
X142382112Y-164142045D01*
X142381660Y-164143255D01*
X142429476Y-164163061D01*
X142469324Y-164220454D01*
X142471817Y-164290279D01*
X142436164Y-164350367D01*
X142373685Y-164381642D01*
X142367930Y-164382469D01*
X142287312Y-164412539D01*
X142230516Y-164433723D01*
X142230515Y-164433723D01*
X142213814Y-164439953D01*
X142212209Y-164435650D01*
X142177984Y-164448380D01*
X142118819Y-164437968D01*
X142061704Y-164412539D01*
X141890326Y-164376112D01*
X141890324Y-164376112D01*
X141715116Y-164376112D01*
X141715114Y-164376112D01*
X141543735Y-164412539D01*
X141486620Y-164437968D01*
X141417370Y-164447252D01*
X141392758Y-164436922D01*
X141391628Y-164439953D01*
X141223328Y-164377179D01*
X141223779Y-164375969D01*
X141175964Y-164356164D01*
X141136116Y-164298771D01*
X141133622Y-164228946D01*
X141169274Y-164168857D01*
X141231753Y-164137582D01*
X141237515Y-164136753D01*
X141320473Y-164105810D01*
X141374924Y-164085501D01*
X141491981Y-163997873D01*
X141579609Y-163880816D01*
X141613214Y-163790719D01*
X141630708Y-163743817D01*
X141630708Y-163743815D01*
X141630709Y-163743813D01*
X141637220Y-163683250D01*
X141637220Y-162935974D01*
X141630709Y-162875411D01*
X141630708Y-162875409D01*
X141630708Y-162875406D01*
X141579609Y-162738408D01*
X141561953Y-162714822D01*
X141537536Y-162649358D01*
X141537220Y-162640512D01*
X141537220Y-157848590D01*
X141556905Y-157781551D01*
X141609709Y-157735796D01*
X141635439Y-157727300D01*
X141636323Y-157727112D01*
X141636324Y-157727112D01*
X141807704Y-157690684D01*
X141893783Y-157652359D01*
X141963034Y-157643074D01*
X142026311Y-157672702D01*
G37*
G04 #@! TD.AperFunction*
G04 #@! TA.AperFunction,Conductor*
G36*
X132541959Y-130343797D02*
G01*
X132587714Y-130396601D01*
X132588888Y-130404766D01*
X132614801Y-130359051D01*
X132676647Y-130326543D01*
X132701080Y-130324112D01*
X148611309Y-130324112D01*
X148678348Y-130343797D01*
X148698990Y-130360431D01*
X149572216Y-131233657D01*
X149605701Y-131294980D01*
X149607856Y-131308376D01*
X149618943Y-131413862D01*
X149673085Y-131580494D01*
X149760687Y-131732227D01*
X149877929Y-131862436D01*
X150019674Y-131965420D01*
X150179738Y-132036685D01*
X150351114Y-132073112D01*
X150381747Y-132073112D01*
X150448786Y-132092797D01*
X150494541Y-132145601D01*
X150504485Y-132214759D01*
X150475460Y-132278315D01*
X150469428Y-132284793D01*
X148237992Y-134516230D01*
X148176669Y-134549715D01*
X148150311Y-134552549D01*
X148141116Y-134552549D01*
X147969740Y-134588975D01*
X147809674Y-134660241D01*
X147667933Y-134763222D01*
X147550689Y-134893433D01*
X147463087Y-135045166D01*
X147408945Y-135211798D01*
X147390631Y-135386049D01*
X147408945Y-135560299D01*
X147463087Y-135726931D01*
X147550689Y-135878664D01*
X147667931Y-136008873D01*
X147809676Y-136111857D01*
X147969740Y-136183122D01*
X148141116Y-136219549D01*
X148141118Y-136219549D01*
X148316328Y-136219549D01*
X148474081Y-136186017D01*
X148487706Y-136183121D01*
X148620472Y-136124009D01*
X148689720Y-136114725D01*
X148743789Y-136136970D01*
X148811297Y-136186017D01*
X148842930Y-136209000D01*
X149002994Y-136280265D01*
X149146746Y-136310820D01*
X149208228Y-136344012D01*
X149238896Y-136393791D01*
X149265268Y-136474954D01*
X149352869Y-136626686D01*
X149470111Y-136756895D01*
X149611856Y-136859879D01*
X149771920Y-136931144D01*
X149898247Y-136957995D01*
X149959729Y-136991187D01*
X149990397Y-137040964D01*
X149993898Y-137051741D01*
X150081501Y-137203475D01*
X150198743Y-137333684D01*
X150207399Y-137339973D01*
X150340488Y-137436668D01*
X150500550Y-137507932D01*
X150560918Y-137520763D01*
X150622397Y-137553954D01*
X150653065Y-137603732D01*
X150669165Y-137653279D01*
X150669166Y-137653282D01*
X150756770Y-137805018D01*
X150874008Y-137935223D01*
X150874009Y-137935224D01*
X151015754Y-138038208D01*
X151175818Y-138109473D01*
X151347194Y-138145900D01*
X151375348Y-138145900D01*
X151442387Y-138165585D01*
X151488142Y-138218389D01*
X151498086Y-138287547D01*
X151469061Y-138351103D01*
X151460057Y-138360456D01*
X151392684Y-138423478D01*
X151392657Y-138423503D01*
X151391565Y-138424526D01*
X151390508Y-138425616D01*
X151390496Y-138425629D01*
X150845596Y-138988178D01*
X150845572Y-138988203D01*
X150844523Y-138989287D01*
X150843516Y-138990434D01*
X150843501Y-138990451D01*
X150326985Y-139579150D01*
X150326955Y-139579185D01*
X150325967Y-139580312D01*
X150325018Y-139581506D01*
X150325011Y-139581516D01*
X149838104Y-140194972D01*
X149838086Y-140194994D01*
X149837158Y-140196165D01*
X149836298Y-140197365D01*
X149836275Y-140197396D01*
X149380167Y-140834113D01*
X149380151Y-140834135D01*
X149379281Y-140835351D01*
X149378474Y-140836603D01*
X149378454Y-140836633D01*
X148954284Y-141495021D01*
X148954273Y-141495038D01*
X148953449Y-141496318D01*
X148952700Y-141497616D01*
X148952678Y-141497653D01*
X148561455Y-142176142D01*
X148561445Y-142176159D01*
X148560695Y-142177461D01*
X148560015Y-142178786D01*
X148560001Y-142178813D01*
X148202661Y-142875784D01*
X148202652Y-142875801D01*
X148201974Y-142877125D01*
X148201366Y-142878468D01*
X148201355Y-142878493D01*
X147878773Y-143592247D01*
X147878157Y-143593611D01*
X147877612Y-143594993D01*
X147877603Y-143595016D01*
X147590586Y-144323766D01*
X147590574Y-144323798D01*
X147590030Y-144325180D01*
X147589559Y-144326571D01*
X147589546Y-144326609D01*
X147341776Y-145059749D01*
X147338293Y-145070055D01*
X147337879Y-145071511D01*
X147337875Y-145071526D01*
X147136713Y-145780083D01*
X147123556Y-145826427D01*
X147123218Y-145827885D01*
X147123211Y-145827915D01*
X146946692Y-146590948D01*
X146946687Y-146590969D01*
X146946343Y-146592459D01*
X146946078Y-146593927D01*
X146946071Y-146593965D01*
X146807349Y-147364803D01*
X146807344Y-147364833D01*
X146807082Y-147366291D01*
X146806890Y-147367767D01*
X146806885Y-147367805D01*
X146740149Y-147883189D01*
X146712019Y-147947145D01*
X146653776Y-147985740D01*
X146583913Y-147986720D01*
X146529495Y-147954946D01*
X144916819Y-146342270D01*
X144883334Y-146280947D01*
X144880500Y-146254589D01*
X144880500Y-145270437D01*
X144900185Y-145203398D01*
X144912344Y-145187471D01*
X144950030Y-145145618D01*
X145037634Y-144993882D01*
X145091777Y-144827249D01*
X145110091Y-144653000D01*
X145091777Y-144478751D01*
X145049014Y-144347142D01*
X145037634Y-144312117D01*
X144950032Y-144160384D01*
X144832790Y-144030175D01*
X144691045Y-143927191D01*
X144530981Y-143855926D01*
X144438790Y-143836331D01*
X144377308Y-143803139D01*
X144343532Y-143741976D01*
X144341250Y-143702085D01*
X144348091Y-143637000D01*
X144329777Y-143462751D01*
X144292611Y-143348368D01*
X144275634Y-143296117D01*
X144188032Y-143144384D01*
X144103897Y-143050944D01*
X144070792Y-143014177D01*
X144070791Y-143014176D01*
X144070789Y-143014174D01*
X144056140Y-143003531D01*
X144013475Y-142948201D01*
X144007497Y-142878587D01*
X144040104Y-142816793D01*
X144041276Y-142815603D01*
X144557952Y-142298927D01*
X144570130Y-142288247D01*
X144595607Y-142268699D01*
X144609733Y-142250288D01*
X144609737Y-142250285D01*
X144620096Y-142236784D01*
X144620098Y-142236783D01*
X144693144Y-142141588D01*
X144754458Y-141993563D01*
X144759645Y-141954162D01*
X144770120Y-141874597D01*
X144770120Y-141874591D01*
X144775370Y-141834712D01*
X144771180Y-141802891D01*
X144770120Y-141786707D01*
X144770120Y-135540627D01*
X144773711Y-135520728D01*
X144773324Y-135520687D01*
X144774989Y-135505201D01*
X144781500Y-135444638D01*
X144781500Y-134347362D01*
X144774989Y-134286799D01*
X144774988Y-134286797D01*
X144774988Y-134286794D01*
X144723889Y-134149796D01*
X144636261Y-134032738D01*
X144519203Y-133945110D01*
X144382205Y-133894011D01*
X144324924Y-133887853D01*
X144324918Y-133887852D01*
X144321638Y-133887500D01*
X143924362Y-133887500D01*
X143921087Y-133887851D01*
X143921068Y-133887853D01*
X143886250Y-133891596D01*
X143859747Y-133891596D01*
X143824930Y-133887853D01*
X143824913Y-133887852D01*
X143821638Y-133887500D01*
X143424362Y-133887500D01*
X143421088Y-133887851D01*
X143421067Y-133887853D01*
X143386250Y-133891596D01*
X143359747Y-133891596D01*
X143324930Y-133887853D01*
X143324914Y-133887852D01*
X143321638Y-133887500D01*
X142924362Y-133887500D01*
X142921087Y-133887851D01*
X142921068Y-133887853D01*
X142886250Y-133891596D01*
X142859747Y-133891596D01*
X142824930Y-133887853D01*
X142824913Y-133887852D01*
X142821638Y-133887500D01*
X142424362Y-133887500D01*
X142421088Y-133887851D01*
X142421067Y-133887853D01*
X142386250Y-133891596D01*
X142359747Y-133891596D01*
X142324930Y-133887853D01*
X142324914Y-133887852D01*
X142321638Y-133887500D01*
X141924362Y-133887500D01*
X141921082Y-133887852D01*
X141921075Y-133887853D01*
X141863794Y-133894011D01*
X141726796Y-133945110D01*
X141609738Y-134032738D01*
X141522110Y-134149796D01*
X141471011Y-134286794D01*
X141467247Y-134321807D01*
X141464500Y-134347362D01*
X141464500Y-135444638D01*
X141464852Y-135447918D01*
X141464853Y-135447924D01*
X141471011Y-135505201D01*
X141471280Y-135505922D01*
X141479100Y-135549260D01*
X141479100Y-138483394D01*
X141459415Y-138550433D01*
X141406611Y-138596188D01*
X141405537Y-138596673D01*
X141334164Y-138628451D01*
X141192422Y-138731432D01*
X141075178Y-138861642D01*
X140987576Y-139013375D01*
X140933434Y-139180007D01*
X140915120Y-139354258D01*
X140933434Y-139528508D01*
X140987576Y-139695140D01*
X141075178Y-139846873D01*
X141192420Y-139977082D01*
X141334165Y-140080066D01*
X141494229Y-140151331D01*
X141604000Y-140174663D01*
X141665482Y-140207855D01*
X141699259Y-140269018D01*
X141702220Y-140295953D01*
X141702220Y-142710767D01*
X141682535Y-142777806D01*
X141665901Y-142798448D01*
X139469384Y-144994964D01*
X139457191Y-145005657D01*
X139431729Y-145025195D01*
X139418455Y-145042494D01*
X139407238Y-145057111D01*
X139407236Y-145057114D01*
X139404887Y-145060174D01*
X139404883Y-145060178D01*
X139334188Y-145152310D01*
X139278780Y-145286081D01*
X139272874Y-145300336D01*
X139257213Y-145419301D01*
X139257213Y-145419307D01*
X139251962Y-145459185D01*
X139256152Y-145491004D01*
X139257213Y-145507190D01*
X139257213Y-149515955D01*
X139237528Y-149582994D01*
X139184724Y-149628749D01*
X139115566Y-149638693D01*
X139052010Y-149609668D01*
X139045532Y-149603636D01*
X138949404Y-149507508D01*
X138949401Y-149507505D01*
X138755830Y-149371965D01*
X138541663Y-149272097D01*
X138480501Y-149255709D01*
X138313407Y-149210936D01*
X138078000Y-149190340D01*
X137842592Y-149210936D01*
X137614336Y-149272097D01*
X137400170Y-149371965D01*
X137206598Y-149507505D01*
X137039505Y-149674598D01*
X136903965Y-149868170D01*
X136804097Y-150082336D01*
X136742936Y-150310592D01*
X136722340Y-150545999D01*
X136742936Y-150781407D01*
X136780702Y-150922350D01*
X136804097Y-151009663D01*
X136903965Y-151223830D01*
X137039505Y-151417401D01*
X137206599Y-151584495D01*
X137400170Y-151720035D01*
X137614337Y-151819903D01*
X137842592Y-151881063D01*
X138078000Y-151901659D01*
X138313408Y-151881063D01*
X138541663Y-151819903D01*
X138755830Y-151720035D01*
X138949401Y-151584495D01*
X139045532Y-151488363D01*
X139106855Y-151454879D01*
X139176547Y-151459863D01*
X139232480Y-151501735D01*
X139256897Y-151567199D01*
X139257213Y-151576045D01*
X139257213Y-152398012D01*
X139237528Y-152465051D01*
X139220894Y-152485693D01*
X136816650Y-154889937D01*
X136755327Y-154923422D01*
X136685635Y-154918438D01*
X136629702Y-154876566D01*
X136605285Y-154811102D01*
X136604969Y-154802256D01*
X136604969Y-152913372D01*
X136606030Y-152897186D01*
X136609198Y-152873126D01*
X136610220Y-152865361D01*
X136589307Y-152706510D01*
X136527993Y-152558485D01*
X136496918Y-152517987D01*
X136454955Y-152463300D01*
X136454944Y-152463287D01*
X136444268Y-152449374D01*
X136430456Y-152431374D01*
X136404981Y-152411826D01*
X136392795Y-152401138D01*
X135589539Y-151597882D01*
X135556054Y-151536559D01*
X135553220Y-151510201D01*
X135553220Y-139669616D01*
X135554281Y-139653430D01*
X135558470Y-139621611D01*
X135553220Y-139581735D01*
X135553220Y-139581734D01*
X135553220Y-139581727D01*
X135537558Y-139462762D01*
X135476244Y-139314737D01*
X135435671Y-139261861D01*
X135403197Y-139219540D01*
X135403194Y-139219537D01*
X135396119Y-139210317D01*
X135396119Y-139210316D01*
X135388928Y-139200945D01*
X135378707Y-139187625D01*
X135353232Y-139168077D01*
X135341046Y-139157389D01*
X130803657Y-134620000D01*
X133400909Y-134620000D01*
X133419223Y-134794250D01*
X133473365Y-134960882D01*
X133560967Y-135112615D01*
X133678209Y-135242824D01*
X133819954Y-135345808D01*
X133980018Y-135417073D01*
X134151394Y-135453500D01*
X134151396Y-135453500D01*
X134326606Y-135453500D01*
X134497981Y-135417073D01*
X134497982Y-135417072D01*
X134497984Y-135417072D01*
X134658046Y-135345808D01*
X134799792Y-135242823D01*
X134917030Y-135112618D01*
X134944525Y-135064996D01*
X135004634Y-134960882D01*
X135013113Y-134934787D01*
X135058777Y-134794249D01*
X135077091Y-134620000D01*
X135058777Y-134445751D01*
X135007128Y-134286794D01*
X135004634Y-134279117D01*
X134917032Y-134127384D01*
X134831812Y-134032739D01*
X134799792Y-133997177D01*
X134799791Y-133997176D01*
X134799790Y-133997175D01*
X134658045Y-133894191D01*
X134497981Y-133822926D01*
X134326606Y-133786500D01*
X134326604Y-133786500D01*
X134151396Y-133786500D01*
X134151394Y-133786500D01*
X133980018Y-133822926D01*
X133819952Y-133894192D01*
X133678211Y-133997173D01*
X133560967Y-134127384D01*
X133473365Y-134279117D01*
X133419223Y-134445749D01*
X133400909Y-134620000D01*
X130803657Y-134620000D01*
X130001539Y-133817882D01*
X129968054Y-133756559D01*
X129965220Y-133730201D01*
X129965220Y-131826000D01*
X131324692Y-131826000D01*
X131343884Y-132045368D01*
X131400880Y-132258077D01*
X131424212Y-132308112D01*
X131493944Y-132457654D01*
X131620251Y-132638038D01*
X131775962Y-132793749D01*
X131956346Y-132920056D01*
X132155924Y-133013120D01*
X132368629Y-133070115D01*
X132588000Y-133089307D01*
X132807371Y-133070115D01*
X133020076Y-133013120D01*
X133219654Y-132920056D01*
X133398768Y-132794638D01*
X140224500Y-132794638D01*
X140224852Y-132797918D01*
X140224853Y-132797924D01*
X140231011Y-132855205D01*
X140282110Y-132992203D01*
X140369738Y-133109261D01*
X140486796Y-133196889D01*
X140623794Y-133247988D01*
X140623797Y-133247988D01*
X140623799Y-133247989D01*
X140684362Y-133254500D01*
X140687672Y-133254500D01*
X141378328Y-133254500D01*
X141381638Y-133254500D01*
X141442201Y-133247989D01*
X141442203Y-133247988D01*
X141442205Y-133247988D01*
X141556286Y-133205437D01*
X141579204Y-133196889D01*
X141696261Y-133109261D01*
X141783889Y-132992204D01*
X141834989Y-132855201D01*
X141841500Y-132794638D01*
X144404500Y-132794638D01*
X144404852Y-132797918D01*
X144404853Y-132797924D01*
X144411011Y-132855205D01*
X144462110Y-132992203D01*
X144549738Y-133109261D01*
X144666796Y-133196889D01*
X144803794Y-133247988D01*
X144803797Y-133247988D01*
X144803799Y-133247989D01*
X144864362Y-133254500D01*
X144867672Y-133254500D01*
X145558328Y-133254500D01*
X145561638Y-133254500D01*
X145622201Y-133247989D01*
X145622203Y-133247988D01*
X145622205Y-133247988D01*
X145736286Y-133205437D01*
X145759204Y-133196889D01*
X145876261Y-133109261D01*
X145963889Y-132992204D01*
X146014989Y-132855201D01*
X146021500Y-132794638D01*
X146021500Y-131697362D01*
X146014989Y-131636799D01*
X146014988Y-131636797D01*
X146014988Y-131636794D01*
X145963889Y-131499796D01*
X145876261Y-131382738D01*
X145759203Y-131295110D01*
X145622205Y-131244011D01*
X145564924Y-131237853D01*
X145564918Y-131237852D01*
X145561638Y-131237500D01*
X144864362Y-131237500D01*
X144861082Y-131237852D01*
X144861075Y-131237853D01*
X144803794Y-131244011D01*
X144666796Y-131295110D01*
X144549738Y-131382738D01*
X144462110Y-131499796D01*
X144411011Y-131636794D01*
X144404853Y-131694075D01*
X144404500Y-131697362D01*
X144404500Y-132794638D01*
X141841500Y-132794638D01*
X141841500Y-131697362D01*
X141834989Y-131636799D01*
X141834988Y-131636797D01*
X141834988Y-131636794D01*
X141783889Y-131499796D01*
X141696261Y-131382738D01*
X141579203Y-131295110D01*
X141442205Y-131244011D01*
X141384924Y-131237853D01*
X141384918Y-131237852D01*
X141381638Y-131237500D01*
X140684362Y-131237500D01*
X140681082Y-131237852D01*
X140681075Y-131237853D01*
X140623794Y-131244011D01*
X140486796Y-131295110D01*
X140369738Y-131382738D01*
X140282110Y-131499796D01*
X140231011Y-131636794D01*
X140224853Y-131694075D01*
X140224500Y-131697362D01*
X140224500Y-132794638D01*
X133398768Y-132794638D01*
X133400038Y-132793749D01*
X133555749Y-132638038D01*
X133682056Y-132457654D01*
X133775120Y-132258076D01*
X133832115Y-132045371D01*
X133851307Y-131826000D01*
X133832115Y-131606629D01*
X133775120Y-131393924D01*
X133682056Y-131194347D01*
X133555749Y-131013962D01*
X133400038Y-130858251D01*
X133219654Y-130731944D01*
X133127636Y-130689035D01*
X133020077Y-130638880D01*
X132807368Y-130581884D01*
X132690273Y-130571640D01*
X132625204Y-130546188D01*
X132585786Y-130491753D01*
X132568633Y-130529315D01*
X132509855Y-130567089D01*
X132485727Y-130571640D01*
X132368631Y-130581884D01*
X132155922Y-130638880D01*
X131977749Y-130721964D01*
X131956347Y-130731944D01*
X131777023Y-130857508D01*
X131775958Y-130858254D01*
X131620254Y-131013958D01*
X131620251Y-131013961D01*
X131620251Y-131013962D01*
X131519388Y-131158010D01*
X131493943Y-131194349D01*
X131400880Y-131393922D01*
X131343884Y-131606631D01*
X131324692Y-131826000D01*
X129965220Y-131826000D01*
X129965220Y-130527023D01*
X129984905Y-130459984D01*
X130001539Y-130439342D01*
X130080450Y-130360431D01*
X130141773Y-130326946D01*
X130168131Y-130324112D01*
X132474920Y-130324112D01*
X132541959Y-130343797D01*
G37*
G04 #@! TD.AperFunction*
G04 #@! TA.AperFunction,Conductor*
G36*
X143140121Y-144384958D02*
G01*
X143147220Y-144387859D01*
X143251016Y-144434072D01*
X143343211Y-144453668D01*
X143404690Y-144486860D01*
X143438467Y-144548022D01*
X143440749Y-144587919D01*
X143433909Y-144652999D01*
X143452223Y-144827250D01*
X143506365Y-144993882D01*
X143593967Y-145145615D01*
X143593970Y-145145618D01*
X143631650Y-145187465D01*
X143661879Y-145250455D01*
X143663500Y-145270437D01*
X143663500Y-146509995D01*
X143662439Y-146526180D01*
X143658249Y-146557999D01*
X143662786Y-146592459D01*
X143663500Y-146597879D01*
X143663500Y-146597885D01*
X143674598Y-146682185D01*
X143679162Y-146716851D01*
X143723463Y-146823803D01*
X143740476Y-146864876D01*
X143813496Y-146960038D01*
X143813513Y-146960060D01*
X143813523Y-146960072D01*
X143813525Y-146960074D01*
X143838013Y-146991987D01*
X143838014Y-146991988D01*
X143863478Y-147011527D01*
X143875673Y-147022222D01*
X145533477Y-148680026D01*
X145566962Y-148741349D01*
X145569796Y-148767707D01*
X145569796Y-154766291D01*
X145568735Y-154782476D01*
X145564545Y-154814295D01*
X145569796Y-154854175D01*
X145569796Y-154854181D01*
X145580437Y-154935006D01*
X145585457Y-154973146D01*
X145646771Y-155121172D01*
X145719792Y-155216334D01*
X145719809Y-155216356D01*
X145719819Y-155216368D01*
X145719821Y-155216370D01*
X145738211Y-155240336D01*
X145744310Y-155248284D01*
X145769774Y-155267823D01*
X145781969Y-155278518D01*
X146393504Y-155890053D01*
X146426989Y-155951376D01*
X146429823Y-155977734D01*
X146429823Y-156409377D01*
X146410138Y-156476416D01*
X146357334Y-156522171D01*
X146305823Y-156533377D01*
X146286770Y-156533377D01*
X146115394Y-156569803D01*
X145955328Y-156641069D01*
X145813587Y-156744050D01*
X145696343Y-156874261D01*
X145615061Y-157015049D01*
X145564494Y-157063264D01*
X145533455Y-157074339D01*
X145353738Y-157112538D01*
X145215798Y-157173953D01*
X145146548Y-157183237D01*
X145083271Y-157153608D01*
X145046059Y-157094473D01*
X145041363Y-157060673D01*
X145041363Y-156559063D01*
X145042424Y-156542877D01*
X145046613Y-156511058D01*
X145041363Y-156471180D01*
X145041363Y-156471174D01*
X145025702Y-156352212D01*
X145022431Y-156344314D01*
X145014407Y-156324941D01*
X144964387Y-156204183D01*
X144892980Y-156111124D01*
X144891347Y-156108996D01*
X144891338Y-156108985D01*
X144873043Y-156085143D01*
X144866850Y-156077072D01*
X144841375Y-156057524D01*
X144829189Y-156046836D01*
X141327918Y-152545565D01*
X141294433Y-152484242D01*
X141291599Y-152457884D01*
X141291599Y-152269593D01*
X141311284Y-152202554D01*
X141364088Y-152156799D01*
X141433246Y-152146855D01*
X141496802Y-152175880D01*
X141499128Y-152177949D01*
X141647822Y-152313647D01*
X141874956Y-152470789D01*
X141878668Y-152472678D01*
X142103604Y-152587148D01*
X142121109Y-152596056D01*
X142381837Y-152687184D01*
X142652430Y-152742527D01*
X142928000Y-152761087D01*
X143203570Y-152742527D01*
X143474163Y-152687184D01*
X143734891Y-152596056D01*
X143981044Y-152470789D01*
X144208178Y-152313647D01*
X144412188Y-152127467D01*
X144589392Y-151915612D01*
X144607779Y-151886444D01*
X144639987Y-151835354D01*
X144654054Y-151820328D01*
X144663488Y-151807345D01*
X144663488Y-151807344D01*
X144663490Y-151807343D01*
X144664937Y-151802887D01*
X144677107Y-151776913D01*
X144677387Y-151776007D01*
X144677389Y-151776005D01*
X144677389Y-151776001D01*
X144678500Y-151772414D01*
X144678499Y-151749523D01*
X144678591Y-151744740D01*
X144679734Y-151715061D01*
X144678499Y-151704047D01*
X144678499Y-149707947D01*
X144679734Y-149696932D01*
X144678591Y-149667229D01*
X144678499Y-149662460D01*
X144678499Y-149639578D01*
X144677113Y-149635102D01*
X144664933Y-149609102D01*
X144663489Y-149604657D01*
X144663488Y-149604656D01*
X144654059Y-149591678D01*
X144639991Y-149576651D01*
X144591610Y-149499905D01*
X144591608Y-149499902D01*
X144589392Y-149496387D01*
X144412188Y-149284532D01*
X144208177Y-149098352D01*
X143981044Y-148941210D01*
X143977336Y-148939323D01*
X143977331Y-148939320D01*
X143738601Y-148817831D01*
X143738594Y-148817828D01*
X143734890Y-148815943D01*
X143730956Y-148814568D01*
X143478101Y-148726191D01*
X143478091Y-148726188D01*
X143474162Y-148724815D01*
X143470082Y-148723980D01*
X143470073Y-148723978D01*
X143207658Y-148670307D01*
X143207653Y-148670306D01*
X143203569Y-148669471D01*
X143199415Y-148669191D01*
X143199406Y-148669190D01*
X142932157Y-148651192D01*
X142927999Y-148650912D01*
X142923842Y-148651192D01*
X142656592Y-148669191D01*
X142656582Y-148669192D01*
X142652429Y-148669472D01*
X142648348Y-148670306D01*
X142648338Y-148670308D01*
X142385924Y-148723979D01*
X142385911Y-148723982D01*
X142381836Y-148724816D01*
X142377910Y-148726187D01*
X142377896Y-148726192D01*
X142125041Y-148814569D01*
X142125036Y-148814571D01*
X142121108Y-148815944D01*
X142117408Y-148817826D01*
X142117396Y-148817832D01*
X141878666Y-148939321D01*
X141878654Y-148939327D01*
X141874954Y-148941211D01*
X141871537Y-148943574D01*
X141871527Y-148943581D01*
X141651250Y-149095980D01*
X141651249Y-149095981D01*
X141647821Y-149098353D01*
X141644748Y-149101157D01*
X141644746Y-149101159D01*
X141499186Y-149233998D01*
X141436398Y-149264648D01*
X141367007Y-149256487D01*
X141313043Y-149212106D01*
X141291640Y-149145596D01*
X141291599Y-149142405D01*
X141291599Y-146182329D01*
X141311284Y-146115290D01*
X141327913Y-146094653D01*
X143009108Y-144413457D01*
X143070429Y-144379974D01*
X143140121Y-144384958D01*
G37*
G04 #@! TD.AperFunction*
G04 #@! TA.AperFunction,Conductor*
G36*
X166767553Y-128962509D02*
G01*
X166823486Y-129004381D01*
X166847903Y-129069845D01*
X166848219Y-129078691D01*
X166848220Y-129984094D01*
X166828536Y-130051133D01*
X166811901Y-130071775D01*
X166718495Y-130165181D01*
X166657172Y-130198666D01*
X166630814Y-130201500D01*
X154573182Y-130201500D01*
X154506143Y-130181815D01*
X154460388Y-130129011D01*
X154450444Y-130059853D01*
X154479469Y-129996297D01*
X154485501Y-129989819D01*
X154671501Y-129803819D01*
X154732824Y-129770334D01*
X154759182Y-129767500D01*
X165559995Y-129767500D01*
X165576179Y-129768560D01*
X165608000Y-129772750D01*
X165647880Y-129767500D01*
X165647885Y-129767500D01*
X165747456Y-129754391D01*
X165766851Y-129751838D01*
X165914876Y-129690524D01*
X166010072Y-129617477D01*
X166010074Y-129617474D01*
X166041987Y-129592987D01*
X166061534Y-129567513D01*
X166072218Y-129555330D01*
X166636540Y-128991008D01*
X166697861Y-128957525D01*
X166767553Y-128962509D01*
G37*
G04 #@! TD.AperFunction*
M02*
